<?xml version="1.0" encoding="UTF-8" standalone="no"?>
<!-- Created with Inkscape (http://www.inkscape.org/) -->

<svg
   xmlns:dc="http://purl.org/dc/elements/1.1/"
   xmlns:cc="http://creativecommons.org/ns#"
   xmlns:rdf="http://www.w3.org/1999/02/22-rdf-syntax-ns#"
   xmlns:svg="http://www.w3.org/2000/svg"
   xmlns="http://www.w3.org/2000/svg"
   xmlns:sodipodi="http://sodipodi.sourceforge.net/DTD/sodipodi-0.dtd"
   xmlns:inkscape="http://www.inkscape.org/namespaces/inkscape"
   id="svg2"
   version="1.1"
   inkscape:version="0.91 r13725"
   xml:space="preserve"
   width="3000"
   height="1102.8373"
   viewBox="0 0 3000 1102.8373"
   sodipodi:docname="SII.svg"><title
     id="title5730">Servicio de Impuestos Internos</title><metadata
     id="metadata8"><rdf:RDF><cc:Work
         rdf:about=""><dc:format>image/svg+xml</dc:format><dc:type
           rdf:resource="http://purl.org/dc/dcmitype/StillImage" /><dc:title>Servicio de Impuestos Internos</dc:title></cc:Work></rdf:RDF></metadata><defs
     id="defs6" /><sodipodi:namedview
     pagecolor="#ffffff"
     bordercolor="#666666"
     borderopacity="1"
     objecttolerance="10"
     gridtolerance="10"
     guidetolerance="10"
     inkscape:pageopacity="0"
     inkscape:pageshadow="2"
     inkscape:window-width="1366"
     inkscape:window-height="715"
     id="namedview4"
     showgrid="false"
     inkscape:showpageshadow="false"
     fit-margin-top="20"
     fit-margin-right="20"
     fit-margin-bottom="20"
     fit-margin-left="20"
     inkscape:zoom="0.22263514"
     inkscape:cx="1500"
     inkscape:cy="551.41859"
     inkscape:window-x="-8"
     inkscape:window-y="-8"
     inkscape:window-maximized="1"
     inkscape:current-layer="g10" /><g
     id="g10"
     inkscape:groupmode="layer"
     inkscape:label="4415"
     transform="matrix(1.25,0,0,-1.25,83.564167,2294.5068)"><g
       id="g5669"><path
         inkscape:connector-curvature="0"
         id="path660"
         style="fill:#0061a1;fill-opacity:1;fill-rule:nonzero;stroke:none"
         d="m 451.5093,969.33558 200.47419,0 0,599.77672 -200.47419,0 0,-599.77672 z" /><g
         transform="matrix(28.874288,0,0,28.874288,453.37458,1719.325)"
         id="g662"><path
           inkscape:connector-curvature="0"
           id="path664"
           style="fill:#e9500d;fill-opacity:1;fill-rule:nonzero;stroke:none"
           d="M 0,0 C 0,1.919 1.555,3.473 3.472,3.473 5.389,3.473 6.943,1.919 6.943,0 6.943,-1.916 5.389,-3.471 3.472,-3.471 1.555,-3.471 0,-1.916 0,0" /></g><path
         inkscape:connector-curvature="0"
         id="path666"
         style="fill:#0061a1;fill-opacity:1;fill-rule:nonzero;stroke:none"
         d="m 752.20614,969.33558 200.47418,0 0,599.77672 -200.47418,0 0,-599.77672 z" /><g
         transform="matrix(28.874288,0,0,28.874288,752.20036,1719.325)"
         id="g668"><path
           inkscape:connector-curvature="0"
           id="path670"
           style="fill:#e9500d;fill-opacity:1;fill-rule:nonzero;stroke:none"
           d="M 0,0 C 0,1.919 1.555,3.473 3.471,3.473 5.388,3.473 6.943,1.919 6.943,0 6.943,-1.916 5.388,-3.471 3.471,-3.471 1.555,-3.471 0,-1.916 0,0" /></g><path
         inkscape:connector-curvature="0"
         id="path672"
         style="fill:#0061a1;fill-opacity:1;fill-rule:nonzero;stroke:none"
         d="m 152.74705,1819.5967 200.4453,0 0,-200.4164 -200.4453,0 0,200.4164 z" /><g
         transform="matrix(28.874288,0,0,28.874288,-19.638228,1619.1659)"
         id="g674"><path
           inkscape:connector-curvature="0"
           id="path676"
           style="fill:#0061a1;fill-opacity:1;fill-rule:nonzero;stroke:none"
           d="m 0,0 5.97,0 c 0,0 -0.162,-0.495 -0.162,-1.194 0,-0.869 0.295,-1.812 1.165,-2.69 2.356,-2.377 3.405,-3.136 5.051,-5.211 0.912,-1.152 1.474,-2.817 1.474,-4.788 0,-2.785 -1.271,-5.043 -2.731,-6.36 -1.475,-1.333 -3.551,-2.2 -5.453,-2.2 -1.546,0 -3.308,0.34 -4.386,0.895 -1.357,0.697 -2.009,1.143 -2.009,1.143 l 0,5.921 c 0,0 0.627,-0.539 1.786,-1.194 0.841,-0.475 1.724,-0.848 3.013,-0.934 1.112,-0.075 2.209,0.142 2.917,0.93 0.598,0.669 0.676,1.476 0.676,2.098 0,0.649 -0.202,1.188 -0.498,1.716 -1.401,2.506 -4.925,4.225 -6.268,6.67 C -0.557,-3.194 0,0 0,0" /></g><g
         transform="matrix(28.874288,0,0,28.874288,1269.1454,1606.5334)"
         id="g678"><path
           inkscape:connector-curvature="0"
           id="path680"
           style="fill:#747373;fill-opacity:1;fill-rule:nonzero;stroke:none"
           d="m 0,0 0,-1.104 c -0.749,0.336 -1.347,0.506 -1.791,0.506 -0.252,0 -0.455,-0.043 -0.605,-0.128 -0.15,-0.085 -0.223,-0.197 -0.223,-0.337 0,-0.109 0.053,-0.211 0.161,-0.308 0.108,-0.097 0.372,-0.223 0.789,-0.376 0.416,-0.154 0.752,-0.297 1.002,-0.428 0.251,-0.132 0.467,-0.318 0.649,-0.56 0.184,-0.24 0.273,-0.541 0.273,-0.909 0,-0.523 -0.198,-0.94 -0.596,-1.249 -0.397,-0.31 -0.923,-0.464 -1.571,-0.464 -0.702,0 -1.38,0.181 -2.038,0.544 l 0,1.218 c 0.377,-0.254 0.711,-0.438 1.002,-0.553 0.292,-0.118 0.601,-0.175 0.927,-0.175 0.552,0 0.829,0.175 0.829,0.52 0,0.12 -0.056,0.231 -0.168,0.337 -0.109,0.104 -0.376,0.232 -0.796,0.384 -0.423,0.149 -0.757,0.29 -1.004,0.42 -0.246,0.13 -0.46,0.314 -0.64,0.555 -0.178,0.239 -0.267,0.546 -0.267,0.921 0,0.487 0.194,0.877 0.585,1.176 0.392,0.298 0.915,0.446 1.57,0.446 C -1.308,0.436 -0.67,0.291 0,0" /></g><g
         transform="matrix(28.874288,0,0,28.874288,1328.8112,1521.7729)"
         id="g682"><path
           inkscape:connector-curvature="0"
           id="path684"
           style="fill:#747373;fill-opacity:1;fill-rule:nonzero;stroke:none"
           d="M 0,0 1.658,0 C 1.594,0.555 1.317,0.832 0.83,0.832 0.336,0.832 0.06,0.555 0,0 m 2.649,-1.165 0,-0.756 C 2.19,-2.257 1.624,-2.422 0.946,-2.422 c -0.67,0 -1.207,0.18 -1.609,0.539 -0.402,0.361 -0.604,0.838 -0.604,1.431 0,0.584 0.189,1.062 0.567,1.437 0.379,0.375 0.859,0.564 1.444,0.564 0.589,0 1.069,-0.198 1.446,-0.593 0.375,-0.395 0.553,-0.924 0.528,-1.588 l -2.743,0 c 0.025,-0.347 0.148,-0.612 0.369,-0.8 0.22,-0.186 0.519,-0.28 0.89,-0.28 0.451,0 0.923,0.183 1.415,0.547" /></g><g
         transform="matrix(28.874288,0,0,28.874288,1462.5656,1564.1517)"
         id="g686"><path
           inkscape:connector-curvature="0"
           id="path688"
           style="fill:#747373;fill-opacity:1;fill-rule:nonzero;stroke:none"
           d="m 0,0 0,-1.093 0.016,0 c 0.348,0.782 0.753,1.174 1.217,1.174 0.221,0 0.486,-0.116 0.797,-0.349 L 1.699,-1.33 C 1.402,-1.142 1.164,-1.049 0.987,-1.049 0.71,-1.049 0.475,-1.22 0.285,-1.563 0.095,-1.909 0,-2.109 0,-2.166 l 0,-1.652 -1.203,0 0,3.818 L 0,0 Z" /></g><g
         transform="matrix(28.874288,0,0,28.874288,1575.8625,1451.8423)"
         id="g690"><path
           inkscape:connector-curvature="0"
           id="path692"
           style="fill:#747373;fill-opacity:1;fill-rule:nonzero;stroke:none"
           d="m 0,0 -1.765,3.89 1.288,0 0.808,-2.104 0.824,2.104 1.274,0 L 0.672,0 0,0 Z" /></g><path
         inkscape:connector-curvature="0"
         id="path694"
         style="fill:#747373;fill-opacity:1;fill-rule:nonzero;stroke:none"
         d="m 1693.0459,1453.9039 -34.7357,0 0,110.242 34.7357,0 0,-110.242 z m -36.5837,146.1039 c 0,5.284 1.848,9.7595 5.6016,13.542 3.7537,3.7248 8.2292,5.5728 13.4266,5.5728 5.284,0 9.8172,-1.848 13.5709,-5.5728 3.7536,-3.7825 5.6016,-8.258 5.6016,-13.542 0,-5.1974 -1.848,-9.7307 -5.6016,-13.5132 -3.7537,-3.7825 -8.2869,-5.6882 -13.5709,-5.6882 -5.1974,0 -9.6729,1.9057 -13.4266,5.6882 -3.7536,3.7825 -5.6016,8.3158 -5.6016,13.5132" /><g
         transform="matrix(28.874288,0,0,28.874288,1813.6827,1484.0429)"
         id="g696"><path
           inkscape:connector-curvature="0"
           id="path698"
           style="fill:#747373;fill-opacity:1;fill-rule:nonzero;stroke:none"
           d="m 0,0 0,-0.862 c -0.468,-0.169 -0.898,-0.253 -1.29,-0.253 -0.67,0 -1.206,0.179 -1.609,0.539 -0.402,0.36 -0.603,0.838 -0.603,1.43 0,0.582 0.204,1.059 0.609,1.436 0.407,0.375 0.923,0.565 1.55,0.565 0.405,0 0.834,-0.083 1.287,-0.251 l 0,-0.893 c -0.331,0.169 -0.657,0.254 -0.979,0.254 -0.358,0 -0.645,-0.1 -0.861,-0.3 -0.216,-0.198 -0.323,-0.467 -0.323,-0.802 0,-0.338 0.105,-0.609 0.314,-0.816 0.212,-0.206 0.488,-0.311 0.83,-0.311 0.253,0 0.612,0.088 1.075,0.264" /></g><path
         inkscape:connector-curvature="0"
         id="path700"
         style="fill:#747373;fill-opacity:1;fill-rule:nonzero;stroke:none"
         d="m 1869.0636,1453.9039 -34.7069,0 0,110.242 34.7069,0 0,-110.242 z m -36.5837,146.1039 c 0,5.284 1.9057,9.7595 5.6016,13.542 3.7536,3.7248 8.2292,5.5728 13.4554,5.5728 5.284,0 9.7884,-1.848 13.542,-5.5728 3.7537,-3.7825 5.6017,-8.258 5.6017,-13.542 0,-5.1974 -1.848,-9.7307 -5.6017,-13.5132 -3.7536,-3.7825 -8.258,-5.6882 -13.542,-5.6882 -5.2262,0 -9.7018,1.9057 -13.4554,5.6882 -3.6959,3.7825 -5.6016,8.3158 -5.6016,13.5132" /><g
         transform="matrix(28.874288,0,0,28.874288,1950.6219,1472.3401)"
         id="g702"><path
           inkscape:connector-curvature="0"
           id="path704"
           style="fill:#747373;fill-opacity:1;fill-rule:nonzero;stroke:none"
           d="M 0,0 C 0.574,0 0.861,0.435 0.861,1.301 0.861,2.13 0.574,2.544 0,2.544 -0.275,2.544 -0.49,2.436 -0.645,2.216 -0.801,1.998 -0.876,1.686 -0.876,1.275 -0.876,0.426 -0.584,0 0,0 M 0,3.261 C 0.6,3.261 1.105,3.085 1.522,2.734 1.938,2.384 2.148,1.895 2.148,1.269 2.148,0.64 1.936,0.152 1.514,-0.192 1.089,-0.54 0.584,-0.71 0,-0.71 c -0.633,0 -1.152,0.182 -1.555,0.552 -0.401,0.369 -0.605,0.847 -0.605,1.433 0,0.602 0.206,1.08 0.617,1.443 0.411,0.361 0.925,0.543 1.543,0.543" /></g><g
         transform="matrix(28.874288,0,0,28.874288,2155.817,1483.3961)"
         id="g706"><path
           inkscape:connector-curvature="0"
           id="path708"
           style="fill:#747373;fill-opacity:1;fill-rule:nonzero;stroke:none"
           d="m 0,0 0,1.778 c -0.212,0.146 -0.431,0.217 -0.654,0.217 -0.295,0 -0.524,-0.102 -0.689,-0.307 -0.162,-0.206 -0.245,-0.494 -0.245,-0.864 0,-0.341 0.081,-0.616 0.244,-0.822 0.162,-0.206 0.38,-0.31 0.651,-0.31 0.238,0 0.47,0.103 0.693,0.308 m 1.172,4.488 0,-5.509 -1.172,0 0,0.3 c -0.3,-0.247 -0.644,-0.372 -1.033,-0.372 -0.496,0 -0.91,0.186 -1.244,0.554 -0.332,0.368 -0.498,0.831 -0.498,1.386 0,0.568 0.169,1.031 0.506,1.392 0.338,0.36 0.77,0.541 1.3,0.541 0.327,0 0.652,-0.079 0.969,-0.235 l 0,1.943 1.172,0 z" /></g><g
         transform="matrix(28.874288,0,0,28.874288,2240.592,1520.0809)"
         id="g710"><path
           inkscape:connector-curvature="0"
           id="path712"
           style="fill:#747373;fill-opacity:1;fill-rule:nonzero;stroke:none"
           d="M 0,0 1.615,0 C 1.553,0.542 1.284,0.811 0.808,0.811 0.328,0.811 0.059,0.542 0,0 m 2.583,-1.137 0,-0.737 c -0.447,-0.325 -1,-0.489 -1.66,-0.489 -0.655,0 -1.178,0.176 -1.569,0.528 -0.393,0.351 -0.589,0.815 -0.589,1.395 0,0.568 0.186,1.034 0.552,1.402 0.369,0.365 0.838,0.548 1.409,0.548 0.573,0 1.043,-0.192 1.409,-0.578 0.367,-0.385 0.539,-0.9 0.514,-1.547 l -2.673,0 C 0,-0.953 0.12,-1.214 0.336,-1.396 0.55,-1.578 0.84,-1.669 1.203,-1.669 c 0.438,0 0.9,0.177 1.38,0.532" /></g><path
         inkscape:connector-curvature="0"
         id="path714"
         style="fill:#747373;fill-opacity:1;fill-rule:nonzero;stroke:none"
         d="m 1193.3186,1241.5046 -41.6078,0 0,167.0378 41.6078,0 0,-167.0378 z" /><g
         transform="matrix(28.874288,0,0,28.874288,1264.5775,1354.3627)"
         id="g716"><path
           inkscape:connector-curvature="0"
           id="path718"
           style="fill:#747373;fill-opacity:1;fill-rule:nonzero;stroke:none"
           d="m 0,0 0,-0.5 c 0.417,0.389 0.871,0.583 1.359,0.583 0.673,0 1.141,-0.276 1.41,-0.832 0.472,0.556 0.987,0.832 1.542,0.832 0.45,0 0.817,-0.137 1.102,-0.411 0.284,-0.272 0.426,-0.629 0.426,-1.069 l 0,-2.511 -1.229,0 0,2.293 c 0,0.274 -0.063,0.49 -0.191,0.643 -0.127,0.155 -0.305,0.23 -0.532,0.23 -0.36,0 -0.683,-0.221 -0.971,-0.663 l 0,-2.503 -1.226,0 0,2.316 c 0,0.275 -0.069,0.485 -0.205,0.631 -0.136,0.147 -0.318,0.219 -0.544,0.219 -0.324,0 -0.638,-0.179 -0.941,-0.542 l 0,-2.624 -1.231,0 0,3.908 L 0,0 Z" /></g><g
         transform="matrix(28.874288,0,0,28.874288,1497.8558,1322.4421)"
         id="g720"><path
           inkscape:connector-curvature="0"
           id="path722"
           style="fill:#747373;fill-opacity:1;fill-rule:nonzero;stroke:none"
           d="m 0,0 0,-1.797 c 0.231,-0.172 0.468,-0.258 0.712,-0.258 0.298,0 0.535,0.108 0.71,0.322 0.174,0.213 0.263,0.503 0.263,0.868 0,0.372 -0.081,0.662 -0.242,0.868 C 1.282,0.212 1.054,0.314 0.762,0.314 0.515,0.314 0.262,0.209 0,0 M 0,1.105 0,0.766 c 0.327,0.281 0.7,0.422 1.117,0.422 0.509,0 0.938,-0.192 1.289,-0.576 0.351,-0.383 0.525,-0.856 0.525,-1.413 0,-0.628 -0.176,-1.131 -0.528,-1.51 -0.351,-0.378 -0.817,-0.568 -1.398,-0.568 -0.358,0 -0.693,0.09 -1.005,0.27 l 0,-2.147 -1.231,0 0,5.861 1.231,0 z" /></g><g
         transform="matrix(28.874288,0,0,28.874288,1683.1825,1241.5162)"
         id="g724"><path
           inkscape:connector-curvature="0"
           id="path726"
           style="fill:#747373;fill-opacity:1;fill-rule:nonzero;stroke:none"
           d="m 0,0 0,0.559 c -0.362,-0.423 -0.783,-0.635 -1.264,-0.635 -0.424,0 -0.77,0.132 -1.035,0.394 -0.265,0.262 -0.397,0.625 -0.397,1.088 l 0,2.502 1.231,0 0,-2.416 c 0,-0.495 0.205,-0.744 0.616,-0.744 0.233,0 0.43,0.091 0.594,0.273 0.165,0.178 0.247,0.313 0.247,0.398 l 0,2.489 1.238,0 L 1.23,0 0,0 Z" /></g><g
         transform="matrix(28.874288,0,0,28.874288,1779.6342,1310.9675)"
         id="g728"><path
           inkscape:connector-curvature="0"
           id="path730"
           style="fill:#747373;fill-opacity:1;fill-rule:nonzero;stroke:none"
           d="M 0,0 1.697,0 C 1.632,0.567 1.348,0.854 0.849,0.854 0.343,0.854 0.06,0.567 0,0 m 2.711,-1.193 0,-0.775 C 2.243,-2.31 1.661,-2.481 0.97,-2.481 c -0.688,0 -1.238,0.184 -1.65,0.553 -0.411,0.369 -0.616,0.859 -0.616,1.466 0,0.597 0.192,1.088 0.579,1.472 0.386,0.384 0.879,0.576 1.48,0.576 0.601,0 1.094,-0.202 1.479,-0.607 0.386,-0.404 0.565,-0.947 0.54,-1.625 l -2.807,0 c 0.025,-0.355 0.15,-0.628 0.376,-0.82 0.227,-0.191 0.531,-0.286 0.911,-0.286 0.463,0 0.946,0.187 1.449,0.559" /></g><g
         transform="matrix(28.874288,0,0,28.874288,1961.5364,1348.3857)"
         id="g732"><path
           inkscape:connector-curvature="0"
           id="path734"
           style="fill:#747373;fill-opacity:1;fill-rule:nonzero;stroke:none"
           d="m 0,0 0,-0.874 c -0.468,0.287 -0.903,0.433 -1.303,0.433 -0.295,0 -0.444,-0.103 -0.444,-0.304 0,-0.053 0.032,-0.104 0.094,-0.155 0.064,-0.052 0.3,-0.16 0.715,-0.325 0.415,-0.165 0.706,-0.354 0.877,-0.57 0.171,-0.215 0.258,-0.452 0.258,-0.71 0,-0.406 -0.138,-0.72 -0.415,-0.941 -0.277,-0.22 -0.67,-0.331 -1.18,-0.331 -0.524,0 -0.992,0.094 -1.4,0.285 l 0,0.866 c 0.503,-0.221 0.923,-0.331 1.263,-0.331 0.397,0 0.597,0.097 0.597,0.289 0,0.075 -0.037,0.145 -0.111,0.211 -0.074,0.066 -0.321,0.182 -0.739,0.345 -0.42,0.165 -0.706,0.344 -0.861,0.541 -0.155,0.195 -0.231,0.415 -0.231,0.654 0,0.357 0.148,0.647 0.444,0.871 C -2.14,0.179 -1.748,0.29 -1.262,0.29 -0.796,0.29 -0.374,0.192 0,0" /></g><g
         transform="matrix(28.874288,0,0,28.874288,2070.2365,1354.3627)"
         id="g736"><path
           inkscape:connector-curvature="0"
           id="path738"
           style="fill:#747373;fill-opacity:1;fill-rule:nonzero;stroke:none"
           d="m 0,0 0,-0.841 -1.423,0 0,-1.611 c 0,-0.193 0.052,-0.345 0.158,-0.457 0.106,-0.112 0.253,-0.167 0.442,-0.167 0.253,0 0.529,0.074 0.823,0.227 L 0,-3.74 c -0.392,-0.162 -0.771,-0.244 -1.137,-0.244 -0.481,0 -0.854,0.124 -1.12,0.373 -0.264,0.248 -0.397,0.612 -0.397,1.093 l 0,1.677 -0.559,0 0,0.241 1.635,1.829 0.155,0 L -1.423,0 0,0 Z" /></g><g
         transform="matrix(28.874288,0,0,28.874288,2146.8083,1260.3797)"
         id="g740"><path
           inkscape:connector-curvature="0"
           id="path742"
           style="fill:#747373;fill-opacity:1;fill-rule:nonzero;stroke:none"
           d="M 0,0 C 0.588,0 0.883,0.443 0.883,1.332 0.883,2.18 0.588,2.606 0,2.606 -0.281,2.606 -0.501,2.492 -0.661,2.269 -0.82,2.044 -0.899,1.724 -0.899,1.306 -0.899,0.435 -0.599,0 0,0 m 0,3.338 c 0.613,0 1.133,-0.181 1.56,-0.54 C 1.986,2.44 2.2,1.939 2.2,1.298 2.2,0.654 1.983,0.155 1.55,-0.199 1.115,-0.553 0.6,-0.729 0,-0.729 c -0.649,0 -1.18,0.188 -1.592,0.565 -0.412,0.379 -0.619,0.867 -0.619,1.47 0,0.613 0.211,1.106 0.631,1.477 0.42,0.369 0.948,0.555 1.58,0.555" /></g><g
         transform="matrix(28.874288,0,0,28.874288,2310.9442,1348.3857)"
         id="g744"><path
           inkscape:connector-curvature="0"
           id="path746"
           style="fill:#747373;fill-opacity:1;fill-rule:nonzero;stroke:none"
           d="m 0,0 0,-0.874 c -0.47,0.287 -0.903,0.433 -1.305,0.433 -0.295,0 -0.443,-0.103 -0.443,-0.304 0,-0.053 0.031,-0.104 0.093,-0.155 0.063,-0.052 0.301,-0.16 0.715,-0.325 0.415,-0.165 0.708,-0.354 0.878,-0.57 0.172,-0.215 0.256,-0.452 0.256,-0.71 0,-0.406 -0.136,-0.72 -0.413,-0.941 -0.276,-0.22 -0.669,-0.331 -1.18,-0.331 -0.525,0 -0.991,0.094 -1.401,0.285 l 0,0.866 c 0.503,-0.221 0.923,-0.331 1.264,-0.331 0.397,0 0.596,0.097 0.596,0.289 0,0.075 -0.037,0.145 -0.11,0.211 -0.074,0.066 -0.321,0.182 -0.74,0.345 -0.418,0.165 -0.706,0.344 -0.86,0.541 -0.155,0.195 -0.232,0.415 -0.232,0.654 0,0.357 0.148,0.647 0.445,0.871 C -2.14,0.179 -1.749,0.29 -1.263,0.29 -0.796,0.29 -0.375,0.192 0,0" /></g><path
         inkscape:connector-curvature="0"
         id="path748"
         style="fill:#747373;fill-opacity:1;fill-rule:nonzero;stroke:none"
         d="m 1193.3186,1029.7117 -41.6078,0 0,167.0666 41.6078,0 0,-167.0666 z" /><g
         transform="matrix(28.874288,0,0,28.874288,1264.0837,1142.5986)"
         id="g750"><path
           inkscape:connector-curvature="0"
           id="path752"
           style="fill:#747373;fill-opacity:1;fill-rule:nonzero;stroke:none"
           d="m 0,0 0,-0.555 c 0.363,0.426 0.786,0.639 1.271,0.639 0.408,0 0.747,-0.13 1.018,-0.391 0.272,-0.259 0.408,-0.631 0.408,-1.115 l 0,-2.487 -1.231,0 0,2.383 c 0,0.524 -0.202,0.785 -0.609,0.785 -0.288,0 -0.574,-0.215 -0.857,-0.646 l 0,-2.522 -1.229,0 0,3.909 L 0,0 Z" /></g><g
         transform="matrix(28.874288,0,0,28.874288,1451.0476,1142.5986)"
         id="g754"><path
           inkscape:connector-curvature="0"
           id="path756"
           style="fill:#747373;fill-opacity:1;fill-rule:nonzero;stroke:none"
           d="m 0,0 0,-0.841 -1.424,0 0,-1.61 c 0,-0.194 0.052,-0.347 0.16,-0.459 0.105,-0.111 0.252,-0.167 0.44,-0.167 0.254,0 0.529,0.076 0.824,0.227 l 0,-0.89 c -0.391,-0.163 -0.771,-0.245 -1.139,-0.245 -0.481,0 -0.853,0.126 -1.117,0.373 -0.265,0.25 -0.399,0.615 -0.399,1.093 l 0,1.678 -0.559,0 0,0.241 1.636,1.829 0.154,0 L -1.424,0 0,0 Z" /></g><g
         transform="matrix(28.874288,0,0,28.874288,1501.3524,1099.1746)"
         id="g758"><path
           inkscape:connector-curvature="0"
           id="path760"
           style="fill:#747373;fill-opacity:1;fill-rule:nonzero;stroke:none"
           d="M 0,0 1.698,0 C 1.632,0.569 1.349,0.854 0.849,0.854 0.344,0.854 0.061,0.569 0,0 m 2.713,-1.191 0,-0.775 C 2.243,-2.31 1.662,-2.481 0.969,-2.481 c -0.688,0 -1.237,0.185 -1.649,0.554 -0.41,0.369 -0.617,0.858 -0.617,1.466 0,0.597 0.194,1.089 0.58,1.472 0.388,0.384 0.88,0.577 1.479,0.577 0.602,0 1.095,-0.204 1.48,-0.608 0.386,-0.404 0.566,-0.946 0.541,-1.626 l -2.807,0 C 0,-1.001 0.125,-1.273 0.353,-1.465 c 0.225,-0.191 0.529,-0.286 0.911,-0.286 0.461,0 0.944,0.187 1.449,0.56" /></g><g
         transform="matrix(28.874288,0,0,28.874288,1642.0135,1142.5986)"
         id="g762"><path
           inkscape:connector-curvature="0"
           id="path764"
           style="fill:#747373;fill-opacity:1;fill-rule:nonzero;stroke:none"
           d="m 0,0 0,-1.118 0.015,0 c 0.357,0.801 0.772,1.202 1.247,1.202 0.227,0 0.498,-0.119 0.815,-0.355 L 1.738,-1.362 c -0.304,0.192 -0.546,0.29 -0.728,0.29 -0.286,0 -0.524,-0.177 -0.72,-0.53 C 0.097,-1.954 0,-2.159 0,-2.218 l 0,-1.691 -1.232,0 0,3.909 L 0,0 Z" /></g><g
         transform="matrix(28.874288,0,0,28.874288,1752.5905,1142.5986)"
         id="g766"><path
           inkscape:connector-curvature="0"
           id="path768"
           style="fill:#747373;fill-opacity:1;fill-rule:nonzero;stroke:none"
           d="m 0,0 0,-0.555 c 0.361,0.426 0.785,0.639 1.271,0.639 0.406,0 0.746,-0.13 1.018,-0.391 0.272,-0.259 0.407,-0.631 0.407,-1.115 l 0,-2.487 -1.23,0 0,2.383 c 0,0.524 -0.202,0.785 -0.609,0.785 -0.289,0 -0.576,-0.215 -0.857,-0.646 l 0,-2.522 -1.23,0 L -1.23,0 0,0 Z" /></g><g
         transform="matrix(28.874288,0,0,28.874288,1917.3789,1048.6157)"
         id="g770"><path
           inkscape:connector-curvature="0"
           id="path772"
           style="fill:#747373;fill-opacity:1;fill-rule:nonzero;stroke:none"
           d="M 0,0 C 0.589,0 0.882,0.442 0.882,1.331 0.882,2.181 0.589,2.604 0,2.604 -0.282,2.604 -0.501,2.493 -0.661,2.269 -0.82,2.045 -0.898,1.724 -0.898,1.307 -0.898,0.436 -0.6,0 0,0 m 0,3.339 c 0.613,0 1.131,-0.18 1.56,-0.54 C 1.985,2.44 2.2,1.939 2.2,1.298 2.2,0.654 1.983,0.154 1.549,-0.199 1.114,-0.553 0.599,-0.73 0,-0.73 c -0.649,0 -1.18,0.189 -1.592,0.567 -0.413,0.377 -0.621,0.866 -0.621,1.47 0,0.613 0.213,1.105 0.632,1.474 0.423,0.371 0.95,0.558 1.581,0.558" /></g><g
         transform="matrix(28.874288,0,0,28.874288,2081.4888,1136.6217)"
         id="g774"><path
           inkscape:connector-curvature="0"
           id="path776"
           style="fill:#747373;fill-opacity:1;fill-rule:nonzero;stroke:none"
           d="m 0,0 0,-0.874 c -0.469,0.287 -0.905,0.431 -1.305,0.431 -0.295,0 -0.443,-0.101 -0.443,-0.302 0,-0.053 0.031,-0.105 0.094,-0.155 0.062,-0.051 0.3,-0.161 0.715,-0.324 0.413,-0.165 0.706,-0.355 0.877,-0.571 0.172,-0.216 0.257,-0.452 0.257,-0.71 0,-0.405 -0.139,-0.72 -0.414,-0.941 -0.277,-0.22 -0.67,-0.332 -1.181,-0.332 -0.524,0 -0.991,0.095 -1.399,0.287 l 0,0.866 c 0.503,-0.223 0.923,-0.332 1.263,-0.332 0.397,0 0.596,0.096 0.596,0.289 0,0.074 -0.037,0.145 -0.11,0.211 -0.073,0.065 -0.319,0.181 -0.741,0.346 -0.417,0.163 -0.705,0.343 -0.859,0.539 -0.154,0.196 -0.232,0.415 -0.232,0.655 0,0.357 0.148,0.646 0.445,0.871 0.297,0.224 0.688,0.337 1.175,0.337 C -0.796,0.291 -0.375,0.193 0,0" /></g></g></g></svg>