<?xml version="1.0" encoding="utf-8"?>
<!-- Generator: Adobe Illustrator 16.0.0, SVG Export Plug-In . SVG Version: 6.00 Build 0)  -->
<!DOCTYPE svg PUBLIC "-//W3C//DTD SVG 1.1//EN" "http://www.w3.org/Graphics/SVG/1.1/DTD/svg11.dtd">
<svg version="1.1" id="Layer_1" xmlns="http://www.w3.org/2000/svg" xmlns:xlink="http://www.w3.org/1999/xlink" x="0px" y="0px"
	 width="200px" height="200px" viewBox="0 0 200 200" enable-background="new 0 0 200 200" xml:space="preserve">
<g>
	<g>
		<g>
			<path fill="#22ae8a" d="M100-0.002C44.771-0.002,0,44.771,0,99.999c0,55.222,44.771,100.003,100,100.003
				c55.229,0,100-44.781,100-100.003C200,44.771,155.229-0.002,100-0.002z M100,186.661c-47.776,0-86.658-38.871-86.658-86.662
				c0-47.792,38.882-86.667,86.658-86.667c47.791,0,86.674,38.875,86.674,86.667C186.674,147.79,147.791,186.661,100,186.661z"/>
		</g>
	</g>
	<g>
		<path fill="#22ae8a" d="M80.529,151.674c-8.189,0-15.138-6.053-16.299-14.13L52.073,82.392c-0.059-0.306-0.108-0.6-0.129-0.893
			c-0.463-2.02-0.701-4.043-0.701-6.025c0-14.968,12.178-27.148,27.154-27.148c2.569,0,5.117,0.366,7.581,1.08
			c0.353,0.06,0.701,0.151,1.039,0.268c3.38,1.176,9.539,2.924,12.724,2.924c2.442,0,6.569-0.787,11.368-2.154
			c3.349-1.405,6.873-2.118,10.494-2.118c14.971,0,27.153,12.18,27.153,27.148c0,1.428-0.118,2.884-0.356,4.343l0.005,0.043
			l-0.177,0.981l-12.063,55.888c-0.089,0.688-0.228,1.387-0.42,2.11l-0.127,0.655l-0.167,0.357
			c-2.24,6.7-8.594,11.312-15.639,11.312c-7.885,0-14.748-5.755-16.188-13.46c-0.154-0.555-0.234-1.121-0.246-1.697l-0.005-0.348
			c-0.021-0.322-0.04-0.643-0.04-0.973c0-0.154,0.005-0.303,0.018-0.453c-0.031-7.5-1.817-10.131-2.621-10.713
			c-1.496,0.824-3.724,4.133-3.724,12.316v1.044l-0.139,0.396C95.831,145.421,88.814,151.674,80.529,151.674"/>
	</g>
</g>
</svg>
