<?xml version="1.0" encoding="utf-8"?>
<!-- Generator: Adobe Illustrator 16.0.0, SVG Export Plug-In . SVG Version: 6.00 Build 0)  -->
<!DOCTYPE svg PUBLIC "-//W3C//DTD SVG 1.1//EN" "http://www.w3.org/Graphics/SVG/1.1/DTD/svg11.dtd">
<svg version="1.1" id="Layer_1" xmlns="http://www.w3.org/2000/svg" xmlns:xlink="http://www.w3.org/1999/xlink" x="0px" y="0px"
	 width="200px" height="200px" viewBox="0 0 200 200" enable-background="new 0 0 200 200" xml:space="preserve">
<g>
	<path fill="#22ae8a" d="M100,0C44.771,0,0,44.771,0,100s44.771,100,100,100s100-44.771,100-100S155.229,0,100,0z M100,25
		c41.351,0,75,33.649,75,75c0,16.175-5.197,31.131-13.943,43.384L56.617,38.943C68.878,30.197,83.825,25,100,25z M25,100
		c0-16.175,5.197-31.131,13.935-43.384l104.449,104.44l0,0C131.114,169.803,116.175,175,100,175C58.649,175,25,141.351,25,100z"/>
</g>
</svg>
