<?xml version="1.0" encoding="utf-8"?>
<!-- Generator: Adobe Illustrator 16.0.0, SVG Export Plug-In . SVG Version: 6.00 Build 0)  -->
<!DOCTYPE svg PUBLIC "-//W3C//DTD SVG 1.1//EN" "http://www.w3.org/Graphics/SVG/1.1/DTD/svg11.dtd">
<svg version="1.1" id="Layer_1" xmlns="http://www.w3.org/2000/svg" xmlns:xlink="http://www.w3.org/1999/xlink" x="0px" y="0px"
	 width="200px" height="200px" viewBox="0 0 200 200" enable-background="new 0 0 200 200" xml:space="preserve">
<g>
	<g>
		<path fill="#22ae8a" d="M51.548,105.379h96.921c2.967,0,5.377-2.411,5.377-5.379c0-2.975-2.41-5.386-5.377-5.386H51.548
			c-2.976,0-5.394,2.411-5.394,5.386C46.154,102.968,48.572,105.379,51.548,105.379z M51.548,73.077h96.921
			c2.967,0,5.377-2.419,5.377-5.387c0-2.975-2.41-5.386-5.377-5.386H51.548c-2.976,0-5.394,2.411-5.394,5.386
			C46.154,70.658,48.572,73.077,51.548,73.077z M51.548,137.688h96.921c2.967,0,5.377-2.411,5.377-5.386
			c0-2.967-2.41-5.379-5.377-5.379H51.548c-2.976,0-5.394,2.412-5.394,5.379C46.154,135.276,48.572,137.688,51.548,137.688z"/>
	</g>
	<g>
		<path fill="#22ae8a" d="M100,0C44.771,0,0,44.771,0,100c0,55.221,44.771,100,100,100c55.229,0,100-44.779,100-100
			C200,44.771,155.229,0,100,0z M100,186.666c-47.776,0-86.658-38.874-86.658-86.666c0-47.791,38.882-86.666,86.658-86.666
			c47.792,0,86.674,38.875,86.674,86.666C186.674,147.792,147.791,186.666,100,186.666z"/>
	</g>
</g>
</svg>
