<?xml version="1.0" encoding="utf-8"?>
<!-- Generator: Adobe Illustrator 16.0.0, SVG Export Plug-In . SVG Version: 6.00 Build 0)  -->
<!DOCTYPE svg PUBLIC "-//W3C//DTD SVG 1.1//EN" "http://www.w3.org/Graphics/SVG/1.1/DTD/svg11.dtd">
<svg version="1.1" id="Layer_1" xmlns="http://www.w3.org/2000/svg" xmlns:xlink="http://www.w3.org/1999/xlink" x="0px" y="0px"
	 width="200px" height="200px" viewBox="0 0 200 200" enable-background="new 0 0 200 200" xml:space="preserve">
<g>
	<path fill="#fa7268" d="M100,0C44.773,0,0,44.773,0,100s44.773,100,100,100s100-44.773,100-100S155.227,0,100,0z M100,186.664
		c-47.781,0-86.672-38.883-86.672-86.664c0-47.789,38.891-86.672,86.672-86.672S186.672,52.211,186.672,100
		C186.672,147.781,147.781,186.664,100,186.664z M153.328,93.328H46.672C42.984,93.328,40,96.32,40,100s2.984,6.664,6.672,6.664
		h106.656c3.688,0,6.672-2.984,6.672-6.664S157.016,93.328,153.328,93.328z"/>
</g>
</svg>
