<?xml version="1.0" encoding="utf-8"?>
<!-- Generator: Adobe Illustrator 25.4.1, SVG Export Plug-In . SVG Version: 6.00 Build 0)  -->
<svg version="1.1" id="Layer_1" xmlns="http://www.w3.org/2000/svg" xmlns:xlink="http://www.w3.org/1999/xlink" x="0px" y="0px"
	 viewBox="0 0 512 512" style="enable-background:new 0 0 512 512;" xml:space="preserve">
<style type="text/css">
	.st0{fill:#4F5761;}
	.st1{fill:#3E454D;}
	.st2{opacity:0.75;fill:url(#SVGID_1_);}
	.st3{fill:#299FBB;}
	.st4{fill:#D7DCE2;}
	.st5{fill:#C5CBD3;}
	.st6{fill:url(#SVGID_00000023993145177576336600000008275791654593861295_);}
	.st7{fill:url(#SVGID_00000041991686418622835860000015232694611148164489_);}
</style>
<path class="st0" d="M-164.5-208.9h-301c-3.9,0-7-3.1-7-7v-25.4c0-3.9,3.1-7,7-7h301.1c3.9,0,7,3.1,7,7v25.4
	C-157.5-212.1-160.6-208.9-164.5-208.9L-164.5-208.9z"/>
<path class="st1" d="M-421-248.3v39.4h-44.5c-3.9,0-7-3.1-7-7v-25.4c0-3.9,3.1-7,7-7H-421z"/>
<g>
	
		<linearGradient id="SVGID_1_" gradientUnits="userSpaceOnUse" x1="443.2905" y1="1031.1598" x2="153.0527" y2="1031.646" gradientTransform="matrix(1 1.700000e-03 -1.700000e-03 1 56.8276 -628.006)">
		<stop  offset="0" style="stop-color:#5EA814"/>
		<stop  offset="0.351" style="stop-color:#62A914"/>
		<stop  offset="0.6685" style="stop-color:#6DAD12"/>
		<stop  offset="0.9721" style="stop-color:#7FB410"/>
		<stop  offset="1" style="stop-color:#81B510"/>
	</linearGradient>
	<polygon class="st2" points="503.8,488.9 195.2,488.4 195.5,318.9 504.1,319.4 	"/>
	<path class="st3" d="M212.6,334.3L212.4,473l274.3,0.5l0.2-138.7L212.6,334.3z M471.1,442.1c-8.7,0-15.7,7-15.7,15.7
		c0,0.8,0.1,1.5,0.2,2.3l-212.1-0.4c0.1-0.8,0.2-1.5,0.2-2.3c0-8.7-7-15.7-15.7-15.7c-0.8,0-1.5,0.1-2.3,0.2l0.1-76.4
		c0.8,0.1,1.5,0.2,2.3,0.2c8.7,0,15.7-7,15.7-15.7c0-0.8-0.1-1.5-0.2-2.3l212.1,0.4c-0.1,0.7-0.2,1.5-0.2,2.3
		c0,8.7,7,15.7,15.7,15.7c0.8,0,1.5-0.1,2.3-0.2l-0.1,76.4C472.7,442.2,471.9,442.1,471.1,442.1z"/>
	<g>
		<path class="st3" d="M357.4,414.6c-1.7-1.3-3.7-2.5-6-3.7l0,17.3c2.9-0.3,5-1.2,6.4-2.7c1.4-1.5,2.1-3.4,2.1-5.8
			C359.9,417.7,359.1,415.9,357.4,414.6z"/>
		<path class="st3" d="M341.6,386.6c0,2,0.8,3.6,2.3,5c1.5,1.3,3.4,2.5,5.8,3.7l0-16c-3.1,0.1-5.2,0.9-6.3,2.3
			C342.1,382.9,341.6,384.6,341.6,386.6z"/>
		<path class="st3" d="M350.8,353.6c-27.8,0-50.3,22.5-50.4,50.2c0,27.8,22.5,50.3,50.2,50.4c27.8,0,50.3-22.4,50.4-50.2
			C401.1,376.2,378.6,353.6,350.8,353.6z M368.1,432.5c-3.1,3.4-7.2,5.5-12.6,6.5v9.1l-10.2,0v-8.5c-3.7-0.1-7-0.5-9.8-1.2
			c-2.8-0.7-5-1.4-6.6-2.3l3.8-11.2c1.2,0.7,2.8,1.4,5,2.1c2.1,0.7,4.7,1.1,7.6,1.4l0-20c-2-0.9-4.1-1.9-6-3.1c-2-1.1-3.8-2.4-5.3-4
			c-1.6-1.5-2.8-3.5-3.8-5.6c-0.9-2.2-1.4-4.8-1.4-7.8c0-5.6,1.5-10,4.5-13.1c3-3.1,7-5.1,12.1-6l0-9l10.2,0l0,8.5
			c2.9,0.2,5.4,0.6,7.6,1.2c2.2,0.6,4.2,1.2,6,2l-3.5,10.8c-1.1-0.5-2.5-1-4.2-1.6c-1.7-0.5-3.6-0.9-5.8-1.2l0,18.5
			c2,0.9,4.1,2,6.1,3.1c2.1,1.1,3.9,2.5,5.5,4.1c1.6,1.6,2.9,3.4,3.9,5.6c1,2.1,1.5,4.7,1.5,7.6
			C372.7,424.4,371.1,429.1,368.1,432.5z"/>
	</g>
</g>
<path class="st4" d="M214.6,191.6l-23.3-4.6c-1.5-5.1-3.5-10-6.1-14.7l12.9-19.4c1.6-2.4,1.3-5.6-0.7-7.7l-17.3-17.3
	c-2.1-2.1-5.2-2.3-7.7-0.7L153,140.1c-4.8-2.6-9.6-4.5-14.7-6.1l-4.6-23.3c-0.6-2.8-3-4.9-6-4.9h-24.4c-2.9,0-5.4,2.1-6,4.9
	L92.7,134c-5.1,1.6-10,3.5-14.7,6.1l-19.4-12.9c-2.4-1.6-5.6-1.3-7.7,0.7l-17.3,17.3c-2.1,2.1-2.3,5.2-0.7,7.7l12.9,19.4
	c-2.6,4.8-4.6,9.6-6.1,14.7l-23.3,4.6c-2.8,0.6-4.9,3-4.9,6V222c0,2.9,2.1,5.4,4.9,6l23.3,4.6c1.5,5.1,3.5,10,6.1,14.7l-12.9,19.4
	c-1.6,2.4-1.3,5.6,0.7,7.7l17.3,17.3c2.1,2.1,5.2,2.3,7.7,0.7L78,279.5c4.8,2.6,9.6,4.5,14.7,6.1l4.6,23.3c0.6,2.8,3,4.9,6,4.9h24.4
	c2.9,0,5.4-2.1,6-4.9l4.6-23.3c5.1-1.6,10-3.5,14.7-6.1l19.4,12.9c2.4,1.6,5.6,1.3,7.7-0.7l17.3-17.3c2.1-2.1,2.3-5.2,0.7-7.7
	l-12.9-19.4c2.6-4.8,4.6-9.6,6.1-14.7l23.3-4.6c2.8-0.6,4.9-3,4.9-6v-24.4C219.5,194.7,217.4,192.2,214.6,191.6z M115.5,246.3
	c-20.1,0-36.6-16.5-36.6-36.6c0-20.1,16.4-36.6,36.6-36.6s36.6,16.4,36.6,36.6S135.6,246.3,115.5,246.3z"/>
<path class="st5" d="M219.5,197.6V222c0,2.9-2.1,5.4-4.9,6l-23.3,4.6c-1.5,5.1-3.5,10-6.1,14.7l12.9,19.4c1.6,2.4,1.3,5.6-0.7,7.7
	l-17.3,17.3c-2.1,2.1-5.2,2.3-7.7,0.7L153,279.5c-4.8,2.6-9.6,4.5-14.7,6.1l-4.6,23.3c-0.6,2.8-3,4.9-6,4.9h-12.2v-67.4
	c20.1,0,36.6-16.5,36.6-36.6c0-20.1-16.4-36.6-36.6-36.6v-67.4h12.2c2.9,0,5.4,2.1,6,4.9l4.6,23.3c5.1,1.6,10,3.5,14.7,6.1
	l19.4-12.9c2.4-1.6,5.6-1.3,7.7,0.7l17.3,17.3c2.1,2.1,2.3,5.2,0.7,7.7l-12.9,19.4c2.6,4.8,4.6,9.6,6.1,14.7l23.3,4.6
	C217.4,192.2,219.5,194.7,219.5,197.6z"/>
<g>
	<path class="st4" d="M347,79.9l-17.4-3.5c-1.1-3.8-2.6-7.5-4.6-11l9.7-14.5c1.2-1.8,1-4.2-0.5-5.7l-12.9-12.9
		c-1.5-1.5-3.9-1.7-5.7-0.5L301,41.4c-3.6-1.9-7.2-3.4-11-4.6l-3.5-17.4c-0.5-2.1-2.3-3.6-4.5-3.6h-18.2c-2.2,0-4,1.5-4.5,3.6
		l-3.5,17.4c-3.8,1.2-7.5,2.6-11,4.6l-14.5-9.6c-1.8-1.2-4.2-1-5.7,0.5l-12.9,12.9c-1.5,1.5-1.7,3.9-0.5,5.7l9.7,14.5
		c-1.9,3.5-3.5,7.2-4.6,11l-17.4,3.5c-2.1,0.5-3.6,2.3-3.6,4.5v18.2c0,2.2,1.5,4,3.6,4.5l17.4,3.5c1.1,3.8,2.6,7.5,4.6,11l-9.7,14.5
		c-1.2,1.8-1,4.2,0.5,5.7l12.9,12.9c1.5,1.5,3.9,1.7,5.7,0.5l14.5-9.7c3.6,1.9,7.2,3.4,11,4.6l3.5,17.4c0.5,2.1,2.3,3.6,4.5,3.6H282
		c2.2,0,4-1.5,4.5-3.6l3.5-17.4c3.8-1.2,7.5-2.6,11-4.6l14.5,9.7c1.8,1.2,4.2,1,5.7-0.5l12.9-12.9c1.5-1.5,1.7-3.9,0.5-5.7
		l-9.7-14.5c1.9-3.5,3.5-7.2,4.6-11L347,107c2.1-0.5,3.6-2.3,3.6-4.5V84.3C350.6,82.2,349.1,80.3,347,79.9z M272.9,120.8
		c-15,0-27.3-12.3-27.3-27.3c0-15,12.3-27.3,27.3-27.3c15,0,27.3,12.3,27.3,27.3S287.9,120.8,272.9,120.8z"/>
	<path class="st5" d="M350.6,84.3v18.2c0,2.2-1.5,4-3.6,4.5l-17.4,3.5c-1.1,3.8-2.6,7.5-4.6,11l9.7,14.5c1.2,1.8,1,4.2-0.5,5.7
		l-12.9,12.9c-1.5,1.5-3.9,1.7-5.7,0.5l-14.5-9.7c-3.6,1.9-7.2,3.4-11,4.6l-3.5,17.4c-0.5,2.1-2.3,3.6-4.5,3.6h-9.1v-50.4
		c15,0,27.3-12.3,27.3-27.3c0-15-12.3-27.3-27.3-27.3V15.7h9.1c2.2,0,4,1.5,4.5,3.6l3.5,17.4c3.8,1.2,7.5,2.6,11,4.6l14.5-9.7
		c1.8-1.2,4.2-1,5.7,0.5l12.9,12.9c1.5,1.5,1.7,3.9,0.5,5.7L325,65.4c1.9,3.5,3.5,7.2,4.6,11l17.4,3.5
		C349.1,80.3,350.6,82.2,350.6,84.3z"/>
</g>
<linearGradient id="SVGID_00000061443824570100717350000014670178505468148139_" gradientUnits="userSpaceOnUse" x1="45.5549" y1="393.1668" x2="183.5658" y2="393.1668">
	<stop  offset="0" style="stop-color:#006DF0"/>
	<stop  offset="1" style="stop-color:#25D8CF"/>
</linearGradient>
<path style="fill:url(#SVGID_00000061443824570100717350000014670178505468148139_);" d="M92.9,432.7c0-2.5,0.1-5,0-7.1V364
	l20.3,20.3l11.2-11.2L85,333.7l-39.4,39.4l11.2,11.2L77,364l0,61.9c0.1,2.1,0,4.4,0,6.6c-0.1,4.6-0.1,9.3,0.6,13.6l1.1,6.6h104.8
	v-15.8H92.8C92.8,435.5,92.8,434.1,92.9,432.7z"/>
<linearGradient id="SVGID_00000079469830279958453470000013836729573821597349_" gradientUnits="userSpaceOnUse" x1="332.0208" y1="245.0067" x2="470.0317" y2="245.0067">
	<stop  offset="0" style="stop-color:#006DF0"/>
	<stop  offset="1" style="stop-color:#25D8CF"/>
</linearGradient>
<path style="fill:url(#SVGID_00000079469830279958453470000013836729573821597349_);" d="M458.9,253.9l-20.3,20.3v-61.6
	c-0.1-2.4,0-4.6,0-6.9c0.1-4.6,0.1-9.3-0.6-13.6l-1.1-6.6H332v15.8h90.8c0,1.4,0,2.8,0,4.1c0,2.5-0.1,5,0,7.4l0,61.3l-20.3-20.3
	l-11.2,11.2l39.4,39.4l39.4-39.4L458.9,253.9z"/>
</svg>
