<?xml version="1.0" encoding="utf-8"?>
<!-- Generator: Adobe Illustrator 24.2.3, SVG Export Plug-In . SVG Version: 6.00 Build 0)  -->
<svg version="1.1" id="Capa_1" xmlns="http://www.w3.org/2000/svg" xmlns:xlink="http://www.w3.org/1999/xlink" x="0px" y="0px"
	 viewBox="0 0 200 200" style="enable-background:new 0 0 200 200;" xml:space="preserve">
<style type="text/css">
	.st0{fill:none;stroke:#FFFFFF;stroke-width:7;stroke-miterlimit:10;}
	.st1{fill:#FFFFFF;}
</style>
<circle class="st0" cx="100" cy="100" r="93.5"/>
<g>
	<g id="XMLID_1_">
		<g>
			<path class="st1" d="M116.9,137.4c1,5.9-0.5,11.3-4.4,15.9c-5.2,6.1-13.5,7.5-20,3.9c-6.5-3.5-9.5-9.3-9.7-16.6
				c0.2-4.9,1.6-9.2,4.9-12.8c5.2-5.8,12.9-7.1,19.2-4.1C112.6,126.4,115.9,131.1,116.9,137.4z"/>
			<path class="st1" d="M111.2,41c3.3,1.6,4.2,3.3,4,7.1c-0.4,6.9-0.6,13.8-1,20.7c-0.4,8.8-0.8,17.6-1.2,26.4
				c-0.2,4.1-0.4,8.2-0.6,12.4c-0.1,1.1-0.1,2.2-0.4,3.2c-0.5,2.3-2.7,4-5,4c-4.6,0-9.2-0.1-13.8,0c-2.5,0-5.4-2.4-5.6-5.3
				c-0.3-7.5-0.7-15-1-22.6c-0.5-11.7-1.1-23.4-1.6-35c-0.1-1.7-0.2-3.4-0.2-5.1c0-2.9,1.3-4.9,4-5.9C96.3,41,103.8,41,111.2,41z"/>
		</g>
		<g>
		</g>
	</g>
</g>
</svg>
