<?xml version="1.0" encoding="utf-8"?>
<!-- Generator: Adobe Illustrator 23.0.4, SVG Export Plug-In . SVG Version: 6.00 Build 0)  -->
<svg version="1.1" id="Capa_1" xmlns="http://www.w3.org/2000/svg" xmlns:xlink="http://www.w3.org/1999/xlink" x="0px" y="0px"
	 viewBox="0 0 200 200" style="enable-background:new 0 0 200 200;" xml:space="preserve">
<style type="text/css">
	.st0{fill:url(#SVGID_1_);}
	.st1{fill:url(#SVGID_2_);}
	.st2{fill:#3366CC;}
	.st3{fill:url(#SVGID_3_);}
	.st4{fill:url(#SVGID_4_);}
	.st5{fill:none;stroke:#3366CC;stroke-width:7;stroke-miterlimit:10;}
	.st6{clip-path:url(#SVGID_6_);}
	.st7{fill:url(#SVGID_7_);}
	.st8{fill:#FFFFFF;}
</style>
<g>
	<g id="XMLID_2_">
		<g>
			
				<linearGradient id="SVGID_1_" gradientUnits="userSpaceOnUse" x1="31.632" y1="107.9111" x2="157.732" y2="107.9111" gradientTransform="matrix(1 0 0 -1 0 199.89)">
				<stop  offset="0" style="stop-color:#FFFFFF"/>
				<stop  offset="0.2301" style="stop-color:#FCFEFE"/>
				<stop  offset="0.3713" style="stop-color:#F4FCFC"/>
				<stop  offset="0.4886" style="stop-color:#E5F8F8"/>
				<stop  offset="0.5927" style="stop-color:#D1F2F2"/>
				<stop  offset="0.6882" style="stop-color:#B6EAEA"/>
				<stop  offset="0.7773" style="stop-color:#96E1E1"/>
				<stop  offset="0.8615" style="stop-color:#6FD6D6"/>
				<stop  offset="0.9397" style="stop-color:#43C9C9"/>
				<stop  offset="1" style="stop-color:#1CBEBE"/>
			</linearGradient>
			<path class="st0" d="M55.5,102.5c0.7,0.2,1.4,0.1,2.2,0.1c24.7,0,49.4,0,74.1,0c0.7,0,1.3,0.1,2-0.1c1.9-0.4,3-1.5,3-3.4
				s-1.1-3.1-3-3.5c-0.6-0.1-1.3-0.1-2-0.1c-12.3,0-24.7,0-37,0s-24.7,0-37,0c-0.7,0-1.5-0.1-2.2,0.1c-1.8,0.4-2.8,1.6-2.8,3.4
				C52.6,100.9,53.7,102.1,55.5,102.5z M55.7,81.5c0.6,0.1,1.3,0.1,2,0.1c12.3,0,24.6,0,36.8,0c12.4,0,24.8,0,37.3,0
				c0.7,0,1.3,0.1,2-0.1c1.9-0.4,3-1.5,3-3.4s-1.1-3.1-3-3.5c-0.6-0.1-1.3-0.1-2-0.1c-24.7,0-49.4,0-74.1,0c-0.7,0-1.3-0.1-2,0.1
				c-1.9,0.4-3,1.5-3,3.4C52.7,80,53.8,81.1,55.7,81.5z M57,60.5c5.5,0,11,0,16.4,0c5.6,0,11.3,0,16.9,0c2.8,0,4.4-1.3,4.4-3.5
				s-1.6-3.5-4.4-3.5c-11.1,0-22.2,0-33.3,0c-2.8,0-4.4,1.3-4.4,3.5C52.6,59.2,54.2,60.5,57,60.5z M115.8,42.2
				c0,10.8,7.5,18.3,18.3,18.3c7.7,0,15.3,0,23,0c0.1,0,0.3,0.1,0.6,0.1c0,19,0,38,0,57.2c-15.9-3.5-29.7,0.2-40.1,12.9
				c-10.4,12.6-11.3,26.9-4.8,42c-1,0-1.7,0-2.5,0c-22.3,0-44.6,0-66.9,0c-7.6,0-11.8-4.2-11.8-11.8c0-46,0-91.9,0-137.9
				c0-7.5,4.2-11.7,11.6-11.7c23.4,0,46.8,0,70.1,0c0.7,0,1.4,0,2.4,0c0,0.9,0,1.7,0,2.5C115.7,23.3,115.7,32.7,115.8,42.2z"/>
			
				<linearGradient id="SVGID_2_" gradientUnits="userSpaceOnUse" x1="115.732" y1="44.7111" x2="178.932" y2="44.7111" gradientTransform="matrix(1 0 0 -1 0 199.89)">
				<stop  offset="0" style="stop-color:#FFFFFF"/>
				<stop  offset="0.2301" style="stop-color:#FCFEFE"/>
				<stop  offset="0.3713" style="stop-color:#F4FCFC"/>
				<stop  offset="0.4886" style="stop-color:#E5F8F8"/>
				<stop  offset="0.5927" style="stop-color:#D1F2F2"/>
				<stop  offset="0.6882" style="stop-color:#B6EAEA"/>
				<stop  offset="0.7773" style="stop-color:#96E1E1"/>
				<stop  offset="0.8615" style="stop-color:#6FD6D6"/>
				<stop  offset="0.9397" style="stop-color:#43C9C9"/>
				<stop  offset="1" style="stop-color:#1CBEBE"/>
			</linearGradient>
			<path class="st1" d="M134.8,153.5c1.4,1.5,3.5,1.5,5.1,0c1.2-1.1,2.2-2.4,3.3-3.5c0.2,0.1,0.4,0.2,0.6,0.3c0,6,0,12.1,0,18.1
				c0,2.8,1.3,4.4,3.5,4.4s3.5-1.6,3.5-4.4c0-5.6,0-11.1,0-16.7c0-0.5,0.1-1,0.2-2.2c0.9,1,1.4,1.7,1.9,2.2c0.5,0.6,1.1,1.2,1.7,1.7
				c1.6,1.4,3.5,1.5,4.9,0.2c1.4-1.4,1.5-3.5,0-5.1c-3.2-3.3-6.4-6.6-9.8-9.8c-1.6-1.6-3.5-1.6-5.1,0c-3.3,3.2-6.6,6.5-9.8,9.8
				C133.5,150.1,133.5,152.1,134.8,153.5z M147.4,123.6c17.4,0,31.5,14.3,31.5,31.8c-0.1,17.3-14.3,31.4-31.7,31.4
				s-31.5-14.3-31.5-31.8C115.8,137.7,130,123.6,147.4,123.6z"/>
			<path class="st2" d="M159.6,148.5c1.5,1.6,1.5,3.7,0,5.1c-1.4,1.3-3.3,1.3-4.9-0.2c-0.6-0.5-1.2-1.1-1.7-1.7
				c-0.5-0.6-1-1.2-1.9-2.2c-0.1,1.1-0.2,1.6-0.2,2.2c0,5.6,0,11.1,0,16.7c0,2.8-1.3,4.4-3.5,4.4s-3.5-1.6-3.5-4.4
				c0-6,0-12.1,0-18.1c-0.2-0.1-0.4-0.2-0.6-0.3c-1.1,1.2-2.1,2.5-3.3,3.5c-1.6,1.5-3.7,1.5-5.1,0c-1.3-1.4-1.3-3.4,0.2-4.9
				c3.2-3.3,6.4-6.6,9.8-9.8c1.6-1.6,3.5-1.6,5.1,0C153.2,142,156.4,145.2,159.6,148.5z"/>
			<path class="st2" d="M147.2,186.8c17.4,0,31.6-14,31.7-31.4c0.1-17.5-14-31.7-31.5-31.8c-17.4,0-31.6,14-31.7,31.4
				C115.7,172.5,129.8,186.7,147.2,186.8z M122.9,44c0.2,5.2,4.8,9.3,10.1,9.4c3.6,0.1,7.2,0,10.7,0c3.2,0,6.3,0,10,0
				c-10.4-12.1-20.5-23.9-30.9-36.1C122.8,26.7,122.6,35.4,122.9,44z M117.5,4.3c2.3,0,4,0.7,5.5,2.5c13.3,15.6,26.7,31.2,40.1,46.8
				c1.3,1.5,1.8,3,1.8,5c0,20.1,0,40.2-0.1,60.3c0,1.5,0.5,2.3,1.8,3c14.2,8.2,21.8,24.7,18.6,40.5c-3.4,16.8-16.3,29-33.1,31.1
				c-13.1,1.6-24.2-2.7-33.2-12.2c-1.1-1.1-2.1-1.5-3.6-1.5c-24,0-47.9,0-71.9,0c-11.6,0-18.9-7.3-18.9-18.9c0-22.9,0-45.9,0-68.8
				s0-45.9,0-68.8c0-11.6,7.3-18.9,18.9-18.9C68.1,4.4,92.8,4.4,117.5,4.3z M31.6,161c0,7.6,4.2,11.8,11.8,11.8
				c22.3,0,44.6,0,66.9,0c0.8,0,1.5,0,2.5,0c-6.5-15.1-5.6-29.3,4.8-42s24.2-16.4,40.1-12.9c0-19.2,0-38.3,0-57.2
				c-0.3-0.1-0.4-0.1-0.6-0.1c-7.7,0-15.3,0-23,0c-10.8,0-18.3-7.5-18.3-18.3c0-9.4,0-18.8,0-28.3c0-0.8,0-1.6,0-2.5
				c-1,0-1.7,0-2.4,0c-23.4,0-46.8,0-70.1,0c-7.5-0.1-11.7,4.1-11.7,11.6C31.6,69.1,31.6,115,31.6,161z"/>
			
				<linearGradient id="SVGID_3_" gradientUnits="userSpaceOnUse" x1="122.7667" y1="164.4388" x2="153.732" y2="164.4388" gradientTransform="matrix(1 0 0 -1 0 199.89)">
				<stop  offset="0" style="stop-color:#FFFFFF"/>
				<stop  offset="0.2301" style="stop-color:#FCFEFE"/>
				<stop  offset="0.3713" style="stop-color:#F4FCFC"/>
				<stop  offset="0.4886" style="stop-color:#E5F8F8"/>
				<stop  offset="0.5927" style="stop-color:#D1F2F2"/>
				<stop  offset="0.6882" style="stop-color:#B6EAEA"/>
				<stop  offset="0.7773" style="stop-color:#96E1E1"/>
				<stop  offset="0.8615" style="stop-color:#6FD6D6"/>
				<stop  offset="0.9397" style="stop-color:#43C9C9"/>
				<stop  offset="1" style="stop-color:#1CBEBE"/>
			</linearGradient>
			<path class="st3" d="M122.8,17.4c10.5,12.2,20.5,23.9,30.9,36.1c-3.7,0-6.8,0-10,0c-3.6,0-7.2,0.1-10.7,0
				c-5.3-0.1-9.9-4.2-10.1-9.4C122.6,35.4,122.8,26.7,122.8,17.4z"/>
			<path class="st2" d="M90.3,53.5c2.8,0,4.4,1.3,4.4,3.5s-1.6,3.5-4.4,3.5c-5.6,0-11.2,0-16.9,0c-5.5,0-11,0-16.4,0
				c-2.8,0-4.4-1.3-4.4-3.5s1.6-3.5,4.4-3.5C68.1,53.5,79.2,53.5,90.3,53.5z"/>
			<path class="st2" d="M131.8,81.5c-12.4,0-24.8,0-37.3,0c-12.3,0-24.5,0-36.8,0c-0.7,0-1.3,0.1-2-0.1c-1.9-0.4-3-1.5-3-3.4
				s1.1-3.1,3-3.4c0.6-0.1,1.3-0.1,2-0.1c24.7,0,49.4,0,74.1,0c0.7,0,1.3-0.1,2,0.1c1.9,0.4,3,1.5,3,3.5c0,1.9-1.1,3.1-3,3.4
				C133.1,81.6,132.4,81.5,131.8,81.5z"/>
			<path class="st2" d="M57.7,95.6c12.4,0,24.7,0,37,0c12.4,0,24.7,0,37,0c0.7,0,1.3-0.1,2,0.1c1.9,0.4,3,1.5,3,3.5
				c0,1.9-1.2,3.1-3,3.4c-0.6,0.1-1.3,0.1-2,0.1c-24.7,0-49.4,0-74.1,0c-0.7,0-1.5,0.1-2.2-0.1c-1.8-0.4-2.8-1.6-2.8-3.4
				s1.1-3,2.8-3.4C56.2,95.5,56.9,95.6,57.7,95.6z"/>
		</g>
	</g>
</g>
<linearGradient id="SVGID_4_" gradientUnits="userSpaceOnUse" x1="724.2003" y1="1417.2708" x2="885.1503" y2="1578.2207" gradientTransform="matrix(1 0 0 1 -197.64 -1603.8347)">
	<stop  offset="0" style="stop-color:#FFFFFF"/>
	<stop  offset="0.2301" style="stop-color:#FCFEFE"/>
	<stop  offset="0.3713" style="stop-color:#F4FCFC"/>
	<stop  offset="0.4886" style="stop-color:#E5F8F8"/>
	<stop  offset="0.5927" style="stop-color:#D1F2F2"/>
	<stop  offset="0.6882" style="stop-color:#B6EAEA"/>
	<stop  offset="0.7773" style="stop-color:#96E1E1"/>
	<stop  offset="0.8615" style="stop-color:#6FD6D6"/>
	<stop  offset="0.9397" style="stop-color:#43C9C9"/>
	<stop  offset="1" style="stop-color:#1CBEBE"/>
</linearGradient>
<path class="st4" d="M669-12.1H545c-6.6,0-12-5.4-12-12v-164c0-6.6,5.4-12,12-12h124c6.6,0,12,5.4,12,12v164
	C681-17.5,675.6-12.1,669-12.1z"/>
<path class="st5" d="M668.5-10.1h-123c-6.6,0-12-5.4-12-12v-166c0-6.6,5.4-12,12-12h123c6.6,0,12,5.4,12,12v166
	C680.5-15.5,675.1-10.1,668.5-10.1z"/>
<g>
	<g>
		<g>
			<g>
				<g>
					<defs>
						<path id="SVGID_5_" d="M655.6-21.1h-97.2c-1.7,0-3.1-1.4-3.1-3.1V-127c0-1.7,1.4-3.1,3.1-3.1h97.1c1.7,0,3.1,1.4,3.1,3.1
							v102.9C658.6-22.5,657.2-21.1,655.6-21.1z"/>
					</defs>
					<clipPath id="SVGID_6_">
						<use xlink:href="#SVGID_5_"  style="overflow:visible;"/>
					</clipPath>
					<g class="st6">
						<g>
							<g id="XMLID_1_">
								<g>
									<path class="st2" d="M682.2-214.5V-6.6c0,1.7-0.7,3.4-1.9,4.5c-2.1,1.8-5,2-7.2,0.6l-8.5-5.6l-11.2,7.3
										c-2,1.3-4.5,1.3-6.5,0l-11.2-7.3l-11.2,7.3c-2,1.3-4.5,1.3-6.5,0l-11.2-7.3l-11.2,7.3c-2,1.3-4.5,1.3-6.5,0l-11.2-7.3
										l-11.2,7.3c-1,0.6-2.1,1-3.2,1c-1.1,0-2.2-0.3-3.2-1l-11.2-7.3l-8.5,5.6c-2.2,1.4-5.1,1.3-7.2-0.6
										c-1.3-1.1-1.9-2.8-1.9-4.5v-48.2c0-1.9,1.7-3.4,3.7-3.2c1.6,0.2,2.8,1.7,2.8,3.4v47.1l7.9-5.2c2-1.3,4.5-1.3,6.5,0
										l11.2,7.3l11.2-7.3c2-1.3,4.5-1.3,6.5,0l11.2,7.3l11.2-7.3c2-1.3,4.5-1.3,6.5,0l11.2,7.3l11.2-7.3c2-1.3,4.5-1.3,6.5,0
										l11.2,7.3l11.2-7.3c2-1.3,4.5-1.3,6.5,0l7.9,5.2v-206.4h-17.5c-1.9,0-3.5-1.7-3.2-3.7c0.2-1.6,1.7-2.8,3.4-2.8h18
										C679.6-220.4,682.2-217.7,682.2-214.5z"/>
									<path class="st2" d="M657-119.3c0.2,2-1.3,3.7-3.2,3.7h-11.5c-1.7,0-3.2-1.2-3.4-2.8c-0.2-2,1.3-3.7,3.2-3.7h11.5
										C655.3-122.1,656.8-120.9,657-119.3z"/>
									<path class="st2" d="M657-100.3c0.2,2-1.3,3.7-3.2,3.7h-11.5c-1.7,0-3.2-1.2-3.4-2.8c-0.2-2,1.3-3.7,3.2-3.7h11.5
										C655.3-103.1,656.8-101.9,657-100.3z"/>
									<path class="st2" d="M657-81.2c0.2,2-1.3,3.7-3.2,3.7h-11.5c-1.7,0-3.2-1.2-3.4-2.8c-0.2-2,1.3-3.7,3.2-3.7h11.5
										C655.3-84,656.8-82.9,657-81.2z"/>
									<path class="st2" d="M655.3-38.2c1.2,1.3,1.2,3.3-0.1,4.6c-2.6,2.5-5.6,4-8.6,4.2c-3.3,0.2-6.5-1.2-8.3-3.6
										c-0.9,1-1.9,1.9-2.9,2.7c-1.1,0.9-2.4,1.8-4.3,1.9c-2.6,0.2-4.7-1-5.7-3.1c-0.5-1-0.7-2.2-0.7-3.5c-4,3.5-8.2,6.8-12.6,9.8
										c-0.6,0.4-1.2,0.6-1.8,0.6c-2.3,0-3.9-2.4-3-4.5c4.9-11.6,10.3-23.2,16.1-34.5c0.8-1.6,2.8-2.2,4.4-1.4
										c1.6,0.8,2.2,2.8,1.4,4.4c-3.8,7.4-7.5,15-10.9,22.7c4.5-3.7,8.7-7.8,12.6-12.1c1.2-1.3,3.3-1.4,4.6-0.2
										c1.3,1.2,1.4,3.3,0.2,4.6c-0.4,0.4-1.7,2.7-2.9,5.6c-0.9,2.3-1.3,3.9-1.4,4.8l0,0c2.7-2.2,4.9-5,6.5-8.1
										c0.7-1.5,2.5-2.2,4.1-1.6c1.6,0.6,2.4,2.3,2,3.9c-0.4,1.3-0.9,3-0.5,4c0.3,0.8,1.6,1.4,2.8,1.4c1.4-0.1,3-0.9,4.5-2.4
										C652-39.6,654-39.5,655.3-38.2z"/>
									<path class="st2" d="M643-220.4c1.9,0,3.5,1.7,3.2,3.7c-0.2,1.6-1.7,2.9-3.4,2.9H538.1v144.1c0,1.8-1.5,3.2-3.2,3.2
										s-3.2-1.4-3.2-3.2v-144.8c0-3.3,2.6-5.9,5.9-5.9C537.5-220.4,643-220.4,643-220.4z"/>
									<path class="st2" d="M634.9-171.3v8.7c0,3.7-3,6.7-6.7,6.7h-9.6c-0.1,0-0.2,0.1-0.2,0.2v9.6c0,3.7-3,6.7-6.7,6.7h-9.1
										c-3.7,0-6.7-3-6.7-6.7v-9.5c0-0.1-0.1-0.2-0.2-0.2h-9.5c-3.7,0-6.7-3-6.7-6.7v-8.6c0-3.7,3-6.7,6.7-6.7h9.6
										c0.1,0,0.2-0.1,0.2-0.2v-9.5c0-3.7,3-6.7,6.7-6.7h9.1c3.7,0,6.7,3,6.7,6.7v9.5c0,0.1,0.1,0.2,0.2,0.2h9.6
										C631.9-178,634.9-175,634.9-171.3z M628.4-162.6v-8.6c0-0.1-0.1-0.2-0.2-0.2H612c-0.3,0-0.5-0.2-0.5-0.5v-16l0,0h-9.1l0,0
										v15.9c0,0.3-0.2,0.5-0.5,0.5h-15.8c-0.1,0-0.2,0.1-0.2,0.2v8.6c0,0.1,0.1,0.2,0.2,0.2h9.6c3.7,0,6.7,3,6.7,6.7v9.5
										c0,0.1,0.1,0.2,0.2,0.2h8.7c0.1,0,0.2-0.1,0.2-0.2v-9.5c0-3.7,3-6.7,6.7-6.7h10C628.3-162.4,628.4-162.5,628.4-162.6z"/>
									
										<linearGradient id="SVGID_7_" gradientUnits="userSpaceOnUse" x1="783.5552" y1="1436.9457" x2="826.0853" y2="1436.9457" gradientTransform="matrix(1 0 0 1 -197.64 -1603.8347)">
										<stop  offset="1.970000e-02" style="stop-color:#3BC7C7;stop-opacity:0.5"/>
										<stop  offset="1" style="stop-color:#1CBEBE"/>
									</linearGradient>
									<path class="st7" d="M628.4-171.3v8.7c0,0.1-0.1,0.2-0.2,0.2h-10c-3.7,0-6.7,3-6.7,6.7v9.6c0,0.1-0.1,0.2-0.2,0.2h-8.7
										c-0.1,0-0.2-0.1-0.2-0.2v-9.5c0-3.7-3-6.7-6.7-6.7h-9.5c-0.1,0-0.2-0.1-0.2-0.2v-8.7c0-0.1,0.1-0.2,0.2-0.2H602
										c0.3,0,0.5-0.2,0.5-0.5v-16l0,0h9.1l0,0v15.9c0,0.3,0.2,0.5,0.5,0.5h16.2C628.3-171.5,628.4-171.4,628.4-171.3z"/>
									<path class="st2" d="M617.7-119.3c0.2,2-1.3,3.7-3.2,3.7h-53.8c-1.7,0-3.2-1.2-3.3-2.8c-0.2-2,1.3-3.7,3.2-3.7h53.8
										C616-122.1,617.4-120.9,617.7-119.3z"/>
									<path class="st2" d="M617.7-81.2c0.2,2-1.3,3.7-3.2,3.7h-53.8c-1.7,0-3.2-1.2-3.3-2.8c-0.2-2,1.3-3.7,3.2-3.7h53.8
										C616-84,617.4-82.9,617.7-81.2z"/>
									<path class="st2" d="M595.3-100.3c0.2,2-1.3,3.7-3.2,3.7h-31.4c-1.7,0-3.2-1.2-3.3-2.8c-0.2-2,1.3-3.7,3.2-3.7H592
										C593.6-103.1,595.1-101.9,595.3-100.3z"/>
								</g>
							</g>
						</g>
					</g>
				</g>
			</g>
		</g>
	</g>
</g>
<g id="Capa_3_1_">
</g>
<g>
	<g id="XMLID_4_">
		<g>
			<path class="st2" d="M146.6,107.5c24.6,0,44.6,20.1,44.6,44.7c0,24.6-20.1,44.6-44.6,44.5c-24.6,0-44.6-20.1-44.6-44.7
				C102,127.4,122,107.5,146.6,107.5z M146.6,190.5c21.2,0,38.4-17.3,38.4-38.5c0-21.2-17.2-38.3-38.4-38.4
				c-21.2,0-38.4,17.2-38.4,38.4C108.2,173.3,125.4,190.5,146.6,190.5z"/>
			<path class="st8" d="M185,152c0,21.2-17.2,38.4-38.4,38.5c-21.2,0-38.4-17.2-38.4-38.4c0-21.2,17.2-38.4,38.4-38.4
				C167.8,113.7,184.9,130.9,185,152z M163.4,166.3c1-0.7,1.4-1.8,1.2-3c-0.2-1.1-0.9-1.9-1.9-2.4c-4.1-2.5-8.2-5-12.2-7.4
				c-0.6-0.3-0.8-0.7-0.8-1.4c0-6.4,0-12.7,0-19.1c0-2-1.3-3.4-3.1-3.4c-1.8,0-3.1,1.4-3.1,3.4c0,3.6,0,7.1,0,10.7c0,3.5,0,7,0,10.5
				c0,1.6,0.6,2.7,2,3.6c3.5,2.1,7,4.3,10.5,6.4c1.4,0.8,2.7,1.7,4.1,2.4C161.2,167.1,162.3,167.1,163.4,166.3z"/>
			<path class="st2" d="M164.6,163.3c0.2,1.2-0.2,2.2-1.2,3c-1.1,0.8-2.2,0.9-3.4,0.2c-1.4-0.8-2.7-1.6-4.1-2.4
				c-3.5-2.1-7-4.3-10.5-6.4c-1.4-0.8-2-1.9-2-3.6c0.1-3.5,0-7,0-10.5c0-3.6,0-7.1,0-10.7c0-2,1.3-3.4,3.1-3.4
				c1.8,0,3.1,1.4,3.1,3.4c0,6.4,0,12.7,0,19.1c0,0.7,0.2,1,0.8,1.4c4.1,2.5,8.2,5,12.2,7.4C163.6,161.4,164.4,162.1,164.6,163.3z"
				/>
		</g>
		<g>
		</g>
	</g>
</g>
</svg>
