<?xml version="1.0" encoding="utf-8"?>
<!-- Generator: Adobe Illustrator 24.2.3, SVG Export Plug-In . SVG Version: 6.00 Build 0)  -->
<svg version="1.1" id="Layer_1" xmlns="http://www.w3.org/2000/svg" xmlns:xlink="http://www.w3.org/1999/xlink" x="0px" y="0px"
	 viewBox="0 0 512 512" style="enable-background:new 0 0 512 512;" xml:space="preserve">
<style type="text/css">
	.st0{fill:#3366CC;}
	.st1{fill:url(#SVGID_1_);}
	.st2{fill:url(#SVGID_2_);}
	.st3{fill:url(#SVGID_3_);}
	.st4{fill:#FFFFFF;}
	.st5{fill:url(#SVGID_4_);}
</style>
<g>
	<g id="XMLID_3_">
		<g>
			<path class="st0" d="M509.3,460.4c0.1,6.6-4.5,11.7-11.3,12.3c-1.5,0.1-3,0.1-4.5,0.1c-157.4,0-314.8,0-472.2,0
				c-1.7,0-3.4,0.1-5.1-0.1c-6.4-0.7-11.2-5.9-11.1-12.1c0.1-6.2,4.9-11.4,11.4-11.6c9.9-0.3,19.9-0.1,29.8-0.1c2,0,4,0,6.7,0
				c0-3.2,0-5.4,0-7.7c0-80.1,0-160.2,0-240.3c0-12.6,3.7-16.3,16.5-16.3c16.5,0,33,0,49.5,0c1.8,0,3.6,0,6,0c0-2.5,0-4.6,0-6.6
				c0-24.2,0-48.4,0-72.6c0-13.5,3.4-16.8,17.1-16.8c10.1,0,20.2,0,31.1,0c0-9.5,0-18.4,0-27.4c0-3-0.1-6,0.1-9
				c0.4-6.9,4.9-11.4,11.9-11.7c5.8-0.2,11.6-0.1,17.4-0.1c41.1,0,82.2,0,123.2,0c11.2,0,15.3,4.1,15.3,15.2c0,10.7,0,21.4,0,32.9
				c4.3,0,8.4,0,12.5,0c6.2,0,12.4,0,18.6,0c13.6,0,17.1,3.4,17.1,16.9c0,21.4,0,42.8,0,64.2c0,4.7,0,9.4,0,14.9c2.2,0,4.2,0,6.2,0
				c16.9,0,33.8,0,50.6,0c10.9,0,15.2,4.3,15.2,15.4c0,80.3,0,160.6,0,240.9c0,2.4,0,4.8,0,8c4,0,7.5,0,11,0
				c8.4,0,16.9-0.2,25.3,0.1C504.6,449.1,509.1,453.9,509.3,460.4z M436.9,448.4c0-80.2,0-159.8,0-239.6c-15.9,0-31.4,0-47.1,0
				c0,80,0,159.6,0,239.6C405.5,448.4,421,448.4,436.9,448.4z M364.8,448.4c0-112.2,0-223.9,0-335.6c-72,0-143.6,0-215.2,0
				c0,112,0,223.7,0,335.5c16.1,0,31.7,0,47.7,0c0-2.5,0-4.5,0-6.6c0-24.8,0-49.5,0-74.3c0-10.6,4.4-14.9,15.1-14.9
				c29.8,0,59.7,0,89.5,0c11.3,0,15.5,4.3,15.6,15.7c0,24.6,0,49.2,0,73.7c0,2,0,4,0,6.4C333.5,448.4,349,448.4,364.8,448.4z
				 M317.1,88.1c0-8,0-15.6,0-23.5c-40,0-79.6,0-119.5,0c0,7.9,0,15.5,0,23.5C237.7,88.1,277.3,88.1,317.1,88.1z M293,448.4
				c0-23.9,0-47.4,0-71.3c-24.2,0-47.7,0-71.3,0c0,24,0,47.7,0,71.3C245.7,448.4,269.2,448.4,293,448.4z M124.8,448.4
				c0-80.1,0-159.9,0-239.6c-16,0-31.4,0-47.3,0c0,80.3,0,159.9,0,239.6C93.6,448.4,109.2,448.4,124.8,448.4z"/>
			<linearGradient id="SVGID_1_" gradientUnits="userSpaceOnUse" x1="389.7872" y1="328.605" x2="436.9173" y2="328.605">
				<stop  offset="0" style="stop-color:#FFFFFF"/>
				<stop  offset="0.1001" style="stop-color:#F9FDFD"/>
				<stop  offset="0.2348" style="stop-color:#E8F8F8"/>
				<stop  offset="0.3892" style="stop-color:#CCF0F0"/>
				<stop  offset="0.5583" style="stop-color:#A4E5E5"/>
				<stop  offset="0.7392" style="stop-color:#72D7D7"/>
				<stop  offset="0.9274" style="stop-color:#35C5C5"/>
				<stop  offset="1" style="stop-color:#1CBEBE"/>
			</linearGradient>
			<path class="st1" d="M436.9,208.8c0,79.8,0,159.4,0,239.6c-15.9,0-31.4,0-47.1,0c0-80,0-159.6,0-239.6
				C405.6,208.8,421,208.8,436.9,208.8z"/>
			<linearGradient id="SVGID_2_" gradientUnits="userSpaceOnUse" x1="149.5951" y1="280.6252" x2="364.8386" y2="280.6252">
				<stop  offset="0" style="stop-color:#FFFFFF"/>
				<stop  offset="1" style="stop-color:#1CBEBE"/>
			</linearGradient>
			<path class="st2" d="M364.8,112.8c0,111.7,0,223.3,0,335.6c-15.9,0-31.3,0-47.4,0c0-2.4,0-4.4,0-6.4c0-24.6,0-49.2,0-73.7
				c0-11.4-4.3-15.7-15.6-15.7c-29.8,0-59.7,0-89.5,0c-10.7,0-15.1,4.4-15.1,14.9c0,24.8,0,49.5,0,74.3c0,2,0,4.1,0,6.6
				c-16,0-31.6,0-47.7,0c0-111.8,0-223.5,0-335.5C221.3,112.8,292.8,112.8,364.8,112.8z M341.3,244.1c0.2-15.8,0.2-31.5,0-47.3
				c-0.1-7.5-5-12.2-12.6-12.3c-9.6-0.2-19.1,0-28.7,0c-2.2,0-4.3,0-6.8,0c0-11.8,0-22.6,0-33.5c0-10.4-4.3-14.6-14.8-14.6
				c-13.7-0.1-27.4,0-41.1,0c-12.1,0-16.1,4.1-16.2,16.3c0,10.4,0,20.9,0,31.8c-11.7,0-22.7,0-33.7,0c-9.7,0-14,4.3-14.1,14.1
				c-0.1,14.5-0.1,28.9,0,43.3c0,10.5,4.2,14.6,14.8,14.6c10.8,0,21.7,0,33.1,0c0,2.6,0,4.6,0,6.6c0,9.4-0.1,18.8,0.1,28.1
				c0.2,8.1,4.5,13.1,12.3,13.2c15.9,0.3,31.9,0.3,47.8,0c7.4-0.2,11.6-5,11.8-12.4c0.2-7.5,0.1-15,0.1-22.5c0-4.2,0-8.5,0-13.1
				c12.2,0,23.6,0.1,35.1,0C336.3,256.5,341.2,251.8,341.3,244.1z"/>
			<path class="st0" d="M341.3,196.8c0.2,15.8,0.2,31.5,0,47.3c-0.1,7.7-5.1,12.3-13,12.4c-11.4,0.1-22.9,0-35.1,0
				c0,4.6,0,8.9,0,13.1c0,7.5,0.1,15-0.1,22.5c-0.2,7.4-4.5,12.2-11.8,12.4c-15.9,0.3-31.9,0.3-47.8,0c-7.8-0.2-12.1-5.1-12.3-13.2
				c-0.2-9.4,0-18.8-0.1-28.1c0-2,0-4,0-6.6c-11.4,0-22.2,0-33.1,0c-10.6,0-14.7-4.1-14.8-14.6c0-14.5-0.1-28.9,0-43.3
				c0-9.8,4.4-14.1,14.1-14.1c11-0.1,22,0,33.7,0c0-10.9,0-21.4,0-31.8c0-12.2,4.1-16.3,16.2-16.3c13.7,0,27.4,0,41.1,0
				c10.5,0,14.8,4.3,14.8,14.6c0.1,10.9,0,21.7,0,33.5c2.5,0,4.7,0,6.8,0c9.6,0,19.1-0.1,28.7,0
				C336.3,184.7,341.2,189.4,341.3,196.8z M317,232.6c0-8.5,0-16.1,0-24.2c-11.8,0-23.2,0.1-34.6,0c-8.3-0.1-12.8-4.7-13-12.9
				c-0.1-4.7,0-9.4,0-14.1c0-6.9,0-13.7,0-20.3c-8.5,0-16,0-23.5,0c-0.2,0.8-0.3,1.2-0.3,1.6c0,9.7-0.1,19.5-0.1,29.2
				c0,12.8-3.7,16.5-16.3,16.5c-10.5,0-20.9,0-31.5,0c0,8.3,0,15.9,0,24.2c2.3,0,4.3,0,6.3,0c9.8,0,19.5-0.1,29.3,0.1
				c7.1,0.2,11.5,4.4,12.2,11.4c0.3,2.4,0.1,4.9,0.1,7.3c0,9.5,0,19,0,28.6c8.3,0,15.9,0,23.9,0c0-11,0-21.7,0-32.3
				c0-11.2,4-15.1,15.3-15.2c7.3,0,14.6,0,22,0C310.1,232.6,313.5,232.6,317,232.6z"/>
			<linearGradient id="SVGID_3_" gradientUnits="userSpaceOnUse" x1="197.5824" y1="76.4124" x2="317.0769" y2="76.4124">
				<stop  offset="0" style="stop-color:#FFFFFF"/>
				<stop  offset="1" style="stop-color:#1CBEBE"/>
			</linearGradient>
			<path class="st3" d="M317.1,64.7c0,7.9,0,15.5,0,23.5c-39.8,0-79.4,0-119.5,0c0-8,0-15.6,0-23.5
				C237.5,64.7,277.1,64.7,317.1,64.7z"/>
			<path class="st4" d="M317,208.4c0,8.1,0,15.7,0,24.2c-3.5,0-6.9,0-10.4,0c-7.3,0-14.6,0-22,0c-11.3,0-15.3,4-15.3,15.2
				c0,10.6,0,21.3,0,32.3c-8,0-15.6,0-23.9,0c0-9.6,0-19.1,0-28.6c0-2.4,0.1-4.9-0.1-7.3c-0.7-7.1-5.1-11.3-12.2-11.4
				c-9.7-0.2-19.5-0.1-29.3-0.1c-2,0-4,0-6.3,0c0-8.3,0-15.9,0-24.2c10.6,0,21.1,0,31.5,0c12.6,0,16.3-3.8,16.3-16.5
				c0-9.7,0-19.5,0.1-29.2c0-0.4,0.2-0.7,0.3-1.6c7.5,0,15,0,23.5,0c0,6.6,0,13.5,0,20.3c0,4.7-0.1,9.4,0,14.1
				c0.2,8.3,4.7,12.8,13,12.9C293.8,208.5,305.2,208.4,317,208.4z"/>
			<path class="st4" d="M293,377.1c0,23.9,0,47.4,0,71.3c-23.7,0-47.3,0-71.3,0c0-23.6,0-47.3,0-71.3
				C245.3,377.1,268.8,377.1,293,377.1z"/>
			<linearGradient id="SVGID_4_" gradientUnits="userSpaceOnUse" x1="77.5315" y1="328.575" x2="124.7819" y2="328.575">
				<stop  offset="0" style="stop-color:#FFFFFF"/>
				<stop  offset="0.1001" style="stop-color:#F9FDFD"/>
				<stop  offset="0.2348" style="stop-color:#E8F8F8"/>
				<stop  offset="0.3892" style="stop-color:#CCF0F0"/>
				<stop  offset="0.5583" style="stop-color:#A4E5E5"/>
				<stop  offset="0.7392" style="stop-color:#72D7D7"/>
				<stop  offset="0.9274" style="stop-color:#35C5C5"/>
				<stop  offset="1" style="stop-color:#1CBEBE"/>
			</linearGradient>
			<path class="st5" d="M124.8,208.8c0,79.8,0,159.5,0,239.6c-15.6,0-31.2,0-47.3,0c0-79.7,0-159.3,0-239.6
				C93.4,208.8,108.8,208.8,124.8,208.8z"/>
		</g>
		<g>
		</g>
	</g>
</g>
</svg>
