<?xml version="1.0" encoding="utf-8"?>
<!-- Generator: Adobe Illustrator 24.2.3, SVG Export Plug-In . SVG Version: 6.00 Build 0)  -->
<svg version="1.1" id="Capa_1" xmlns="http://www.w3.org/2000/svg" xmlns:xlink="http://www.w3.org/1999/xlink" x="0px" y="0px"
	 viewBox="0 0 200 200" style="enable-background:new 0 0 200 200;" xml:space="preserve">
<style type="text/css">
	.st0{fill:#3366CC;}
	.st1{fill:url(#SVGID_1_);}
	.st2{fill:url(#SVGID_2_);}
</style>
<g>
	<g id="XMLID_2_">
		<g>
			<path class="st0" d="M47.6,113.9c0.9,1.2,1,2.6,0.2,3.9c-0.4,0.7-0.9,1.3-1.5,1.9c-8.3,8.3-16.6,16.6-24.9,24.9
				c-0.9,0.9-2.2,1.5-2.7,1.9c-2.2,0-3.4-0.7-4.1-2c-0.7-1.2-0.7-2.5,0.1-3.7c0.4-0.6,0.8-1.1,1.3-1.6c8.3-8.4,16.7-16.7,25-25
				c0.8-0.8,1.9-1.5,3-1.8C45.5,112,46.8,112.7,47.6,113.9z"/>
			<linearGradient id="SVGID_1_" gradientUnits="userSpaceOnUse" x1="29.2839" y1="63.1418" x2="170.6214" y2="63.1418">
				<stop  offset="0" style="stop-color:#FFFFFF"/>
				<stop  offset="1" style="stop-color:#1CBEBE"/>
			</linearGradient>
			<path class="st1" d="M29.3,74.3c47.3-16.1,94.2-32.1,141.2-48.1c0,0.1,0.1,0.2,0.1,0.3c-0.3,0.4-0.6,0.7-1,1.1
				c-23.9,23.9-47.8,47.8-71.7,71.7c-0.9,0.9-1.5,1-2.6,0.6c-21.4-8.3-42.9-16.5-64.4-24.8C30.5,74.9,30,74.7,29.3,74.3z"/>
			<path class="st0" d="M170.6,26.4c0-0.1-0.1-0.2-0.1-0.3c-47,16-93.9,32-141.2,48.1c0.7,0.3,1.2,0.6,1.6,0.8
				c21.5,8.3,42.9,16.5,64.4,24.8c1.1,0.4,1.8,0.3,2.6-0.6c23.9-23.9,47.8-47.8,71.7-71.7C170,27.2,170.3,26.8,170.6,26.4z
				 M131.7,173.7c15.1-47.6,30.2-94.9,45.3-142.2c-0.1,0-0.2-0.1-0.2-0.1c-0.3,0.2-0.5,0.5-0.7,0.7c-24.2,24.2-48.4,48.5-72.7,72.7
				c-0.8,0.8-0.9,1.5-0.4,2.5c9.3,21.6,18.7,43.1,28,64.7C131,172.4,131.3,172.9,131.7,173.7z M136.2,184.6
				c-0.5,1.7-1.4,3.1-3.1,3.9c-0.7,0-1.4,0-2.1,0c-1.5-0.8-2.3-2-3-3.5c-10.8-25.1-21.7-50.3-32.5-75.4c-0.5-1.2-1.2-1.9-2.4-2.3
				c-25-9.6-50-19.2-75.1-28.8c-0.3-0.1-0.6-0.2-1-0.4c-2-0.8-3.1-2.2-3-3.9c0.1-1.9,1.3-3.1,3.1-3.7c2.2-0.7,4.3-1.5,6.5-2.2
				C76.9,50.1,130,31.9,183.2,13.8c3.1-1.1,4.4-0.6,6.1,2.2c0,0.8,0,1.6,0,2.4c-0.2,0.6-0.5,1.1-0.7,1.7
				C171.1,74.9,153.6,129.8,136.2,184.6z"/>
			<linearGradient id="SVGID_2_" gradientUnits="userSpaceOnUse" x1="102.5458" y1="102.4797" x2="176.9311" y2="102.4797">
				<stop  offset="0" style="stop-color:#FFFFFF"/>
				<stop  offset="1" style="stop-color:#1CBEBE"/>
			</linearGradient>
			<path class="st2" d="M176.9,31.4c-15.1,47.3-30.1,94.6-45.3,142.2c-0.4-0.8-0.6-1.3-0.9-1.8c-9.3-21.6-18.6-43.2-28-64.7
				c-0.4-1-0.4-1.7,0.4-2.5C127.5,80.4,151.7,56.2,176,32c0.2-0.2,0.5-0.5,0.7-0.7C176.8,31.3,176.9,31.4,176.9,31.4z"/>
			<path class="st0" d="M73.9,128.6c1.2,1.2,1.5,3.1,0.6,4.5c-0.4,0.7-1,1.3-1.6,2C55.9,152,39,169,22.1,185.9c-1,1-2.1,1.7-3.1,2.6
				c-0.6,0-1.1,0-1.7,0c-3.6-1.7-4.1-4.4-1.2-7.2c17.2-17.3,34.5-34.5,51.7-51.8c0.5-0.5,1.1-1,1.7-1.4
				C70.9,127.2,72.7,127.5,73.9,128.6z"/>
			<path class="st0" d="M89.1,155.3c1.1,1.1,1.4,3,0.6,4.4c-0.4,0.7-0.9,1.3-1.5,1.9c-8.3,8.3-16.6,16.6-24.9,24.9
				c-0.8,0.8-1.8,1.3-2.7,2c-0.6,0-1.1,0-1.7,0c-3.5-2-3.9-4.4-1-7.3c8.3-8.3,16.7-16.7,25-25c0.5-0.5,1.1-1,1.7-1.4
				C86.1,153.9,88,154.2,89.1,155.3z"/>
		</g>
		<g>
		</g>
	</g>
</g>
</svg>
