<?xml version="1.0" encoding="utf-8"?>
<!-- Generator: Adobe Illustrator 23.0.4, SVG Export Plug-In . SVG Version: 6.00 Build 0)  -->
<svg version="1.1" id="Capa_1" xmlns="http://www.w3.org/2000/svg" xmlns:xlink="http://www.w3.org/1999/xlink" x="0px" y="0px"
	 viewBox="0 0 200 200" style="enable-background:new 0 0 200 200;" xml:space="preserve">
<style type="text/css">
	.st0{fill:url(#SVGID_1_);}
	.st1{fill:none;stroke:#3366CC;stroke-width:5.7243;stroke-miterlimit:10;}
	.st2{fill:none;stroke:#3366CC;stroke-width:6.9093;stroke-linecap:round;stroke-miterlimit:10;}
	.st3{fill:#3366CC;stroke:#3366CC;stroke-width:0.9486;stroke-miterlimit:10;}
	.st4{font-family:'AlesandRound-ExtraBold';}
	.st5{font-size:34.034px;}
	.st6{clip-path:url(#SVGID_3_);}
	.st7{fill:#3366CC;}
	.st8{fill:url(#SVGID_4_);}
</style>
<linearGradient id="SVGID_1_" gradientUnits="userSpaceOnUse" x1="19.525" y1="-459.4148" x2="180.475" y2="-620.3647" gradientTransform="matrix(1 0 0 -1 0 -440.8898)">
	<stop  offset="0" style="stop-color:#FFFFFF"/>
	<stop  offset="0.2301" style="stop-color:#FCFEFE"/>
	<stop  offset="0.3713" style="stop-color:#F4FCFC"/>
	<stop  offset="0.4886" style="stop-color:#E5F8F8"/>
	<stop  offset="0.5927" style="stop-color:#D1F2F2"/>
	<stop  offset="0.6882" style="stop-color:#B6EAEA"/>
	<stop  offset="0.7773" style="stop-color:#96E1E1"/>
	<stop  offset="0.8615" style="stop-color:#6FD6D6"/>
	<stop  offset="0.9397" style="stop-color:#43C9C9"/>
	<stop  offset="1" style="stop-color:#1CBEBE"/>
</linearGradient>
<path class="st0" d="M162,193H38c-6.6,0-12-5.4-12-12V17c0-6.6,5.4-12,12-12h124c6.6,0,12,5.4,12,12v164
	C174,187.6,168.6,193,162,193z"/>
<path class="st1" d="M161.5,195h-123c-6.6,0-12-5.4-12-12V17c0-6.6,5.4-12,12-12h123c6.6,0,12,5.4,12,12v166
	C173.5,189.6,168.1,195,161.5,195z"/>
<line class="st2" x1="62.4" y1="125" x2="137.6" y2="125.3"/>
<line class="st2" x1="65.5" y1="144.4" x2="134.5" y2="144.7"/>
<line class="st2" x1="69.5" y1="163.7" x2="130.5" y2="164"/>
<text transform="matrix(1 0 0 1 60.1472 100.8413)" class="st3 st4 st5">CIE 10</text>
<g>
	<g>
		<defs>
			<path id="SVGID_2_" d="M110,66.5H90c-4.8,0-8.8-4-8.8-8.8V39.5c0-4.8,4-8.8,8.8-8.8H110c4.8,0,8.8,4,8.8,8.8v18.3
				C118.7,62.6,114.8,66.5,110,66.5z"/>
		</defs>
		<clipPath id="SVGID_3_">
			<use xlink:href="#SVGID_2_"  style="overflow:visible;"/>
		</clipPath>
		<g class="st6">
			<g>
				<g id="XMLID_4_">
					<g>
						<path class="st7" d="M132.8,80c0.1,1.3-0.9,2.4-2.1,2.4h-7.5c-1.1,0-2.1-0.8-2.2-1.9c-0.1-1.3,0.9-2.4,2.1-2.4h7.5
							C131.7,78.2,132.7,78.9,132.8,80z"/>
						<path class="st7" d="M132.8,92.5c0.1,1.3-0.9,2.4-2.1,2.4h-7.5c-1.1,0-2.1-0.8-2.2-1.9c-0.1-1.3,0.9-2.4,2.1-2.4h7.5
							C131.7,90.7,132.7,91.5,132.8,92.5z"/>
						<path class="st7" d="M132.8,105.1c0.1,1.3-0.9,2.4-2.1,2.4h-7.5c-1.1,0-2.1-0.8-2.2-1.9c-0.1-1.3,0.9-2.4,2.1-2.4h7.5
							C131.7,103.2,132.7,104,132.8,105.1z"/>
						<path class="st7" d="M118.3,45.8v5.7c0,2.4-2,4.4-4.4,4.4h-6.3c-0.1,0-0.1,0.1-0.1,0.1v6.3c0,2.4-2,4.4-4.4,4.4h-6
							c-2.4,0-4.4-2-4.4-4.4v-6.3c0-0.1-0.1-0.1-0.1-0.1h-6.3c-2.4,0-4.4-2-4.4-4.4v-5.7c0-2.4,2-4.4,4.4-4.4h6.3
							c0.1,0,0.1-0.1,0.1-0.1V35c0-2.4,2-4.4,4.4-4.4h6c2.4,0,4.4,2,4.4,4.4v6.3c0,0.1,0.1,0.1,0.1,0.1h6.3
							C116.3,41.4,118.3,43.4,118.3,45.8z M114.1,51.5v-5.7c0-0.1-0.1-0.1-0.1-0.1h-10.6c-0.2,0-0.4-0.1-0.4-0.4V34.8l0,0H97l0,0
							v10.5c0,0.2-0.1,0.4-0.4,0.4H86.3c-0.1,0-0.1,0.1-0.1,0.1v5.7c0,0.1,0.1,0.1,0.1,0.1h6.3c2.4,0,4.4,2,4.4,4.4v6.3
							c0,0.1,0.1,0.1,0.1,0.1h5.7c0.1,0,0.1-0.1,0.1-0.1v-6.3c0-2.4,2-4.4,4.4-4.4h6.6C114,51.7,114.1,51.6,114.1,51.5z"/>
						
							<linearGradient id="SVGID_4_" gradientUnits="userSpaceOnUse" x1="86.1309" y1="-489.5714" x2="114.0595" y2="-489.5714" gradientTransform="matrix(1 0 0 -1 0 -440.8898)">
							<stop  offset="1.970000e-02" style="stop-color:#3BC7C7;stop-opacity:0.5"/>
							<stop  offset="1" style="stop-color:#1CBEBE"/>
						</linearGradient>
						<path class="st8" d="M114.1,45.8v5.7c0,0.1-0.1,0.1-0.1,0.1h-6.5c-2.4,0-4.4,2-4.4,4.4v6.3c0,0.1-0.1,0.1-0.1,0.1h-5.7
							c-0.1,0-0.1-0.1-0.1-0.1v-6.3c0-2.4-2-4.4-4.4-4.4h-6.3c-0.1,0-0.1-0.1-0.1-0.1v-5.7c0-0.1,0.1-0.1,0.1-0.1h10.3
							c0.2,0,0.4-0.1,0.4-0.4V34.8l0,0h5.9l0,0v10.5c0,0.2,0.1,0.4,0.4,0.4h10.6C114,45.7,114.1,45.8,114.1,45.8z"/>
						<path class="st7" d="M103.4,141.9c-0.4,0.2-0.8,0.4-1.2,0.4c-1.5,0-2.6-1.6-2-3c3.2-7.6,6.8-15.3,10.5-22.7
							c0.5-1,1.8-1.5,2.9-1c1,0.5,1.5,1.8,1,2.9c-2.5,4.9-4.9,9.9-7.2,14.9c2.9-2.4,5.7-5.1,8.2-8c0.8-0.9,2.1-1,3-0.1
							c0.9,0.8,1,2.1,0.1,3c-0.2,0.3-1.2,1.8-2,3.7c-0.6,1.5-0.9,2.6-1,3.1l0,0c1.8-1.5,3.2-3.3,4.2-5.3c0.5-1,1.6-1.5,2.7-1
							c1,0.4,1.6,1.5,1.3,2.6c-0.2,0.8-0.6,2-0.3,2.6c0.2,0.5,1,1,1.8,0.9c0.9-0.1,2-0.6,2.9-1.5c0.8-0.8,2.2-0.8,3,0.1
							c0.8,0.8,0.8,2.2-0.1,3c-1.7,1.7-3.7,2.6-5.6,2.8c-2.2,0.1-4.2-0.8-5.4-2.4c-0.6,0.7-1.2,1.2-1.9,1.8
							c-0.7,0.6-1.6,1.2-2.8,1.2c-1.7,0.1-3.1-0.7-3.7-2.1c-0.3-0.7-0.4-1.5-0.4-2.3C109.1,137.7,106.3,139.8,103.4,141.9z"/>
						<path class="st7" d="M92.3,92.5c0.1,1.3-0.9,2.4-2.1,2.4H69.6c-1.1,0-2.1-0.8-2.2-1.9c-0.1-1.3,0.9-2.4,2.1-2.4h20.6
							C91.2,90.7,92.2,91.5,92.3,92.5z"/>
						<path class="st7" d="M69.5,78.2h35.3c1.1,0,2.1,0.8,2.2,1.9c0.1,1.3-0.9,2.4-2.1,2.4H69.6c-1.1,0-2.1-0.8-2.2-1.9
							C67.2,79.3,68.2,78.2,69.5,78.2z"/>
						<path class="st7" d="M69.5,103.2h35.3c1.1,0,2.1,0.8,2.2,1.9c0.1,1.3-0.9,2.4-2.1,2.4H69.6c-1.1,0-2.1-0.8-2.2-1.9
							C67.2,104.3,68.2,103.2,69.5,103.2z"/>
						<path class="st7" d="M99.9,153.9l-7.3,4.8c-1.3,0.8-2.9,0.8-4.2,0l-7.3-4.8l-7.3,4.8c-0.7,0.4-1.4,0.7-2.1,0.7
							c-0.7,0-1.5-0.2-2.1-0.7l-7.3-4.8l-5.6,3.7c-1.5,1-3.4,0.8-4.8-0.4c-0.8-0.7-1.2-1.8-1.2-2.9v-31.7c0-1.2,1.1-2.3,2.4-2.1
							c1.1,0.1,1.8,1.1,1.8,2.2v31l5.2-3.4c1.3-0.8,2.9-0.8,4.2,0l7.3,4.8l7.3-4.8c1.3-0.8,2.9-0.8,4.2,0l7.3,4.8l7.3-4.8
							c1.3-0.8,2.9-0.8,4.2,0l7.3,4.8l7.3-4.8c1.3-0.8,2.9-0.8,4.2,0l7.3,4.8l7.3-4.8c1.3-0.8,2.9-0.8,4.2,0l5.2,3.4V17.8h-11.5
							c-1.2,0-2.3-1.1-2.1-2.4c0.1-1.1,1.1-1.8,2.2-1.8h11.8c2.1,0,3.9,1.8,3.9,3.9v136.9c0,1.1-0.4,2.2-1.2,3
							c-1.3,1.2-3.3,1.3-4.8,0.4l-5.6-3.7l-7.3,4.8c-1.3,0.8-2.9,0.8-4.2,0l-7.3-4.8l-7.3,4.8c-1.3,0.8-2.9,0.8-4.2,0L99.9,153.9z"
							/>
						<path class="st7" d="M54.8,17.8v94.9c0,1.2-1,2.1-2.1,2.1s-2.1-1-2.1-2.1V17.3c0-2.1,1.8-3.9,3.9-3.9h69.2
							c1.2,0,2.3,1.1,2.1,2.4c-0.1,1.1-1.1,1.9-2.2,1.9H54.8L54.8,17.8z"/>
					</g>
				</g>
			</g>
		</g>
	</g>
</g>
</svg>
