<?xml version="1.0" encoding="utf-8"?>
<!-- Generator: Adobe Illustrator 25.4.1, SVG Export Plug-In . SVG Version: 6.00 Build 0)  -->
<svg version="1.1" id="Layer_3" xmlns="http://www.w3.org/2000/svg" xmlns:xlink="http://www.w3.org/1999/xlink" x="0px" y="0px"
	 viewBox="0 0 512 512" style="enable-background:new 0 0 512 512;" xml:space="preserve">
<style type="text/css">
	.st0{fill:#60B7FF;}
	.st1{fill:#26A6FE;}
	.st2{fill:#EAF6FF;}
	.st3{fill:#D8ECFE;}
	.st4{fill:#B3DAFE;}
	.st5{fill:url(#SVGID_1_);}
	.st6{fill:url(#SVGID_00000090287078845888271290000002645870599728658325_);}
	.st7{fill:#FDB441;}
	.st8{fill:#FEA613;}
	.st9{fill:#FC6559;}
</style>
<g>
	<path class="st0" d="M380.9,27.1h-22.1c0-8.2-6.6-14.8-14.8-14.8H86.9c-8.2,0-14.8,6.6-14.8,14.8V420c0,8.2,6.6,14.8,14.8,14.8
		c280.3,0,258.4,0.9,263.2-1.3c3.7-1.7,6.6-4.9,7.9-8.9h22.8C380.9,421.7,380.9,32.7,380.9,27.1L380.9,27.1z"/>
</g>
<path class="st1" d="M374.8,12.4H344c8.2,0,14.8,6.6,14.8,14.8V420c0,8.2-6.6,14.8-14.8,14.8h30.7c8.2,0,14.8-6.6,14.8-14.8V27.1
	C389.6,19,382.9,12.4,374.8,12.4L374.8,12.4z"/>
<path class="st1" d="M389.6,113.6l-68.3-68.3H115.7c-11.3,0-20.4,9.1-20.4,20.4v365.3c0,1.3,0.1,2.5,0.3,3.7h279.1
	c8.2,0,14.8-6.6,14.8-14.8L389.6,113.6z"/>
<path class="st2" d="M413.8,117.4l-34.6-21.6l-29.9-50.4H143.7c-11.3,0-20.4,9.1-20.4,20.4v365.3c0,11.3,9.1,20.4,20.4,20.4h269.7
	c0.1,0,0.3,0,0.4,0V117.4z"/>
<path class="st3" d="M433.8,129.9l-30.7-19.2v320.4c0,11.3-9.1,20.4-20.4,20.4h30.7c11.3,0,20.4-9.1,20.4-20.4L433.8,129.9
	L433.8,129.9z"/>
<path class="st4" d="M369.6,129.9h64.2l-84.6-84.6v64.2C349.2,120.8,358.4,129.9,369.6,129.9z"/>
<g>
	<g>
		<linearGradient id="SVGID_1_" gradientUnits="userSpaceOnUse" x1="164.8775" y1="168.8462" x2="392.1576" y2="168.8462">
			<stop  offset="0" style="stop-color:#00ADEA"/>
			<stop  offset="1" style="stop-color:#0783E9"/>
		</linearGradient>
		<path class="st5" d="M384.8,176.2H172.3c-4.1,0-7.4-3.3-7.4-7.4c0-4.1,3.3-7.4,7.4-7.4h212.5c4.1,0,7.4,3.3,7.4,7.4
			C392.2,172.9,388.8,176.2,384.8,176.2z"/>
	</g>
	<g>
		
			<linearGradient id="SVGID_00000136391806331746019520000010843944512943551934_" gradientUnits="userSpaceOnUse" x1="164.8775" y1="217.746" x2="392.1576" y2="217.746">
			<stop  offset="0" style="stop-color:#00ADEA"/>
			<stop  offset="1" style="stop-color:#0783E9"/>
		</linearGradient>
		<path style="fill:url(#SVGID_00000136391806331746019520000010843944512943551934_);" d="M384.8,225.1H172.3
			c-4.1,0-7.4-3.3-7.4-7.4c0-4.1,3.3-7.4,7.4-7.4h212.5c4.1,0,7.4,3.3,7.4,7.4C392.2,221.8,388.8,225.1,384.8,225.1z"/>
	</g>
</g>
<path class="st7" d="M465.3,257h-16c-3.4-5.9-9.8-9.9-17.1-9.9c-10.1,0-233.9,0-248.1,0l-25.9-42.9h-15.7c-2.8-3.7-7.1-5.9-11.8-5.9
	H44.1c-8.2,0-14.8,6.6-14.8,14.8v268.9c0,10.9,8.8,19.7,19.7,19.7h383.2c3.3,0,6.6-0.8,9.5-2.5h0c2.5-1.4,4.6-3.3,6.3-5.5h17.2
	L465.3,257L465.3,257z"/>
<g>
	<path class="st8" d="M143.7,206.2l21.4,40.9h30.7l-21.4-40.9c-2.6-4.9-7.6-7.9-13.1-7.9h-30.7C136.1,198.2,141.1,201.3,143.7,206.2
		z"/>
	<path class="st8" d="M462.9,247.1h-30.7c10.9,0,19.7,8.8,19.7,19.7v215.1c0,10.9-8.8,19.7-19.7,19.7h30.7
		c10.9,0,19.7-8.8,19.7-19.7V266.8C482.7,255.9,473.8,247.1,462.9,247.1z"/>
</g>
<path class="st9" d="M309.9,362.3h-32.1c-1.2,0-2.2-1-2.2-2.2v-32c0-1.9-1.5-3.3-3.3-3.3h-32.6c-1.9,0-3.3,1.5-3.3,3.3v32.1
	c0,1.2-1,2.2-2.2,2.2h-32.1c-1.9,0-3.3,1.5-3.3,3.3v32.6c0,1.9,1.5,3.3,3.3,3.3h32.1c1.2,0,2.2,1,2.2,2.2V436c0,1.9,1.5,3.3,3.3,3.3
	h32.6c1.9,0,3.3-1.5,3.3-3.3v-32.1c0-1.2,1-2.2,2.2-2.2h32.1c1.9,0,3.3-1.5,3.3-3.3v-32.6C313.2,363.9,311.8,362.3,309.9,362.3z"/>
</svg>
