<?xml version="1.0" encoding="utf-8"?>
<!-- Generator: Adobe Illustrator 25.4.1, SVG Export Plug-In . SVG Version: 6.00 Build 0)  -->
<svg version="1.1" id="Layer_3" xmlns="http://www.w3.org/2000/svg" xmlns:xlink="http://www.w3.org/1999/xlink" x="0px" y="0px"
	 viewBox="0 0 512 512" style="enable-background:new 0 0 512 512;" xml:space="preserve">
<style type="text/css">
	.st0{fill:#317ECE;}
	.st1{fill:#ACE0F3;}
	.st2{fill:#70CFF0;}
	.st3{fill:url(#SVGID_1_);}
</style>
<g>
	<path class="st0" d="M232,415.4c-95.1,0-172.4-77.3-172.4-172.4c0-67.7,39.9-129.5,101.7-157.3l29.2,64.8
		c-36.3,16.4-59.8,52.7-59.8,92.5c0,55.9,45.5,101.3,101.3,101.3V415.4L232,415.4z"/>
</g>
<path class="st1" d="M357.7,339.4H222.4v54.4h159.1c8.4,0,15.2-6.8,15.2-15.2C396.8,356.9,379.3,339.4,357.7,339.4L357.7,339.4z"/>
<path class="st0" d="M137.8,9.6c-8-8-21-8-29.1,0l-20,20.1c-8,8-8,21,0,29.1L120.8,91L170,41.8L137.8,9.6z"/>
<path class="st0" d="M232,415.4v-71c-29.8,0-56.6-12.9-75.2-33.4c-8.7,6.2-16.3,14.1-22.3,23.5l-21.4,33.4
	C144.1,397.3,186,415.4,232,415.4L232,415.4z"/>
<path class="st2" d="M291.4,380.4c0-14.9-3.8-28.8-10.5-41h-58.5v54.4h69V380.4z"/>
<path class="st1" d="M206.3,325.6c-18.7,0-36,9.5-46.1,25.2l-54.9,85.6l77.9,35.6l77.9-35.6v-56.1
	C261,350.2,236.5,325.6,206.3,325.6L206.3,325.6z"/>
<circle class="st0" cx="203.6" cy="382.1" r="18.8"/>
<path class="st0" d="M88.1,148.1l52,52c10.1-21.6,27.7-39.5,50.3-49.6l-29.2-64.8C130.9,99.4,105.8,121.3,88.1,148.1z"/>
<path class="st1" d="M204.5,29.4c-12.9-12.9-33.9-12.9-46.8,0l-49.2,49.2c-12.9,12.9-12.9,33.9,0,46.8l121.9,121.9l96-96L204.5,29.4
	z"/>
<path class="st2" d="M180.2,104.3c0-26.8,9.4-51.8,25.8-73.4l-1.5-1.5c-12.9-12.9-33.9-12.9-46.8,0l-49.2,49.2
	c-12.9,12.9-12.9,33.9,0,46.8l121.9,121.9l26.3-26.3C210.2,194.6,180.2,152.1,180.2,104.3z"/>
<linearGradient id="SVGID_1_" gradientUnits="userSpaceOnUse" x1="202.25" y1="314.7" x2="354.475" y2="314.7" gradientTransform="matrix(1 0 0 -1 0 514)">
	<stop  offset="0" style="stop-color:#006DF0"/>
	<stop  offset="1" style="stop-color:#25D8CF"/>
</linearGradient>
<path class="st3" d="M349.3,149l-20.6-20.6c-7-7-18.2-7-25.2,0l-96,96c-7,7-7,18.2,0,25.2l20.6,20.6c7,7,18.2,7,25.2,0l96-96
	C356.2,167.2,356.2,156,349.3,149L349.3,149z"/>
<path class="st0" d="M406.3,436.5h-301c-21,0-38.1,17-38.1,38.1v16.8c0,9,7.3,16.3,16.3,16.3h348.6c12.5,0,22.7-10.2,22.7-22.7
	C454.8,458.2,433.1,436.5,406.3,436.5L406.3,436.5z"/>
<path class="st0" d="M229.6,202.3l-22.1,22.1c-7,7-7,18.2,0,25.2l20.6,20.6c7,7,18.2,7,25.2,0l34.7-34.7
	C265.8,227.4,246,216.1,229.6,202.3L229.6,202.3z"/>
</svg>
