<?xml version="1.0" encoding="utf-8"?>
<!-- Generator: Adobe Illustrator 25.4.1, SVG Export Plug-In . SVG Version: 6.00 Build 0)  -->
<svg version="1.1" id="Layer_3" xmlns="http://www.w3.org/2000/svg" xmlns:xlink="http://www.w3.org/1999/xlink" x="0px" y="0px"
	 viewBox="0 0 512 512" style="enable-background:new 0 0 512 512;" xml:space="preserve">
<style type="text/css">
	.st0{fill:#D3DDFB;}
	.st1{fill:#758DBC;}
	.st2{fill:url(#SVGID_1_);}
	.st3{fill:url(#SVGID_00000083802848532765556900000010681964681807670205_);}
	.st4{opacity:0.5;fill:#FFFFFF;enable-background:new    ;}
	.st5{fill:#EAF5FC;}
	.st6{fill:#DCE7F7;}
	.st7{fill:url(#SVGID_00000176762335086046626680000018132740874369620369_);}
	.st8{fill:#2CBEBF;}
	.st9{fill:#F9B938;}
	.st10{fill:#00D67F;}
	.st11{fill:#FC6559;}
</style>
<circle class="st0" cx="252.5" cy="253.2" r="170.2"/>
<path class="st1" d="M252.9,242.9c-58.4-5.9-44.7-58.4-0.4-58.4c13.5-0.6,26.3,5.6,34.4,16.4c3.1,4.6,9.3,5.8,13.9,2.8
	c4.5-3,5.8-9.2,2.9-13.8c-9.6-13.7-24.6-22.6-41.1-24.6v-16.1c0-5.5-4.5-10-10-10c-5.5,0-10,4.5-10,10v16
	c-62.2,9.1-69.7,89.7,8.4,97.6c59.3,6,46.7,59.1,1.6,59.1c-13.7,0.5-26.7-5.8-34.7-16.9c-3-4.7-9.2-6-13.8-3.1
	c-4.6,2.9-6,9-3.2,13.7c9.5,14.2,24.8,23.5,41.7,25.5v16.1c0,5.5,4.5,10,10,10c5.5,0,10-4.5,10-10v-16
	C325.6,331.9,331.8,250.9,252.9,242.9L252.9,242.9z"/>
<linearGradient id="SVGID_1_" gradientUnits="userSpaceOnUse" x1="72.3917" y1="58.1721" x2="432.7441" y2="58.1721">
	<stop  offset="0" style="stop-color:#006DF0"/>
	<stop  offset="9.140000e-02" style="stop-color:#0883E9"/>
	<stop  offset="0.247" style="stop-color:#12A2E0"/>
	<stop  offset="0.4105" style="stop-color:#1ABAD8"/>
	<stop  offset="0.5829" style="stop-color:#20CBD3"/>
	<stop  offset="0.7702" style="stop-color:#24D5D0"/>
	<stop  offset="1" style="stop-color:#25D8CF"/>
</linearGradient>
<path class="st2" d="M432.7,84.1l-6.8-65.1c-0.6-5.5-5.6-9.4-11.1-8.8c-5.4,0.6-9.4,5.5-8.8,10.9l4.8,45.5
	c-98.5-83.5-244.8-77-335.4,15.1c-3.9,3.9-3.9,10.3,0.1,14.2c3.9,3.8,10.1,3.9,14,0.1c83.7-85.2,219.2-90.8,309.7-12.8l-43.5,5.1
	c-5.5,0.7-9.4,5.7-8.7,11.2c0.6,5,4.8,8.8,9.9,8.8c0.4,0,0.8,0,1.2-0.1l61.6-7.2C427.7,99.9,433.6,92.4,432.7,84.1z"/>
<linearGradient id="SVGID_00000155123326884862237190000003262180785875232412_" gradientUnits="userSpaceOnUse" x1="72.3241" y1="452.5886" x2="432.6757" y2="452.5886">
	<stop  offset="0" style="stop-color:#006DF0"/>
	<stop  offset="9.140000e-02" style="stop-color:#0883E9"/>
	<stop  offset="0.247" style="stop-color:#12A2E0"/>
	<stop  offset="0.4105" style="stop-color:#1ABAD8"/>
	<stop  offset="0.5829" style="stop-color:#20CBD3"/>
	<stop  offset="0.7702" style="stop-color:#24D5D0"/>
	<stop  offset="1" style="stop-color:#25D8CF"/>
</linearGradient>
<path style="fill:url(#SVGID_00000155123326884862237190000003262180785875232412_);" d="M415.7,414.8
	C332,500,196.5,505.6,106,427.6l43.5-5.1c5.5-0.7,9.4-5.7,8.7-11.2c-0.7-5.4-5.6-9.3-11-8.7l-61.6,7.2c-8.3,1.1-14.1,8.6-13.2,16.8
	l6.8,65.1c0.6,5.5,5.5,9.5,11,8.9c5.5-0.6,9.4-5.5,8.9-11l-4.8-45.5c98.5,83.5,244.8,77,335.4-15.1c3.9-3.9,3.9-10.3-0.1-14.2
	C425.8,411,419.6,411,415.7,414.8L415.7,414.8z"/>
<g>
	<g>
		<path class="st4" d="M882.2-149.9h27.9c1.6,0,3,1.3,3,3s-1.3,3-3,3h-27.9c-1.6,0-3-1.3-3-3S880.6-149.9,882.2-149.9z"/>
		<path class="st4" d="M921.7-149.9h2c1.6,0,3,1.3,3,3s-1.3,3-3,3h-2c-1.6,0-3-1.3-3-3S920-149.9,921.7-149.9z"/>
	</g>
	<g>
		<path class="st5" d="M1029.5-158.3v302.4c0,13.9-11.3,25.2-25.2,25.2H660.1c-13.9,0-25.2-11.3-25.2-25.2v-302.4
			c0-13.9,11.3-25.2,25.2-25.2h344.2C1018.2-183.4,1029.5-172.2,1029.5-158.3z"/>
		<path class="st6" d="M1029.5-158.3v302.4c0,13.9-11.3,25.2-25.2,25.2H660c-11.3,0-20.7-7.3-23.9-17.5c2.5,0.8,5,1.2,7.7,1.2H988
			c13.9,0,25.2-11.3,25.2-25.2v-302.4c0-2.7-0.4-5.3-1.2-7.7C1022.1-179,1029.5-169.5,1029.5-158.3L1029.5-158.3z"/>
		<path class="st0" d="M1029.5-69.6v-72.8c0-13.9-11.3-25.2-25.2-25.2H660.1c-13.9,0-25.2,11.3-25.2,25.2v72.8L1029.5-69.6
			L1029.5-69.6z"/>
		
			<linearGradient id="SVGID_00000000193872700248456150000012672693919975889049_" gradientUnits="userSpaceOnUse" x1="634.8675" y1="648.8632" x2="1029.4675" y2="648.8632" gradientTransform="matrix(1 0 0 -1 0 514.3937)">
			<stop  offset="0" style="stop-color:#006DF0"/>
			<stop  offset="9.140000e-02" style="stop-color:#0883E9"/>
			<stop  offset="0.247" style="stop-color:#12A2E0"/>
			<stop  offset="0.4105" style="stop-color:#1ABAD8"/>
			<stop  offset="0.5829" style="stop-color:#20CBD3"/>
			<stop  offset="0.7702" style="stop-color:#24D5D0"/>
			<stop  offset="1" style="stop-color:#25D8CF"/>
		</linearGradient>
		<path style="fill:url(#SVGID_00000000193872700248456150000012672693919975889049_);" d="M1029.5-85.5v-72.8
			c0-13.9-11.3-25.2-25.2-25.2H660.1c-13.9,0-25.2,11.3-25.2,25.2v72.8L1029.5-85.5L1029.5-85.5z"/>
		<g>
			<g>
				<path class="st8" d="M706-133.8c0,10.8-8.8,19.6-19.6,19.6c-10.8,0-19.6-8.8-19.6-19.6c0-10.8,8.7-19.6,19.6-19.6
					C697.1-153.4,706-144.6,706-133.8z"/>
				<path class="st0" d="M697.4-193.3v59.6c0,6.1-4.9,11-11,11h-0.1c-6.1,0-11-4.9-11-11v-59.6c0-6.1,4.9-11,11-11h0.1
					C692.5-204.2,697.4-199.3,697.4-193.3z"/>
			</g>
		</g>
		<g>
			<path class="st8" d="M997.5-133.8c0,10.8-8.8,19.6-19.6,19.6c-10.8,0-19.6-8.8-19.6-19.6c0-10.8,8.7-19.6,19.6-19.6
				C988.7-153.4,997.5-144.6,997.5-133.8z"/>
			<path class="st0" d="M988.9-193.3v59.6c0,6.1-4.9,11-11,11h-0.1c-6.1,0-11-4.9-11-11v-59.6c0-6.1,4.9-11,11-11h0.1
				C984-204.2,988.9-199.3,988.9-193.3z"/>
		</g>
		<g>
			<path class="st0" d="M855.3-41.1v32.3c0,3.9-3.1,7-7,7H816c-3.9,0-7-3.1-7-7v-32.3c0-3.9,3.1-7,7-7h32.3
				C852.2-48.1,855.3-45,855.3-41.1z"/>
			<path class="st0" d="M923.8-41.1v32.3c0,3.9-3.1,7-7,7h-32.3c-3.9,0-7-3.1-7-7v-32.3c0-3.9,3.1-7,7-7h32.3
				C920.7-48.1,923.8-45,923.8-41.1L923.8-41.1z"/>
			<path class="st0" d="M992.3-41.1v32.3c0,3.9-3.1,7-7,7H953c-3.8,0-7-3.1-7-7v-32.3c0-3.9,3.1-7,7-7h32.3
				C989.1-48.1,992.3-45,992.3-41.1z"/>
		</g>
		<path class="st9" d="M786.8-41.1v32.3c0,3.9-3.1,7-7,7h-32.3c-3.8,0-7-3.1-7-7v-32.3c0-3.9,3.1-7,7-7h32.3
			C783.7-48.1,786.8-45,786.8-41.1z"/>
		<path class="st0" d="M718.3,27v32.3c0,3.9-3.1,7-7,7H679c-3.8,0-7-3.1-7-7V27c0-3.9,3.1-7,7-7h32.3C715.2,20,718.3,23.1,718.3,27z
			"/>
		<path class="st0" d="M855.3,27v32.3c0,3.9-3.1,7-7,7H816c-3.9,0-7-3.1-7-7V27c0-3.9,3.1-7,7-7h32.3C852.2,20,855.3,23.1,855.3,27z
			"/>
		<path class="st0" d="M923.8,27v32.3c0,3.9-3.1,7-7,7h-32.3c-3.9,0-7-3.1-7-7V27c0-3.9,3.1-7,7-7h32.3
			C920.7,20,923.8,23.1,923.8,27L923.8,27z"/>
		<path class="st10" d="M992.3,27v32.3c0,3.9-3.1,7-7,7H953c-3.8,0-7-3.1-7-7V27c0-3.9,3.1-7,7-7h32.3C989.1,20,992.3,23.1,992.3,27
			z"/>
		<path class="st0" d="M786.8,27v32.3c0,3.9-3.1,7-7,7h-32.3c-3.8,0-7-3.1-7-7V27c0-3.9,3.1-7,7-7h32.3
			C783.7,20,786.8,23.1,786.8,27z"/>
		<path class="st11" d="M718.3,95.1v32.3c0,3.9-3.1,7-7,7H679c-3.8,0-7-3.1-7-7V95.1c0-3.9,3.1-7,7-7h32.3
			C715.2,88.1,718.3,91.2,718.3,95.1z"/>
		<path class="st0" d="M855.3,95.1v32.3c0,3.9-3.1,7-7,7H816c-3.9,0-7-3.1-7-7V95.1c0-3.9,3.1-7,7-7h32.3
			C852.2,88.1,855.3,91.2,855.3,95.1z"/>
		<path class="st0" d="M923.8,95.1v32.3c0,3.9-3.1,7-7,7h-32.3c-3.9,0-7-3.1-7-7V95.1c0-3.9,3.1-7,7-7h32.3
			C920.7,88.1,923.8,91.2,923.8,95.1L923.8,95.1z"/>
		<path class="st0" d="M786.8,95.1v32.3c0,3.9-3.1,7-7,7h-32.3c-3.8,0-7-3.1-7-7V95.1c0-3.9,3.1-7,7-7h32.3
			C783.7,88.1,786.8,91.2,786.8,95.1z"/>
		<path class="st8" d="M1029.5-158.3v72.8h-16.3v-89.1c0-2.7-0.4-5.3-1.2-7.7C1014.2-181.8,1029.5-175.3,1029.5-158.3z"/>
		<g>
			<path class="st4" d="M786.7-171.1h64.7c3.8,0,6.9,3.1,6.9,6.9s-3.1,6.9-6.9,6.9h-64.7c-3.8,0-6.9-3.1-6.9-6.9
				S782.9-171.1,786.7-171.1z"/>
			<path class="st4" d="M878.2-171.1h4.5c3.8,0,6.9,3.1,6.9,6.9s-3.1,6.9-6.9,6.9h-4.5c-3.8,0-6.9-3.1-6.9-6.9
				S874.4-171.1,878.2-171.1z"/>
		</g>
	</g>
</g>
</svg>
