<?xml version="1.0" encoding="utf-8"?>
<!-- Generator: Adobe Illustrator 23.0.4, SVG Export Plug-In . SVG Version: 6.00 Build 0)  -->
<svg version="1.1" id="Layer_1" xmlns="http://www.w3.org/2000/svg" xmlns:xlink="http://www.w3.org/1999/xlink" x="0px" y="0px"
	 viewBox="0 0 512 512" style="enable-background:new 0 0 512 512;" xml:space="preserve">
<style type="text/css">
	.st0{fill:#1CBEBE;}
	.st1{fill:url(#SVGID_1_);}
	.st2{fill:#3366CC;}
</style>
<circle class="st0" cx="254.5" cy="255.02" r="244.87"/>
<linearGradient id="SVGID_1_" gradientUnits="userSpaceOnUse" x1="62.2422" y1="252.464" x2="449.0938" y2="252.464">
	<stop  offset="0.2391" style="stop-color:#FFFFFF"/>
	<stop  offset="0.3973" style="stop-color:#FCFEFE"/>
	<stop  offset="0.5039" style="stop-color:#F3FCFC"/>
	<stop  offset="0.5952" style="stop-color:#E4F7F7"/>
	<stop  offset="0.678" style="stop-color:#CFF1F1"/>
	<stop  offset="0.7549" style="stop-color:#B3E9E9"/>
	<stop  offset="0.8277" style="stop-color:#91DFDF"/>
	<stop  offset="0.8971" style="stop-color:#68D4D4"/>
	<stop  offset="0.9621" style="stop-color:#3AC7C7"/>
	<stop  offset="1" style="stop-color:#1CBEBE"/>
</linearGradient>
<circle class="st1" cx="255.67" cy="252.46" r="193.43"/>
<g>
	<path class="st2" d="M436.98,75.02C336.96-25,175.06-25.01,75.02,75.02C-25,175.04-25.01,336.94,75.02,436.98
		c100.02,100.02,261.92,100.04,361.96,0C537,336.96,537.01,175.06,436.98,75.02z M256,495.95C123.69,495.95,16.05,388.31,16.05,256
		S123.69,16.05,256,16.05S495.95,123.69,495.95,256S388.31,495.95,256,495.95z"/>
	<path class="st2" d="M256,48.05C141.33,48.05,48.05,141.33,48.05,256S141.33,463.95,256,463.95S463.95,370.66,463.95,256
		S370.67,48.05,256,48.05z M256,447.96c-105.85,0-191.96-86.11-191.96-191.96S150.15,64.04,256,64.04S447.96,150.15,447.96,256
		S361.85,447.96,256,447.96z"/>
	<path class="st2" d="M264,233.38v-81.36c0-4.42-3.58-8-8-8c-4.42,0-8,3.58-8,8v81.36c-13.52,4.79-19.75,20.23-13.65,32.96
		c-5.69,5.69-34.05,34.05-39.99,39.99c-5.05,5.05-1.41,13.65,5.66,13.65c2.05,0,4.09-0.78,5.66-2.34l39.99-39.99
		c0.13-0.13,3.78,2.34,10.34,2.34c13.23,0,23.99-10.76,23.99-23.99C279.99,245.57,273.31,236.68,264,233.38L264,233.38z M256,264
		c-4.41,0-8-3.59-8-8c0-4.41,3.59-8,8-8c4.41,0,8,3.59,8,8C264,260.41,260.41,264,256,264z"/>
	<path class="st2" d="M256,112.03c4.42,0,8-3.58,8-8v-16c0-4.42-3.58-8-8-8c-4.42,0-8,3.58-8,8v16
		C248,108.45,251.58,112.03,256,112.03z"/>
	<path class="st2" d="M369.11,131.58l-11.31,11.31c-3.12,3.12-3.12,8.19,0,11.31c3.13,3.12,8.19,3.12,11.31,0l11.31-11.31
		c3.12-3.12,3.12-8.19,0-11.31S372.24,128.45,369.11,131.58z"/>
	<path class="st2" d="M423.96,248h-16c-4.42,0-8,3.58-8,8c0,4.42,3.58,8,8,8h16c4.42,0,8-3.58,8-8
		C431.96,251.58,428.38,248,423.96,248z"/>
	<path class="st2" d="M369.11,357.8c-3.12-3.12-8.19-3.12-11.31,0c-3.12,3.12-3.12,8.19,0,11.31l11.31,11.31
		c1.56,1.56,3.61,2.34,5.66,2.34c7.06,0,10.71-8.6,5.66-13.65L369.11,357.8z"/>
	<path class="st2" d="M256,399.97c-4.42,0-8,3.58-8,8v16c0,4.42,3.58,8,8,8c4.42,0,8-3.58,8-8v-16
		C264,403.55,260.42,399.97,256,399.97z"/>
	<path class="st2" d="M142.89,357.8l-11.31,11.31c-3.12,3.12-3.12,8.19,0,11.31c3.12,3.12,8.19,3.12,11.31,0l11.31-11.31
		c3.12-3.12,3.12-8.19,0-11.31C151.08,354.68,146.01,354.68,142.89,357.8z"/>
	<path class="st2" d="M104.03,248h-16c-4.42,0-8,3.58-8,8c0,4.42,3.58,8,8,8h16c4.42,0,8-3.58,8-8
		C112.03,251.58,108.45,248,104.03,248z"/>
	<path class="st2" d="M142.89,131.58c-3.12-3.12-8.19-3.12-11.31,0c-3.12,3.12-3.12,8.19,0,11.31l11.31,11.31
		c1.56,1.56,3.61,2.34,5.66,2.34c7.06,0,10.71-8.6,5.66-13.65L142.89,131.58z"/>
</g>
</svg>
