<?xml version="1.0" encoding="utf-8"?>
<!-- Generator: Adobe Illustrator 24.2.3, SVG Export Plug-In . SVG Version: 6.00 Build 0)  -->
<svg version="1.1" id="Capa_1" xmlns="http://www.w3.org/2000/svg" xmlns:xlink="http://www.w3.org/1999/xlink" x="0px" y="0px"
	 viewBox="0 0 200 200" style="enable-background:new 0 0 200 200;" xml:space="preserve">
<style type="text/css">
	.st0{fill:url(#SVGID_1_);}
	.st1{fill:url(#SVGID_2_);}
	.st2{fill:#3366CC;}
	.st3{fill:#FFFFFF;}
	.st4{fill:url(#SVGID_3_);}
	.st5{fill:url(#SVGID_4_);}
</style>
<linearGradient id="SVGID_1_" gradientUnits="userSpaceOnUse" x1="120.3519" y1="63.4327" x2="187.2991" y2="63.4327">
	<stop  offset="0" style="stop-color:#FFFFFF"/>
	<stop  offset="0.1392" style="stop-color:#FBFEFE"/>
	<stop  offset="0.2728" style="stop-color:#F0FBFB"/>
	<stop  offset="0.4042" style="stop-color:#DCF5F5"/>
	<stop  offset="0.5343" style="stop-color:#C1EDED"/>
	<stop  offset="0.6635" style="stop-color:#9EE3E3"/>
	<stop  offset="0.792" style="stop-color:#73D7D7"/>
	<stop  offset="0.9175" style="stop-color:#41C9C9"/>
	<stop  offset="1" style="stop-color:#1CBEBE"/>
</linearGradient>
<rect x="120.4" y="22.1" class="st0" width="66.9" height="82.6"/>
<linearGradient id="SVGID_2_" gradientUnits="userSpaceOnUse" x1="40.352" y1="104.7288" x2="100" y2="104.7288">
	<stop  offset="0" style="stop-color:#FFFFFF"/>
	<stop  offset="0.1392" style="stop-color:#FBFEFE"/>
	<stop  offset="0.2728" style="stop-color:#F0FBFB"/>
	<stop  offset="0.4042" style="stop-color:#DCF5F5"/>
	<stop  offset="0.5343" style="stop-color:#C1EDED"/>
	<stop  offset="0.6635" style="stop-color:#9EE3E3"/>
	<stop  offset="0.792" style="stop-color:#73D7D7"/>
	<stop  offset="0.9175" style="stop-color:#41C9C9"/>
	<stop  offset="1" style="stop-color:#1CBEBE"/>
</linearGradient>
<rect x="40.4" y="82.1" class="st1" width="59.6" height="45.3"/>
<g>
	<g id="XMLID_1_">
		<g>
			<path class="st2" d="M171.3,55.8c0.1,1.6-0.8,2.9-2.6,3c-2,0.2-4.1,0.1-6.1,0.1c-3.1,0-6.1,0-9.2,0c-4.6,0-9.2,0-13.8,0
				c-0.8,0-1.8,0.1-2.2-0.3c-0.8-0.7-1.6-1.8-1.8-2.8c-0.2-1.3,0.8-2.2,2.1-2.5c0.5-0.1,1-0.1,1.5-0.1c9.5,0,18.9,0,28.4,0
				c0.3,0,0.6,0,1,0C170.2,53.3,171.2,54.1,171.3,55.8z"/>
			<path class="st2" d="M167.9,67.6c2.7,0,4.2,2,3.3,4.1c-0.6,1.3-1.8,1.7-3.2,1.7c-4.9,0-9.7,0-14.6,0c-4.7,0-9.5,0-14.2,0
				c-2.5,0-3.7-1-3.7-2.9c0-1.8,1.3-2.8,3.6-2.8C148.7,67.5,158.3,67.5,167.9,67.6z"/>
			<path class="st2" d="M157.7,82.1c2.2,0,3.5,1.2,3.5,3c0,1.7-1.4,2.8-3.4,2.8c-3.2,0-6.4,0-9.6,0c-3.1,0-6.1,0-9.2,0
				c-2.2,0-3.5-1.1-3.5-2.9c0-1.7,1.3-2.8,3.4-2.8C145.1,82.1,151.4,82.1,157.7,82.1z"/>
			<path class="st2" d="M117.4,177.6c0.9,0,1.7,0,2.4,0c9.2,0,18.4,0,27.7,0c0.6,0,1.3,0,1.9,0.1c1.5,0.2,2.3,1.1,2.4,2.6
				c0.1,1.5-0.6,2.6-2.2,2.9c-0.9,0.2-1.8,0.2-2.7,0.2c-44.6,0-89.1,0-133.7,0c-0.9,0-1.7,0-2.6,0c0,3,0,5.7,0,8.5
				c60.3,0,120.5,0,180.7,0c0-2.8,0-5.5,0-8.5c-0.9,0-1.6,0-2.4,0c-8.3,0-16.5,0-24.8,0c-0.6,0-1.3,0-1.9-0.1
				c-1.7-0.2-2.7-1.4-2.6-3c0.1-1.6,1.1-2.6,2.7-2.7c0.8-0.1,1.5,0,2.3,0c2.1,0,4.2,0,6.4,0c0-15.9,0-31.6,0-47.4
				c-5.2,0-10.3,0-15.5,0c0,3.6,0,7,0,10.5c0,2.9-1.6,4.4-4.4,4.4c-4.6,0-9.2,0-13.8,0c-2.7,0-4.3-1.6-4.3-4.3c-0.1-2.8,0-5.5,0-8.3
				c0-0.8,0-1.6,0-2.3c-5.4,0-10.4,0-15.5,0C117.4,146,117.4,161.7,117.4,177.6z M197.2,192.4c0.1,2.4-0.7,4.2-2.9,5.3
				c-62.3,0-124.5,0-186.8,0c-2.2-1.1-3-2.9-2.9-5.3c0.1-3.3,0-6.5,0-9.8c0-3.6,1.4-5,5-5c5,0,10,0,15.2,0c0-0.9,0.1-1.6,0.1-2.4
				c0-15.1,0-30.2,0-45.3c0-4.4,1.2-5.6,5.6-5.6c2.5,0,5,0,7.7,0c0-0.8,0.1-1.6,0.1-2.3c0-12.9,0-25.7,0-38.6c0-4.2,1.4-5.5,5.5-5.5
				c18.2,0,36.4,0,54.6,0c4,0,5.3,1.4,5.3,5.3c0,5.9,0,11.8,0,17.7c0,0.2,0,0.4,0,0.6c-0.1,2.3-1.1,3.5-3,3.5
				c-1.7,0-2.8-1.2-2.8-3.4c0-4.9,0-9.7,0-14.6c0-1,0-2,0-3.1c-5.3,0-10.3,0-15.6,0c0,2.9,0,5.9,0,8.8c0,0.8,0,1.7-0.1,2.5
				c-0.3,2.1-1.6,3.6-3.8,3.7c-5,0.1-10,0.1-15,0c-2.3-0.1-3.7-1.7-3.8-4.2c0-3.5,0-7,0-10.7c-5.2,0-10.3,0-15.5,0
				c0,13.4,0,26.8,0,40.4c17.9,0,35.7,0,53.8,0c0-2.2,0-4.4,0-6.5c0-0.8,0-1.7,0.1-2.5c0.2-1.5,1.2-2.4,2.7-2.5
				c1.6,0,2.8,0.8,2.9,2.5c0.1,2.2,0.1,4.5,0.1,6.7c0,0.7,0,1.5,0,2.4c1,0,1.8,0,2.5,0c21.7,0,43.4,0,65.1,0c4.1,0,5.4,1.3,5.4,5.4
				c0,15.1,0,30.2,0,45.3c0,0.8,0,1.5,0,2.5c2.1,0,4,0,5.9,0c3.2,0,6.4,0,9.6,0c3.4,0,4.8,1.4,4.8,4.8
				C197.2,185.7,197.1,189.1,197.2,192.4z M149.6,139.2c0-3.1,0-6,0-9c-3.6,0-7.2,0-10.9,0c0,3.2,0,6.1,0,9
				C142.4,139.2,146,139.2,149.6,139.2z M111.3,177.5c0-15.8,0-31.5,0-47.3c-9.3,0-18.5,0-28,0c0,3.5,0,6.9,0,10.3
				c0,3.2-1.5,4.7-4.7,4.7c-4.9,0-9.7,0-14.6,0c-3.8,0-5.1-1.3-5.1-5.1c0-3.3,0-6.5,0-9.9c-9.4,0-18.7,0-28,0c0,15.8,0,31.5,0,47.3
				C57.7,177.5,84.5,177.5,111.3,177.5z M77.4,139.2c0-3.1,0-6.1,0-9.1c-4.3,0-8.4,0-12.6,0c0,3,0,5.9,0,9.1
				C69.1,139.2,73.2,139.2,77.4,139.2z M76.5,92.9c0-3.2,0-6.2,0-9.1c-3.7,0-7.2,0-10.8,0c0,3.1,0,6.1,0,9.1
				C69.3,92.9,72.8,92.9,76.5,92.9z"/>
			<path class="st3" d="M149.6,130.2c0,3,0,5.9,0,9c-3.6,0-7.2,0-10.9,0c0-3,0-5.9,0-9C142.4,130.2,145.9,130.2,149.6,130.2z"/>
			<linearGradient id="SVGID_3_" gradientUnits="userSpaceOnUse" x1="10.5741" y1="161.0205" x2="191.2714" y2="161.0205">
				<stop  offset="0" style="stop-color:#FFFFFF"/>
				<stop  offset="0.1392" style="stop-color:#FBFEFE"/>
				<stop  offset="0.2728" style="stop-color:#F0FBFB"/>
				<stop  offset="0.4042" style="stop-color:#DCF5F5"/>
				<stop  offset="0.5343" style="stop-color:#C1EDED"/>
				<stop  offset="0.6635" style="stop-color:#9EE3E3"/>
				<stop  offset="0.792" style="stop-color:#73D7D7"/>
				<stop  offset="0.9175" style="stop-color:#41C9C9"/>
				<stop  offset="1" style="stop-color:#1CBEBE"/>
			</linearGradient>
			<path class="st4" d="M132.9,140.8c0.1,2.7,1.6,4.3,4.3,4.3c4.6,0,9.2,0,13.8,0c2.8,0,4.4-1.6,4.4-4.4c0-3.5,0-6.9,0-10.5
				c5.2,0,10.3,0,15.5,0c0,15.8,0,31.5,0,47.4c-2.2,0-4.3,0-6.4,0c-0.8,0-1.5,0-2.3,0c-1.6,0.1-2.6,1-2.7,2.7
				c-0.1,1.6,0.9,2.7,2.6,3c0.6,0.1,1.3,0.1,1.9,0.1c8.3,0,16.5,0,24.8,0c0.7,0,1.5,0,2.4,0c0,3,0,5.7,0,8.5
				c-60.2,0-120.4,0-180.7,0c0-2.8,0-5.5,0-8.5c0.9,0,1.8,0,2.6,0c44.6,0,89.1,0,133.7,0c0.9,0,1.8,0,2.7-0.2
				c1.5-0.3,2.3-1.4,2.2-2.9c-0.1-1.5-0.9-2.4-2.4-2.6c-0.6-0.1-1.3-0.1-1.9-0.1c-9.2,0-18.5,0-27.7,0c-0.8,0-1.5,0-2.4,0
				c0-15.9,0-31.6,0-47.4c5.1,0,10.1,0,15.5,0c0,0.8,0,1.6,0,2.3C132.9,135.3,132.8,138,132.9,140.8z"/>
			<path class="st3" d="M119.6,35c1.2,1.2,2.7,1.4,3.9,0.2c4.1-4,8.1-8,12-12.1c1.1-1.2,1-2.6-0.2-3.8c-1.1-1.1-2.5-1.2-3.8-0.2
				c-0.5,0.4-0.9,0.9-1.4,1.3c-2.8,2.8-5.6,5.6-8.6,8.6c-2.3-2.3-4.4-4.6-6.6-6.8c-1.3-1.3-3-1.2-4.1-0.1c-1.1,1.1-1.2,2.8,0.1,4.1
				C113.8,29.2,116.7,32.1,119.6,35z M123.2,6.8c10.9,0,19.8,8.9,19.8,19.8c0,11-8.9,19.9-19.9,19.8c-10.9,0-19.8-8.9-19.8-19.8
				C103.3,15.7,112.3,6.7,123.2,6.8z"/>
			<path class="st2" d="M103.3,26.6c0,10.9,8.9,19.7,19.8,19.8c11,0,20-8.9,19.9-19.8c0-10.9-8.9-19.8-19.8-19.8
				C112.3,6.7,103.3,15.7,103.3,26.6z M189.4,79.1c0,7.9,0,15.9,0,23.8c0,3.8-1.4,5.2-5.2,5.2c-20.5,0-41,0-61.5,0
				c-4,0-5.3-1.4-5.3-5.3c0-16.4,0-32.8,0-49.2c0-1.4-0.3-2.1-1.8-2.5C103.2,47.2,95.5,34.6,98,21.9c2.5-12.8,13.9-21.9,26.9-20.9
				c10.2,0.8,17.6,6.1,21.8,15.5c0.6,1.4,1.3,1.8,2.8,1.8c11.5-0.1,23.1,0,34.6,0c4,0,5.3,1.3,5.3,5.3c0,13.2,0,26.4,0,39.6
				c0,0.5,0,1-0.1,1.5c-0.2,1.5-1.1,2.3-2.5,2.4c-1.5,0.1-2.6-0.6-3-2.1c-0.2-0.7-0.2-1.5-0.2-2.3c0-12,0-24.1,0-36.1
				c0-0.8,0-1.5,0-2.5c-11.8,0-23.2,0-34.9,0c0.2,5-0.5,9.7-3,14.4c1.4,0,2.5,0,3.6,0c6.1,0,12.2,0,18.2,0c2.4,0,3.7,1,3.7,2.9
				c0,1.8-1.3,2.9-3.8,2.9c-8.1,0-16.3,0-24.4,0c-0.8,0-1.7,0.2-2.2,0.7c-4.8,4.4-10.4,6.9-17,7.1c-0.2,0-0.4,0.1-0.7,0.2
				c0,16.6,0,33.1,0,49.8c20,0,40,0,60.2,0c0-0.7,0.1-1.3,0.1-2c0-7,0-14,0-20.9c0-0.8,0-1.6,0.2-2.3c0.4-1.4,1.5-2,3-1.9
				c1.4,0.1,2.2,0.9,2.5,2.3C189.4,77.9,189.4,78.5,189.4,79.1z"/>
			<path class="st2" d="M115,22.2c2.2,2.2,4.3,4.5,6.6,6.8c3-3,5.8-5.8,8.6-8.6c0.4-0.4,0.9-0.9,1.4-1.3c1.3-1,2.7-0.9,3.8,0.2
				c1.2,1.2,1.3,2.6,0.2,3.8c-3.9,4.1-8,8.1-12,12.1c-1.2,1.2-2.7,1-3.9-0.2c-2.9-2.9-5.8-5.8-8.7-8.7c-1.2-1.3-1.2-3-0.1-4.1
				C112,21,113.7,21,115,22.2z"/>
			<path class="st3" d="M77.4,130.2c0,3,0,5.9,0,9.1c-4.2,0-8.3,0-12.6,0c0-3.1,0-6,0-9.1C69,130.2,73.1,130.2,77.4,130.2z"/>
			<path class="st3" d="M76.5,83.8c0,3,0,5.9,0,9.1c-3.7,0-7.2,0-10.8,0c0-3.1,0-6,0-9.1C69.3,83.8,72.8,83.8,76.5,83.8z"/>
			<linearGradient id="SVGID_4_" gradientUnits="userSpaceOnUse" x1="30.8677" y1="153.8242" x2="111.3127" y2="153.8242">
				<stop  offset="0" style="stop-color:#FFFFFF"/>
				<stop  offset="0.1392" style="stop-color:#FBFEFE"/>
				<stop  offset="0.2728" style="stop-color:#F0FBFB"/>
				<stop  offset="0.4042" style="stop-color:#DCF5F5"/>
				<stop  offset="0.5343" style="stop-color:#C1EDED"/>
				<stop  offset="0.6635" style="stop-color:#9EE3E3"/>
				<stop  offset="0.792" style="stop-color:#73D7D7"/>
				<stop  offset="0.9175" style="stop-color:#41C9C9"/>
				<stop  offset="1" style="stop-color:#1CBEBE"/>
			</linearGradient>
			<path class="st5" d="M58.9,140c0,3.8,1.3,5.1,5.1,5.1c4.9,0,9.7,0,14.6,0c3.3,0,4.7-1.4,4.7-4.7c0-3.4,0-6.8,0-10.3
				c9.5,0,18.7,0,28,0c0,15.8,0,31.5,0,47.3c-26.8,0-53.6,0-80.4,0c0-15.8,0-31.5,0-47.3c9.3,0,18.6,0,28,0
				C58.9,133.5,58.9,136.8,58.9,140z"/>
		</g>
		<g>
		</g>
	</g>
</g>
</svg>
