<?xml version="1.0" standalone="no"?>
<!DOCTYPE svg PUBLIC "-//W3C//DTD SVG 20010904//EN"
 "http://www.w3.org/TR/2001/REC-SVG-20010904/DTD/svg10.dtd">
<svg version="1.0" xmlns="http://www.w3.org/2000/svg"
 width="512.000000pt" height="512.000000pt" viewBox="0 0 512.000000 512.000000"
 preserveAspectRatio="xMidYMid meet">

<g transform="translate(0.000000,512.000000) scale(0.100000,-0.100000)"
fill="#000000" stroke="none">
<path d="M1418 5104 c-175 -42 -320 -181 -375 -359 -17 -57 -18 -151 -18
-2185 0 -2034 1 -2128 18 -2185 55 -180 201 -318 379 -360 54 -12 225 -15
1134 -15 684 0 1091 4 1125 10 180 34 339 181 396 365 17 57 18 151 18 2185 0
2034 -1 2128 -18 2185 -57 184 -216 331 -396 365 -34 6 -440 10 -1130 9 -881
-1 -1086 -3 -1133 -15z m2290 -218 c76 -35 133 -96 162 -172 17 -48 20 -78 20
-234 l0 -180 -1330 0 -1330 0 0 180 c0 155 3 186 20 233 38 102 131 178 239
197 25 4 521 7 1101 6 l1055 -1 63 -29z m182 -2326 l0 -1540 -1330 0 -1330 0
0 1540 0 1540 1330 0 1330 0 0 -1540z m0 -1920 c0 -156 -3 -186 -20 -234 -29
-76 -86 -137 -162 -172 l-63 -29 -1085 0 -1085 0 -63 29 c-76 35 -133 96 -162
172 -17 48 -20 78 -20 234 l0 180 1330 0 1330 0 0 -180z"/>
<path d="M2310 4697 c-32 -16 -60 -74 -53 -109 3 -15 17 -39 30 -53 l26 -25
247 0 247 0 26 25 c33 34 40 72 19 115 -27 57 -43 60 -292 60 -159 0 -232 -4
-250 -13z"/>
<path d="M2489 581 c-81 -81 17 -210 120 -157 90 47 53 186 -49 186 -33 0 -48
-6 -71 -29z"/>
</g>
</svg>
