<?xml version="1.0" encoding="utf-8"?>
<!-- Generator: Adobe Illustrator 23.0.4, SVG Export Plug-In . SVG Version: 6.00 Build 0)  -->
<svg version="1.1" id="Capa_1" xmlns="http://www.w3.org/2000/svg" xmlns:xlink="http://www.w3.org/1999/xlink" x="0px" y="0px"
	 viewBox="0 0 200 200" style="enable-background:new 0 0 200 200;" xml:space="preserve">
<style type="text/css">
	.st0{fill:url(#SVGID_1_);}
	.st1{fill:none;stroke:#3366CC;stroke-width:5.7243;stroke-miterlimit:10;}
	.st2{fill:none;stroke:#3366CC;stroke-width:6.9093;stroke-linecap:round;stroke-miterlimit:10;}
	.st3{fill:#FFFFFF;}
	.st4{fill:#3366CC;}
	.st5{fill:none;stroke:#3366CC;stroke-width:2;stroke-linecap:round;stroke-linejoin:round;stroke-miterlimit:10;}
</style>
<linearGradient id="SVGID_1_" gradientUnits="userSpaceOnUse" x1="19.525" y1="1539.4148" x2="180.475" y2="1700.3647" gradientTransform="matrix(1 0 0 1 0 -1520.8898)">
	<stop  offset="0" style="stop-color:#FFFFFF"/>
	<stop  offset="0.2301" style="stop-color:#FCFEFE"/>
	<stop  offset="0.3713" style="stop-color:#F4FCFC"/>
	<stop  offset="0.4886" style="stop-color:#E5F8F8"/>
	<stop  offset="0.5927" style="stop-color:#D1F2F2"/>
	<stop  offset="0.6882" style="stop-color:#B6EAEA"/>
	<stop  offset="0.7773" style="stop-color:#96E1E1"/>
	<stop  offset="0.8615" style="stop-color:#6FD6D6"/>
	<stop  offset="0.9397" style="stop-color:#43C9C9"/>
	<stop  offset="1" style="stop-color:#1CBEBE"/>
</linearGradient>
<path class="st0" d="M162,193H38c-6.6,0-12-5.4-12-12V17c0-6.6,5.4-12,12-12h124c6.6,0,12,5.4,12,12v164
	C174,187.6,168.6,193,162,193z"/>
<path class="st1" d="M161.5,195h-123c-6.6,0-12-5.4-12-12V17c0-6.6,5.4-12,12-12h123c6.6,0,12,5.4,12,12v166
	C173.5,189.6,168.1,195,161.5,195z"/>
<line class="st2" x1="65.4" y1="126.3" x2="134.4" y2="126.6"/>
<line class="st2" x1="69.4" y1="145.6" x2="130.4" y2="145.9"/>
<polygon class="st3" points="102.8,109.7 136.1,77.8 136.9,58.6 126.5,46.6 113.5,44 103.4,50.7 96.1,46.9 83.5,45.3 73.4,50.7 
	66.8,59.5 66.8,70.9 68.7,77.6 "/>
<g>
	<g id="XMLID_1_">
		<g>
			<g id="XMLID_2_">
				<g>
					<path class="st3" d="M132.8,82.2c0,0.9,0.7,1.6,1.6,1.6s1.6-0.7,1.6-1.6v-4.4h4.4c0.9,0,1.6-0.7,1.6-1.6c0-0.9-0.7-1.7-1.6-1.7
						h-4.4v-4.4c0-0.9-0.7-1.6-1.6-1.6s-1.6,0.7-1.6,1.6v4.4h-4.4c-0.9,0-1.7,0.7-1.7,1.7c0,0.9,0.7,1.6,1.7,1.6h4.4V82.2z
						 M134.5,87.3c-6.2,0-11.2-5-11.2-11.2c0-6.2,5-11.2,11.2-11.2s11.2,5,11.2,11.2C145.6,82.3,140.6,87.3,134.5,87.3z"/>
					<path class="st4" d="M136.1,70.1v4.4h4.4c0.9,0,1.6,0.7,1.6,1.7c0,0.9-0.7,1.6-1.6,1.6h-4.4v4.4c0,0.9-0.7,1.6-1.6,1.6
						s-1.6-0.7-1.6-1.6v-4.4h-4.4c-0.9,0-1.7-0.7-1.7-1.6c0-0.9,0.7-1.7,1.7-1.7h4.4v-4.4c0-0.9,0.7-1.6,1.6-1.6
						S136.1,69.2,136.1,70.1z"/>
					<path class="st4" d="M122.8,91.7c0.6,0.6,0.7,1.7,0,2.3l0,0c-0.3,0.3-0.8,0.5-1.2,0.5c-0.4,0-0.8-0.2-1.2-0.5
						c-0.6-0.6-0.7-1.7,0-2.3l0.1,0C121.1,91.1,122.2,91.1,122.8,91.7z"/>
					<path class="st4" d="M123.3,76.1c0,6.2,5,11.2,11.2,11.2s11.2-5,11.2-11.2c0-6.2-5-11.2-11.2-11.2S123.3,70,123.3,76.1z
						 M67,74.3c-1.5-3.1-2.2-5.9-2.2-8.4c0-12.7,10.1-23,22.5-23c5.7,0,11,2.1,15.1,6c4.2-3.9,9.5-6,15.2-6
						c11.3,0,20.7,8.5,22.3,19.8c5.3,2.1,9.1,7.3,9.1,13.4c0,8-6.5,14.5-14.5,14.5c-8,0-14.5-6.5-14.5-14.5c0-8,6.5-14.5,14.5-14.5
						c0.6,0,1.3,0,1.9,0.1c-1.9-9-9.6-15.6-18.8-15.6c-5.3,0-10.3,2.2-13.9,6.2c-0.3,0.3-0.8,0.5-1.2,0.5s-0.9-0.2-1.2-0.5
						c-3.7-4-8.6-6.2-13.9-6.2c-10.6,0-19.2,8.9-19.2,19.7c0,2.4,0.9,5.2,2.6,8.4h15.4l4-14.1c0.2-0.7,0.8-1.2,1.6-1.2
						c0.7,0,1.4,0.5,1.6,1.2l8,25.7l3.2-10.2c0.2-0.7,0.8-1.2,1.6-1.2h8.5c0.9,0,1.6,0.7,1.6,1.7c0,0.9-0.7,1.6-1.6,1.6h-7.3
						l-4.4,14.1c-0.2,0.7-0.8,1.2-1.6,1.2c-0.7,0-1.3-0.5-1.6-1.2l-7.9-25.5l-2.9,10c-0.2,0.7-0.8,1.2-1.6,1.2H72.6
						c2.9,4.5,7.3,9.7,13,15.3c7.1,7.1,14.3,12.9,16.9,14.9c2.2-1.7,7.6-6.1,13.5-11.7c0.7-0.6,1.7-0.6,2.3,0.1
						c0.6,0.7,0.6,1.7-0.1,2.3c-7.7,7.3-14.7,12.6-14.7,12.7c-0.3,0.2-0.7,0.3-1,0.3s-0.7-0.1-1-0.3c-0.1-0.1-9.2-7-18.2-16
						c-6.6-6.6-11.5-12.5-14.5-17.7h-2.3c-0.9,0-1.6-0.7-1.6-1.7c0-0.9,0.7-1.6,1.6-1.6H67z"/>
				</g>
				<g>
					<path class="st5" d="M122.8,91.7c-0.7-0.6-1.7-0.6-2.3,0l-0.1,0c-0.6,0.7-0.6,1.7,0,2.3c0.3,0.3,0.7,0.5,1.2,0.5
						c0.4,0,0.9-0.2,1.2-0.5l0,0C123.5,93.4,123.4,92.4,122.8,91.7z"/>
					<path class="st5" d="M142.1,75.8c-0.2-0.8-0.8-1.3-1.6-1.3h-4.4v-4.4c0-0.9-0.7-1.6-1.6-1.6s-1.6,0.7-1.6,1.6v4.4h-4.4
						c-0.9,0-1.7,0.7-1.7,1.7c0,0.9,0.7,1.6,1.7,1.6h4.4v4.4c0,0.9,0.7,1.6,1.6,1.6s1.6-0.7,1.6-1.6v-4.4h4.4c0.9,0,1.6-0.7,1.6-1.6
						C142.1,76,142.1,75.9,142.1,75.8z"/>
					<path class="st5" d="M139.8,62.7c-1.5-11.3-11-19.8-22.3-19.8c-5.7,0-11,2.1-15.2,6c-4.1-3.9-9.5-6-15.1-6
						c-12.4,0-22.5,10.3-22.5,23c0,2.5,0.7,5.3,2.2,8.4h-0.6c-0.9,0-1.6,0.7-1.6,1.6c0,0.9,0.7,1.7,1.6,1.7h2.3
						c3.1,5.2,7.9,11.1,14.5,17.7c9,8.9,18.1,15.9,18.2,16c0.3,0.2,0.7,0.3,1,0.3s0.7-0.1,1-0.3c0.1,0,7-5.4,14.7-12.7
						c0.7-0.6,0.7-1.7,0.1-2.3c-0.6-0.7-1.7-0.7-2.3-0.1c-5.9,5.5-11.3,9.9-13.5,11.7c-2.6-2-9.8-7.9-16.9-14.9
						c-5.7-5.7-10-10.8-13-15.3h14.7c0.7,0,1.4-0.5,1.6-1.2l2.9-10l7.9,25.5c0.2,0.7,0.9,1.2,1.6,1.2c0.7,0,1.4-0.5,1.6-1.2
						l4.4-14.1h7.3c0.9,0,1.6-0.7,1.6-1.6c0-0.9-0.7-1.7-1.6-1.7H106c-0.7,0-1.4,0.5-1.6,1.2l-3.2,10.2l-8-25.7
						C93,59.5,92.4,59,91.7,59c-0.7,0-1.4,0.5-1.6,1.2l-4,14.1H70.6c-1.7-3.2-2.6-6-2.6-8.4c0-10.9,8.6-19.7,19.2-19.7
						c5.3,0,10.3,2.2,13.9,6.2c0.3,0.3,0.8,0.5,1.2,0.5s0.9-0.2,1.2-0.5c3.7-4,8.6-6.2,13.9-6.2c9.2,0,16.9,6.6,18.8,15.6
						c-0.6-0.1-1.2-0.1-1.9-0.1c-8,0-14.5,6.5-14.5,14.5c0,8,6.5,14.5,14.5,14.5c8,0,14.5-6.5,14.5-14.5
						C148.9,70.1,145.2,64.8,139.8,62.7z"/>
					<path class="st5" d="M145.6,76.1c0,6.2-5,11.2-11.2,11.2s-11.2-5-11.2-11.2c0-6.2,5-11.2,11.2-11.2S145.6,70,145.6,76.1z"/>
				</g>
			</g>
		</g>
	</g>
	<g>
	</g>
	<g>
	</g>
	<g>
	</g>
	<g>
	</g>
	<g>
	</g>
	<g>
	</g>
	<g>
	</g>
	<g>
	</g>
	<g>
	</g>
	<g>
	</g>
	<g>
	</g>
	<g>
	</g>
	<g>
	</g>
	<g>
	</g>
	<g>
	</g>
</g>
</svg>
