<?xml version="1.0" encoding="utf-8"?>
<!-- Generator: Adobe Illustrator 25.4.1, SVG Export Plug-In . SVG Version: 6.00 Build 0)  -->
<svg version="1.1" id="Capa_1" xmlns="http://www.w3.org/2000/svg" xmlns:xlink="http://www.w3.org/1999/xlink" x="0px" y="0px"
	 viewBox="0 0 200 200" style="enable-background:new 0 0 200 200;" xml:space="preserve">
<style type="text/css">
	.st0{fill:#AEEAFF;}
	.st1{fill:#AF815F;}
	.st2{fill:#C19774;}
	.st3{fill:#BBE5A7;}
	.st4{fill:#8CE09F;}
	.st5{fill:#FFD3C7;}
	.st6{fill:#FFB7A6;}
	.st7{fill:#FFE5DC;}
	.st8{fill:#EDA1AB;}
	.st9{fill:#455060;}
</style>
<rect x="-2" y="-4" class="st0" width="203.2" height="206"/>
<path class="st1" d="M35.2,99.8l1.3,14.7c0.5,13.5-0.4,34.3-8.3,52.9c-1.1,2.6,0,5.5,2.4,6.9c18.2,9.9,44,12.7,67.7,12.7l12.8-43.6
	L98.3,99.8L35.2,99.8z"/>
<path class="st2" d="M166.6,174.2c-18.3,9.9-44.7,12.7-68.3,12.7V99.8H162l-1.3,14.7c-0.5,13.5,0.4,34.3,8.3,52.9
	C170.1,169.9,169,172.9,166.6,174.2L166.6,174.2z"/>
<g>
	<path class="st3" d="M142.3,191c-2.1-10.7-8.1-20-16.4-26.4c-3.3,13.8-27.3,15.7-27.3,15.7s-24-1.9-27.3-15.7
		C63,171,57,180.3,54.9,191c-0.9,4.5,2.6,8.8,7.2,8.8h72.9C139.7,199.7,143.2,195.5,142.3,191z"/>
	<path class="st4" d="M71.3,164.5C63,171,57,180.3,54.9,191c-0.9,4.5,2.6,8.8,7.2,8.8H75c0-8.8,2.5-17,6.9-23.9
		C77,173.5,72.6,169.9,71.3,164.5L71.3,164.5z"/>
</g>
<path class="st5" d="M123.4,162.7H73.8c-0.9,0.6-1.7,1.2-2.6,1.9c3.3,13.8,27.3,18.7,27.3,18.7s24-4.9,27.3-18.7
	C125.1,163.9,124.2,163.3,123.4,162.7z"/>
<path class="st6" d="M123.4,162.7c-7.6,3.3-16,5.2-24.8,5.2s-17.2-1.8-24.8-5.2c7.1-4.7,15.6-7.5,24.8-7.5
	C107.8,155.2,116.3,157.9,123.4,162.7z"/>
<circle class="st5" cx="152.4" cy="108.6" r="13.1"/>
<circle class="st5" cx="44.8" cy="108.6" r="13.1"/>
<g>
	<path class="st7" d="M152.7,108.7c0,27.2-20.1,49.7-46.2,53.5c-36.4,0-54.7-26.3-54.7-53.5c0-27.2,22.4-53.5,54.7-53.5
		C132.6,59,152.7,81.5,152.7,108.7z"/>
	<path class="st5" d="M60.3,108.7c0-27.2,20.1-49.7,46.2-53.5c-2.6-0.4-5.2-0.6-7.9-0.6c-29.9,0-54.1,24.2-54.1,54.1
		s24.2,54.1,54.1,54.1c2.7,0,5.3-0.2,7.9-0.6C80.3,158.4,60.3,135.9,60.3,108.7L60.3,108.7z"/>
</g>
<path class="st2" d="M162,99.8c0,0-43.7,9.2-75.8-17.1c-6.7,5.3-15.2,9.7-24.4,12.7c-22.3-13.5-1.5-57.6,50-57.6
	C140.5,43.8,162,69.3,162,99.8L162,99.8z"/>
<path class="st1" d="M111.8,37.7c-4.3-0.9-8.7-1.4-13.2-1.4c-35,0-63.4,28.4-63.4,63.4c8.9,0,18-1.6,26.6-4.4
	C63.8,66.8,84.6,43.5,111.8,37.7L111.8,37.7z"/>
<g>
	<g>
		<ellipse class="st8" cx="72.2" cy="119.4" rx="9.7" ry="7.8"/>
		<ellipse class="st8" cx="125" cy="119.4" rx="9.7" ry="7.8"/>
	</g>
	<g>
		<path class="st9" d="M77.9,114.4c-1.3,0-2.4-1.1-2.4-2.4v-4c0-1.3,1.1-2.4,2.4-2.4s2.4,1.1,2.4,2.4v4
			C80.3,113.3,79.2,114.4,77.9,114.4z"/>
		<path class="st9" d="M119.3,114.4c-1.3,0-2.4-1.1-2.4-2.4v-4c0-1.3,1.1-2.4,2.4-2.4c1.3,0,2.4,1.1,2.4,2.4v4
			C121.7,113.3,120.7,114.4,119.3,114.4z"/>
		<path class="st9" d="M98.6,116.7c-2.8,0-5.4-1.2-7.3-3.3c-0.9-1-0.8-2.5,0.2-3.4c1-0.9,2.5-0.8,3.4,0.2c0.9,1.1,2.3,1.7,3.7,1.7
			s2.7-0.6,3.7-1.7c0.9-1,2.4-1.1,3.4-0.2c1,0.9,1.1,2.4,0.2,3.4C104,115.5,101.4,116.7,98.6,116.7L98.6,116.7z"/>
	</g>
</g>
</svg>
