<?xml version="1.0" encoding="utf-8"?>
<!-- Generator: Adobe Illustrator 24.2.3, SVG Export Plug-In . SVG Version: 6.00 Build 0)  -->
<svg version="1.1" id="Capa_1" xmlns="http://www.w3.org/2000/svg" xmlns:xlink="http://www.w3.org/1999/xlink" x="0px" y="0px"
	 viewBox="0 0 200 200" style="enable-background:new 0 0 200 200;" xml:space="preserve">
<style type="text/css">
	.st0{fill:#FFFFFF;}
	.st1{fill:#3366CC;}
	.st2{fill:url(#SVGID_1_);}
</style>
<g id="Capa_3">
</g>
<g id="Capa_3_1_">
</g>
<g>
	<circle class="st0" cx="102.3" cy="113.2" r="52.4"/>
	<g>
		<g id="XMLID_2_">
			<g>
				<path class="st1" d="M196.1,88.8c0.8,7.6,0.7,15.2,0,22.8c-1,9.8-10.6,16.6-20,13.6c-5.3-1.7-9.1,0.3-11.4,5
					c-1.8,3.8-4.1,7.4-6.3,10.9c-3,4.8-2.6,8,1.4,11.9c6.7,6.3,6.8,17-0.3,22.9c-7,6-15,10.6-23.8,13.6c-8.2,2.8-17.1-2.2-19.5-10.5
					c-0.2-0.7-0.3-1.3-0.5-2c-1-3.7-3.8-5.9-7.5-5.9c-5.5,0-10.9,0-16.4,0c-4,0-6.7,2.4-7.7,6.7c-1.6,6.9-6,11-12.9,12.4
					c-3,0.6-6,0.1-8.9-1.1c-7.3-3.1-14.2-7.1-20.5-11.8c-8.1-6.1-8.7-17.4-1.3-24.3c3.7-3.4,4.1-6.8,1.5-11.1c-2.4-4-4.8-8.1-7-12.2
					c-2.4-4.3-5.6-5.7-10.4-4.3c-10.2,3-19.6-3.4-20.6-14.1c-0.2-1.8-0.5-3.6-0.7-5.4c0-3.8,0-7.6,0-11.3c0.2-1.9,0.5-3.8,0.7-5.8
					c0.9-10,10.5-16.8,20-13.8c4.7,1.5,8.8,0.2,11.3-4.9c1.9-3.9,4.3-7.7,6.6-11.4c2.7-4.4,2.3-7.8-1.4-11.3
					c-7.4-6.9-6.8-18.2,1.3-24.3c6.4-4.8,13.2-8.8,20.5-11.8c9.3-3.9,19.3,1.1,21.7,10.9c1.3,5.3,4.1,7.3,9.7,7
					c4.2-0.2,8.4-0.2,12.6,0c5.5,0.3,8.3-1.7,9.7-7c2.4-9.8,12.4-14.8,21.7-10.9c7.3,3.1,14.2,7.1,20.5,11.8
					c8.1,6.1,8.7,17.4,1.3,24.3c-3.7,3.4-4.1,6.8-1.5,11.1c2.4,4,4.8,8.1,7,12.2c2.4,4.3,5.6,5.7,10.4,4.3
					C185.5,71.8,195,78.3,196.1,88.8z M188,110.5c0.8-7,0.8-14.1,0-21.1c-0.6-5.2-4.9-8.2-9.9-6.9c-0.7,0.2-1.3,0.3-2,0.5
					c-6.5,1.7-13.8-1.2-17.1-7c-3-5-5.8-10.1-8.7-15.2c-0.2-0.4-0.5-0.9-0.6-1.4c-2.6-7-1-13,4.4-18.1c4-3.8,3.5-9-0.9-12.3
					c-5.6-4.1-11.5-7.7-17.9-10.3c-1.4-0.6-3.1-1-4.5-0.8c-4.1,0.4-6.1,3.1-6.9,6.9c-1.5,7.5-8.6,12.6-16.2,12.2
					c-5.2-0.2-10.4,0-15.6-0.1c-1.6,0-3.3-0.2-4.8-0.7C81,34.3,77.7,30,76.2,24c-1.3-5.3-6-7.5-11-5.4c-6.6,2.8-12.8,6.3-18.4,10.7
					c-1.4,1.1-2.6,3-3.1,4.7c-1.1,3.2,0.6,5.7,2.9,8c5.9,5.8,6.7,13,2.5,20.1c-2.6,4.5-5.1,9.1-7.8,13.5c-0.9,1.4-2,2.8-3.2,3.9
					c-4.7,4.2-10.1,4.8-16.1,3.1c-5.1-1.5-9.4,1.6-10,6.8c-0.4,3.5-0.5,7-0.8,10.6c0.3,3.6,0.4,7.2,0.8,10.8
					c0.4,3.4,2.6,6.2,5.7,6.7c1.7,0.3,3.6,0,5.4-0.4c7.7-2,14.6,0.9,18.6,7.9c2.6,4.5,5.2,9,7.8,13.6c0.8,1.4,1.4,3,1.8,4.5
					c1.4,6.2-0.7,11.3-5.3,15.6c-3.9,3.7-3.4,8.8,0.8,12.1c5.7,4.3,11.8,7.9,18.4,10.6c1.3,0.6,3,0.8,4.4,0.7c4.3-0.4,6-3.5,7-7.3
					c1.8-7.3,7.9-11.8,15.3-11.7c5.2,0,10.4,0,15.6,0c1.3,0,2.5,0,3.8,0.3c6.8,1.5,10.8,5.9,12.5,12.6c1.3,5.3,5.9,7.6,10.9,5.5
					c6.6-2.8,12.8-6.4,18.6-10.7c3.6-2.7,4.4-7.3,1.9-10.7c-0.5-0.8-1.3-1.4-1.9-2.1c-5.7-5.7-6.6-13-2.5-20
					c2.6-4.5,5.2-9.1,7.8-13.5c0.9-1.4,1.9-2.8,3.2-3.9c4.8-4.2,10.2-4.8,16.2-3.1C183.1,118.9,187.4,115.7,188,110.5z"/>
				<linearGradient id="SVGID_1_" gradientUnits="userSpaceOnUse" x1="11.3383" y1="99.9889" x2="188.6152" y2="99.9889">
					<stop  offset="0" style="stop-color:#FFFFFF"/>
					<stop  offset="0.2301" style="stop-color:#FCFEFE"/>
					<stop  offset="0.3713" style="stop-color:#F4FCFC"/>
					<stop  offset="0.4886" style="stop-color:#E5F8F8"/>
					<stop  offset="0.5927" style="stop-color:#D1F2F2"/>
					<stop  offset="0.6882" style="stop-color:#B6EAEA"/>
					<stop  offset="0.7773" style="stop-color:#96E1E1"/>
					<stop  offset="0.8615" style="stop-color:#6FD6D6"/>
					<stop  offset="0.9397" style="stop-color:#43C9C9"/>
					<stop  offset="1" style="stop-color:#1CBEBE"/>
				</linearGradient>
				<path class="st2" d="M188,89.4c0.8,7,0.8,14.1,0,21.1c-0.6,5.2-4.9,8.3-9.9,6.9c-6-1.7-11.5-1.1-16.2,3.1
					c-1.2,1.1-2.3,2.5-3.2,3.9c-2.7,4.5-5.2,9-7.8,13.5c-4.1,7-3.2,14.2,2.5,20c0.7,0.7,1.4,1.3,1.9,2.1c2.5,3.4,1.7,8-1.9,10.7
					c-5.7,4.4-11.9,7.9-18.6,10.7c-5,2.1-9.6-0.2-10.9-5.5c-1.6-6.8-5.6-11.1-12.5-12.6c-1.2-0.3-2.5-0.3-3.8-0.3
					c-5.2,0-10.4,0-15.6,0c-7.5-0.1-13.5,4.5-15.3,11.7c-1,3.8-2.7,6.9-7,7.3c-1.4,0.1-3.1-0.1-4.4-0.7c-6.6-2.7-12.7-6.3-18.4-10.6
					c-4.3-3.2-4.7-8.4-0.8-12.1c4.6-4.3,6.6-9.4,5.3-15.6c-0.3-1.6-1-3.1-1.8-4.5c-2.5-4.6-5.2-9-7.8-13.6
					c-3.9-6.9-10.9-9.8-18.6-7.9c-1.7,0.4-3.6,0.7-5.4,0.4c-3.1-0.5-5.4-3.3-5.7-6.7c-0.4-3.6-0.6-7.3-0.8-10.8
					c0.3-3.6,0.4-7.1,0.8-10.6c0.5-5.2,4.9-8.2,10-6.8c5.9,1.7,11.3,1.1,16.1-3.1c1.2-1.1,2.3-2.5,3.2-3.9c2.7-4.5,5.2-9,7.8-13.5
					c4.2-7.1,3.3-14.3-2.5-20.1c-2.3-2.3-4-4.8-2.9-8c0.6-1.7,1.7-3.6,3.1-4.7c5.6-4.4,11.8-7.9,18.4-10.7c5-2.1,9.7,0.1,11,5.4
					C77.7,30,81,34.3,87,36.2c1.5,0.5,3.2,0.7,4.8,0.7c5.2,0.1,10.4-0.2,15.6,0.1c7.5,0.3,14.6-4.7,16.2-12.2
					c0.8-3.8,2.8-6.5,6.9-6.9c1.5-0.1,3.1,0.3,4.5,0.8c6.4,2.6,12.4,6.2,17.9,10.3c4.5,3.3,5,8.5,0.9,12.3c-5.4,5.2-7,11.1-4.4,18.1
					c0.2,0.5,0.4,0.9,0.6,1.4c2.9,5.1,5.8,10.1,8.7,15.2c3.4,5.7,10.6,8.7,17.1,7c0.7-0.2,1.3-0.3,2-0.5
					C183.2,81.2,187.5,84.2,188,89.4z M140.3,100.1c0.2-22-18.2-40.5-40.3-40.4C77.9,59.8,59.8,77.8,59.8,100
					c0,22.1,18,40.2,40.2,40.3C122,140.4,140.1,122.4,140.3,100.1z"/>
				<path class="st1" d="M100,59.7c22.1-0.1,40.5,18.4,40.3,40.4c-0.2,22.3-18.4,40.3-40.4,40.2C77.8,140.1,59.7,122,59.8,100
					C59.8,77.8,77.9,59.8,100,59.7z M132.2,100.1c0.1-17.7-14.2-32.1-32-32.3c-17.7-0.2-32.2,14.1-32.3,32
					c-0.2,17.8,14.2,32.3,32.1,32.4C117.7,132.2,132.1,117.9,132.2,100.1z"/>
			</g>
			<g>
			</g>
		</g>
	</g>
</g>
</svg>
