<?xml version="1.0" encoding="utf-8"?>
<!-- Generator: Adobe Illustrator 24.2.3, SVG Export Plug-In . SVG Version: 6.00 Build 0)  -->
<svg version="1.1" id="Capa_1" xmlns="http://www.w3.org/2000/svg" xmlns:xlink="http://www.w3.org/1999/xlink" x="0px" y="0px"
	 viewBox="0 0 200 200" style="enable-background:new 0 0 200 200;" xml:space="preserve">
<style type="text/css">
	.st0{fill:url(#SVGID_1_);}
	.st1{fill:#3366CC;}
	.st2{fill:url(#SVGID_2_);}
	.st3{fill:none;stroke:#FFFFFF;stroke-width:10;stroke-miterlimit:10;}
	.st4{fill:#FFFFFF;}
	.st5{fill:url(#SVGID_3_);}
	.st6{fill:none;stroke:#3366CC;stroke-width:5;stroke-miterlimit:10;}
</style>
<g>
	<g id="XMLID_3_">
		<g>
			<linearGradient id="SVGID_1_" gradientUnits="userSpaceOnUse" x1="53.8885" y1="52.0578" x2="118.1556" y2="52.0578">
				<stop  offset="0" style="stop-color:#FFFFFF"/>
				<stop  offset="0.2301" style="stop-color:#FCFEFE"/>
				<stop  offset="0.3713" style="stop-color:#F4FCFC"/>
				<stop  offset="0.4886" style="stop-color:#E5F8F8"/>
				<stop  offset="0.5927" style="stop-color:#D1F2F2"/>
				<stop  offset="0.6882" style="stop-color:#B6EAEA"/>
				<stop  offset="0.7773" style="stop-color:#96E1E1"/>
				<stop  offset="0.8615" style="stop-color:#6FD6D6"/>
				<stop  offset="0.9397" style="stop-color:#43C9C9"/>
				<stop  offset="1" style="stop-color:#1CBEBE"/>
			</linearGradient>
			<path class="st0" d="M86.2,19.9c17.6,0.1,32,14.6,31.9,32.3c0,17.7-14.6,32.1-32.4,32c-17.6-0.1-32-14.6-31.9-32.3
				C53.9,34.2,68.4,19.8,86.2,19.9z"/>
			<path class="st1" d="M53.9,51.9c0,17.7,14.3,32.2,31.9,32.3c17.8,0.1,32.3-14.3,32.4-32c0-17.7-14.3-32.2-31.9-32.3
				C68.4,19.8,53.9,34.2,53.9,51.9z M53.7,20.8c17.6-18.2,46.9-18.3,64.6-0.1c18.4,18.9,17.2,50.4-5.7,67.8c0.6,0.3,1.1,0.5,1.6,0.7
				c28.6,11.2,46.6,31.6,53.6,61.6c1.2,5.2,1.4,10.7,1.8,16.1c0.3,4.8-2.4,7.4-7.2,7.4c-21.1,0-42.3,0-63.5,0c-29.5,0-58.9,0-88.4,0
				c-5.8,0-8.1-2.3-8-8c0.4-34.1,22.8-65.4,55-76.9c0.6-0.2,1.2-0.5,2-0.8C36.7,71.3,35.3,39.8,53.7,20.8z M156.2,161.2
				c-2-31.3-29.4-63.8-69.7-64.1c-40.2-0.3-68.6,31.9-70.7,64.1C62.7,161.2,109.5,161.2,156.2,161.2z"/>
			<linearGradient id="SVGID_2_" gradientUnits="userSpaceOnUse" x1="15.7974" y1="129.1674" x2="156.2252" y2="129.1674">
				<stop  offset="0" style="stop-color:#FFFFFF"/>
				<stop  offset="0.2301" style="stop-color:#FCFEFE"/>
				<stop  offset="0.3713" style="stop-color:#F4FCFC"/>
				<stop  offset="0.4886" style="stop-color:#E5F8F8"/>
				<stop  offset="0.5927" style="stop-color:#D1F2F2"/>
				<stop  offset="0.6882" style="stop-color:#B6EAEA"/>
				<stop  offset="0.7773" style="stop-color:#96E1E1"/>
				<stop  offset="0.8615" style="stop-color:#6FD6D6"/>
				<stop  offset="0.9397" style="stop-color:#43C9C9"/>
				<stop  offset="1" style="stop-color:#1CBEBE"/>
			</linearGradient>
			<path class="st2" d="M86.5,97.1c40.3,0.3,67.7,32.8,69.7,64.1c-46.8,0-93.5,0-140.4,0C17.9,129,46.3,96.8,86.5,97.1z"/>
		</g>
		<g>
			<path class="st3" d="M59.6,88.5c-22.8-17.2-24.2-48.7-5.9-67.7c17.6-18.2,46.9-18.3,64.6-0.1c18.4,18.9,17.2,50.4-5.7,67.8
				c0.6,0.3,1.1,0.5,1.6,0.7c28.6,11.2,46.6,31.6,53.6,61.6c1.2,5.2,1.4,10.7,1.8,16.1c0.3,4.8-2.4,7.4-7.2,7.4
				c-21.1,0-42.3,0-63.5,0c-29.5,0-58.9,0-88.4,0c-5.8,0-8.1-2.3-8-8c0.4-34.1,22.8-65.4,55-76.9C58.2,89.1,58.8,88.8,59.6,88.5z"/>
		</g>
	</g>
</g>
<g id="Capa_3">
</g>
<g id="Capa_3_1_">
</g>
<g id="Capa_3_3_">
</g>
<g id="Capa_3_2_">
</g>
<circle class="st4" cx="147.1" cy="155.1" r="27.6"/>
<g>
	<g id="XMLID_1_">
		<g>
			<path class="st1" d="M128.9,148.1c-0.1,9.3,7.5,17,16.9,17c9.3,0,16.9-7.5,17-16.9c0.1-9.3-7.5-16.9-16.8-17
				C136.6,131.2,129,138.7,128.9,148.1z M145.8,169.4c-11.7-0.1-21.2-9.6-21.2-21.2c0-11.6,9.5-21.2,21.2-21.2
				c11.6,0,21.3,9.7,21.2,21.3C167,160,157.4,169.5,145.8,169.4z"/>
			<linearGradient id="SVGID_3_" gradientUnits="userSpaceOnUse" x1="99.1838" y1="148.2146" x2="192.4783" y2="148.2146">
				<stop  offset="0" style="stop-color:#FFFFFF"/>
				<stop  offset="0.2301" style="stop-color:#FCFEFE"/>
				<stop  offset="0.3713" style="stop-color:#F4FCFC"/>
				<stop  offset="0.4886" style="stop-color:#E5F8F8"/>
				<stop  offset="0.5927" style="stop-color:#D1F2F2"/>
				<stop  offset="0.6882" style="stop-color:#B6EAEA"/>
				<stop  offset="0.7773" style="stop-color:#96E1E1"/>
				<stop  offset="0.8615" style="stop-color:#6FD6D6"/>
				<stop  offset="0.9397" style="stop-color:#43C9C9"/>
				<stop  offset="1" style="stop-color:#1CBEBE"/>
			</linearGradient>
			<path class="st5" d="M124.7,148.2c0,11.6,9.5,21.1,21.2,21.2c11.6,0.1,21.1-9.4,21.2-21.1c0.1-11.6-9.6-21.3-21.2-21.3
				C134.2,127,124.7,136.6,124.7,148.2z M99.2,148.2c0.1-1.9,0.2-3.7,0.4-5.6c0.3-2.7,2.6-4.3,5.3-3.6c3.1,0.9,6,0.6,8.4-1.6
				c0.7-0.6,1.2-1.3,1.7-2.1c1.4-2.3,2.7-4.8,4.1-7.1c2.2-3.7,1.8-7.5-1.3-10.6c-1.2-1.2-2.1-2.5-1.5-4.2c0.3-0.9,0.9-1.9,1.7-2.5
				c2.9-2.3,6.2-4.2,9.7-5.6c2.6-1.1,5.1,0.1,5.8,2.8c0.8,3.2,2.5,5.4,5.7,6.4c0.8,0.3,1.7,0.4,2.5,0.4c2.7,0,5.5-0.1,8.2,0
				c4,0.2,7.7-2.5,8.5-6.4c0.4-2,1.5-3.4,3.6-3.6c0.8-0.1,1.7,0.1,2.4,0.4c3.4,1.4,6.5,3.3,9.4,5.4c2.4,1.7,2.6,4.5,0.5,6.5
				c-2.8,2.7-3.7,5.8-2.3,9.5c0.1,0.2,0.2,0.5,0.3,0.7c1.5,2.7,3,5.3,4.6,8c1.8,3,5.6,4.6,9,3.7c0.4-0.1,0.7-0.2,1.1-0.3
				c2.7-0.7,4.9,0.9,5.2,3.7c0.4,3.7,0.4,7.4,0,11.1c-0.3,2.7-2.6,4.4-5.2,3.6c-3.2-0.9-6-0.6-8.5,1.6c-0.7,0.6-1.2,1.3-1.7,2.1
				c-1.4,2.4-2.7,4.8-4.1,7.1c-2.2,3.7-1.7,7.5,1.3,10.5c0.3,0.4,0.7,0.7,1,1.1c1.3,1.8,0.9,4.2-1,5.6c-3,2.3-6.3,4.2-9.8,5.6
				c-2.6,1.1-5.1-0.1-5.7-2.9c-0.9-3.6-3-5.8-6.6-6.6c-0.6-0.1-1.3-0.2-2-0.2c-2.7,0-5.5,0-8.2,0c-3.9,0-7.1,2.3-8.1,6.2
				c-0.5,2-1.4,3.6-3.7,3.8c-0.8,0.1-1.6-0.1-2.3-0.4c-3.5-1.4-6.7-3.3-9.7-5.6c-2.2-1.7-2.5-4.4-0.4-6.3c2.4-2.3,3.5-4.9,2.8-8.2
				c-0.2-0.8-0.5-1.6-0.9-2.4c-1.3-2.4-2.7-4.8-4.1-7.1c-2.1-3.7-5.7-5.2-9.8-4.1c-0.9,0.2-1.9,0.4-2.8,0.2c-1.6-0.3-2.8-1.7-3-3.5
				C99.4,152,99.3,150.1,99.2,148.2z"/>
			<path class="st1" d="M99.6,153.9c0.2,1.8,1.4,3.3,3,3.5c0.9,0.1,1.9,0,2.8-0.2c4.1-1,7.7,0.5,9.8,4.1c1.4,2.4,2.8,4.7,4.1,7.1
				c0.4,0.7,0.8,1.6,0.9,2.4c0.7,3.3-0.4,5.9-2.8,8.2c-2,1.9-1.8,4.6,0.4,6.3c3,2.3,6.2,4.1,9.7,5.6c0.7,0.3,1.6,0.4,2.3,0.4
				c2.3-0.2,3.2-1.8,3.7-3.8c0.9-3.8,4.2-6.2,8.1-6.2c2.7,0,5.5,0,8.2,0c0.7,0,1.3,0,2,0.2c3.6,0.8,5.7,3.1,6.6,6.6
				c0.7,2.8,3.1,4,5.7,2.9c3.5-1.5,6.8-3.4,9.8-5.6c1.9-1.4,2.3-3.8,1-5.6c-0.3-0.4-0.7-0.7-1-1.1c-3-3-3.5-6.8-1.3-10.5
				c1.4-2.4,2.7-4.8,4.1-7.1c0.5-0.8,1-1.5,1.7-2.1c2.5-2.2,5.4-2.5,8.5-1.6c2.6,0.8,4.9-0.9,5.2-3.6c0.4-3.7,0.4-7.4,0-11.1
				c-0.3-2.7-2.6-4.3-5.2-3.7c-0.4,0.1-0.7,0.2-1.1,0.3c-3.4,0.9-7.2-0.6-9-3.7c-1.6-2.6-3.1-5.3-4.6-8c-0.1-0.2-0.2-0.5-0.3-0.7
				c-1.4-3.7-0.5-6.8,2.3-9.5c2.1-2,1.9-4.7-0.5-6.5c-2.9-2.2-6.1-4-9.4-5.4c-0.7-0.3-1.6-0.5-2.4-0.4c-2.1,0.2-3.2,1.6-3.6,3.6
				c-0.8,3.9-4.5,6.6-8.5,6.4c-2.7-0.1-5.5,0-8.2,0c-0.8,0-1.7-0.1-2.5-0.4c-3.2-1-4.9-3.3-5.7-6.4c-0.7-2.8-3.1-4-5.8-2.8
				c-3.5,1.5-6.7,3.3-9.7,5.6c-0.7,0.6-1.4,1.6-1.7,2.5c-0.6,1.7,0.3,3,1.5,4.2c3.1,3,3.5,6.8,1.3,10.6c-1.4,2.4-2.7,4.8-4.1,7.1
				c-0.5,0.8-1,1.5-1.7,2.1c-2.5,2.2-5.3,2.5-8.4,1.6c-2.7-0.8-5,0.8-5.3,3.6c-0.2,1.8-0.3,3.7-0.4,5.6
				C99.3,150.1,99.4,152,99.6,153.9z M95,151.2c0-2,0-4,0-6c0.1-1,0.3-2,0.4-3c0.5-5.3,5.5-8.8,10.5-7.3c2.5,0.8,4.6,0.1,6-2.6
				c1-2.1,2.3-4,3.5-6c1.4-2.3,1.2-4.1-0.8-5.9c-3.9-3.6-3.6-9.6,0.7-12.8c3.3-2.5,6.9-4.6,10.8-6.2c4.9-2.1,10.1,0.6,11.4,5.7
				c0.7,2.8,2.2,3.8,5.1,3.7c2.2-0.1,4.4-0.1,6.6,0c2.9,0.1,4.4-0.9,5.1-3.7c1.3-5.1,6.5-7.8,11.4-5.7c3.9,1.6,7.5,3.7,10.8,6.2
				c4.3,3.2,4.6,9.1,0.7,12.8c-1.9,1.8-2.1,3.6-0.8,5.8c1.3,2.1,2.5,4.3,3.7,6.4c1.2,2.3,3,3,5.5,2.2c5.3-1.6,10.3,1.8,10.8,7.3
				c0.4,4,0.4,8,0,12c-0.5,5.2-5.6,8.8-10.5,7.2c-2.8-0.9-4.8,0.1-6,2.6c-1,2-2.1,3.9-3.3,5.8c-1.6,2.5-1.4,4.2,0.8,6.2
				c3.5,3.3,3.6,8.9-0.1,12.1c-3.7,3.1-7.9,5.6-12.5,7.2c-4.3,1.5-9-1.2-10.2-5.6c-0.1-0.4-0.2-0.7-0.3-1.1c-0.5-1.9-2-3.1-4-3.1
				c-2.9,0-5.8,0-8.6,0c-2.1,0-3.5,1.3-4.1,3.5c-0.9,3.6-3.1,5.8-6.8,6.5c-1.6,0.3-3.2,0.1-4.7-0.6c-3.9-1.6-7.5-3.7-10.8-6.2
				c-4.3-3.2-4.6-9.2-0.7-12.8c1.9-1.8,2.2-3.6,0.8-5.8c-1.3-2.1-2.5-4.3-3.7-6.4c-1.3-2.3-2.9-3-5.5-2.3
				c-5.4,1.6-10.3-1.8-10.9-7.4C95.3,153.1,95.1,152.1,95,151.2z"/>
		</g>
		<g>
			<path class="st6" d="M95,145.2c0.1-1,0.3-2,0.4-3c0.5-5.3,5.5-8.8,10.5-7.3c2.5,0.8,4.6,0.1,6-2.6c1-2.1,2.3-4,3.5-6
				c1.4-2.3,1.2-4.1-0.8-5.9c-3.9-3.6-3.6-9.6,0.7-12.8c3.3-2.5,6.9-4.6,10.8-6.2c4.9-2.1,10.1,0.6,11.4,5.7
				c0.7,2.8,2.2,3.8,5.1,3.7c2.2-0.1,4.4-0.1,6.6,0c2.9,0.1,4.4-0.9,5.1-3.7c1.3-5.1,6.5-7.8,11.4-5.7c3.9,1.6,7.5,3.7,10.8,6.2
				c4.3,3.2,4.6,9.1,0.7,12.8c-1.9,1.8-2.1,3.6-0.8,5.8c1.3,2.1,2.5,4.3,3.7,6.4c1.2,2.3,3,3,5.5,2.2c5.3-1.6,10.3,1.8,10.8,7.3
				c0.4,4,0.4,8,0,12c-0.5,5.2-5.6,8.8-10.5,7.2c-2.8-0.9-4.8,0.1-6,2.6c-1,2-2.1,3.9-3.3,5.8c-1.6,2.5-1.4,4.2,0.8,6.2
				c3.5,3.3,3.6,8.9-0.1,12.1c-3.7,3.1-7.9,5.6-12.5,7.2c-4.3,1.5-9-1.2-10.2-5.6c-0.1-0.4-0.2-0.7-0.3-1.1c-0.5-1.9-2-3.1-4-3.1
				c-2.9,0-5.8,0-8.6,0c-2.1,0-3.5,1.3-4.1,3.5c-0.9,3.6-3.1,5.8-6.8,6.5c-1.6,0.3-3.2,0.1-4.7-0.6c-3.9-1.6-7.5-3.7-10.8-6.2
				c-4.3-3.2-4.6-9.2-0.7-12.8c1.9-1.8,2.2-3.6,0.8-5.8c-1.3-2.1-2.5-4.3-3.7-6.4c-1.3-2.3-2.9-3-5.5-2.3
				c-5.4,1.6-10.3-1.8-10.9-7.4c-0.1-0.9-0.2-1.9-0.4-2.8C95,149.2,95,147.2,95,145.2z"/>
			<path class="st6" d="M124.7,148.2c0-11.6,9.5-21.2,21.2-21.2c11.6,0,21.3,9.7,21.2,21.3c-0.1,11.7-9.7,21.2-21.2,21.1
				C134.2,169.3,124.7,159.8,124.7,148.2z"/>
		</g>
	</g>
</g>
</svg>
