<?xml version="1.0" encoding="utf-8"?>
<!-- Generator: Adobe Illustrator 24.2.3, SVG Export Plug-In . SVG Version: 6.00 Build 0)  -->
<svg version="1.1" id="Capa_1" xmlns="http://www.w3.org/2000/svg" xmlns:xlink="http://www.w3.org/1999/xlink" x="0px" y="0px"
	 viewBox="0 0 200 200" style="enable-background:new 0 0 200 200;" xml:space="preserve">
<style type="text/css">
	.st0{fill:#F4A300;}
	.st1{fill:#FCBB00;}
</style>
<g>
	<g>
		<g id="XMLID_2_">
			<g>
				<path class="st0" d="M198,160.5c0,2,0,4.1,0,6.1c-0.1,0.4-0.3,0.8-0.4,1.3c-1.1,6.5-3.9,12.1-8.7,16.6c-5.9,5.6-13,7.9-21.1,7.9
					c-22.6,0-45.2,0-67.8,0V7.7c10.4-0.1,20,5.5,25.5,15.6c21.1,38.7,42.2,77.5,63.2,116.2C192.4,146.2,196.7,152.7,198,160.5z"/>
				<path class="st1" d="M100,7.7v184.7c-22.6,0-45.2,0-67.8,0c-0.8,0-1.7,0-2.5-0.1c-11.3-0.7-19.6-6-24.6-16.1
					c-1.5-3.1-2.1-6.6-3.1-9.9c0-1.9,0-3.8,0-5.7c1.4-4,2.4-8.2,4.4-11.9c22.7-42.1,45.6-84,68.5-126c2.8-5.2,6.8-9.2,12.2-11.8
					C91.3,8.7,95.7,7.7,100,7.7z"/>
			</g>
			<g>
			</g>
		</g>
	</g>
	<g>
		<g id="XMLID_1_">
			<g>
				<path d="M88.9,139c5.2-5.8,12.9-7.1,19.2-4.1c5.7,2.7,9,7.4,10,13.7c1,5.9-0.5,11.3-4.4,15.9c-5.2,6.1-13.5,7.5-20,3.9
					c-6.5-3.5-9.5-9.3-9.7-16.6C84.2,146.9,85.6,142.6,88.9,139z"/>
				<path d="M112.4,52.2c3.3,1.6,4.2,3.3,4,7.1c-0.4,6.9-0.6,13.8-1,20.7c-0.4,8.8-0.8,17.6-1.2,26.4c-0.2,4.1-0.4,8.2-0.6,12.4
					c-0.1,1.1-0.1,2.2-0.4,3.2c-0.5,2.3-2.7,4-5,4c-4.6,0-9.2-0.1-13.8,0c-2.5,0-5.4-2.4-5.6-5.3c-0.3-7.5-0.7-15-1-22.6
					c-0.5-11.7-1.1-23.4-1.6-35c-0.1-1.7-0.2-3.4-0.2-5.1c0-2.9,1.3-4.9,4-5.9C97.5,52.2,105,52.2,112.4,52.2z"/>
			</g>
			<g>
			</g>
		</g>
	</g>
</g>
</svg>
