<?xml version="1.0" encoding="utf-8"?>
<!-- Generator: Adobe Illustrator 23.0.4, SVG Export Plug-In . SVG Version: 6.00 Build 0)  -->
<svg version="1.1" id="Capa_1" xmlns="http://www.w3.org/2000/svg" xmlns:xlink="http://www.w3.org/1999/xlink" x="0px" y="0px"
	 viewBox="0 0 200 200" style="enable-background:new 0 0 200 200;" xml:space="preserve">
<style type="text/css">
	.st0{fill:url(#SVGID_1_);}
	.st1{clip-path:url(#SVGID_3_);}
	.st2{fill:#FFFFFF;}
	.st3{fill:#3366CC;}
	.st4{clip-path:url(#SVGID_5_);}
</style>
<linearGradient id="SVGID_1_" gradientUnits="userSpaceOnUse" x1="11.2995" y1="153.8781" x2="190.2465" y2="153.8781">
	<stop  offset="0" style="stop-color:#FFFFFF"/>
	<stop  offset="1" style="stop-color:#1CBEBE"/>
</linearGradient>
<polygon class="st0" points="131.7,112.2 177.2,128.2 184.4,150.1 189.8,185.5 190.2,192.2 179.3,196.4 22.7,196 12.6,194.7 
	11.3,185 20.1,132.4 26.9,124.4 72.4,111.4 100.6,185.5 "/>
<g>
	<defs>
		<rect id="SVGID_2_" x="7.2" y="-36" width="199.8" height="278"/>
	</defs>
	<clipPath id="SVGID_3_">
		<use xlink:href="#SVGID_2_"  style="overflow:visible;"/>
	</clipPath>
	<g id="XMLID_2_" class="st1">
		<g>
			<path class="st2" d="M145.1,142.8c5.3,0,9.7,4.3,9.7,9.7s-4.4,9.7-9.7,9.7c-5.3,0-9.7-4.4-9.7-9.7S139.8,142.8,145.1,142.8z"/>
			<path class="st3" d="M78.2,119.8c0.3,0.8,0.7,1.6,1,2.4c0,0.1,0.1,0.1,0.1,0.2c0,0.1,0.1,0.2,0.1,0.2c0.1,0.2,0.2,0.4,0.2,0.6
				c0.1,0.2,0.2,0.4,0.2,0.6c0.1,0.1,0.1,0.2,0.2,0.4c0.2,0.5,0.4,0.9,0.6,1.5c0,0.1,0.1,0.2,0.1,0.2c0.1,0.3,0.2,0.6,0.3,0.8
				c0,0.1,0.1,0.2,0.1,0.3c0.1,0.3,0.2,0.6,0.3,0.9c0,0.1,0.1,0.2,0.1,0.2c0.4,1,0.8,2.1,1.3,3.3c0,0,0,0.1,0,0.1
				c0.2,0.4,0.3,0.7,0.4,1.1c0,0.1,0.1,0.1,0.1,0.2c0.2,0.4,0.3,0.8,0.4,1.2c0,0,0,0,0,0c0.2,0.4,0.3,0.9,0.5,1.3l3-1.3c0,0,0,0,0,0
				l7.2-3.1L77.4,118c0.1,0.2,0.2,0.4,0.2,0.6C77.8,119,78,119.4,78.2,119.8C78.2,119.8,78.2,119.8,78.2,119.8z M192.9,188
				c0.4,2.6-0.3,5.4-2,7.4c-1.7,2.1-7,3.1-7,3.1H17.4c-2.7,0-5.2-1.2-7-3.2c-1.7-2.1-2.5-4.8-2-7.4l3-17.8c0.3-1.7,1.9-2.8,3.5-2.5
				c1.7,0.3,2.8,1.9,2.5,3.5l-3,17.8c-0.2,1,0.2,2,0.9,2.7c0.6,0.5,1.3,0.8,2.1,0.8h83.1h83.2c0.8,0,1.6-0.3,2.1-0.8
				c0.8-0.7,1.1-1.7,0.9-2.7l-9.2-54c-0.6-3.5-3.1-6.3-6.5-7.4l-23-6.9v16.2c7.2,1.4,12.7,7.8,12.7,15.5c0,9.1-7.7,16.4-16.9,15.7
				c-7.9-0.6-14.3-7.1-14.6-15c-0.4-8,5.2-14.8,12.8-16.2v-17.9l-10.5-3.2c-0.9,2-2.9,6.4-6.6,15.7c-3.8,9.4-8.5,21.6-13,33.3
				c0,0.1-0.1,0.2-0.1,0.3c-3,7.9-5.9,15.6-8.4,22.2c-0.4,1.2-1.6,2-2.9,2c-0.3,0-0.7-0.1-1-0.1c-0.9-0.3-1.6-1-1.9-1.9
				c-2.5-6.6-5.4-14.3-8.4-22.1c-0.1-0.1-0.1-0.2-0.1-0.3c-4.5-11.8-9.2-23.9-13-33.3c-3.8-9.4-5.7-13.7-6.6-15.7l-10.5,3.2v7.8
				c5.1,0.9,9.4,4.2,11.4,8.9c0.7,1.5,1.1,3.2,1.2,4.8L74,169c0.2,2.1-0.6,4.3-2,5.9c-1.5,1.6-3.6,2.5-5.7,2.5h-3.8
				c-1.9,0-3.4-1.7-3-3.7c0.3-1.4,1.6-2.4,3.1-2.4h3.9c0.5,0,0.9-0.2,1.2-0.5c0.3-0.3,0.5-0.8,0.4-1.2L65.8,141
				c-0.1-1-0.3-2-0.7-2.9c-1.4-3.3-4.7-5.5-8.5-5.5c0,0-0.1,0-0.1,0l-0.5,0c-3.9,0-7.3,2.4-8.6,5.9c-0.3,0.8-0.5,1.6-0.5,2.5
				l-2.2,28.5c0,0.4,0.1,0.9,0.4,1.2c0.3,0.3,0.8,0.5,1.2,0.5h3.6c1.8,0,3.3,1.6,3,3.4c-0.2,1.6-1.6,2.7-3.2,2.7h-3.7
				c-2.2,0-4.2-0.9-5.7-2.5c-1.5-1.6-2.2-3.7-2-5.9l2.2-28.5c0.1-1.4,0.4-2.8,0.9-4.1c1.8-5,6.3-8.6,11.6-9.6v-5.9l-22.8,6.9
				c-3.4,1-5.9,3.9-6.5,7.4L20,157.1c-0.3,1.7-1.8,2.8-3.5,2.5c-1.6-0.3-2.8-1.9-2.5-3.5l3.7-21.9c1-5.8,5.1-10.5,10.7-12.2
				l24.7-7.5c1-11.2,8.6-20.7,19.1-24.1c-0.4-0.5-0.8-0.9-1.2-1.4c0.5-0.1,1-0.2,1.6-0.2C64.7,79.5,59.8,66.4,59.8,52
				c0-28.1,18.5-50.9,41.3-50.9s41.3,22.9,41.3,50.9c0,14.5-4.9,27.6-12.9,36.9c0.1,0.1,0.3,0.1,0.4,0.2c-0.4,0.4-0.7,0.8-1.1,1.3
				c4.6,1.5,8.8,4.1,12.1,7.7c4.1,4.5,6.6,10.3,7.1,16.3l24.8,7.5c5.6,1.7,9.8,6.4,10.8,12.2L192.9,188z M154.8,152.4
				c0-5.3-4.4-9.7-9.7-9.7c-5.3,0-9.7,4.3-9.7,9.7s4.4,9.7,9.7,9.7C150.4,162.1,154.8,157.8,154.8,152.4z M131.2,109.3l10.6,3.2
				c-1.8-8.8-8.9-15.8-18-17.1v8.9c0,1.9,0.9,3.9,2.1,5.2C127.6,108.8,129.4,108.7,131.2,109.3L131.2,109.3L131.2,109.3L131.2,109.3
				z M136.8,52c0-25-16-45.3-35.7-45.3S65.4,27,65.4,52s16,45.3,35.7,45.3S136.8,77,136.8,52z M123.7,118.6c0.1-0.2,0.2-0.4,0.2-0.6
				l-17.2,12.8l7.2,3.1c0,0,0,0,0,0l3,1.3c0.2-0.4,0.3-0.9,0.5-1.3c0,0,0,0,0,0c0.2-0.4,0.3-0.8,0.4-1.2c0-0.1,0.1-0.1,0.1-0.2
				c0.2-0.4,0.3-0.7,0.4-1.1c0,0,0-0.1,0.1-0.1c0.4-1.1,0.9-2.2,1.3-3.2c0-0.1,0.1-0.2,0.1-0.2c0.1-0.3,0.2-0.6,0.3-0.9
				c0.1-0.1,0.1-0.2,0.1-0.3c0.1-0.3,0.2-0.6,0.3-0.8c0-0.1,0.1-0.2,0.1-0.3c0.2-0.5,0.4-1.1,0.7-1.6c0-0.1,0.1-0.1,0.1-0.2
				c0.1-0.2,0.2-0.4,0.2-0.6c0.1-0.2,0.1-0.3,0.2-0.5c0-0.1,0.1-0.2,0.1-0.2c0-0.1,0.1-0.1,0.1-0.2c0.2-0.4,0.3-0.7,0.4-1.1
				c0,0,0-0.1,0-0.1c0.2-0.4,0.3-0.8,0.5-1.2c0-0.1,0.1-0.1,0.1-0.2C123.4,119.3,123.6,119,123.7,118.6z M100.8,127.8l20-14.9
				c-2-2.5-3.1-5.8-3.1-8.6v-4.9c-4.7,2.5-10.3,4.2-16.9,4.2c-6.6,0-12.2-1.7-16.9-4.2v4.9c0,2.9-1.1,6.1-3.1,8.6L100.8,127.8z
				 M114.7,140.9l-1.1-0.5l-4.6,5.4l1.2,6.8c0.6-1.6,1.2-3.1,1.8-4.7C113,145.4,113.9,143.1,114.7,140.9z M104.3,142l3.4-4l-7-3
				l-7,3l3.4,4H104.3z M106,163.7l-2.8-15.6h-4.9l-2.8,15.6c1.9,5.1,3.7,9.7,5.1,13.3c0.1,0.2,0.2,0.3,0.3,0.5
				C102.2,173.8,104,169,106,163.7z M92.4,145.8l-4.7-5.4l-1.1,0.5c0.9,2.2,1.8,4.6,2.7,7c0.6,1.6,1.2,3.1,1.8,4.7L92.4,145.8z
				 M77.8,104.2v-8.9c-9.1,1.3-16.2,8.3-18,17.1l10.5-3.2c0.1,0,0.2,0,0.2-0.1c1.7-0.5,3.5-0.4,5.1,0.3
				C77,108.1,77.8,106.1,77.8,104.2z"/>
		</g>
	</g>
</g>
<g>
	<g>
		<defs>
			<rect id="SVGID_4_" x="7" y="-222" width="192.3" height="223"/>
		</defs>
		<clipPath id="SVGID_5_">
			<use xlink:href="#SVGID_4_"  style="overflow:visible;"/>
		</clipPath>
		<g id="XMLID_3_" class="st4">
			<g>
				<path class="st3" d="M186,208.9c0.4,2.5-0.3,5-1.9,7c-1.6,1.9-6.6,2.9-6.6,2.9H20.7c-2.5,0-4.9-1.1-6.6-3.1
					c-1.6-1.9-2.3-4.5-1.9-7l2.9-16.8c0.3-1.6,1.8-2.6,3.3-2.4c1.6,0.3,2.6,1.8,2.4,3.3l-2.9,16.8c-0.2,1,0.1,1.9,0.9,2.6
					c0.5,0.5,1.3,0.8,2,0.8h78.3h78.4c0.7,0,1.5-0.2,2-0.8c0.7-0.7,1-1.6,0.9-2.6l-8.7-50.8c-0.6-3.3-2.9-6-6.1-6.9l-21.6-6.5v15.3
					c6.8,1.4,12,7.4,12,14.6c0,8.6-7.3,15.4-15.9,14.8c-7.5-0.5-13.4-6.7-13.8-14.1c-0.3-7.5,4.9-13.9,12-15.3v-16.9l-9.9-3
					c-0.9,1.9-2.7,6-6.2,14.8c-3.6,8.9-8,20.3-12.2,31.4c0,0.1-0.1,0.2-0.1,0.3c-2.8,7.4-5.6,14.6-7.9,20.9
					c-0.4,1.1-1.5,1.9-2.7,1.9c-0.3,0-0.6,0-0.9-0.1c-0.8-0.3-1.5-1-1.8-1.8c-2.3-6.2-5.1-13.5-7.9-20.8c0-0.1-0.1-0.2-0.1-0.3
					c-4.2-11.1-8.7-22.5-12.2-31.4c-3.5-8.8-5.3-12.9-6.2-14.8l-9.9,3v7.4c4.8,0.8,8.8,3.9,10.7,8.4c0.6,1.4,1,3,1.1,4.6l2.1,26.9
					c0.2,2-0.5,4-1.9,5.5c-1.4,1.5-3.3,2.4-5.4,2.4H63c-1.8,0-3.2-1.6-2.8-3.5c0.3-1.3,1.5-2.2,2.9-2.2h3.6c0.4,0,0.8-0.2,1.1-0.5
					c0.3-0.3,0.4-0.8,0.4-1.2l-2.1-26.8c-0.1-0.9-0.3-1.9-0.7-2.8c-1.3-3.1-4.5-5.1-8-5.1c0,0,0,0-0.1,0l-0.5,0
					c-3.7,0-6.9,2.2-8.1,5.5c-0.3,0.8-0.5,1.6-0.5,2.4l-2.1,26.8c0,0.4,0.1,0.9,0.4,1.2c0.3,0.3,0.7,0.5,1.1,0.5h3.4
					c1.7,0,3.1,1.5,2.9,3.2c-0.2,1.5-1.5,2.5-3,2.5h-3.5c-2,0-4-0.9-5.4-2.4c-1.4-1.5-2.1-3.5-1.9-5.5l2.1-26.9
					c0.1-1.3,0.4-2.6,0.8-3.9c1.7-4.7,6-8.1,10.9-9v-5.6l-21.5,6.5c-3.2,1-5.5,3.6-6.1,6.9l-3.5,20.6c-0.3,1.6-1.7,2.6-3.3,2.4
					c-1.5-0.3-2.6-1.8-2.3-3.3l3.5-20.6c0.9-5.5,4.8-9.9,10.1-11.5l23.2-7.1c0.9-10.6,8.1-19.5,18-22.7c-0.4-0.4-0.8-0.9-1.2-1.3
					c0.5-0.1,1-0.1,1.5-0.2c-7.4-8.7-12-21-12-34.6c0-26.5,17.5-48,38.9-48s38.9,21.5,38.9,48c0,13.7-4.7,26-12.1,34.7
					c0.1,0,0.3,0.1,0.4,0.1c-0.3,0.4-0.7,0.8-1,1.2c4.3,1.4,8.3,3.9,11.4,7.3c3.9,4.3,6.2,9.7,6.7,15.4l23.4,7.1
					c5.3,1.6,9.2,6,10.1,11.5L186,208.9z M150.1,175.4c0-5-4.1-9.1-9.1-9.1c-5,0-9.1,4.1-9.1,9.1c0,5,4.1,9.1,9.1,9.1
					C146,184.6,150.1,180.5,150.1,175.4z M127.9,134.8l9.9,3c-1.6-8.3-8.3-14.8-16.9-16.1v8.4c0,1.8,0.8,3.7,2,4.9
					C124.5,134.3,126.2,134.3,127.9,134.8L127.9,134.8C127.9,134.8,127.9,134.8,127.9,134.8z M133.1,80.8
					c0-23.5-15.1-42.6-33.6-42.6S65.9,57.3,65.9,80.8s15.1,42.7,33.6,42.7S133.1,104.3,133.1,80.8z M120.8,143.6
					c0.1-0.2,0.2-0.4,0.2-0.5l-16.2,12.1l6.8,2.9c0,0,0,0,0,0l2.8,1.2c0.2-0.4,0.3-0.8,0.5-1.2c0,0,0,0,0,0c0.1-0.4,0.3-0.7,0.4-1.1
					c0-0.1,0.1-0.1,0.1-0.2c0.1-0.4,0.3-0.7,0.4-1c0,0,0-0.1,0-0.1c0.4-1.1,0.8-2.1,1.2-3c0-0.1,0.1-0.2,0.1-0.2
					c0.1-0.3,0.2-0.6,0.3-0.8c0-0.1,0.1-0.2,0.1-0.3c0.1-0.3,0.2-0.5,0.3-0.8c0-0.1,0.1-0.2,0.1-0.2c0.2-0.5,0.4-1,0.6-1.5
					c0-0.1,0.1-0.1,0.1-0.2c0.1-0.2,0.2-0.4,0.2-0.6c0.1-0.2,0.1-0.3,0.2-0.5c0-0.1,0.1-0.2,0.1-0.2c0-0.1,0.1-0.1,0.1-0.2
					c0.2-0.3,0.3-0.7,0.4-1c0,0,0-0.1,0-0.1c0.2-0.4,0.3-0.8,0.5-1.1c0-0.1,0-0.1,0.1-0.1C120.5,144.3,120.7,143.9,120.8,143.6z
					 M99.3,152.2l18.8-14.1c-1.9-2.4-2.9-5.4-2.9-8.1v-4.6c-4.4,2.4-9.7,4-15.9,4c-6.2,0-11.5-1.6-15.9-4v4.6c0,2.7-1,5.8-2.9,8.1
					L99.3,152.2z M112.4,164.6l-1.1-0.4l-4.4,5.1l1.2,6.4c0.6-1.5,1.1-2.9,1.7-4.4C110.7,168.9,111.6,166.7,112.4,164.6z
					 M102.5,165.6l3.2-3.7l-6.6-2.8l-6.6,2.8l3.2,3.7H102.5z M104.1,186.1l-2.7-14.7h-4.7l-2.7,14.7c1.8,4.8,3.5,9.1,4.8,12.6
					c0.1,0.1,0.2,0.3,0.3,0.5C100.5,195.6,102.2,191.1,104.1,186.1z M86.6,158l6.8-2.9L77.2,143c0.1,0.2,0.2,0.4,0.2,0.5
					c0.2,0.4,0.3,0.7,0.5,1.1v0c0.3,0.7,0.6,1.5,0.9,2.3c0,0.1,0,0.1,0.1,0.2c0,0.1,0.1,0.1,0.1,0.2c0.1,0.2,0.2,0.4,0.2,0.5
					c0.1,0.2,0.1,0.3,0.2,0.5c0,0.1,0.1,0.2,0.2,0.4c0.2,0.4,0.4,0.9,0.6,1.4c0,0.1,0.1,0.1,0.1,0.2c0.1,0.3,0.2,0.5,0.3,0.8
					c0,0.1,0.1,0.2,0.1,0.3c0.1,0.3,0.2,0.6,0.3,0.8c0,0.1,0.1,0.1,0.1,0.2c0.4,1,0.8,2,1.2,3.1c0,0,0,0.1,0,0.1
					c0.1,0.3,0.3,0.7,0.4,1c0,0.1,0,0.1,0.1,0.2c0.1,0.4,0.3,0.7,0.4,1.1c0,0,0,0,0,0c0.2,0.4,0.3,0.8,0.5,1.2L86.6,158
					C86.6,158,86.6,158,86.6,158z M91.3,169.2l-4.4-5.1l-1.1,0.5c0.8,2.1,1.7,4.3,2.6,6.6c0.6,1.5,1.2,2.9,1.7,4.4L91.3,169.2z
					 M77.6,130v-8.4c-8.6,1.3-15.3,7.8-16.9,16.1l9.9-3c0.1,0,0.1,0,0.2-0.1c1.6-0.4,3.3-0.3,4.8,0.2
					C76.8,133.7,77.6,131.8,77.6,130z"/>
				<path class="st2" d="M141,166.3c5,0,9.1,4.1,9.1,9.1c0,5-4.1,9.1-9.1,9.1c-5,0-9.1-4.1-9.1-9.1
					C131.9,170.4,135.9,166.3,141,166.3z"/>
			</g>
		</g>
	</g>
</g>
<g id="Capa_3">
</g>
</svg>
