<?xml version="1.0" encoding="utf-8"?>
<!-- Generator: Adobe Illustrator 25.4.1, SVG Export Plug-In . SVG Version: 6.00 Build 0)  -->
<svg version="1.1" id="Layer_1" xmlns="http://www.w3.org/2000/svg" xmlns:xlink="http://www.w3.org/1999/xlink" x="0px" y="0px"
	 viewBox="0 0 512 476" style="enable-background:new 0 0 512 476;" xml:space="preserve">
<style type="text/css">
	.st0{fill:#D7DCE2;}
	.st1{fill:#C5CBD3;}
	.st2{fill:#A09DAE;}
	.st3{fill:url(#SVGID_1_);}
	.st4{fill:url(#SVGID_00000028291514813157783820000015450482655155485862_);}
	.st5{fill:#433F50;}
	.st6{fill:#A7724E;}
	.st7{fill:#694A34;}
	.st8{fill:#DBBB98;}
	.st9{fill:#FEE09E;}
	.st10{fill:#694934;}
	.st11{fill:#3466CB;}
	.st12{fill:#DFECFE;}
	.st13{fill:#3467CB;}
</style>
<g>
	<g>
		<g id="XMLID_00000003078551320808548620000010120033333076240542_">
			<g>
				<path class="st0" d="M1066.5-220.8c16.4,15.9,23.7,35.5,21.7,58c-2.3,27.2-19.3,49.7-44.7,59.9c-0.5,0.2-1.1,0.2-1.7,0.2
					c-0.1-13.2-0.2-26.4-0.2-39.6c0.2-1.5,1.3-2.5,2.3-3.6c8.1-9.6,10.7-20.6,7.5-32.8c-0.7-2.8-1.9-5.7-3.5-8.4
					c-0.4-0.8-0.9-1.5-1.4-2.3c-0.3-0.4-0.5-0.8-0.8-1.1c-0.5-0.7-1.1-1.5-1.7-2.2s-1.3-1.4-1.9-2.1c-6.7-6.5-16.3-10.9-27.9-10
					c-1.2,0.1-2.4,0.2-3.6,0.5c-0.6,0.1-1.2,0.2-1.7,0.4c-0.6,0.1-1.1,0.3-1.7,0.4c-0.6,0.2-1.1,0.3-1.6,0.5
					c-0.8,0.3-1.6,0.6-2.4,0.9c-1,0.4-2,0.9-3,1.4c-0.5,0.3-1,0.5-1.4,0.8c-0.7,0.4-1.4,0.9-2.1,1.4c-0.2,0.1-0.4,0.3-0.7,0.5
					c-0.4,0.3-0.9,0.7-1.3,1c-0.8,0.7-1.7,1.4-2.4,2.2c-8,7.8-12.1,19.3-10.3,30.8c1.3,8.3,5.3,15,11,20.9v0
					c-0.1,13.5-0.2,27-0.3,40.5c-14.2-4.3-25-13.3-33.4-25.1c-18.9-26.7-18.2-61,2.3-86.3C988.5-247.6,1036.7-249.6,1066.5-220.8z"
					/>
				<path class="st1" d="M1051.4-178.6c3.1,12.2,0.6,23.2-7.5,32.8c-0.9,1.1-2,2-2.3,3.6c-2.3,0.2-3.7,1.9-5.5,3
					c-0.2,0.2-0.5,0.3-0.8,0.5c-0.4,0.2-0.8,0.4-1.1,0.6c-0.8,0.4-1.5,0.8-2.3,1.1c-0.8,0.3-1.5,0.7-2.3,1c-0.8,0.3-1.5,0.6-2.3,0.8
					c-0.4,0.1-0.8,0.2-1.1,0.3c-1.1,0.3-2.3,0.6-3.4,0.8c-5,0.9-9.9,0.6-14.9-0.8c-0.5-0.2-1-0.3-1.5-0.5c-3-1-6.1-2.5-9.2-4.4
					c-1.5-1-3.1-2.1-4.6-3.2c-5.7-5.9-9.7-12.6-11-20.9c-1.8-11.5,2.3-22.9,10.3-30.8c0.8-0.8,1.6-1.5,2.4-2.2
					c0.4-0.3,0.9-0.7,1.3-1c0.2-0.2,0.4-0.3,0.7-0.5c0.7-0.5,1.4-0.9,2.1-1.4c0.5-0.3,1-0.5,1.4-0.8c1-0.5,2-1,3-1.4
					c0.8-0.3,1.6-0.6,2.4-0.9c0.5-0.2,1.1-0.4,1.6-0.5c0.5-0.2,1.1-0.3,1.7-0.4c0.6-0.1,1.2-0.2,1.7-0.4c1.2-0.2,2.4-0.4,3.6-0.5
					c11.7-0.9,21.3,3.5,27.9,10c0.7,0.7,1.3,1.4,1.9,2.1c0.6,0.7,1.2,1.4,1.7,2.2c0.3,0.4,0.6,0.8,0.8,1.1c0.5,0.8,1,1.5,1.4,2.3
					C1049.5-184.3,1050.6-181.4,1051.4-178.6z"/>
				<path class="st2" d="M1046.4-189.3c0.5,0.8,1,1.5,1.4,2.3C1047.4-187.8,1046.9-188.6,1046.4-189.3z"/>
				<path class="st2" d="M1043.9-192.6c0.6,0.7,1.2,1.4,1.7,2.2C1045.1-191.2,1044.5-191.9,1043.9-192.6z"/>
				<path class="st2" d="M1042-194.6c0.7,0.7,1.3,1.4,1.9,2.1C1043.3-193.3,1042.6-194,1042-194.6z"/>
				<linearGradient id="SVGID_1_" gradientUnits="userSpaceOnUse" x1="661.6497" y1="-84.2557" x2="1041.7877" y2="-84.2557">
					<stop  offset="0" style="stop-color:#006DF0"/>
					<stop  offset="1" style="stop-color:#25D8CF"/>
				</linearGradient>
				<path class="st3" d="M1041.5-142.2c0.1,13.2,0.2,26.4,0.2,39.6c-0.8,11.5-0.2,23-0.3,34.5c-0.1,17.2-2.1,34.2-8.3,50.3
					c-20.4,52.8-58.3,85.3-114.3,93.7c-7.2,1.1-14.4,1.6-21.5,1.6c-67,0-125.1-47-139.2-114.6c-3-14.3-3.1-28.8-2.8-43.4
					c0.1-3.5-1-4.8-4.4-5.7c-48-12.7-82.7-52.8-88.3-102.1c-1.7-14.9-0.7-29.9-0.7-44.8c0-5.8,4.1-9.2,8.7-11.9
					c10.3-1.4,20.5-1.4,30.8,0c6.7,3.6,9.1,9.1,9,16.7c-0.2,11.8-0.7,23.6,0.5,35.3c3.5,33.5,33.2,61.2,66.8,61.9
					c36.1,0.7,66.7-24.5,71.6-59.1c1.7-12,0.9-24.1,0.7-36.2c-0.1-8,1.8-14.4,8.9-18.6c10.3-1.1,20.7-1.2,31,0
					c7.2,3.9,9.5,10.1,9.2,18c-0.5,14.3,0.6,28.7-1.4,43.1c-6.5,47.4-42.8,87.4-89.6,98.4c-3.2,0.8-4.1,1.9-4.1,5.1
					c0,15.7-0.2,31.3,5.3,46.4c14.8,41.4,54.5,66.6,99.4,62.6c40.9-3.6,76.1-37.1,82.8-78.9c2.1-13.3,0.8-26.7,1.1-40.1
					c0.1-4-0.1-8-0.2-12.1c0.1-13.5,0.2-27,0.3-40.5c1.5,1.2,3.1,2.3,4.6,3.2c3.1,1.9,6.1,3.4,9.2,4.4c0.5,0.2,1,0.3,1.5,0.5
					c5,1.4,9.9,1.7,14.9,0.8c1.1-0.2,2.3-0.5,3.4-0.8c0.4-0.1,0.8-0.2,1.1-0.3c0.8-0.2,1.5-0.5,2.3-0.8c0.8-0.3,1.5-0.6,2.3-1
					c0.8-0.4,1.5-0.7,2.3-1.1c0.4-0.2,0.8-0.4,1.1-0.6c0.3-0.2,0.5-0.3,0.8-0.5C1037.8-140.4,1039.3-142,1041.5-142.2z"/>
				<path class="st2" d="M1008.7-203.9c0.6-0.1,1.2-0.2,1.7-0.4C1009.9-204.1,1009.3-204,1008.7-203.9z"/>
				<path class="st2" d="M1005.4-202.9c0.5-0.2,1.1-0.4,1.6-0.5C1006.5-203.3,1006-203.1,1005.4-202.9z"/>
				<path class="st2" d="M1000-200.6c1-0.5,2-1,3-1.4C1002-201.6,1001-201.1,1000-200.6z"/>
				<path class="st2" d="M998.6-199.8c0.5-0.3,1-0.6,1.4-0.8C999.5-200.3,999-200,998.6-199.8z"/>
				<path class="st2" d="M996.5-198.4c0.7-0.5,1.4-0.9,2.1-1.4C997.8-199.3,997.2-198.9,996.5-198.4z"/>
				<path class="st2" d="M994.5-196.9c0.4-0.3,0.9-0.7,1.3-1C995.4-197.6,994.9-197.3,994.5-196.9z"/>
				
					<linearGradient id="SVGID_00000142890397480702874310000008653561289893902745_" gradientUnits="userSpaceOnUse" x1="992.6977" y1="-141.4413" x2="997.2877" y2="-141.4413">
					<stop  offset="0" style="stop-color:#006DF0"/>
					<stop  offset="1" style="stop-color:#25D8CF"/>
				</linearGradient>
				<path style="fill:url(#SVGID_00000142890397480702874310000008653561289893902745_);" d="M992.7-143.1c1.5,1.2,3.1,2.3,4.6,3.2
					C995.8-140.8,994.2-141.9,992.7-143.1L992.7-143.1z"/>
				<path class="st2" d="M992.1-194.8c0.8-0.8,1.6-1.5,2.4-2.2C993.7-196.2,992.9-195.5,992.1-194.8z"/>
				<path class="st1" d="M889.9-271.9c0,8.9,0,17.9,0.1,26.8c-10.3-1.2-20.7-1.1-31,0c0-8.9,0.1-17.8,0.1-26.7
					C869.3-271.8,879.6-271.9,889.9-271.9z"/>
				<path class="st0" d="M889.9-271.9c-10.3,0.1-20.5,0.1-30.8,0.2c0.1-11.9-3.4-22.7-10.7-32.2c-4-5.3-9.6-8.8-14.6-13
					c2.2-3.6,2.9-7.6,2.8-11.8c-0.1-6.7,0.1-13.4,0.2-20.1c13.2,4.2,24,12.1,33.1,22.2c10.9,12.2,17.3,26.5,19.7,42.6
					C890-279.9,889.7-275.9,889.9-271.9z"/>
				<path class="st5" d="M825.9-364.2c7,2.7,10.8,7.7,10.7,15.4c-0.1,6.7-0.3,13.4-0.2,20.1c0.1,4.2-0.6,8.2-2.8,11.8
					c-10.5,11.2-32.8,1.6-36.2-15.6c-2.9-14.2,5.3-27.3,19.4-30.9c0.6-0.1,1.1-0.2,1.4-0.8H825.9z"/>
				<path class="st5" d="M745.6-362.6c11.9,4.5,18.7,16.6,16.5,29.5c-2,11.6-12.5,20.5-24.6,21c-4.2,0.2-7.5-1.3-10.7-3.8
					c-3-3.4-3.9-7.4-3.9-11.9c0-6.7,0.7-13.5-0.4-20.1c0.1-7.5,3.3-13,10.3-16.2h8.6C742.4-362.8,744.2-363.2,745.6-362.6z"/>
				<path class="st0" d="M722.9-327.9c0,4.5,0.9,8.5,3.9,11.9c-16.8,9.9-24.8,24.9-25.2,44.1h-30.8c-1.2-31.6,19.9-64,49.3-75.6
					c0.8-0.3,1.7-0.4,2.5-0.6C723.6-341.4,722.9-334.6,722.9-327.9z"/>
				<path class="st1" d="M701.5-271.8c0,9,0,17.9,0,26.8c-10.3-1.4-20.5-1.4-30.8,0c0-8.9,0-17.9,0-26.8H701.5z"/>
			</g>
			<g>
			</g>
		</g>
	</g>
	<circle class="st1" cx="1016.9" cy="-169.2" r="38.6"/>
</g>
<g>
	<g id="XMLID_00000181765965602696630140000001865079920935808163_">
		<g>
			<path class="st1" d="M481,351.9c5.3,5,7.2,11.3,4.8,17.4c-2.6,6.7-7.8,10.2-14.9,11c-1.4,0.1-2.8,0-4.2,0
				c-78.9,0-157.9,0-236.8,0c-2,0-4,0.1-6.1,0.1c0-11.1-2.6-21.8-5.8-32.4c2-0.1,4-0.2,6.1-0.2c56.7,0,113.3,0,170,0
				c4,0,8.1,0.1,12.1-0.9c1.5,1.2,3.3,0.7,5,0.7c19,0,38,0,57,0.1C472.7,347.8,477.3,348.5,481,351.9z"/>
			<path class="st6" d="M422.9,117.3c0,68.5,0,137,0,205.5c0,12.1-5.5,19.9-16.8,24.2c-4,0.9-8,0.9-12.1,0.9c-56.6,0-113.3,0-170,0
				c-2,0-4,0.1-6.1,0.2c-0.9-1.8-1.8-3.5-2.7-5.3c-0.6-1.2-1.2-2.4-1.8-3.5c-0.9-1.7-1.9-3.5-2.9-5.1
				c-10.2-16.9-24.9-28.6-42.9-36.2c0-56.3,0-112.7,0-169c0-6.1-0.3-12.1,0.7-18.2v0c3.9-11.9,11.9-18.3,23.9-18.4
				c15.7-0.2,31.3,0,47,0c0,0.2,0,0.4,0.2,0.6c0,30.9,0.1,61.8,0,92.6c0,4,0.7,7.5,4.5,9.6c4,2.1,7.4,0.7,10.8-1.8
				c12.4-9.1,25-18,37.4-27.2c2.5-1.8,4-1.8,6.4,0.1c12.4,9.2,25,18,37.4,27.1c3.4,2.5,6.8,3.8,10.8,1.8c4-2,4.2-5.7,4.2-9.6
				c0-30.9,0-61.8,0-92.6c0,0,0,0,0,0s0,0,0-0.1c0-0.1,0.1-0.3,0.1-0.3c15.9,0,31.8-0.4,47.7-0.1
				C413.2,92.6,422.9,102.8,422.9,117.3z M384.9,284c7.8-4.9,8.5-8.3,2.2-14.9c-3.3-3.5-6.2-8.4-12-8.6c-1.5,0.1-2.9-0.1-4,1
				c-3.5,3.5-7.3,6.8-10.5,10.7c-3,3.7-1.5,9.1,2.9,11c3,1.2,3.3,2.9,3.4,5.7c0,4.3-0.6,8.7,0.6,13c1.1,4,3.6,6.3,7.6,6.3
				c3.9,0,6.6-2.1,7.7-6.2c1.3-4.6,0.4-9.3,0.8-13.9C383.6,286.6,383,285.1,384.9,284z M337.8,283.6c6.2-2.3,7.2-8.6,2.5-13.5
				c-2.4-2.5-4.8-4.8-7.2-7.3c-3.3-3.3-6.8-3.2-10.5-0.9c-3.7,2.3-6.5,5.8-9.4,8.9c-1.3,1.4-1.8,3.2-1.6,4.8c0,3.7,1.2,6.5,4.4,7.5
				c3.2,1,3.2,3,3.3,5.7c0.1,4.6-0.8,9.3,0.7,13.9c1.4,4,4.5,5.8,8.3,5.3c3.9-0.5,6.9-2.8,6.9-7.5c0-4.2,0.1-8.4,0-12.6
				C334.9,285.8,335.2,284.6,337.8,283.6z"/>
			<path class="st7" d="M387.1,269c6.3,6.6,5.6,10-2.2,14.9c-1.8,1.2-1.3,2.6-1.4,4.1c-0.4,4.6,0.6,9.3-0.8,13.9
				c-1.1,4.1-3.8,6.2-7.7,6.2c-3.9,0-6.5-2.3-7.6-6.3c-1.2-4.3-0.6-8.7-0.6-13c0-2.7-0.4-4.4-3.4-5.7c-4.5-1.9-5.9-7.3-2.9-11
				c3.1-3.9,6.9-7.2,10.5-10.7c1.1-1.1,2.6-0.9,4-1C380.9,260.6,383.8,265.5,387.1,269z"/>
			<path class="st8" d="M351.1,92.4c0,0-0.1,0.2-0.1,0.3l0,0.1c0,0,0,0,0,0c-37.2,0-74.3,0.1-111.5,0.1c-0.1-0.2-0.2-0.3-0.2-0.6
				c1.4-0.1,2.8-0.3,4.2-0.3c34.5,0,69,0,103.4,0C348.4,92.1,349.7,92.3,351.1,92.4z"/>
			<path class="st8" d="M351,92.8L351,92.8C351,92.8,351,92.8,351,92.8z"/>
			<path class="st9" d="M351,185.5c0,3.9-0.2,7.6-4.2,9.6c-4,2-7.4,0.7-10.8-1.8c-12.5-9.1-25-18-37.4-27.1c-2.4-1.8-4-1.9-6.4-0.1
				c-12.4,9.2-25,18.1-37.4,27.2c-3.4,2.5-6.8,3.9-10.8,1.8c-3.8-2-4.5-5.6-4.5-9.6c0.1-30.9,0-61.8,0-92.6
				c37.2,0,74.3-0.1,111.5-0.1C351,123.7,351,154.6,351,185.5z"/>
			<path class="st10" d="M340.3,270.1c4.7,4.9,3.7,11.1-2.5,13.5c-2.6,1-2.9,2.2-2.8,4.4c0.1,4.2,0,8.4,0,12.6
				c0.1,4.7-3,6.9-6.9,7.5c-3.8,0.5-6.9-1.3-8.3-5.3c-1.5-4.6-0.6-9.3-0.7-13.9c-0.1-2.6-0.1-4.7-3.3-5.7c-3.1-1-4.3-3.8-4.4-7.5
				c-0.2-1.5,0.3-3.4,1.6-4.8c3-3.1,5.7-6.6,9.4-8.9c3.7-2.3,7.2-2.4,10.5,0.9C335.5,265.3,338,267.7,340.3,270.1z"/>
			<path class="st11" d="M218,348c3.2,10.6,5.8,21.2,5.8,32.4c-1.2,43.8-29.5,72.6-59.7,82.9c-52.6,18-109.6-18.1-115.3-73.1
				c-5.4-52.4,32.6-96.1,85-98c0.6,0,1.2-0.1,1.9-0.2c11,0.1,21.6,2.1,31.9,5.8c18.1,7.6,32.7,19.3,42.9,36.2c1,1.7,2,3.4,2.9,5.1
				c0.6,1.2,1.2,2.3,1.8,3.5C216.1,344.5,217,346.3,218,348L218,348z M175.8,380c0-21.8-18-39.8-39.9-39.9
				c-22.1,0-40.3,18.2-40.1,40.1c0.3,22,18.1,39.6,40.1,39.6C157.9,419.8,175.8,401.9,175.8,380z"/>
			<path class="st11" d="M218,348L218,348c-0.9-1.8-1.8-3.5-2.7-5.3C216.2,344.5,217,346.3,218,348z"/>
			<path class="st11" d="M213.5,339.2c0.6,1.2,1.2,2.3,1.8,3.5C214.7,341.6,214.1,340.4,213.5,339.2z"/>
			<path class="st12" d="M136,340.1c21.9,0,39.9,18,39.9,39.9c0,21.9-17.9,39.8-39.9,39.8c-22,0-39.8-17.6-40.1-39.6
				C95.6,358.4,113.9,340.1,136,340.1z"/>
			<path class="st1" d="M168.4,110.7L168.4,110.7c-1,6-0.7,12.1-0.7,18.2c0,56.3,0,112.6,0,169c-10.3-3.7-21-5.7-31.9-5.8
				c0.1-1.7,0.1-3.4,0.1-5.1c0-77.2,0-154.3,0-231.4c0-8.5-2.7-11.1-11.1-11.2c-7-0.1-14-0.2-21-0.3c0.4-10.4,0.5-20.7-0.1-31.1
				c11.7-0.3,23.5-1.7,35.2,1.3c15.9,4.1,28.7,20.2,28.8,36.6c0.1,18.4,0,36.7,0.1,55.1C167.7,107.4,167.1,109.2,168.4,110.7z"/>
			<path class="st13" d="M103.7,12.8c0.6,10.4,0.5,20.7,0.1,31.1c-6.5,10.7-14.2,11.3-22.3,1.7c-1.4-1.7-3-1.3-4.6-1.3
				c-11.8,0-23.6,0-35.4,0c-10,0-17-6.6-17.1-15.8c-0.1-9.3,7.2-16.1,17.4-16.1c11.8,0,23.6,0,35.4,0c1.6,0,3.2,0.3,4.5-1.5
				C89,1.6,97.2,2.4,103.7,12.8z"/>
		</g>
		<g>
		</g>
	</g>
</g>
<rect x="295.3" y="236.2" class="st6" width="96.1" height="80.4"/>
</svg>
