<?xml version="1.0" encoding="utf-8"?>
<!-- Generator: Adobe Illustrator 25.4.1, SVG Export Plug-In . SVG Version: 6.00 Build 0)  -->
<svg version="1.1" id="Capa_1" xmlns="http://www.w3.org/2000/svg" xmlns:xlink="http://www.w3.org/1999/xlink" x="0px" y="0px"
	 viewBox="0 0 400 400" style="enable-background:new 0 0 400 400;" xml:space="preserve">
<style type="text/css">
	.st0{fill:#2CBEBF;}
	.st1{fill:#60CACB;}
	.st2{fill:#F6CCAF;}
	.st3{fill:#FFDEC7;}
	.st4{fill:#374F68;}
	.st5{fill:#3DA5FF;}
	.st6{fill:#6AB7FF;}
	.st7{fill:#425B72;}
	.st8{fill:#D3DDFB;}
	.st9{fill:#EAF5FC;}
	.st10{fill:#FC6559;}
	.st11{fill:url(#SVGID_1_);}
	.st12{fill:url(#SVGID_00000061446018534998794770000004053704754749588380_);}
	.st13{fill:url(#SVGID_00000087390601739577911320000013098280850306087318_);}
	.st14{fill:url(#SVGID_00000096056509853096519030000000952203938135745455_);}
	.st15{fill:#BFD6F7;}
	.st16{fill:#DCE7F7;}
	.st17{fill:url(#SVGID_00000128486627456879467400000000356258045910304394_);}
	.st18{fill:#999999;}
</style>
<path class="st0" d="M220.04-115.4c-2.48,1.95-4.36,4.56-5.41,7.54H187.8v-1.85c0-15.61,19.59-22.41,29.27-10.79
	C218.36-118.99,219.37-117.26,220.04-115.4z"/>
<path class="st1" d="M220.04-115.4c-1.38,1.08-2.58,2.38-3.55,3.84h-19.46c-2.89-0.17-5.1-2.65-4.93-5.54
	c0.03-0.48,0.12-0.95,0.28-1.4c0.33-1.01,0.75-1.99,1.27-2.92c0.52-1.33,1.58-2.39,2.92-2.9
	C206.28-129.68,218.05-123.4,220.04-115.4z"/>
<path class="st2" d="M211.82-137.42c0,5.54,0.35,7.39-1.33,9.76c-2.33,3.35-6.93,4.18-10.29,1.85c-0.36-0.25-0.69-0.53-1-0.84
	c-2.73-2.77-2.16-5.65-2.16-10.77c2.72,1.13,7.15,2.09,9.24,0c1.47-1.53,3.9-1.58,5.43-0.11
	C211.75-137.5,211.79-137.46,211.82-137.42L211.82-137.42z"/>
<path class="st3" d="M211.82-137.42c0,5.54,0.35,7.39-1.33,9.76c-2.93,2.04-6.91,1.69-9.44-0.83c-2.49-2.53-2.16-5.06-2.16-8.28
	c2.12,0.59,5.54,1.18,7.39-0.65c1.47-1.53,3.9-1.58,5.43-0.11C211.75-137.5,211.79-137.46,211.82-137.42L211.82-137.42z"/>
<path class="st4" d="M211.82-137.42c-1.47-1.53-3.9-1.58-5.43-0.11c-0.04,0.04-0.07,0.07-0.11,0.11c-2.77,2.77-9.24,0-9.24,0
	c0-4.08,3.31-7.39,7.39-7.39S211.82-141.51,211.82-137.42z"/>
<path class="st5" d="M246.93-102.31v1.85h-33.26c-0.17-2.5,0.15-5.02,0.96-7.39c3.08-8.65,12.59-13.18,21.24-10.1
	C242.49-115.6,246.92-109.34,246.93-102.31z"/>
<path class="st6" d="M246.82-104.16c-32.72,0-21.62,0-24.02,0c-2.89-0.17-5.1-2.65-4.93-5.54c0.03-0.48,0.12-0.95,0.28-1.4
	c0.55-1.69,1.36-3.28,2.4-4.71c7.44-5.38,17.84-3.71,23.22,3.73C245.45-109.76,246.5-107.03,246.82-104.16L246.82-104.16z"/>
<path class="st2" d="M237.69-130.03c0,5.54,0.35,7.39-1.33,9.76c-2.33,3.35-6.93,4.18-10.29,1.85c-0.36-0.25-0.69-0.53-1-0.84
	c-2.73-2.77-2.16-5.65-2.16-10.77c2.72,1.13,7.15,2.09,9.24,0c1.47-1.53,3.9-1.58,5.43-0.11
	C237.62-130.11,237.65-130.07,237.69-130.03L237.69-130.03z"/>
<path class="st3" d="M237.69-130.03c0,5.54,0.35,7.39-1.33,9.76c-2.93,2.04-6.91,1.69-9.44-0.83c-2.49-2.53-2.16-5.06-2.16-8.28
	c2.12,0.59,5.54,1.18,7.39-0.65c1.47-1.53,3.9-1.58,5.43-0.11C237.62-130.11,237.65-130.07,237.69-130.03L237.69-130.03z"/>
<path class="st4" d="M237.69-130.03c-1.47-1.53-3.9-1.58-5.43-0.11c-0.04,0.04-0.07,0.07-0.11,0.11c-2.77,2.77-9.24,0-9.24,0
	c0-4.08,3.31-7.39,7.39-7.39S237.69-134.11,237.69-130.03z"/>
<path class="st0" d="M272.8-109.71v1.85h-26.83c-1.05-2.98-2.93-5.59-5.41-7.54C246.93-132.73,272.8-128.31,272.8-109.71z"/>
<path class="st1" d="M272.69-111.55c-32.73,0-21.62,0-24.02,0c-2.89-0.17-5.1-2.65-4.93-5.54c0.03-0.48,0.12-0.95,0.28-1.4
	c0.55-1.69,1.36-3.28,2.4-4.71c7.44-5.38,17.84-3.71,23.22,3.73C271.32-117.15,272.37-114.42,272.69-111.55L272.69-111.55z"/>
<path class="st2" d="M263.56-137.42c0,5.54,0.35,7.39-1.33,9.76c-2.33,3.35-6.93,4.18-10.29,1.85c-0.36-0.25-0.69-0.53-1-0.84
	c-2.73-2.77-2.16-5.65-2.16-10.77c2.72,1.13,7.15,2.09,9.24,0c1.47-1.53,3.9-1.58,5.43-0.11
	C263.49-137.5,263.52-137.46,263.56-137.42L263.56-137.42z"/>
<path class="st3" d="M263.56-137.42c0,5.54,0.35,7.39-1.33,9.76c-2.93,2.04-6.91,1.69-9.44-0.83c-2.49-2.53-2.16-5.06-2.16-8.28
	c2.13,0.59,5.54,1.18,7.39-0.65c1.47-1.53,3.9-1.58,5.43-0.11C263.49-137.5,263.52-137.46,263.56-137.42L263.56-137.42z"/>
<path class="st4" d="M263.56-137.42c-1.47-1.53-3.9-1.58-5.43-0.11c-0.04,0.04-0.07,0.07-0.11,0.11c-2.77,2.77-9.24,0-9.24,0
	c0-4.08,3.31-7.39,7.39-7.39C260.25-144.81,263.56-141.51,263.56-137.42z"/>
<g>
	<path class="st7" d="M263.56-137.42c-1.46-1.53-3.88-1.59-5.41-0.14c-0.05,0.04-0.09,0.09-0.14,0.14c-0.73,0.7-1.69,1.11-2.7,1.18
		c-1.61-0.17-3.19-0.57-4.69-1.18c-0.03-3.75,2.75-6.92,6.47-7.39C260.81-144.35,263.59-141.17,263.56-137.42z"/>
	<path class="st7" d="M237.69-130.03c-1.46-1.53-3.88-1.59-5.41-0.14c-0.05,0.04-0.09,0.09-0.14,0.14c-0.73,0.7-1.69,1.11-2.7,1.18
		c-1.61-0.17-3.19-0.57-4.69-1.18c-0.03-3.75,2.75-6.92,6.47-7.39C234.94-136.96,237.72-133.78,237.69-130.03z"/>
	<path class="st7" d="M211.82-137.42c-1.46-1.53-3.88-1.59-5.41-0.14c-0.05,0.04-0.09,0.09-0.14,0.14c-0.73,0.7-1.69,1.11-2.7,1.18
		c-1.61-0.17-3.19-0.57-4.69-1.18c-0.03-3.75,2.75-6.92,6.47-7.39C209.07-144.35,211.85-141.17,211.82-137.42z"/>
</g>
<g>
	<path class="st8" d="M242.71-154.72c0,2.66-0.86,5.24-2.45,7.36c-7.07,9.41-22.09,4.35-22.09-7.36c0-3.86,1.82-7.5,4.91-9.82
		c5.42-4.07,13.12-2.97,17.18,2.45C241.84-159.96,242.71-157.37,242.71-154.72z"/>
	<path class="st9" d="M242.71-154.72c0,2.66-0.86,5.24-2.45,7.36c-5.42,4.07-13.12,2.97-17.18-2.45c-3.27-4.36-3.27-10.37,0-14.73
		c5.42-4.07,13.12-2.97,17.18,2.45C241.84-159.96,242.71-157.37,242.71-154.72z"/>
	<path class="st10" d="M236.57-157.17h-3.68v-3.68h-4.91v3.68h-3.68v4.91h3.68v3.68h4.91v-3.68h3.68V-157.17z"/>
</g>
<g>
	<path class="st2" d="M212.04-134.73c0,5.54,0.35,7.39-1.33,9.76c-2.33,3.35-6.93,4.18-10.29,1.85c-0.36-0.25-0.69-0.53-1-0.84
		c-2.73-2.77-2.16-5.65-2.16-10.77c2.72,1.13,7.15,2.09,9.24,0c1.47-1.53,3.9-1.58,5.43-0.11C211.97-134.8,212-134.77,212.04-134.73
		L212.04-134.73z"/>
	<path class="st3" d="M212.04-134.73c0,5.54,0.35,7.39-1.33,9.76c-2.93,2.04-6.91,1.69-9.44-0.83c-2.49-2.53-2.16-5.06-2.16-8.28
		c2.12,0.59,5.54,1.18,7.39-0.65c1.47-1.53,3.9-1.58,5.43-0.11C211.97-134.8,212-134.77,212.04-134.73L212.04-134.73z"/>
	<path class="st4" d="M212.04-134.73c-1.47-1.53-3.9-1.58-5.43-0.11c-0.04,0.04-0.07,0.07-0.11,0.11c-2.77,2.77-9.24,0-9.24,0
		c0-4.08,3.31-7.39,7.39-7.39S212.04-138.81,212.04-134.73z"/>
	<linearGradient id="SVGID_1_" gradientUnits="userSpaceOnUse" x1="220.0357" y1="-112.6346" x2="241.0223" y2="-91.648">
		<stop  offset="0" style="stop-color:#00A99D"/>
		<stop  offset="0.1894" style="stop-color:#0FBBB1"/>
		<stop  offset="0.4258" style="stop-color:#1BCBC2"/>
		<stop  offset="0.6836" style="stop-color:#23D5CC"/>
		<stop  offset="1" style="stop-color:#25D8CF"/>
	</linearGradient>
	<path class="st11" d="M247.03-101.47C247.03-101.47,247.03-101.47,247.03-101.47c0-0.1-0.02-0.2-0.04-0.3
		c-0.03-0.21-0.05-0.42-0.09-0.63c-0.05-0.3-0.11-0.6-0.18-0.89c-0.02-0.07-0.03-0.14-0.04-0.21c-0.5-2.12-1.42-4.12-2.7-5.9
		c-5.38-7.44-15.78-9.11-23.22-3.73c-0.03,0.04-0.06,0.09-0.09,0.13c-2.59,1.9-4.67,4.57-5.83,7.83c-0.81,2.38-1.13,4.89-0.96,7.39
		h33.26v-1.85C247.15-100.24,247.1-100.86,247.03-101.47z"/>
	<path class="st2" d="M237.91-127.34c0,5.54,0.35,7.39-1.33,9.76c-2.33,3.35-6.93,4.18-10.29,1.85c-0.36-0.25-0.69-0.53-1-0.84
		c-2.73-2.77-2.16-5.65-2.16-10.77c2.72,1.13,7.15,2.09,9.24,0c1.47-1.53,3.9-1.58,5.43-0.11
		C237.84-127.41,237.87-127.38,237.91-127.34L237.91-127.34z"/>
	<path class="st3" d="M237.91-127.34c0,5.54,0.35,7.39-1.33,9.76c-2.93,2.04-6.91,1.69-9.44-0.83c-2.49-2.53-2.16-5.06-2.16-8.28
		c2.12,0.59,5.54,1.18,7.39-0.65c1.47-1.53,3.9-1.58,5.43-0.11C237.84-127.41,237.87-127.38,237.91-127.34L237.91-127.34z"/>
	<path class="st4" d="M237.91-127.34c-1.47-1.53-3.9-1.58-5.43-0.11c-0.04,0.04-0.07,0.07-0.11,0.11c-2.77,2.77-9.24,0-9.24,0
		c0-4.08,3.31-7.39,7.39-7.39S237.91-131.42,237.91-127.34z"/>
	
		<linearGradient id="SVGID_00000117635838564232977160000005060001527823079849_" gradientUnits="userSpaceOnUse" x1="240.7724" y1="-114.417" x2="273.0171" y2="-114.417">
		<stop  offset="0" style="stop-color:#00ADEA"/>
		<stop  offset="1" style="stop-color:#0783E9"/>
	</linearGradient>
	<path style="fill:url(#SVGID_00000117635838564232977160000005060001527823079849_);" d="M265.05-121.24
		c-0.05-0.03-0.1-0.06-0.15-0.09c-0.23-0.13-0.45-0.25-0.68-0.37c-4.02-2.15-8.8-2.59-13.18-1.1c-4.4,1.41-8.28,4.69-10.26,10.09
		c2.48,1.95,4.36,4.56,5.41,7.54h26.83v-1.85C273.02-113.72,269.65-118.57,265.05-121.24z"/>
	
		<linearGradient id="SVGID_00000176732016614651765140000009024018493902035089_" gradientUnits="userSpaceOnUse" x1="188.0171" y1="-114.4032" x2="220.2646" y2="-114.4032">
		<stop  offset="0" style="stop-color:#00ADEA"/>
		<stop  offset="1" style="stop-color:#0783E9"/>
	</linearGradient>
	<path style="fill:url(#SVGID_00000176732016614651765140000009024018493902035089_);" d="M218.24-110.81
		c0.05-0.05,0.09-0.1,0.13-0.15c0.25-0.27,0.52-0.54,0.79-0.79c0.04-0.04,0.08-0.08,0.12-0.11c0.32-0.29,0.64-0.57,0.98-0.83
		c-0.76-3.03-2.92-5.81-5.83-7.81c-3.28-2.44-7.17-3.38-10.95-3.07c-2.16,0.14-4.34,0.71-6.43,1.82c-0.12,0.06-0.25,0.12-0.37,0.19
		c-0.41,0.17-0.78,0.4-1.13,0.67c-4.39,2.81-7.53,7.64-7.53,13.89v1.85h26.83c0.46-1.31,1.1-2.55,1.87-3.7h0
		c0.23-0.34,0.47-0.68,0.72-1c0.03-0.03,0.05-0.07,0.08-0.1C217.75-110.26,217.99-110.54,218.24-110.81z"/>
	<path class="st2" d="M263.78-134.73c0,5.54,0.35,7.39-1.33,9.76c-2.33,3.35-6.93,4.18-10.29,1.85c-0.36-0.25-0.69-0.53-1-0.84
		c-2.73-2.77-2.16-5.65-2.16-10.77c2.72,1.13,7.15,2.09,9.24,0c1.47-1.53,3.9-1.58,5.43-0.11
		C263.71-134.8,263.74-134.77,263.78-134.73L263.78-134.73z"/>
	<path class="st3" d="M263.78-134.73c0,5.54,0.35,7.39-1.33,9.76c-2.93,2.04-6.91,1.69-9.44-0.83c-2.49-2.53-2.16-5.06-2.16-8.28
		c2.13,0.59,5.54,1.18,7.39-0.65c1.47-1.53,3.9-1.58,5.43-0.11C263.71-134.8,263.74-134.77,263.78-134.73L263.78-134.73z"/>
	<path class="st4" d="M263.78-134.73c-1.47-1.53-3.9-1.58-5.43-0.11c-0.04,0.04-0.07,0.07-0.11,0.11c-2.77,2.77-9.24,0-9.24,0
		c0-4.08,3.31-7.39,7.39-7.39C260.47-142.12,263.78-138.81,263.78-134.73z"/>
	<g>
		<path class="st7" d="M263.78-134.73c-1.46-1.53-3.88-1.59-5.41-0.14c-0.05,0.04-0.09,0.09-0.14,0.14c-0.73,0.7-1.69,1.11-2.7,1.18
			c-1.61-0.17-3.19-0.57-4.69-1.18c-0.03-3.75,2.75-6.92,6.47-7.39C261.03-141.65,263.81-138.48,263.78-134.73z"/>
		<path class="st7" d="M237.91-127.34c-1.46-1.53-3.88-1.59-5.41-0.14c-0.05,0.04-0.09,0.09-0.14,0.14c-0.73,0.7-1.69,1.11-2.7,1.18
			c-1.61-0.17-3.19-0.57-4.69-1.18c-0.03-3.75,2.75-6.92,6.47-7.39C235.16-134.26,237.94-131.09,237.91-127.34z"/>
		<path class="st7" d="M212.04-134.73c-1.46-1.53-3.88-1.59-5.41-0.14c-0.05,0.04-0.09,0.09-0.14,0.14c-0.73,0.7-1.69,1.11-2.7,1.18
			c-1.61-0.17-3.19-0.57-4.69-1.18c-0.03-3.75,2.75-6.92,6.47-7.39C209.29-141.65,212.07-138.48,212.04-134.73z"/>
	</g>
</g>
<g>
	<path class="st8" d="M242.92-152.02c0,2.66-0.86,5.24-2.45,7.36c-7.07,9.41-22.09,4.35-22.09-7.36c0-3.86,1.82-7.5,4.91-9.82
		c5.42-4.07,13.12-2.97,17.18,2.45C242.06-157.26,242.92-154.68,242.92-152.02z"/>
	<path class="st9" d="M242.92-152.02c0,2.66-0.86,5.24-2.45,7.36c-5.42,4.07-13.12,2.97-17.18-2.45c-3.27-4.36-3.27-10.37,0-14.73
		c5.42-4.07,13.12-2.97,17.18,2.45C242.06-157.26,242.92-154.68,242.92-152.02z"/>
	<path class="st10" d="M236.79-154.48h-3.68v-3.68h-4.91v3.68h-3.68v4.91h3.68v3.68h4.91v-3.68h3.68V-154.48z"/>
</g>
<g>
	
		<linearGradient id="SVGID_00000074430790765895544120000015445091958442252446_" gradientUnits="userSpaceOnUse" x1="273.1241" y1="329.6288" x2="392.781" y2="329.6288">
		<stop  offset="0" style="stop-color:#00ADEA"/>
		<stop  offset="1" style="stop-color:#0783E9"/>
	</linearGradient>
	<polygon style="fill:url(#SVGID_00000074430790765895544120000015445091958442252446_);" points="346.25,396.1 392.78,263.15 
		273.12,263.15 	"/>
	<rect x="93.64" y="63.72" class="st15" width="232.67" height="305.79"/>
	<rect x="67.05" y="37.13" class="st16" width="232.67" height="279.2"/>
	
		<linearGradient id="SVGID_00000183249039604250662180000006103764561094395827_" gradientUnits="userSpaceOnUse" x1="7.219" y1="329.6288" x2="346.2475" y2="329.6288">
		<stop  offset="0" style="stop-color:#006DF0"/>
		<stop  offset="0.0358" style="stop-color:#057BEC"/>
		<stop  offset="0.1209" style="stop-color:#0F98E3"/>
		<stop  offset="0.2165" style="stop-color:#17B0DB"/>
		<stop  offset="0.3252" style="stop-color:#1DC2D6"/>
		<stop  offset="0.4548" style="stop-color:#22CED2"/>
		<stop  offset="0.6257" style="stop-color:#24D6D0"/>
		<stop  offset="1" style="stop-color:#25D8CF"/>
	</linearGradient>
	<polygon style="fill:url(#SVGID_00000183249039604250662180000006103764561094395827_);" points="346.25,396.1 273.12,263.15 
		7.22,263.15 80.34,396.1 	"/>
	<path class="st1" d="M120.23,83.67c-11.01,0-19.94-8.93-19.94-19.94v-6.65h13.3v6.65c0,3.67,2.98,6.65,6.65,6.65
		c3.67,0,6.65-2.98,6.65-6.65V30.49c0-7.35-5.95-13.3-13.3-13.3c-7.35,0-13.3,5.95-13.3,13.3v6.65h-13.3v-6.65
		C86.99,15.8,98.9,3.9,113.58,3.9s26.59,11.91,26.59,26.59v33.24C140.17,74.74,131.24,83.67,120.23,83.67z"/>
	<polygon class="st10" points="226.59,96.96 200,96.96 200,70.37 173.41,70.37 173.41,96.96 146.82,96.96 146.82,123.55 
		173.41,123.55 173.41,150.14 200,150.14 200,123.55 226.59,123.55 	"/>
	<g>
		<rect x="106.93" y="170.09" class="st18" width="13.3" height="13.3"/>
		<rect x="133.52" y="170.09" class="st18" width="139.6" height="13.3"/>
		<rect x="93.64" y="196.68" class="st18" width="179.49" height="13.3"/>
		<rect x="93.64" y="223.27" class="st18" width="152.9" height="13.3"/>
		<rect x="265.35" y="63.72" class="st18" width="13.67" height="13.3"/>
		<rect x="266.48" y="90.31" class="st18" width="13.3" height="13.3"/>
	</g>
</g>
</svg>
