<?xml version="1.0" encoding="utf-8"?>
<!-- Generator: Adobe Illustrator 24.2.3, SVG Export Plug-In . SVG Version: 6.00 Build 0)  -->
<svg version="1.1" id="Capa_1" xmlns="http://www.w3.org/2000/svg" xmlns:xlink="http://www.w3.org/1999/xlink" x="0px" y="0px"
	 viewBox="0 0 200 200" style="enable-background:new 0 0 200 200;" xml:space="preserve">
<style type="text/css">
	.st0{fill:url(#SVGID_1_);}
	.st1{fill:none;stroke:#3366CC;stroke-width:5.7243;stroke-miterlimit:10;}
	.st2{fill:#3366CC;stroke:#3366CC;stroke-miterlimit:10;}
	.st3{fill-rule:evenodd;clip-rule:evenodd;fill:#FFFFFF;}
	.st4{fill:none;stroke:#3366CC;stroke-width:6;stroke-miterlimit:10;}
</style>
<linearGradient id="SVGID_1_" gradientUnits="userSpaceOnUse" x1="19.525" y1="-1340.525" x2="180.475" y2="-1501.475" gradientTransform="matrix(1 0 0 -1 0 -1321)">
	<stop  offset="0" style="stop-color:#FFFFFF"/>
	<stop  offset="0.2301" style="stop-color:#FCFEFE"/>
	<stop  offset="0.3713" style="stop-color:#F4FCFC"/>
	<stop  offset="0.4886" style="stop-color:#E5F8F8"/>
	<stop  offset="0.5927" style="stop-color:#D1F2F2"/>
	<stop  offset="0.6882" style="stop-color:#B6EAEA"/>
	<stop  offset="0.7773" style="stop-color:#96E1E1"/>
	<stop  offset="0.8615" style="stop-color:#6FD6D6"/>
	<stop  offset="0.9397" style="stop-color:#43C9C9"/>
	<stop  offset="1" style="stop-color:#1CBEBE"/>
</linearGradient>
<path class="st0" d="M162,194H38c-6.6,0-12-5.4-12-12V18c0-6.6,5.4-12,12-12h124c6.6,0,12,5.4,12,12v164
	C174,188.6,168.6,194,162,194z"/>
<path class="st1" d="M161.5,195h-123c-6.6,0-12-5.4-12-12V17c0-6.6,5.4-12,12-12h123c6.6,0,12,5.4,12,12v166
	C173.5,189.6,168.1,195,161.5,195z"/>
<g id="Capa_3">
</g>
<path class="st2" d="M104,39c-2.2,0-4-1.8-4-4.2c0-2.3,1.8-4.2,4-4.2h35c2.2,0,4,1.8,4,4.2c0,2.3-1.8,4.2-4,4.2H104z"/>
<path class="st2" d="M104,57.2c-2.2,0-4-1.8-4-4.2s1.8-4.2,4-4.2h26.2c2.2,0,4,1.8,4,4.2s-1.8,4.2-4,4.2H104z"/>
<path class="st2" d="M59.9,25.9h27.3c2.2,0,4,1.8,4,4.2v28c0,2.3-1.8,4.2-4,4.2H59.9c-2.2,0-4-1.8-4-4.2V29.8
	C55.8,27.6,57.6,25.9,59.9,25.9z"/>
<path class="st2" d="M104,93c-2.2,0-4-1.8-4-4.2s1.8-4.2,4-4.2h35c2.2,0,4,1.8,4,4.2s-1.8,4.2-4,4.2H104z"/>
<path class="st2" d="M104,111.1c-2.2,0-4-1.8-4-4.2s1.8-4.2,4-4.2h26.2c2.2,0,4,1.8,4,4.2s-1.8,4.2-4,4.2H104z"/>
<path class="st2" d="M59.9,79.8h27.3c2.2,0,4,1.8,4,4.2v28c0,2.3-1.8,4.2-4,4.2H59.9c-2.2,0-4-1.8-4-4.2V83.7
	C55.8,81.5,57.6,79.8,59.9,79.8z"/>
<path class="st2" d="M105.1,147c-2.2,0-4-1.8-4-4.2s1.8-4.2,4-4.2h35c2.2,0,4,1.8,4,4.2s-1.8,4.2-4,4.2H105.1z"/>
<path class="st2" d="M105.1,165.2c-2.2,0-4-1.8-4-4.2s1.8-4.2,4-4.2h26.2c2.2,0,4,1.8,4,4.2s-1.8,4.2-4,4.2H105.1z"/>
<path class="st2" d="M59.9,133.9h27.3c2.2,0,4,1.8,4,4.2v28c0,2.3-1.8,4.2-4,4.2H59.9c-2.2,0-4-1.8-4-4.2v-28.2
	C55.8,135.6,57.6,133.9,59.9,133.9z"/>
<path class="st3" d="M64.7,138.7h17.8c2.1,0,3.9,1.7,3.9,4v18.4c0,2.2-1.7,4-3.9,4H64.7c-2.1,0-3.9-1.7-3.9-4v-18.5
	C60.6,140.5,62.3,138.7,64.7,138.7L64.7,138.7z"/>
<path class="st3" d="M64.7,30.8h17.8c2.1,0,3.9,1.7,3.9,4v18.6c0,2.2-1.7,4-3.9,4H64.7c-2.1,0-3.9-1.7-3.9-4V35.1
	C60.6,32.8,62.3,30.8,64.7,30.8z"/>
<path class="st3" d="M64.7,84.7h17.8c2.1,0,3.9,1.7,3.9,4v18.5c0,2.2-1.7,4-3.9,4H64.7c-2.1,0-3.9-1.7-3.9-4V88.7
	C60.6,86.5,62.3,84.7,64.7,84.7z"/>
<polyline class="st4" points="63.8,45 69,51.3 83.3,36.7 "/>
<polyline class="st4" points="63.8,99.1 69,105.2 83.3,90.8 "/>
<polyline class="st4" points="63.8,153 69,159.2 83.3,144.7 "/>
</svg>
