<?xml version="1.0" encoding="utf-8"?>
<!-- Generator: Adobe Illustrator 24.2.3, SVG Export Plug-In . SVG Version: 6.00 Build 0)  -->
<svg version="1.1" id="Capa_1" xmlns="http://www.w3.org/2000/svg" xmlns:xlink="http://www.w3.org/1999/xlink" x="0px" y="0px"
	 viewBox="0 0 200 200" style="enable-background:new 0 0 200 200;" xml:space="preserve">
<style type="text/css">
	.st0{fill:url(#SVGID_1_);}
	.st1{fill:#3366CC;}
	.st2{fill:url(#SVGID_2_);}
	.st3{fill:#1CBEBE;}
	.st4{fill:url(#SVGID_3_);}
	.st5{fill:#FFFFFF;}
</style>
<linearGradient id="SVGID_1_" gradientUnits="userSpaceOnUse" x1="19.1154" y1="160.1413" x2="186.2278" y2="160.1413">
	<stop  offset="0" style="stop-color:#FFFFFF"/>
	<stop  offset="0.2301" style="stop-color:#FCFEFE"/>
	<stop  offset="0.3713" style="stop-color:#F4FCFC"/>
	<stop  offset="0.4886" style="stop-color:#E5F8F8"/>
	<stop  offset="0.5927" style="stop-color:#D1F2F2"/>
	<stop  offset="0.6882" style="stop-color:#B6EAEA"/>
	<stop  offset="0.7773" style="stop-color:#96E1E1"/>
	<stop  offset="0.8615" style="stop-color:#6FD6D6"/>
	<stop  offset="0.9397" style="stop-color:#43C9C9"/>
	<stop  offset="1" style="stop-color:#1CBEBE"/>
</linearGradient>
<polygon class="st0" points="186.2,138.4 102.5,138.4 82.1,125.7 38,125.7 38,144 28.9,141.1 19.1,148.4 21.2,156.9 22.2,166.3 
	22.2,175.8 21.2,182.2 19.9,192.8 29.8,194.6 89.5,194.6 106.2,188.5 186.2,188.5 "/>
<g>
	<g id="XMLID_2_">
		<g>
			<path class="st1" d="M186.2,185.5c0,2,0,4,0,6.2c-0.9,0-1.7,0-2.5,0c-25,0-50,0-75,0.1c-2.5,0-5.2,0.7-7.6,1.5
				c-4.5,1.4-8.8,3.2-13.3,4.8c-20.4,0-40.8,0-61.2,0c-2.9-1-5.4-2.4-6.7-5.2c-1.8-3.8-1.2-7.3,1.3-10.5c-3.1-4.2-3.2-8.4,0-12.6
				c-3.1-4.2-3.2-8.4,0-12.7c-2-2.5-2.9-5.4-2.1-8.5c1.1-4.4,4.8-7.2,9.8-7.3c1.8-0.1,3.7,0,5.7,0c0-2.9,0-5.6,0-8.3
				c0-6.7,3.8-10.5,10.5-10.6c11.7,0,23.5,0.1,35.2,0c4,0,7.5,1.1,10.8,3.3c3.6,2.5,7.2,4.8,10.8,7.2c2.1,1.5,4.4,2.2,7,2.1
				c7.8,0,15.6,0,23.5,0c0-2.1,0-4.1,0-6.3c-1.9,0-3.9,0-6.2,0c0-4.3,0-8.3,0-12.7c-3.2,0-6.2,0-9.3,0c0-29.6,0-59,0-88.5
				c3.1,0,6.1,0,9.2,0c0-6.3,0-12.5,0-18.9c-3,0-6,0-9.1,0c0-2.2,0-4.2,0-6.3c12.5,0,25,0,37.7,0c0,1.9,0,3.9,0,6.1
				c-3,0-6.1,0-9.3,0c0,6.4,0,12.6,0,18.9c3,0,6.1,0,9.3,0c0,29.5,0,58.9,0,88.5c-3,0-6.1,0-9.3,0c0,4.3,0,8.4,0,12.7
				c-2.2,0-4.1,0-6.2,0c0,2.2,0,4.2,0,6.4c15.7,0,31.3,0,47.1,0c0,2.1,0,4.1,0,6.2c-15.7,0-31.3,0-47.1,0c0,10.5,0,20.7,0,31.2
				c0.8-0.4,1.8-0.6,2-1.1c1-2.1,2.7-1.7,4.4-1.6c0.9,0,1.8,0,2.9,0c0,3.1-1.4,5.2-3.6,6.9c-4.6,3.6-14.1,3.3-18.5-0.5
				c-1.8-1.6-2.9-3.6-3.1-6.5c1.8,0,3.6-0.4,5.2,0.1c1.4,0.4,2.6,1.7,4.2,2.9c0-10.7,0-20.9,0-31.4c-0.7,0-1.4,0-2.1,0
				c-7.1,0-14.3-0.1-21.4,0c-4,0.1-7.5-1-10.8-3.3c-3.6-2.4-7.2-4.8-10.8-7.2c-2.1-1.4-4.3-2.2-6.8-2.2c-11.8,0-23.6,0-35.4,0
				c-3.1,0-4.3,1.1-4.3,4.1c0,13,0,26,0,39c0,0.3,0.1,0.6,0.1,0.9c4.6,0.5,9.2-3.6,9.3-8.6c0.1-6.8,0.1-13.7,0.1-20.5
				c0-0.7,0-1.4,0-2.3c2.5,0,4.9-0.1,7.2,0.1c0.5,0,1.1,0.7,1.6,1.2c3.2,3.4,6.2,7.1,9.8,10.2c7.7,6.8,17,10.1,27.2,10.6
				c0.4,0,0.9,0.1,1.5,0.1c0,2,0,4,0,6.2c-10.3,0-19.7-3.1-28.6-8.9c0.6,3.2,0.1,5.9-1.6,8.3c-0.2,0.3-0.2,1,0,1.3
				c2.8,4.1,2.4,8-0.5,12c2.1,2.7,2.9,5.8,1.9,9.3c0.7,0.1,1.2,0.1,1.8,0.1c1,0,1.9-0.1,2.9,0c9.3,0.8,18.1-0.6,26.5-4.8
				c2.1-1,4.7-1.4,7-1.4c25.8-0.1,51.7-0.1,77.5-0.1C185.1,185.4,185.6,185.4,186.2,185.5z M148.3,109.4c0-25.3,0-50.4,0-75.6
				c-8.4,0-16.7,0-25,0c0,2.1,0,4,0,6.2c5.3,0,10.4,0,15.6,0c0,2.2,0,4.1,0,6.3c-5.2,0-10.4,0-15.6,0c0,2.2,0,4.1,0,6.3
				c2.1,0,4.1,0,6.1,0c0,2.2,0,4.2,0,6.4c-2.1,0-4.1,0-6.1,0c0,2.1,0,4.1,0,6.2c5.2,0,10.3,0,15.6,0c0,2.2,0,4.2,0,6.4
				c-5.3,0-10.4,0-15.5,0c0,2.2,0,4.1,0,6.3c2.1,0,4.1,0,6.2,0c0,2.2,0,4.1,0,6.3c-2.1,0-4.1,0-6.2,0c0,2.2,0,4.1,0,6.3
				c5.2,0,10.4,0,15.5,0c0,2.2,0,4.2,0,6.4c-5.3,0-10.4,0-15.5,0c0,4.3,0,8.3,0,12.4C131.6,109.4,139.9,109.4,148.3,109.4z
				 M138.8,122.1c0-2.1,0-4,0-6.1c-2.2,0-4.1,0-6.1,0c0,2.1,0,4.1,0,6.1C134.8,122.1,136.8,122.1,138.8,122.1z M138.7,27.2
				c0-6.4,0-12.6,0-18.7c-2.1,0-4,0-6,0c0,6.3,0,12.5,0,18.7C134.8,27.2,136.7,27.2,138.7,27.2z M63,163.3c0.1-2.5-1.7-3.4-6.1-3.1
				c-0.1,2.1-0.2,4.1-0.4,6C61,166.7,62.9,165.8,63,163.3z M63,188.9c0.2-1.6-0.6-2.7-2.1-3.3c-0.6-0.2-1.4-0.2-2.1-0.2
				c-9.8,0-19.6,0-29.4,0c-0.7,0-1.4,0-2.1,0.2c-1.4,0.5-2.2,1.6-2.1,3c0.1,1.5,0.9,2.6,2.6,2.9c0.7,0.1,1.4,0.1,2.1,0.1
				c4.7,0,9.4,0,14.1,0c4.5,0,8.9,0,13.4,0c1,0,2,0,3-0.1C61.9,191.3,62.8,190.4,63,188.9z M62.7,176.9c0.4-0.8,0-2.2-0.5-3
				c-0.9-1.5-8.1-1.9-9.3-0.6c-2.3,2.6-5,4.3-8.2,5.5c5.2,0,10.3,0.1,15.5-0.1C61.1,178.8,62.3,177.8,62.7,176.9z M56.9,153.6
				c1.2,0,2.3,0,3.8,0c-1.4-1.6-2.5-2.8-3.8-4.2C56.9,151,56.9,152.3,56.9,153.6z M34.5,166.3c0-2.1,0-4.1,0-6.2
				c-2.2,0-4.3-0.1-6.3,0c-1.8,0.1-3,1.5-3.1,3.1c0,1.6,1.2,3,3,3.1C30.3,166.4,32.3,166.3,34.5,166.3z M34.5,153.6c0-2.1,0-4,0-6.2
				c-2.3,0-4.4-0.1-6.5,0c-1.7,0.1-2.9,1.5-2.9,3c0,1.6,1.1,3,2.8,3.1C30.1,153.7,32.3,153.6,34.5,153.6z M38,178.9
				c-1.3-1.8-2.6-3.7-4.3-6.1c-1.5,0-3.6-0.1-5.7,0c-1.7,0.1-2.9,1.5-2.9,3c0,1.5,0.8,2.9,2.4,3C31.2,179,34.8,178.9,38,178.9z"/>
			<linearGradient id="SVGID_2_" gradientUnits="userSpaceOnUse" x1="123.21" y1="71.63" x2="148.27" y2="71.63">
				<stop  offset="0" style="stop-color:#FFFFFF"/>
				<stop  offset="0.2301" style="stop-color:#FCFEFE"/>
				<stop  offset="0.3713" style="stop-color:#F4FCFC"/>
				<stop  offset="0.4886" style="stop-color:#E5F8F8"/>
				<stop  offset="0.5927" style="stop-color:#D1F2F2"/>
				<stop  offset="0.6882" style="stop-color:#B6EAEA"/>
				<stop  offset="0.7773" style="stop-color:#96E1E1"/>
				<stop  offset="0.8615" style="stop-color:#6FD6D6"/>
				<stop  offset="0.9397" style="stop-color:#43C9C9"/>
				<stop  offset="1" style="stop-color:#1CBEBE"/>
			</linearGradient>
			<path class="st2" d="M148.3,33.8c0,25.2,0,50.3,0,75.6c-8.4,0-16.6,0-25,0c0-4.1,0-8.2,0-12.4c5.1,0,10.2,0,15.5,0
				c0-2.2,0-4.2,0-6.4c-5.1,0-10.3,0-15.5,0c0-2.2,0-4.1,0-6.3c2,0,4.1,0,6.2,0c0-2.2,0-4.1,0-6.3c-2,0-4,0-6.2,0c0-2.2,0-4.1,0-6.3
				c5.2,0,10.3,0,15.5,0c0-2.2,0-4.2,0-6.4c-5.2,0-10.4,0-15.6,0c0-2.2,0-4.1,0-6.2c2.1,0,4,0,6.1,0c0-2.2,0-4.2,0-6.4
				c-2,0-4,0-6.1,0c0-2.2,0-4.1,0-6.3c5.2,0,10.3,0,15.6,0c0-2.2,0-4.2,0-6.3c-5.2,0-10.3,0-15.6,0c0-2.1,0-4.1,0-6.2
				C131.6,33.8,139.9,33.8,148.3,33.8z"/>
			<path class="st3" d="M138.8,115.9c0,2.1,0,4.1,0,6.1c-2,0-4,0-6.1,0c0-2,0-4,0-6.1C134.7,115.9,136.6,115.9,138.8,115.9z"/>
			<path class="st3" d="M138.7,8.5c0,6.2,0,12.4,0,18.7c-2,0-3.9,0-6,0c0-6.2,0-12.4,0-18.7C134.7,8.5,136.6,8.5,138.7,8.5z"/>
			<path class="st1" d="M74.3,44.2c10.5,14.5,10.4,33.3-0.4,47.5c-14.5,19.2-44.6,19.3-59.4,0.4C3.8,78.3,3,59.7,13.1,45.4
				c9.9-14,20.2-27.7,30.4-41.5c0.1-0.2,0.3-0.4,0.7-0.8c2.7,3.7,5.2,7.2,7.8,10.6C59.4,23.9,66.9,34,74.3,44.2z M64.9,92.1
				C78,81,78.9,60.7,69.3,48c-6.9-9.2-13.6-18.5-20.4-27.7c-1.5-2.1-3.1-4.2-4.8-6.5c-0.6,0.9-1.1,1.5-1.5,2.1
				c-7.7,10.5-15.3,21-23.1,31.4c-5.7,7.7-8.1,16.1-6.6,25.5c1.9,12.1,8.6,20.8,20.1,25.1C44.6,102.3,55.4,100.2,64.9,92.1z"/>
			<linearGradient id="SVGID_3_" gradientUnits="userSpaceOnUse" x1="12.4321" y1="56.9173" x2="75.7327" y2="56.9173">
				<stop  offset="0" style="stop-color:#FFFFFF"/>
				<stop  offset="0.2301" style="stop-color:#FCFEFE"/>
				<stop  offset="0.3713" style="stop-color:#F4FCFC"/>
				<stop  offset="0.4886" style="stop-color:#E5F8F8"/>
				<stop  offset="0.5927" style="stop-color:#D1F2F2"/>
				<stop  offset="0.6882" style="stop-color:#B6EAEA"/>
				<stop  offset="0.7773" style="stop-color:#96E1E1"/>
				<stop  offset="0.8615" style="stop-color:#6FD6D6"/>
				<stop  offset="0.9397" style="stop-color:#43C9C9"/>
				<stop  offset="1" style="stop-color:#1CBEBE"/>
			</linearGradient>
			<path class="st4" d="M69.3,48c9.7,12.8,8.7,33-4.4,44.2c-9.5,8.1-20.3,10.2-32,5.8c-11.5-4.4-18.2-13-20.1-25.1
				c-1.5-9.4,0.9-17.9,6.6-25.5c7.8-10.4,15.4-20.9,23.1-31.4c0.5-0.6,0.9-1.2,1.5-2.1c1.7,2.3,3.2,4.4,4.8,6.5
				C55.7,29.5,62.3,38.8,69.3,48z M62.9,77.8c0-6.4,0-12.5,0-18.9c-2.6,0-5-0.1-7.5,0c-1.5,0.1-1.9-0.4-1.8-1.9c0.1-2.5,0-5,0-7.5
				c-6.5,0-12.7,0-19.1,0c0,3.2,0,6.2,0,9.4c-3.2,0-6.2,0-9.3,0c0,6.4,0,12.5,0,18.9c3.2,0,6.2,0,9.5,0c0,3.3,0,6.3,0,9.4
				c6.4,0,12.6,0,18.9,0c0-3.1,0-6.2,0-9.4C56.8,77.8,59.9,77.8,62.9,77.8z"/>
			<path class="st5" d="M56.9,160.2c4.4-0.3,6.2,0.6,6.1,3.1c-0.1,2.5-2,3.4-6.5,2.9C56.7,164.2,56.8,162.3,56.9,160.2z"/>
			<path class="st5" d="M60.9,185.6c1.5,0.5,2.2,1.7,2.1,3.3c-0.2,1.5-1,2.5-2.5,2.7c-1,0.1-2,0.1-3,0.1c-4.5,0-8.9,0-13.4,0
				c-4.7,0-9.4,0-14.1,0c-0.7,0-1.4,0-2.1-0.1c-1.6-0.2-2.5-1.4-2.6-2.9c-0.1-1.5,0.7-2.6,2.1-3c0.6-0.2,1.4-0.2,2.1-0.2
				c9.8,0,19.6,0,29.4,0C59.5,185.4,60.2,185.4,60.9,185.6z"/>
			<path class="st1" d="M62.9,59c0,6.3,0,12.5,0,18.9c-3,0-6.1,0-9.3,0c0,3.3,0,6.3,0,9.4c-6.4,0-12.5,0-18.9,0c0-3,0-6.1,0-9.4
				c-3.3,0-6.3,0-9.5,0c0-6.3,0-12.5,0-18.9c3,0,6.1,0,9.3,0c0-3.2,0-6.2,0-9.4c6.4,0,12.6,0,19.1,0c0,2.5,0.1,5,0,7.5
				c0,1.4,0.4,1.9,1.8,1.9C57.9,58.9,60.3,59,62.9,59z M56.7,71.6c0-2.2,0-4.2,0-6.4c-3.2,0-6.2,0-9.4,0c0-3.2,0-6.2,0-9.3
				c-2.2,0-4.2,0-6.4,0c0,3.2,0,6.2,0,9.4c-3.2,0-6.2,0-9.2,0c0,2.2,0,4.2,0,6.3c3.1,0,6.1,0,9.4,0c0,3.3,0,6.3,0,9.3
				c2.2,0,4.1,0,6.3,0c0-3.1,0-6.1,0-9.4C50.5,71.6,53.5,71.6,56.7,71.6z"/>
			<path class="st5" d="M62.2,173.9c0.5,0.8,0.8,2.2,0.5,3c-0.4,0.9-1.6,1.9-2.5,1.9c-5.1,0.2-10.3,0.1-15.5,0.1
				c3.2-1.3,6-3,8.2-5.5C54.2,172.1,61.3,172.4,62.2,173.9z"/>
			<path class="st5" d="M60.7,153.6c-1.5,0-2.6,0-3.8,0c0-1.3,0-2.6,0-4.2C58.2,150.9,59.3,152.1,60.7,153.6z"/>
			<path class="st3" d="M56.7,65.2c0,2.2,0,4.2,0,6.4c-3.1,0-6.2,0-9.4,0c0,3.2,0,6.2,0,9.4c-2.2,0-4.1,0-6.3,0c0-3.1,0-6,0-9.3
				c-3.3,0-6.3,0-9.4,0c0-2.2,0-4.2,0-6.3c3,0,6,0,9.2,0c0-3.2,0-6.2,0-9.4c2.2,0,4.2,0,6.4,0c0,3.1,0,6.1,0,9.3
				C50.5,65.2,53.5,65.2,56.7,65.2z"/>
			<path class="st5" d="M34.5,160.1c0,2.1,0,4.1,0,6.2c-2.2,0-4.3,0.1-6.3,0c-1.8-0.1-3-1.4-3-3.1c0-1.6,1.3-3,3.1-3.1
				C30.2,160,32.3,160.1,34.5,160.1z"/>
			<path class="st5" d="M34.5,147.5c0,2.1,0,4.1,0,6.2c-2.3,0-4.4,0.1-6.6,0c-1.7-0.1-2.8-1.5-2.8-3.1c0-1.6,1.2-2.9,2.9-3
				C30.1,147.4,32.2,147.5,34.5,147.5z"/>
			<path class="st5" d="M33.7,172.8c1.6,2.4,3,4.3,4.3,6.1c-3.2,0-6.8,0.1-10.5-0.1c-1.6-0.1-2.3-1.5-2.4-3c-0.1-1.6,1.2-2.9,2.9-3
				C30.1,172.7,32.2,172.8,33.7,172.8z"/>
		</g>
	</g>
</g>
</svg>
