<?xml version="1.0" encoding="utf-8"?>
<!-- Generator: Adobe Illustrator 24.2.3, SVG Export Plug-In . SVG Version: 6.00 Build 0)  -->
<svg version="1.1" id="Capa_1" xmlns="http://www.w3.org/2000/svg" xmlns:xlink="http://www.w3.org/1999/xlink" x="0px" y="0px"
	 viewBox="0 0 200 200" style="enable-background:new 0 0 200 200;" xml:space="preserve">
<style type="text/css">
	.st0{fill:url(#SVGID_1_);stroke:#3366CC;stroke-width:8;stroke-miterlimit:10;}
	.st1{fill:#3366CC;}
	.st2{fill:#3366CC;stroke:#FFFFFF;stroke-width:3;stroke-miterlimit:10;}
	.st3{fill:#3366CC;stroke:#3366CC;stroke-width:0.5;stroke-miterlimit:10;}
</style>
<linearGradient id="SVGID_1_" gradientUnits="userSpaceOnUse" x1="58.095" y1="101.6961" x2="144.7066" y2="101.6961">
	<stop  offset="0" style="stop-color:#FFFFFF"/>
	<stop  offset="0.2301" style="stop-color:#FCFEFE"/>
	<stop  offset="0.3713" style="stop-color:#F4FCFC"/>
	<stop  offset="0.4886" style="stop-color:#E5F8F8"/>
	<stop  offset="0.5927" style="stop-color:#D1F2F2"/>
	<stop  offset="0.6882" style="stop-color:#B6EAEA"/>
	<stop  offset="0.7773" style="stop-color:#96E1E1"/>
	<stop  offset="0.8615" style="stop-color:#6FD6D6"/>
	<stop  offset="0.9397" style="stop-color:#43C9C9"/>
	<stop  offset="1" style="stop-color:#1CBEBE"/>
</linearGradient>
<circle class="st0" cx="101.4" cy="101.7" r="43.3"/>
<g id="Capa_3">
</g>
<g id="Capa_3_1_">
</g>
<g id="XMLID_1_">
	<g>
		<path class="st1" d="M179.3,92.4c2.5,33.8-10.9,59.7-39.7,77.5c-11.8,7.3-25,10.2-38.8,10.3c-6.9,0-13.9,0-20.8,0
			c-0.6,0-1.2,0-1.9,0c-0.1,0.2-0.2,0.4-0.3,0.5c2.8,2.7,5.6,5.3,8.3,8.1c3.1,3.3,1.7,8.4-2.7,9.5c-2.1,0.6-3.9,0-5.4-1.5
			c-6.1-6.1-12.3-12.2-18.3-18.4c-2.3-2.3-2.3-5.7,0-8.1c6-6.1,12.1-12.2,18.2-18.2c2.4-2.4,6-2.4,8.2-0.2c2.3,2.3,2.3,5.8-0.2,8.4
			c-2.2,2.3-4.5,4.5-6.7,6.8c-0.4,0.4-0.8,0.9-1.2,1.4c0.2,0.2,0.3,0.3,0.4,0.3c9.1-0.1,18.2,0.4,27.3-0.3
			c23-1.7,40.7-12.7,52.5-32.4c13.3-22.1,13.6-45,1.6-67.9c-1-1.9-1.7-3.7-1-5.8c0.8-2.2,2.4-3.6,4.8-3.8c2.6-0.2,4.5,1,5.8,3.3
			C174.8,71.4,178.5,81.5,179.3,92.4z"/>
		<path class="st1" d="M140.7,22.6c3.1,3.1,3.1,6.2,0,9.3c-5.7,5.8-11.5,11.5-17.3,17.3c-2.7,2.7-6.3,2.9-8.6,0.5
			c-2.4-2.4-2.2-5.9,0.6-8.6c2.6-2.6,5.2-5.1,8.1-7.9c-9.6,0-18.6-0.1-27.6,0.1c-3.4,0.1-6.9,0.6-10.2,1.4
			c-26.3,6.6-43.1,23.2-50.6,49.1c-5,17.3-2.4,34,6,49.8c0.7,1.4,1.3,3.1,1.3,4.6c0,2.5-2.1,4.5-4.5,5c-2.4,0.5-4.8-0.7-6.2-3.1
			c-4.2-7.3-7.1-15-8.8-23.2c-7.8-38.2,13.7-76.9,50.3-90.5c9.1-3.4,18.5-4.8,28.2-4.8c6.6,0,13.1,0,19.7,0c0.6,0,1.2,0,2.2,0
			c-0.6-0.7-0.9-1.1-1.3-1.5c-2.4-2.4-4.8-4.7-7.1-7.2c-1.7-1.8-2.2-4-1.1-6.3c1-2.2,2.7-3.1,5.2-3.1c1.9,0,3.4,0.6,4.7,2
			C129.3,11.2,135,16.9,140.7,22.6z"/>
	</g>
	<g>
	</g>
</g>
<path class="st2" d="M123.5,32.2c-9.6,0-18.6-0.1-27.6,0.1c-3.4,0.1-6.9,0.6-10.2,1.4c-26.3,6.6-43.1,23.2-50.6,49.1
	c-5,17.3-2.4,34,6,49.8c0.7,1.4,1.3,3.1,1.3,4.6c0,2.5-2.1,4.5-4.5,5c-2.4,0.5-4.8-0.7-6.2-3.1c-4.1-7.3-7.1-15-8.8-23.2
	c-7.8-38.2,13.7-76.9,50.3-90.5c9.1-3.4,18.5-4.8,28.2-4.8c6.5,0,13.1,0,19.6,0c0.6,0,1.2,0,2.2,0c-0.6-0.7-0.9-1.1-1.3-1.5
	c-2.4-2.4-4.8-4.7-7.1-7.2c-1.7-1.8-2.2-4-1.1-6.3c1-2.2,2.7-3.1,5.2-3.1c1.9,0,3.4,0.6,4.7,2c5.7,5.8,11.4,11.4,17.1,17.2
	c3.1,3.1,3.1,6.2,0,9.3c-5.7,5.8-11.5,11.5-17.3,17.3c-2.7,2.7-6.3,2.9-8.6,0.5c-2.4-2.4-2.2-5.9,0.6-8.6
	C118,37.5,120.6,35,123.5,32.2z"/>
<path class="st2" d="M77.9,179.8c2.8,2.7,5.6,5.3,8.3,8.1c3.1,3.3,1.7,8.4-2.7,9.5c-2.1,0.6-3.9,0-5.4-1.5
	c-6.1-6.1-12.3-12.2-18.3-18.4c-2.3-2.3-2.3-5.7,0-8.1c6-6.1,12.1-12.2,18.2-18.2c2.4-2.4,6-2.4,8.2-0.2c2.3,2.3,2.3,5.8-0.2,8.4
	c-2.2,2.3-4.5,4.5-6.7,6.8c-0.4,0.4-0.8,0.9-1.2,1.4c0.2,0.2,0.3,0.3,0.4,0.3c9.1-0.1,18.2,0.4,27.3-0.3c23-1.7,40.8-12.7,52.5-32.4
	c13.3-22.1,13.6-45,1.6-67.9c-1-1.9-1.7-3.7-1-5.8c0.8-2.2,2.4-3.6,4.8-3.8c2.6-0.2,4.5,1,5.8,3.3c5.4,9.5,9,19.7,9.8,30.6
	c2.5,33.8-10.9,59.7-39.7,77.5c-11.8,7.3-25,10.2-38.8,10.3c-6.9,0.1-13.9,0-20.8,0c-0.6,0-1.2,0-1.9,0
	C78.1,179.4,78,179.6,77.9,179.8z"/>
<path class="st3" d="M96.6,83.9c0-1.1,0-2.2,0-3.3c0-2.1,1.5-3.7,3.5-3.7c2,0,3.5,1.5,3.6,3.6c0,1.1,0,2.2,0,3.4c1.9,0,3.8,0,5.7,0
	c0.6,0,1.3,0,1.9,0c1.8,0.3,3.1,1.9,3,3.7c-0.1,1.9-1.6,3.4-3.6,3.4c-4.6,0-9.3,0-13.9,0c-2.4,0-4.1,2-3.6,4.3
	c0.3,1.6,1.7,2.8,3.5,2.8c2.4,0,4.8,0,7.2,0c5.4,0.1,9.7,4,10.4,9.5c0.6,5-2.8,9.9-7.8,11.3c-0.8,0.2-1.7,0.3-2.7,0.5
	c0,1.1,0,2.3,0,3.4c-0.1,2.1-1.7,3.6-3.7,3.5c-1.9-0.1-3.4-1.6-3.4-3.7c0-0.8,0-1.6,0-2.4c0-0.3,0-0.6,0-1.1c-2.4,0-4.7,0-7,0
	c-2.4,0-4-2.1-3.5-4.3c0.4-1.7,1.8-2.8,3.7-2.8c4.6,0,9.2,0,13.8,0c2.6,0,4.2-2.4,3.4-4.7c-0.5-1.4-1.8-2.3-3.5-2.3
	c-2.4,0-4.7,0-7.1,0c-5.3-0.1-9.8-4.2-10.4-9.3c-0.6-5.4,2.7-10.3,7.9-11.6C94.8,84.1,95.6,84,96.6,83.9z"/>
</svg>
