<?xml version="1.0" encoding="utf-8"?>
<!-- Generator: Adobe Illustrator 25.4.1, SVG Export Plug-In . SVG Version: 6.00 Build 0)  -->
<svg version="1.1" id="Capa_1" xmlns="http://www.w3.org/2000/svg" xmlns:xlink="http://www.w3.org/1999/xlink" x="0px" y="0px"
	 viewBox="0 0 200 200" style="enable-background:new 0 0 200 200;" xml:space="preserve">
<style type="text/css">
	.st0{fill:#AEEAFF;}
	.st1{fill:#E2E1FF;}
	.st2{fill:#D4D4FF;}
	.st3{fill:#EFEDFF;}
	.st4{fill:#55DAFE;}
	.st5{fill:#2ED0FC;}
	.st6{fill:#FFDDCF;}
	.st7{fill:#FFCBBE;}
	.st8{fill:#676FB2;}
	.st9{fill:#4C5699;}
	.st10{opacity:0.19;}
	.st11{fill:#FF8E9E;}
	.st12{fill:#313D40;}
	.st13{fill:#EA5B70;}
</style>
<rect x="-2" y="-4" class="st0" width="203.2" height="206"/>
<g id="Capa_3">
</g>
<g>
	<path class="st1" d="M127.95,146.02H100v38.53l16,10.06h21.54c5.56,0,10.07-4.51,10.07-10.07
		C147.61,168.89,139.96,154.76,127.95,146.02z"/>
	<g>
		<path class="st1" d="M100,160.22H70.47v28.18l6.22,6.22H84l16-10.06V160.22z"/>
		<path class="st2" d="M84,166.04h16v-20.02H72.06c-12.05,8.76-19.67,22.92-19.67,38.53c0,5.56,4.51,10.07,10.07,10.07h14.23
			C76.7,184.94,79.05,175.13,84,166.04L84,166.04z"/>
		<g>
			<path class="st3" d="M84,139.71c-4.32,1.55-8.33,3.69-11.93,6.31c-5.79,5.79-5.79,15.18,0,20.96L84,178.92h16v-39.21H84z"/>
			<path class="st3" d="M127.95,146.02c-3.62-2.63-7.63-4.76-11.94-6.31h-16v39.21h16l11.94-11.93
				C133.74,161.2,133.74,151.81,127.95,146.02z"/>
		</g>
	</g>
	<g>
		<g>
			<path class="st4" d="M86.68,151.88L84,166.04v28.58h32.01v-42.74H86.68z"/>
			<path class="st5" d="M84,151.88v14.16c2.01-3.69,4.39-7.15,7.11-10.34v-3.82H84z"/>
		</g>
		<g>
			<path class="st6" d="M114.11,139.08h-23v16.62c2.82,1.16,5.79,2.02,8.89,2.51c5.86-0.93,11.29-3.14,16-6.33v-12.16
				C115.38,139.49,114.74,139.28,114.11,139.08z"/>
			<path class="st7" d="M109.46,141.21c1.51-0.77,3.06-1.48,4.65-2.13c-4.53-1.41-9.28-2.14-14.1-2.14
				c-5.46,0-10.88,0.94-16.01,2.77v12.17c2.22,1.5,4.6,2.78,7.11,3.82C96.17,149.78,102.38,144.82,109.46,141.21L109.46,141.21z"/>
		</g>
	</g>
</g>
<g>
	<path class="st7" d="M42.93,70.74c-7.84,0-14.19,6.35-14.19,14.19s6.35,14.19,14.19,14.19s14.19-6.35,14.19-14.19
		c0-7.24-5.43-13.22-12.43-14.08C44.11,70.77,43.53,70.74,42.93,70.74z"/>
	<path class="st7" d="M157.07,70.74c-0.59,0-1.18,0.04-1.75,0.11c-7.01,0.86-12.44,6.84-12.44,14.08c0,7.84,6.35,14.19,14.19,14.19
		s14.19-6.35,14.19-14.19S164.9,70.74,157.07,70.74z"/>
</g>
<g>
	<path class="st6" d="M109.46,28.64h-10.9c-7.25,0-14.09,3.33-18.56,9.03L42.93,84.92l37.06,47.25c4.47,5.7,11.32,9.03,18.56,9.03
		h10.9c2.23-0.37,4.41-0.87,6.55-1.49c23.75-6.93,41.06-28.85,41.06-54.79c0-4.86-0.61-9.58-1.75-14.08
		C149.8,49.12,131.83,32.37,109.46,28.64L109.46,28.64z"/>
	<path class="st7" d="M61.85,84.92c0-28.29,20.59-51.78,47.61-56.29c-3.08-0.51-6.24-0.78-9.46-0.78
		c-26.66,0-49.04,18.28-55.31,42.99c-1.14,4.5-1.75,9.22-1.75,14.08c0,25.96,17.34,47.87,41.06,54.79c5.08,1.48,10.45,2.27,16,2.27
		c3.22,0,6.38-0.27,9.46-0.78C82.44,136.7,61.85,113.22,61.85,84.92L61.85,84.92z"/>
</g>
<g>
	<path class="st8" d="M155.55,57.11C145.22,36.42,123.92,22.82,100,22.82l-9.99,2.4v29.08l9.99,8.15
		c11.93,7.07,26.33,8.38,40.42,8.38h14.9C157.62,66.57,157.72,61.45,155.55,57.11z"/>
	<path class="st9" d="M100,22.82c-6.32,0-12.45,0.95-18.25,2.73c-1.6,0.49-2.73,1.75-3.13,3.23h-2c-2.29,0-4.53,0.58-6.53,1.69
		c-5.85,3.25-18.05,11.42-25.65,26.63c-2.17,4.34-2.06,9.46,0.24,13.73c6.27,0,12.14-2.3,16.63-6.79l11.11-11.11
		c3.37-3.37,7.86-5.13,12.39-5.13c4.29,6.54,9.45,11.26,15.18,14.65C89.05,51.51,89.05,33.77,100,22.82z"/>
</g>
<g class="st10">
	<ellipse class="st11" cx="68.89" cy="104.34" rx="11.36" ry="9.04"/>
	<ellipse class="st11" cx="131.06" cy="104.34" rx="11.4" ry="9.04"/>
</g>
<g>
	<path class="st12" d="M75.44,88.37c-1.43,0-2.59,1.16-2.59,2.59v4.72c0,1.43,1.16,2.59,2.59,2.59s2.59-1.16,2.59-2.59v-4.72
		C78.04,89.53,76.88,88.37,75.44,88.37z"/>
	<path class="st12" d="M124.56,88.37c-1.43,0-2.59,1.16-2.59,2.59v4.72c0,1.43,1.16,2.59,2.59,2.59s2.59-1.16,2.59-2.59v-4.72
		C127.15,89.53,125.99,88.37,124.56,88.37z"/>
	<path class="st12" d="M108.18,93.59c-1.08-0.94-2.72-0.83-3.66,0.25c-1.14,1.31-2.79,2.06-4.52,2.06s-3.38-0.75-4.52-2.06
		c-0.94-1.08-2.58-1.19-3.66-0.25c-1.08,0.94-1.19,2.58-0.25,3.66c2.13,2.44,5.2,3.84,8.43,3.84c3.23,0,6.3-1.4,8.43-3.84
		C109.37,96.17,109.26,94.53,108.18,93.59L108.18,93.59z"/>
</g>
<g>
	<path class="st11" d="M135.03,164.56h-2.12v-2.12c0-2.34-1.89-4.23-4.23-4.23c-2.34,0-4.23,1.89-4.23,4.23v10.58h10.58
		c2.34,0,4.23-1.89,4.23-4.23C139.26,166.45,137.36,164.56,135.03,164.56L135.03,164.56z"/>
	<path class="st13" d="M124.45,164.56h-2.12c-2.34,0-4.23,1.89-4.23,4.23s1.89,4.23,4.23,4.23h2.12v2.12c0,2.34,1.89,4.23,4.23,4.23
		c2.34,0,4.23-1.89,4.23-4.23v-2.12C128.24,173.02,124.45,169.23,124.45,164.56L124.45,164.56z"/>
</g>
</svg>
