<?xml version="1.0" encoding="utf-8"?>
<!-- Generator: Adobe Illustrator 25.4.1, SVG Export Plug-In . SVG Version: 6.00 Build 0)  -->
<svg version="1.1" id="Capa_1" xmlns="http://www.w3.org/2000/svg" xmlns:xlink="http://www.w3.org/1999/xlink" x="0px" y="0px"
	 viewBox="0 0 200 200" style="enable-background:new 0 0 200 200;" xml:space="preserve">
<style type="text/css">
	.st0{fill:#BEEFFC;}
	.st1{fill:#DAE3F7;}
	.st2{fill:#C5CCE8;}
	.st3{fill:#EAEEF9;}
	.st4{fill:#39C3FC;}
	.st5{fill:#2594EF;}
	.st6{fill:#FB5968;}
	.st7{fill:#1974D8;}
	.st8{fill:#A5B4D6;}
	.st9{fill:#95A7C6;}
	.st10{fill:#F3F7FF;}
	.st11{fill:#D3DCFB;}
	.st12{fill:#67D0F4;}
	.st13{fill:#1AA9E8;}
	.st14{fill:#1C8AE5;}
</style>
<rect x="-2" y="-3" class="st0" width="203.2" height="206"/>
<g id="Capa_3">
</g>
<g id="Hospital_Building">
	<path class="st1" d="M-103.1,55.1h31.4c1.2,0,2.2,1,2.2,2.2V138c0,1.2-1,2.2-2.2,2.2h-31.4c-1.2,0-2.2-1-2.2-2.2V57.4
		C-105.3,56.1-104.3,55.1-103.1,55.1z"/>
	<path class="st1" d="M-192.7,55.1h31.4c1.2,0,2.2,1,2.2,2.2V138c0,1.2-1,2.2-2.2,2.2h-31.4c-1.2,0-2.2-1-2.2-2.2V57.4
		C-194.9,56.1-193.9,55.1-192.7,55.1z"/>
	<path class="st2" d="M-199.4,43.9h38.1c1.2,0,2.2,1,2.2,2.2v11.2c0,1.2-1,2.2-2.2,2.2h-38.1c-1.2,0-2.2-1-2.2-2.2V46.2
		C-201.6,44.9-200.6,43.9-199.4,43.9z"/>
	<path class="st2" d="M-103.1,43.9H-65c1.2,0,2.2,1,2.2,2.2v11.2c0,1.2-1,2.2-2.2,2.2h-38.1c-1.2,0-2.2-1-2.2-2.2V46.2
		C-105.3,44.9-104.3,43.9-103.1,43.9z"/>
	<path class="st3" d="M-161.3,19.3h58.2c1.2,0,2.2,1,2.2,2.2V138c0,1.2-1,2.2-2.2,2.2h-58.2c-1.2,0-2.2-1-2.2-2.2V21.5
		C-163.6,20.3-162.6,19.3-161.3,19.3z"/>
	<path class="st4" d="M-145.6,104.4h26.9c1.2,0,2.2,1,2.2,2.2V138c0,1.2-1,2.2-2.2,2.2h-26.9c-1.2,0-2.2-1-2.2-2.2v-31.4
		C-147.9,105.4-146.9,104.4-145.6,104.4z"/>
	<path class="st5" d="M-132.2,140.2c-1.2,0-2.2-1-2.2-2.2v-31.4c0-1.2,1-2.2,2.2-2.2s2.2,1,2.2,2.2V138
		C-130,139.2-131,140.2-132.2,140.2z"/>
	<path class="st1" d="M-168,5.9h71.7c1.2,0,2.2,1,2.2,2.2v13.4c0,1.2-1,2.2-2.2,2.2H-168c-1.2,0-2.2-1-2.2-2.2V8.1
		C-170.3,6.9-169.3,5.9-168,5.9z"/>
	<g>
		<path class="st4" d="M-91.9,64.1h13.4c1.2,0,2.2,1,2.2,2.2v9c0,1.2-1,2.2-2.2,2.2h-13.4c-1.2,0-2.2-1-2.2-2.2v-9
			C-94.1,65.1-93.1,64.1-91.9,64.1z"/>
		<path class="st4" d="M-91.9,82h13.4c1.2,0,2.2,1,2.2,2.2v9c0,1.2-1,2.2-2.2,2.2h-13.4c-1.2,0-2.2-1-2.2-2.2v-9
			C-94.1,83-93.1,82-91.9,82z"/>
		<path class="st4" d="M-91.9,99.9h13.4c1.2,0,2.2,1,2.2,2.2v9c0,1.2-1,2.2-2.2,2.2h-13.4c-1.2,0-2.2-1-2.2-2.2v-9
			C-94.1,100.9-93.1,99.9-91.9,99.9z"/>
		<path class="st4" d="M-91.9,117.8h13.4c1.2,0,2.2,1,2.2,2.2v9c0,1.2-1,2.2-2.2,2.2h-13.4c-1.2,0-2.2-1-2.2-2.2v-9
			C-94.1,118.8-93.1,117.8-91.9,117.8z"/>
		<path class="st4" d="M-185.9,64.1h13.4c1.2,0,2.2,1,2.2,2.2v9c0,1.2-1,2.2-2.2,2.2h-13.4c-1.2,0-2.2-1-2.2-2.2v-9
			C-188.2,65.1-187.2,64.1-185.9,64.1z"/>
		<path class="st4" d="M-185.9,82h13.4c1.2,0,2.2,1,2.2,2.2v9c0,1.2-1,2.2-2.2,2.2h-13.4c-1.2,0-2.2-1-2.2-2.2v-9
			C-188.2,83-187.2,82-185.9,82z"/>
		<path class="st4" d="M-185.9,99.9h13.4c1.2,0,2.2,1,2.2,2.2v9c0,1.2-1,2.2-2.2,2.2h-13.4c-1.2,0-2.2-1-2.2-2.2v-9
			C-188.2,100.9-187.2,99.9-185.9,99.9z"/>
		<path class="st4" d="M-185.9,117.8h13.4c1.2,0,2.2,1,2.2,2.2v9c0,1.2-1,2.2-2.2,2.2h-13.4c-1.2,0-2.2-1-2.2-2.2v-9
			C-188.2,118.8-187.2,117.8-185.9,117.8z"/>
	</g>
	<path class="st6" d="M-121,37.2h-6.7v-6.7c0-1.2-1-2.2-2.2-2.2h-4.5c-1.2,0-2.2,1-2.2,2.2v6.7h-6.7c-1.2,0-2.2,1-2.2,2.2v4.5
		c0,1.2,1,2.2,2.2,2.2h6.7v6.7c0,1.2,1,2.2,2.2,2.2h4.5c1.2,0,2.2-1,2.2-2.2v-6.7h6.7c1.2,0,2.2-1,2.2-2.2v-4.5
		C-118.8,38.2-119.8,37.2-121,37.2z"/>
	<path class="st4" d="M-127.7,59.6h15.7c1.2,0,2.2,1,2.2,2.2v9c0,1.2-1,2.2-2.2,2.2h-15.7c-1.2,0-2.2-1-2.2-2.2v-9
		C-130,60.6-129,59.6-127.7,59.6z"/>
	<path class="st4" d="M-152.4,59.6h15.7c1.2,0,2.2,1,2.2,2.2v9c0,1.2-1,2.2-2.2,2.2h-15.7c-1.2,0-2.2-1-2.2-2.2v-9
		C-154.6,60.6-153.6,59.6-152.4,59.6z"/>
	<path class="st4" d="M-127.7,77.5h15.7c1.2,0,2.2,1,2.2,2.2v9c0,1.2-1,2.2-2.2,2.2h-15.7c-1.2,0-2.2-1-2.2-2.2v-9
		C-130,78.5-129,77.5-127.7,77.5z"/>
	<path class="st4" d="M-152.4,77.5h15.7c1.2,0,2.2,1,2.2,2.2v9c0,1.2-1,2.2-2.2,2.2h-15.7c-1.2,0-2.2-1-2.2-2.2v-9
		C-154.6,78.5-153.6,77.5-152.4,77.5z"/>
	<path class="st2" d="M-201.6,135.6h138.8c1.3,0,2.3,1,2.3,2.3v9c0,1.3-1,2.3-2.3,2.3h-138.8c-1.3,0-2.3-1-2.3-2.3v-9
		C-204,136.7-202.9,135.6-201.6,135.6z"/>
	<path class="st7" d="M-150.1,95.4h35.8c1.2,0,2.2,1,2.2,2.2v6.7c0,1.2-1,2.2-2.2,2.2h-35.8c-1.2,0-2.2-1-2.2-2.2v-6.7
		C-152.4,96.4-151.4,95.4-150.1,95.4z"/>
</g>
<g>
	<path class="st8" d="M141,66.5c-0.5,0-0.9-0.2-1.3-0.5c-0.7-0.7-0.7-1.9,0-2.6l19.8-19.8c0.7-0.7,1.9-0.7,2.6,0
		c0.7,0.7,0.7,1.9,0,2.6L142.2,66C141.9,66.3,141.4,66.5,141,66.5z"/>
</g>
<path class="st9" d="M141.8,75.4l-11.5-11.5l7.9-5.7c1.1-0.8,2.5-0.7,3.4,0.3l5.7,5.7c0.9,0.9,1,2.4,0.3,3.4L141.8,75.4z"/>
<g>
	<path class="st10" d="M66.3,152.4l-10.3-10.5L71.2,126l9.5,12L66.3,152.4z"/>
</g>
<path class="st11" d="M89.1,129.6L76,116.5l-22.8,22.8l3.1,3.1l13.2-13.2c0.6-0.6,1.6-0.6,2.2,0c0.6,0.6,0.6,1.6,0,2.2l-13.4,13.4
	c-0.7,0.7-0.7,1.9,0,2.6c0.4,0.4,0.8,0.5,1.3,0.5s0.9-0.2,1.3-0.5l11.9-11.9c1.4-1.4,3.7-1.4,5.1,0l2.7,2.7L89.1,129.6z"/>
<g>
	<path class="st10" d="M129.3,62.3c-2.8-2.8-6.2-0.6-9,2.3L101,86.4l0.3,1.4l21.3,8l21.4-8.1l1.2-1.2c2.8-2.8,2.8-7.5,0-10.3
		L133,64.1L129.3,62.3z"/>
</g>
<g>
	<path class="st12" d="M94.4,92l-21.2,16.9L98,133.7l7.6-7.6l-0.3-3l2.8,0.4l4.8-4.8l-0.1-2.8l2.7,0.3l4.8-4.8l0.2-2.4l2.3-0.2
		l21-21l-42.6,0.1L94.4,92z"/>
</g>
<g>
	<path class="st11" d="M129.4,60.5c-2.8-2.8-7.5-2.8-10.3,0L91.7,87.9l2.7,2.3l6.9-2.3l22.6-22.6c2.8-2.8,7.5-2.8,10.3,0L129.4,60.5
		z"/>
</g>
<g>
	<path class="st13" d="M76.8,112.4l24.5-24.5h-9.6L72,107.6L76.8,112.4z"/>
</g>
<g>
	<path class="st8" d="M73.3,156.4l-19.4-19.4c-1.7-1.7-6.6-3.5-8.2-1.9l-2.1,2.1c-1.7,1.7,0.7,6.4,2.4,8.1l19.2,19.2
		c1.7,1.7,4.4,1.7,6.1,0l2.1-2.1C74.9,160.8,74.9,158.1,73.3,156.4L73.3,156.4z"/>
</g>
<g>
	<path class="st9" d="M48.5,140l0.5-0.5c2-2.1,5.2-2.1,7.1,0l-5.6-6c-1.6-1.7-4.1-1.7-5.7,0l-2,2.1c-1.6,1.7-1.6,4.4,0,6.1l5.6,6
		C46.5,145.6,46.5,142.1,48.5,140z"/>
</g>
<g>
	<path class="st8" d="M105.5,137l-31.9-31.9l-5.1-3.4c-1.9-1.9-2.9-1.3-4.8,0.6l-1.7,1.5c-1.9,1.9-3.5,2-1.5,3.9l3.9,6.9l31.7,31.7
		c1.9,1.9,5.1,1.9,7,0l2.4-2.4C107.4,142,107.4,138.9,105.5,137L105.5,137z"/>
</g>
<g>
	<path class="st9" d="M65.3,106.8l0.6-0.6c2.4-2.4,6.4-2.4,8.9,0l-6.1-6.1c-1.9-1.9-5.1-1.9-7,0l-2.4,2.4c-1.9,1.9-1.9,5.1,0,7
		l6.1,6.1C62.8,113.2,62.8,109.2,65.3,106.8z"/>
</g>
<g>
	<path class="st14" d="M117.4,103.2c-0.7-0.7-1.9-0.7-2.6,0c-0.7,0.7-0.7,1.9,0,2.6l5.5,5.5l2.6-2.6L117.4,103.2z"/>
	<path class="st14" d="M110,110.6c-0.7-0.7-1.9-0.7-2.6,0c-0.7,0.7-0.7,1.9,0,2.6l5.5,5.5l2.6-2.6L110,110.6z"/>
	<path class="st14" d="M102.7,117.9c-0.7-0.7-1.9-0.7-2.6,0c-0.7,0.7-0.7,1.9,0,2.6l5.6,5.5l2.6-2.6L102.7,117.9z"/>
</g>
</svg>
