<?xml version="1.0" encoding="utf-8"?>
<!-- Generator: Adobe Illustrator 25.4.1, SVG Export Plug-In . SVG Version: 6.00 Build 0)  -->
<svg version="1.1" id="Capa_1" xmlns="http://www.w3.org/2000/svg" xmlns:xlink="http://www.w3.org/1999/xlink" x="0px" y="0px"
	 viewBox="0 0 600.4 256" style="enable-background:new 0 0 600.4 256;" xml:space="preserve">
<style type="text/css">
	.st0{fill:#3366CC;}
	.st1{fill:#E2E2E2;}
	.st2{fill:#F15642;}
	.st3{fill:#BE4030;}
	.st4{fill:#B7B7B7;}
	.st5{fill:#FFFFFF;}
</style>
<path class="st0" d="M569.6,255.2H31.7c-15.6,0-28.3-12.7-28.3-28.3V31.8c0-15.6,12.7-28.3,28.3-28.3h537.8
	c15.6,0,28.3,12.7,28.3,28.3V227C597.8,242.5,585.1,255.2,569.6,255.2z"/>
<g>
	<g transform="translate(1.4065934065934016 1.4065934065934016) scale(2.81 2.81)">
		<path class="st1" d="M91.2,29.6v47.7c0,2.4-1.9,4.3-4.3,4.3H38.7c-2.4,0-4.3-1.9-4.3-4.3V66.5V12.6c0-2.4,1.9-4.3,4.3-4.3h31.2
			C76.6,8.4,91.2,21.3,91.2,29.6z"/>
		<path class="st2" d="M34.4,26.1h32.8c2.6,0,4.7,2.1,4.7,4.7v14.9c0,2.6-2.1,4.7-4.7,4.7h-39c-2.6,0-4.7-2.1-4.7-4.7V21.3"/>
		<path class="st3" d="M23.5,21.3c0,2.6,2.1,4.7,4.7,4.7h6.2v-9.2h-6.2c-2.6,0-4.7,2.1-4.7,4.7"/>
		<path class="st4" d="M69.9,8.3h5.4c2.3,0,4.5,0.9,6.1,2.5l7.2,7.2c1.6,1.6,2.5,3.8,2.5,6.1v5.4c0-2.8-2.3-5-5-5h-6.4
			c-2.7,0-4.8-2.2-4.8-4.8v-6.4l0,0C75,10.5,72.7,8.3,69.9,8.3L69.9,8.3z"/>
		<path class="st5" d="M37.6,30.8h-4.5c-0.7,0-1.2,0.5-1.2,1.2v7.4v5.1c0,0.7,0.5,1.2,1.2,1.2c0.7,0,1.2-0.5,1.2-1.2v-3.9h3.2
			c1.9,0,3.4-1.5,3.4-3.4v-3.1C40.9,32.3,39.4,30.8,37.6,30.8z M38.5,37.3c0,0.5-0.4,0.9-0.9,0.9h-3.2v-5h3.2c0.5,0,0.9,0.4,0.9,0.9
			V37.3z"/>
		<path class="st5" d="M48.9,30.8h-4.3c-0.7,0-1.2,0.5-1.2,1.2v12.5c0,0.7,0.5,1.2,1.2,1.2h4.3c2,0,3.6-1.6,3.6-3.6v-7.8
			C52.4,32.4,50.8,30.8,48.9,30.8z M50,42.2c0,0.6-0.5,1.1-1.1,1.1h-3v-10h3c0.6,0,1.1,0.5,1.1,1.1V42.2z"/>
		<path class="st5" d="M62.9,30.8h-6.6c-0.7,0-1.2,0.5-1.2,1.2v12.5c0,0.7,0.5,1.2,1.2,1.2s1.2-0.5,1.2-1.2v-5h3.1
			c0.7,0,1.2-0.5,1.2-1.2c0-0.7-0.5-1.2-1.2-1.2h-3.1v-3.8h5.4c0.7,0,1.2-0.5,1.2-1.2C64.2,31.3,63.6,30.8,62.9,30.8z"/>
		<path class="st4" d="M57.5,67.1c-0.5-0.5-1.3-0.5-1.7,0l-4.3,4.3V58.6c0-0.7-0.5-1.2-1.2-1.2S49,57.9,49,58.6v12.7l-4.3-4.3
			c-0.5-0.5-1.3-0.5-1.7,0c-0.5,0.5-0.5,1.3,0,1.7l5.1,5.1c0.5,0.5,1.2,0.8,1.8,0.8c0.1,0,0.2,0,0.2,0s0.2,0,0.2,0
			c0.7-0.1,1.3-0.3,1.8-0.8l5.1-5.1C58,68.3,58,67.5,57.5,67.1z"/>
	</g>
	<g>
		<path class="st5" d="M355.8,181.8c-2.2,0-4.1-0.5-5.5-1.6c-1.5-1.1-2.6-2.6-3.6-4.8L306,83.4c-0.8-2.1-1-3.9-0.6-5.4
			c0.4-1.5,1.2-2.7,2.5-3.6c1.3-0.9,2.8-1.3,4.6-1.3c2.3,0,4.1,0.5,5.3,1.5c1.2,1,2.2,2.5,3,4.5l38.1,88.3h-5.6L391.1,79
			c0.9-1.9,2-3.4,3.3-4.4c1.3-1,3-1.5,5.2-1.5c1.8,0,3.3,0.4,4.5,1.3c1.2,0.9,1.9,2,2.2,3.6c0.3,1.5,0,3.3-0.9,5.4l-40.5,92.1
			c-0.9,2.1-2.1,3.7-3.5,4.8C359.9,181.2,358.1,181.8,355.8,181.8z"/>
		<path class="st5" d="M444.8,182.1c-8.1,0-15-1.5-20.8-4.6c-5.8-3.1-10.3-7.5-13.5-13.2c-3.2-5.7-4.8-12.5-4.8-20.3
			c0-7.7,1.6-14.4,4.7-20.1c3.1-5.7,7.4-10.2,12.9-13.5c5.4-3.2,11.6-4.8,18.6-4.8c5.1,0,9.7,0.8,13.8,2.5c4,1.7,7.5,4.1,10.4,7.3
			c2.9,3.2,5,7,6.5,11.6c1.5,4.5,2.2,9.6,2.2,15.3c0,1.7-0.5,3-1.5,3.9c-1,0.9-2.5,1.3-4.5,1.3h-50.8v-9.4h46.6l-2.6,2.1
			c0-5-0.7-9.3-2.2-12.8c-1.5-3.5-3.6-6.2-6.5-8.1c-2.9-1.9-6.4-2.8-10.7-2.8c-4.7,0-8.7,1.1-12,3.3c-3.3,2.2-5.8,5.3-7.5,9.2
			c-1.7,3.9-2.6,8.5-2.6,13.8v0.9c0,8.9,2.1,15.5,6.3,20c4.2,4.5,10.3,6.7,18.2,6.7c3,0,6.2-0.4,9.6-1.2c3.4-0.8,6.6-2.2,9.6-4.1
			c1.7-1,3.3-1.5,4.6-1.4c1.4,0.1,2.5,0.6,3.3,1.4c0.9,0.8,1.4,1.8,1.6,3c0.2,1.2,0,2.4-0.6,3.7c-0.6,1.3-1.7,2.4-3.2,3.4
			c-3.4,2.3-7.4,4.1-11.9,5.2C453.4,181.5,449,182.1,444.8,182.1z"/>
		<path class="st5" d="M499.1,181.8c-2.5,0-4.4-0.7-5.7-2c-1.3-1.4-2-3.2-2-5.7v-60.5c0-2.5,0.7-4.4,2-5.7c1.3-1.3,3.1-2,5.4-2
			c2.4,0,4.3,0.7,5.5,2c1.3,1.3,1.9,3.2,1.9,5.7v11h-1.5c1.6-6,4.6-10.6,8.9-13.8c4.3-3.1,9.9-4.9,16.6-5.4c1.8-0.1,3.3,0.4,4.3,1.4
			c1.1,1,1.6,2.6,1.7,4.7c0.2,2.1-0.3,3.8-1.4,5.1c-1.1,1.3-2.8,2-5.1,2.2l-2.9,0.3c-6.6,0.6-11.5,2.7-15,6.2
			c-3.4,3.5-5.1,8.4-5.1,14.5v34.3c0,2.4-0.6,4.3-1.9,5.7C503.6,181.1,501.7,181.8,499.1,181.8z"/>
	</g>
</g>
</svg>
