<?xml version="1.0" encoding="utf-8"?>
<!-- Generator: Adobe Illustrator 24.1.3, SVG Export Plug-In . SVG Version: 6.00 Build 0)  -->
<svg version="1.1" id="Capa_1" xmlns="http://www.w3.org/2000/svg" xmlns:xlink="http://www.w3.org/1999/xlink" x="0px" y="0px"
	 viewBox="0 0 290.8 103.1" style="enable-background:new 0 0 290.8 103.1;" xml:space="preserve">
<style type="text/css">
	.st0{fill:#4A81BA;}
	.st1{fill:#8DBA3B;}
	.st2{fill:#CA312B;}
	.st3{fill:#EEA759;}
	.st4{fill:#794C85;}
	.st5{fill:#B12470;}
	.st6{fill:#FEEB13;}
	.st7{fill:#1E5A7C;}
	.st8{fill:#A9D0F5;}
	.st9{fill:#2F67C1;}
</style>
<g>
	<ellipse class="st9" cx="48.6" cy="40.4" rx="4.4" ry="5.8"/>
	<path class="st9" d="M33.9,74.7c0,0,1.8-5.7,4.8-11.7c2.5-4.9,5.9-9.3,10.1-12.8c5.3-4.4,14.6-12.9,15.9-18.5c0,0,1.7,9.4-6.7,20
		c-0.7,0.9-1.1,2.1-0.9,3.3c1,6.5,3.4,27.9-4,37.7c0,0,3-13.8-0.7-18.9c0,0-8.4,19.6-14.5,21.5c0,0,11.1-16,8.2-31.5
		c-0.1-0.7-0.8-1.1-1.5-0.8C42.8,63.8,39.1,66.3,33.9,74.7z"/>
</g>
<path class="st1" d="M13.4,43.9c0,0,6.5-7.9,14,0C27.4,43.9,20.8,51.4,13.4,43.9z"/>
<path class="st2" d="M21.8,54.4c0,0,1.9-8.5,10.2-4.7C32,49.6,30,57.7,21.8,54.4z"/>
<path class="st3" d="M22.8,29.9c0,0,8-2.3,8.7,6.4C31.5,36.3,23.7,38.3,22.8,29.9z"/>
<path class="st2" d="M39.3,15.7c0,0,7.7,3.2,2.7,10.5C42,26.1,34.7,22.8,39.3,15.7z"/>
<path class="st3" d="M62.1,15.5c0,0,3.9,7.4-4.5,9.8C57.5,25.3,54,18.1,62.1,15.5z"/>
<path class="st4" d="M62.1,30.9c0,0,1.2,5.7-4.9,5.7C57.2,36.6,56.2,31.1,62.1,30.9z"/>
<path class="st4" d="M84.6,33.8c0,0-0.8,4.3-5.1,2.6C79.5,36.4,80.4,32.2,84.6,33.8z"/>
<path class="st5" d="M68.6,13.1c0,0,1.5,4.1-3.1,4.8C65.5,17.9,64.2,13.9,68.6,13.1z"/>
<path class="st3" d="M58.6,9.1c0,0,2.5,3.6-1.7,5.4C56.9,14.5,54.6,11,58.6,9.1z"/>
<path class="st4" d="M41.8,9.2c0,0,4.2,1.2,2.1,5.3C43.9,14.4,39.8,13.2,41.8,9.2z"/>
<path class="st3" d="M31.7,13.3c0,0,4.4-0.1,3.5,4.4C35.3,17.8,31,17.7,31.7,13.3z"/>
<path class="st1" d="M19.9,23.4c0,0,4.1-1.6,4.9,2.9C24.7,26.3,20.8,27.8,19.9,23.4z"/>
<path class="st4" d="M15.5,34.1c0,0,3.8-2.2,5.2,2.2C20.7,36.2,17,38.2,15.5,34.1z"/>
<path class="st5" d="M79.8,23.6c0,0-0.4,3.7-4.1,2.5C75.8,26.1,76.2,22.6,79.8,23.6z"/>
<path class="st5" d="M19.4,50c0,0-0.9,3.6-4.4,1.9C15,51.9,15.9,48.5,19.4,50z"/>
<path class="st4" d="M42.8,50.9c0,0,0.1,3.7-3.7,3C39.1,53.9,39.1,50.3,42.8,50.9z"/>
<path class="st2" d="M33.9,69.5c0,0,0.1,3.7-3.7,3C30.2,72.5,30.2,69,33.9,69.5z"/>
<path class="st4" d="M23.4,59c0,0-0.3,4.2-4.5,2.9C18.8,62,19.2,58,23.4,59z"/>
<path class="st5" d="M81.2,61.6c0,0-3.5,1.2-4-2.6C77.2,59,80.6,57.9,81.2,61.6z"/>
<path class="st5" d="M68.4,73.9c0,0-4.3,0.7-4.1-3.9C64.3,70,68.4,69.5,68.4,73.9z"/>
<path class="st2" d="M69.2,47c0,0-3.4,1.4-4.1-2.4C65,44.6,68.4,43.4,69.2,47z"/>
<path class="st5" d="M42.7,36.5c0,0-5.8,0.5-5.1-5.6C37.6,31,43.2,30.6,42.7,36.5z"/>
<path class="st4" d="M33.5,45.9c0,0,3.1-5.4,8-1.1C41.5,44.9,38.4,50,33.5,45.9z"/>
<path class="st1" d="M50.6,31.1c0,0-4.4-4.4,1.1-8C51.7,23.2,55.8,27.5,50.6,31.1z"/>
<path class="st6" d="M25.3,16.8c0,0,10.3-0.7,9.6,10.2C34.9,27,25,27.4,25.3,16.8z"/>
<g>
	<path class="st6" d="M23.9,68.9c0,0-1.5-9.8,8.9-9.2C32.9,59.7,34,69.2,23.9,68.9z"/>
	<path class="st6" d="M84.7,51.4c0,0-3.1,1.9-4.5-1.7C80.3,49.6,83.3,47.9,84.7,51.4z"/>
	<path class="st6" d="M63,57.9c0,0-3.5,1.2-4-2.6C59,55.3,62.4,54.2,63,57.9z"/>
	<path class="st6" d="M49.7,7.6c0,0,7.4,6.4-0.4,13.3C49.3,20.9,42.4,14.5,49.7,7.6z"/>
</g>
<path class="st1" d="M86.1,43.3c0,0-5.9,7.8-13.3,0.5C72.8,43.8,78.7,36.5,86.1,43.3z"/>
<path class="st6" d="M76.9,69.1c0,0-9.7,1.3-9.8-9C67.1,60.1,76.5,59.1,76.9,69.1z"/>
<path class="st3" d="M77.3,53.9c0,0-6.4,2.8-8.5-4.3C68.8,49.6,75.1,47.1,77.3,53.9z"/>
<path class="st2" d="M76.9,29.6c0,0-0.4,8.3-9.1,6.7C67.7,36.4,68.4,28.4,76.9,29.6z"/>
<path class="st1" d="M74.9,17.1c0,0,1.6,9.6-8.7,10C66.1,27.1,64.9,17.8,74.9,17.1z"/>
<g>
	<path class="st9" d="M101.5,36.6c-0.8-0.3-1.6-0.7-2.2-1.2s-1.1-1.1-1.5-1.7s-0.5-1.4-0.5-2.3c0-0.9,0.2-1.7,0.6-2.4
		c0.4-0.7,0.9-1.4,1.5-1.9c0.6-0.5,1.3-0.9,2.2-1.2s1.7-0.4,2.5-0.4c0.6,0,1.3,0.1,1.9,0.2c0.6,0.1,1.2,0.3,1.7,0.6
		c0.5,0.3,1,0.6,1.5,1c0.4,0.4,0.8,0.8,1.1,1.3c0.1,0.2,0.2,0.3,0.2,0.5c0,0.2,0,0.3,0,0.5c0,0.2-0.1,0.3-0.2,0.4s-0.2,0.2-0.3,0.3
		c-0.1,0.1-0.2,0.2-0.4,0.3c-0.2,0.1-0.3,0.1-0.5,0.1c-0.2,0-0.4,0-0.5,0c-0.2,0-0.4-0.1-0.5-0.3c-0.3-0.3-0.6-0.5-0.8-0.7
		c-0.3-0.2-0.5-0.4-0.8-0.5c-0.3-0.1-0.6-0.2-0.9-0.3c-0.3-0.1-0.7-0.1-1.2-0.1c-0.5,0-0.9,0.1-1.4,0.2c-0.4,0.1-0.8,0.3-1.1,0.5
		c-0.3,0.2-0.6,0.5-0.8,0.9c-0.2,0.3-0.3,0.7-0.3,1.1c0,0.5,0.1,0.9,0.4,1.2s0.6,0.6,1,0.8c0.4,0.2,0.9,0.4,1.5,0.5s1.2,0.3,1.8,0.4
		c0.8,0.2,1.5,0.5,2.2,0.8c0.7,0.3,1.4,0.7,1.9,1.1c0.6,0.5,1,1,1.4,1.6c0.3,0.6,0.5,1.4,0.5,2.3c0,0.9-0.2,1.8-0.5,2.5
		c-0.4,0.8-0.9,1.4-1.5,2c-0.6,0.6-1.4,1-2.3,1.3c-0.9,0.3-1.8,0.5-2.8,0.5c-0.8,0-1.6-0.1-2.3-0.3c-0.7-0.2-1.4-0.5-2-0.9
		c-0.6-0.4-1.1-0.8-1.6-1.3c-0.5-0.5-0.8-1-1.1-1.6c-0.1-0.3-0.2-0.5-0.2-0.7c0-0.2,0-0.4,0.1-0.6c0.1-0.2,0.2-0.4,0.3-0.5
		c0.1-0.1,0.3-0.3,0.5-0.4c0.4-0.2,0.8-0.3,1.1-0.1c0.3,0.1,0.7,0.4,1.1,0.9c0.5,0.7,1,1.3,1.8,1.6c0.7,0.4,1.6,0.6,2.5,0.6
		c0.5,0,0.9-0.1,1.4-0.2s0.9-0.3,1.2-0.6c0.4-0.3,0.7-0.6,0.9-0.9c0.2-0.4,0.3-0.8,0.3-1.3c0-0.5-0.1-0.9-0.3-1.2s-0.5-0.6-0.9-0.8
		s-0.8-0.4-1.2-0.5c-0.5-0.1-0.9-0.3-1.4-0.4C103.2,37.2,102.3,36.9,101.5,36.6z"/>
	<path class="st9" d="M124.6,40.5h-8.2l-2,4.8c-0.1,0.2-0.2,0.4-0.4,0.5c-0.2,0.1-0.3,0.3-0.5,0.3c-0.2,0.1-0.4,0.1-0.6,0.1
		c-0.2,0-0.4,0-0.7-0.1c-0.4-0.2-0.7-0.5-0.8-0.9c-0.1-0.4-0.1-0.8,0.1-1.2l7.5-17.5c0.1-0.3,0.3-0.6,0.6-0.7
		c0.3-0.2,0.5-0.3,0.9-0.3c0.3,0,0.6,0.1,0.9,0.3s0.5,0.4,0.6,0.7l7.5,17.5c0.2,0.4,0.2,0.8,0.1,1.2c-0.1,0.4-0.4,0.7-0.8,0.9
		c-0.2,0.1-0.4,0.1-0.6,0.2c-0.2,0-0.4,0-0.6-0.1c-0.2-0.1-0.4-0.2-0.5-0.3c-0.2-0.1-0.3-0.3-0.4-0.5L124.6,40.5z M117.8,37.3h5.5
		l-2.7-6.6L117.8,37.3z"/>
	<path class="st9" d="M134.4,43.1l6.7,0c0.5,0,0.8,0.2,1.1,0.5c0.3,0.3,0.5,0.7,0.5,1.1c0,0.2,0,0.4-0.1,0.6
		c-0.1,0.2-0.2,0.4-0.3,0.5c-0.1,0.1-0.3,0.3-0.5,0.3s-0.4,0.1-0.6,0.1h-8.5l-0.1,0c-0.4-0.1-0.7-0.3-0.9-0.5
		c-0.2-0.3-0.4-0.6-0.4-1V27.1c0-0.2,0-0.4,0.1-0.6c0.1-0.2,0.2-0.4,0.3-0.5c0.1-0.1,0.3-0.3,0.5-0.3s0.4-0.1,0.6-0.1
		c0.2,0,0.4,0,0.6,0.1s0.4,0.2,0.5,0.3c0.1,0.1,0.3,0.3,0.3,0.5c0.1,0.2,0.1,0.4,0.1,0.6L134.4,43.1L134.4,43.1z"/>
	<path class="st9" d="M155.5,26.5c0.1-0.2,0.2-0.4,0.3-0.5c0.1-0.1,0.3-0.3,0.5-0.3c0.2-0.1,0.4-0.1,0.6-0.1c0.5,0,0.8,0.2,1.1,0.5
		c0.3,0.3,0.5,0.7,0.5,1.1v11.8c0,1.1-0.2,2-0.5,2.9c-0.4,0.9-0.9,1.7-1.5,2.4c-0.7,0.7-1.4,1.2-2.4,1.6c-0.9,0.4-1.9,0.6-3,0.6
		c-1.1,0-2.1-0.2-3.1-0.6c-0.9-0.4-1.8-0.9-2.4-1.6c-0.7-0.7-1.2-1.5-1.6-2.4c-0.4-0.9-0.6-1.9-0.6-2.9V27.2c0-0.2,0-0.4,0.1-0.6
		c0.1-0.2,0.2-0.4,0.3-0.5c0.1-0.1,0.3-0.3,0.5-0.3c0.2-0.1,0.4-0.1,0.6-0.1c0.2,0,0.4,0,0.6,0.1c0.2,0.1,0.4,0.2,0.5,0.3
		c0.1,0.1,0.3,0.3,0.3,0.5s0.1,0.4,0.1,0.6v11.6c0,0.6,0.1,1.2,0.3,1.7c0.2,0.5,0.5,1,0.9,1.4s0.9,0.7,1.4,1
		c0.5,0.3,1.2,0.4,1.8,0.4s1.3-0.1,1.8-0.4c0.5-0.2,1-0.6,1.4-1c0.4-0.4,0.7-0.9,0.9-1.4c0.2-0.5,0.3-1.1,0.3-1.7V27.1
		C155.4,26.9,155.4,26.7,155.5,26.5z"/>
	<path class="st9" d="M166.4,25.5c1,0,1.9,0.1,2.8,0.4c0.9,0.3,1.7,0.6,2.5,1c0.8,0.5,1.5,1,2.1,1.6c0.6,0.6,1.2,1.3,1.6,2.1
		s0.8,1.6,1.1,2.5c0.3,0.9,0.4,1.8,0.4,2.8s-0.1,1.9-0.4,2.8c-0.3,0.9-0.6,1.7-1.1,2.5c-0.5,0.8-1,1.5-1.6,2.1
		c-0.6,0.6-1.3,1.2-2.1,1.6c-0.8,0.4-1.6,0.8-2.5,1c-0.9,0.3-1.8,0.4-2.8,0.4h-3.5c-0.5,0-0.8-0.2-1.1-0.5c-0.3-0.3-0.5-0.7-0.5-1.1
		V27.1c0-0.5,0.2-0.8,0.5-1.1s0.7-0.5,1.1-0.5H166.4z M166.5,28.8h-2v14.3h1.9c1,0,2-0.2,2.8-0.5s1.6-0.8,2.3-1.5
		c0.7-0.6,1.2-1.4,1.5-2.2c0.4-0.9,0.6-1.8,0.6-2.8c0-1-0.2-1.9-0.6-2.8c-0.4-0.9-0.9-1.6-1.5-2.3s-1.4-1.1-2.3-1.5
		C168.4,29,167.5,28.8,166.5,28.8z"/>
	<path class="st9" d="M190.3,25.5c1,0,1.9,0.1,2.8,0.4c0.9,0.3,1.7,0.6,2.5,1c0.8,0.5,1.5,1,2.1,1.6c0.6,0.6,1.2,1.3,1.6,2.1
		s0.8,1.6,1.1,2.5c0.3,0.9,0.4,1.8,0.4,2.8s-0.1,1.9-0.4,2.8c-0.3,0.9-0.6,1.7-1.1,2.5c-0.5,0.8-1,1.5-1.6,2.1
		c-0.6,0.6-1.3,1.2-2.1,1.6c-0.8,0.4-1.6,0.8-2.5,1c-0.9,0.3-1.8,0.4-2.8,0.4h-3.5c-0.5,0-0.8-0.2-1.1-0.5c-0.3-0.3-0.5-0.7-0.5-1.1
		V27.1c0-0.5,0.2-0.8,0.5-1.1c0.3-0.3,0.7-0.5,1.1-0.5H190.3z M190.4,28.8h-2v14.3h1.9c1,0,2-0.2,2.8-0.5c0.9-0.4,1.6-0.8,2.3-1.5
		c0.7-0.6,1.2-1.4,1.5-2.2c0.4-0.9,0.6-1.8,0.6-2.8c0-1-0.2-1.9-0.6-2.8c-0.4-0.9-0.9-1.6-1.5-2.3c-0.6-0.6-1.4-1.1-2.3-1.5
		C192.3,29,191.4,28.8,190.4,28.8z"/>
	<path class="st9" d="M206,44.7c0,0.5-0.2,0.8-0.5,1.1c-0.3,0.3-0.7,0.5-1.1,0.5s-0.8-0.2-1.1-0.5c-0.3-0.3-0.5-0.7-0.5-1.1V27.1
		c0-0.5,0.2-0.8,0.5-1.1c0.3-0.3,0.7-0.5,1.1-0.5c0.4,0,0.8,0.2,1.1,0.5c0.3,0.3,0.5,0.7,0.5,1.1V44.7z"/>
	<path class="st9" d="M211,36c0,1,0.2,2,0.6,2.9c0.4,0.9,0.9,1.7,1.5,2.3s1.4,1.2,2.3,1.6s1.8,0.6,2.8,0.6c1.5,0,2.8-0.3,3.9-1
		c1.1-0.7,1.8-1.7,2.2-2.9h-3.4c-0.5,0-0.8-0.2-1.1-0.5c-0.3-0.3-0.5-0.7-0.5-1.1c0-0.4,0.2-0.8,0.5-1.1c0.3-0.3,0.7-0.5,1.1-0.5
		l5.3,0c0.5,0,0.8,0.2,1.2,0.5c0.3,0.3,0.5,0.7,0.5,1.1c-0.1,1.3-0.4,2.4-0.9,3.5c-0.5,1.1-1.2,2-2.1,2.8c-0.9,0.8-1.9,1.4-3,1.8
		c-1.1,0.4-2.4,0.7-3.7,0.7c-1.4,0-2.8-0.3-4.1-0.8c-1.3-0.5-2.4-1.3-3.3-2.3c-0.9-1-1.7-2.1-2.2-3.3c-0.5-1.3-0.8-2.6-0.8-4.1
		c0-1.4,0.3-2.8,0.8-4.1c0.5-1.3,1.3-2.4,2.2-3.4c0.9-1,2-1.7,3.3-2.3c1.3-0.6,2.6-0.8,4.1-0.8c1.4,0,2.8,0.3,4,0.8
		c1.3,0.5,2.4,1.3,3.4,2.3c0.3,0.3,0.5,0.7,0.5,1.1c0,0.4-0.1,0.8-0.5,1.1c-0.2,0.2-0.3,0.3-0.5,0.3c-0.2,0.1-0.4,0.1-0.6,0.1
		c-0.2,0-0.4,0-0.6-0.1c-0.2-0.1-0.4-0.2-0.5-0.3c-0.7-0.7-1.5-1.3-2.4-1.6c-0.9-0.3-1.8-0.5-2.8-0.5c-1,0-1.9,0.2-2.8,0.6
		c-0.9,0.4-1.6,0.9-2.3,1.5c-0.7,0.7-1.2,1.4-1.6,2.3C211.2,34,211,34.9,211,36z"/>
	<path class="st9" d="M233.2,44.7c0,0.5-0.2,0.8-0.5,1.1c-0.3,0.3-0.7,0.5-1.1,0.5s-0.8-0.2-1.1-0.5c-0.3-0.3-0.5-0.7-0.5-1.1V27.1
		c0-0.5,0.2-0.8,0.5-1.1c0.3-0.3,0.7-0.5,1.1-0.5s0.8,0.2,1.1,0.5c0.3,0.3,0.5,0.7,0.5,1.1V44.7z"/>
	<path class="st9" d="M243.6,28.8v15.9c0,0.5-0.2,0.8-0.5,1.1c-0.3,0.3-0.7,0.5-1.1,0.5c-0.5,0-0.8-0.2-1.1-0.5
		c-0.3-0.3-0.4-0.7-0.4-1.1V28.8h-4.3c-0.5,0-0.8-0.2-1.1-0.5c-0.3-0.3-0.5-0.7-0.5-1.1s0.2-0.8,0.5-1.1c0.3-0.3,0.7-0.5,1.1-0.5
		h11.7c0.5,0,0.8,0.2,1.1,0.5c0.3,0.3,0.5,0.7,0.5,1.1c0,0.2,0,0.4-0.1,0.6c-0.1,0.2-0.2,0.4-0.3,0.5c-0.1,0.1-0.3,0.3-0.5,0.3
		s-0.4,0.1-0.6,0.1L243.6,28.8L243.6,28.8z"/>
	<path class="st9" d="M259.5,40.5h-8.2l-2,4.8c-0.1,0.2-0.2,0.4-0.4,0.5c-0.2,0.1-0.3,0.3-0.5,0.3c-0.2,0.1-0.4,0.1-0.6,0.1
		c-0.2,0-0.4,0-0.7-0.1c-0.4-0.2-0.7-0.5-0.8-0.9c-0.1-0.4-0.1-0.8,0.1-1.2l7.5-17.5c0.1-0.3,0.3-0.6,0.6-0.7
		c0.3-0.2,0.5-0.3,0.9-0.3c0.3,0,0.6,0.1,0.9,0.3s0.5,0.4,0.6,0.7l7.5,17.5c0.2,0.4,0.2,0.8,0.1,1.2c-0.1,0.4-0.4,0.7-0.8,0.9
		c-0.2,0.1-0.4,0.1-0.6,0.2c-0.2,0-0.4,0-0.6-0.1c-0.2-0.1-0.4-0.2-0.5-0.3c-0.2-0.1-0.3-0.3-0.4-0.5L259.5,40.5z M252.7,37.3h5.5
		l-2.7-6.6L252.7,37.3z"/>
	<path class="st9" d="M269.2,43.1l6.7,0c0.5,0,0.8,0.2,1.1,0.5c0.3,0.3,0.5,0.7,0.5,1.1c0,0.2,0,0.4-0.1,0.6
		c-0.1,0.2-0.2,0.4-0.3,0.5c-0.1,0.1-0.3,0.3-0.5,0.3c-0.2,0.1-0.4,0.1-0.6,0.1h-8.5l-0.1,0c-0.4-0.1-0.7-0.3-0.9-0.5
		c-0.2-0.3-0.4-0.6-0.4-1V27.1c0-0.2,0-0.4,0.1-0.6c0.1-0.2,0.2-0.4,0.3-0.5c0.1-0.1,0.3-0.3,0.5-0.3c0.2-0.1,0.4-0.1,0.6-0.1
		c0.2,0,0.4,0,0.6,0.1c0.2,0.1,0.4,0.2,0.5,0.3c0.1,0.1,0.3,0.3,0.3,0.5c0.1,0.2,0.1,0.4,0.1,0.6L269.2,43.1L269.2,43.1z"/>
	<path class="st9" d="M120.3,74.1c0,0.5-0.2,0.8-0.5,1.1c-0.3,0.3-0.7,0.5-1.1,0.5c-0.5,0-0.8-0.2-1.1-0.5c-0.3-0.3-0.5-0.7-0.5-1.1
		V56.5c0-0.5,0.2-0.8,0.5-1.1c0.3-0.3,0.7-0.5,1.1-0.5c0.4,0,0.8,0.2,1.1,0.5c0.3,0.3,0.5,0.7,0.5,1.1V74.1z"/>
	<path class="st9" d="M126.7,61.4v12.7c0,0.5-0.2,0.8-0.5,1.1c-0.3,0.3-0.7,0.5-1.1,0.5s-0.8-0.2-1.1-0.5c-0.3-0.3-0.5-0.7-0.5-1.1
		V56.6c0-0.5,0.2-0.8,0.5-1.1c0.3-0.3,0.7-0.5,1.1-0.5h0c0.1,0,0.1,0,0.1,0c0,0,0.1,0,0.1,0l0.2,0c0.2,0.1,0.3,0.1,0.5,0.2l0.2,0.1
		c0.1,0.1,0.2,0.3,0.3,0.4l9.6,13.5V56.5c0-0.5,0.2-0.8,0.5-1.1c0.3-0.3,0.7-0.5,1.1-0.5c0.2,0,0.4,0,0.6,0.1
		c0.2,0.1,0.4,0.2,0.5,0.3c0.1,0.1,0.3,0.3,0.3,0.5c0.1,0.2,0.1,0.4,0.1,0.6v17.6c0,0.4-0.1,0.7-0.3,1c-0.2,0.3-0.5,0.5-0.8,0.6
		c-0.1,0-0.2,0-0.3,0.1h-0.2c-0.4,0-0.7-0.1-1-0.3l-0.2-0.1c0,0-0.1-0.1-0.1-0.1L126.7,61.4z"/>
	<path class="st9" d="M149.2,58.1v15.9c0,0.5-0.2,0.8-0.5,1.1c-0.3,0.3-0.7,0.5-1.1,0.5s-0.8-0.2-1.1-0.5c-0.3-0.3-0.4-0.7-0.4-1.1
		V58.1h-4.3c-0.5,0-0.8-0.2-1.1-0.5c-0.3-0.3-0.5-0.7-0.5-1.1s0.2-0.8,0.5-1.1c0.3-0.3,0.7-0.5,1.1-0.5h11.7c0.5,0,0.8,0.2,1.1,0.5
		c0.3,0.3,0.5,0.7,0.5,1.1c0,0.2,0,0.4-0.1,0.6c-0.1,0.2-0.2,0.4-0.3,0.5c-0.1,0.1-0.3,0.3-0.5,0.3c-0.2,0.1-0.4,0.1-0.6,0.1
		L149.2,58.1L149.2,58.1z"/>
	<path class="st9" d="M158.1,75.7c-0.4,0-0.8-0.2-1.1-0.5c-0.3-0.3-0.4-0.7-0.4-1.1V56.5c0-0.2,0-0.4,0.1-0.6
		c0.1-0.2,0.2-0.4,0.3-0.5c0.1-0.1,0.3-0.3,0.5-0.3c0.2-0.1,0.4-0.1,0.6-0.1h8.6c0.2,0,0.4,0,0.6,0.1c0.2,0.1,0.4,0.2,0.5,0.3
		c0.1,0.1,0.3,0.3,0.3,0.5c0.1,0.2,0.1,0.4,0.1,0.6c0,0.5-0.2,0.8-0.5,1.1s-0.7,0.5-1.1,0.5h-7v5.6h5c0.2,0,0.4,0,0.6,0.1
		c0.2,0.1,0.4,0.2,0.5,0.3c0.1,0.2,0.3,0.3,0.3,0.5c0.1,0.2,0.1,0.4,0.1,0.6c0,0.5-0.2,0.8-0.5,1.1c-0.3,0.3-0.7,0.4-1.1,0.4h-5v5.6
		h7c0.5,0,0.8,0.2,1.1,0.5c0.3,0.3,0.5,0.7,0.5,1.1c0,0.2,0,0.4-0.1,0.6c-0.1,0.2-0.2,0.4-0.3,0.5c-0.1,0.1-0.3,0.3-0.5,0.3
		c-0.2,0.1-0.4,0.1-0.6,0.1L158.1,75.7L158.1,75.7z"/>
	<path class="st9" d="M171.5,65.3c0,1,0.2,2,0.6,2.9c0.4,0.9,0.9,1.7,1.5,2.3s1.4,1.2,2.3,1.6c0.9,0.4,1.8,0.6,2.8,0.6
		c1.5,0,2.8-0.3,3.9-1c1.1-0.7,1.8-1.7,2.2-2.9h-3.4c-0.5,0-0.8-0.2-1.1-0.5c-0.3-0.3-0.5-0.7-0.5-1.1c0-0.4,0.2-0.8,0.5-1.1
		c0.3-0.3,0.7-0.5,1.1-0.5l5.3,0c0.5,0,0.8,0.2,1.2,0.5c0.3,0.3,0.5,0.7,0.5,1.1c-0.1,1.3-0.4,2.4-0.9,3.5c-0.5,1.1-1.2,2-2.1,2.8
		c-0.9,0.8-1.9,1.4-3,1.8s-2.4,0.7-3.7,0.7c-1.4,0-2.8-0.3-4.1-0.8c-1.3-0.5-2.4-1.3-3.3-2.3s-1.7-2.1-2.2-3.3
		c-0.5-1.3-0.8-2.6-0.8-4.1c0-1.4,0.3-2.8,0.8-4.1c0.5-1.3,1.3-2.4,2.2-3.4c0.9-1,2-1.7,3.3-2.3c1.3-0.6,2.6-0.8,4.1-0.8
		c1.4,0,2.8,0.3,4,0.8c1.3,0.5,2.4,1.3,3.4,2.3c0.3,0.3,0.5,0.7,0.5,1.1c0,0.4-0.1,0.8-0.5,1.1c-0.2,0.2-0.3,0.3-0.5,0.3
		c-0.2,0.1-0.4,0.1-0.6,0.1c-0.2,0-0.4,0-0.6-0.1c-0.2-0.1-0.4-0.2-0.5-0.3c-0.7-0.7-1.5-1.3-2.4-1.6c-0.9-0.3-1.8-0.5-2.8-0.5
		c-1,0-1.9,0.2-2.8,0.6c-0.9,0.4-1.6,0.9-2.3,1.5c-0.7,0.7-1.2,1.4-1.6,2.3C171.7,63.3,171.5,64.3,171.5,65.3z"/>
	<path class="st9" d="M203.7,61.1c0,0.7-0.1,1.3-0.3,1.9c-0.2,0.6-0.5,1.2-0.8,1.6c-0.4,0.5-0.8,0.9-1.3,1.3
		c-0.5,0.4-1.1,0.7-1.6,0.9l3.8,6.5c0.1,0.2,0.2,0.4,0.2,0.6c0,0.2,0,0.4-0.1,0.6c-0.1,0.2-0.2,0.4-0.3,0.5
		c-0.1,0.2-0.3,0.3-0.5,0.4c-0.2,0.1-0.4,0.2-0.6,0.2c-0.2,0-0.4,0-0.6-0.1c-0.2-0.1-0.4-0.2-0.5-0.3c-0.2-0.1-0.3-0.3-0.4-0.5
		l-4.5-7.7h-2.5V74c0,0.5-0.2,0.8-0.5,1.1c-0.3,0.3-0.7,0.5-1.1,0.5s-0.8-0.2-1.1-0.5c-0.3-0.3-0.5-0.7-0.5-1.1V56.5
		c0-0.5,0.2-0.8,0.5-1.1c0.3-0.3,0.7-0.5,1.1-0.5h5.4c0.9,0,1.7,0.2,2.4,0.5s1.4,0.8,2,1.3c0.6,0.5,1,1.2,1.3,2
		C203.5,59.4,203.7,60.2,203.7,61.1z M193.7,58.1v5.8h3.8c0.4,0,0.8-0.1,1.2-0.2c0.4-0.2,0.7-0.4,1-0.6c0.3-0.3,0.5-0.6,0.6-0.9
		c0.2-0.4,0.2-0.7,0.2-1.1s-0.1-0.8-0.2-1.1c-0.2-0.3-0.4-0.7-0.7-0.9c-0.3-0.3-0.6-0.5-1-0.6c-0.4-0.1-0.8-0.2-1.2-0.2L193.7,58.1
		L193.7,58.1z"/>
	<path class="st9" d="M217.6,69.9h-8.2l-2,4.8c-0.1,0.2-0.2,0.4-0.4,0.5c-0.2,0.1-0.3,0.3-0.5,0.3s-0.4,0.1-0.6,0.1
		c-0.2,0-0.4,0-0.7-0.1c-0.4-0.2-0.7-0.5-0.8-0.9c-0.1-0.4-0.1-0.8,0.1-1.2l7.5-17.5c0.1-0.3,0.3-0.6,0.6-0.7
		c0.3-0.2,0.5-0.3,0.9-0.3c0.3,0,0.6,0.1,0.9,0.3s0.5,0.4,0.6,0.7l7.5,17.5c0.2,0.4,0.2,0.8,0.1,1.2c-0.1,0.4-0.4,0.7-0.8,0.9
		c-0.2,0.1-0.4,0.1-0.6,0.2c-0.2,0-0.4,0-0.6-0.1s-0.4-0.2-0.5-0.3c-0.2-0.1-0.3-0.3-0.4-0.5L217.6,69.9z M210.8,66.7h5.5l-2.7-6.6
		L210.8,66.7z"/>
	<path class="st9" d="M229.3,54.9c1,0,1.9,0.1,2.8,0.4c0.9,0.3,1.7,0.6,2.5,1c0.8,0.5,1.5,1,2.1,1.6s1.2,1.3,1.6,2.1
		s0.8,1.6,1.1,2.5c0.3,0.9,0.4,1.8,0.4,2.8s-0.1,1.9-0.4,2.8c-0.3,0.9-0.6,1.7-1.1,2.5s-1,1.5-1.6,2.1s-1.3,1.2-2.1,1.6
		c-0.8,0.4-1.6,0.8-2.5,1c-0.9,0.3-1.8,0.4-2.8,0.4h-3.5c-0.5,0-0.8-0.2-1.1-0.5c-0.3-0.3-0.5-0.7-0.5-1.1V56.5
		c0-0.5,0.2-0.8,0.5-1.1c0.3-0.3,0.7-0.5,1.1-0.5L229.3,54.9L229.3,54.9z M229.4,58.2h-2v14.3h1.9c1,0,2-0.2,2.8-0.5
		c0.9-0.4,1.6-0.8,2.3-1.5c0.7-0.6,1.2-1.4,1.5-2.2c0.4-0.9,0.6-1.8,0.6-2.8c0-1-0.2-1.9-0.6-2.8c-0.4-0.9-0.9-1.6-1.5-2.3
		c-0.6-0.6-1.4-1.1-2.3-1.5C231.3,58.4,230.4,58.2,229.4,58.2z"/>
	<path class="st9" d="M253.2,69.9h-8.2l-2,4.8c-0.1,0.2-0.2,0.4-0.4,0.5c-0.2,0.1-0.3,0.3-0.5,0.3c-0.2,0.1-0.4,0.1-0.6,0.1
		c-0.2,0-0.4,0-0.7-0.1c-0.4-0.2-0.7-0.5-0.8-0.9c-0.1-0.4-0.1-0.8,0.1-1.2l7.5-17.5c0.1-0.3,0.3-0.6,0.6-0.7
		c0.3-0.2,0.5-0.3,0.9-0.3c0.3,0,0.6,0.1,0.9,0.3s0.5,0.4,0.6,0.7l7.5,17.5c0.2,0.4,0.2,0.8,0.1,1.2c-0.1,0.4-0.4,0.7-0.8,0.9
		c-0.2,0.1-0.4,0.1-0.6,0.2c-0.2,0-0.4,0-0.6-0.1c-0.2-0.1-0.4-0.2-0.5-0.3c-0.2-0.1-0.3-0.3-0.4-0.5L253.2,69.9z M246.4,66.7h5.5
		l-2.7-6.6L246.4,66.7z"/>
</g>
</svg>
