<?xml version="1.0" encoding="utf-8"?>
<!-- Generator: Adobe Illustrator 24.1.3, SVG Export Plug-In . SVG Version: 6.00 Build 0)  -->
<svg version="1.1" id="Capa_1" xmlns="http://www.w3.org/2000/svg" xmlns:xlink="http://www.w3.org/1999/xlink" x="0px" y="0px"
	 viewBox="0 0 290.8 255.1" style="enable-background:new 0 0 290.8 255.1;" xml:space="preserve">
<style type="text/css">
	.st0{fill:#4A81BA;}
	.st1{fill:#8DBA3B;}
	.st2{fill:#CA312B;}
	.st3{fill:#EEA759;}
	.st4{fill:#794C85;}
	.st5{fill:#B12470;}
	.st6{fill:#FEEB13;}
	.st7{fill:#1E5A7C;}
	.st8{fill:#A9D0F5;}
	.st9{fill:#2F67C1;}
</style>
<g id="Capa_1_1_">
	<g id="qeeNXD_2_">
		
			<image style="overflow:visible;enable-background:new    ;" width="161" height="147" id="qeeNXD_3_" xlink:href="6BCC73F.jpeg"  transform="matrix(2.3985 0 0 2.3985 -1943.5636 -364.562)">
		</image>
	</g>
</g>
<g>
	
		<text transform="matrix(0.9926 0 0 1 -1981.4076 459.4639)" class="st0" style="font-family:'ArialMT'; font-size:114.2299px; letter-spacing:-2;">MEDICHILE</text>
	<g>
		<ellipse class="st0" cx="-1757" cy="152" rx="17.4" ry="22.9"/>
		<path class="st0" d="M-1814.7,286.6c0,0,6.9-22.3,18.7-45.8c9.6-19.3,23.2-36.3,39.7-50.1c20.8-17.4,57.3-50.5,62.5-72.6
			c0,0,6.7,37-26.5,78.7c-2.9,3.7-4.1,8.4-3.4,13c3.8,25.5,13.5,109.7-15.9,148.3c0,0,11.9-54.1-2.8-74.2c0,0-33,76.9-56.8,84.3
			c0,0,43.7-62.9,32.1-123.9c-0.5-2.7-3.3-4.2-5.9-3.2C-1779.9,243.9-1794.1,253.5-1814.7,286.6z"/>
		<path class="st1" d="M-1895.3,165.7c0,0,25.7-31.1,55,0C-1840.4,165.7-1866,195-1895.3,165.7z"/>
		<path class="st2" d="M-1862.2,206.8c0,0,7.3-33.2,40-18.6C-1822.2,188.2-1830.1,220-1862.2,206.8z"/>
		<path class="st3" d="M-1858.2,110.6c0,0,31.4-9.1,34.1,25.3C-1824.1,135.9-1854.6,143.8-1858.2,110.6z"/>
		<path class="st2" d="M-1793.4,54.9c0,0,30.1,12.7,10.6,41.1C-1782.9,96-1811.5,82.9-1793.4,54.9z"/>
		<path class="st3" d="M-1704.1,54.2c0,0,15.3,28.9-17.8,38.5C-1721.9,92.6-1735.8,64.4-1704.1,54.2z"/>
		<path class="st4" d="M-1703.9,114.6c0,0,4.9,22.3-19.2,22.6C-1723.1,137.1-1727.2,115.5-1703.9,114.6z"/>
		<path class="st4" d="M-1615.7,126c0,0-3.1,16.9-19.9,10C-1635.6,136-1632.1,119.9-1615.7,126z"/>
		<path class="st5" d="M-1678.3,44.8c0,0,5.8,16.2-12.2,18.7C-1690.5,63.5-1695.6,47.7-1678.3,44.8z"/>
		<path class="st3" d="M-1717.7,28.9c0,0,10,14-6.6,21.3C-1724.4,50.2-1733.6,36.4-1717.7,28.9z"/>
		<path class="st4" d="M-1783.8,29.3c0,0,16.6,4.6,8.3,20.7C-1775.5,50-1791.4,45.1-1783.8,29.3z"/>
		<path class="st3" d="M-1823.2,45.6c0,0,17.2-0.4,13.9,17.5C-1809.4,63.1-1825.9,62.9-1823.2,45.6z"/>
		<path class="st1" d="M-1869.8,85.3c0,0,15.9-6.4,19.2,11.4C-1850.6,96.7-1866.2,102.5-1869.8,85.3z"/>
		<path class="st4" d="M-1887,127.1c0,0,14.9-8.6,20.6,8.6C-1866.4,135.7-1881,143.5-1887,127.1z"/>
		<path class="st5" d="M-1634.4,86c0,0-1.4,14.4-16,9.8C-1650.3,95.8-1648.6,82-1634.4,86z"/>
		<path class="st0" d="M-1871.9,189.8c0,0-3.5,14-17.2,7.4C-1889.1,197.2-1885.3,183.8-1871.9,189.8z"/>
		<path class="st4" d="M-1779.8,193.1c0,0,0.5,14.4-14.6,11.8C-1794.4,204.9-1794.4,191-1779.8,193.1z"/>
		<path class="st0" d="M-1814.6,266.4c0,0,0.5,14.5-14.6,11.8C-1829.2,278.2-1829.2,264.3-1814.6,266.4z"/>
		<path class="st4" d="M-1856.1,225.1c0,0-1.2,16.3-17.8,11.6C-1873.9,236.6-1872.3,221-1856.1,225.1z"/>
		<path class="st0" d="M-1628.8,235.3c0,0-13.6,4.8-15.7-10.3C-1644.5,225-1631.3,220.7-1628.8,235.3z"/>
		<path class="st5" d="M-1679.4,283.4c0,0-16.7,2.7-15.9-15.2C-1695.3,268.3-1679.1,266.1-1679.4,283.4z"/>
		<path class="st0" d="M-1676.2,178.1c0,0-13.4,5.5-16.2-9.5C-1692.4,168.6-1679.4,163.7-1676.2,178.1z"/>
		<path class="st5" d="M-1780.1,136.8c0,0-22.7,2.1-20-21.8C-1800.1,114.9-1778.2,113.6-1780.1,136.8z"/>
		<path class="st4" d="M-1816.1,173.7c0,0,12.1-21.2,31.3-4.1C-1784.8,169.6-1797,189.6-1816.1,173.7z"/>
		<path class="st1" d="M-1749.2,115.6c0,0-17.2-17.3,4.3-31.3C-1744.9,84.3-1728.8,101.4-1749.2,115.6z"/>
		<path class="st0" d="M-1848.5,59.4c0,0,40.3-2.7,37.7,40.1C-1810.9,99.5-1849.8,100.9-1848.5,59.4z"/>
		<g>
			<path class="st6" d="M-1853.8,264c0,0-5.9-38.3,35-36.1C-1818.8,227.9-1814.3,265-1853.8,264z"/>
			<path class="st6" d="M-1615.2,195.1c0,0-12.3,7.5-17.5-6.8C-1632.6,188.2-1620.5,181.3-1615.2,195.1z"/>
			<path class="st6" d="M-1700.3,220.6c0,0-13.6,4.8-15.7-10.3C-1716,210.3-1702.7,206.1-1700.3,220.6z"/>
			<path class="st6" d="M-1752.8,23.3c0,0,28.9,25.2-1.5,52.2C-1754.3,75.5-1781.4,50.3-1752.8,23.3z"/>
		</g>
		<path class="st1" d="M-1609.8,163.5c0,0-23.3,30.5-52.2,1.9C-1662,165.4-1638.6,136.6-1609.8,163.5z"/>
		<path class="st0" d="M-1645.7,264.7c0,0-38,5.2-38.4-35.4C-1684.1,229.3-1647.3,225.3-1645.7,264.7z"/>
		<path class="st3" d="M-1644.1,205.1c0,0-25.2,11.2-33.6-16.9C-1677.7,188.2-1653,178.2-1644.1,205.1z"/>
		<path class="st2" d="M-1645.9,109.7c0,0-1.7,32.7-35.9,26.5C-1681.8,136.2-1679.2,104.7-1645.9,109.7z"/>
		<path class="st1" d="M-1653.8,60.6c0,0,6.2,37.8-34.4,39.3C-1688.2,99.9-1693.1,63.2-1653.8,60.6z"/>
	</g>
</g>
<ellipse class="st7" cx="-999.6" cy="-105.3" rx="37" ry="41.5"/>
<ellipse class="st8" cx="-904.6" cy="-105.3" rx="37" ry="41.5"/>
<g>
	<g>
		<ellipse class="st9" cx="143.7" cy="61.2" rx="6.8" ry="9"/>
		<path class="st9" d="M121,114.1c0,0,2.7-8.8,7.4-18c3.8-7.6,9.1-14.3,15.6-19.7c8.2-6.8,22.5-19.8,24.5-28.5
			c0,0,2.6,14.5-10.4,30.9c-1.1,1.4-1.6,3.3-1.4,5.1c1.5,10,5.3,43.1-6.2,58.2c0,0,4.7-21.2-1.1-29.1c0,0-12.9,30.2-22.3,33.1
			c0,0,17.2-24.7,12.6-48.7c-0.2-1-1.3-1.7-2.3-1.3C134.7,97.3,129.1,101.1,121,114.1z"/>
	</g>
	<path class="st1" d="M89.4,66.6c0,0,10.1-12.2,21.6,0C110.9,66.6,100.8,78.1,89.4,66.6z"/>
	<path class="st2" d="M102.3,82.7c0,0,2.9-13.1,15.7-7.3C118.1,75.4,114.9,87.9,102.3,82.7z"/>
	<path class="st3" d="M103.9,45c0,0,12.3-3.6,13.4,9.9C117.3,54.9,105.3,58,103.9,45z"/>
	<path class="st2" d="M129.4,23.1c0,0,11.8,5,4.2,16.1C133.5,39.2,122.3,34.1,129.4,23.1z"/>
	<path class="st3" d="M164.5,22.8c0,0,6,11.3-7,15.1C157.4,37.9,152,26.8,164.5,22.8z"/>
	<path class="st4" d="M164.5,46.5c0,0,1.9,8.8-7.5,8.9C157,55.4,155.4,46.9,164.5,46.5z"/>
	<path class="st4" d="M199.1,51c0,0-1.2,6.6-7.8,3.9C191.3,55,192.7,48.6,199.1,51z"/>
	<path class="st5" d="M174.6,19.1c0,0,2.3,6.4-4.8,7.3C169.8,26.4,167.8,20.3,174.6,19.1z"/>
	<path class="st3" d="M159.1,12.9c0,0,3.9,5.5-2.6,8.4C156.5,21.2,152.9,15.8,159.1,12.9z"/>
	<path class="st4" d="M133.1,13c0,0,6.5,1.8,3.2,8.1C136.4,21.1,130.2,19.2,133.1,13z"/>
	<path class="st3" d="M117.7,19.5c0,0,6.7-0.1,5.4,6.8C123.1,26.3,116.6,26.2,117.7,19.5z"/>
	<path class="st1" d="M99.4,35c0,0,6.3-2.5,7.5,4.5C106.9,39.5,100.8,41.8,99.4,35z"/>
	<path class="st4" d="M92.6,51.4c0,0,5.8-3.4,8.1,3.4C100.7,54.8,95,57.9,92.6,51.4z"/>
	<path class="st5" d="M191.8,35.3c0,0-0.6,5.7-6.3,3.9C185.6,39.1,186.3,33.7,191.8,35.3z"/>
	<path class="st5" d="M98.6,76.1c0,0-1.4,5.5-6.8,2.9C91.8,79,93.3,73.7,98.6,76.1z"/>
	<path class="st4" d="M134.7,77.4c0,0,0.2,5.7-5.7,4.6C129,82,129,76.5,134.7,77.4z"/>
	<path class="st2" d="M121,106.1c0,0,0.2,5.7-5.7,4.6C115.3,110.8,115.3,105.3,121,106.1z"/>
	<path class="st4" d="M104.8,89.9c0,0-0.5,6.4-7,4.5C97.8,94.5,98.4,88.3,104.8,89.9z"/>
	<path class="st5" d="M194,93.9c0,0-5.3,1.9-6.2-4C187.8,89.9,193,88.2,194,93.9z"/>
	<path class="st5" d="M174.2,112.8c0,0-6.6,1.1-6.3-6C167.9,106.9,174.3,106,174.2,112.8z"/>
	<path class="st2" d="M175.4,71.5c0,0-5.2,2.2-6.4-3.7C169,67.7,174.2,65.8,175.4,71.5z"/>
	<path class="st5" d="M134.6,55.2c0,0-8.9,0.8-7.9-8.6C126.7,46.6,135.4,46.1,134.6,55.2z"/>
	<path class="st4" d="M120.5,69.7c0,0,4.8-8.3,12.3-1.6C132.8,68.1,128,76,120.5,69.7z"/>
	<path class="st1" d="M146.7,46.9c0,0-6.8-6.8,1.7-12.3C148.4,34.6,154.7,41.3,146.7,46.9z"/>
	<path class="st6" d="M107.7,24.9c0,0,15.8-1,14.8,15.7C122.5,40.6,107.2,41.1,107.7,24.9z"/>
	<g>
		<path class="st6" d="M105.7,105.2c0,0-2.3-15,13.7-14.2C119.4,91,121.2,105.6,105.7,105.2z"/>
		<path class="st6" d="M199.4,78.1c0,0-4.8,3-6.9-2.7C192.5,75.4,197.3,72.7,199.4,78.1z"/>
		<path class="st6" d="M165.9,88.2c0,0-5.3,1.9-6.2-4C159.8,84.1,165,82.5,165.9,88.2z"/>
		<path class="st6" d="M145.3,10.6c0,0,11.3,9.9-0.6,20.5C144.7,31.2,134.1,21.3,145.3,10.6z"/>
	</g>
	<path class="st1" d="M201.5,65.7c0,0-9.1,12-20.5,0.7C181,66.4,190.2,55.2,201.5,65.7z"/>
	<path class="st6" d="M187.4,105.5c0,0-14.9,2.1-15.1-13.9C172.3,91.6,186.7,90,187.4,105.5z"/>
	<path class="st3" d="M188,82.1c0,0-9.9,4.4-13.2-6.6C174.8,75.4,184.5,71.5,188,82.1z"/>
	<path class="st2" d="M187.3,44.6c0,0-0.7,12.8-14.1,10.4C173.2,55,174.2,42.6,187.3,44.6z"/>
	<path class="st1" d="M184.2,25.3c0,0,2.4,14.9-13.5,15.5C170.7,40.8,168.8,26.3,184.2,25.3z"/>
</g>
<g>
	<path class="st9" d="M25,183.5c-1.2-0.4-2.2-1-3.1-1.7s-1.5-1.5-2.1-2.4c-0.5-0.9-0.7-2-0.7-3.2c0-1.3,0.3-2.4,0.8-3.4
		c0.5-1,1.2-1.9,2.1-2.7c0.9-0.7,1.9-1.3,3-1.7s2.3-0.6,3.6-0.6c0.9,0,1.8,0.1,2.6,0.3s1.7,0.5,2.4,0.8c0.7,0.4,1.4,0.8,2.1,1.3
		c0.6,0.5,1.1,1.1,1.5,1.9c0.1,0.2,0.2,0.4,0.2,0.6c0,0.2,0,0.4,0,0.6c0,0.2-0.1,0.4-0.2,0.6c-0.1,0.2-0.2,0.3-0.4,0.5
		c-0.2,0.2-0.3,0.3-0.6,0.4s-0.5,0.2-0.7,0.2c-0.2,0-0.5,0-0.8-0.1s-0.5-0.2-0.8-0.4c-0.4-0.4-0.8-0.7-1.2-1
		c-0.4-0.3-0.8-0.5-1.2-0.7c-0.4-0.2-0.9-0.3-1.3-0.4c-0.5-0.1-1-0.1-1.6-0.1c-0.7,0-1.3,0.1-1.9,0.3c-0.6,0.2-1.1,0.4-1.6,0.8
		c-0.5,0.3-0.8,0.7-1.1,1.2c-0.3,0.5-0.4,1-0.4,1.6c0,0.7,0.2,1.3,0.5,1.7c0.4,0.4,0.8,0.8,1.4,1.1c0.6,0.3,1.3,0.6,2.1,0.7
		c0.8,0.2,1.6,0.4,2.5,0.6c1.1,0.3,2.1,0.6,3.1,1.1s1.9,0.9,2.7,1.6c0.8,0.6,1.4,1.4,1.9,2.3s0.7,2,0.7,3.3c0,1.3-0.3,2.5-0.8,3.6
		c-0.5,1.1-1.2,2-2.1,2.8c-0.9,0.8-2,1.4-3.2,1.9c-1.2,0.4-2.5,0.7-3.9,0.7c-1.1,0-2.2-0.2-3.2-0.4c-1-0.3-2-0.7-2.8-1.2
		c-0.9-0.5-1.6-1.1-2.3-1.8c-0.6-0.7-1.1-1.4-1.5-2.2c-0.2-0.4-0.3-0.7-0.3-1c0-0.3,0-0.6,0.1-0.9s0.2-0.5,0.4-0.7
		c0.2-0.2,0.4-0.4,0.6-0.5c0.6-0.3,1.1-0.4,1.6-0.2c0.5,0.2,1,0.6,1.5,1.3c0.6,1,1.5,1.8,2.5,2.3s2.2,0.8,3.6,0.8
		c0.7,0,1.3-0.1,2-0.3s1.2-0.5,1.7-0.8c0.5-0.4,0.9-0.8,1.2-1.3c0.3-0.5,0.5-1.1,0.5-1.8c0-0.7-0.2-1.3-0.5-1.7
		c-0.3-0.5-0.7-0.8-1.3-1.1c-0.5-0.3-1.1-0.5-1.7-0.7c-0.6-0.2-1.3-0.4-1.9-0.5C27.5,184.3,26.2,184,25,183.5z"/>
	<path class="st9" d="M57.6,189H46.2l-2.8,6.7c-0.1,0.3-0.3,0.6-0.5,0.8c-0.2,0.2-0.5,0.4-0.7,0.5c-0.3,0.1-0.6,0.2-0.9,0.1
		c-0.3,0-0.6-0.1-0.9-0.2c-0.6-0.3-1-0.7-1.1-1.2c-0.2-0.6-0.2-1.1,0.1-1.7l10.6-24.6c0.2-0.4,0.5-0.8,0.8-1
		c0.4-0.2,0.8-0.4,1.2-0.4c0.4,0,0.8,0.1,1.2,0.4c0.4,0.2,0.6,0.6,0.8,1l10.5,24.6c0.3,0.6,0.3,1.2,0.1,1.7c-0.2,0.6-0.6,1-1.1,1.2
		c-0.3,0.1-0.6,0.2-0.9,0.2c-0.3,0-0.6,0-0.9-0.2c-0.3-0.1-0.5-0.3-0.7-0.5c-0.2-0.2-0.4-0.4-0.6-0.7L57.6,189z M48,184.5h7.7
		l-3.9-9.3L48,184.5z"/>
	<path class="st9" d="M71.3,192.6l9.4,0c0.6,0,1.2,0.2,1.6,0.6c0.4,0.4,0.6,1,0.6,1.6c0,0.3-0.1,0.6-0.2,0.9
		c-0.1,0.3-0.3,0.5-0.5,0.7c-0.2,0.2-0.4,0.4-0.7,0.5c-0.3,0.1-0.6,0.2-0.9,0.2H68.8l-0.2,0c-0.5-0.1-0.9-0.4-1.3-0.8
		s-0.5-0.9-0.5-1.4v-24.7c0-0.3,0.1-0.6,0.2-0.9c0.1-0.3,0.3-0.5,0.5-0.7c0.2-0.2,0.4-0.4,0.7-0.5s0.6-0.2,0.9-0.2s0.6,0.1,0.9,0.2
		c0.3,0.1,0.5,0.3,0.7,0.5c0.2,0.2,0.4,0.4,0.5,0.7c0.1,0.3,0.2,0.6,0.2,0.9L71.3,192.6L71.3,192.6z"/>
	<path class="st9" d="M101.1,169.3c0.1-0.3,0.3-0.5,0.5-0.7c0.2-0.2,0.4-0.4,0.7-0.5c0.3-0.1,0.6-0.2,0.9-0.2c0.6,0,1.2,0.2,1.6,0.6
		c0.4,0.4,0.7,0.9,0.7,1.6v16.5c0,1.5-0.3,2.9-0.8,4.1c-0.5,1.3-1.2,2.4-2.2,3.4c-0.9,1-2,1.7-3.3,2.3c-1.3,0.6-2.7,0.8-4.3,0.8
		c-1.6,0-3-0.3-4.3-0.8c-1.3-0.6-2.5-1.3-3.4-2.3c-1-1-1.7-2.1-2.3-3.4c-0.6-1.3-0.8-2.7-0.8-4.1v-16.5c0-0.3,0.1-0.6,0.2-0.9
		s0.3-0.5,0.5-0.7c0.2-0.2,0.4-0.4,0.7-0.5s0.6-0.2,0.9-0.2s0.6,0.1,0.9,0.2c0.3,0.1,0.5,0.3,0.7,0.5s0.4,0.4,0.5,0.7
		s0.2,0.6,0.2,0.9v16.4c0,0.9,0.2,1.7,0.5,2.4c0.3,0.8,0.7,1.4,1.3,2c0.6,0.6,1.2,1,2,1.4c0.8,0.4,1.6,0.5,2.5,0.5s1.8-0.2,2.5-0.5
		c0.7-0.3,1.4-0.8,1.9-1.4c0.5-0.6,0.9-1.3,1.2-2c0.3-0.7,0.4-1.6,0.4-2.4v-16.4C100.9,169.9,100.9,169.6,101.1,169.3z"/>
	<path class="st9" d="M116.4,167.9c1.4,0,2.7,0.2,3.9,0.5c1.3,0.4,2.4,0.8,3.5,1.5c1.1,0.6,2.1,1.4,3,2.3c0.9,0.9,1.7,1.9,2.3,3
		c0.6,1.1,1.1,2.2,1.5,3.5c0.4,1.3,0.5,2.6,0.5,3.9s-0.2,2.7-0.5,3.9c-0.4,1.3-0.8,2.4-1.5,3.5c-0.6,1.1-1.4,2.1-2.3,2.9
		c-0.9,0.9-1.9,1.6-3,2.2s-2.2,1.1-3.5,1.5c-1.3,0.4-2.6,0.5-3.9,0.5h-5c-0.6,0-1.2-0.2-1.6-0.6c-0.4-0.4-0.6-0.9-0.6-1.6v-24.7
		c0-0.6,0.2-1.2,0.6-1.6c0.4-0.4,1-0.6,1.6-0.6H116.4z M116.5,172.5h-2.8v20.1h2.7c1.4,0,2.8-0.2,4-0.7s2.3-1.2,3.2-2.1
		c0.9-0.9,1.7-1.9,2.2-3.2c0.5-1.2,0.8-2.6,0.8-4c0-1.4-0.3-2.7-0.8-3.9s-1.2-2.3-2.1-3.2c-0.9-0.9-2-1.6-3.2-2.1
		S117.9,172.5,116.5,172.5z"/>
	<path class="st9" d="M150,167.9c1.4,0,2.7,0.2,3.9,0.5c1.3,0.4,2.4,0.8,3.5,1.5c1.1,0.6,2.1,1.4,3,2.3c0.9,0.9,1.7,1.9,2.3,3
		c0.6,1.1,1.1,2.2,1.5,3.5c0.4,1.3,0.5,2.6,0.5,3.9s-0.2,2.7-0.5,3.9c-0.4,1.3-0.8,2.4-1.5,3.5c-0.6,1.1-1.4,2.1-2.3,2.9
		c-0.9,0.9-1.9,1.6-3,2.2s-2.2,1.1-3.5,1.5c-1.3,0.4-2.6,0.5-3.9,0.5h-5c-0.6,0-1.2-0.2-1.6-0.6c-0.4-0.4-0.6-0.9-0.6-1.6v-24.7
		c0-0.6,0.2-1.2,0.6-1.6c0.4-0.4,1-0.6,1.6-0.6H150z M150.1,172.5h-2.8v20.1h2.7c1.4,0,2.8-0.2,4-0.7c1.2-0.5,2.3-1.2,3.2-2.1
		c0.9-0.9,1.7-1.9,2.2-3.2c0.5-1.2,0.8-2.6,0.8-4c0-1.4-0.3-2.7-0.8-3.9c-0.5-1.2-1.2-2.3-2.1-3.2s-2-1.6-3.2-2.1
		C152.9,172.8,151.5,172.5,150.1,172.5z"/>
	<path class="st9" d="M172.1,194.9c0,0.6-0.2,1.2-0.7,1.6c-0.4,0.4-1,0.6-1.6,0.6c-0.6,0-1.2-0.2-1.6-0.6c-0.4-0.4-0.6-0.9-0.6-1.6
		v-24.7c0-0.6,0.2-1.2,0.6-1.6c0.4-0.4,1-0.6,1.6-0.6s1.2,0.2,1.6,0.6c0.4,0.4,0.7,0.9,0.7,1.6V194.9z"/>
	<path class="st9" d="M179.1,182.6c0,1.4,0.3,2.8,0.8,4c0.5,1.3,1.3,2.3,2.2,3.3c0.9,0.9,2,1.7,3.2,2.2c1.2,0.5,2.6,0.8,4,0.8
		c2.1,0,3.9-0.5,5.4-1.5c1.5-1,2.5-2.3,3.1-4.1H193c-0.6,0-1.2-0.2-1.6-0.6c-0.4-0.4-0.6-1-0.6-1.6c0-0.6,0.2-1.2,0.6-1.6
		c0.4-0.4,0.9-0.7,1.6-0.7l7.4,0c0.6,0,1.2,0.2,1.6,0.6c0.5,0.4,0.7,0.9,0.7,1.6c-0.1,1.8-0.5,3.4-1.2,4.9c-0.7,1.5-1.7,2.8-2.9,3.9
		c-1.2,1.1-2.6,2-4.2,2.6s-3.3,0.9-5.1,0.9c-2,0-3.9-0.4-5.7-1.2c-1.8-0.8-3.4-1.8-4.7-3.2c-1.3-1.3-2.4-2.9-3.1-4.7
		c-0.7-1.8-1.1-3.7-1.1-5.8c0-2,0.4-3.9,1.1-5.7c0.7-1.8,1.8-3.4,3.1-4.7c1.3-1.3,2.9-2.4,4.6-3.2c1.8-0.8,3.7-1.2,5.8-1.2
		c2,0,3.9,0.4,5.7,1.1c1.8,0.7,3.4,1.8,4.9,3.3c0.4,0.4,0.7,1,0.7,1.6c0,0.6-0.2,1.1-0.6,1.6c-0.2,0.2-0.5,0.4-0.7,0.5
		s-0.6,0.2-0.8,0.2s-0.6,0-0.8-0.1c-0.3-0.1-0.5-0.3-0.7-0.5c-1-1-2.2-1.8-3.4-2.3c-1.3-0.5-2.6-0.7-3.9-0.7c-1.4,0-2.7,0.3-3.9,0.8
		c-1.2,0.5-2.3,1.3-3.2,2.2c-0.9,0.9-1.7,2-2.2,3.2C179.4,179.8,179.1,181.1,179.1,182.6z"/>
	<path class="st9" d="M210.3,194.9c0,0.6-0.2,1.2-0.7,1.6c-0.4,0.4-1,0.6-1.6,0.6c-0.6,0-1.2-0.2-1.6-0.6c-0.4-0.4-0.6-0.9-0.6-1.6
		v-24.7c0-0.6,0.2-1.2,0.6-1.6c0.4-0.4,1-0.6,1.6-0.6s1.2,0.2,1.6,0.6c0.4,0.4,0.7,0.9,0.7,1.6V194.9z"/>
	<path class="st9" d="M224.9,172.5v22.4c0,0.6-0.2,1.2-0.7,1.6c-0.4,0.4-1,0.6-1.6,0.6c-0.6,0-1.1-0.2-1.5-0.6
		c-0.4-0.4-0.6-0.9-0.6-1.6v-22.4h-6c-0.6,0-1.2-0.2-1.6-0.6c-0.4-0.4-0.6-1-0.6-1.6c0-0.6,0.2-1.2,0.6-1.6c0.4-0.4,0.9-0.6,1.6-0.6
		H231c0.6,0,1.2,0.2,1.6,0.7c0.4,0.4,0.6,1,0.6,1.6c0,0.3-0.1,0.6-0.2,0.9c-0.1,0.3-0.3,0.5-0.5,0.7c-0.2,0.2-0.4,0.4-0.7,0.5
		c-0.3,0.1-0.6,0.2-0.9,0.2L224.9,172.5L224.9,172.5z"/>
	<path class="st9" d="M247.3,189h-11.5l-2.8,6.7c-0.1,0.3-0.3,0.6-0.5,0.8c-0.2,0.2-0.5,0.4-0.7,0.5c-0.3,0.1-0.6,0.2-0.9,0.1
		c-0.3,0-0.6-0.1-0.9-0.2c-0.6-0.3-1-0.7-1.1-1.2c-0.2-0.6-0.2-1.1,0.1-1.7l10.6-24.6c0.2-0.4,0.5-0.8,0.8-1
		c0.4-0.2,0.8-0.4,1.2-0.4c0.4,0,0.8,0.1,1.2,0.4c0.4,0.2,0.6,0.6,0.8,1l10.5,24.6c0.3,0.6,0.3,1.2,0.1,1.7c-0.2,0.6-0.6,1-1.1,1.2
		c-0.3,0.1-0.6,0.2-0.9,0.2c-0.3,0-0.6,0-0.9-0.2c-0.3-0.1-0.5-0.3-0.7-0.5c-0.2-0.2-0.4-0.4-0.6-0.7L247.3,189z M237.7,184.5h7.7
		l-3.9-9.3L237.7,184.5z"/>
	<path class="st9" d="M261,192.6l9.4,0c0.6,0,1.2,0.2,1.6,0.6c0.4,0.4,0.6,1,0.6,1.6c0,0.3-0.1,0.6-0.2,0.9
		c-0.1,0.3-0.3,0.5-0.5,0.7c-0.2,0.2-0.4,0.4-0.7,0.5s-0.6,0.2-0.9,0.2h-11.9l-0.2,0c-0.5-0.1-0.9-0.4-1.3-0.8s-0.5-0.9-0.5-1.4
		v-24.7c0-0.3,0.1-0.6,0.2-0.9c0.1-0.3,0.3-0.5,0.5-0.7c0.2-0.2,0.4-0.4,0.7-0.5s0.6-0.2,0.9-0.2c0.3,0,0.6,0.1,0.9,0.2
		s0.5,0.3,0.7,0.5c0.2,0.2,0.4,0.4,0.5,0.7c0.1,0.3,0.2,0.6,0.2,0.9L261,192.6L261,192.6z"/>
	<path class="st9" d="M51.6,236.2c0,0.6-0.2,1.2-0.7,1.6s-1,0.6-1.6,0.6s-1.2-0.2-1.6-0.6c-0.4-0.4-0.6-0.9-0.6-1.6v-24.7
		c0-0.6,0.2-1.2,0.6-1.6c0.4-0.4,1-0.6,1.6-0.6s1.2,0.2,1.6,0.6c0.4,0.4,0.7,0.9,0.7,1.6V236.2z"/>
	<path class="st9" d="M60.6,218.3v17.9c0,0.6-0.2,1.2-0.7,1.6s-1,0.6-1.6,0.6s-1.2-0.2-1.6-0.6c-0.4-0.4-0.6-0.9-0.6-1.6v-24.6
		c0-0.6,0.2-1.2,0.6-1.6c0.4-0.4,1-0.6,1.6-0.6h0c0.1,0,0.2,0,0.2,0c0.1,0,0.1,0,0.2,0l0.3,0.1c0.3,0.1,0.5,0.2,0.7,0.3l0.2,0.2
		c0.2,0.2,0.3,0.4,0.4,0.6l13.5,18.9v-18c0-0.6,0.2-1.2,0.7-1.6c0.4-0.4,1-0.6,1.6-0.6c0.3,0,0.6,0.1,0.9,0.2
		c0.3,0.1,0.5,0.3,0.7,0.5c0.2,0.2,0.4,0.4,0.5,0.7c0.1,0.3,0.2,0.6,0.2,0.9v24.7c0,0.5-0.2,1-0.5,1.3c-0.3,0.4-0.7,0.6-1.1,0.8
		c-0.1,0-0.3,0.1-0.4,0.1H76c-0.5,0-1-0.2-1.4-0.5l-0.2-0.2c-0.1-0.1-0.1-0.1-0.2-0.2L60.6,218.3z"/>
	<path class="st9" d="M92.1,213.8v22.4c0,0.6-0.2,1.2-0.7,1.6c-0.4,0.4-1,0.6-1.6,0.6s-1.1-0.2-1.5-0.6c-0.4-0.4-0.6-0.9-0.6-1.6
		v-22.4h-6c-0.6,0-1.2-0.2-1.6-0.6c-0.4-0.4-0.6-1-0.6-1.6c0-0.6,0.2-1.2,0.6-1.6c0.4-0.4,0.9-0.6,1.6-0.6h16.5
		c0.6,0,1.2,0.2,1.6,0.7c0.4,0.4,0.6,1,0.6,1.6c0,0.3-0.1,0.6-0.2,0.9s-0.3,0.5-0.5,0.7c-0.2,0.2-0.4,0.4-0.7,0.5
		c-0.3,0.1-0.6,0.2-0.9,0.2L92.1,213.8L92.1,213.8z"/>
	<path class="st9" d="M104.7,238.4c-0.6,0-1.1-0.3-1.5-0.7s-0.6-0.9-0.6-1.6v-24.6c0-0.3,0.1-0.6,0.2-0.9c0.1-0.3,0.3-0.5,0.5-0.7
		c0.2-0.2,0.4-0.4,0.7-0.5c0.3-0.1,0.6-0.2,0.9-0.2H117c0.3,0,0.6,0.1,0.9,0.2c0.3,0.1,0.5,0.3,0.7,0.5s0.4,0.4,0.5,0.7
		c0.1,0.3,0.2,0.6,0.2,0.9c0,0.6-0.2,1.2-0.6,1.6c-0.4,0.4-0.9,0.6-1.6,0.6h-9.8v7.9h7.1c0.3,0,0.6,0,0.9,0.2s0.5,0.3,0.7,0.5
		c0.2,0.2,0.4,0.4,0.5,0.7c0.1,0.3,0.2,0.6,0.2,0.9c0,0.6-0.2,1.2-0.6,1.6c-0.4,0.4-1,0.6-1.6,0.6h-7.1v7.8h9.8
		c0.6,0,1.2,0.2,1.6,0.7c0.4,0.4,0.6,1,0.6,1.6c0,0.3-0.1,0.6-0.2,0.9s-0.3,0.5-0.5,0.7c-0.2,0.2-0.4,0.4-0.7,0.5
		c-0.3,0.1-0.6,0.2-0.9,0.2L104.7,238.4L104.7,238.4z"/>
	<path class="st9" d="M123.6,223.9c0,1.4,0.3,2.8,0.8,4c0.5,1.3,1.3,2.3,2.2,3.3c0.9,0.9,2,1.7,3.2,2.2c1.2,0.5,2.6,0.8,4,0.8
		c2.1,0,3.9-0.5,5.4-1.5c1.5-1,2.5-2.3,3.1-4.1h-4.8c-0.6,0-1.2-0.2-1.6-0.6c-0.4-0.4-0.6-1-0.6-1.6c0-0.6,0.2-1.2,0.6-1.6
		c0.4-0.4,0.9-0.7,1.6-0.7l7.4,0c0.6,0,1.2,0.2,1.6,0.6c0.5,0.4,0.7,0.9,0.7,1.6c-0.1,1.8-0.5,3.4-1.2,4.9c-0.7,1.5-1.7,2.8-2.9,3.9
		s-2.6,2-4.2,2.6c-1.6,0.6-3.3,0.9-5.1,0.9c-2,0-3.9-0.4-5.7-1.2c-1.8-0.8-3.4-1.8-4.7-3.2c-1.3-1.3-2.4-2.9-3.1-4.7
		c-0.7-1.8-1.1-3.7-1.1-5.8c0-2,0.4-3.9,1.1-5.7s1.8-3.4,3.1-4.7c1.3-1.3,2.9-2.4,4.6-3.2c1.8-0.8,3.7-1.2,5.8-1.2
		c2,0,3.9,0.4,5.7,1.1c1.8,0.7,3.4,1.8,4.9,3.3c0.4,0.4,0.7,1,0.7,1.6c0,0.6-0.2,1.1-0.6,1.6c-0.2,0.2-0.5,0.4-0.7,0.5
		c-0.3,0.1-0.6,0.2-0.8,0.2s-0.6,0-0.8-0.1c-0.3-0.1-0.5-0.3-0.7-0.5c-1-1-2.2-1.8-3.4-2.3c-1.3-0.5-2.6-0.7-3.9-0.7
		c-1.4,0-2.7,0.3-3.9,0.8c-1.2,0.5-2.3,1.3-3.2,2.2c-0.9,0.9-1.7,2-2.2,3.2C123.9,221.1,123.6,222.4,123.6,223.9z"/>
	<path class="st9" d="M168.8,217.9c0,0.9-0.1,1.8-0.4,2.7c-0.3,0.9-0.7,1.6-1.2,2.3c-0.5,0.7-1.1,1.3-1.8,1.8s-1.5,0.9-2.3,1.2
		l5.4,9.1c0.2,0.3,0.3,0.6,0.3,0.9c0,0.3,0,0.6-0.1,0.9c-0.1,0.3-0.2,0.5-0.4,0.8c-0.2,0.2-0.4,0.4-0.7,0.6
		c-0.3,0.2-0.6,0.2-0.8,0.3c-0.3,0-0.6,0-0.8-0.1s-0.5-0.2-0.7-0.4s-0.4-0.4-0.6-0.7l-6.3-10.8h-3.5v9.7c0,0.6-0.2,1.2-0.7,1.6
		c-0.4,0.4-1,0.6-1.6,0.6c-0.6,0-1.2-0.2-1.6-0.6c-0.4-0.4-0.6-0.9-0.6-1.6v-24.6c0-0.6,0.2-1.2,0.6-1.6c0.4-0.4,1-0.6,1.6-0.6h7.6
		c1.2,0,2.3,0.2,3.4,0.7c1.1,0.4,2,1.1,2.8,1.8c0.8,0.8,1.4,1.7,1.9,2.8C168.6,215.6,168.8,216.7,168.8,217.9z M154.8,213.8v8.2h5.3
		c0.6,0,1.1-0.1,1.6-0.3c0.5-0.2,1-0.5,1.3-0.9c0.4-0.4,0.7-0.8,0.9-1.3c0.2-0.5,0.3-1,0.3-1.6c0-0.6-0.1-1.1-0.3-1.6
		c-0.2-0.5-0.5-0.9-0.9-1.3c-0.4-0.4-0.8-0.6-1.3-0.9c-0.5-0.2-1.1-0.3-1.6-0.3L154.8,213.8L154.8,213.8z"/>
	<path class="st9" d="M188.4,230.3H177l-2.8,6.7c-0.1,0.3-0.3,0.6-0.5,0.8c-0.2,0.2-0.5,0.4-0.7,0.5s-0.6,0.2-0.9,0.1
		c-0.3,0-0.6-0.1-0.9-0.2c-0.6-0.3-1-0.7-1.1-1.2c-0.2-0.6-0.2-1.1,0.1-1.7l10.6-24.6c0.2-0.4,0.5-0.8,0.8-1
		c0.4-0.2,0.8-0.4,1.2-0.4c0.4,0,0.8,0.1,1.2,0.4c0.4,0.2,0.6,0.6,0.8,1l10.5,24.6c0.3,0.6,0.3,1.2,0.1,1.7c-0.2,0.6-0.6,1-1.1,1.2
		c-0.3,0.1-0.6,0.2-0.9,0.2c-0.3,0-0.6,0-0.9-0.2c-0.3-0.1-0.5-0.3-0.7-0.5c-0.2-0.2-0.4-0.4-0.6-0.7L188.4,230.3z M178.8,225.8h7.7
		l-3.9-9.3L178.8,225.8z"/>
	<path class="st9" d="M204.8,209.3c1.4,0,2.7,0.2,3.9,0.5c1.3,0.4,2.4,0.8,3.5,1.5c1.1,0.6,2.1,1.4,3,2.3s1.7,1.9,2.3,3
		c0.6,1.1,1.1,2.2,1.5,3.5c0.4,1.3,0.5,2.6,0.5,3.9s-0.2,2.7-0.5,3.9c-0.4,1.3-0.8,2.4-1.5,3.5c-0.6,1.1-1.4,2.1-2.3,2.9
		c-0.9,0.9-1.9,1.6-3,2.2c-1.1,0.6-2.2,1.1-3.5,1.5c-1.3,0.4-2.6,0.5-3.9,0.5h-5c-0.6,0-1.2-0.2-1.6-0.6c-0.4-0.4-0.6-0.9-0.6-1.6
		v-24.7c0-0.6,0.2-1.2,0.6-1.6c0.4-0.4,1-0.6,1.6-0.6L204.8,209.3L204.8,209.3z M205,213.8h-2.8v20.1h2.7c1.4,0,2.8-0.2,4-0.7
		c1.2-0.5,2.3-1.2,3.2-2.1c0.9-0.9,1.7-1.9,2.2-3.2c0.5-1.2,0.8-2.6,0.8-4c0-1.4-0.3-2.7-0.8-3.9c-0.5-1.2-1.2-2.3-2.1-3.2
		c-0.9-0.9-2-1.6-3.2-2.1C207.7,214.1,206.3,213.9,205,213.8z"/>
	<path class="st9" d="M238.5,230.3H227l-2.8,6.7c-0.1,0.3-0.3,0.6-0.5,0.8c-0.2,0.2-0.5,0.4-0.7,0.5s-0.6,0.2-0.9,0.1
		c-0.3,0-0.6-0.1-0.9-0.2c-0.6-0.3-1-0.7-1.1-1.2c-0.2-0.6-0.2-1.1,0.1-1.7l10.6-24.6c0.2-0.4,0.5-0.8,0.8-1
		c0.4-0.2,0.8-0.4,1.2-0.4c0.4,0,0.8,0.1,1.2,0.4c0.4,0.2,0.6,0.6,0.8,1l10.5,24.6c0.3,0.6,0.3,1.2,0.1,1.7s-0.6,1-1.1,1.2
		c-0.3,0.1-0.6,0.2-0.9,0.2c-0.3,0-0.6,0-0.9-0.2s-0.5-0.3-0.7-0.5c-0.2-0.2-0.4-0.4-0.6-0.7L238.5,230.3z M228.9,225.8h7.7
		l-3.9-9.3L228.9,225.8z"/>
</g>
</svg>
