<?xml version="1.0" encoding="utf-8"?>
<svg xmlns="http://www.w3.org/2000/svg" xmlns:xlink="http://www.w3.org/1999/xlink" style="margin: auto; background: rgb(255, 255, 255); display: block; shape-rendering: auto;" width="64px" height="64px" viewBox="0 0 100 100" preserveAspectRatio="xMidYMid">
<g transform="rotate(0 50 50)">
  <rect x="47.5" y="8.5" rx="2.5" ry="9.5" width="5" height="19" fill="#1cbebe">
    <animate attributeName="opacity" values="1;0" keyTimes="0;1" dur="2.6315789473684212s" begin="-2.4930747922437675s" repeatCount="indefinite"></animate>
  </rect>
</g><g transform="rotate(18.94736842105263 50 50)">
  <rect x="47.5" y="8.5" rx="2.5" ry="9.5" width="5" height="19" fill="#1cbebe">
    <animate attributeName="opacity" values="1;0" keyTimes="0;1" dur="2.6315789473684212s" begin="-2.3545706371191137s" repeatCount="indefinite"></animate>
  </rect>
</g><g transform="rotate(37.89473684210526 50 50)">
  <rect x="47.5" y="8.5" rx="2.5" ry="9.5" width="5" height="19" fill="#1cbebe">
    <animate attributeName="opacity" values="1;0" keyTimes="0;1" dur="2.6315789473684212s" begin="-2.21606648199446s" repeatCount="indefinite"></animate>
  </rect>
</g><g transform="rotate(56.8421052631579 50 50)">
  <rect x="47.5" y="8.5" rx="2.5" ry="9.5" width="5" height="19" fill="#1cbebe">
    <animate attributeName="opacity" values="1;0" keyTimes="0;1" dur="2.6315789473684212s" begin="-2.0775623268698062s" repeatCount="indefinite"></animate>
  </rect>
</g><g transform="rotate(75.78947368421052 50 50)">
  <rect x="47.5" y="8.5" rx="2.5" ry="9.5" width="5" height="19" fill="#1cbebe">
    <animate attributeName="opacity" values="1;0" keyTimes="0;1" dur="2.6315789473684212s" begin="-1.9390581717451525s" repeatCount="indefinite"></animate>
  </rect>
</g><g transform="rotate(94.73684210526316 50 50)">
  <rect x="47.5" y="8.5" rx="2.5" ry="9.5" width="5" height="19" fill="#1cbebe">
    <animate attributeName="opacity" values="1;0" keyTimes="0;1" dur="2.6315789473684212s" begin="-1.8005540166204987s" repeatCount="indefinite"></animate>
  </rect>
</g><g transform="rotate(113.6842105263158 50 50)">
  <rect x="47.5" y="8.5" rx="2.5" ry="9.5" width="5" height="19" fill="#1cbebe">
    <animate attributeName="opacity" values="1;0" keyTimes="0;1" dur="2.6315789473684212s" begin="-1.662049861495845s" repeatCount="indefinite"></animate>
  </rect>
</g><g transform="rotate(132.6315789473684 50 50)">
  <rect x="47.5" y="8.5" rx="2.5" ry="9.5" width="5" height="19" fill="#1cbebe">
    <animate attributeName="opacity" values="1;0" keyTimes="0;1" dur="2.6315789473684212s" begin="-1.5235457063711912s" repeatCount="indefinite"></animate>
  </rect>
</g><g transform="rotate(151.57894736842104 50 50)">
  <rect x="47.5" y="8.5" rx="2.5" ry="9.5" width="5" height="19" fill="#1cbebe">
    <animate attributeName="opacity" values="1;0" keyTimes="0;1" dur="2.6315789473684212s" begin="-1.3850415512465375s" repeatCount="indefinite"></animate>
  </rect>
</g><g transform="rotate(170.52631578947367 50 50)">
  <rect x="47.5" y="8.5" rx="2.5" ry="9.5" width="5" height="19" fill="#1cbebe">
    <animate attributeName="opacity" values="1;0" keyTimes="0;1" dur="2.6315789473684212s" begin="-1.2465373961218837s" repeatCount="indefinite"></animate>
  </rect>
</g><g transform="rotate(189.47368421052633 50 50)">
  <rect x="47.5" y="8.5" rx="2.5" ry="9.5" width="5" height="19" fill="#1cbebe">
    <animate attributeName="opacity" values="1;0" keyTimes="0;1" dur="2.6315789473684212s" begin="-1.10803324099723s" repeatCount="indefinite"></animate>
  </rect>
</g><g transform="rotate(208.42105263157896 50 50)">
  <rect x="47.5" y="8.5" rx="2.5" ry="9.5" width="5" height="19" fill="#1cbebe">
    <animate attributeName="opacity" values="1;0" keyTimes="0;1" dur="2.6315789473684212s" begin="-0.9695290858725762s" repeatCount="indefinite"></animate>
  </rect>
</g><g transform="rotate(227.3684210526316 50 50)">
  <rect x="47.5" y="8.5" rx="2.5" ry="9.5" width="5" height="19" fill="#1cbebe">
    <animate attributeName="opacity" values="1;0" keyTimes="0;1" dur="2.6315789473684212s" begin="-0.8310249307479225s" repeatCount="indefinite"></animate>
  </rect>
</g><g transform="rotate(246.31578947368422 50 50)">
  <rect x="47.5" y="8.5" rx="2.5" ry="9.5" width="5" height="19" fill="#1cbebe">
    <animate attributeName="opacity" values="1;0" keyTimes="0;1" dur="2.6315789473684212s" begin="-0.6925207756232687s" repeatCount="indefinite"></animate>
  </rect>
</g><g transform="rotate(265.2631578947368 50 50)">
  <rect x="47.5" y="8.5" rx="2.5" ry="9.5" width="5" height="19" fill="#1cbebe">
    <animate attributeName="opacity" values="1;0" keyTimes="0;1" dur="2.6315789473684212s" begin="-0.554016620498615s" repeatCount="indefinite"></animate>
  </rect>
</g><g transform="rotate(284.2105263157895 50 50)">
  <rect x="47.5" y="8.5" rx="2.5" ry="9.5" width="5" height="19" fill="#1cbebe">
    <animate attributeName="opacity" values="1;0" keyTimes="0;1" dur="2.6315789473684212s" begin="-0.41551246537396125s" repeatCount="indefinite"></animate>
  </rect>
</g><g transform="rotate(303.1578947368421 50 50)">
  <rect x="47.5" y="8.5" rx="2.5" ry="9.5" width="5" height="19" fill="#1cbebe">
    <animate attributeName="opacity" values="1;0" keyTimes="0;1" dur="2.6315789473684212s" begin="-0.2770083102493075s" repeatCount="indefinite"></animate>
  </rect>
</g><g transform="rotate(322.10526315789474 50 50)">
  <rect x="47.5" y="8.5" rx="2.5" ry="9.5" width="5" height="19" fill="#1cbebe">
    <animate attributeName="opacity" values="1;0" keyTimes="0;1" dur="2.6315789473684212s" begin="-0.13850415512465375s" repeatCount="indefinite"></animate>
  </rect>
</g><g transform="rotate(341.05263157894734 50 50)">
  <rect x="47.5" y="8.5" rx="2.5" ry="9.5" width="5" height="19" fill="#1cbebe">
    <animate attributeName="opacity" values="1;0" keyTimes="0;1" dur="2.6315789473684212s" begin="0s" repeatCount="indefinite"></animate>
  </rect>
</g>
<!-- [ldio] generated by https://loading.io/ --></svg>