<?xml version="1.0" encoding="utf-8"?>
<!-- Generator: Adobe Illustrator 23.0.4, SVG Export Plug-In . SVG Version: 6.00 Build 0)  -->
<svg version="1.1" xmlns="http://www.w3.org/2000/svg" xmlns:xlink="http://www.w3.org/1999/xlink" x="0px" y="0px"
	 viewBox="0 0 146.68 145.62" style="enable-background:new 0 0 146.68 145.62;" xml:space="preserve">
<style type="text/css">
	.st0{fill:#4A81BA;}
	.st1{fill:#8DBA3B;}
	.st2{fill:#CA312B;}
	.st3{fill:#EEA759;}
	.st4{fill:#794C85;}
	.st5{fill:#B12470;}
	.st6{fill:#FEEB13;}
	.st7{fill:#FFFFFF;}
	.st8{fill:#1E5A7C;}
	.st9{fill:#A9D0F5;}
	.st10{fill:#3366CC;}
</style>
<g id="Capa_1">
</g>
<g id="Capa_2">
	<g>
		<path class="st10" d="M7.73,124.65l-1.7,12.42c-0.07,0.48-0.29,0.86-0.65,1.13c-0.37,0.27-0.79,0.37-1.27,0.3
			s-0.86-0.29-1.13-0.66c-0.28-0.37-0.38-0.8-0.33-1.28l2.56-18.54c0.06-0.39,0.22-0.71,0.48-0.97c0.18-0.21,0.39-0.36,0.63-0.45
			c0.42-0.17,0.85-0.17,1.28,0c0.43,0.17,0.74,0.48,0.94,0.92l6.02,14.84l5.99-14.84c0.19-0.44,0.5-0.74,0.92-0.92s0.84-0.17,1.28,0
			l0.19,0.1c0.25,0.12,0.46,0.29,0.64,0.52c0.17,0.23,0.27,0.5,0.31,0.8l2.39,18.59c0.06,0.48-0.06,0.91-0.35,1.27
			s-0.67,0.57-1.14,0.63c-0.47,0.06-0.89-0.05-1.26-0.33s-0.59-0.66-0.64-1.14l-1.58-12.31l-5.18,12.78
			c-0.14,0.31-0.34,0.56-0.61,0.73c-0.27,0.18-0.56,0.28-0.87,0.3c-0.36,0.03-0.68-0.04-0.99-0.22c-0.3-0.18-0.54-0.45-0.7-0.82
			L7.73,124.65z"/>
		<path class="st10" d="M29.37,138.56c-0.46-0.03-0.83-0.21-1.13-0.53s-0.45-0.71-0.45-1.18v-18.69c0-0.24,0.04-0.47,0.13-0.67
			c0.09-0.21,0.21-0.39,0.36-0.54c0.15-0.16,0.34-0.28,0.55-0.37c0.21-0.09,0.44-0.14,0.68-0.14h9.17c0.24,0,0.46,0.05,0.66,0.14
			c0.2,0.09,0.38,0.22,0.53,0.37c0.15,0.16,0.27,0.34,0.36,0.54c0.09,0.21,0.13,0.43,0.13,0.67c0,0.48-0.16,0.89-0.48,1.22
			c-0.32,0.33-0.72,0.49-1.2,0.49h-7.47v5.98h5.39c0.24-0.01,0.46,0.03,0.67,0.11c0.21,0.09,0.39,0.21,0.54,0.36
			c0.16,0.16,0.28,0.34,0.36,0.54c0.08,0.21,0.13,0.43,0.13,0.67c0,0.48-0.16,0.88-0.49,1.19c-0.33,0.31-0.73,0.47-1.21,0.47h-5.39
			v5.93h7.47c0.48,0,0.88,0.17,1.2,0.5c0.32,0.33,0.48,0.74,0.48,1.23c0,0.24-0.04,0.47-0.13,0.67c-0.09,0.21-0.21,0.39-0.36,0.54
			s-0.33,0.28-0.53,0.36c-0.2,0.09-0.42,0.12-0.66,0.11H29.37z"/>
		<path class="st10" d="M47.89,116.42c1.03,0,2.02,0.13,2.98,0.39c0.95,0.26,1.84,0.63,2.67,1.11c0.82,0.48,1.58,1.05,2.26,1.73
			c0.69,0.67,1.27,1.42,1.75,2.24c0.48,0.82,0.85,1.7,1.12,2.65c0.27,0.95,0.4,1.95,0.4,2.98c0,1.04-0.13,2.03-0.4,2.97
			c-0.27,0.95-0.64,1.83-1.12,2.65c-0.48,0.82-1.06,1.56-1.75,2.22c-0.69,0.66-1.44,1.23-2.26,1.7c-0.82,0.47-1.71,0.84-2.67,1.1
			c-0.96,0.26-1.95,0.39-2.98,0.39h-3.77c-0.48,0-0.88-0.16-1.21-0.48c-0.33-0.32-0.49-0.73-0.49-1.21v-18.75
			c0-0.48,0.16-0.89,0.49-1.21c0.33-0.32,0.73-0.48,1.21-0.48H47.89z M48,119.9h-2.16v15.22h2.08c1.08,0,2.08-0.19,3.03-0.57
			s1.77-0.91,2.46-1.58c0.7-0.67,1.25-1.47,1.65-2.4c0.4-0.92,0.6-1.93,0.6-3.03c0-1.07-0.2-2.07-0.6-2.99
			c-0.4-0.92-0.94-1.73-1.63-2.41c-0.69-0.68-1.5-1.22-2.43-1.62S49.06,119.91,48,119.9z"/>
		<path class="st10" d="M64.63,136.86c0,0.48-0.17,0.89-0.5,1.21c-0.33,0.32-0.74,0.48-1.22,0.48s-0.88-0.16-1.21-0.48
			c-0.33-0.32-0.49-0.73-0.49-1.21v-18.75c0-0.48,0.16-0.89,0.49-1.21c0.33-0.32,0.73-0.48,1.21-0.48s0.89,0.16,1.22,0.48
			c0.33,0.32,0.5,0.73,0.5,1.21V136.86z"/>
		<path class="st10" d="M86,120.16c0.08,0.21,0.12,0.42,0.12,0.63c0,0.21-0.04,0.42-0.12,0.63c-0.08,0.21-0.2,0.4-0.36,0.57
			c-0.17,0.16-0.36,0.29-0.58,0.37c-0.21,0.09-0.43,0.13-0.64,0.13c-0.22,0-0.43-0.04-0.64-0.11c-0.21-0.07-0.4-0.19-0.56-0.35
			c-0.78-0.78-1.64-1.36-2.58-1.73c-0.94-0.37-1.93-0.55-2.94-0.55c-1.05,0-2.05,0.2-2.98,0.61s-1.75,0.95-2.45,1.65
			c-0.7,0.7-1.25,1.52-1.66,2.46S70,126.42,70,127.51c0,1.05,0.19,2.04,0.58,2.98c0.38,0.94,0.92,1.77,1.6,2.48
			c0.68,0.72,1.49,1.28,2.42,1.7s1.95,0.64,3.05,0.65c1.03,0,2.01-0.18,2.94-0.54s1.8-0.93,2.61-1.73c0.16-0.15,0.34-0.26,0.55-0.35
			s0.42-0.12,0.64-0.12c0.22,0,0.44,0.04,0.64,0.11c0.21,0.08,0.39,0.19,0.55,0.34c0.17,0.16,0.3,0.35,0.38,0.56
			c0.08,0.21,0.12,0.43,0.12,0.66c0,0.22-0.04,0.44-0.12,0.65c-0.08,0.21-0.2,0.39-0.34,0.55c-1.12,1.12-2.37,1.95-3.73,2.49
			s-2.78,0.81-4.23,0.81c-1.02,0-2-0.13-2.93-0.4c-0.94-0.26-1.82-0.64-2.64-1.13c-0.82-0.49-1.57-1.08-2.25-1.76
			c-0.68-0.69-1.25-1.44-1.73-2.27c-0.48-0.83-0.85-1.72-1.12-2.67s-0.39-1.95-0.39-2.98c0-0.98,0.13-1.94,0.38-2.89
			c0.25-0.95,0.61-1.83,1.07-2.66c0.46-0.83,1.03-1.6,1.69-2.3c0.66-0.7,1.41-1.31,2.23-1.82c0.82-0.51,1.72-0.9,2.69-1.18
			c0.97-0.28,2-0.42,3.07-0.42c1.44,0,2.85,0.28,4.21,0.83c1.37,0.55,2.6,1.39,3.7,2.51C85.8,119.76,85.92,119.95,86,120.16z"/>
		<path class="st10" d="M91.49,125.81h9.37v-7.7c0-0.48,0.17-0.89,0.51-1.21c0.34-0.32,0.75-0.48,1.23-0.48
			c0.48,0,0.88,0.16,1.2,0.48c0.32,0.32,0.48,0.73,0.48,1.21v18.75c0,0.48-0.17,0.89-0.5,1.21c-0.33,0.32-0.74,0.48-1.22,0.48
			c-0.48,0-0.88-0.16-1.21-0.48c-0.33-0.32-0.49-0.73-0.49-1.21v-7.61h-9.37v7.61c0,0.48-0.17,0.89-0.5,1.21
			c-0.33,0.32-0.74,0.48-1.22,0.48s-0.88-0.16-1.21-0.48c-0.33-0.32-0.49-0.73-0.49-1.21v-18.75c0-0.48,0.16-0.89,0.49-1.21
			c0.33-0.32,0.73-0.48,1.21-0.48s0.89,0.16,1.22,0.48c0.33,0.32,0.5,0.73,0.5,1.21V125.81z"/>
		<path class="st10" d="M111.13,136.86c0,0.48-0.17,0.89-0.5,1.21c-0.33,0.32-0.74,0.48-1.22,0.48s-0.88-0.16-1.21-0.48
			c-0.33-0.32-0.49-0.73-0.49-1.21v-18.75c0-0.48,0.16-0.89,0.49-1.21c0.33-0.32,0.73-0.48,1.21-0.48s0.89,0.16,1.22,0.48
			c0.33,0.32,0.5,0.73,0.5,1.21V136.86z"/>
		<path class="st10" d="M117.98,135.13l7.12,0.02c0.48,0,0.88,0.16,1.21,0.49c0.33,0.33,0.49,0.74,0.49,1.22
			c0,0.24-0.04,0.47-0.13,0.67c-0.09,0.21-0.21,0.39-0.36,0.54s-0.33,0.28-0.54,0.36c-0.21,0.09-0.43,0.12-0.67,0.11h-9.05
			l-0.14-0.03c-0.4-0.08-0.73-0.27-0.98-0.58c-0.25-0.3-0.38-0.67-0.38-1.08v-18.73c0-0.24,0.04-0.47,0.13-0.67
			c0.09-0.21,0.21-0.39,0.36-0.54c0.15-0.16,0.33-0.28,0.54-0.36c0.21-0.09,0.43-0.13,0.67-0.13s0.46,0.04,0.67,0.13
			c0.21,0.09,0.39,0.21,0.54,0.36c0.16,0.16,0.28,0.34,0.37,0.54c0.09,0.21,0.14,0.43,0.14,0.67V135.13z"/>
		<path class="st10" d="M129.84,138.56c-0.46-0.03-0.83-0.21-1.13-0.53s-0.45-0.71-0.45-1.18v-18.69c0-0.24,0.04-0.47,0.13-0.67
			c0.09-0.21,0.21-0.39,0.36-0.54c0.15-0.16,0.34-0.28,0.55-0.37c0.21-0.09,0.44-0.14,0.68-0.14h9.17c0.24,0,0.46,0.05,0.66,0.14
			c0.2,0.09,0.38,0.22,0.53,0.37c0.15,0.16,0.27,0.34,0.36,0.54c0.09,0.21,0.13,0.43,0.13,0.67c0,0.48-0.16,0.89-0.48,1.22
			c-0.32,0.33-0.72,0.49-1.2,0.49h-7.47v5.98h5.39c0.24-0.01,0.46,0.03,0.67,0.11c0.21,0.09,0.39,0.21,0.54,0.36
			c0.16,0.16,0.28,0.34,0.36,0.54c0.08,0.21,0.13,0.43,0.13,0.67c0,0.48-0.16,0.88-0.49,1.19c-0.33,0.31-0.73,0.47-1.21,0.47h-5.39
			v5.93h7.47c0.48,0,0.88,0.17,1.2,0.5c0.32,0.33,0.48,0.74,0.48,1.23c0,0.24-0.04,0.47-0.13,0.67c-0.09,0.21-0.21,0.39-0.36,0.54
			s-0.33,0.28-0.53,0.36c-0.2,0.09-0.42,0.12-0.66,0.11H129.84z"/>
	</g>
	<ellipse class="st10" cx="70.21" cy="45.45" rx="5.27" ry="6.93"/>
	<path class="st10" d="M52.73,86.22c0,0,2.1-6.74,5.67-13.88c2.92-5.83,7.03-10.99,12.03-15.18c6.3-5.28,17.34-15.3,18.91-21.98
		c0,0,2.03,11.19-8.02,23.83c-0.88,1.11-1.25,2.54-1.04,3.95c1.14,7.72,4.08,33.2-4.8,44.89c0,0,3.61-16.36-0.83-22.47
		c0,0-9.99,23.3-17.2,25.52c0,0,13.23-19.05,9.71-37.51c-0.15-0.81-1.01-1.28-1.77-0.97C63.28,73.27,58.97,76.21,52.73,86.22z"/>
	<path class="st1" d="M28.33,49.61c0,0,7.77-9.43,16.64,0C44.97,49.61,37.2,58.49,28.33,49.61z"/>
	<path class="st2" d="M38.36,62.05c0,0,2.19-10.06,12.11-5.63C50.47,56.42,48.07,66.04,38.36,62.05z"/>
	<path class="st3" d="M39.58,32.94c0,0,9.51-2.76,10.31,7.65C49.89,40.59,40.66,42.97,39.58,32.94z"/>
	<path class="st2" d="M59.18,16.07c0,0,9.12,3.84,3.2,12.43C62.38,28.5,53.71,24.55,59.18,16.07z"/>
	<path class="st3" d="M86.23,15.84c0,0,4.63,8.75-5.4,11.65C80.83,27.48,76.63,18.93,86.23,15.84z"/>
	<path class="st4" d="M86.28,34.13c0,0,1.48,6.75-5.81,6.83C80.46,40.96,79.23,34.41,86.28,34.13z"/>
	<path class="st4" d="M112.99,37.6c0,0-0.95,5.12-6.03,3.04C106.96,40.63,108.02,35.73,112.99,37.6z"/>
	<path class="st5" d="M94.05,13.01c0,0,1.75,4.9-3.69,5.65C90.35,18.66,88.81,13.89,94.05,13.01z"/>
	<path class="st3" d="M82.1,8.19c0,0,3.02,4.24-2,6.45C80.1,14.63,77.31,10.47,82.1,8.19z"/>
	<path class="st4" d="M62.1,8.31c0,0,5.02,1.39,2.51,6.27C64.6,14.58,59.81,13.1,62.1,8.31z"/>
	<path class="st3" d="M50.16,13.26c0,0,5.2-0.11,4.2,5.28C54.36,18.54,49.35,18.5,50.16,13.26z"/>
	<path class="st1" d="M36.06,25.28c0,0,4.82-1.95,5.8,3.45C41.86,28.73,37.17,30.47,36.06,25.28z"/>
	<path class="st4" d="M30.86,37.91c0,0,4.5-2.61,6.23,2.6C37.09,40.51,32.68,42.9,30.86,37.91z"/>
	<path class="st5" d="M107.35,25.47c0,0-0.43,4.36-4.84,2.98C102.51,28.45,103.05,24.27,107.35,25.47z"/>
	<path class="st10" d="M35.43,56.91c0,0-1.07,4.25-5.22,2.23C30.21,59.14,31.36,55.08,35.43,56.91z"/>
	<path class="st4" d="M63.3,57.9c0,0,0.14,4.38-4.41,3.58C58.9,61.48,58.89,57.27,63.3,57.9z"/>
	<path class="st10" d="M52.76,80.09c0,0,0.14,4.38-4.41,3.58C48.36,83.67,48.35,79.46,52.76,80.09z"/>
	<path class="st4" d="M40.21,67.59c0,0-0.37,4.94-5.39,3.5C34.82,71.09,35.31,66.34,40.21,67.59z"/>
	<path class="st10" d="M109.02,70.68c0,0-4.13,1.46-4.75-3.11C104.27,67.56,108.28,66.27,109.02,70.68z"/>
	<path class="st5" d="M93.71,85.26c0,0-5.07,0.82-4.82-4.59C88.89,80.66,93.79,80.02,93.71,85.26z"/>
	<path class="st10" d="M94.67,53.35c0,0-4.05,1.67-4.9-2.87C89.77,50.49,93.71,49,94.67,53.35z"/>
	<path class="st5" d="M63.21,40.85c0,0-6.88,0.63-6.05-6.62C57.15,34.23,63.8,33.82,63.21,40.85z"/>
	<path class="st4" d="M52.32,52.02c0,0,3.67-6.4,9.49-1.24C61.81,50.78,58.1,56.84,52.32,52.02z"/>
	<path class="st1" d="M72.57,34.44c0,0-5.21-5.22,1.3-9.48C73.87,24.96,78.74,30.13,72.57,34.44z"/>
	<path class="st10" d="M42.51,17.44c0,0,12.19-0.8,11.4,12.12C53.91,29.56,42.12,29.99,42.51,17.44z"/>
	<g>
		<path class="st6" d="M40.91,79.38c0,0-1.77-11.61,10.59-10.94C51.5,68.44,52.88,79.66,40.91,79.38z"/>
		<path class="st6" d="M113.16,58.5c0,0-3.74,2.28-5.29-2.07C107.87,56.43,111.53,54.34,113.16,58.5z"/>
		<path class="st6" d="M87.38,66.24c0,0-4.13,1.46-4.75-3.11C82.63,63.13,86.65,61.84,87.38,66.24z"/>
		<path class="st6" d="M71.49,6.48c0,0,8.75,7.63-0.44,15.81C71.04,22.3,62.82,14.68,71.49,6.48z"/>
	</g>
	<path class="st1" d="M114.79,48.94c0,0-7.06,9.22-15.81,0.57C98.98,49.51,106.05,40.81,114.79,48.94z"/>
	<path class="st10" d="M103.91,79.58c0,0-11.51,1.59-11.63-10.72C92.27,68.85,103.42,67.65,103.91,79.58z"/>
	<path class="st3" d="M104.4,61.54c0,0-7.64,3.38-10.17-5.1C94.24,56.44,101.7,53.4,104.4,61.54z"/>
	<path class="st2" d="M103.84,32.65c0,0-0.52,9.9-10.86,8.03C92.98,40.67,93.77,31.13,103.84,32.65z"/>
	<path class="st1" d="M101.46,17.79c0,0,1.89,11.46-10.41,11.91C91.05,29.7,89.56,18.59,101.46,17.79z"/>
</g>
</svg>
