<?xml version="1.0" encoding="utf-8"?>
<!-- Generator: Adobe Illustrator 24.2.3, SVG Export Plug-In . SVG Version: 6.00 Build 0)  -->
<svg version="1.1" id="Capa_1" xmlns="http://www.w3.org/2000/svg" xmlns:xlink="http://www.w3.org/1999/xlink" x="0px" y="0px"
	 viewBox="0 0 200 200" style="enable-background:new 0 0 200 200;" xml:space="preserve">
<style type="text/css">
	.st0{clip-path:url(#SVGID_2_);}
	.st1{fill:#3366CC;}
	.st2{fill:url(#SVGID_3_);}
	.st3{fill:#FFFFFF;}
	.st4{fill:url(#SVGID_4_);}
	.st5{fill:url(#SVGID_5_);}
	.st6{clip-path:url(#SVGID_7_);}
	.st7{fill:url(#SVGID_8_);}
	.st8{fill:url(#SVGID_9_);}
	.st9{fill:url(#SVGID_10_);}
	.st10{clip-path:url(#SVGID_7_);fill:none;}
</style>
<g>
	<defs>
		<ellipse id="SVGID_1_" cx="146.2" cy="147.7" rx="51.4" ry="52.9"/>
	</defs>
	<clipPath id="SVGID_2_">
		<use xlink:href="#SVGID_1_"  style="overflow:visible;"/>
	</clipPath>
	<g id="XMLID_1_" class="st0">
		<g>
			<path class="st1" d="M290.3,115.7c3.7,3.8,3.6,8.6,0,12.5c-0.1,0.1-0.2,0.2-0.3,0.3c-51.5,51.7-102.9,103.3-154.4,155
				c-0.9,0.9-2.2,1.7-3.5,2c-8.7,2.5-17.4,5-26.1,7.4c-1.5,0.4-2.9,0.6-4.2-0.7c-1.2-1.3-0.9-2.6-0.5-4.1c2.4-8.5,4.8-16.9,7.1-25.4
				c0.5-1.9,1.4-3.4,2.8-4.7c28.9-28.9,57.8-57.8,86.7-86.7c22.4-22.4,44.7-44.7,67.1-67.1c1.9-1.9,4-3.4,6.9-3.3
				c2.5,0,4.5,1,6.2,2.7C282.2,107.6,286.3,111.6,290.3,115.7z M285.1,125.2c2.4-2.4,2.4-3.5,0-6c-3.5-3.5-6.9-7-10.4-10.4
				c-2.1-2.1-3.3-2.1-5.4-0.1c-8.4,8.3-16.8,16.5-25.1,24.8c-41.6,41.6-83.1,83.3-124.7,124.8c-3.3,3.3-5.6,6.9-6.6,11.5
				c-1.2,5.3-2.8,10.5-4.3,16c0.5,0,0.7,0,0.9,0c6.2-1.8,12.4-3.6,18.6-5.4c2.4-0.7,4.3-2,6.1-3.8c30.9-31.1,61.9-62.1,92.9-93.1
				C246.3,164.1,265.7,144.6,285.1,125.2z"/>
			<linearGradient id="SVGID_3_" gradientUnits="userSpaceOnUse" x1="207.0415" y1="247.9621" x2="287.0693" y2="247.9621">
				<stop  offset="0" style="stop-color:#FFFFFF"/>
				<stop  offset="1" style="stop-color:#1CBEBE"/>
			</linearGradient>
			<path class="st2" d="M221.8,216.4c1.7,1.3,3.5,2.7,5.2,4.2c1.5,1.3,2.9,1.3,4.6,0.3c2.2-1.2,4.6-2.2,7.1-3
				c1.8-0.6,2.9-1.5,3.1-3.5c0.2-2.1,0.5-4.2,0.8-6.5c2.9,0,5.7,0,8.8,0c0.3,2.1,0.6,4.2,0.8,6.4c0.1,1.8,1,2.8,2.7,3.5
				c2.7,1.1,5.3,2.2,8,3.4c1.4,0.7,2.6,0.6,3.8-0.4c1.8-1.5,3.7-3,5.5-4.4c2,2.1,4,4.1,6.1,6.3c-1.2,1.6-2.7,3.4-4.2,5.3
				c-1.2,1.4-1.1,2.7-0.2,4.3c1.2,2.3,2.3,4.8,3,7.3c0.6,2,1.7,2.9,3.7,3.1c2.1,0.2,4.1,0.5,6.4,0.8c0,2.7,0,5.4-0.1,8.1
				c0,0.3-0.8,0.8-1.3,0.9c-1.7,0.3-3.5,0.4-5.2,0.6c-1.8,0.2-2.8,1.1-3.4,2.8c-1,2.6-2,5.1-3.2,7.6c-0.8,1.6-0.8,2.9,0.4,4.3
				c1.5,1.8,2.9,3.6,4.2,5.3c-2.1,2.1-4,4-6.2,6.2c-1.7-1.4-3.6-2.8-5.4-4.4c-1.4-1.1-2.6-1-4.2-0.3c-2.5,1.2-5,2.3-7.6,3.2
				c-1.6,0.6-2.6,1.4-2.7,3.2c-0.2,1.8-0.5,3.6-0.6,5.4c-0.1,1.2-0.6,1.5-1.6,1.5c-2-0.1-4,0-6,0c-1,0-1.5-0.3-1.5-1.4
				c-0.1-1.8-0.5-3.6-0.7-5.4c-0.1-1.7-1-2.6-2.5-3.2c-2.7-1.1-5.4-2.3-8.1-3.5c-1.4-0.6-2.6-0.5-3.8,0.5c-1.8,1.5-3.7,3-5.5,4.4
				c-2-2-4-4-6.1-6.2c1.3-1.7,2.7-3.6,4.3-5.4c1.3-1.5,1.2-2.8,0.3-4.5c-1.2-2.3-2.2-4.6-3-7.1c-0.6-2-1.6-3-3.6-3.2
				c-1.6-0.1-3.2-0.4-4.9-0.5c-1.2-0.1-1.8-0.5-1.7-1.8c0.1-2.4,0-4.8,0-7.3c2.3-0.3,4.4-0.6,6.5-0.8c1.8-0.2,2.9-1,3.5-2.7
				c1.1-2.7,2.2-5.3,3.4-8c0.7-1.5,0.6-2.7-0.5-4c-1.5-1.8-3-3.7-4.4-5.5C217.7,220.5,219.7,218.5,221.8,216.4z M223.5,247.3
				c0,13.2,10.6,24,23.8,24c13.1,0,23.9-10.8,23.9-23.9c0-13-10.8-23.8-23.8-23.8C234.2,223.6,223.5,234.3,223.5,247.3z"/>
			<path class="st1" d="M241.4,247.4c0,3.1,2.7,5.8,5.8,5.8c3.1,0,5.8-2.6,5.8-5.7c0-3.1-2.5-5.8-5.7-5.9
				C244.2,241.5,241.4,244.3,241.4,247.4z M247.2,271.3c-13.1,0-23.8-10.8-23.8-24c0-13,10.7-23.7,23.8-23.7
				c13,0,23.8,10.8,23.8,23.8C271.1,260.5,260.3,271.3,247.2,271.3z"/>
			<path class="st3" d="M247.2,253.2c-3.1,0-5.8-2.7-5.8-5.8c0-3.2,2.8-5.9,5.9-5.8c3.1,0.1,5.7,2.8,5.7,5.9
				C253,250.6,250.3,253.3,247.2,253.2z"/>
			<path class="st1" d="M207,250.7c-0.1,1.3,0.5,1.8,1.7,1.8c1.6,0.1,3.3,0.4,4.9,0.5c2,0.2,3,1.2,3.6,3.2c0.7,2.4,1.8,4.8,3,7.1
				c0.9,1.7,1,3-0.3,4.5c-1.5,1.8-2.9,3.7-4.3,5.4c2.1,2.2,4.1,4.1,6.1,6.2c1.8-1.4,3.7-2.9,5.5-4.4c1.2-1,2.4-1.1,3.8-0.5
				c2.7,1.2,5.4,2.4,8.1,3.5c1.5,0.6,2.4,1.5,2.5,3.2c0.2,1.8,0.5,3.6,0.7,5.4c0.1,1.1,0.6,1.4,1.5,1.4c2,0,4-0.1,6,0
				c1.1,0,1.6-0.3,1.6-1.5c0.1-1.8,0.5-3.6,0.6-5.4c0.2-1.8,1.1-2.6,2.7-3.2c2.6-0.9,5.1-2,7.6-3.2c1.5-0.7,2.8-0.9,4.2,0.3
				c1.8,1.5,3.7,3,5.4,4.4c2.2-2.2,4.1-4.1,6.2-6.2c-1.3-1.7-2.7-3.5-4.2-5.3c-1.2-1.4-1.2-2.7-0.4-4.3c1.2-2.5,2.3-5,3.2-7.6
				c0.6-1.7,1.7-2.6,3.4-2.8c1.7-0.2,3.5-0.3,5.2-0.6c0.5-0.1,1.3-0.6,1.3-0.9c0.1-2.7,0.1-5.4,0.1-8.1c-2.3-0.3-4.4-0.6-6.4-0.8
				c-2-0.2-3.1-1.1-3.7-3.1c-0.8-2.5-1.9-4.9-3-7.3c-0.8-1.6-1-2.9,0.2-4.3c1.5-1.8,3-3.7,4.2-5.3c-2.1-2.2-4.1-4.2-6.1-6.3
				c-1.7,1.4-3.6,2.8-5.5,4.4c-1.2,1-2.4,1.1-3.8,0.4c-2.6-1.2-5.3-2.4-8-3.4c-1.7-0.7-2.5-1.7-2.7-3.5c-0.2-2.2-0.6-4.3-0.8-6.4
				c-3.1,0-5.9,0-8.8,0c-0.3,2.3-0.7,4.4-0.8,6.5c-0.1,2-1.3,2.9-3.1,3.5c-2.4,0.8-4.8,1.8-7.1,3c-1.7,0.9-3.1,1-4.6-0.3
				c-1.7-1.5-3.6-2.9-5.2-4.2c-2.1,2.1-4.1,4-6.2,6.1c1.4,1.8,2.9,3.7,4.4,5.5c1.1,1.3,1.1,2.5,0.5,4c-1.2,2.6-2.3,5.3-3.4,8
				c-0.7,1.7-1.7,2.5-3.5,2.7c-2.1,0.2-4.2,0.5-6.5,0.8C207.1,246,207.1,248.4,207,250.7z M293.8,241c0,2.1,0,4.3,0,6.4
				c0,2.1,0,4.2,0,6.2c0,2.3-1.1,3.4-3.4,3.7c-2.1,0.2-4.2,0.5-6.4,0.7c-1.1,0.1-1.6,0.5-1.8,1.5c-0.2,0.7-0.3,1.4-0.7,1.9
				c-1.8,2.4-1.1,4.3,0.8,6.2c1,1,1.8,2.2,2.7,3.4c1,1.5,1,2.9-0.3,4.2c-3.2,3.1-6.3,6.3-9.5,9.5c-1.4,1.4-2.7,1.5-4.4,0.3
				c-1.8-1.3-3.4-2.8-5.3-4c-0.6-0.4-1.6-0.4-2.3-0.3c-4.1,0.9-6.3,3.2-5.8,7.6c0.1,0.6-0.1,1.2-0.2,1.9c-0.2,2.4-1.3,3.5-3.6,3.5
				c-4.3,0-8.6,0-12.8,0c-2.1,0-3.2-1.1-3.5-3.2c-0.3-2.1-0.5-4.3-0.7-6.4c0-0.2,0-0.5-0.1-0.8c-0.3-1.3-6.3-3.6-7.4-2.8
				c-1.8,1.3-3.5,2.7-5.2,4c-2,1.5-3,1.4-4.8-0.3c-3-3-6-6-8.9-9c-1.8-1.9-1.9-3-0.3-5.1c1.1-1.5,2.3-3,3.5-4.5
				c0.2-0.2,0.3-0.4,0.5-0.6c0.9-1.4-1.7-7.2-3.4-7.4c-2.2-0.2-4.4-0.5-6.6-0.7c-2.2-0.3-3.2-1.3-3.3-3.6c0-4.2,0-8.3,0-12.5
				c0-2.4,1-3.6,3.4-3.8c2-0.2,4-0.4,6-0.6c0.2,0,0.5-0.1,0.7-0.1c1.5-0.3,3.7-6.3,2.9-7.5c-1.3-1.8-2.7-3.5-4-5.3
				c-1.4-1.9-1.3-3,0.4-4.6c3-3,5.9-6,8.9-9c1.9-1.9,3-1.9,5.1-0.4c0.5,0.4,1,0.8,1.5,1.2c4.5,3.5,4.5,3.5,9.8,1.1
				c0.5-0.2,1.1-1,1.2-1.6c0.4-2.2,0.5-4.4,0.8-6.6c0.3-2.3,1.4-3.4,3.7-3.4c4.2,0,8.3,0,12.5,0c2.4,0,3.5,1.2,3.8,3.6
				c0.2,2.1,0.5,4.1,0.6,6.2c0.1,1.2,0.6,1.6,1.6,1.9c0.7,0.2,1.5,0.4,2.1,0.8c2,1.5,3.7,1.2,5.4-0.6c1.1-1.2,2.5-2.1,3.9-3
				c1.5-1,2.9-1.1,4.2,0.3c3.1,3.1,6.2,6.2,9.3,9.4c1.6,1.6,1.7,2.8,0.4,4.7c-1.3,1.8-2.8,3.6-4,5.5c-0.4,0.6-0.4,1.5-0.2,2.2
				c0.1,0.8,0.8,1.5,0.9,2.3c0.5,2.8,2.4,3.4,4.9,3.4c1.4,0,2.9,0.2,4.3,0.4C292.7,237.7,293.8,238.9,293.8,241z"/>
			<path class="st1" d="M227.6,162.5c1.3,1.4,2.6,2.8,3.9,4.2c-1.2,1.2-2.7,2.5-4.1,3.8c-1.1-1.1-2.4-2.5-3.8-4
				C224.9,165.1,226.2,163.8,227.6,162.5z"/>
			<path class="st1" d="M210.9,179.5c1.2,1.3,2.6,2.8,3.9,4.2c-1.3,1.3-2.6,2.6-4,4.1c-1.4-1.4-2.7-2.8-4.1-4.3
				C208,182.2,209.4,180.9,210.9,179.5z"/>
			<path class="st1" d="M197.5,200.5c-1.1,1-2.5,2.3-4.1,3.7c-1.2-1.2-2.5-2.5-3.9-3.8c1.5-1.3,2.9-2.6,4.3-4
				C195,197.6,196.2,199.1,197.5,200.5z"/>
			<linearGradient id="SVGID_4_" gradientUnits="userSpaceOnUse" x1="107.378" y1="148.0033" x2="187.4249" y2="148.0033">
				<stop  offset="0" style="stop-color:#FFFFFF"/>
				<stop  offset="1" style="stop-color:#1CBEBE"/>
			</linearGradient>
			<path class="st4" d="M135.6,147.6c0,6.4,5.2,11.7,11.6,11.7c6.4,0,11.7-5.2,11.7-11.6c0.1-6.3-5.4-11.7-11.7-11.7
				C141,135.9,135.6,141.2,135.6,147.6z M127.6,120.9c1.4,1.2,2.7,1.1,4.3,0.3c2.3-1.2,4.8-2.2,7.2-3.1c1.8-0.6,2.9-1.5,3.1-3.5
				c0.1-1.8,0.5-3.5,0.6-5.2c0.1-1,0.4-1.5,1.5-1.4c2.1,0.1,4.2,0.1,6.2,0c1,0,1.4,0.3,1.5,1.4c0.1,1.9,0.5,3.7,0.7,5.6
				c0.2,1.5,0.9,2.4,2.3,2.9c2.8,1.2,5.7,2.4,8.5,3.7c1.3,0.6,2.4,0.5,3.5-0.4c1.9-1.5,3.8-3.1,5.7-4.5c2.1,2.1,4.1,4,6.2,6.1
				c-1.4,1.8-2.8,3.6-4.3,5.4c-1.3,1.5-1.2,2.8-0.3,4.5c1.2,2.3,2.2,4.6,3,7.1c0.8,2.4,1.3,3,3.8,3.2c2.1,0.2,4.1,0.5,6.4,0.8
				c0,2.7,0.1,5.3-0.1,7.9c0,0.4-0.9,1-1.4,1.1c-1.9,0.3-3.7,0.5-5.6,0.7c-1.5,0.2-2.3,1-2.9,2.4c-1.1,2.8-2.3,5.6-3.6,8.3
				c-0.6,1.3-0.6,2.5,0.4,3.7c1.6,1.9,3,3.8,4.5,5.6c-2.1,2.1-4,4-6.2,6.1c-1.6-1.3-3.4-2.7-5.2-4.2c-1.5-1.3-2.9-1.3-4.6-0.4
				c-2.3,1.2-4.8,2.2-7.3,3.1c-1.8,0.6-2.8,1.5-2.9,3.4c-0.1,1.8-0.4,3.6-0.7,5.4c-0.1,0.4-0.5,1.2-0.8,1.2
				c-2.7,0.1-5.4,0.1-8.1,0.1c-0.3-2.4-0.7-4.6-0.9-6.8c-0.2-1.7-1-2.6-2.5-3.2c-2.7-1.1-5.5-2.3-8.1-3.5c-1.4-0.6-2.6-0.5-3.8,0.5
				c-1.8,1.5-3.7,3-5.5,4.4c-2.1-2.1-4.1-4-6.2-6.1c1.4-1.8,2.9-3.7,4.4-5.5c1.1-1.4,1-2.6,0.3-4.2c-1.2-2.5-2.2-5-3.2-7.6
				c-0.6-1.5-1.3-2.5-3-2.7c-1.8-0.2-3.6-0.5-5.4-0.6c-1.2-0.1-1.8-0.5-1.7-1.8c0.1-2.4,0-4.8,0-7.2c2.3-0.3,4.4-0.6,6.6-0.8
				c1.8-0.1,2.9-1,3.5-2.7c1.1-2.7,2.2-5.4,3.4-8c0.7-1.5,0.6-2.7-0.5-4c-1.5-1.8-2.9-3.6-4.3-5.3c2.1-2,4.1-4,6.2-6.1
				C123.9,118,125.8,119.4,127.6,120.9z"/>
			<path class="st1" d="M176.9,213.5c1.3,1.3,2.6,2.6,4,4c-1.5,1.4-2.8,2.7-4.3,4.1c-1.2-1.3-2.5-2.7-3.8-4.1
				C174,216.3,175.4,215,176.9,213.5z"/>
			<path class="st1" d="M155.6,234.8c1.6-1.6,2.9-3,4.4-4.4c1.4,1.5,2.7,2.9,4.3,4.7c-1.2,1-2.4,2.1-3.7,3.2
				c-0.3,0.2-1.1,0.2-1.4-0.1C157.9,237.1,156.8,235.9,155.6,234.8z"/>
			<path class="st3" d="M147.3,153.4c-3,0-5.8-2.8-5.8-5.8c0-3.1,2.7-5.8,5.8-5.8c3.1,0,5.8,2.7,5.8,5.8
				C153.1,150.5,150.3,153.4,147.3,153.4z"/>
			<path class="st1" d="M147.3,153.4c3,0,5.8-2.9,5.8-5.9c0-3.1-2.7-5.8-5.8-5.8c-3.1,0-5.8,2.7-5.8,5.8
				C141.5,150.6,144.3,153.4,147.3,153.4z M147.2,159.3c-6.4,0-11.6-5.3-11.6-11.7c0-6.3,5.4-11.7,11.7-11.7
				c6.3,0,11.7,5.5,11.7,11.7C158.9,154,153.6,159.3,147.2,159.3z"/>
			<path class="st1" d="M109.1,152.7c1.8,0.1,3.6,0.4,5.4,0.6c1.7,0.2,2.4,1.2,3,2.7c0.9,2.6,2,5.1,3.2,7.6c0.7,1.5,0.9,2.8-0.3,4.2
				c-1.5,1.8-3,3.7-4.4,5.5c2.1,2.1,4.1,4.1,6.2,6.1c1.7-1.4,3.6-2.9,5.5-4.4c1.2-1,2.4-1.1,3.8-0.5c2.7,1.2,5.4,2.4,8.1,3.5
				c1.5,0.6,2.4,1.5,2.5,3.2c0.2,2.2,0.5,4.4,0.9,6.8c2.7,0,5.4,0,8.1-0.1c0.3,0,0.8-0.7,0.8-1.2c0.3-1.8,0.6-3.6,0.7-5.4
				c0.1-1.9,1.1-2.8,2.9-3.4c2.5-0.8,4.9-1.8,7.3-3.1c1.7-0.9,3.1-0.9,4.6,0.4c1.7,1.5,3.6,2.9,5.2,4.2c2.1-2.1,4.1-4.1,6.2-6.1
				c-1.4-1.8-2.9-3.7-4.5-5.6c-1-1.2-1-2.3-0.4-3.7c1.2-2.8,2.4-5.5,3.6-8.3c0.6-1.3,1.4-2.2,2.9-2.4c1.9-0.2,3.8-0.4,5.6-0.7
				c0.5-0.1,1.4-0.7,1.4-1.1c0.1-2.6,0.1-5.2,0.1-7.9c-2.3-0.3-4.4-0.6-6.4-0.8c-2.5-0.3-2.9-0.9-3.8-3.2c-0.8-2.4-1.8-4.8-3-7.1
				c-0.9-1.7-0.9-3,0.3-4.5c1.5-1.7,2.9-3.6,4.3-5.4c-2.1-2-4-4-6.2-6.1c-1.9,1.5-3.8,3-5.7,4.5c-1.1,0.9-2.2,1-3.5,0.4
				c-2.8-1.3-5.6-2.5-8.5-3.7c-1.4-0.6-2.1-1.4-2.3-2.9c-0.2-1.9-0.5-3.7-0.7-5.6c-0.1-1.1-0.5-1.4-1.5-1.4c-2.1,0.1-4.2,0.1-6.2,0
				c-1.1,0-1.4,0.4-1.5,1.4c-0.1,1.8-0.5,3.5-0.6,5.2c-0.1,2-1.2,2.9-3.1,3.5c-2.5,0.8-4.9,1.9-7.2,3.1c-1.6,0.8-2.9,0.9-4.3-0.3
				c-1.8-1.6-3.7-3-5.2-4.2c-2.2,2.1-4.2,4.1-6.2,6.1c1.3,1.7,2.8,3.5,4.3,5.3c1.1,1.3,1.2,2.5,0.5,4c-1.2,2.6-2.3,5.3-3.4,8
				c-0.7,1.7-1.7,2.5-3.5,2.7c-2.1,0.2-4.2,0.5-6.6,0.8c0,2.5,0.1,4.9,0,7.2C107.3,152.2,107.9,152.6,109.1,152.7z M193.8,141.1
				c0,4.3,0,8.6,0,12.9c0,2.2-1.1,3.3-3.3,3.6c-2.1,0.2-4.2,0.5-6.4,0.7c-0.2,0-0.5,0-0.7,0.1c-1.2,0.3-3.4,6.5-2.6,7.5
				c1.3,1.8,2.7,3.5,4,5.3c1.3,1.8,1.2,2.9-0.3,4.5c-3,3.1-6.1,6.2-9.2,9.2c-1.7,1.7-2.9,1.7-4.8,0.3c-1.6-1.2-3.1-2.4-4.6-3.6
				c-0.2-0.2-0.4-0.3-0.6-0.5c-1.4-1-7.2,1.7-7.4,3.3c-0.3,2.3-0.5,4.5-0.7,6.8c-0.2,1.8-1.1,2.8-2.9,2.8c-4.5,0-8.9,0-13.4,0
				c-1.9,0-3-1.2-3.2-3.2c-0.3-2.2-0.4-4.4-0.8-6.6c-0.1-0.6-0.8-1.3-1.3-1.7c-0.5-0.4-1.4-0.4-1.9-0.8c-2.5-2-4.5-1-6.5,0.9
				c-1,1-2.2,1.8-3.4,2.7c-1.7,1.2-2.9,1.1-4.4-0.3c-3.1-3.1-6.3-6.2-9.3-9.4c-1.6-1.6-1.6-2.9-0.3-4.7c1.3-1.7,2.7-3.3,3.9-5.1
				c0.4-0.6,0.4-1.6,0.2-2.3c-0.1-0.8-0.8-1.5-0.9-2.3c-0.5-2.7-2.2-3.3-4.6-3.3c-1.4,0-2.8-0.3-4.1-0.4c-1.7-0.1-2.7-1-3.7-2.3
				c0-5.2,0-10.3,0-15.5c1-1.6,2.5-2.3,4.4-2.3c1.8-0.1,3.6-0.4,5.4-0.6c0.2,0,0.5,0,0.7-0.1c1.2-0.4,3.3-6.5,2.5-7.6
				c-1.3-1.8-2.7-3.7-4-5.5c-1.2-1.6-1-3.1,0.3-4.4c3.1-3.2,6.3-6.4,9.5-9.5c1.4-1.3,2.9-1,4.3,0c1.8,1.3,3.5,2.6,5.2,4
				c0.9,0.7,1.5,0.6,2.5,0.3c3.9-1,5.5-3.3,5.7-7.5c0.3-5.8,0.7-5.8,6.5-5.8c3.2,0,6.4,0,9.6,0c2.5,0,3.6,1,3.8,3.4
				c0.2,1.9,0.6,3.9,0.6,5.8c0,1.6,0.7,2.3,2.1,2.6c0.4,0.1,0.9,0.2,1.2,0.5c2.5,2,4.5,1.1,6.5-0.9c0.9-0.9,2-1.7,3.1-2.4
				c1.7-1.2,3-1.1,4.4,0.3c3.1,3.1,6.3,6.2,9.3,9.4c1.6,1.6,1.6,2.8,0.2,4.7c-1.3,1.7-2.7,3.3-3.9,5.1c-0.4,0.6-0.4,1.6-0.2,2.3
				c0.1,0.8,0.8,1.5,0.9,2.2c0.4,2.7,2.2,3.3,4.6,3.3c1.5,0,3,0.2,4.5,0.4C192.7,137.9,193.8,139,193.8,141.1z"/>
			<linearGradient id="SVGID_5_" gradientUnits="userSpaceOnUse" x1="108.4202" y1="196.5356" x2="286.9147" y2="196.5356">
				<stop  offset="0" style="stop-color:#FFFFFF"/>
				<stop  offset="1" style="stop-color:#1CBEBE"/>
			</linearGradient>
			<path class="st5" d="M227.4,170.5c1.5-1.4,2.9-2.7,4.1-3.8c-1.3-1.4-2.6-2.8-3.9-4.2c-1.4,1.4-2.7,2.7-4.1,4
				C224.9,167.9,226.3,169.3,227.4,170.5z M210.8,187.7c1.4-1.4,2.8-2.8,4-4.1c-1.3-1.5-2.6-2.9-3.9-4.2c-1.5,1.4-2.9,2.7-4.3,4
				C208.1,184.9,209.4,186.3,210.8,187.7z M193.5,204.3c1.6-1.4,3-2.7,4.1-3.7c-1.3-1.5-2.6-2.9-3.6-4.1c-1.5,1.3-2.9,2.6-4.3,4
				C191,201.8,192.3,203.1,193.5,204.3z M176.6,221.6c1.5-1.4,2.8-2.7,4.3-4.1c-1.4-1.4-2.7-2.7-4-4c-1.5,1.4-2.9,2.8-4.1,4
				C174.1,218.9,175.4,220.3,176.6,221.6z M159.2,238.1c0.3,0.2,1.1,0.3,1.4,0.1c1.3-1,2.6-2.2,3.7-3.2c-1.7-1.8-3-3.2-4.3-4.7
				c-1.4,1.5-2.8,2.8-4.4,4.4C156.8,235.9,157.9,237.1,159.2,238.1z M109.3,285.8c-0.2,0.1-0.4,0-0.9,0c1.5-5.4,3.1-10.7,4.3-16
				c1-4.6,3.3-8.1,6.6-11.5c41.6-41.5,83.2-83.2,124.7-124.8c8.3-8.3,16.7-16.6,25.1-24.8c2.1-2.1,3.3-2.1,5.4,0.1
				c3.5,3.5,6.9,7,10.4,10.4c2.5,2.5,2.5,3.5,0,6c-19.4,19.4-38.8,38.9-58.2,58.3c-31,31-61.9,62-92.9,93.1
				c-1.8,1.8-3.7,3.1-6.1,3.8C121.7,282.2,115.5,284.1,109.3,285.8z"/>
		</g>
		<g>
		</g>
	</g>
</g>
<g>
	<defs>
		<polygon id="SVGID_6_" points="9.7,-5.7 96.2,-5.7 117.1,25.3 177,-8.8 199.2,13.9 200,25.3 43.8,188.2 -2.9,204 -2.9,15.8 		"/>
	</defs>
	<clipPath id="SVGID_7_">
		<use xlink:href="#SVGID_6_"  style="overflow:visible;"/>
	</clipPath>
	<g id="XMLID_4_" class="st6">
		<g>
			<path class="st1" d="M196.2,143.4c0,2.1,0,4.3,0,6.4c0,2.1,0,4.2,0,6.2c0,2.3-1.1,3.4-3.4,3.7c-2.1,0.2-4.2,0.5-6.4,0.7
				c-1.1,0.1-1.6,0.5-1.8,1.5c-0.2,0.7-0.3,1.4-0.7,1.9c-1.8,2.4-1.1,4.3,0.8,6.2c1,1,1.8,2.2,2.7,3.4c1,1.5,1,2.9-0.3,4.2
				c-3.2,3.1-6.3,6.3-9.5,9.5c-1.4,1.4-2.7,1.5-4.4,0.3c-1.8-1.3-3.4-2.8-5.3-4c-0.6-0.4-1.6-0.4-2.3-0.3c-4.1,0.9-6.3,3.2-5.8,7.6
				c0.1,0.6-0.1,1.2-0.2,1.9c-0.2,2.4-1.3,3.5-3.6,3.5c-4.3,0-8.6,0-12.8,0c-2.1,0-3.2-1.1-3.5-3.2c-0.3-2.1-0.5-4.3-0.7-6.4
				c0-0.2,0-0.5-0.1-0.8c-0.3-1.3-6.3-3.6-7.4-2.8c-1.8,1.3-3.5,2.7-5.2,4c-2,1.5-3,1.4-4.8-0.3c-3-3-6-6-8.9-9
				c-1.8-1.9-1.9-3-0.3-5.1c1.1-1.5,2.3-3,3.5-4.5c0.2-0.2,0.3-0.4,0.5-0.6c0.9-1.4-1.7-7.2-3.4-7.4c-2.2-0.2-4.4-0.5-6.6-0.7
				c-2.2-0.3-3.2-1.3-3.3-3.6c0-4.2,0-8.3,0-12.5c0-2.4,1-3.6,3.4-3.8c2-0.2,4-0.4,6-0.6c0.2,0,0.5-0.1,0.7-0.1
				c1.5-0.3,3.7-6.3,2.9-7.5c-1.3-1.8-2.7-3.5-4-5.3c-1.4-1.9-1.3-3,0.4-4.6c3-3,5.9-6,8.9-9c1.9-1.9,3-1.9,5.1-0.4
				c0.5,0.4,1,0.8,1.5,1.2c4.5,3.5,4.5,3.5,9.8,1.1c0.5-0.2,1.1-1,1.2-1.6c0.4-2.2,0.5-4.4,0.8-6.6c0.3-2.3,1.4-3.4,3.7-3.4
				c4.2,0,8.3,0,12.5,0c2.4,0,3.5,1.2,3.8,3.6c0.2,2.1,0.5,4.1,0.6,6.2c0.1,1.2,0.6,1.6,1.6,1.9c0.7,0.2,1.5,0.4,2.1,0.8
				c2,1.5,3.7,1.2,5.4-0.6c1.1-1.2,2.5-2.1,3.9-3c1.5-1,2.9-1.1,4.2,0.3c3.1,3.1,6.2,6.2,9.3,9.4c1.6,1.6,1.7,2.8,0.4,4.7
				c-1.3,1.8-2.8,3.6-4,5.5c-0.4,0.6-0.4,1.5-0.2,2.2c0.1,0.8,0.8,1.5,0.9,2.3c0.5,2.8,2.4,3.4,4.9,3.4c1.4,0,2.9,0.2,4.3,0.4
				C195,140.1,196.1,141.3,196.2,143.4z M189.3,153.9c0.1-2.7,0.1-5.4,0.1-8.1c-2.3-0.3-4.4-0.6-6.4-0.8c-2-0.2-3.1-1.1-3.7-3.1
				c-0.8-2.5-1.9-4.9-3-7.3c-0.8-1.6-1-2.9,0.2-4.3c1.5-1.8,3-3.7,4.2-5.3c-2.1-2.2-4.1-4.2-6.1-6.3c-1.7,1.4-3.6,2.8-5.5,4.4
				c-1.2,1-2.4,1.1-3.8,0.4c-2.6-1.2-5.3-2.4-8-3.4c-1.7-0.7-2.5-1.7-2.7-3.5c-0.2-2.2-0.6-4.3-0.8-6.4c-3.1,0-5.9,0-8.8,0
				c-0.3,2.3-0.7,4.4-0.8,6.5c-0.1,2-1.3,2.9-3.1,3.5c-2.4,0.8-4.8,1.8-7.1,3c-1.7,0.9-3.1,1-4.6-0.3c-1.7-1.5-3.6-2.9-5.2-4.2
				c-2.1,2.1-4.1,4-6.2,6.1c1.4,1.8,2.9,3.7,4.4,5.5c1.1,1.3,1.1,2.5,0.5,4c-1.2,2.6-2.3,5.3-3.4,8c-0.7,1.7-1.7,2.5-3.5,2.7
				c-2.1,0.2-4.2,0.5-6.5,0.8c0,2.5,0.1,4.9,0,7.3c-0.1,1.3,0.5,1.8,1.7,1.8c1.6,0.1,3.3,0.4,4.9,0.5c2,0.2,3,1.2,3.6,3.2
				c0.7,2.4,1.8,4.8,3,7.1c0.9,1.7,1,3-0.3,4.5c-1.5,1.8-2.9,3.7-4.3,5.4c2.1,2.2,4.1,4.1,6.1,6.2c1.8-1.4,3.7-2.9,5.5-4.4
				c1.2-1,2.4-1.1,3.8-0.5c2.7,1.2,5.4,2.4,8.1,3.5c1.5,0.6,2.4,1.5,2.5,3.2c0.2,1.8,0.5,3.6,0.7,5.4c0.1,1.1,0.6,1.4,1.5,1.4
				c2,0,4-0.1,6,0c1.1,0,1.6-0.3,1.6-1.5c0.1-1.8,0.5-3.6,0.6-5.4c0.2-1.8,1.1-2.6,2.7-3.2c2.6-0.9,5.1-2,7.6-3.2
				c1.5-0.7,2.8-0.9,4.2,0.3c1.8,1.5,3.7,3,5.4,4.4c2.2-2.2,4.1-4.1,6.2-6.2c-1.3-1.7-2.7-3.5-4.2-5.3c-1.2-1.4-1.2-2.7-0.4-4.3
				c1.2-2.5,2.3-5,3.2-7.6c0.6-1.7,1.7-2.6,3.4-2.8c1.7-0.2,3.5-0.3,5.2-0.6C188.5,154.7,189.3,154.2,189.3,153.9z"/>
			<path class="st1" d="M192.6,18.1c3.7,3.8,3.6,8.6,0,12.5c-0.1,0.1-0.2,0.2-0.3,0.3c-51.5,51.7-102.9,103.3-154.4,155
				c-0.9,0.9-2.2,1.7-3.5,2c-8.7,2.5-17.4,5-26.1,7.4c-1.5,0.4-2.9,0.6-4.2-0.7c-1.2-1.3-0.9-2.6-0.5-4.1C6,182,8.5,173.5,10.8,165
				c0.5-1.9,1.4-3.4,2.8-4.7c28.9-28.9,57.8-57.8,86.7-86.7c22.4-22.4,44.7-44.7,67.1-67.1c1.9-1.9,4-3.4,6.9-3.3
				c2.5,0,4.5,1,6.2,2.7C184.5,9.9,188.6,13.9,192.6,18.1z M187.4,27.5c2.4-2.4,2.4-3.5,0-6c-3.5-3.5-6.9-7-10.4-10.4
				c-2.1-2.1-3.3-2.1-5.4-0.1c-8.4,8.3-16.8,16.5-25.1,24.8c-41.6,41.6-83.1,83.3-124.7,124.8c-3.3,3.3-5.6,6.9-6.6,11.5
				c-1.2,5.3-2.8,10.5-4.3,16c0.5,0,0.7,0,0.9,0c6.2-1.8,12.4-3.6,18.6-5.4c2.4-0.7,4.3-2,6.1-3.8c30.9-31.1,61.9-62.1,92.9-93.1
				C148.7,66.4,168,47,187.4,27.5z"/>
			<linearGradient id="SVGID_8_" gradientUnits="userSpaceOnUse" x1="109.3739" y1="150.2959" x2="189.4016" y2="150.2959">
				<stop  offset="0" style="stop-color:#FFFFFF"/>
				<stop  offset="1" style="stop-color:#1CBEBE"/>
			</linearGradient>
			<path class="st7" d="M189.4,145.8c0,2.7,0,5.4-0.1,8.1c0,0.3-0.8,0.8-1.3,0.9c-1.7,0.3-3.5,0.4-5.2,0.6c-1.8,0.2-2.8,1.1-3.4,2.8
				c-1,2.6-2,5.1-3.2,7.6c-0.8,1.6-0.8,2.9,0.4,4.3c1.5,1.8,2.9,3.6,4.2,5.3c-2.1,2.1-4,4-6.2,6.2c-1.7-1.4-3.6-2.8-5.4-4.4
				c-1.4-1.1-2.6-1-4.2-0.3c-2.5,1.2-5,2.3-7.6,3.2c-1.6,0.6-2.6,1.4-2.7,3.2c-0.2,1.8-0.5,3.6-0.6,5.4c-0.1,1.2-0.6,1.5-1.6,1.5
				c-2-0.1-4,0-6,0c-1,0-1.5-0.3-1.5-1.4c-0.1-1.8-0.5-3.6-0.7-5.4c-0.1-1.7-1-2.6-2.5-3.2c-2.7-1.1-5.4-2.3-8.1-3.5
				c-1.4-0.6-2.6-0.5-3.8,0.5c-1.8,1.5-3.7,3-5.5,4.4c-2-2-4-4-6.1-6.2c1.3-1.7,2.7-3.6,4.3-5.4c1.3-1.5,1.2-2.8,0.3-4.5
				c-1.2-2.3-2.2-4.6-3-7.1c-0.6-2-1.6-3-3.6-3.2c-1.6-0.1-3.2-0.4-4.9-0.5c-1.2-0.1-1.8-0.5-1.7-1.8c0.1-2.4,0-4.8,0-7.3
				c2.3-0.3,4.4-0.6,6.5-0.8c1.8-0.2,2.9-1,3.5-2.7c1.1-2.7,2.2-5.3,3.4-8c0.7-1.5,0.6-2.7-0.5-4c-1.5-1.8-3-3.7-4.4-5.5
				c2.1-2.1,4-4,6.2-6.1c1.7,1.3,3.5,2.7,5.2,4.2c1.5,1.3,2.9,1.3,4.6,0.3c2.2-1.2,4.6-2.2,7.1-3c1.8-0.6,2.9-1.5,3.1-3.5
				c0.2-2.1,0.5-4.2,0.8-6.5c2.9,0,5.7,0,8.8,0c0.3,2.1,0.6,4.2,0.8,6.4c0.1,1.8,1,2.8,2.7,3.5c2.7,1.1,5.3,2.2,8,3.4
				c1.4,0.7,2.6,0.6,3.8-0.4c1.8-1.5,3.7-3,5.5-4.4c2,2.1,4,4.1,6.1,6.3c-1.2,1.6-2.7,3.4-4.2,5.3c-1.2,1.4-1.1,2.7-0.2,4.3
				c1.2,2.3,2.3,4.8,3,7.3c0.6,2,1.7,2.9,3.7,3.1C185,145.2,187.1,145.5,189.4,145.8z M149.5,173.6c13.1,0,23.9-10.8,23.9-23.9
				c0-13-10.8-23.8-23.8-23.8c-13.1,0-23.8,10.7-23.8,23.7C125.8,162.9,136.4,173.6,149.5,173.6z"/>
			<linearGradient id="SVGID_9_" gradientUnits="userSpaceOnUse" x1="10.7526" y1="98.8694" x2="189.2471" y2="98.8694">
				<stop  offset="0" style="stop-color:#FFFFFF"/>
				<stop  offset="1" style="stop-color:#1CBEBE"/>
			</linearGradient>
			<path class="st8" d="M187.4,21.6c2.5,2.5,2.5,3.5,0,6C168,47,148.7,66.4,129.3,85.9c-31,31-61.9,62-92.9,93.1
				c-1.8,1.8-3.7,3.1-6.1,3.8c-6.2,1.8-12.4,3.6-18.6,5.4c-0.2,0.1-0.4,0-0.9,0c1.5-5.4,3.1-10.7,4.3-16c1-4.6,3.3-8.1,6.6-11.5
				c41.6-41.5,83.2-83.2,124.7-124.8c8.3-8.3,16.7-16.6,25.1-24.8c2.1-2.1,3.3-2.1,5.4,0.1C180.5,14.6,183.9,18.1,187.4,21.6z
				 M133.8,69c-1.3-1.4-2.6-2.8-3.9-4.2c-1.4,1.4-2.7,2.7-4.1,4c1.4,1.5,2.7,2.8,3.8,4C131.2,71.4,132.6,70.1,133.8,69z M117.1,86
				c-1.3-1.5-2.6-2.9-3.9-4.2c-1.5,1.4-2.9,2.7-4.3,4c1.4,1.5,2.8,2.8,4.1,4.3C114.5,88.6,115.9,87.3,117.1,86z M99.9,102.9
				c-1.3-1.5-2.6-2.9-3.6-4.1c-1.5,1.3-2.9,2.6-4.3,4c1.4,1.4,2.7,2.7,3.9,3.8C97.4,105.2,98.8,103.9,99.9,102.9z M83.3,119.8
				c-1.4-1.4-2.7-2.7-4-4c-1.5,1.4-2.9,2.8-4.1,4c1.3,1.4,2.6,2.8,3.8,4.1C80.4,122.5,81.8,121.2,83.3,119.8z M62.9,140.5
				c1.3-1,2.6-2.2,3.7-3.2c-1.7-1.8-3-3.2-4.3-4.7c-1.4,1.5-2.8,2.8-4.4,4.4c1.2,1.1,2.4,2.3,3.6,3.3
				C61.8,140.7,62.6,140.7,62.9,140.5z"/>
			<path class="st1" d="M173.4,149.7c0,13.1-10.8,23.9-23.9,23.9c-13.1,0-23.8-10.8-23.8-24c0-13,10.7-23.7,23.8-23.7
				C162.6,125.9,173.4,136.7,173.4,149.7z M155.3,149.8c0-3.1-2.5-5.8-5.7-5.9c-3.1-0.1-5.9,2.7-5.9,5.8c0,3.1,2.7,5.8,5.8,5.8
				C152.7,155.6,155.3,153,155.3,149.8z"/>
			<path class="st3" d="M149.7,144c3.1,0.1,5.7,2.8,5.7,5.9c0,3.1-2.7,5.8-5.8,5.7c-3.1,0-5.8-2.7-5.8-5.8
				C143.7,146.6,146.5,143.9,149.7,144z"/>
			<path class="st1" d="M129.9,64.8c1.3,1.4,2.6,2.8,3.9,4.2c-1.2,1.2-2.7,2.5-4.1,3.8c-1.1-1.1-2.4-2.5-3.8-4
				C127.2,67.5,128.5,66.2,129.9,64.8z"/>
			<path class="st1" d="M113.2,81.8c1.2,1.3,2.6,2.8,3.9,4.2c-1.3,1.3-2.6,2.6-4,4.1c-1.4-1.4-2.7-2.8-4.1-4.3
				C110.3,84.5,111.7,83.2,113.2,81.8z"/>
			<path class="st1" d="M96.3,98.8c1,1.2,2.3,2.6,3.6,4.1c-1.1,1-2.5,2.3-4.1,3.7c-1.2-1.2-2.5-2.5-3.9-3.8
				C93.4,101.4,94.8,100.2,96.3,98.8z"/>
			<path class="st1" d="M96.2,43.5c0,4.3,0,8.6,0,12.9c0,2.2-1.1,3.3-3.3,3.6c-2.1,0.2-4.2,0.5-6.4,0.7c-0.2,0-0.5,0-0.7,0.1
				c-1.2,0.3-3.4,6.5-2.6,7.5c1.3,1.8,2.7,3.5,4,5.3c1.3,1.8,1.2,2.9-0.3,4.5c-3,3.1-6.1,6.2-9.2,9.2c-1.7,1.7-2.9,1.7-4.8,0.3
				c-1.6-1.2-3.1-2.4-4.6-3.6c-0.2-0.2-0.4-0.3-0.6-0.5c-1.4-1-7.2,1.7-7.4,3.3c-0.3,2.3-0.5,4.5-0.7,6.8c-0.2,1.8-1.1,2.8-2.9,2.8
				c-4.5,0-8.9,0-13.4,0c-1.9,0-3-1.2-3.2-3.2c-0.3-2.2-0.4-4.4-0.8-6.6c-0.1-0.6-0.8-1.3-1.3-1.7c-0.5-0.4-1.4-0.4-1.9-0.8
				c-2.5-2-4.5-1-6.5,0.9c-1,1-2.2,1.8-3.4,2.7c-1.7,1.2-2.9,1.1-4.4-0.3c-3.1-3.1-6.3-6.2-9.3-9.4c-1.6-1.6-1.6-2.9-0.3-4.7
				c1.3-1.7,2.7-3.3,3.9-5.1c0.4-0.6,0.4-1.6,0.2-2.3c-0.1-0.8-0.8-1.5-0.9-2.3c-0.5-2.7-2.2-3.3-4.6-3.3c-1.4,0-2.8-0.3-4.1-0.4
				c-1.7-0.1-2.7-1-3.7-2.3c0-5.2,0-10.3,0-15.5c1-1.6,2.5-2.3,4.4-2.3c1.8-0.1,3.6-0.4,5.4-0.6c0.2,0,0.5,0,0.7-0.1
				c1.2-0.4,3.3-6.5,2.5-7.6c-1.3-1.8-2.7-3.7-4-5.5c-1.2-1.6-1-3.1,0.3-4.4c3.1-3.2,6.3-6.4,9.5-9.5c1.4-1.3,2.9-1,4.3,0
				c1.8,1.3,3.5,2.6,5.2,4c0.9,0.7,1.5,0.6,2.5,0.3c3.9-1,5.5-3.3,5.7-7.5c0.3-5.8,0.7-5.8,6.5-5.8c3.2,0,6.4,0,9.6,0
				c2.5,0,3.6,1,3.8,3.4c0.2,1.9,0.6,3.9,0.6,5.8c0,1.6,0.7,2.3,2.1,2.6c0.4,0.1,0.9,0.2,1.2,0.5c2.5,2,4.5,1.1,6.5-0.9
				c0.9-0.9,2-1.7,3.1-2.4c1.7-1.2,3-1.1,4.4,0.3c3.1,3.1,6.3,6.2,9.3,9.4c1.6,1.6,1.6,2.8,0.2,4.7c-1.3,1.7-2.7,3.3-3.9,5.1
				c-0.4,0.6-0.4,1.6-0.2,2.3c0.1,0.8,0.8,1.5,0.9,2.2c0.4,2.7,2.2,3.3,4.6,3.3c1.5,0,3,0.2,4.5,0.4C95.1,40.2,96.1,41.4,96.2,43.5z
				 M89.7,53.9c0.1-2.6,0.1-5.2,0.1-7.9c-2.3-0.3-4.4-0.6-6.4-0.8c-2.5-0.3-2.9-0.9-3.8-3.2c-0.8-2.4-1.8-4.8-3-7.1
				c-0.9-1.7-0.9-3,0.3-4.5c1.5-1.7,2.9-3.6,4.3-5.4c-2.1-2-4-4-6.2-6.1c-1.9,1.5-3.8,3-5.7,4.5c-1.1,0.9-2.2,1-3.5,0.4
				c-2.8-1.3-5.6-2.5-8.5-3.7c-1.4-0.6-2.1-1.4-2.3-2.9c-0.2-1.9-0.5-3.7-0.7-5.6c-0.1-1.1-0.5-1.4-1.5-1.4c-2.1,0.1-4.2,0.1-6.2,0
				c-1.1,0-1.4,0.4-1.5,1.4c-0.1,1.8-0.5,3.5-0.6,5.2c-0.1,2-1.2,2.9-3.1,3.5c-2.5,0.8-4.9,1.9-7.2,3.1c-1.6,0.8-2.9,0.9-4.3-0.3
				c-1.8-1.6-3.7-3-5.2-4.2c-2.2,2.1-4.2,4.1-6.2,6.1c1.3,1.7,2.8,3.5,4.3,5.3c1.1,1.3,1.2,2.5,0.5,4c-1.2,2.6-2.3,5.3-3.4,8
				c-0.7,1.7-1.7,2.5-3.5,2.7c-2.1,0.2-4.2,0.5-6.6,0.8c0,2.5,0.1,4.9,0,7.2c-0.1,1.3,0.5,1.7,1.7,1.8c1.8,0.1,3.6,0.4,5.4,0.6
				c1.7,0.2,2.4,1.2,3,2.7c0.9,2.6,2,5.1,3.2,7.6c0.7,1.5,0.9,2.8-0.3,4.2c-1.5,1.8-3,3.7-4.4,5.5c2.1,2.1,4.1,4.1,6.2,6.1
				c1.7-1.4,3.6-2.9,5.5-4.4c1.2-1,2.4-1.1,3.8-0.5c2.7,1.2,5.4,2.4,8.1,3.5c1.5,0.6,2.4,1.5,2.5,3.2c0.2,2.2,0.5,4.4,0.9,6.8
				c2.7,0,5.4,0,8.1-0.1c0.3,0,0.8-0.7,0.8-1.2c0.3-1.8,0.6-3.6,0.7-5.4c0.1-1.9,1.1-2.8,2.9-3.4c2.5-0.8,4.9-1.8,7.3-3.1
				c1.7-0.9,3.1-0.9,4.6,0.4c1.7,1.5,3.6,2.9,5.2,4.2c2.1-2.1,4.1-4.1,6.2-6.1c-1.4-1.8-2.9-3.7-4.5-5.6c-1-1.2-1-2.3-0.4-3.7
				c1.2-2.8,2.4-5.5,3.6-8.3c0.6-1.3,1.4-2.2,2.9-2.4c1.9-0.2,3.8-0.4,5.6-0.7C88.8,54.9,89.7,54.3,89.7,53.9z"/>
			<linearGradient id="SVGID_10_" gradientUnits="userSpaceOnUse" x1="9.7104" y1="50.3371" x2="89.7573" y2="50.3371">
				<stop  offset="0" style="stop-color:#FFFFFF"/>
				<stop  offset="1" style="stop-color:#1CBEBE"/>
			</linearGradient>
			<path class="st9" d="M89.7,46c0,2.7,0.1,5.3-0.1,7.9c0,0.4-0.9,1-1.4,1.1c-1.9,0.3-3.7,0.5-5.6,0.7c-1.5,0.2-2.3,1-2.9,2.4
				c-1.1,2.8-2.3,5.6-3.6,8.3c-0.6,1.3-0.6,2.5,0.4,3.7c1.6,1.9,3,3.8,4.5,5.6c-2.1,2.1-4,4-6.2,6.1c-1.6-1.3-3.4-2.7-5.2-4.2
				c-1.5-1.3-2.9-1.3-4.6-0.4c-2.3,1.2-4.8,2.2-7.3,3.1c-1.8,0.6-2.8,1.5-2.9,3.4c-0.1,1.8-0.4,3.6-0.7,5.4
				c-0.1,0.4-0.5,1.2-0.8,1.2c-2.7,0.1-5.4,0.1-8.1,0.1c-0.3-2.4-0.7-4.6-0.9-6.8c-0.2-1.7-1-2.6-2.5-3.2c-2.7-1.1-5.5-2.3-8.1-3.5
				c-1.4-0.6-2.6-0.5-3.8,0.5c-1.8,1.5-3.7,3-5.5,4.4c-2.1-2.1-4.1-4-6.2-6.1c1.4-1.8,2.9-3.7,4.4-5.5c1.1-1.4,1-2.6,0.3-4.2
				c-1.2-2.5-2.2-5-3.2-7.6c-0.6-1.5-1.3-2.5-3-2.7c-1.8-0.2-3.6-0.5-5.4-0.6c-1.2-0.1-1.8-0.5-1.7-1.8c0.1-2.4,0-4.8,0-7.2
				c2.3-0.3,4.4-0.6,6.6-0.8c1.8-0.1,2.9-1,3.5-2.7c1.1-2.7,2.2-5.4,3.4-8c0.7-1.5,0.6-2.7-0.5-4c-1.5-1.8-2.9-3.6-4.3-5.3
				c2.1-2,4.1-4,6.2-6.1c1.5,1.2,3.4,2.6,5.2,4.2c1.4,1.2,2.7,1.1,4.3,0.3c2.3-1.2,4.8-2.2,7.2-3.1c1.8-0.6,2.9-1.5,3.1-3.5
				c0.1-1.8,0.5-3.5,0.6-5.2c0.1-1,0.4-1.5,1.5-1.4c2.1,0.1,4.2,0.1,6.2,0c1,0,1.4,0.3,1.5,1.4c0.1,1.9,0.5,3.7,0.7,5.6
				c0.2,1.5,0.9,2.4,2.3,2.9c2.8,1.2,5.7,2.4,8.5,3.7c1.3,0.6,2.4,0.5,3.5-0.4c1.9-1.5,3.8-3.1,5.7-4.5c2.1,2.1,4.1,4,6.2,6.1
				c-1.4,1.8-2.8,3.6-4.3,5.4c-1.3,1.5-1.2,2.8-0.3,4.5c1.2,2.3,2.2,4.6,3,7.1c0.8,2.4,1.3,3,3.8,3.2C85.4,45.4,87.4,45.7,89.7,46z
				 M61.3,50c0.1-6.3-5.4-11.7-11.7-11.7c-6.3,0-11.7,5.3-11.7,11.7c0,6.4,5.2,11.7,11.6,11.7C55.9,61.6,61.2,56.4,61.3,50z"/>
			<path class="st1" d="M79.2,115.8c1.3,1.3,2.6,2.6,4,4c-1.5,1.4-2.8,2.7-4.3,4.1c-1.2-1.3-2.5-2.7-3.8-4.1
				C76.4,118.6,77.8,117.3,79.2,115.8z"/>
			<path class="st1" d="M66.6,137.4c-1.2,1-2.4,2.1-3.7,3.2c-0.3,0.2-1.1,0.2-1.4-0.1c-1.2-1-2.4-2.2-3.6-3.3c1.6-1.6,2.9-3,4.4-4.4
				C63.6,134.1,64.9,135.6,66.6,137.4z"/>
			<path class="st1" d="M49.6,38.2c6.3,0,11.7,5.5,11.7,11.7c-0.1,6.4-5.4,11.7-11.7,11.6c-6.4,0-11.6-5.3-11.6-11.7
				C38,43.6,43.3,38.2,49.6,38.2z M49.6,55.7c3,0,5.8-2.9,5.8-5.9c0-3.1-2.7-5.8-5.8-5.8c-3.1,0-5.8,2.7-5.8,5.8
				C43.8,52.9,46.6,55.7,49.6,55.7z"/>
			<path class="st3" d="M55.4,49.8c0,3-2.8,5.9-5.8,5.9c-3,0-5.8-2.8-5.8-5.8c0-3.1,2.7-5.8,5.8-5.8C52.7,44.1,55.4,46.8,55.4,49.8z
				"/>
		</g>
		<g>
		</g>
	</g>
	<circle class="st10" cx="49.7" cy="49.7" r="52.6"/>
	<circle class="st10" cx="149.6" cy="148.4" r="49.6"/>
</g>
</svg>
