<?xml version="1.0" encoding="utf-8"?>
<!-- Generator: Adobe Illustrator 25.4.1, SVG Export Plug-In . SVG Version: 6.00 Build 0)  -->
<svg version="1.1" id="Capa_1" xmlns="http://www.w3.org/2000/svg" xmlns:xlink="http://www.w3.org/1999/xlink" x="0px" y="0px"
	 viewBox="0 0 400 400" style="enable-background:new 0 0 400 400;" xml:space="preserve">
<style type="text/css">
	.st0{opacity:0.5;fill:#FFFFFF;enable-background:new    ;}
	.st1{fill:#EAF5FC;}
	.st2{fill:#DCE7F7;}
	.st3{fill:#D3DDFB;}
	.st4{fill:url(#SVGID_1_);}
	.st5{fill:#2CBEBF;}
	.st6{fill:#F9B938;}
	.st7{fill:#00D67F;}
	.st8{fill:#FC6559;}
</style>
<g>
	<g>
		<path class="st0" d="M250.03,67.6h27.91c1.64,0,2.97,1.33,2.97,2.97s-1.33,2.97-2.97,2.97h-27.91c-1.64,0-2.97-1.33-2.97-2.97
			S248.39,67.6,250.03,67.6z"/>
		<path class="st0" d="M289.49,67.6h1.96c1.64,0,2.97,1.33,2.97,2.97s-1.33,2.97-2.97,2.97h-1.96c-1.64,0-2.97-1.33-2.97-2.97
			S287.85,67.6,289.49,67.6z"/>
	</g>
	<g>
		<path class="st1" d="M397.3,59.21v302.38c0,13.91-11.28,25.19-25.19,25.19H27.89c-13.91,0-25.19-11.28-25.19-25.19V59.21
			c0-13.91,11.28-25.19,25.19-25.19h344.22C386.02,34.03,397.3,45.3,397.3,59.21z"/>
		<path class="st2" d="M397.29,59.18v302.44c0,13.89-11.26,25.16-25.15,25.16H27.85c-11.26,0-20.72-7.32-23.92-17.51
			c2.47,0.82,5.01,1.23,7.73,1.23h344.2c13.89,0,25.16-11.26,25.16-25.16V42.9c0-2.71-0.41-5.26-1.23-7.65
			C389.98,38.46,397.29,47.92,397.29,59.18L397.29,59.18z"/>
		<path class="st3" d="M397.3,147.91V75.14c0-13.91-11.28-25.19-25.19-25.19H27.89C13.98,49.96,2.7,61.23,2.7,75.14v72.76H397.3z"/>
		<linearGradient id="SVGID_1_" gradientUnits="userSpaceOnUse" x1="2.7022" y1="83.0025" x2="397.2978" y2="83.0025">
			<stop  offset="0" style="stop-color:#006DF0"/>
			<stop  offset="0.0914" style="stop-color:#0883E9"/>
			<stop  offset="0.247" style="stop-color:#12A2E0"/>
			<stop  offset="0.4105" style="stop-color:#1ABAD8"/>
			<stop  offset="0.5829" style="stop-color:#20CBD3"/>
			<stop  offset="0.7702" style="stop-color:#24D5D0"/>
			<stop  offset="1" style="stop-color:#25D8CF"/>
		</linearGradient>
		<path class="st4" d="M397.3,131.98V59.21c0-13.91-11.28-25.19-25.19-25.19H27.89C13.98,34.03,2.7,45.3,2.7,59.21v72.76H397.3z"/>
		<g>
			<g>
				<path class="st5" d="M73.79,83.66c0,10.75-8.81,19.57-19.57,19.57c-10.84,0-19.57-8.81-19.57-19.57
					c0-10.84,8.73-19.57,19.57-19.57C64.97,64.1,73.79,72.82,73.79,83.66z"/>
				<path class="st3" d="M65.23,24.19v59.62c0,6.06-4.91,10.98-10.98,10.98h-0.06c-6.06,0-10.98-4.91-10.98-10.98V24.19
					c0-6.06,4.91-10.98,10.98-10.98h0.06C60.31,13.22,65.23,18.13,65.23,24.19z"/>
			</g>
		</g>
		<g>
			<path class="st5" d="M365.35,83.66c0,10.75-8.81,19.57-19.57,19.57c-10.84,0-19.57-8.81-19.57-19.57
				c0-10.84,8.73-19.57,19.57-19.57C356.53,64.1,365.35,72.82,365.35,83.66z"/>
			<path class="st3" d="M356.78,24.19v59.62c0,6.06-4.91,10.98-10.98,10.98h-0.06c-6.06,0-10.98-4.91-10.98-10.98V24.19
				c0-6.06,4.91-10.98,10.98-10.98h0.06C351.87,13.22,356.78,18.13,356.78,24.19z"/>
		</g>
		<g>
			<path class="st3" d="M223.14,176.32v32.32c0,3.85-3.12,6.97-6.97,6.97h-32.33c-3.85,0-6.97-3.12-6.97-6.97v-32.32
				c0-3.85,3.12-6.97,6.97-6.97h32.33C220.01,169.34,223.14,172.46,223.14,176.32z"/>
			<path class="st3" d="M291.62,176.32v32.32c0,3.85-3.12,6.97-6.97,6.97h-32.33c-3.85,0-6.97-3.12-6.97-6.97v-32.32
				c0-3.85,3.12-6.97,6.97-6.97h32.33C288.49,169.34,291.62,172.46,291.62,176.32L291.62,176.32z"/>
			<path class="st3" d="M360.09,176.32v32.32c0,3.85-3.12,6.97-6.97,6.97H320.8c-3.85,0-6.97-3.12-6.97-6.97v-32.32
				c0-3.85,3.12-6.97,6.97-6.97h32.33C356.97,169.34,360.09,172.46,360.09,176.32z"/>
		</g>
		<path class="st6" d="M154.66,176.32v32.32c0,3.85-3.12,6.97-6.97,6.97h-32.33c-3.85,0-6.97-3.12-6.97-6.97v-32.32
			c0-3.85,3.12-6.97,6.97-6.97h32.33C151.54,169.34,154.66,172.46,154.66,176.32z"/>
		<path class="st3" d="M86.18,244.43v32.32c0,3.85-3.12,6.97-6.97,6.97H46.88c-3.85,0-6.97-3.12-6.97-6.97v-32.32
			c0-3.85,3.12-6.97,6.97-6.97H79.2C83.06,237.46,86.18,240.58,86.18,244.43z"/>
		<path class="st3" d="M223.14,244.43v32.32c0,3.85-3.12,6.97-6.97,6.97h-32.33c-3.85,0-6.97-3.12-6.97-6.97v-32.32
			c0-3.85,3.12-6.97,6.97-6.97h32.33C220.01,237.46,223.14,240.58,223.14,244.43z"/>
		<path class="st3" d="M291.62,244.43v32.32c0,3.85-3.12,6.97-6.97,6.97h-32.33c-3.85,0-6.97-3.12-6.97-6.97v-32.32
			c0-3.85,3.12-6.97,6.97-6.97h32.33C288.49,237.46,291.62,240.58,291.62,244.43L291.62,244.43z"/>
		<path class="st7" d="M360.09,244.43v32.32c0,3.85-3.12,6.97-6.97,6.97H320.8c-3.85,0-6.97-3.12-6.97-6.97v-32.32
			c0-3.85,3.12-6.97,6.97-6.97h32.33C356.97,237.46,360.09,240.58,360.09,244.43z"/>
		<path class="st3" d="M154.66,244.43v32.32c0,3.85-3.12,6.97-6.97,6.97h-32.33c-3.85,0-6.97-3.12-6.97-6.97v-32.32
			c0-3.85,3.12-6.97,6.97-6.97h32.33C151.54,237.46,154.66,240.58,154.66,244.43z"/>
		<path class="st8" d="M86.18,312.55v32.32c0,3.85-3.12,6.97-6.97,6.97H46.88c-3.85,0-6.97-3.12-6.97-6.97v-32.32
			c0-3.85,3.12-6.97,6.97-6.97H79.2C83.06,305.57,86.18,308.7,86.18,312.55z"/>
		<path class="st3" d="M223.14,312.55v32.32c0,3.85-3.12,6.97-6.97,6.97h-32.33c-3.85,0-6.97-3.12-6.97-6.97v-32.32
			c0-3.85,3.12-6.97,6.97-6.97h32.33C220.01,305.57,223.14,308.7,223.14,312.55z"/>
		<path class="st3" d="M291.62,312.55v32.32c0,3.85-3.12,6.97-6.97,6.97h-32.33c-3.85,0-6.97-3.12-6.97-6.97v-32.32
			c0-3.85,3.12-6.97,6.97-6.97h32.33C288.49,305.57,291.62,308.7,291.62,312.55L291.62,312.55z"/>
		<path class="st3" d="M154.66,312.55v32.32c0,3.85-3.12,6.97-6.97,6.97h-32.33c-3.85,0-6.97-3.12-6.97-6.97v-32.32
			c0-3.85,3.12-6.97,6.97-6.97h32.33C151.54,305.57,154.66,308.7,154.66,312.55z"/>
		<path class="st5" d="M397.29,59.18v72.84h-16.28V42.9c0-2.71-0.41-5.26-1.23-7.65C382.08,35.63,397.29,42.15,397.29,59.18z"/>
		<g>
			<path class="st0" d="M154.56,46.36h64.73c3.8,0,6.88,3.08,6.88,6.88s-3.08,6.88-6.88,6.88h-64.73c-3.8,0-6.88-3.08-6.88-6.88
				S150.76,46.36,154.56,46.36z"/>
			<path class="st0" d="M246.07,46.36h4.54c3.8,0,6.88,3.08,6.88,6.88c0,3.8-3.08,6.88-6.88,6.88h-4.54c-3.8,0-6.88-3.08-6.88-6.88
				C239.19,49.44,242.27,46.36,246.07,46.36z"/>
		</g>
	</g>
</g>
</svg>
