<?xml version="1.0" encoding="utf-8"?>
<!-- Generator: Adobe Illustrator 23.0.4, SVG Export Plug-In . SVG Version: 6.00 Build 0)  -->
<svg version="1.1" id="Capa_1" xmlns="http://www.w3.org/2000/svg" xmlns:xlink="http://www.w3.org/1999/xlink" x="0px" y="0px"
	 viewBox="0 0 496 496" style="enable-background:new 0 0 496 496;" xml:space="preserve">
<style type="text/css">
	.st0{fill:#3366CC;}
</style>
<path class="st0" d="M109.3,496h277.5c26.4,0,48.3-20.7,48.3-46.1V113.3c0-25.4-21.8-46.3-48.3-46.3H343V41c0-2.6-1-5.2-2.9-7.1
	c-1.9-1.9-4.4-2.9-7-2.9h-38.2c-7.5-18-26.3-31-47.4-31h-0.2c-20.5-0.2-39.1,12.1-47.1,31h-37.9c-5.6,0-10.2,4.4-10.4,10v26h-42.7
	C82.8,67,61,87.8,61,113.3v336.6C61,475.3,82.8,496,109.3,496z M172,51h35.4c4.6,0,8.5-3.1,9.7-7.5c3.6-13.8,16-23.5,30.3-23.5h0.1
	c14.7,0,27.4,9.7,30.3,23.1c1,4.6,5.1,7.9,9.8,7.9H323v50H172V51z M81,113.3C81,98.9,93.9,87,109.3,87H152v23.7
	c0.1,5.7,4.7,10.2,10.4,10.3h170.7c5.6-0.1,10-4.7,9.9-10.3V87h43.7c15.4,0,28.3,11.9,28.3,26.3v336.6c0,14.4-12.9,26.1-28.3,26.1
	H109.3C93.9,476,81,464.3,81,449.9V113.3z"/>
<path class="st0" d="M174.3,376h147.5c5.5,0,10-4.5,10-10c0-5.5-4.5-10-10-10H174.3c-5.5,0-10,4.5-10,10
	C164.3,371.5,168.7,376,174.3,376z"/>
<path class="st0" d="M144.3,416h207.5c5.5,0,10-4.5,10-10c0-5.5-4.5-10-10-10H144.3c-5.5,0-10,4.5-10,10
	C134.3,411.5,138.7,416,144.3,416z"/>
<path class="st0" d="M179,270h39v39c0,5.5,4.5,10,10,10h40c5.5,0,10-4.5,10-10v-39h39c5.5,0,10-4.5,10-10v-40c0-5.5-4.5-10-10-10
	h-39v-39c0-5.5-4.5-10-10-10h-40c-5.5,0-10,4.5-10,10v39h-39c-5.5,0-10,4.5-10,10v40C169,265.5,173.5,270,179,270z M189,230h39
	c5.5,0,10-4.5,10-10v-39h20v39c0,5.5,4.5,10,10,10h39v20h-39c-5.5,0-10,4.5-10,10v39h-20v-39c0-5.5-4.5-10-10-10h-39V230z"/>
</svg>
