<?xml version="1.0" standalone="no"?>
<!DOCTYPE svg PUBLIC "-//W3C//DTD SVG 20010904//EN"
 "http://www.w3.org/TR/2001/REC-SVG-20010904/DTD/svg10.dtd">
<svg version="1.0" xmlns="http://www.w3.org/2000/svg"
 width="24.000000pt" height="24.000000pt" viewBox="0 0 24.000000 24.000000"
 preserveAspectRatio="xMidYMid meet">

<g transform="translate(0.000000,24.000000) scale(0.100000,-0.100000)"
fill="#000000" stroke="none">
<path d="M22 228 c-16 -16 -16 -170 0 -186 7 -7 28 -12 48 -12 19 0 44 -7 54
-15 28 -21 53 -18 81 10 33 32 31 61 -5 95 -17 15 -30 36 -30 47 0 10 -12 30
-25 46 -19 22 -33 27 -68 27 -23 0 -48 -5 -55 -12z m90 -20 c2 -15 11 -24 26
-26 31 -5 29 -40 -4 -52 -14 -6 -40 -11 -57 -11 l-32 -1 30 -8 c24 -6 26 -8 8
-9 -25 -1 -32 -21 -8 -21 8 0 15 -9 15 -21 0 -17 -5 -20 -32 -17 l-33 3 -3 79
c-2 44 -1 85 2 93 3 8 21 13 45 13 33 0 40 -3 43 -22z m28 -3 c10 -12 10 -15
-4 -15 -9 0 -16 7 -16 15 0 8 2 15 4 15 2 0 9 -7 16 -15z m45 -87 c47 -21 41
-91 -9 -104 -33 -8 -64 11 -72 43 -6 21 -1 31 20 50 32 27 28 26 61 11z"/>
<path d="M63 143 c9 -2 23 -2 30 0 6 3 -1 5 -18 5 -16 0 -22 -2 -12 -5z"/>
<path d="M161 81 c-1 -16 -5 -21 -16 -17 -19 7 -19 -8 0 -24 12 -10 18 -10 30
0 16 13 21 35 6 25 -5 -3 -12 5 -14 17 l-4 23 -2 -24z"/>
</g>
</svg>
