<?xml version="1.0" encoding="utf-8"?>
<!-- Generator: Adobe Illustrator 23.0.4, SVG Export Plug-In . SVG Version: 6.00 Build 0)  -->
<svg version="1.1" id="Capa_1" xmlns="http://www.w3.org/2000/svg" xmlns:xlink="http://www.w3.org/1999/xlink" x="0px" y="0px"
	 viewBox="0 0 200 200" style="enable-background:new 0 0 200 200;" xml:space="preserve">
<style type="text/css">
	.st0{fill:url(#SVGID_1_);}
	.st1{fill:#1CBEBE;}
	.st2{fill:#3366CC;}
</style>
<linearGradient id="SVGID_1_" gradientUnits="userSpaceOnUse" x1="7.8839" y1="765.4178" x2="169.822" y2="927.3559" gradientTransform="matrix(1 0 0 1 0 -739.8898)">
	<stop  offset="0" style="stop-color:#FFFFFF"/>
	<stop  offset="0.2301" style="stop-color:#FCFEFE"/>
	<stop  offset="0.3713" style="stop-color:#F4FCFC"/>
	<stop  offset="0.4886" style="stop-color:#E5F8F8"/>
	<stop  offset="0.5927" style="stop-color:#D1F2F2"/>
	<stop  offset="0.6882" style="stop-color:#B6EAEA"/>
	<stop  offset="0.7773" style="stop-color:#96E1E1"/>
	<stop  offset="0.8615" style="stop-color:#6FD6D6"/>
	<stop  offset="0.9397" style="stop-color:#43C9C9"/>
	<stop  offset="1" style="stop-color:#1CBEBE"/>
</linearGradient>
<path class="st0" d="M171.9,43.7v136.8c0,6.6-5.5,12-12.2,12H34c-6.7,0-12.2-5.4-12.2-12v-164c0-6.6,5.5-12,12.2-12h98.8L171.9,43.7
	z"/>
<g id="Capa_3">
</g>
<g>
	<g id="XMLID_1_">
		<g>
			<path class="st1" d="M165,41.2h-18.2c-5.4,0-9.8-4.4-9.8-9.8V13.2L165,41.2z"/>
			<path class="st1" d="M71.7,38v6.5h-6.5c-1.8,0-3.3,1.5-3.3,3.3v6.5h-6.5v-6.5c0-1.8-1.5-3.3-3.3-3.3h-6.5V38h6.5
				c1.8,0,3.3-1.5,3.3-3.3v-6.5h6.5v6.5c0,1.8,1.5,3.3,3.3,3.3H71.7z"/>
			<path class="st2" d="M176.2,44.5v137.2c0,9-7.3,16.3-16.3,16.3H35.7c-9,0-16.3-7.3-16.3-16.3V18.4c0-9,7.3-16.3,16.3-16.3h98
				c0.9,0,1.7,0.3,2.3,1l39.2,39.2C175.8,42.8,176.2,43.6,176.2,44.5z M169.6,181.7V47.8h-22.9c-9,0-16.3-7.3-16.3-16.3V8.6H35.7
				c-5.4,0-9.8,4.4-9.8,9.8v163.3c0,5.4,4.4,9.8,9.8,9.8h124.1C165.2,191.5,169.6,187.1,169.6,181.7z M146.8,41.2H165l-28-28v18.2
				C137,36.8,141.4,41.2,146.8,41.2z"/>
			<path class="st2" d="M156.2,159.8c0.8,1.6,0.2,3.6-1.5,4.4l-19.6,9.8c-0.4,0.2-0.9,0.3-1.5,0.3h-9.8c-1.2,0-2.4-0.7-2.9-1.8
				l-1.2-2.5l-3.3,3.3c-1.3,1.3-3.3,1.3-4.6,0c-1.3-1.3-1.3-3.3,0-4.6l6.5-6.5c0.2-0.2,0.5-0.4,0.9-0.6c1.6-0.8,3.6-0.1,4.4,1.5
				l2.4,4.7h7l18.9-9.5C153.5,157.6,155.4,158.2,156.2,159.8z"/>
			<path class="st2" d="M153.3,83.9c1.8,0,3.3,1.5,3.3,3.3s-1.5,3.3-3.3,3.3H91.2c-1.8,0-3.3-1.5-3.3-3.3s1.5-3.3,3.3-3.3H153.3z"/>
			<path class="st2" d="M153.3,99.9c1.8,0,3.3,1.5,3.3,3.3s-1.5,3.3-3.3,3.3h-32.7c-1.8,0-3.3-1.5-3.3-3.3s1.5-3.3,3.3-3.3H153.3z"
				/>
			<path class="st2" d="M153.3,116c1.8,0,3.3,1.5,3.3,3.3s-1.5,3.3-3.3,3.3H94.5c-1.8,0-3.3-1.5-3.3-3.3s1.5-3.3,3.3-3.3H153.3z"/>
			<path class="st2" d="M153.3,133.1c1.8,0,3.3,1.5,3.3,3.3c0,1.8-1.5,3.3-3.3,3.3h-19.6c-1.8,0-3.3-1.5-3.3-3.3
				c0-1.8,1.5-3.3,3.3-3.3H153.3z"/>
			<path class="st2" d="M120.7,133.1c1.8,0,3.3,1.5,3.3,3.3c0,1.8-1.5,3.3-3.3,3.3H42.3c-1.8,0-3.3-1.5-3.3-3.3
				c0-1.8,1.5-3.3,3.3-3.3H120.7z"/>
			<path class="st2" d="M107.6,99.9c1.8,0,3.3,1.5,3.3,3.3s-1.5,3.3-3.3,3.3H42.3c-1.8,0-3.3-1.5-3.3-3.3s1.5-3.3,3.3-3.3H107.6z"/>
			<path class="st2" d="M81.5,116c1.8,0,3.3,1.5,3.3,3.3s-1.5,3.3-3.3,3.3H42.3c-1.8,0-3.3-1.5-3.3-3.3s1.5-3.3,3.3-3.3H81.5z"/>
			<path class="st2" d="M78.2,83.9c1.8,0,3.3,1.5,3.3,3.3s-1.5,3.3-3.3,3.3H52.1c-1.8,0-3.3-1.5-3.3-3.3s1.5-3.3,3.3-3.3H78.2z"/>
			<path class="st2" d="M78.2,34.7v13.1c0,1.8-1.5,3.3-3.3,3.3h-6.5v6.5c0,1.8-1.5,3.3-3.3,3.3h-13c-1.8,0-3.3-1.5-3.3-3.3V51h-6.5
				c-1.8,0-3.3-1.5-3.3-3.3v-13c0-1.8,1.5-3.3,3.3-3.3h6.5v-6.5c0-1.8,1.5-3.3,3.3-3.3h13.1c1.8,0,3.3,1.5,3.3,3.3v6.5H75
				C76.7,31.4,78.2,32.9,78.2,34.7z M71.7,44.5V38h-6.5c-1.8,0-3.3-1.5-3.3-3.3v-6.5h-6.5v6.5c0,1.8-1.5,3.3-3.3,3.3h-6.5v6.5h6.5
				c1.8,0,3.3,1.5,3.3,3.3v6.5h6.5v-6.5c0-1.8,1.5-3.3,3.3-3.3H71.7z"/>
		</g>
	</g>
</g>
</svg>
