<?xml version="1.0" encoding="utf-8"?>
<!-- Generator: Adobe Illustrator 23.0.4, SVG Export Plug-In . SVG Version: 6.00 Build 0)  -->
<svg version="1.1" id="Capa_1" xmlns="http://www.w3.org/2000/svg" xmlns:xlink="http://www.w3.org/1999/xlink" x="0px" y="0px"
	 viewBox="0 0 200 200" style="enable-background:new 0 0 200 200;" xml:space="preserve">
<style type="text/css">
	.st0{fill:url(#SVGID_1_);}
	.st1{fill:#3366CC;}
	.st2{fill:url(#SVGID_2_);}
	.st3{fill:#FFFFFF;}
	.st4{fill:url(#SVGID_3_);}
	.st5{fill:url(#SVGID_4_);}
	.st6{fill:url(#SVGID_5_);}
	.st7{fill:none;stroke:#3366CC;stroke-width:7;stroke-miterlimit:10;}
	.st8{clip-path:url(#SVGID_7_);}
	.st9{fill:url(#SVGID_8_);}
</style>
<g>
	<g id="XMLID_6_">
		<g>
			<path class="st1" d="M192,90.3c2.3,0.1,3.6,2.2,2.9,4.3c-0.6,1.6-1.9,2.2-3.5,2.2c-1.9,0-3.8-0.1-5.7-0.1
				c-4.6-0.1-9.1-0.2-13.7-0.3c-0.9,0-1.9-0.3-3.3-0.5c-0.3-1.1-1-2.3-0.8-3.2c0.2-1,1.3-1.8,2.1-2.6c0.2-0.2,0.6-0.2,0.9-0.2
				C178,89.9,185,90,192,90.3z"/>
			<path class="st1" d="M172.9,118.1c1.6,1.6,1.7,3.5,0.3,4.9c-1.4,1.4-3.3,1.2-4.9-0.4c-2.9-2.9-5.8-5.7-8.6-8.7
				c-1.5-1.5-1.6-3.4-0.4-4.7c1.1-1.2,2.8-1.4,4.6-0.3c0.2,0.2,0.7,0.6,1.2,1.1C167.6,112.7,170.3,115.4,172.9,118.1z"/>
			<path class="st1" d="M173.3,62.8c1.2,1.1,1.5,2.9,0.4,4.6c-0.6,0.6-1.4,1.4-2.3,2.3c-2.3,2.3-4.6,4.6-6.9,6.8
				c-1.6,1.5-3.4,1.6-4.8,0.2c-1.3-1.3-1.4-3.2,0.2-4.8c2.9-3,6-6,9-8.9C170.2,61.7,172.1,61.7,173.3,62.8z"/>
			<path class="st1" d="M63,111.5c0,1,0.3,1.4,1.2,1.7c11.1,3.9,22.3,7.8,33.4,11.7c6.7,2.3,13.3,4.7,20.2,7.1
				c0.2-25.2,0.3-50.3,0.5-75.7c-0.4,0.2-0.6,0.4-0.9,0.5c-17.7,7-35.4,14-53.2,20.9c-0.9,0.4-1.1,0.8-1.1,1.7
				C63.2,90.1,63.1,100.8,63,111.5z M49.9,124.8c2.3,0,4.3,0,6.5,0c0-2.3,0-4.4,0-6.5c-2.3,0-4.4,0-6.5,0
				C49.9,120.5,49.9,122.6,49.9,124.8z M30.1,150.7c0,2.1,0.7,3.8,2.4,5.2c2.1,1.7,4.4,2.1,6.9,0.9c2.6-1.2,3.8-3.3,3.8-6.1
				c0.1-5.7,0.1-11.3,0.1-17c0-5.1,0.1-10.2,0.1-15.4c-4.4,0-8.6-0.1-13.1-0.1C30.2,129.2,30.2,139.9,30.1,150.7z M49.7,150.2
				c0,4.5-1.6,8.3-5.3,11c-3.9,2.9-8.2,3.5-12.7,1.6c-4.6-1.9-7.3-5.4-8-10.3c-0.2-1.1-0.2-2.2-0.2-3.3c0.1-9.8,0.1-19.7,0.2-29.5
				c0-0.6,0-1.2,0-1.6c-2.4-0.9-4.9-1.6-7.1-2.7C6.1,109.9,1.8,98.2,5.9,86.9C6,86.7,6,86.4,6,86.2c0.9-1.5,1.8-3,2.6-4.5
				c2-1.8,3.8-3.9,6-5.4c4-2.9,8.7-3.9,13.6-3.8c9.9,0.1,19.8,0.2,29.7,0.2c0.9,0,1.8-0.2,2.7-0.5c20.9-8.2,41.8-16.4,62.6-24.6
				c3.9-1.6,7.6-1.7,11,1c2.6,2.1,3.7,4.9,3.7,8.2c-0.1,7.2-0.1,14.5-0.2,21.7c0,1.4,0.4,2.1,1.7,2.7c3,1.4,6,3.1,9.1,4.5
				c1.7,0.8,2.4,2.1,2.3,3.9c-0.1,3.9-0.1,7.8-0.1,11.7c0,1.9-0.8,3.1-2.5,3.8c-3,1.4-6,3-9.1,4.4c-1.2,0.5-1.6,1.2-1.6,2.5
				c0,6.6,0,13.3-0.1,19.9c-0.2,7.2-6.9,11.5-13.6,9.1c-4-1.5-8.1-2.9-12.1-4.3c-15.7-5.5-31.4-11-47.1-16.5
				c-0.5-0.2-0.9-0.3-1.6-0.5c0,2.4,0,4.7-0.1,7c0,3.6-1.1,4.6-4.7,4.6c-2.7,0-5.3,0-8,0c-0.1,0-0.2,0.1-0.4,0.2
				C49.8,137.8,49.7,144,49.7,150.2z M124.4,132.6c0,0.5-0.1,1.5,0.1,1.5c1.2,0.5,2.5,1,3.8,1c1.3,0,2.2-1.1,2.5-2.4
				c0.1-0.6,0.1-1.2,0.1-1.8c0.2-24.5,0.3-49.1,0.5-73.6c0-0.5,0-1.1-0.1-1.6c-0.3-2.1-2.1-3.3-4.1-2.7c-0.8,0.2-1.5,0.6-2.3,0.9
				c0,0.7,0,1.3,0,1.9c-0.1,10.1-0.1,20.1-0.2,30.2C124.6,101.5,124.5,117,124.4,132.6z M11.3,91.7c-2.2,10.3,5.3,19.7,16,19.9
				c9.3,0.2,18.6,0.2,27.9,0.2c0.4,0,0.8-0.1,1.3-0.1c0.1-10.9,0.1-21.7,0.2-32.6c-3.4,0-6.6-0.1-9.8-0.1c-7,0-13.9-0.3-20.9,0
				C18.9,79.3,12.8,84.7,11.3,91.7z M143.7,100.1c0.3-0.2,0.5-0.8,0.5-1.2c0.1-2.3,0.1-4.7,0.1-7c0-0.4-0.1-1-0.3-1.2
				c-2-1.1-4-2.1-6.2-3.2c0,5.3-0.1,10.3-0.1,15.5C139.8,102,141.8,101.1,143.7,100.1z"/>
			<linearGradient id="SVGID_1_" gradientUnits="userSpaceOnUse" x1="137.6516" y1="95.2998" x2="144.2544" y2="95.2998">
				<stop  offset="0" style="stop-color:#FFFFFF"/>
				<stop  offset="0.2301" style="stop-color:#FCFEFE"/>
				<stop  offset="0.3713" style="stop-color:#F4FCFC"/>
				<stop  offset="0.4886" style="stop-color:#E5F8F8"/>
				<stop  offset="0.5927" style="stop-color:#D1F2F2"/>
				<stop  offset="0.6882" style="stop-color:#B6EAEA"/>
				<stop  offset="0.7773" style="stop-color:#96E1E1"/>
				<stop  offset="0.8615" style="stop-color:#6FD6D6"/>
				<stop  offset="0.9397" style="stop-color:#43C9C9"/>
				<stop  offset="1" style="stop-color:#1CBEBE"/>
			</linearGradient>
			<path class="st0" d="M144.2,98.9c0,0.4-0.2,1-0.5,1.2c-1.9,1-3.9,1.9-6,3c0-5.2,0.1-10.2,0.1-15.5c2.2,1.1,4.2,2.1,6.2,3.2
				c0.2,0.1,0.3,0.8,0.3,1.2C144.3,94.2,144.3,96.5,144.2,98.9z"/>
			<path class="st3" d="M131.4,57.3c-0.2,24.5-0.3,49.1-0.5,73.6c0,0.6,0,1.2-0.1,1.8c-0.3,1.4-1.1,2.4-2.5,2.4
				c-1.3,0-2.6-0.5-3.8-1c-0.2-0.1-0.1-1-0.1-1.5c0.1-15.6,0.2-31.1,0.3-46.7c0.1-10.1,0.1-20.1,0.2-30.2c0-0.6,0-1.2,0-1.9
				c0.8-0.3,1.5-0.7,2.3-0.9c2-0.6,3.9,0.6,4.1,2.7C131.4,56.2,131.4,56.8,131.4,57.3z"/>
			<linearGradient id="SVGID_2_" gradientUnits="userSpaceOnUse" x1="30.1033" y1="137.7815" x2="43.3822" y2="137.7815">
				<stop  offset="0" style="stop-color:#FFFFFF"/>
				<stop  offset="0.2301" style="stop-color:#FCFEFE"/>
				<stop  offset="0.3713" style="stop-color:#F4FCFC"/>
				<stop  offset="0.4886" style="stop-color:#E5F8F8"/>
				<stop  offset="0.5927" style="stop-color:#D1F2F2"/>
				<stop  offset="0.6882" style="stop-color:#B6EAEA"/>
				<stop  offset="0.7773" style="stop-color:#96E1E1"/>
				<stop  offset="0.8615" style="stop-color:#6FD6D6"/>
				<stop  offset="0.9397" style="stop-color:#43C9C9"/>
				<stop  offset="1" style="stop-color:#1CBEBE"/>
			</linearGradient>
			<path class="st2" d="M43.2,150.6c0,2.8-1.2,4.9-3.8,6.1c-2.4,1.1-4.8,0.7-6.9-0.9c-1.6-1.3-2.4-3.1-2.4-5.2
				c0.1-10.8,0.1-21.5,0.2-32.5c4.4,0,8.7,0.1,13.1,0.1c0,5.2-0.1,10.3-0.1,15.4C43.3,139.3,43.2,145,43.2,150.6z"/>
			<linearGradient id="SVGID_3_" gradientUnits="userSpaceOnUse" x1="63.0159" y1="94.126" x2="118.3611" y2="94.126">
				<stop  offset="0" style="stop-color:#FFFFFF"/>
				<stop  offset="0.2301" style="stop-color:#FCFEFE"/>
				<stop  offset="0.3713" style="stop-color:#F4FCFC"/>
				<stop  offset="0.4886" style="stop-color:#E5F8F8"/>
				<stop  offset="0.5927" style="stop-color:#D1F2F2"/>
				<stop  offset="0.6882" style="stop-color:#B6EAEA"/>
				<stop  offset="0.7773" style="stop-color:#96E1E1"/>
				<stop  offset="0.8615" style="stop-color:#6FD6D6"/>
				<stop  offset="0.9397" style="stop-color:#43C9C9"/>
				<stop  offset="1" style="stop-color:#1CBEBE"/>
			</linearGradient>
			<path class="st4" d="M64.3,113.2c-0.9-0.3-1.2-0.7-1.2-1.7c0.1-10.7,0.2-21.4,0.2-32.1c0-0.9,0.2-1.3,1.1-1.7
				c17.7-6.9,35.5-13.9,53.2-20.9c0.2-0.1,0.5-0.3,0.9-0.5c-0.2,25.4-0.3,50.5-0.5,75.7c-6.8-2.4-13.5-4.7-20.2-7.1
				C86.5,121,75.4,117.1,64.3,113.2z"/>
			<path class="st3" d="M56.4,124.8c-2.2,0-4.3,0-6.5,0c0-2.2,0-4.3,0-6.5c2.2,0,4.3,0,6.5,0C56.4,120.5,56.4,122.6,56.4,124.8z"/>
			<path class="st1" d="M45.2,104.7c-1.6-0.9-2.1-2.8-1.2-4.4c0.9-1.5,2.8-2.1,4.4-1.2c1.6,0.9,2.1,2.8,1.2,4.4
				C48.7,105.1,46.7,105.6,45.2,104.7z"/>
			<path class="st3" d="M45.2,104.7c1.5,0.9,3.5,0.4,4.4-1.2c0.9-1.6,0.3-3.5-1.2-4.4c-1.6-0.9-3.5-0.4-4.4,1.2
				C43.1,101.9,43.6,103.8,45.2,104.7z M17.5,95.7c0.2,3.5,1.8,6.1,5.3,8.3c0.8,0.2,2.1,0.8,3.6,0.9c2.3,0.2,4.7,0.2,7,0.2
				c2.2,0,3.6-1.4,3.6-3.2c0-1.8-1.4-3.2-3.5-3.3c-1.7-0.1-3.4,0-5.1-0.1c-3,0-3.8-0.7-4.4-3.6c-0.4-2-1.8-3.1-3.5-2.9
				C18.5,92.2,17.4,93.7,17.5,95.7z M56.5,111.7c-0.5,0-0.9,0.1-1.3,0.1c-9.3-0.1-18.6-0.1-27.9-0.2c-10.7-0.2-18.2-9.6-16-19.9
				c1.5-6.9,7.6-12.4,14.8-12.6c6.9-0.2,13.9,0,20.9,0c3.2,0,6.4,0,9.8,0.1C56.6,90,56.6,100.8,56.5,111.7z"/>
			<path class="st1" d="M36.9,101.8c0,1.9-1.4,3.2-3.6,3.2c-2.3,0-4.7,0-7-0.2c-1.4-0.1-2.8-0.7-3.6-0.9c-3.5-2.3-5.1-4.9-5.3-8.3
				c-0.1-2,1.1-3.5,2.9-3.7c1.7-0.2,3.1,0.9,3.5,2.9c0.6,3,1.4,3.6,4.4,3.6c1.7,0,3.4,0,5.1,0.1C35.5,98.7,36.9,100,36.9,101.8z"/>
		</g>
	</g>
</g>
</svg>
