<?xml version="1.0" encoding="utf-8"?>
<!-- Generator: Adobe Illustrator 23.0.4, SVG Export Plug-In . SVG Version: 6.00 Build 0)  -->
<svg version="1.1" id="Capa_1" xmlns="http://www.w3.org/2000/svg" xmlns:xlink="http://www.w3.org/1999/xlink" x="0px" y="0px"
	 viewBox="0 0 130.5 63.7" style="enable-background:new 0 0 130.5 63.7;" xml:space="preserve">
<style type="text/css">
	.st0{fill:#3366CC;}
	.st1{fill:#1CBEBE;}
	.st2{fill:#FFFFFF;}
</style>
<rect x="-1.6" y="-0.2" class="st0" width="133.9" height="65.2"/>
<g>
	<polygon class="st1" points="65,17.8 56.3,14.2 52.2,15 46.7,19.1 45.2,25.9 46.7,31 49.5,35.8 56.9,43.3 65.4,49.1 73.8,43.5 
		79.5,38 84.9,30.5 85.9,25.6 84.7,20 79.6,14.9 76,14.2 73.1,14.3 	"/>
	<path class="st2" d="M89.5,31.1h-4.2c1.8-4,1.6-7.2,0.9-9.4c-1.2-3.9-4.9-8.1-10.6-8.1c-1.5,0-3,0.3-4.6,0.9
		c-2.7,1-4.5,2.1-5.3,2.7c-0.8-0.5-2.6-1.6-5.3-2.7c-1.6-0.6-3.1-0.9-4.6-0.9c-5.7,0-9.5,4.2-10.6,8.1c-0.8,2.3-1,5.8,1.2,10.2h-5.2
		c-0.4,0-0.8,0.3-0.8,0.8c0,0.4,0.3,0.8,0.8,0.8h6c0.3,0.4,0.5,0.9,0.8,1.3c4.9,7.1,15.7,14.8,17.6,15.3v0.1c0,0,0.1,0,0.1-0.1
		c0.1,0,0.1,0,0.1,0V50c1.7-0.8,12-7.4,17.4-15.3c0.5-0.7,0.9-1.5,1.3-2.1h5c0.4,0,0.8-0.3,0.8-0.8C90.2,31.4,89.9,31.1,89.5,31.1z
		 M46.5,22.1c1-3.4,4.3-7,9.2-7c1.3,0,2.7,0.3,4.1,0.8c3.5,1.3,5.3,2.8,5.3,2.8c0.3,0.2,0.7,0.2,1,0c0,0,1.8-1.5,5.3-2.8
		c1.4-0.5,2.8-0.8,4.1-0.8c4.9,0,8.2,3.6,9.2,7c0.8,2.8,0.4,5.8-1.2,9h-4.6l-1.9-3.3c-0.1-0.2-0.4-0.4-0.6-0.4s-0.5,0.1-0.6,0.3
		L74,30.1l-2.6-8.5c-0.1-0.3-0.4-0.5-0.8-0.5c-0.3,0-0.6,0.2-0.8,0.5l-4.4,15.3l-4.8-12.2c-0.1-0.3-0.4-0.5-0.7-0.5
		s-0.6,0.2-0.7,0.4l-3.8,7.3H48C46.1,28.4,45.5,25.1,46.5,22.1z M81.9,33.9c-5.1,7.3-14.3,13.3-16.3,14.6c-2-1.3-11.3-7.3-16.3-14.6
		c-0.1-0.2-0.2-0.3-0.3-0.4h7c0.3,0,0.5-0.2,0.7-0.4l3.1-6.2l5,12.8c0.1,0.3,0.4,0.5,0.7,0.5c0,0,0,0,0.1,0c0.3,0,0.6-0.2,0.7-0.5
		l4.4-14.9l2.3,7.6c0.1,0.3,0.3,0.5,0.6,0.5c0.3,0.1,0.6-0.1,0.8-0.3l1.8-2.7l1.6,2.7c0.2,0.2,0.4,0.4,0.6,0.4h4.2
		C82.4,33.1,82.1,33.5,81.9,33.9z"/>
</g>
</svg>
