<?xml version="1.0" encoding="utf-8"?>
<!-- Generator: Adobe Illustrator 27.0.0, SVG Export Plug-In . SVG Version: 6.00 Build 0)  -->
<svg version="1.1" id="Capa_1" xmlns="http://www.w3.org/2000/svg" xmlns:xlink="http://www.w3.org/1999/xlink" x="0px" y="0px"
	 viewBox="0 0 200 200" style="enable-background:new 0 0 200 200;" xml:space="preserve">
<style type="text/css">
	.st0{fill:#FFFFFF;stroke:#FFFFFF;stroke-width:5;stroke-miterlimit:10;}
</style>
<path class="st0" d="M194.6,100.8h-16.5c7-16.9,6.2-30.5,3.6-39.7c-4.5-16.5-19.2-34.2-41.4-34.2c-5.9,0-11.8,1.2-18,3.7
	c-10.6,4.3-17.5,9-20.5,11.2c-3.2-2.3-10-6.9-20.5-11.2c-6.2-2.5-12-3.7-18-3.7C41,27,26.2,44.7,21.8,61.2c-3,9.6-3.8,24.5,4.7,43
	H6.3c-1.7,0-3,1.4-3,3.2s1.3,3.2,3,3.2h23.5c1.1,1.8,2.1,3.7,3.2,5.5c19.2,30,60.9,62.6,68.5,64.6v0.2c0,0,0.2,0,0.4-0.2
	c0.2,0,0.4,0,0.4,0v-0.2c6.6-3.5,46.5-31.4,67.7-64.6c1.9-3,3.6-6.1,5.1-9h19.4c1.7,0,3-1.4,3-3.2
	C197.5,102.2,196.3,100.8,194.6,100.8z M27.3,63C31.1,48.8,44,33.5,63,33.5c5.1,0,10.4,1.2,15.8,3.2c13.5,5.5,20.7,11.6,20.7,11.6
	c1.1,0.9,2.8,0.9,3.8,0c0,0,7.2-6.1,20.7-11.6c5.5-2,10.8-3.2,15.8-3.2c19,0,32,15.3,35.7,29.6c3.2,11.6,1.5,24.5-4.5,37.9h-18
	l-7.6-14c-0.4-0.9-1.5-1.6-2.5-1.6c-1,0-2.1,0.4-2.5,1.4l-6.4,10L124,61c-0.4-1.4-1.7-2.3-3-2.3c-1.3,0-2.5,0.9-3,2.3l-17.1,64.4
	L82.4,73.8c-0.4-1.2-1.5-2-2.8-2c-1.3,0-2.3,0.6-2.8,1.8l-14.6,30.7H33.4C26,89.5,23.7,75.6,27.3,63z M164.9,112.5
	c-19.7,31-55.6,56.2-63.4,61.4c-7.9-5.3-43.8-30.7-63.4-61.4c-0.4-0.6-0.6-1.2-1.1-1.8h27.3c1.1,0,2.1-0.6,2.8-1.8l12.2-26.1
	l19.4,53.8c0.4,1.4,1.5,2,2.8,2c0,0,0,0,0.2,0c1.3,0,2.3-0.9,2.8-2.3l16.9-63l9.1,31.8c0.4,1.2,1.3,2,2.5,2.3c1.1,0.2,2.3-0.4,3-1.4
	l7.2-11.2l6.2,11.2c0.6,0.9,1.5,1.6,2.5,1.6h16.3C167,109.1,166,110.9,164.9,112.5z"/>
</svg>
