<?xml version="1.0" encoding="utf-8"?>
<!-- Generator: Adobe Illustrator 25.4.1, SVG Export Plug-In . SVG Version: 6.00 Build 0)  -->
<svg version="1.1" id="Layer_3" xmlns="http://www.w3.org/2000/svg" xmlns:xlink="http://www.w3.org/1999/xlink" x="0px" y="0px"
	 viewBox="0 0 512 512" style="enable-background:new 0 0 512 512;" xml:space="preserve">
<style type="text/css">
	.st0{fill:#DDEBFD;}
	.st1{fill:#FC6559;}
	.st2{fill:#BED9FD;}
	.st3{fill:url(#SVGID_1_);}
	.st4{fill:url(#SVGID_00000165201308448978241320000011082726695513689787_);}
	.st5{fill:url(#SVGID_00000097475028839570447450000009010448274811998603_);}
	.st6{fill:url(#SVGID_00000016787937515179783570000008823120100483350691_);}
	.st7{fill:url(#SVGID_00000034065184399155397850000004864653242621593261_);}
	.st8{fill:#079FDB;}
</style>
<g>
	<path class="st0" d="M457.5,11.8v488.4c0,3.4-2.8,6.2-6.2,6.2H174L54.5,387V11.8c0-3.4,2.8-6.2,6.2-6.2h390.5
		C454.7,5.6,457.5,8.4,457.5,11.8L457.5,11.8z"/>
	<path class="st1" d="M199.6,104.5h-29.2c-1.1,0-2-0.9-2-2V73.4c0-1.7-1.4-3-3-3h-29.7c-1.7,0-3,1.4-3,3v29.2c0,1.1-0.9,2-2,2h-29.2
		c-1.7,0-3,1.4-3,3v29.7c0,1.7,1.4,3,3,3h29.2c1.1,0,2,0.9,2,2v29.2c0,1.7,1.4,3,3,3h29.7c1.7,0,3-1.4,3-3v-29.2c0-1.1,0.9-2,2-2
		h29.2c1.7,0,3-1.4,3-3v-29.7C202.6,105.9,201.3,104.5,199.6,104.5z"/>
	<path class="st2" d="M174,506.4V399.2c0-6.8-5.5-12.3-12.3-12.3H54.5L174,506.4z"/>
	<g>
		<linearGradient id="SVGID_1_" gradientUnits="userSpaceOnUse" x1="209.1794" y1="407.5337" x2="408.0339" y2="407.5337">
			<stop  offset="0" style="stop-color:#00ADEA"/>
			<stop  offset="1" style="stop-color:#0783E9"/>
		</linearGradient>
		<path class="st3" d="M398.9,416.7H218.3c-5.1,0-9.2-4.1-9.2-9.2s4.1-9.2,9.2-9.2h180.5c5.1,0,9.2,4.1,9.2,9.2
			S403.9,416.7,398.9,416.7z"/>
		
			<linearGradient id="SVGID_00000026154932162538130650000001856090427776225922_" gradientUnits="userSpaceOnUse" x1="103.9531" y1="268.6561" x2="161.4576" y2="268.6561">
			<stop  offset="0" style="stop-color:#00ADEA"/>
			<stop  offset="1" style="stop-color:#0783E9"/>
		</linearGradient>
		<path style="fill:url(#SVGID_00000026154932162538130650000001856090427776225922_);" d="M152.3,277.8h-39.2
			c-5.1,0-9.2-4.1-9.2-9.2s4.1-9.2,9.2-9.2h39.2c5.1,0,9.2,4.1,9.2,9.2C161.5,273.7,157.4,277.8,152.3,277.8z"/>
		
			<linearGradient id="SVGID_00000073682227838230138770000002620642613249375405_" gradientUnits="userSpaceOnUse" x1="209.1794" y1="268.6561" x2="408.0339" y2="268.6561">
			<stop  offset="0" style="stop-color:#00ADEA"/>
			<stop  offset="1" style="stop-color:#0783E9"/>
		</linearGradient>
		<path style="fill:url(#SVGID_00000073682227838230138770000002620642613249375405_);" d="M398.9,277.8H218.3
			c-5.1,0-9.2-4.1-9.2-9.2s4.1-9.2,9.2-9.2h180.5c5.1,0,9.2,4.1,9.2,9.2C408,273.7,403.9,277.8,398.9,277.8z"/>
		
			<linearGradient id="SVGID_00000005985966884899558270000016577789743070824579_" gradientUnits="userSpaceOnUse" x1="103.9531" y1="338.0955" x2="161.4576" y2="338.0955">
			<stop  offset="0" style="stop-color:#00ADEA"/>
			<stop  offset="1" style="stop-color:#0783E9"/>
		</linearGradient>
		<path style="fill:url(#SVGID_00000005985966884899558270000016577789743070824579_);" d="M152.3,347.3h-39.2
			c-5.1,0-9.2-4.1-9.2-9.2s4.1-9.2,9.2-9.2h39.2c5.1,0,9.2,4.1,9.2,9.2C161.5,343.2,157.4,347.3,152.3,347.3z"/>
		
			<linearGradient id="SVGID_00000078028649586814356850000012319669243025992381_" gradientUnits="userSpaceOnUse" x1="209.1794" y1="338.0955" x2="408.0339" y2="338.0955">
			<stop  offset="0" style="stop-color:#00ADEA"/>
			<stop  offset="1" style="stop-color:#0783E9"/>
		</linearGradient>
		<path style="fill:url(#SVGID_00000078028649586814356850000012319669243025992381_);" d="M398.9,347.3H218.3
			c-5.1,0-9.2-4.1-9.2-9.2s4.1-9.2,9.2-9.2h180.5c5.1,0,9.2,4.1,9.2,9.2C408,343.2,403.9,347.3,398.9,347.3z"/>
	</g>
	<g>
		<path class="st8" d="M223.9,113.5c1.7-3.4,4.2-6.1,7.4-8c3.2-1.9,6.9-2.9,11-2.9c5.3,0,9.7,1.5,13.3,4.4c3.6,3,5.9,7,6.9,12h-12.6
			c-0.8-1.7-1.8-3-3.1-3.8c-1.3-0.9-2.9-1.3-4.6-1.3c-2.7,0-4.9,1-6.5,3c-1.6,2-2.4,4.7-2.4,8.1c0,3.4,0.8,6.2,2.4,8.2
			c1.6,2,3.8,3,6.5,3c1.8,0,3.3-0.4,4.6-1.3c1.3-0.9,2.4-2.2,3.1-3.8h12.6c-1,5.1-3.3,9.1-6.9,12c-3.6,3-8,4.4-13.3,4.4
			c-4.1,0-7.8-1-11-2.9c-3.2-1.9-5.7-4.6-7.4-8c-1.7-3.4-2.6-7.3-2.6-11.7C221.3,120.8,222.2,116.9,223.9,113.5z"/>
		<path class="st8" d="M279.8,103.1v44.3h-11.7v-44.3H279.8z"/>
		<path class="st8" d="M298.2,113v7.2h13.5v9.4h-13.5v8h15.2v9.9h-27v-44.3h27v9.9H298.2z"/>
		<path class="st8" d="M345.1,120.5v10.2H318v-10.2H345.1z"/>
		<path class="st8" d="M351.5,113v-11.6h18.4v45.9h-12.3V113H351.5z"/>
		<path class="st8" d="M380.1,106.7c2.8-4.1,7.2-6.2,13.2-6.2c6,0,10.4,2.1,13.2,6.2c2.8,4.1,4.2,9.8,4.2,17c0,7.3-1.4,13-4.2,17.2
			c-2.8,4.1-7.2,6.2-13.2,6.2c-6,0-10.4-2.1-13.2-6.2c-2.8-4.1-4.2-9.9-4.2-17.2C375.9,116.6,377.3,110.9,380.1,106.7z M397.9,115.1
			c-0.8-2-2.3-3-4.7-3c-2.4,0-3.9,1-4.7,3c-0.8,2-1.1,4.9-1.1,8.6c0,3.9,0.4,6.8,1.1,8.8c0.7,2,2.3,3,4.7,3c2.4,0,4-1,4.7-3
			c0.7-2,1.1-4.9,1.1-8.8C399.1,120,398.7,117.1,397.9,115.1z"/>
	</g>
</g>
</svg>
