<?xml version="1.0" encoding="utf-8"?>
<!-- Generator: Adobe Illustrator 23.0.4, SVG Export Plug-In . SVG Version: 6.00 Build 0)  -->
<svg version="1.1" id="Capa_1" xmlns="http://www.w3.org/2000/svg" xmlns:xlink="http://www.w3.org/1999/xlink" x="0px" y="0px"
	 viewBox="0 0 200 200" style="enable-background:new 0 0 200 200;" xml:space="preserve">
<style type="text/css">
	.st0{fill:url(#SVGID_1_);}
	.st1{fill:none;stroke:#3366CC;stroke-width:5.7243;stroke-miterlimit:10;}
	.st2{clip-path:url(#SVGID_3_);}
	.st3{fill:#3366CC;}
	.st4{fill:url(#SVGID_4_);}
	.st5{fill:none;stroke:#3366CC;stroke-width:6.9093;stroke-linecap:round;stroke-miterlimit:10;}
</style>
<linearGradient id="SVGID_1_" gradientUnits="userSpaceOnUse" x1="19.525" y1="-459.4148" x2="180.475" y2="-620.3647" gradientTransform="matrix(1 0 0 -1 0 -440.8898)">
	<stop  offset="0" style="stop-color:#FFFFFF"/>
	<stop  offset="0.2301" style="stop-color:#FCFEFE"/>
	<stop  offset="0.3713" style="stop-color:#F4FCFC"/>
	<stop  offset="0.4886" style="stop-color:#E5F8F8"/>
	<stop  offset="0.5927" style="stop-color:#D1F2F2"/>
	<stop  offset="0.6882" style="stop-color:#B6EAEA"/>
	<stop  offset="0.7773" style="stop-color:#96E1E1"/>
	<stop  offset="0.8615" style="stop-color:#6FD6D6"/>
	<stop  offset="0.9397" style="stop-color:#43C9C9"/>
	<stop  offset="1" style="stop-color:#1CBEBE"/>
</linearGradient>
<path class="st0" d="M162,193H38c-6.6,0-12-5.4-12-12V17c0-6.6,5.4-12,12-12h124c6.6,0,12,5.4,12,12v164
	C174,187.6,168.6,193,162,193z"/>
<path class="st1" d="M161.5,195h-123c-6.6,0-12-5.4-12-12V17c0-6.6,5.4-12,12-12h123c6.6,0,12,5.4,12,12v166
	C173.5,189.6,168.1,195,161.5,195z"/>
<g>
	<g>
		<defs>
			<path id="SVGID_2_" d="M116.8,103.4H83.2c-8.2,0-14.8-6.7-14.8-14.8V57.7c0-8.2,6.7-14.8,14.8-14.8h33.6
				c8.2,0,14.8,6.7,14.8,14.8v30.9C131.7,96.7,125,103.4,116.8,103.4z"/>
		</defs>
		<clipPath id="SVGID_3_">
			<use xlink:href="#SVGID_2_"  style="overflow:visible;"/>
		</clipPath>
		<g class="st2">
			<g>
				<g id="XMLID_4_">
					<g>
						<path class="st3" d="M155.4,126.2c0.2,2.2-1.5,4.1-3.6,4.1h-12.7c-1.9,0-3.5-1.4-3.7-3.2c-0.2-2.2,1.5-4.1,3.6-4.1h12.7
							C153.5,123.1,155.1,124.3,155.4,126.2z"/>
						<path class="st3" d="M155.4,147.3c0.2,2.2-1.5,4.1-3.6,4.1h-12.7c-1.9,0-3.5-1.4-3.7-3.2c-0.2-2.2,1.5-4.1,3.6-4.1h12.7
							C153.5,144.2,155.1,145.6,155.4,147.3z"/>
						<path class="st3" d="M155.4,168.6c0.2,2.2-1.5,4.1-3.6,4.1h-12.7c-1.9,0-3.5-1.4-3.7-3.2c-0.2-2.2,1.5-4.1,3.6-4.1h12.7
							C153.5,165.4,155.1,166.7,155.4,168.6z"/>
						<path class="st3" d="M130.9,68.4v9.6c0,4.1-3.3,7.4-7.4,7.4h-10.6c-0.1,0-0.2,0.1-0.2,0.2v10.6c0,4.1-3.3,7.4-7.4,7.4H95.1
							c-4.1,0-7.4-3.3-7.4-7.4V85.7c0-0.1-0.1-0.2-0.2-0.2H76.8c-4.1,0-7.4-3.3-7.4-7.4v-9.6c0-4.1,3.3-7.4,7.4-7.4h10.6
							c0.1,0,0.2-0.1,0.2-0.2V50.1c0-4.1,3.3-7.4,7.4-7.4h10.1c4.1,0,7.4,3.3,7.4,7.4v10.6c0,0.1,0.1,0.2,0.2,0.2h10.6
							C127.6,61,130.9,64.3,130.9,68.4z M123.7,78.1v-9.6c0-0.1-0.1-0.2-0.2-0.2h-17.9c-0.4,0-0.6-0.2-0.6-0.6V49.9l0,0h-10l0,0
							v17.7c0,0.4-0.2,0.6-0.6,0.6H76.9c-0.1,0-0.2,0.1-0.2,0.2v9.6c0,0.1,0.1,0.2,0.2,0.2h10.6c4.1,0,7.4,3.3,7.4,7.4v10.6
							c0,0.1,0.1,0.2,0.2,0.2h9.6c0.1,0,0.2-0.1,0.2-0.2V85.7c0-4.1,3.3-7.4,7.4-7.4h11.1C123.6,78.3,123.7,78.2,123.7,78.1z"/>
						
							<linearGradient id="SVGID_4_" gradientUnits="userSpaceOnUse" x1="76.5834" y1="-514.1325" x2="123.738" y2="-514.1325" gradientTransform="matrix(1 0 0 -1 0 -440.8898)">
							<stop  offset="1.970000e-02" style="stop-color:#3BC7C7;stop-opacity:0.5"/>
							<stop  offset="1" style="stop-color:#1CBEBE"/>
						</linearGradient>
						<path class="st4" d="M123.7,68.4v9.6c0,0.1-0.1,0.2-0.2,0.2h-11c-4.1,0-7.4,3.3-7.4,7.4v10.6c0,0.1-0.1,0.2-0.2,0.2h-9.6
							c-0.1,0-0.2-0.1-0.2-0.2V85.7c0-4.1-3.3-7.4-7.4-7.4H76.9c-0.1,0-0.2-0.1-0.2-0.2v-9.6c0-0.1,0.1-0.2,0.2-0.2h17.4
							c0.4,0,0.6-0.2,0.6-0.6V49.9l0,0h10l0,0v17.7c0,0.4,0.2,0.6,0.6,0.6h17.9C123.6,68.2,123.7,68.3,123.7,68.4z"/>
						<path class="st3" d="M105.8,230.6c-0.6,0.4-1.4,0.6-2,0.6c-2.6,0-4.3-2.7-3.3-5.1c5.4-12.9,11.5-25.8,17.8-38.3
							c0.9-1.7,3.1-2.5,4.8-1.6c1.7,0.9,2.5,3.1,1.6,4.8c-4.2,8.3-8.3,16.7-12.1,25.2c4.9-4.1,9.6-8.7,13.8-13.5
							c1.4-1.5,3.6-1.6,5.1-0.2s1.6,3.6,0.2,5.1c-0.4,0.5-2,3-3.3,6.3c-1,2.6-1.5,4.3-1.6,5.3l0,0c3-2.5,5.4-5.6,7.2-9
							c0.9-1.7,2.7-2.5,4.6-1.7c1.7,0.6,2.7,2.6,2.2,4.3c-0.4,1.4-1,3.3-0.5,4.5c0.4,0.9,1.7,1.6,3.1,1.5c1.5-0.1,3.3-1,4.9-2.6
							c1.4-1.4,3.7-1.4,5.1,0.1c1.4,1.4,1.4,3.7-0.1,5.1c-2.8,2.8-6.2,4.5-9.5,4.7c-3.7,0.2-7.2-1.4-9.1-4.1c-1,1.1-2.1,2.1-3.2,3
							c-1.2,1-2.7,2-4.7,2.1c-2.8,0.1-5.2-1.1-6.3-3.5c-0.5-1.1-0.7-2.5-0.7-4C115.3,223.6,110.6,227.2,105.8,230.6z"/>
						<path class="st3" d="M87,147.3c0.2,2.2-1.5,4.1-3.6,4.1H48.7c-1.9,0-3.5-1.4-3.7-3.2c-0.2-2.2,1.5-4.1,3.6-4.1h34.9
							C85.2,144.2,86.8,145.6,87,147.3z"/>
						<path class="st3" d="M48.4,123.1H108c1.9,0,3.5,1.4,3.7,3.2c0.2,2.2-1.5,4.1-3.6,4.1H48.7c-1.9,0-3.5-1.4-3.7-3.2
							C44.6,124.9,46.3,123.1,48.4,123.1z"/>
						<path class="st3" d="M48.4,165.4H108c1.9,0,3.5,1.4,3.7,3.2c0.2,2.2-1.5,4.1-3.6,4.1H48.7c-1.9,0-3.5-1.4-3.7-3.2
							C44.6,167.2,46.3,165.4,48.4,165.4z"/>
						<path class="st3" d="M99.9,250.9l-12.4,8.2c-2.2,1.4-4.9,1.4-7.2,0L68,250.9l-12.4,8.2c-1.1,0.7-2.3,1.1-3.6,1.1
							s-2.5-0.4-3.6-1.1l-12.4-8.2l-9.5,6.2c-2.5,1.6-5.7,1.4-8-0.6c-1.4-1.2-2.1-3.1-2.1-4.9V198c0-2.1,1.9-3.8,4.1-3.6
							c1.9,0.2,3.1,1.9,3.1,3.7v52.3l8.8-5.7c2.2-1.4,4.9-1.4,7.2,0l12.4,8.2l12.4-8.2c2.2-1.4,4.9-1.4,7.2,0l12.4,8.2l12.4-8.2
							c2.2-1.4,4.9-1.4,7.2,0l12.4,8.2l12.4-8.2c2.2-1.4,4.9-1.4,7.2,0l12.4,8.2l12.4-8.2c2.2-1.4,4.9-1.4,7.2,0l8.8,5.7V21.1h-19.4
							c-2.1,0-3.8-1.9-3.6-4.1c0.2-1.9,1.9-3.1,3.7-3.1h19.9c3.6,0,6.6,3,6.6,6.6v231.2c0,1.9-0.7,3.7-2.1,5.1c-2.2,2-5.6,2.2-8,0.6
							l-9.4-6.2l-12.4,8.2c-2.2,1.4-4.9,1.4-7.2,0l-12.4-8.2l-12.4,8.2c-2.2,1.4-4.9,1.4-7.2,0L99.9,250.9z"/>
						<path class="st3" d="M23.7,21.1v160.2c0,2-1.6,3.6-3.6,3.6s-3.6-1.6-3.6-3.6v-161c0-3.6,3-6.6,6.6-6.6h116.8
							c2.1,0,3.8,1.9,3.6,4.1c-0.2,1.9-1.9,3.2-3.7,3.2H23.7L23.7,21.1z"/>
					</g>
				</g>
			</g>
		</g>
	</g>
</g>
<g id="Capa_3">
</g>
<line class="st5" x1="62.4" y1="123" x2="137.6" y2="123.3"/>
<line class="st5" x1="65.5" y1="142.4" x2="134.5" y2="142.7"/>
<line class="st5" x1="69.5" y1="161.7" x2="130.5" y2="162"/>
</svg>
