<?xml version="1.0" encoding="utf-8"?>
<!-- Generator: Adobe Illustrator 24.2.3, SVG Export Plug-In . SVG Version: 6.00 Build 0)  -->
<svg version="1.1" id="Layer_1" xmlns="http://www.w3.org/2000/svg" xmlns:xlink="http://www.w3.org/1999/xlink" x="0px" y="0px"
	 viewBox="0 0 512 512" style="enable-background:new 0 0 512 512;" xml:space="preserve">
<style type="text/css">
	.st0{fill:#3366CC;}
	.st1{fill:url(#SVGID_1_);}
	.st2{fill:url(#SVGID_2_);}
	.st3{fill:url(#SVGID_3_);}
	.st4{fill:url(#SVGID_4_);}
	.st5{fill:url(#SVGID_5_);}
	.st6{fill:url(#SVGID_6_);}
	.st7{fill:none;stroke:#3366CC;stroke-width:4;stroke-miterlimit:10;}
</style>
<g id="XMLID_2_">
	<g>
		<path class="st0" d="M504.1,453.9c0,16.4,0,32.7,0,49.1c-63.9,0-127.7,0-191.6,0c-4.4-2.7-5.9-6.7-5.7-11.8
			c0.4-12.7-0.3-25.4,0.9-38c3.1-30.6,25.4-55.5,55.4-63c0.9-0.2,1.8-0.6,3.3-1.1c-13.9-14.1-20.4-30.7-17.8-50.3
			c2.1-15.2,9.3-27.5,21.2-37c23.1-18.5,56.6-16,77,5.1c19.7,20.4,23.7,56.2-2.2,82.2c2.8,0.8,5.3,1.4,7.8,2.3
			c28.6,10.2,45.8,30.1,50.9,60.2C503.5,452.5,503.9,453.2,504.1,453.9z M487.6,486.4c0-9.8,0.5-19.1-0.1-28.4
			c-1.8-29.1-25.4-52.3-54.6-53.3c-18.6-0.6-37.2-0.3-55.8,0.1c-4.9,0.1-9.9,1.3-14.5,2.8c-14.5,4.8-25.2,14.3-32.5,27.6
			c-8.9,16.2-6.5,33.8-6.5,51.1C378.5,486.4,432.8,486.4,487.6,486.4z M405.6,387.9c22.5,0,40.9-18.5,40.9-41
			c0-22.4-18.6-41.1-41-41.1c-22.4,0-41,18.7-41,41.1C364.6,369.4,383.1,388,405.6,387.9z"/>
		<linearGradient id="SVGID_1_" gradientUnits="userSpaceOnUse" x1="323.2477" y1="445.4409" x2="487.7885" y2="445.4409">
			<stop  offset="0" style="stop-color:#FFFFFF"/>
			<stop  offset="1" style="stop-color:#1CBEBE"/>
		</linearGradient>
		<path class="st1" d="M487.5,458c0.6,9.3,0.1,18.6,0.1,28.4c-54.8,0-109.1,0-164.1,0c0.1-17.4-2.4-34.9,6.5-51.1
			c7.3-13.4,18-22.9,32.5-27.6c4.7-1.5,9.7-2.7,14.5-2.8c18.6-0.3,37.2-0.7,55.8-0.1C462.1,405.7,485.7,428.9,487.5,458z"/>
		<path class="st0" d="M470.9,256.9c0,5.1,0,10.4,0,16c-5.2,0-10.2,0-15.6,0c0-5.3,0-10.3,0-16C460.5,256.9,465.4,256.9,470.9,256.9
			z"/>
		<path class="st0" d="M467.1,222.6c0.9,5.8,1.7,11,2.6,16.7c-5.5,0.7-10.6,1.4-16.2,2.1c-0.9-5.2-1.7-10-2.6-15.5
			C456.6,224.6,461.7,223.6,467.1,222.6z"/>
		<path class="st0" d="M457.6,189.7c1.8,5.4,3.5,10.4,5.5,16.1c-5.4,1.6-10.3,3-15.7,4.6c-1.6-4.9-3.2-9.7-5-14.9
			C447.4,193.6,452.3,191.7,457.6,189.7z"/>
		<linearGradient id="SVGID_2_" gradientUnits="userSpaceOnUse" x1="364.5589" y1="346.888" x2="446.5063" y2="346.888">
			<stop  offset="0" style="stop-color:#FFFFFF"/>
			<stop  offset="1" style="stop-color:#1CBEBE"/>
		</linearGradient>
		<path class="st2" d="M446.5,346.9c0,22.5-18.4,41-40.9,41c-22.4,0-41-18.5-41-41c0-22.4,18.6-41.1,41-41.1
			C427.9,305.8,446.5,324.5,446.5,346.9z"/>
		<path class="st0" d="M443.1,158.8c2.7,5.2,5.2,9.9,7.9,15.1c-5.1,2.4-9.8,4.6-14.8,7c-2.4-4.6-4.7-9-7.4-13.9
			C433.6,164.3,438.2,161.7,443.1,158.8z"/>
		<path class="st0" d="M423.9,130.7c3.4,4.5,6.6,8.8,10.2,13.6c-4.5,3.1-8.8,6.1-13.5,9.3c-3.1-4.1-6.1-8.2-9.4-12.7
			C415.6,137.3,419.6,134.1,423.9,130.7z"/>
		<path class="st0" d="M412.6,117.7c-4,3.8-7.9,7.5-12.1,11.5c-3.6-4-6.9-7.7-10.5-11.8c3.2-3.6,6.6-7.4,10.3-11.5
			C404.4,109.9,408.3,113.6,412.6,117.7z"/>
		<path class="st0" d="M387.2,95c-3.3,4.4-6.4,8.4-9.9,13c-4.3-3-8.4-5.9-12.9-9c2.9-4.6,5.7-9,8.9-13.9
			C378.1,88.6,382.5,91.7,387.2,95z"/>
		<path class="st0" d="M356.2,183c0.1,10.1,0.1,20.2,0,30.3c-0.1,7.6-3,10.5-10.5,10.5c-58.7,0-117.4,0-176.1,0
			c-7.3,0-10.4-2.9-10.3-10.2c0.2-14.4-1-29.1,1.4-43.2c5.2-30.9,24.2-50.4,54.1-59.2c0.9-0.3,1.9-0.5,2.8-0.8
			c0.2-0.1,0.4-0.3,0.7-0.5c-28.6-29.8-18.5-66.8,0.2-84c21.5-19.8,54.4-21,76.4-2.1c13,11.1,20,25.4,20.4,42.5
			c0.5,17-6,31.5-17.3,42.6c9.4,4.8,19.5,8.5,27.9,14.5C346,137.7,355.9,158.1,356.2,183z M339.6,207.1c0-9.4,0.3-18.5-0.1-27.6
			c-1-28.1-24.3-52.6-52.3-53.8c-19.2-0.9-38.5-0.8-57.7-0.1c-25.4,1-46.9,18.7-52.1,43.5c-2.5,12.2-1.8,25.1-2.6,38
			C230.8,207.1,285,207.1,339.6,207.1z M257.8,108.6c22.5-0.1,41.1-18.7,41-41c-0.1-22.4-18.9-41.1-41.1-41
			c-22.4,0.1-41.1,18.9-41,41.1C216.8,90.3,235.3,108.7,257.8,108.6z"/>
		<path class="st0" d="M358.5,76.5c-2.7,5.1-5.2,9.6-7.7,14.4c-4.7-2.3-9.2-4.4-14.2-6.8c2.2-5,4.3-9.8,6.6-15
			C348.5,71.6,353.3,74,358.5,76.5z"/>
		<linearGradient id="SVGID_3_" gradientUnits="userSpaceOnUse" x1="174.9174" y1="166.0422" x2="339.7413" y2="166.0422">
			<stop  offset="0" style="stop-color:#FFFFFF"/>
			<stop  offset="1" style="stop-color:#1CBEBE"/>
		</linearGradient>
		<path class="st3" d="M339.6,179.5c0.3,9.1,0.1,18.2,0.1,27.6c-54.6,0-108.9,0-164.7,0c0.8-12.9,0.1-25.8,2.6-38
			c5.1-24.8,26.7-42.5,52.1-43.5c19.2-0.8,38.5-0.8,57.7,0.1C315.3,126.9,338.6,151.4,339.6,179.5z"/>
		<linearGradient id="SVGID_4_" gradientUnits="userSpaceOnUse" x1="216.649" y1="67.5827" x2="298.7523" y2="67.5827">
			<stop  offset="0" style="stop-color:#FFFFFF"/>
			<stop  offset="1" style="stop-color:#1CBEBE"/>
		</linearGradient>
		<path class="st4" d="M298.8,67.6c0.1,22.3-18.5,40.9-41,41c-22.5,0.1-41-18.3-41.1-40.8c-0.1-22.2,18.6-41,41-41.1
			C279.9,26.5,298.6,45.1,298.8,67.6z"/>
		<path class="st0" d="M297,458.1c1.1,5.3,2.2,10.4,3.4,16c-5.9,1-11.1,1.8-16.8,2.7c-0.7-5.5-1.4-10.6-2.1-16.2
			C286.8,459.7,291.7,458.9,297,458.1z"/>
		<path class="st0" d="M265.8,462.1c0,5.1,0,10.2,0,15.7c-5,0-10.5,0-15.9,0c0-5.3,0-10.3,0-15.7
			C255.3,462.1,260.3,462.1,265.8,462.1z"/>
		<path class="st0" d="M234.3,460.6c-0.7,5.6-1.3,10.8-1.9,16.3c-5.7-0.9-11.1-1.8-16.8-2.7c1.1-5.4,2-10.4,3.1-15.9
			C224,459,228.9,459.8,234.3,460.6z"/>
		<path class="st0" d="M208.3,459.5c0.7,11.2,0.1,22.4,0.2,33.7c0,4.5-2.1,7.5-5.7,9.8c-61.9,0-123.9,0-185.8,0
			c-4.5-2.6-6-6.5-5.8-11.6c0.5-13.1-0.4-26.4,1.1-39.4c3.3-29.7,25.7-54.3,54.6-61.6c1.2-0.3,2.4-0.7,3.7-1.1
			c-27.9-28.2-20.2-66.5,0.8-85c22.8-20.1,56.1-19.7,78.2,1.2c20.5,19.4,26.6,56.2-0.4,83.7c4.4,1.5,9,2.5,13.1,4.4
			C190.8,406.3,206.3,428.3,208.3,459.5z M191.3,486.4c0-11.3,0.9-22.1-0.2-32.7c-2.6-26-26.3-48.1-52.6-48.9
			c-18.9-0.6-37.8-0.5-56.8,0.1c-6.7,0.2-13.6,2.2-19.9,4.7c-13.1,5.3-22.4,15.1-28.7,27.8c-7.7,15.7-5.2,32.4-5.5,49
			C82.7,486.4,137.1,486.4,191.3,486.4z M150.8,347.6c0.5-22.4-18.1-41.5-40.8-41.7c-22-0.3-40.7,18.1-41.1,40.4
			c-0.5,22.7,17.9,41.4,40.8,41.6C131.8,388.1,150.3,370.1,150.8,347.6z"/>
		<linearGradient id="SVGID_5_" gradientUnits="userSpaceOnUse" x1="27.5813" y1="445.4272" x2="191.6606" y2="445.4272">
			<stop  offset="0" style="stop-color:#FFFFFF"/>
			<stop  offset="1" style="stop-color:#1CBEBE"/>
		</linearGradient>
		<path class="st5" d="M191.1,453.7c1.1,10.6,0.2,21.4,0.2,32.7c-54.2,0-108.6,0-163.6,0c0.3-16.5-2.2-33.2,5.5-49
			c6.3-12.7,15.5-22.5,28.7-27.8c6.3-2.5,13.2-4.5,19.9-4.7c18.9-0.6,37.8-0.7,56.8-0.1C164.8,405.7,188.5,427.7,191.1,453.7z"/>
		<path class="st0" d="M156.9,76.5c2.6,4.9,5,9.3,7.8,14.4c-4.4,2.6-8.8,5.2-13.5,8c-2.9-4.5-5.7-8.9-8.9-13.8
			C147.2,82.2,151.9,79.4,156.9,76.5z"/>
		<linearGradient id="SVGID_6_" gradientUnits="userSpaceOnUse" x1="68.8998" y1="346.8877" x2="150.84" y2="346.8877">
			<stop  offset="0" style="stop-color:#FFFFFF"/>
			<stop  offset="1" style="stop-color:#1CBEBE"/>
		</linearGradient>
		<path class="st6" d="M110,305.9c22.7,0.3,41.3,19.3,40.8,41.7c-0.5,22.5-19,40.5-41.2,40.3c-22.9-0.2-41.2-19-40.8-41.6
			C69.3,324,88,305.6,110,305.9z"/>
		<path class="st0" d="M128.2,95c3.3,4.4,6.5,8.5,9.9,13c-4,3.4-7.9,6.6-12.1,10c-3.6-4-7.2-7.9-11-12.2
			C119.4,102.2,123.7,98.7,128.2,95z"/>
		<path class="st0" d="M114.7,129c-3.5,4-6.8,7.8-10.4,11.9c-4.3-3.5-8.4-6.8-12.8-10.3c3.8-4.4,7.4-8.4,11.2-12.8
			C106.8,121.6,110.6,125.2,114.7,129z"/>
		<path class="st0" d="M94.9,153.5c-2.9,4.6-5.5,8.8-8.4,13.3c-4.7-2.7-9.2-5.2-14.1-8.1c2.9-4.7,5.7-9.3,9-14.5
			C85.8,147.3,90.1,150.3,94.9,153.5z"/>
		<path class="st0" d="M79.2,180.9c-2.1,4.9-4,9.4-6.1,14.5c-5.3-2-10-3.8-15.3-5.8c2.3-5.3,4.4-10.4,6.6-15.7
			C69.5,176.3,74.2,178.5,79.2,180.9z"/>
		<path class="st0" d="M68.1,210.4c-1.3,5.2-2.5,10.1-3.8,15.3c-5.4-1.1-10.4-2.1-15.9-3.2c1.3-5.5,2.6-10.7,3.9-16.5
			C57.8,207.5,62.7,208.9,68.1,210.4z"/>
		<path class="st0" d="M61.8,241.3c-0.4,5.2-0.7,10.1-1.1,15c-5.6,0-10.7,0-16.4,0c0.4-5.8,0.8-11.1,1.3-17.1
			C51.5,240,56.5,240.7,61.8,241.3z"/>
		<path class="st0" d="M60.7,273.3c0.4,4.7,0.7,9.6,1.2,15c-5.4,0.7-10.5,1.4-16.2,2.1c-0.5-5.8-0.9-11.1-1.4-17.1
			C50.1,273.3,55.2,273.3,60.7,273.3z"/>
	</g>
	<g>
		<path class="st7" d="M312.6,503c-4.4-2.7-5.9-6.7-5.7-11.8c0.4-12.7-0.3-25.4,0.9-38c3.1-30.6,25.4-55.5,55.4-63
			c0.9-0.2,1.8-0.6,3.3-1.1c-13.9-14.1-20.4-30.7-17.8-50.3c2.1-15.2,9.3-27.5,21.2-37c23.1-18.5,56.6-16,77,5.1
			c19.7,20.4,23.7,56.2-2.2,82.2c2.8,0.8,5.3,1.4,7.8,2.3c28.6,10.2,45.8,30.1,50.9,60.2c0.1,0.8,0.5,1.5,0.8,2.2
			c0,16.4,0,32.7,0,49.1C440.3,503,376.4,503,312.6,503z"/>
		<path class="st7" d="M17,503c-4.5-2.6-6-6.5-5.8-11.6c0.5-13.1-0.4-26.4,1.1-39.4c3.3-29.7,25.7-54.3,54.6-61.6
			c1.2-0.3,2.4-0.7,3.7-1.1c-27.9-28.2-20.2-66.5,0.8-85c22.8-20.1,56.1-19.7,78.2,1.2c20.5,19.4,26.6,56.2-0.4,83.7
			c4.4,1.5,9,2.5,13.1,4.4c28.5,12.7,44.1,34.8,46,65.9c0.7,11.2,0.1,22.4,0.2,33.7c0,4.5-2.1,7.5-5.7,9.8C140.9,503,79,503,17,503z
			"/>
		<path class="st7" d="M297.8,108.8c9.4,4.8,19.5,8.5,27.9,14.5c20.2,14.5,30.1,34.8,30.4,59.7c0.1,10.1,0.1,20.2,0,30.3
			c-0.1,7.6-3,10.5-10.5,10.5c-58.7,0-117.4,0-176.1,0c-7.3,0-10.4-2.9-10.3-10.2c0.2-14.4-1-29.1,1.4-43.2
			c5.2-30.9,24.2-50.4,54.1-59.2c0.9-0.3,1.9-0.5,2.8-0.8c0.2-0.1,0.4-0.3,0.7-0.5c-28.6-29.8-18.5-66.8,0.2-84
			c21.5-19.8,54.4-21,76.4-2.1c13,11.1,20,25.4,20.4,42.5C315.6,83.2,309.1,97.7,297.8,108.8z"/>
		<path class="st7" d="M390,117.5c3.2-3.6,6.6-7.4,10.3-11.5c4.1,3.9,8,7.6,12.3,11.8c-4,3.8-7.9,7.5-12.1,11.5
			C396.9,125.2,393.6,121.6,390,117.5z"/>
		<path class="st7" d="M44.3,273.3c5.8,0,10.8,0,16.4,0c0.4,4.7,0.7,9.6,1.2,15c-5.4,0.7-10.5,1.4-16.2,2.1
			C45.2,284.7,44.8,279.4,44.3,273.3z"/>
		<path class="st7" d="M343.2,69c5.3,2.6,10.1,4.9,15.3,7.4c-2.7,5.1-5.2,9.6-7.7,14.4c-4.7-2.3-9.2-4.4-14.2-6.8
			C338.8,79.1,340.9,74.3,343.2,69z"/>
		<path class="st7" d="M411.1,140.9c4.5-3.6,8.5-6.8,12.8-10.2c3.4,4.5,6.6,8.8,10.2,13.6c-4.5,3.1-8.8,6.1-13.5,9.3
			C417.5,149.5,414.4,145.4,411.1,140.9z"/>
		<path class="st7" d="M463.1,205.8c-5.4,1.6-10.3,3-15.7,4.6c-1.6-4.9-3.2-9.7-5-14.9c5.1-1.9,9.9-3.8,15.3-5.8
			C459.4,195.1,461.1,200.1,463.1,205.8z"/>
		<path class="st7" d="M48.4,222.4c1.3-5.5,2.6-10.7,3.9-16.5c5.4,1.5,10.4,2.9,15.8,4.4c-1.3,5.2-2.5,10.1-3.8,15.3
			C58.9,224.6,54,223.5,48.4,222.4z"/>
		<path class="st7" d="M156.9,76.5c2.6,4.9,5,9.3,7.8,14.4c-4.4,2.6-8.8,5.2-13.5,8c-2.9-4.5-5.7-8.9-8.9-13.8
			C147.2,82.2,151.9,79.4,156.9,76.5z"/>
		<path class="st7" d="M373.3,85.1c4.8,3.4,9.2,6.5,13.9,9.9c-3.3,4.4-6.4,8.4-9.9,13c-4.3-3-8.4-5.9-12.9-9
			C367.3,94.4,370.1,90.1,373.3,85.1z"/>
		<path class="st7" d="M128.2,95c3.3,4.4,6.5,8.5,9.9,13c-4,3.4-7.9,6.6-12.1,10c-3.6-4-7.2-7.9-11-12.2
			C119.4,102.2,123.7,98.7,128.2,95z"/>
		<path class="st7" d="M436.2,180.9c-2.4-4.6-4.7-9-7.4-13.9c4.7-2.7,9.3-5.3,14.3-8.2c2.7,5.2,5.2,9.9,7.9,15.1
			C446,176.3,441.3,178.5,436.2,180.9z"/>
		<path class="st7" d="M300.4,474.1c-5.9,1-11.1,1.8-16.8,2.7c-0.7-5.5-1.4-10.6-2.1-16.2c5.3-0.8,10.1-1.6,15.5-2.5
			C298.1,463.3,299.2,468.4,300.4,474.1z"/>
		<path class="st7" d="M94.9,153.5c-2.9,4.6-5.5,8.8-8.4,13.3c-4.7-2.7-9.2-5.2-14.1-8.1c2.9-4.7,5.7-9.3,9-14.5
			C85.8,147.3,90.1,150.3,94.9,153.5z"/>
		<path class="st7" d="M451,225.7c5.6-1.1,10.7-2.1,16.1-3.2c0.9,5.8,1.7,11,2.6,16.7c-5.5,0.7-10.6,1.4-16.2,2.1
			C452.7,236.1,451.9,231.3,451,225.7z"/>
		<path class="st7" d="M45.7,239.3c5.8,0.7,10.8,1.4,16.2,2c-0.4,5.2-0.7,10.1-1.1,15c-5.6,0-10.7,0-16.4,0
			C44.8,250.6,45.2,245.2,45.7,239.3z"/>
		<path class="st7" d="M232.4,476.9c-5.7-0.9-11.1-1.8-16.8-2.7c1.1-5.4,2-10.4,3.1-15.9c5.2,0.8,10.2,1.5,15.5,2.3
			C233.6,466.2,233,471.4,232.4,476.9z"/>
		<path class="st7" d="M265.8,462.1c0,5.1,0,10.2,0,15.7c-5,0-10.5,0-15.9,0c0-5.3,0-10.3,0-15.7
			C255.3,462.1,260.3,462.1,265.8,462.1z"/>
		<path class="st7" d="M104.4,140.9c-4.3-3.5-8.4-6.8-12.8-10.3c3.8-4.4,7.4-8.4,11.2-12.8c4,3.8,7.8,7.4,11.9,11.2
			C111.2,133,107.9,136.8,104.4,140.9z"/>
		<path class="st7" d="M73.1,195.4c-5.3-2-10-3.8-15.3-5.8c2.3-5.3,4.4-10.4,6.6-15.7c5.1,2.4,9.8,4.6,14.8,7
			C77.1,185.8,75.2,190.3,73.1,195.4z"/>
		<path class="st7" d="M455.2,256.9c5.3,0,10.2,0,15.6,0c0,5.1,0,10.4,0,16c-5.2,0-10.2,0-15.6,0
			C455.2,267.6,455.2,262.6,455.2,256.9z"/>
		<path class="st7" d="M487.6,486.4c-54.8,0-109.1,0-164.1,0c0.1-17.4-2.4-34.9,6.5-51.1c7.3-13.4,18-22.9,32.5-27.6
			c4.7-1.5,9.7-2.7,14.5-2.8c18.6-0.3,37.2-0.7,55.8-0.1c29.2,0.9,52.8,24.1,54.6,53.3C488.1,467.3,487.6,476.6,487.6,486.4z"/>
		<path class="st7" d="M405.6,387.9c-22.4,0-41-18.5-41-41c0-22.4,18.6-41.1,41-41.1c22.3,0,40.9,18.7,41,41.1
			C446.5,369.5,428.1,387.9,405.6,387.9z"/>
		<path class="st7" d="M191.3,486.4c-54.2,0-108.6,0-163.6,0c0.3-16.5-2.2-33.2,5.5-49c6.3-12.7,15.5-22.5,28.7-27.8
			c6.3-2.5,13.2-4.5,19.9-4.7c18.9-0.6,37.8-0.7,56.8-0.1c26.2,0.8,50,22.9,52.6,48.9C192.2,464.3,191.3,475.1,191.3,486.4z"/>
		<path class="st7" d="M68.9,346.3C69.3,324,88,305.6,110,305.9c22.7,0.3,41.3,19.3,40.8,41.7c-0.5,22.5-19,40.5-41.2,40.3
			C86.8,387.7,68.5,369,68.9,346.3z"/>
		<path class="st7" d="M174.9,207.1c0.8-12.9,0.1-25.8,2.6-38c5.1-24.8,26.7-42.5,52.1-43.5c19.2-0.8,38.5-0.8,57.7,0.1
			c28,1.3,51.3,25.7,52.3,53.8c0.3,9.1,0.1,18.2,0.1,27.6C285,207.1,230.8,207.1,174.9,207.1z"/>
		<path class="st7" d="M257.8,108.6c-22.5,0.1-41-18.3-41.1-40.8c-0.1-22.2,18.6-41,41-41.1c22.3-0.1,41,18.6,41.1,41
			C298.9,89.9,280.3,108.5,257.8,108.6z"/>
	</g>
</g>
</svg>
