<?xml version="1.0" encoding="utf-8"?>
<!-- Generator: Adobe Illustrator 24.2.3, SVG Export Plug-In . SVG Version: 6.00 Build 0)  -->
<svg version="1.1" id="Layer_1" xmlns="http://www.w3.org/2000/svg" xmlns:xlink="http://www.w3.org/1999/xlink" x="0px" y="0px"
	 viewBox="0 0 512 512" style="enable-background:new 0 0 512 512;" xml:space="preserve">
<style type="text/css">
	.st0{fill:#3366CC;}
	.st1{fill:url(#SVGID_1_);}
	.st2{fill:url(#SVGID_2_);}
	.st3{fill:url(#SVGID_3_);}
	.st4{fill:#FFFFFF;}
	.st5{fill:url(#SVGID_4_);}
</style>
<g>
	<g id="XMLID_1_">
		<g>
			<path class="st0" d="M506.1,188.4c0,77.7,0,155.4,0,233.1c0,26.1-16.6,43.5-42.6,44.7c-1.4,0.1-2.7,0-4.1,0
				c-135.6,0-271.2,0-406.8,0.1c-15.6,0-28.9-4.5-38.5-17.4C8.8,441.8,6,433.8,6,425C5.9,344.9,5.8,264.8,6,184.7
				c0.1-23.1,18.7-40.7,42.5-40.9c24.6-0.2,49.2-0.1,73.8-0.1c2,0,4,0,7.3,0c0-11.5-1.1-22.2,0.2-32.6c4.6-36.2,33.6-63.5,69.8-64.5
				c38-1,76.2-1.1,114.2,0.1c37.7,1.2,68.3,34.2,69.1,72.1c0.2,8,0,16.1,0,25c2.2,0,4.2,0,6.2,0c24.1,0,48.2,0,72.2,0
				C488.4,143.7,506.1,161.4,506.1,188.4z M489.7,269.7c0.1-27.4,0-54.8,0-82.2c0-16.7-10.5-27.4-27.1-27.4c-137.7,0-275.4,0-413,0
				c-16.7,0-27.2,10.7-27.2,27.3c0,27.2,0,54.4,0,81.6c0,2.2,0,4.5,0.5,6.6c2.6,13.1,12.7,20.9,27.6,20.9c33.5,0.1,67,0,100.4,0
				c1.3,0,2.7-0.2,4.3-0.3c6.2-56.9,51-90.4,95.4-92.7c53.4-2.8,101.2,36.9,106.5,92.6c0.6,0.1,1.3,0.4,1.9,0.4
				c35.2,0,70.4,0.3,105.6-0.2C479.8,296.3,489.6,285.1,489.7,269.7z M489.7,420.4c0-36.6,0-73.2,0-109.9c0-1.8,0-3.6,0-6.4
				c-11.4,8.9-23.8,9.1-36.3,9.1c-30.2-0.2-60.5-0.1-90.7,0c-2,0-3.9,0.2-5.8,0.3c-6.1,54.6-48,89-93,92.4
				c-24,1.8-46.1-4.1-65.8-18.1c-25.5-18.1-39.4-43.3-43-74.7c-2.4,0-4.4,0-6.4,0c-29,0-58.1-0.1-87.1,0c-13.5,0-27.1,0.7-38.7-8.7
				c-0.3,1.2-0.5,1.7-0.5,2.1c0,39.5-0.1,79.1,0.1,118.6c0,7.4,3.4,13.5,8.9,18.3c5.9,5.2,13,6.3,20.5,6.3c46.4,0,92.9,0,139.4,0
				c89.7,0,179.3,0,269,0C479.6,449.7,489.7,439.7,489.7,420.4z M366.7,143.4c0-7.3,0-14.3,0-21.3c-0.1-33.6-25.3-59.3-58.9-59.5
				c-34.5-0.2-69,0-103.5-0.1c-10.8,0-21,2.6-30.3,8.1c-23.3,13.9-34.6,43.2-28,72.7c5,0,10.1,0,15.7,0c0-7.1,0-13.9,0-20.7
				c0.1-25.5,17.6-43.5,43-43.7c34.2-0.2,68.3-0.2,102.5,0c25.4,0.1,43,18.2,43.1,43.6c0,6.8,0,13.6,0,20.8
				C355.9,143.4,361.1,143.4,366.7,143.4z M340.8,304.5c0-45.9-37.9-84.2-83.6-84.5c-47.4-0.3-85.6,37.1-86,84.1
				c-0.4,47,37.5,85.3,84.6,85.5C302.6,389.9,340.8,351.7,340.8,304.5z M333.9,143.4c0-7,0-13.6,0-20.2c-0.1-17-10.4-27.6-27.3-27.7
				c-12.4-0.1-24.9,0-37.4,0c-21.5,0-43-0.1-64.5,0c-13.9,0.1-24.7,8.7-26.2,21.8c-1,8.5-0.2,17.3-0.2,26.2
				C230.3,143.4,281.9,143.4,333.9,143.4z"/>
			<linearGradient id="SVGID_1_" gradientUnits="userSpaceOnUse" x1="22.3052" y1="228.4379" x2="489.7133" y2="228.4379">
				<stop  offset="0" style="stop-color:#FFFFFF"/>
				<stop  offset="1" style="stop-color:#1CBEBE"/>
			</linearGradient>
			<path class="st1" d="M489.7,187.6c0,27.4,0.1,54.8,0,82.2c0,15.4-9.8,26.5-25.1,26.7c-35.2,0.5-70.4,0.2-105.6,0.2
				c-0.6,0-1.3-0.3-1.9-0.4c-5.3-55.7-53.1-95.4-106.5-92.6c-44.5,2.3-89.2,35.8-95.4,92.7c-1.6,0.1-2.9,0.3-4.3,0.3
				c-33.5,0-67,0.1-100.4,0c-14.9,0-25-7.8-27.6-20.9c-0.4-2.1-0.5-4.4-0.5-6.6c0-27.2-0.1-54.4,0-81.6c0-16.7,10.6-27.3,27.2-27.3
				c137.7,0,275.3,0,413,0C479.2,160.2,489.7,170.9,489.7,187.6z M473.3,229.3c0-14,0-28.1,0-42.1c0-6.1-3.2-9.6-8.3-9.6
				c-5,0.1-8.1,3.6-8.1,9.7c0,27.7,0,55.4,0,83.2c0,6.4,3.2,10.2,8.3,10.1c5.1-0.1,8.1-3.8,8.1-10.3
				C473.3,256.7,473.3,243,473.3,229.3z M55.1,229c0-13.7,0-27.4,0-41.1c0-6.6-2.9-10.2-8.1-10.3c-5.2-0.1-8.3,3.6-8.3,10
				c0,27.5,0,55.1,0,82.6c0,6.5,3,10.3,8.1,10.3c5.2,0.1,8.3-3.8,8.3-10.6C55.1,256.4,55.1,242.7,55.1,229z"/>
			<linearGradient id="SVGID_2_" gradientUnits="userSpaceOnUse" x1="22.3261" y1="376.9532" x2="489.6909" y2="376.9532">
				<stop  offset="0" style="stop-color:#FFFFFF"/>
				<stop  offset="1" style="stop-color:#1CBEBE"/>
			</linearGradient>
			<path class="st2" d="M489.7,310.6c0,36.6,0,73.2,0,109.9c0,19.2-10.1,29.3-29.5,29.3c-89.7,0-179.3,0-269,0
				c-46.4,0-92.9,0-139.4,0c-7.5,0-14.6-1.1-20.5-6.3c-5.5-4.9-8.9-11-8.9-18.3c-0.2-39.5-0.1-79.1-0.1-118.6c0-0.5,0.2-0.9,0.5-2.1
				c11.6,9.4,25.2,8.7,38.7,8.7c29-0.1,58.1,0,87.1,0c2,0,4,0,6.4,0c3.6,31.4,17.4,56.5,43,74.7c19.7,14,41.8,19.9,65.8,18.1
				c45.1-3.4,86.9-37.8,93-92.4c1.9-0.1,3.8-0.3,5.8-0.3c30.2,0,60.5-0.1,90.7,0c12.6,0.1,25-0.2,36.3-9.1
				C489.7,307,489.7,308.8,489.7,310.6z"/>
			<path class="st0" d="M473.3,187.2c0.1,14,0,28.1,0,42.1c0,13.7,0,27.4,0,41.1c0,6.5-3,10.3-8.1,10.3c-5.1,0.1-8.3-3.7-8.3-10.1
				c0-27.7,0-55.4,0-83.2c0-6.1,3.1-9.7,8.1-9.7C470.1,177.6,473.2,181.2,473.3,187.2z"/>
			<linearGradient id="SVGID_3_" gradientUnits="userSpaceOnUse" x1="144.183" y1="102.9642" x2="366.712" y2="102.9642">
				<stop  offset="0" style="stop-color:#FFFFFF"/>
				<stop  offset="1" style="stop-color:#1CBEBE"/>
			</linearGradient>
			<path class="st3" d="M366.7,122.1c0,7,0,14,0,21.3c-5.6,0-10.8,0-16.4,0c0-7.1,0-13.9,0-20.8c-0.1-25.4-17.7-43.4-43.1-43.6
				c-34.2-0.2-68.3-0.2-102.5,0c-25.4,0.2-42.9,18.2-43,43.7c0,6.8,0,13.6,0,20.7c-5.6,0-10.6,0-15.7,0c-6.6-29.5,4.7-58.8,28-72.7
				c9.3-5.5,19.5-8.1,30.3-8.1c34.5,0,69-0.2,103.5,0.1C341.3,62.8,366.6,88.4,366.7,122.1z"/>
			<path class="st4" d="M257.2,220.1c45.7,0.3,83.6,38.6,83.6,84.5c0,47.2-38.2,85.4-85,85.1c-47.1-0.2-85-38.5-84.6-85.5
				C171.6,257.2,209.8,219.8,257.2,220.1z M324.4,312.8c0.1-5,0-9.9,0-14.9c0-12.6-5.1-17.6-17.8-17.6c-8.5,0-17,0-26,0
				c0-10.1,0.1-19.7,0-29.2c-0.1-8.7-5.9-14.4-14.5-14.6c-6-0.1-12,0-17.9,0c-11.3,0-16.6,5.3-16.7,16.6c0,8.9,0,17.8,0,27.2
				c-2.2,0-4.1,0-5.9,0c-7.7,0-15.4-0.1-23.1,0c-8.9,0.2-14.4,5.5-14.7,14.4c-0.3,6.8-0.3,13.7,0,20.5c0.4,8.4,5.5,13.6,14,14.1
				c7,0.4,14,0.2,21,0.2c2.8,0,5.6,0,8.7,0c0,10.3-0.1,19.6,0,29c0.1,8.7,5.9,14.4,14.5,14.6c6,0.1,12,0,17.9,0
				c11.3,0,16.7-5.3,16.7-16.6c0-8.9,0-17.7,0-27.1c9.4,0,18.2,0.1,27.1,0C319,329.4,324.3,324.1,324.4,312.8z"/>
			<path class="st0" d="M324.4,297.9c0,5,0,9.9,0,14.9c-0.1,11.2-5.4,16.6-16.7,16.8c-8.8,0.1-17.7,0-27.1,0c0,9.4,0,18.2,0,27.1
				c0,11.3-5.4,16.5-16.7,16.6c-6,0-12,0.1-17.9,0c-8.6-0.2-14.4-5.9-14.5-14.6c-0.2-9.4,0-18.8,0-29c-3.1,0-5.9,0-8.7,0
				c-7,0-14,0.2-21-0.2c-8.4-0.5-13.6-5.7-14-14.1c-0.3-6.8-0.3-13.7,0-20.5c0.4-8.9,5.9-14.2,14.7-14.4c7.7-0.2,15.4,0,23.1,0
				c1.8,0,3.7,0,5.9,0c0-9.5,0-18.3,0-27.2c0-11.3,5.4-16.5,16.7-16.6c6,0,12-0.1,17.9,0c8.6,0.2,14.4,5.9,14.5,14.6
				c0.2,9.5,0,19.1,0,29.2c9,0,17.5,0,26,0C319.3,280.3,324.4,285.4,324.4,297.9z M307.8,313.2c0-5.8,0-10.7,0-15.9
				c-1.1-0.3-1.6-0.5-2.1-0.5c-8.7,0-17.4-0.1-26.1-0.1c-14.3,0-15.4-1.1-15.4-15.5c0-9.3,0-18.7,0-27.9c-5.9,0-11.1,0-16.4,0
				c0,11.4,0,22.3,0,33.2c0,7-2.8,10-9.9,10.1c-9.4,0.1-18.8,0-28.2,0.1c-1.8,0-3.6,0.2-5.3,0.4c0,5.6,0,10.6,0,16.1
				c9.6,0,18.8,0,28,0c14.5,0,15.4,0.9,15.4,15.4c0,9.3,0,18.7,0,27.9c5.9,0,11,0,16.4,0c0-11.4,0-22.3,0-33.2c0-7.1,2.8-9.9,9.9-10
				c7.5-0.1,15,0,22.5,0C300.4,313.2,304,313.2,307.8,313.2z"/>
			<linearGradient id="SVGID_4_" gradientUnits="userSpaceOnUse" x1="204.4396" y1="304.8839" x2="307.7554" y2="304.8839">
				<stop  offset="0" style="stop-color:#FFFFFF"/>
				<stop  offset="1" style="stop-color:#1CBEBE"/>
			</linearGradient>
			<path class="st5" d="M307.8,297.3c0,5.1,0,10,0,15.9c-3.7,0-7.4,0-11.1,0c-7.5,0-15-0.1-22.5,0c-7.1,0.1-9.9,2.9-9.9,10
				c-0.1,10.9,0,21.9,0,33.2c-5.4,0-10.5,0-16.4,0c0-9.2,0-18.5,0-27.9c0-14.5-0.9-15.4-15.4-15.4c-9.2,0-18.4,0-28,0
				c0-5.4,0-10.4,0-16.1c1.7-0.1,3.5-0.3,5.3-0.4c9.4,0,18.8,0.1,28.2-0.1c7.1-0.1,9.9-3.1,9.9-10.1c0-10.9,0-21.9,0-33.2
				c5.3,0,10.5,0,16.4,0c0,9.2,0,18.5,0,27.9c0,14.4,1,15.5,15.4,15.5c8.7,0,17.4,0,26.1,0.1C306.2,296.8,306.6,297,307.8,297.3z"/>
			<path class="st0" d="M55.1,187.9c0,13.7,0,27.4,0,41.1c0,13.7,0,27.4,0,41.1c0,6.8-3.1,10.7-8.3,10.6c-5.1-0.1-8.1-3.8-8.1-10.3
				c0-27.6,0-55.1,0-82.6c0-6.5,3.1-10.1,8.3-10C52.2,177.7,55.1,181.4,55.1,187.9z"/>
		</g>
		<g>
		</g>
	</g>
</g>
</svg>
