<?xml version="1.0" encoding="utf-8"?>
<!-- Generator: Adobe Illustrator 24.2.3, SVG Export Plug-In . SVG Version: 6.00 Build 0)  -->
<svg version="1.1" id="Capa_1" xmlns="http://www.w3.org/2000/svg" xmlns:xlink="http://www.w3.org/1999/xlink" x="0px" y="0px"
	 viewBox="0 0 200 200" style="enable-background:new 0 0 200 200;" xml:space="preserve">
<style type="text/css">
	.st0{fill:none;stroke:#FCFCFC;stroke-width:7;stroke-miterlimit:10;}
	.st1{fill:#FFFFFF;}
</style>
<circle class="st0" cx="100" cy="100" r="93.5"/>
<g id="XMLID_4_">
	<g id="XMLID_5_">
		<g>
			<path class="st1" d="M151.9,137.8c0,0.5,0,1.1,0,1.6c-0.1,0.2-0.2,0.4-0.2,0.6c-0.2,1.6-0.8,3.1-1.9,4.3
				c-2.8,2.8-5.1,6.2-9.2,7.5c-1.4,0-2.7,0-4.1,0c-3-0.9-5-3.2-7-5.2c-9.5-9.5-18.9-18.9-28.4-28.4c-0.3-0.3-0.5-0.8-0.8-1.2
				c-0.2,0-0.4,0-0.7,0c-0.2,0.4-0.4,0.9-0.8,1.2c-9.5,9.5-18.9,19-28.4,28.4c-2.1,2.1-4.1,4.4-7,5.2c-1.4,0-2.7,0-4.1,0
				c-1.3-0.7-2.8-1.3-3.9-2.2c-1.8-1.5-3.5-3.3-5.1-5.1c-1.5-1.7-2.2-3.6-2.2-5.8c0-0.4,0-0.9,0.1-1.4c0.3-2.3,1.4-4,3-5.6
				c10.2-10.2,20.5-20.5,30.7-30.7c0.3-0.3,0.6-0.7,1.2-1.3c-0.5-0.3-0.9-0.5-1.3-0.9c-10.1-10-20.2-20.1-30.3-30.2
				c-0.4-0.4-0.8-0.8-1.2-1.2c-1.5-1.7-2.2-3.8-2.2-5.9c0-2.1,0.8-4.3,2.3-5.9c1.6-1.7,3.3-3.4,5-5c1.7-1.5,3.6-2.3,5.8-2.3
				c0.4,0,0.9,0,1.4,0.1c2.3,0.3,4,1.4,5.6,3C78.5,61.5,88.7,71.8,99,82c0.3,0.3,0.7,0.6,1.2,1.2c0.4-0.5,0.6-1,1-1.3
				c10.2-10.2,20.5-20.5,30.7-30.7c2-2,4.3-3,6.7-3c2.3,0,4.7,1,6.7,3c1.3,1.3,2.6,2.6,3.9,3.9c1.2,1.2,2,2.7,2.4,4.4
				c0.1,0.4,0.2,0.8,0.3,1.3c0,0.5,0,1.1,0,1.6c-0.1,0.1-0.2,0.2-0.2,0.3c-0.3,2.5-1.7,4.4-3.4,6.2c-10.1,10-20.1,20.1-30.2,30.2
				c-0.4,0.4-0.8,0.6-1.3,0.8c0,0.2,0,0.4,0,0.6c0.4,0.3,0.9,0.4,1.2,0.8c10.2,10.2,20.4,20.4,30.7,30.6c1.4,1.4,2.4,2.9,2.9,4.8
				C151.7,137,151.8,137.4,151.9,137.8z"/>
		</g>
	</g>
</g>
</svg>
