<?xml version="1.0" encoding="utf-8"?>
<!-- Generator: Adobe Illustrator 23.0.4, SVG Export Plug-In . SVG Version: 6.00 Build 0)  -->
<svg version="1.1" id="Layer_1" xmlns="http://www.w3.org/2000/svg" xmlns:xlink="http://www.w3.org/1999/xlink" x="0px" y="0px"
	 viewBox="0 0 335.1 317" style="enable-background:new 0 0 335.1 317;" xml:space="preserve">
<style type="text/css">
	.st0{fill:#FFFFFF;stroke:#FFFFFF;stroke-width:5;stroke-miterlimit:10;}
</style>
<g>
	<g>
		<path class="st0" d="M306.8,294.5H293V82c0-9.9-7.6-18-17-18h-31c-9.3,0-17,8.1-17,18v212.5h-35.2V178.2c0-9.9-7.6-18-17-18H145
			c-9.3,0-17,8.1-17,18v116.2H92.8v-60.2c0-9.9-7.6-18-17-18H44.9c-9.3,0-17,8.1-17,18v60.2H13.4c-3.5,0-6.3,3-6.3,6.7
			s2.8,6.7,6.3,6.7h293.4c3.5,0,6.3-3,6.3-6.7C313.1,297.5,310.2,294.5,306.8,294.5z M80.2,294.5H40.6v-60.2c0-2.5,2-4.6,4.4-4.6
			h30.9c2.4,0,4.4,2.1,4.4,4.6v60.2H80.2z M180.3,294.5h-39.6V178.2c0-2.5,2-4.6,4.4-4.6H176c2.4,0,4.4,2.1,4.4,4.6L180.3,294.5
			L180.3,294.5z M280.3,294.5h-39.6V82c0-2.5,2-4.6,4.4-4.6H276c2.4,0,4.4,2.1,4.4,4.6v212.5H280.3z"/>
	</g>
</g>
</svg>
