<svg version="1.1" id="Layer_1" xmlns="http://www.w3.org/2000/svg" xmlns:xlink="http://www.w3.org/1999/xlink" x="0px" y="0px"
	 width="100%" viewBox="0 0 512 512" enable-background="new 0 0 512 512" xml:space="preserve">
<path fill="#FEFEFE" opacity="1.000000" stroke="none" 
	d="
M513.000000,158.000000 
	C513.000000,276.266937 513.000000,394.533905 513.000000,513.000000 
	C374.644104,513.000000 236.288086,513.000000 97.683762,512.662476 
	C106.143166,509.965912 115.015945,508.084137 123.522461,505.143036 
	C138.773956,499.869904 149.292114,487.938263 160.309967,477.054108 
	C212.159897,425.833160 263.797913,374.397614 315.477570,323.004486 
	C351.382080,287.299103 387.232635,251.539459 423.101288,215.797989 
	C424.373199,214.530624 425.580719,213.198669 426.859283,211.853683 
	C425.935364,211.139191 425.261871,210.696228 424.679016,210.155579 
	C418.782990,204.686752 418.746796,204.642456 412.901093,210.565216 
	C399.600372,224.041168 386.343262,237.560165 372.597107,250.998077 
	C359.518066,250.957397 346.909973,250.945068 334.302917,251.051697 
	C332.870972,251.063812 331.444702,251.744431 329.802734,252.363312 
	C275.022156,307.161865 220.465897,361.723480 165.867905,416.243347 
	C160.929626,421.174530 156.168335,426.052490 148.598358,427.585510 
	C142.331879,428.854584 131.832657,427.449738 127.612900,423.116974 
	C117.046722,412.267853 106.587593,401.306030 95.762138,390.720123 
	C83.608482,378.835449 85.418808,365.355530 94.566040,355.274597 
	C95.460945,354.288391 96.442451,353.380646 97.385185,352.437958 
	C128.967529,320.856354 160.552490,289.277313 192.124496,257.685394 
	C193.528778,256.280243 194.815582,254.757721 196.506989,253.141098 
	C198.907227,249.317749 195.327469,251.114761 194.691879,251.099854 
	C182.366837,250.811142 170.037933,250.688751 157.833939,250.227478 
	C162.371979,245.715195 166.867859,241.589890 171.186966,237.287170 
	C210.486008,198.137497 249.758469,158.961151 289.027710,119.781601 
	C296.422913,112.403267 303.769287,104.975960 311.446869,97.261078 
	C310.353027,96.345329 309.399933,95.654068 308.571564,94.836449 
	C303.574127,89.903870 303.525452,89.837334 298.603790,94.878830 
	C289.905640,103.788742 281.470398,112.962639 272.599640,121.695419 
	C244.717224,149.144135 216.504959,176.259552 188.757187,203.842819 
	C159.607803,232.819427 130.898209,262.237946 101.894470,291.361786 
	C88.025383,305.288330 74.106232,319.175171 59.871204,332.724304 
	C45.217278,346.672180 30.161900,360.097504 17.685814,376.260498 
	C9.921722,386.319031 6.316935,397.803131 2.257097,409.313629 
	C1.720717,410.834381 1.413410,412.435883 1.000003,414.000000 
	C1.000000,276.388855 1.000000,138.777695 1.000000,1.083266 
	C171.666656,1.083266 342.333313,1.083266 513.000000,1.083266 
	C513.000000,49.440521 513.000000,97.754227 512.674438,146.393005 
	C511.055389,144.309937 510.179626,141.518814 508.389465,139.565826 
	C503.139099,133.837769 497.559174,128.408752 492.048004,122.923210 
	C454.150787,85.202217 416.268738,47.465816 378.265411,9.851943 
	C375.575226,7.189358 372.222137,4.376942 368.716064,3.518977 
	C359.828644,1.344169 352.053192,4.482841 345.626038,10.890451 
	C333.711700,22.768602 321.674103,34.529209 310.008087,46.647068 
	C305.850769,50.965416 302.304474,56.094200 302.045258,62.493412 
	C301.762207,69.480278 304.625702,75.226173 309.555664,80.121628 
	C351.512756,121.785194 393.428772,163.490189 435.374725,205.165024 
	C446.153168,215.873795 458.344238,216.054031 468.898376,204.884445 
	C483.633179,189.290359 500.963013,176.125961 513.000000,158.000000 
M259.491943,204.991959 
	C207.537735,256.928406 155.582443,308.863739 103.630531,360.802490 
	C95.609200,368.821777 95.552338,376.019348 103.484421,383.983582 
	C112.535568,393.071503 121.617363,402.128906 130.695526,411.189880 
	C139.431534,419.909271 145.669510,419.858917 154.285477,411.238861 
	C216.344742,349.149963 278.337097,286.993530 340.636719,225.146652 
	C347.285675,218.546021 346.836792,210.644485 340.685699,204.750580 
	C329.630005,194.157181 318.936768,183.185730 308.075653,172.388733 
	C307.532684,171.848969 306.896729,171.302933 306.198486,171.034546 
	C299.403015,168.422485 293.880676,170.430878 288.933716,175.484009 
	C279.378906,185.243820 269.649231,194.832443 259.491943,204.991959 
z"/>
<path fill="#1CBEBE" opacity="1.000000" stroke="none" 
	d="
M196.157120,253.289871 
	C194.815582,254.757721 193.528778,256.280243 192.124496,257.685394 
	C160.552490,289.277313 128.967529,320.856354 97.385185,352.437958 
	C96.442451,353.380646 95.460945,354.288391 94.566040,355.274597 
	C85.418808,365.355530 83.608482,378.835449 95.762138,390.720123 
	C106.587593,401.306030 117.046722,412.267853 127.612900,423.116974 
	C131.832657,427.449738 142.331879,428.854584 148.598358,427.585510 
	C156.168335,426.052490 160.929626,421.174530 165.867905,416.243347 
	C220.465897,361.723480 275.022156,307.161865 330.267303,252.315674 
	C343.477081,252.012436 356.009491,252.036530 368.541168,251.956497 
	C370.052124,251.946838 371.559418,251.373672 373.068420,251.061676 
	C386.343262,237.560165 399.600372,224.041168 412.901093,210.565216 
	C418.746796,204.642456 418.782990,204.686752 424.679016,210.155579 
	C425.261871,210.696228 425.935364,211.139191 426.859283,211.853683 
	C425.580719,213.198669 424.373199,214.530624 423.101288,215.797989 
	C387.232635,251.539459 351.382080,287.299103 315.477570,323.004486 
	C263.797913,374.397614 212.159897,425.833160 160.309967,477.054108 
	C149.292114,487.938263 138.773956,499.869904 123.522461,505.143036 
	C115.015945,508.084137 106.143166,509.965912 97.217720,512.662476 
	C95.933327,513.000000 94.866661,513.000000 93.153976,512.673279 
	C89.338646,512.564331 86.169327,512.782166 83.000000,513.000000 
	C81.285645,513.000000 79.571281,513.000000 77.250381,512.641602 
	C67.537697,509.527374 57.922867,507.841797 49.426311,503.803467 
	C28.736429,493.969666 13.946744,478.226501 6.549530,456.148438 
	C4.640936,450.451965 2.846743,444.717194 1.000001,439.000000 
	C1.000000,437.933319 1.000000,436.866669 1.297376,435.223267 
	C1.677881,433.749725 1.761011,432.852905 1.896325,431.586182 
	C1.632338,430.477539 1.316166,429.738770 0.999997,429.000000 
	C1.000000,427.933319 1.000000,426.866669 1.388059,425.370422 
	C1.517411,423.293915 1.258704,421.646942 0.999998,420.000000 
	C1.000000,418.285645 1.000000,416.571289 1.000003,414.428467 
	C1.413410,412.435883 1.720717,410.834381 2.257097,409.313629 
	C6.316935,397.803131 9.921722,386.319031 17.685814,376.260498 
	C30.161900,360.097504 45.217278,346.672180 59.871204,332.724304 
	C74.106232,319.175171 88.025383,305.288330 101.894470,291.361786 
	C130.898209,262.237946 159.607803,232.819427 188.757187,203.842819 
	C216.504959,176.259552 244.717224,149.144135 272.599640,121.695419 
	C281.470398,112.962639 289.905640,103.788742 298.603790,94.878830 
	C303.525452,89.837334 303.574127,89.903870 308.571564,94.836449 
	C309.399933,95.654068 310.353027,96.345329 311.446869,97.261078 
	C303.769287,104.975960 296.422913,112.403267 289.027710,119.781601 
	C249.758469,158.961151 210.486008,198.137497 171.186966,237.287170 
	C166.867859,241.589890 162.371979,245.715195 157.492706,250.382248 
	C156.857071,251.058502 156.686783,251.275284 156.516479,251.492065 
	C156.753677,251.656647 156.990540,251.964645 157.228134,251.965225 
	C168.560364,251.993271 179.893173,251.942886 191.224350,252.056564 
	C192.872559,252.073090 194.513062,252.859634 196.157120,253.289871 
z"/>
<path fill="#1CBEBE" opacity="1.000000" stroke="none" 
	d="
M513.000000,157.600006 
	C500.963013,176.125961 483.633179,189.290359 468.898376,204.884445 
	C458.344238,216.054031 446.153168,215.873795 435.374725,205.165024 
	C393.428772,163.490189 351.512756,121.785194 309.555664,80.121628 
	C304.625702,75.226173 301.762207,69.480278 302.045258,62.493412 
	C302.304474,56.094200 305.850769,50.965416 310.008087,46.647068 
	C321.674103,34.529209 333.711700,22.768602 345.626038,10.890451 
	C352.053192,4.482841 359.828644,1.344169 368.716064,3.518977 
	C372.222137,4.376942 375.575226,7.189358 378.265411,9.851943 
	C416.268738,47.465816 454.150787,85.202217 492.048004,122.923210 
	C497.559174,128.408752 503.139099,133.837769 508.389465,139.565826 
	C510.179626,141.518814 511.055389,144.309937 512.674438,146.859039 
	C513.000000,147.750000 513.000000,148.500000 512.718994,149.713257 
	C512.625305,150.451004 512.812683,150.725510 513.000000,151.000000 
	C513.000000,151.444443 513.000000,151.888901 512.722717,152.557068 
	C512.630249,153.187195 512.815125,153.593597 513.000000,154.000000 
	C513.000000,155.066666 513.000000,156.133347 513.000000,157.600006 
M447.099518,119.659096 
	C444.467682,116.435181 442.089417,117.432556 439.565125,119.926933 
	C432.387878,127.019135 425.110992,134.010529 417.926788,141.095779 
	C417.474792,141.541504 417.104279,142.640884 417.340790,143.113129 
	C418.278259,144.984802 419.134857,147.759796 420.656738,148.257553 
	C422.559113,148.879776 425.747437,148.325638 427.228546,146.996017 
	C433.142944,141.686554 438.496490,135.758194 444.289551,130.305328 
	C447.349854,127.424728 448.815460,124.342186 447.099518,119.659096 
M373.014313,97.957130 
	C380.617218,90.537201 388.386810,83.274078 395.659088,75.543106 
	C396.872131,74.253540 396.814972,70.386528 395.769745,68.669083 
	C394.068298,65.873398 391.198792,64.975899 388.296722,68.193748 
	C385.069580,71.772110 381.382446,74.932388 378.095551,78.460945 
	C374.529205,82.289528 370.851166,86.092285 367.857086,90.352715 
	C365.102081,94.272972 367.099091,97.324158 373.014313,97.957130 
M465.933014,144.404388 
	C459.144928,151.248184 452.329102,158.064926 445.603088,164.969193 
	C444.739838,165.855362 443.676697,167.331238 443.872101,168.298401 
	C444.260254,170.219940 445.273956,173.367752 446.364471,173.514359 
	C448.664703,173.823563 451.854431,173.260513 453.490845,171.759689 
	C460.219086,165.588974 466.581543,159.009125 472.909637,152.417603 
	C475.464600,149.756256 474.447937,145.210968 471.101776,143.988037 
	C469.594727,143.437241 467.759735,143.783798 465.933014,144.404388 
M350.959625,69.555168 
	C357.064301,63.444660 363.223083,57.386921 369.252716,51.203236 
	C372.700378,47.667484 372.275146,42.870247 368.577698,42.058041 
	C366.855713,41.679771 365.057037,41.650566 364.278107,41.567799 
	C357.470795,48.254936 351.074951,54.485363 344.739960,60.777046 
	C339.337646,66.142456 339.641876,68.898514 346.048279,72.970314 
	C347.481720,72.014229 348.956909,71.030319 350.959625,69.555168 
M413.231903,94.285164 
	C407.839050,99.675652 402.166595,104.822517 397.169006,110.557472 
	C394.596191,113.509918 393.225220,117.509705 391.501312,120.685974 
	C396.768433,124.417252 399.981049,123.169891 403.229706,119.592041 
	C408.349182,113.953720 413.769501,108.573372 419.280304,103.311989 
	C422.047211,100.670372 423.738983,97.484314 421.452209,94.535011 
	C420.421844,93.206131 416.533417,94.093338 413.231903,94.285164 
z"/>
<path fill="#FEFEFE" opacity="1.000000" stroke="none" 
	d="
M1.000001,439.468658 
	C2.846743,444.717194 4.640936,450.451965 6.549530,456.148438 
	C13.946744,478.226501 28.736429,493.969666 49.426311,503.803467 
	C57.922867,507.841797 67.537697,509.527374 76.821915,512.641602 
	C51.740768,513.000000 26.481539,513.000000 1.000000,513.000000 
	C1.000000,488.646210 1.000000,464.291779 1.000001,439.468658 
z"/>
<path fill="#525252" opacity="1.000000" stroke="none" 
	d="
M83.454109,513.000000 
	C86.169327,512.782166 89.338646,512.564331 92.753983,512.673279 
	C89.969406,513.000000 86.938812,513.000000 83.454109,513.000000 
z"/>
<path fill="#131313" opacity="1.000000" stroke="none" 
	d="
M0.999998,420.416656 
	C1.258704,421.646942 1.517411,423.293915 1.388059,424.970428 
	C1.000000,423.611115 1.000000,422.222198 0.999998,420.416656 
z"/>
<path fill="#131313" opacity="1.000000" stroke="none" 
	d="
M0.999997,429.375000 
	C1.316166,429.738770 1.632338,430.477539 1.685927,431.608643 
	C1.423343,432.000977 1.000000,432.000000 1.000000,432.000000 
	C1.000000,431.250000 1.000000,430.500000 0.999997,429.375000 
z"/>
<path fill="#484848" opacity="1.000000" stroke="none" 
	d="
M1.000000,432.375000 
	C1.000000,432.000000 1.423343,432.000977 1.633742,431.978516 
	C1.761011,432.852905 1.677881,433.749725 1.297376,434.823303 
	C1.000000,434.250000 1.000000,433.500000 1.000000,432.375000 
z"/>
<path fill="#0D0D0D" opacity="1.000000" stroke="none" 
	d="
M513.000000,150.750000 
	C512.812683,150.725510 512.625305,150.451004 512.718994,150.088257 
	C513.000000,150.000000 513.000000,150.500000 513.000000,150.750000 
z"/>
<path fill="#0D0D0D" opacity="1.000000" stroke="none" 
	d="
M513.000000,153.750000 
	C512.815125,153.593597 512.630249,153.187195 512.722717,152.890396 
	C513.000000,153.000000 513.000000,153.500000 513.000000,153.750000 
z"/>
<path fill="#ED1C24" opacity="1.000000" stroke="none" 
	d="
M259.742004,204.742004 
	C269.649231,194.832443 279.378906,185.243820 288.933716,175.484009 
	C293.880676,170.430878 299.403015,168.422485 306.198486,171.034546 
	C306.896729,171.302933 307.532684,171.848969 308.075653,172.388733 
	C318.936768,183.185730 329.630005,194.157181 340.685699,204.750580 
	C346.836792,210.644485 347.285675,218.546021 340.636719,225.146652 
	C278.337097,286.993530 216.344742,349.149963 154.285477,411.238861 
	C145.669510,419.858917 139.431534,419.909271 130.695526,411.189880 
	C121.617363,402.128906 112.535568,393.071503 103.484421,383.983582 
	C95.552338,376.019348 95.609200,368.821777 103.630531,360.802490 
	C155.582443,308.863739 207.537735,256.928406 259.742004,204.742004 
z"/>
<path fill="#333333" opacity="1.000000" stroke="none" 
	d="
M196.506989,253.141098 
	C194.513062,252.859634 192.872559,252.073090 191.224350,252.056564 
	C179.893173,251.942886 168.560364,251.993271 157.228134,251.965225 
	C156.990540,251.964645 156.753677,251.656647 156.516479,251.492065 
	C156.686783,251.275284 156.857071,251.058502 157.368591,250.686951 
	C170.037933,250.688751 182.366837,250.811142 194.691879,251.099854 
	C195.327469,251.114761 198.907227,249.317749 196.506989,253.141098 
z"/>
<path fill="#323232" opacity="1.000000" stroke="none" 
	d="
M372.597107,250.998077 
	C371.559418,251.373672 370.052124,251.946838 368.541168,251.956497 
	C356.009491,252.036530 343.477081,252.012436 330.480347,252.067444 
	C331.444702,251.744431 332.870972,251.063812 334.302917,251.051697 
	C346.909973,250.945068 359.518066,250.957397 372.597107,250.998077 
z"/>
<path fill="#010101" opacity="1.000000" stroke="none" 
	d="
M447.390015,119.936646 
	C448.815460,124.342186 447.349854,127.424728 444.289551,130.305328 
	C438.496490,135.758194 433.142944,141.686554 427.228546,146.996017 
	C425.747437,148.325638 422.559113,148.879776 420.656738,148.257553 
	C419.134857,147.759796 418.278259,144.984802 417.340790,143.113129 
	C417.104279,142.640884 417.474792,141.541504 417.926788,141.095779 
	C425.110992,134.010529 432.387878,127.019135 439.565125,119.926933 
	C442.089417,117.432556 444.467682,116.435181 447.390015,119.936646 
z"/>
<path fill="#000000" opacity="1.000000" stroke="none" 
	d="
M372.631744,97.975517 
	C367.099091,97.324158 365.102081,94.272972 367.857086,90.352715 
	C370.851166,86.092285 374.529205,82.289528 378.095551,78.460945 
	C381.382446,74.932388 385.069580,71.772110 388.296722,68.193748 
	C391.198792,64.975899 394.068298,65.873398 395.769745,68.669083 
	C396.814972,70.386528 396.872131,74.253540 395.659088,75.543106 
	C388.386810,83.274078 380.617218,90.537201 372.631744,97.975517 
z"/>
<path fill="#010101" opacity="1.000000" stroke="none" 
	d="
M466.003296,144.063797 
	C467.759735,143.783798 469.594727,143.437241 471.101776,143.988037 
	C474.447937,145.210968 475.464600,149.756256 472.909637,152.417603 
	C466.581543,159.009125 460.219086,165.588974 453.490845,171.759689 
	C451.854431,173.260513 448.664703,173.823563 446.364471,173.514359 
	C445.273956,173.367752 444.260254,170.219940 443.872101,168.298401 
	C443.676697,167.331238 444.739838,165.855362 445.603088,164.969193 
	C452.329102,158.064926 459.144928,151.248184 466.003296,144.063797 
z"/>
<path fill="#000000" opacity="1.000000" stroke="none" 
	d="
M350.695862,69.800781 
	C348.956909,71.030319 347.481720,72.014229 346.048279,72.970314 
	C339.641876,68.898514 339.337646,66.142456 344.739960,60.777046 
	C351.074951,54.485363 357.470795,48.254936 364.278107,41.567799 
	C365.057037,41.650566 366.855713,41.679771 368.577698,42.058041 
	C372.275146,42.870247 372.700378,47.667484 369.252716,51.203236 
	C363.223083,57.386921 357.064301,63.444660 350.695862,69.800781 
z"/>
<path fill="#000000" opacity="1.000000" stroke="none" 
	d="
M413.586823,94.130112 
	C416.533417,94.093338 420.421844,93.206131 421.452209,94.535011 
	C423.738983,97.484314 422.047211,100.670372 419.280304,103.311989 
	C413.769501,108.573372 408.349182,113.953720 403.229706,119.592041 
	C399.981049,123.169891 396.768433,124.417252 391.501312,120.685974 
	C393.225220,117.509705 394.596191,113.509918 397.169006,110.557472 
	C402.166595,104.822517 407.839050,99.675652 413.586823,94.130112 
z"/>
</svg>