<?xml version="1.0" encoding="utf-8"?>
<!-- Generator: Adobe Illustrator 23.0.4, SVG Export Plug-In . SVG Version: 6.00 Build 0)  -->
<svg version="1.1" id="Capa_1" xmlns="http://www.w3.org/2000/svg" xmlns:xlink="http://www.w3.org/1999/xlink" x="0px" y="0px"
	 viewBox="0 0 200 200" style="enable-background:new 0 0 200 200;" xml:space="preserve">
<style type="text/css">
	.st0{fill:#3366CC;}
	.st1{fill:#1CBEBE;}
	.st2{fill:url(#SVGID_1_);}
	.st3{fill:url(#SVGID_2_);}
</style>
<g id="Capa_3">
</g>
<g id="Icons">
	<g id="XMLID_1_">
		<g>
			<path class="st0" d="M167.6,16.5c2,2.2,1.9,5.6-0.2,7.6l-7.2,6.7l-18.9-20.2l7.2-6.7c2.2-2,5.6-1.9,7.6,0.2L167.6,16.5z
				 M163.4,20.1l-11.2-12l-7,6.6l11.2,12L163.4,20.1z"/>
			<path class="st0" d="M164.2,35c1.1,1.1,1,2.9-0.1,4c0,0,0,0,0,0l-23.9,22.4c-1-1.6-2.2-3.1-3.6-4.3l21.7-20.3l-4-4.2
				c0.5,0.6,1.3,0.9,2,0.9c0.7,0,1.4-0.3,1.9-0.8l2-1.9L164.2,35z"/>
			
				<rect x="149.5" y="9.2" transform="matrix(0.7299 -0.6836 0.6836 0.7299 29.7711 110.1697)" class="st1" width="9.6" height="16.4"/>
			<path class="st0" d="M160.2,30.8l-2,1.9c-0.5,0.5-1.2,0.8-1.9,0.8c-0.8,0-1.5-0.3-2-0.9l-15.1-16.1c-0.1-0.1-0.1-0.1-0.2-0.2
				c-0.9-1.1-0.8-2.8,0.3-3.8l2-1.9L160.2,30.8z"/>
			<linearGradient id="SVGID_1_" gradientUnits="userSpaceOnUse" x1="70.96" y1="54.615" x2="158.2" y2="54.615">
				<stop  offset="0" style="stop-color:#FFFFFF"/>
				<stop  offset="0.2301" style="stop-color:#FCFEFE"/>
				<stop  offset="0.3713" style="stop-color:#F4FCFC"/>
				<stop  offset="0.4886" style="stop-color:#E5F8F8"/>
				<stop  offset="0.5927" style="stop-color:#D1F2F2"/>
				<stop  offset="0.6882" style="stop-color:#B6EAEA"/>
				<stop  offset="0.7773" style="stop-color:#96E1E1"/>
				<stop  offset="0.8615" style="stop-color:#6FD6D6"/>
				<stop  offset="0.9397" style="stop-color:#43C9C9"/>
				<stop  offset="1" style="stop-color:#1CBEBE"/>
			</linearGradient>
			<path class="st2" d="M154.2,32.5l4,4.2l-21.7,20.3c-3.3-2.9-7.6-4.7-12.3-4.7c-10.3,0-18.6,8.3-18.6,18.6c0,4.3,1.5,8.2,3.9,11.4
				L94,97l-3.8-4c-0.1-0.1-0.1-0.1-0.2-0.2l-15-16.1l-4-4.3l64.2-60.2l3.8,4.1c0.1,0.1,0.1,0.1,0.2,0.2L154.2,32.5z"/>
			<linearGradient id="SVGID_2_" gradientUnits="userSpaceOnUse" x1="56.8" y1="125.325" x2="155.7468" y2="125.325">
				<stop  offset="0" style="stop-color:#FFFFFF"/>
				<stop  offset="0.2301" style="stop-color:#FCFEFE"/>
				<stop  offset="0.3713" style="stop-color:#F4FCFC"/>
				<stop  offset="0.4886" style="stop-color:#E5F8F8"/>
				<stop  offset="0.5927" style="stop-color:#D1F2F2"/>
				<stop  offset="0.6882" style="stop-color:#B6EAEA"/>
				<stop  offset="0.7773" style="stop-color:#96E1E1"/>
				<stop  offset="0.8615" style="stop-color:#6FD6D6"/>
				<stop  offset="0.9397" style="stop-color:#43C9C9"/>
				<stop  offset="1" style="stop-color:#1CBEBE"/>
			</linearGradient>
			<path class="st3" d="M146.5,116.1c0-11.1-3.9-21.8-11.1-30.2c0.7-0.5,1.4-1.1,2-1.7c1.6-1.6,2.9-3.5,3.9-5.7
				c1.7,1.9,3.2,3.8,4.7,5.9c17.5,25.5,11,60.4-14.5,77.9c-4.3,3-8.9,5.2-13.6,6.9h0c-0.3,0-0.5,0.1-0.8,0.2
				c-5.6,1.8-11.4,2.7-17.2,2.7c-5.9,0-11.8-0.9-17.4-2.8c0,0,0,0,0,0c-0.2-0.1-0.4-0.2-0.6-0.2c-9.4-3.2-18.1-8.9-24.9-17h13.1
				c8.4,6.9,18.9,10.7,29.7,10.7C125.5,162.9,146.5,141.9,146.5,116.1z"/>
			<path class="st0" d="M135.4,85.9c7.2,8.4,11.2,19.1,11.1,30.2c0,25.8-21,46.8-46.8,46.8c-10.9,0-21.4-3.8-29.7-10.7h9.8
				c16.7,9.3,38.1,6,51.1-9c13.7-15.8,13.4-39.3-0.6-54.7C132.1,87.9,133.9,87,135.4,85.9z"/>
			<path class="st0" d="M131.4,162.3c25.5-17.5,32-52.4,14.5-77.9c-1.4-2.1-3-4.1-4.7-5.9c0.9-2,1.4-4.2,1.6-6.5
				c12.3,12,18.6,28,18.6,44.1c0,15-5.5,30.1-16.6,42c-6.1,6.6-13.5,11.6-21.7,15l-2.8-3.1c-0.7-0.7-1.7-1-2.6-0.9
				C122.5,167.6,127.1,165.3,131.4,162.3z"/>
			<path class="st0" d="M142.8,71c0,0.3,0,0.7,0,1c-0.3-0.3-0.7-0.7-1-1c-1.1-1.1-2.9-1-3.9,0.1c-0.3,0.4-0.6,0.8-0.7,1.2
				c0.1-0.5,0.1-0.9,0.1-1.4c0-3-1-5.8-2.8-8c1.1,1.1,2.8,1.1,3.9,0.1l1.8-1.7C141.8,64.2,142.8,67.5,142.8,71z"/>
			<path class="st0" d="M141.8,71.1c0.4,0.3,0.7,0.6,1,1c-0.1,2.3-0.7,4.5-1.6,6.5c-1.1-1.2-2.1-2.3-3.3-3.3
				c-0.6-0.6-0.9-1.3-0.9-2.1c0,0,0,0,0,0c0-0.2,0.1-0.5,0.1-0.7c0.1-0.4,0.3-0.9,0.7-1.2C138.9,70.1,140.6,70,141.8,71.1z"/>
			<path class="st0" d="M141.3,10.6l-2,1.9c-1.1,1-1.2,2.6-0.3,3.8l-3.8-4.1L71,72.4l4,4.3c-1.1-1.1-2.8-1.2-4-0.1l-2,1.9l-4-4.3
				c-1-1.1-1-2.9,0.1-3.9l68.3-64c1.1-1.1,2.9-1,3.9,0.1L141.3,10.6z"/>
			<path class="st0" d="M140.1,61.4l-1.8,1.7c-1.1,1-2.8,1-3.9-0.1c-0.1-0.2-0.2-0.3-0.4-0.5c-0.7-1.1-0.6-2.6,0.4-3.6l2-1.9
				C137.9,58.3,139.1,59.8,140.1,61.4z"/>
			<path class="st0" d="M137.9,75.2c1.1,1.1,2.2,2.2,3.3,3.3c-0.9,2.1-2.2,4-3.9,5.7c-0.6,0.6-1.3,1.2-2,1.7
				c-0.8-0.9-1.6-1.8-2.4-2.6c0,0,0,0-0.1-0.1c-0.7-0.7-1.8-0.9-2.7-0.7c3.5-1.9,6.1-5.3,6.8-9.4C137.1,73.8,137.4,74.6,137.9,75.2z
				"/>
			<path class="st1" d="M137.2,71c0,0.5,0,0.9-0.1,1.4c-0.1,0.2-0.1,0.4-0.1,0.7c0,0,0,0,0,0c-0.7,4.1-3.2,7.6-6.8,9.4
				c-0.3,0.1-0.7,0.2-1,0.5c-1.6,0.7-3.3,1-5.1,1c-3.3,0-6.3-1.2-8.6-3.2c0-0.1-0.1-0.1-0.1-0.1c-0.1-0.1-0.2-0.2-0.4-0.3
				c-2.4-2.3-3.9-5.6-3.9-9.3c0-7.2,5.8-13,13-13c3.6,0,6.8,1.5,9.2,3.8c0.2,0.2,0.5,0.5,0.7,0.7c0.1,0.1,0.2,0.3,0.3,0.4
				c0,0,0,0.1,0.1,0.1C136.2,65.2,137.2,68,137.2,71z M133.2,71c0-5-4-9-9-9c-5,0-9,4-9,9c0,5,4,9,9,9C129.2,80,133.2,76,133.2,71z"
				/>
			<path class="st0" d="M137.1,72.4c0,0.2-0.1,0.4-0.1,0.7C137.1,72.8,137.1,72.6,137.1,72.4z"/>
			<path class="st0" d="M136.5,57.1l-2,1.9c-1,0.9-1.2,2.5-0.4,3.6c-0.2-0.2-0.4-0.5-0.7-0.7c-2.4-2.3-5.6-3.8-9.2-3.8
				c-7.2,0-13,5.8-13,13c0,3.6,1.5,6.9,3.9,9.3c-1.1-0.8-2.6-0.7-3.6,0.2l-2,1.9c-2.4-3.2-3.9-7.1-3.9-11.4
				c0-10.3,8.3-18.6,18.6-18.6C128.9,52.4,133.2,54.2,136.5,57.1z"/>
			<path class="st0" d="M134.5,63C134.4,63,134.4,63,134.5,63c-0.2-0.2-0.3-0.3-0.4-0.5C134.2,62.7,134.3,62.9,134.5,63z"/>
			<path class="st0" d="M133.3,184.2c3.1,3.4,2.9,8.7-0.5,11.8c-1.5,1.4-3.6,2.2-5.7,2.2h-55c-4.6,0-8.3-3.8-8.3-8.4
				c0-2.1,0.8-4.1,2.2-5.6l10.2-11.1c1.9,0.8,3.8,1.4,5.7,2L70.2,188c-1,1.1-0.9,2.9,0.2,3.9c0.5,0.5,1.2,0.7,1.8,0.7h55
				c1.5,0,2.8-1.2,2.8-2.8c0-0.7-0.3-1.4-0.7-1.9l-11.8-12.9c1.9-0.6,3.9-1.3,5.7-2L133.3,184.2z"/>
			<path class="st0" d="M133,83.3c0.8,0.8,1.6,1.7,2.4,2.6c-1.5,1.2-3.2,2.1-5.1,2.7c-0.4-0.5-0.8-0.9-1.3-1.3
				c-1.1-1.1-1.1-2.8-0.1-4c0.1-0.1,0.2-0.2,0.3-0.3c0.3-0.1,0.6-0.3,1-0.5C131.2,82.3,132.2,82.5,133,83.3
				C133,83.2,133,83.2,133,83.3z"/>
			<path class="st0" d="M124.2,62c5,0,9,4,9,9c0,5-4,9-9,9c-5,0-9-4-9-9C115.2,66,119.3,62,124.2,62z M127.7,71
				c0-1.9-1.5-3.4-3.4-3.4c-1.9,0-3.4,1.5-3.4,3.4c0,1.9,1.5,3.4,3.4,3.4C126.1,74.4,127.7,72.9,127.7,71z"/>
			<path class="st0" d="M130.3,82.5c-0.3,0.2-0.6,0.3-1,0.5C129.6,82.8,129.9,82.6,130.3,82.5z"/>
			<path class="st0" d="M129,87.2c0.4,0.4,0.9,0.9,1.3,1.3c-1.9,0.7-3.9,1-6.1,1c-3.9,0-7.6-1.2-10.6-3.3l1.8-1.7
				c1.1-1,1.2-2.7,0.2-3.8c2.3,2,5.3,3.2,8.6,3.2c1.8,0,3.5-0.4,5.1-1c-0.1,0.1-0.2,0.2-0.3,0.3C127.9,84.4,127.9,86.1,129,87.2z"/>
			<path class="st1" d="M129.2,188c0.5,0.5,0.7,1.2,0.7,1.9c0,1.5-1.2,2.8-2.8,2.8h-55c-0.7,0-1.3-0.3-1.8-0.7
				c-1.1-1-1.2-2.8-0.2-3.9L82,175.1c5.7,1.7,11.6,2.6,17.7,2.6c6,0,12-0.9,17.7-2.6L129.2,188z"/>
			<path class="st0" d="M120.3,170.1l2.8,3.1c-1.9,0.8-3.8,1.4-5.7,2l-1.2-1.3c-1-1.1-1-2.9,0.2-4c0.2-0.2,0.4-0.3,0.6-0.4
				c0.3-0.1,0.5-0.2,0.8-0.2h0C118.7,169,119.7,169.3,120.3,170.1z"/>
			<path class="st0" d="M116.2,173.8l1.2,1.3c-5.7,1.7-11.7,2.6-17.7,2.6c-6.1,0-12-0.9-17.7-2.6l1.2-1.3c1-1.1,1-2.9-0.2-4
				c-0.2-0.2-0.4-0.3-0.7-0.4c5.6,1.8,11.5,2.8,17.4,2.8c5.8,0,11.6-0.9,17.2-2.7c-0.2,0.1-0.4,0.3-0.6,0.4
				C115.2,170.9,115.2,172.7,116.2,173.8z"/>
			<path class="st0" d="M117,169.4c0.2-0.1,0.5-0.2,0.8-0.2C117.5,169.3,117.2,169.4,117,169.4z"/>
			<path class="st0" d="M115.7,80.8c0.9,1.1,0.8,2.8-0.2,3.8l-1.8,1.7c-1.5-1.1-2.9-2.4-4.1-3.9l2-1.9c1-0.9,2.5-1,3.6-0.2
				C115.3,80.5,115.5,80.6,115.7,80.8z"/>
			<path class="st0" d="M115.5,80.6c0,0,0.1,0.1,0.1,0.1c-0.2-0.2-0.3-0.3-0.5-0.5C115.3,80.4,115.4,80.5,115.5,80.6z"/>
			<path class="st0" d="M113.6,86.3L95.8,103c-0.5,0.5-1.2,0.7-1.9,0.7h-0.1c-0.8,0-1.5-0.3-2-0.9l-4-4.2l2-1.9
				c1.1-1,1.2-2.6,0.3-3.8l3.8,4l15.6-14.6C110.7,83.9,112.1,85.2,113.6,86.3z"/>
			<path class="st0" d="M90.2,93c0.9,1.1,0.8,2.8-0.3,3.8l-2,1.9L84,94.5l0,0l-11.2-12l0,0l-3.8-4.1l2-1.9c1.1-1,2.9-1,4,0.1
				l15,16.1C90.1,92.8,90.1,92.9,90.2,93z"/>
			<path class="st0" d="M84,94.5l3.8,4.1L76.8,109c-1,0.9-2.3,1.4-3.7,1.4h-0.2c-1.4,0-2.8-0.6-3.7-1.7L57.6,96.4
				c-2-2.2-1.9-5.5,0.2-7.6l11.1-10.4l3.8,4.1L61.9,92.8l11.2,12L84,94.5z"/>
			<path class="st0" d="M85.7,137.6V148c0,2.3-1.9,4.2-4.2,4.2h-1.7c-2.4-1.4-4.8-3-7-4.9c-0.5-0.5-1.2-0.7-1.8-0.7v0h9.1v-7.6H36.5
				v7.6h14.7c-0.5,0-1.1,0.2-1.6,0.5c-1.3,0.9-1.6,2.6-0.7,3.9c0.3,0.4,0.6,0.8,0.9,1.2H35.1c-2.3,0-4.2-1.9-4.2-4.2v-10.4
				c0-2.3,1.9-4.2,4.2-4.2h46.4C83.8,133.5,85.7,135.3,85.7,137.6z"/>
			<polygon class="st0" points="72.8,82.5 84,94.5 84,94.5 72.8,82.6 			"/>
			
				<rect x="65.5" y="85.4" transform="matrix(0.7302 -0.6833 0.6833 0.7302 -44.3011 75.102)" class="st1" width="14.9" height="16.4"/>
			<path class="st0" d="M83,169.9c1.1,1.1,1.2,2.8,0.2,4l-1.2,1.3c-1.9-0.6-3.9-1.2-5.7-2l2.8-3.1c0.7-0.8,1.7-1,2.6-0.9
				c0.2,0.1,0.4,0.1,0.6,0.2c0,0,0,0,0,0C82.6,169.5,82.8,169.7,83,169.9z"/>
			<path class="st0" d="M82.3,169.4c-0.2-0.1-0.4-0.1-0.6-0.2C81.9,169.2,82.1,169.3,82.3,169.4z"/>
			<path class="st0" d="M81.7,169.2c-0.9-0.2-1.9,0.1-2.6,0.9l-2.8,3.1c-10.5-4.3-19.7-11.5-26.5-20.9h7.1
				C63.6,160.3,72.2,166,81.7,169.2z"/>
			<polygon class="st1" points="80.1,139.1 80.1,146.6 71,146.6 51.2,146.6 36.5,146.6 36.5,139.1 			"/>
			<path class="st0" d="M79.8,152.2h-9.8c-0.3-0.2-0.5-0.4-0.8-0.7c-1.2-1-1.3-2.8-0.3-3.9c0.6-0.6,1.3-1,2.1-1
				c0.7,0,1.3,0.2,1.8,0.7C75,149.2,77.3,150.9,79.8,152.2z"/>
			<path class="st0" d="M71,146.6L71,146.6c-0.8,0-1.6,0.3-2.1,1c-1,1.2-0.9,2.9,0.3,3.9c0.3,0.2,0.5,0.5,0.8,0.7H56.8
				c-1.2-1.4-2.3-2.9-3.3-4.4c-0.5-0.8-1.4-1.2-2.3-1.2H71z"/>
			<path class="st0" d="M56.8,152.2h-7.1c-0.3-0.4-0.6-0.8-0.9-1.2c-0.9-1.3-0.6-3,0.7-3.9c0.5-0.3,1-0.5,1.6-0.5
				c0.9,0,1.8,0.4,2.3,1.2C54.5,149.4,55.6,150.8,56.8,152.2z"/>
		</g>
		<g>
		</g>
	</g>
</g>
</svg>
