<?xml version="1.0" encoding="utf-8"?>
<!-- Generator: Adobe Illustrator 23.0.4, SVG Export Plug-In . SVG Version: 6.00 Build 0)  -->
<svg version="1.1" id="Capa_1" xmlns="http://www.w3.org/2000/svg" xmlns:xlink="http://www.w3.org/1999/xlink" x="0px" y="0px"
	 viewBox="0 0 130.5 85.8" style="enable-background:new 0 0 130.5 85.8;" xml:space="preserve">
<style type="text/css">
	.st0{fill:#3366CC;}
	.st1{fill:#1CBEBE;}
	.st2{fill:none;}
	.st3{fill:#FFFFFF;}
</style>
<rect x="-1.6" y="-0.2" class="st0" width="133.9" height="88.7"/>
<g>
	<rect x="44.8" y="18.6" class="st1" width="17.3" height="5.2"/>
	<polygon class="st1" points="77.9,26.2 70.7,37.6 68,43.2 68,49.4 70.5,53.3 77.6,56.8 84.5,54.3 87.7,49.4 88.5,44.7 87.7,40.1 
		83.3,33.6 	"/>
	<rect x="47.8" y="33.1" class="st1" width="11.1" height="17"/>
	<rect x="58.6" y="20.2" class="st2" width="1.7" height="1.7"/>
	<rect x="52.6" y="20.2" class="st2" width="1.7" height="1.7"/>
	<rect x="49.6" y="26.1" class="st2" width="7.6" height="4.6"/>
	<rect x="46.7" y="20.2" class="st2" width="1.7" height="1.7"/>
	<polygon class="st2" points="55.5,40.8 49.6,40.8 49.6,42.6 52.6,42.6 52.6,46.8 49.6,46.8 49.6,48.5 57.2,48.5 57.2,34.9 
		49.6,34.9 49.6,36.6 55.5,36.6 	"/>
	<path class="st2" d="M53.7,63.2c2-0.1,3.6-1.8,3.6-3.8v-6.8h-7.6v6.7c0,1.1,0.4,2.1,1.2,2.9C51.6,62.9,52.6,63.3,53.7,63.2z"/>
	<path class="st2" d="M84.3,39.1l-6.2-9.7l-6.2,9.7c-1.3,2.1-2.1,4.5-2.1,7c0,4.5,3.7,8.3,8.3,8.3s8.3-3.7,8.3-8.3
		C86.3,43.6,85.7,41.2,84.3,39.1z M83.2,47.8h-2.9v2.9H76v-2.9H73v-4.2H76v-2.9h4.3v2.9h2.9V47.8L83.2,47.8z"/>
	<path class="st3" d="M86.8,37.5L86.8,37.5l-8.7-13.6l-8.7,13.6c-1.6,2.6-2.5,5.6-2.5,8.6c0,6.2,5,11.2,11.2,11.2s11.2-5,11.2-11.2
		C89.3,43.1,88.4,40.1,86.8,37.5z M78.1,55.6c-5.2,0-9.5-4.3-9.5-9.5c0-2.7,0.8-5.4,2.2-7.7l7.2-11.4l7.2,11.4
		c1.5,2.3,2.2,5,2.2,7.7C87.6,51.4,83.3,55.6,78.1,55.6z"/>
	<polygon class="st3" points="79,41.9 77.2,41.9 77.2,44.8 74.3,44.8 74.3,46.5 77.2,46.5 77.2,49.5 79,49.5 79,46.5 82,46.5 
		82,44.8 79,44.8 	"/>
	<path class="st3" d="M46.7,59.4c0,3.5,2.6,6.4,6,6.8c2,0.2,3.9-0.4,5.3-1.7c1.4-1.3,2.3-3.1,2.3-5V24.8h2.9v-7.6H43.8v7.6h2.9
		L46.7,59.4L46.7,59.4z M58.5,59.4c0,2.7-2.1,4.9-4.7,5c-0.1,0-0.2,0-0.3,0c-1.3,0-2.5-0.5-3.4-1.4c-1-1-1.6-2.3-1.6-3.8v-7.9h10.1
		V59.4L58.5,59.4z M58.5,49.7H48.4v-4.2h2.9v-1.7h-2.9v-4.3h5.9v-1.7h-5.9v-4.2h10.1V49.7L58.5,49.7z M58.5,32H48.4v-7.1h10.1V32z
		 M57.3,19h4.2v4.2h-4.2V19z M51.3,19h4.2v4.2h-4.2V19z M45.5,23.1V19h4.2v4.2H45.5z"/>
</g>
</svg>
