<?xml version="1.0" encoding="utf-8"?>
<!-- Generator: Adobe Illustrator 23.0.4, SVG Export Plug-In . SVG Version: 6.00 Build 0)  -->
<svg version="1.1" id="Capa_1" xmlns="http://www.w3.org/2000/svg" xmlns:xlink="http://www.w3.org/1999/xlink" x="0px" y="0px"
	 viewBox="0 0 240.6 242.1" style="enable-background:new 0 0 240.6 242.1;" xml:space="preserve">
<style type="text/css">
	.st0{fill-rule:evenodd;clip-rule:evenodd;fill:url(#SVGID_1_);}
	.st1{fill-rule:evenodd;clip-rule:evenodd;fill:url(#SVGID_2_);}
	.st2{fill-rule:evenodd;clip-rule:evenodd;fill:url(#SVGID_3_);}
	.st3{fill-rule:evenodd;clip-rule:evenodd;fill:#1CBEBE;}
	.st4{fill:#3366CC;stroke:#3366CC;stroke-miterlimit:10;}
</style>
<linearGradient id="SVGID_1_" gradientUnits="userSpaceOnUse" x1="-18.1953" y1="-416.3551" x2="164.0124" y2="-521.5526" gradientTransform="matrix(1 0 0 -1 0 -340.1989)">
	<stop  offset="0" style="stop-color:#FFFFFF"/>
	<stop  offset="0.2906" style="stop-color:#FDFEFE"/>
	<stop  offset="0.4326" style="stop-color:#F5FCFC"/>
	<stop  offset="0.5424" style="stop-color:#E8F8F8"/>
	<stop  offset="0.6357" style="stop-color:#D5F3F3"/>
	<stop  offset="0.7185" style="stop-color:#BDECEC"/>
	<stop  offset="0.7938" style="stop-color:#A0E4E4"/>
	<stop  offset="0.8636" style="stop-color:#7CD9D9"/>
	<stop  offset="0.9289" style="stop-color:#53CECE"/>
	<stop  offset="0.9885" style="stop-color:#26C1C1"/>
	<stop  offset="1" style="stop-color:#1CBEBE"/>
</linearGradient>
<path class="st0" d="M13,32h119.8c5.6,0,10.1,4.7,10.1,10.5V215c0,5.8-4.5,10.5-10.1,10.5H13c-5.6,0-10.1-4.7-10.1-10.5V42.5
	C2.9,36.7,7.5,32,13,32L13,32z"/>
<linearGradient id="SVGID_2_" gradientUnits="userSpaceOnUse" x1="34.3" y1="-366.4989" x2="117.9" y2="-366.4989" gradientTransform="matrix(1 0 0 -1 0 -340.1989)">
	<stop  offset="0" style="stop-color:#FFFFFF"/>
	<stop  offset="1" style="stop-color:#1CBEBE"/>
</linearGradient>
<path class="st1" d="M45.2,20.6H54c2.9,0,3.4-1.4,4.2-3.6c1.5-4.5,5.6-7.6,10.4-7.6h15.1c4.9,0,9,3.3,10.4,7.6
	c0.7,2.4,1.4,3.6,4.1,3.6h8.8c6,0,10.9,5.1,10.9,11.3s-5,11.3-10.9,11.3H45.2c-6,0-10.9-5.1-10.9-11.3
	C34.3,25.8,39.1,20.6,45.2,20.6L45.2,20.6z"/>
<linearGradient id="SVGID_3_" gradientUnits="userSpaceOnUse" x1="98.6999" y1="-465.4864" x2="233.825" y2="-465.4864" gradientTransform="matrix(1 0 0 -1 0 -340.1989)">
	<stop  offset="0" style="stop-color:#FFFFFF"/>
	<stop  offset="0.2392" style="stop-color:#FDFEFE"/>
	<stop  offset="0.3807" style="stop-color:#F4FCFC"/>
	<stop  offset="0.4968" style="stop-color:#E6F8F8"/>
	<stop  offset="0.5991" style="stop-color:#D2F2F2"/>
	<stop  offset="0.6924" style="stop-color:#B8EBEB"/>
	<stop  offset="0.7791" style="stop-color:#98E1E1"/>
	<stop  offset="0.8609" style="stop-color:#71D6D6"/>
	<stop  offset="0.9364" style="stop-color:#46CACA"/>
	<stop  offset="1" style="stop-color:#1CBEBE"/>
</linearGradient>
<path class="st2" d="M109.1,75.9c13.9-14.3,36.7-14.3,50.6,0l4.1,4.1c1.6,1.7,3.3,1.7,4.9,0l4.1-4.1c13.9-14.3,36.6-14.3,50.6,0
	c13.9,14.3,13.9,37.7,0,52.1c-19,19.6-35.5,36.6-54.6,56.2c-1.5,1.6-3.4,1.6-4.9,0c-18.2-18.5-36.4-37.5-54.6-56.2
	C95.2,113.5,95.2,90,109.1,75.9L109.1,75.9z"/>
<path class="st3" d="M27.4,164.4h16.2c1.9,0,3.6,1.6,3.6,3.7v16.7c0,2-1.6,3.7-3.6,3.7H27.4c-1.9,0-3.6-1.6-3.6-3.7V168
	C23.7,166,25.3,164.4,27.4,164.4L27.4,164.4z M27.4,68.2h16.2c1.9,0,3.6,1.6,3.6,3.7v16.9c0,2-1.6,3.7-3.6,3.7H27.4
	c-1.9,0-3.6-1.6-3.6-3.7V72.1C23.7,70,25.3,68.2,27.4,68.2z M27.4,116.4h16.2c1.9,0,3.6,1.6,3.6,3.7v16.8c0,2-1.6,3.7-3.6,3.7H27.4
	c-1.9,0-3.6-1.6-3.6-3.7v-16.8C23.7,118.1,25.3,116.4,27.4,116.4z"/>
<path class="st4" d="M120.6,28.4h15.2c3.7,0,7.4,1.6,9.7,4.2c2.5,2.6,4,6.1,4,9.9v23.3c4.6,2,9.1,5,12.8,8.8l4.3,4.4l4.3-4.4
	c7.9-8.1,18.2-12.1,28.7-12.1c10.4,0,20.9,4,28.7,12.1C236,82.7,240,93.3,240,104s-3.9,21.4-11.8,29.4l-14.8,15.2
	c-1.4,1.4-3.5,1.4-5,0c-1.4-1.4-1.4-3.6,0-5.1l14.8-15.2c6.5-6.8,9.7-15.5,9.7-24.4c0-8.7-3.3-17.6-9.7-24.4
	c-6.6-6.8-15.1-9.9-23.8-9.9c-8.5,0-17.2,3.4-23.8,9.9l-6.8,6.9c-1.4,1.4-3.5,1.4-5,0l-6.7-6.9c-6.5-6.8-15.1-9.9-23.8-9.9
	s-17.2,3.4-23.8,9.9c-6.5,6.7-9.7,15.5-9.7,24.4s3.3,17.6,9.7,24.4c18.9,19.3,37.7,38.7,56.7,58.1l31.1-31.3c1.4-1.4,3.5-1.4,5,0
	c1.4,1.4,1.4,3.6,0,5.1l-33.1,34c-1.4,1.4-3.5,1.4-5,0l-14.6-15V215c0,3.8-1.6,7.3-4,9.9c-2.6,2.6-6,4.2-9.7,4.2H14.8
	c-3.7,0-7.1-1.6-9.7-4.2c-2.6-2.6-4-6.1-4-9.9v-78.1c0-2,1.6-3.6,3.5-3.6s3.5,1.6,3.5,3.6V215c0,1.9,0.7,3.6,1.9,4.9
	c1.2,1.2,2.9,2,4.8,2h120.8c1.8,0,3.5-0.8,4.8-2c1.2-1.2,1.9-2.9,1.9-4.9v-43.3l-37.5-38.4c-7.9-8-11.8-18.6-11.8-29.3
	s3.9-21.4,11.8-29.4c7.9-8.1,18.2-12.1,28.7-12.1c2.9,0,6,0.3,8.8,1v-21c0-1.9-0.7-3.6-1.9-4.9c-1.2-1.3-2.9-2-4.8-2h-15.1
	c-0.6,2.6-1.9,5-3.7,6.9c-2.7,2.7-6.2,4.4-10.2,4.4H83.4c-1.9,0-3.5-1.6-3.5-3.6s1.6-3.6,3.5-3.6h23.1c2,0,3.9-0.9,5.3-2.3
	c1.4-1.4,2.2-3.4,2.2-5.5s-0.9-4-2.2-5.5c-1.5-1.5-3.3-2.3-5.3-2.3H94.4c-2,0-3.7-1.5-3.7-3.6s-0.9-4-2.2-5.5s-3.3-2.3-5.3-2.3H67.6
	c-2,0-3.9,0.9-5.3,2.3c-1.4,1.4-2.2,3.4-2.2,5.5c0,2-1.6,3.6-3.5,3.6H44.2c-2,0-3.9,0.9-5.3,2.3c-1.4,1.4-2.2,3.4-2.2,5.5
	s0.9,4,2.2,5.5c1.4,1.4,3.3,2.3,5.3,2.3h23.1c1.9,0,3.5,1.6,3.5,3.6s-1.6,3.6-3.5,3.6H44.2c-4,0-7.7-1.6-10.2-4.4
	c-1.8-1.9-3.2-4.3-3.7-6.9H14.8c-1.8,0-3.5,0.8-4.8,2s-1.9,2.9-1.9,4.9v78.1c0,2-1.6,3.6-3.5,3.6S1,122.5,1,120.6V42.5
	c0-3.8,1.6-7.5,4-9.9c2.6-2.6,6-4.2,9.7-4.2H30c0.6-2.6,1.9-5,3.7-6.9c2.7-2.7,6.2-4.4,10.2-4.4h9.4c0.6-2.6,1.9-5,3.7-7
	c2.7-2.6,6.2-4.4,10.2-4.4h15.2c4,0,7.7,1.6,10.2,4.4c1.8,1.9,3.2,4.3,3.7,7h9.4c4,0,7.7,1.6,10.2,4.4
	C118.4,23.2,119.8,25.5,120.6,28.4L120.6,28.4z M124,127.1c-1.9,0-3.5-1.6-3.5-3.6s1.6-3.6,3.5-3.6h21.9l9.5-20.9
	c0.9-1.7,2.9-2.6,4.6-1.7c0.9,0.3,1.6,1.2,1.8,2.1l12.3,36.4l5-13.4c0.5-1.4,1.8-2.4,3.3-2.4h27c1.9,0,3.5,1.6,3.5,3.6
	s-1.6,3.6-3.5,3.6h-24.5l-7.6,20.3c-0.3,1-1.1,1.7-2,2.1c-1.8,0.7-3.7-0.3-4.4-2.3l-12.7-37.4l-6.7,14.7c-0.5,1.4-1.8,2.4-3.3,2.4
	L124,127.1L124,127.1z M61.7,172.1c-1.9,0-3.5-1.6-3.5-3.6s1.6-3.6,3.5-3.6h35.5c1.9,0,3.5,1.6,3.5,3.6s-1.6,3.6-3.5,3.6H61.7z
	 M61.7,188c-1.9,0-3.5-1.6-3.5-3.6s1.6-3.6,3.5-3.6h22.7c1.9,0,3.5,1.6,3.5,3.6s-1.6,3.6-3.5,3.6H61.7z M61.7,124.2
	c-1.9,0-3.5-1.6-3.5-3.6s1.6-3.6,3.5-3.6h22.7c1.9,0,3.5,1.6,3.5,3.6s-1.6,3.6-3.5,3.6H61.7z M61.7,140c-1.9,0-3.5-1.6-3.5-3.6
	s1.6-3.6,3.5-3.6h22.7c1.9,0,3.5,1.6,3.5,3.6s-1.6,3.6-3.5,3.6H61.7z M61.7,76.2c-1.9,0-3.5-1.6-3.5-3.6s1.6-3.6,3.5-3.6H92
	c1.9,0,3.5,1.6,3.5,3.6s-1.6,3.6-3.5,3.6H61.7z M61.7,91.9c-1.9,0-3.5-1.6-3.5-3.6s1.6-3.6,3.5-3.6h22.7c1.9,0,3.5,1.6,3.5,3.6
	s-1.6,3.6-3.5,3.6H61.7z M22.6,160.8h23.6c1.9,0,3.5,1.6,3.5,3.6v24.2c0,2-1.6,3.6-3.5,3.6H22.6c-1.9,0-3.5-1.6-3.5-3.6v-24.2
	C19,162.3,20.6,160.8,22.6,160.8z M42.7,168H26v17h16.7V168z M22.6,112.8h23.6c1.9,0,3.5,1.6,3.5,3.6v24.2c0,2-1.6,3.6-3.5,3.6H22.6
	c-1.9,0-3.5-1.6-3.5-3.6v-24.2C19,114.3,20.6,112.8,22.6,112.8z M42.7,119.9H26v17h16.7V119.9z M22.6,64.8h23.6
	c1.9,0,3.5,1.6,3.5,3.6v24.2c0,2-1.6,3.6-3.5,3.6H22.6c-1.9,0-3.5-1.6-3.5-3.6V68.2C19,66.3,20.6,64.8,22.6,64.8z M42.7,72H26v17.1
	h16.7V72z"/>
</svg>
