<?xml version="1.0" encoding="utf-8"?>
<!-- Generator: Adobe Illustrator 25.4.1, SVG Export Plug-In . SVG Version: 6.00 Build 0)  -->
<svg version="1.1" id="Capa_1" xmlns="http://www.w3.org/2000/svg" xmlns:xlink="http://www.w3.org/1999/xlink" x="0px" y="0px"
	 viewBox="0 0 400 400" style="enable-background:new 0 0 400 400;" xml:space="preserve">
<style type="text/css">
	.st0{fill:#FFFFFF;}
</style>
<g>
	<path class="st0" d="M255.4,99.21c-11.38-9.12-25.52-15.1-40.81-17.44V67.59h-29.18v14.18c-15.29,2.33-29.43,8.31-40.81,17.42
		c-15.89,12.72-24.64,29.92-24.64,48.42c0,18.52,8.75,35.71,24.64,48.41c13.22,10.59,27.75,15.07,40.81,17.13v75
		c-8.47-1.79-16.35-5.18-22.58-10.18c-8.83-7.06-13.69-16.16-13.69-25.62v-1.5h-29.18v1.5c0,18.52,8.75,35.71,24.64,48.41
		c11.38,9.12,25.52,15.1,40.81,17.44v14.2h29.18v-14.2c15.3-2.33,29.44-8.31,40.81-17.43c15.89-12.72,24.64-29.92,24.64-48.42
		c0-18.5-8.75-35.7-24.64-48.42c-13.08-10.46-27.99-14.91-40.81-16.95v-75.16c8.47,1.79,16.35,5.18,22.58,10.18
		c8.83,7.06,13.69,16.16,13.69,25.62v1.5h29.18v-1.5C280.04,129.1,271.29,111.91,255.4,99.21z M185.41,183.47
		c-9.23-1.98-16.38-5.25-22.58-10.22c-8.83-7.06-13.69-16.16-13.69-25.62c0-9.47,4.86-18.57,13.7-25.64
		c6.23-4.99,14.11-8.38,22.57-10.17V183.47z M214.59,216.7c9.3,2.01,16.66,5.29,22.58,10.02c8.83,7.06,13.69,16.16,13.69,25.62
		c0,9.47-4.86,18.57-13.7,25.64c-6.23,4.99-14.11,8.38-22.57,10.17V216.7z"/>
	<path class="st0" d="M200,2.14C90.9,2.14,2.14,90.9,2.14,200C2.14,309.1,90.9,397.86,200,397.86
		c109.1,0,197.86-88.76,197.86-197.86C397.86,90.9,309.1,2.14,200,2.14z M200,368.68c-93.01,0-168.68-75.67-168.68-168.68
		S106.99,31.32,200,31.32S368.68,106.99,368.68,200S293.01,368.68,200,368.68z"/>
</g>
<text transform="matrix(1 0 0 1 -148 194.8984)" style="font-family:'ClarendonBT-Black'; font-size:167.1916px;">$</text>
</svg>
