<?xml version="1.0" encoding="utf-8"?>
<!-- Generator: Adobe Illustrator 23.0.4, SVG Export Plug-In . SVG Version: 6.00 Build 0)  -->
<svg version="1.1" id="Capa_1" xmlns="http://www.w3.org/2000/svg" xmlns:xlink="http://www.w3.org/1999/xlink" x="0px" y="0px"
	 viewBox="0 0 512 512" style="enable-background:new 0 0 512 512;" xml:space="preserve">
<style type="text/css">
	.st0{fill:#3366CC;}
	.st1{fill:url(#SVGID_1_);}
	.st2{fill:url(#SVGID_2_);}
	.st3{fill:url(#SVGID_3_);}
	.st4{fill:url(#SVGID_4_);}
</style>
<g>
	<path class="st0" d="M374.96,187.29c66.73,18.61,115.92,80.02,115.92,152.61c0,87.2-70.99,158.45-158.45,158.45
		c-45.46,0-86.67-19.41-115.65-50.25h-109.8c-23.66,0-42.8-19.14-42.8-42.8c0-13.56,6.38-25.79,16.22-33.5
		c-9.84-7.98-16.22-19.94-16.22-33.5s6.38-25.79,16.22-33.5c-9.84-7.71-16.22-19.94-16.22-33.5c0-13.56,6.38-25.79,16.22-33.5
		c-9.84-7.98-16.22-19.94-16.22-33.5c0-23.66,19.14-42.8,42.8-42.8h24.19c-4.79-6.91-7.44-15.15-7.44-24.19
		c0-9.04,2.66-17.28,7.44-24.19H56.46c-23.66,0-42.8-19.14-42.8-42.8s19.14-42.8,42.8-42.8h228.11c23.66,0,42.8,19.14,42.8,42.8
		c0,9.04-2.66,17.28-7.44,24.19h74.44c23.66,0,42.8,19.14,42.8,42.8s-19.14,42.8-42.8,42.8h-24.19
		C372.3,182.24,373.9,184.63,374.96,187.29z M472.27,339.89c0-77.1-62.74-139.84-139.58-139.84c-77.1,0-139.84,62.74-139.84,139.84
		s62.74,139.58,139.84,139.58C409.52,479.74,472.27,416.99,472.27,339.89z M419.09,137.04c0-13.29-10.9-24.19-24.19-24.19H166.79
		c-13.29,0-24.19,10.9-24.19,24.19c0,13.29,10.9,24.19,24.19,24.19h168.56h59.55C408.46,161.23,419.09,150.33,419.09,137.04z
		 M345.98,182.24c-3.19-1.6-6.91-2.39-10.63-2.39H107.24c-13.29,0-24.19,10.9-24.19,24.19s10.9,24.19,24.19,24.19H220.5
		c28.71-28.71,68.33-46.53,111.93-46.53C337.21,181.7,341.46,181.97,345.98,182.24z M309.29,69.78c0-13.29-10.9-24.19-24.19-24.19
		H56.99c-13.29,0-24.19,10.9-24.19,24.19s10.9,24.19,24.19,24.19H285.1C298.39,94.24,309.29,83.34,309.29,69.78z M204.54,246.84
		h-97.31c-13.29,0-24.19,10.9-24.19,24.19s10.9,24.19,24.19,24.19h73.38C185.93,277.68,194.18,261.46,204.54,246.84z M107.24,429.49
		h94.91c-10.1-14.62-17.55-30.84-22.33-48.39h-72.58c-13.29,0-24.19,10.9-24.19,24.19C83.04,418.59,93.95,429.49,107.24,429.49z
		 M176.36,313.84h-69.12c-13.29,0-24.19,10.9-24.19,24.19s10.9,24.19,24.19,24.19h68.59c-1.06-7.18-1.6-14.62-1.6-22.33
		C174.24,331.12,175.03,322.35,176.36,313.84z"/>
	<path class="st0" d="M453.66,339.89c0,19.67-4.79,39.35-14.09,56.89c-1.6,3.19-4.79,5.05-8.24,5.05c-1.6,0-2.92-0.27-4.25-1.06
		c-4.52-2.39-6.38-7.98-3.72-12.5c7.71-14.62,11.96-31.37,11.96-48.12c0-39.08-22.86-75.5-58.22-92.52
		c-4.52-2.13-6.65-7.71-4.25-12.5c2.13-4.52,7.71-6.65,12.5-4.25c20.21,9.84,37.49,24.99,49.45,43.87
		C447.01,294.16,453.66,316.76,453.66,339.89z"/>
	<g id="XMLID_2_">
		<g>
			<linearGradient id="SVGID_1_" gradientUnits="userSpaceOnUse" x1="192.8424" y1="340.0203" x2="472.2614" y2="340.0203">
				<stop  offset="0" style="stop-color:#FFFFFF"/>
				<stop  offset="1" style="stop-color:#1CBEBE"/>
			</linearGradient>
			<path class="st1" d="M332.69,200.31c77.1,0,139.57,62.75,139.57,139.85s-62.73,139.57-139.57,139.57
				c-77.1,0-139.85-62.73-139.85-139.57C192.84,263.06,255.59,200.31,332.69,200.31z M439.57,396.79
				c9.3-17.29,14.09-36.96,14.09-56.9c0-23.13-6.65-45.73-19.14-65.41c-12.24-18.86-29.26-34.03-49.46-43.86
				c-4.51-2.14-10.1-0.28-12.49,4.25c-2.13,4.51-0.26,10.1,4.25,12.49c35.35,17.02,58.22,53.17,58.22,92.53
				c0,16.74-4.25,33.23-11.96,48.12c-2.39,4.51-0.8,10.1,3.73,12.49c1.32,0.8,2.93,1.06,4.25,1.06
				C434.78,401.84,437.97,399.98,439.57,396.79z M362.47,321.54c5.05,0,9.3-4.25,9.3-9.3c0-17.02-12.77-31.37-29.78-35.35v-4.79
				c0-5.05-4.25-9.3-9.3-9.3c-5.05,0-9.3,4.25-9.3,9.3v4.79c-17.02,3.99-29.78,18.34-29.78,35.35c0,19.94,17.54,36.42,39.08,36.42
				c11.43,0,20.46,7.98,20.46,17.82s-9.3,17.82-20.46,17.82c-11.16,0-20.46-7.98-20.46-17.82c0-5.05-4.26-9.3-9.32-9.3
				c-5.05,0-9.3,4.25-9.3,9.3c0,17.02,12.77,31.38,29.78,35.37v3.99c0,5.05,4.25,9.3,9.3,9.3c5.05,0,9.3-4.25,9.3-9.3v-3.99
				c17.02-3.99,29.78-18.35,29.78-35.37c0-19.94-17.55-36.42-39.08-36.42c-11.43,0-20.46-7.98-20.46-17.82s9.3-17.82,20.46-17.82
				c11.16,0,20.46,7.98,20.46,17.82C353.16,317.55,357.14,321.54,362.47,321.54z M356.36,228.23c0-5.05-3.99-9.3-9.32-9.3h-0.52
				c-5.05,0-9.32,4.25-9.32,9.3s4.26,9.3,9.32,9.3h0.52c2.66,0,4.99-1.06,6.65-2.75C355.37,233.07,356.36,230.75,356.36,228.23z
				 M318.6,461.13c5.31,0,9.3-4.25,9.3-9.3c0-5.07-4.25-9.32-9.3-9.32h-0.54c-5.05,0-9.3,4.25-9.3,9.32c0,5.05,4.25,9.3,9.3,9.3
				H318.6z M292.55,444.91c2.13-4.53,0.26-10.1-4.25-12.5c-35.37-17.02-58.24-53.17-58.24-92.51c0-16.75,3.99-33.51,11.96-48.12
				c2.4-4.53,0.8-10.1-3.71-12.5c-4.53-2.39-10.1-0.8-12.5,3.99c-9.3,17.28-14.09,36.96-14.09,56.9c0,23.13,6.65,45.73,19.14,65.4
				c12.23,18.88,29.24,34.03,49.46,43.87c1.32,0.54,2.65,0.8,3.99,0.8C287.76,450.23,290.95,448.1,292.55,444.91z"/>
		</g>
		<g>
		</g>
	</g>
	<path class="st0" d="M371.77,312.24c0,5.05-4.25,9.31-9.31,9.31c-5.05,0-9.31-4.25-9.31-9.31c0-9.84-9.31-17.81-20.47-17.81
		c-11.17,0-20.47,7.98-20.47,17.81c0,9.84,9.31,17.81,20.47,17.81c21.53,0,39.08,16.22,39.08,36.42c0,17.02-12.76,31.37-29.78,35.36
		v3.99c0,5.05-4.25,9.31-9.31,9.31c-5.05,0-9.31-4.25-9.31-9.31v-3.99c-17.02-3.99-29.78-18.34-29.78-35.36
		c0-5.05,4.25-9.31,9.31-9.31s9.31,4.25,9.31,9.31c0,9.84,9.31,17.81,20.47,17.81c11.17,0,20.47-7.98,20.47-17.81
		c0-9.84-9.31-17.81-20.47-17.81c-21.53,0-39.08-16.22-39.08-36.42c0-17.02,12.76-31.37,29.78-35.36v-4.79
		c0-5.05,4.25-9.31,9.31-9.31c5.05,0,9.31,4.25,9.31,9.31v4.79C359.01,280.87,371.77,295.23,371.77,312.24z"/>
	<path class="st0" d="M347.31,218.93c5.05,0,9.31,4.25,9.31,9.31s-4.25,9.31-9.31,9.31l0,0h-0.53c-5.05,0-9.31-4.25-9.31-9.31
		s4.25-9.31,9.31-9.31H347.31z"/>
	<path class="st0" d="M318.6,442.52c5.05,0,9.31,4.25,9.31,9.31c0,5.05-4.25,9.31-9.31,9.31h-0.53c-5.05,0-9.31-4.25-9.31-9.31
		c0-5.05,4.25-9.31,9.31-9.31H318.6z"/>
	<linearGradient id="SVGID_2_" gradientUnits="userSpaceOnUse" x1="32.7968" y1="69.7762" x2="309.2937" y2="69.7762">
		<stop  offset="0" style="stop-color:#FFFFFF"/>
		<stop  offset="1" style="stop-color:#1CBEBE"/>
	</linearGradient>
	<path class="st2" d="M285.1,45.58c13.29,0,24.19,10.9,24.19,24.19s-10.9,24.19-24.19,24.19H56.99c-13.29,0-24.19-10.9-24.19-24.19
		s10.9-24.19,24.19-24.19H285.1z"/>
	<path class="st0" d="M288.29,432.41c4.52,2.13,6.65,7.71,4.25,12.5c-1.6,3.46-5.05,5.32-8.51,5.32c-1.33,0-2.66-0.27-3.99-0.8
		c-20.21-9.84-37.49-24.99-49.45-43.87c-12.5-19.41-19.14-42.01-19.14-65.4c0-19.94,4.79-39.35,14.09-56.89
		c2.39-4.52,7.98-6.38,12.5-3.99c4.52,2.39,6.38,7.98,3.72,12.5c-7.71,14.62-11.96,31.37-11.96,48.12
		C230.07,379.24,252.93,415.4,288.29,432.41z"/>
	<g id="XMLID_3_">
		<g>
			<linearGradient id="SVGID_3_" gradientUnits="userSpaceOnUse" x1="83.3134" y1="204.037" x2="345.9792" y2="204.037">
				<stop  offset="0" style="stop-color:#FFFFFF"/>
				<stop  offset="1" style="stop-color:#1CBEBE"/>
			</linearGradient>
			<path class="st3" d="M107.5,179.85h227.85c3.71,0,7.44,0.8,10.63,2.39c-4.51-0.26-8.78-0.52-13.29-0.52
				c-43.61,0-83.47,17.8-111.93,46.52H107.5c-13.29,0-24.19-10.9-24.19-24.19S94.22,179.85,107.5,179.85z"/>
			<linearGradient id="SVGID_4_" gradientUnits="userSpaceOnUse" x1="83.0514" y1="338.0335" x2="176.3658" y2="338.0335">
				<stop  offset="0" style="stop-color:#FFFFFF"/>
				<stop  offset="1" style="stop-color:#1CBEBE"/>
			</linearGradient>
			<path class="st4" d="M107.24,313.84h69.12c-1.34,8.5-2.13,17.28-2.13,26.05c0,7.7,0.52,15.15,1.59,22.33h-68.58
				c-13.3,0-24.19-10.9-24.19-24.19S93.94,313.84,107.24,313.84z"/>
		</g>
		<g>
		</g>
	</g>
</g>
</svg>
