<?xml version="1.0" encoding="utf-8"?>
<!-- Generator: Adobe Illustrator 25.4.1, SVG Export Plug-In . SVG Version: 6.00 Build 0)  -->
<svg version="1.1" id="Capa_1" xmlns="http://www.w3.org/2000/svg" xmlns:xlink="http://www.w3.org/1999/xlink" x="0px" y="0px"
	 viewBox="0 0 400 400" style="enable-background:new 0 0 400 400;" xml:space="preserve">
<style type="text/css">
	.st0{fill:#2CBEBF;}
	.st1{fill:#60CACB;}
	.st2{fill:#F6CCAF;}
	.st3{fill:#FFDEC7;}
	.st4{fill:#374F68;}
	.st5{fill:#3DA5FF;}
	.st6{fill:#6AB7FF;}
	.st7{fill:#425B72;}
	.st8{fill:#D3DDFB;}
	.st9{fill:#EAF5FC;}
	.st10{fill:#FC6559;}
	.st11{fill:url(#SVGID_1_);}
	.st12{fill:url(#SVGID_00000170958961277563481190000014627973167441882518_);}
	.st13{fill:url(#SVGID_00000067934205956342939750000015341069087434903213_);}
	.st14{fill:#DCE7F7;}
	.st15{fill:url(#SVGID_00000153682676835266445290000016821737726332535425_);}
	.st16{fill:#FEFEFD;}
	.st17{fill:#1B73AF;}
	.st18{fill:#AA6101;}
	.st19{fill:#BFD6F7;}
	.st20{fill:#FEA734;}
	.st21{fill:#FD9812;}
	.st22{fill:#EC8600;}
	.st23{fill:#999999;}
	.st24{fill:#FEB656;}
	.st25{fill:#3D9AE0;}
	.st26{fill:#1F81CD;}
	.st27{fill:#C3D1E2;}
	.st28{fill:#CB7401;}
	.st29{fill:#7BCB91;}
	.st30{fill:#FEC477;}
</style>
<path class="st0" d="M220-115.4c-2.5,1.9-4.4,4.6-5.4,7.5h-26.8v-1.8c0-15.6,19.6-22.4,29.3-10.8C218.4-119,219.4-117.3,220-115.4z"
	/>
<path class="st1" d="M220-115.4c-1.4,1.1-2.6,2.4-3.6,3.8H197c-2.9-0.2-5.1-2.7-4.9-5.5c0-0.5,0.1-0.9,0.3-1.4c0.3-1,0.8-2,1.3-2.9
	c0.5-1.3,1.6-2.4,2.9-2.9C206.3-129.7,218.1-123.4,220-115.4z"/>
<path class="st2" d="M211.8-137.4c0,5.5,0.4,7.4-1.3,9.8c-2.3,3.3-6.9,4.2-10.3,1.8c-0.4-0.2-0.7-0.5-1-0.8
	c-2.7-2.8-2.2-5.6-2.2-10.8c2.7,1.1,7.1,2.1,9.2,0c1.5-1.5,3.9-1.6,5.4-0.1C211.8-137.5,211.8-137.5,211.8-137.4L211.8-137.4z"/>
<path class="st3" d="M211.8-137.4c0,5.5,0.4,7.4-1.3,9.8c-2.9,2-6.9,1.7-9.4-0.8c-2.5-2.5-2.2-5.1-2.2-8.3c2.1,0.6,5.5,1.2,7.4-0.6
	c1.5-1.5,3.9-1.6,5.4-0.1C211.8-137.5,211.8-137.5,211.8-137.4L211.8-137.4z"/>
<path class="st4" d="M211.8-137.4c-1.5-1.5-3.9-1.6-5.4-0.1c0,0-0.1,0.1-0.1,0.1c-2.8,2.8-9.2,0-9.2,0c0-4.1,3.3-7.4,7.4-7.4
	S211.8-141.5,211.8-137.4z"/>
<path class="st5" d="M246.9-102.3v1.8h-33.3c-0.2-2.5,0.1-5,1-7.4c3.1-8.7,12.6-13.2,21.2-10.1C242.5-115.6,246.9-109.3,246.9-102.3
	z"/>
<path class="st6" d="M246.8-104.2c-32.7,0-21.6,0-24,0c-2.9-0.2-5.1-2.7-4.9-5.5c0-0.5,0.1-0.9,0.3-1.4c0.6-1.7,1.4-3.3,2.4-4.7
	c7.4-5.4,17.8-3.7,23.2,3.7C245.4-109.8,246.5-107,246.8-104.2L246.8-104.2z"/>
<path class="st2" d="M237.7-130c0,5.5,0.4,7.4-1.3,9.8c-2.3,3.3-6.9,4.2-10.3,1.8c-0.4-0.2-0.7-0.5-1-0.8c-2.7-2.8-2.2-5.7-2.2-10.8
	c2.7,1.1,7.1,2.1,9.2,0c1.5-1.5,3.9-1.6,5.4-0.1C237.6-130.1,237.6-130.1,237.7-130L237.7-130z"/>
<path class="st3" d="M237.7-130c0,5.5,0.4,7.4-1.3,9.8c-2.9,2-6.9,1.7-9.4-0.8c-2.5-2.5-2.2-5.1-2.2-8.3c2.1,0.6,5.5,1.2,7.4-0.6
	c1.5-1.5,3.9-1.6,5.4-0.1C237.6-130.1,237.6-130.1,237.7-130L237.7-130z"/>
<path class="st4" d="M237.7-130c-1.5-1.5-3.9-1.6-5.4-0.1c0,0-0.1,0.1-0.1,0.1c-2.8,2.8-9.2,0-9.2,0c0-4.1,3.3-7.4,7.4-7.4
	S237.7-134.1,237.7-130z"/>
<path class="st0" d="M272.8-109.7v1.8H246c-1.1-3-2.9-5.6-5.4-7.5C246.9-132.7,272.8-128.3,272.8-109.7z"/>
<path class="st1" d="M272.7-111.6c-32.7,0-21.6,0-24,0c-2.9-0.2-5.1-2.7-4.9-5.5c0-0.5,0.1-0.9,0.3-1.4c0.6-1.7,1.4-3.3,2.4-4.7
	c7.4-5.4,17.8-3.7,23.2,3.7C271.3-117.2,272.4-114.4,272.7-111.6L272.7-111.6z"/>
<path class="st2" d="M263.6-137.4c0,5.5,0.4,7.4-1.3,9.8c-2.3,3.3-6.9,4.2-10.3,1.8c-0.4-0.2-0.7-0.5-1-0.8
	c-2.7-2.8-2.2-5.6-2.2-10.8c2.7,1.1,7.1,2.1,9.2,0c1.5-1.5,3.9-1.6,5.4-0.1C263.5-137.5,263.5-137.5,263.6-137.4L263.6-137.4z"/>
<path class="st3" d="M263.6-137.4c0,5.5,0.4,7.4-1.3,9.8c-2.9,2-6.9,1.7-9.4-0.8c-2.5-2.5-2.2-5.1-2.2-8.3c2.1,0.6,5.5,1.2,7.4-0.6
	c1.5-1.5,3.9-1.6,5.4-0.1C263.5-137.5,263.5-137.5,263.6-137.4L263.6-137.4z"/>
<path class="st4" d="M263.6-137.4c-1.5-1.5-3.9-1.6-5.4-0.1c0,0-0.1,0.1-0.1,0.1c-2.8,2.8-9.2,0-9.2,0c0-4.1,3.3-7.4,7.4-7.4
	C260.2-144.8,263.6-141.5,263.6-137.4z"/>
<g>
	<path class="st7" d="M263.6-137.4c-1.5-1.5-3.9-1.6-5.4-0.1c0,0-0.1,0.1-0.1,0.1c-0.7,0.7-1.7,1.1-2.7,1.2
		c-1.6-0.2-3.2-0.6-4.7-1.2c0-3.8,2.8-6.9,6.5-7.4C260.8-144.4,263.6-141.2,263.6-137.4z"/>
	<path class="st7" d="M237.7-130c-1.5-1.5-3.9-1.6-5.4-0.1c-0.1,0-0.1,0.1-0.1,0.1c-0.7,0.7-1.7,1.1-2.7,1.2
		c-1.6-0.2-3.2-0.6-4.7-1.2c0-3.8,2.8-6.9,6.5-7.4C234.9-137,237.7-133.8,237.7-130z"/>
	<path class="st7" d="M211.8-137.4c-1.5-1.5-3.9-1.6-5.4-0.1c-0.1,0-0.1,0.1-0.1,0.1c-0.7,0.7-1.7,1.1-2.7,1.2
		c-1.6-0.2-3.2-0.6-4.7-1.2c0-3.8,2.8-6.9,6.5-7.4C209.1-144.4,211.9-141.2,211.8-137.4z"/>
</g>
<g>
	<path class="st8" d="M242.7-154.7c0,2.7-0.9,5.2-2.4,7.4c-7.1,9.4-22.1,4.4-22.1-7.4c0-3.9,1.8-7.5,4.9-9.8
		c5.4-4.1,13.1-3,17.2,2.4C241.8-160,242.7-157.4,242.7-154.7z"/>
	<path class="st9" d="M242.7-154.7c0,2.7-0.9,5.2-2.4,7.4c-5.4,4.1-13.1,3-17.2-2.4c-3.3-4.4-3.3-10.4,0-14.7
		c5.4-4.1,13.1-3,17.2,2.4C241.8-160,242.7-157.4,242.7-154.7z"/>
	<path class="st10" d="M236.6-157.2h-3.7v-3.7H228v3.7h-3.7v4.9h3.7v3.7h4.9v-3.7h3.7V-157.2z"/>
</g>
<g>
	<path class="st2" d="M212-134.7c0,5.5,0.4,7.4-1.3,9.8c-2.3,3.3-6.9,4.2-10.3,1.8c-0.4-0.2-0.7-0.5-1-0.8
		c-2.7-2.8-2.2-5.6-2.2-10.8c2.7,1.1,7.1,2.1,9.2,0c1.5-1.5,3.9-1.6,5.4-0.1C212-134.8,212-134.8,212-134.7L212-134.7z"/>
	<path class="st3" d="M212-134.7c0,5.5,0.4,7.4-1.3,9.8c-2.9,2-6.9,1.7-9.4-0.8c-2.5-2.5-2.2-5.1-2.2-8.3c2.1,0.6,5.5,1.2,7.4-0.6
		c1.5-1.5,3.9-1.6,5.4-0.1C212-134.8,212-134.8,212-134.7L212-134.7z"/>
	<path class="st4" d="M212-134.7c-1.5-1.5-3.9-1.6-5.4-0.1c0,0-0.1,0.1-0.1,0.1c-2.8,2.8-9.2,0-9.2,0c0-4.1,3.3-7.4,7.4-7.4
		S212-138.8,212-134.7z"/>
	
		<linearGradient id="SVGID_1_" gradientUnits="userSpaceOnUse" x1="220.033" y1="514.6376" x2="241.0153" y2="493.6553" gradientTransform="matrix(1 0 0 -1 0 402)">
		<stop  offset="0" style="stop-color:#00A99D"/>
		<stop  offset="0.1894" style="stop-color:#0FBBB1"/>
		<stop  offset="0.4258" style="stop-color:#1BCBC2"/>
		<stop  offset="0.6836" style="stop-color:#23D5CC"/>
		<stop  offset="1" style="stop-color:#25D8CF"/>
	</linearGradient>
	<path class="st11" d="M247-101.5L247-101.5c0-0.1,0-0.2,0-0.3c0-0.2-0.1-0.4-0.1-0.6c-0.1-0.3-0.1-0.6-0.2-0.9c0-0.1,0-0.1,0-0.2
		c-0.5-2.1-1.4-4.1-2.7-5.9c-5.4-7.4-15.8-9.1-23.2-3.7c0,0-0.1,0.1-0.1,0.1c-2.6,1.9-4.7,4.6-5.8,7.8c-0.8,2.4-1.1,4.9-1,7.4h33.3
		v-1.8C247.1-100.2,247.1-100.9,247-101.5z"/>
	<path class="st2" d="M237.9-127.3c0,5.5,0.4,7.4-1.3,9.8c-2.3,3.3-6.9,4.2-10.3,1.8c-0.4-0.2-0.7-0.5-1-0.8
		c-2.7-2.8-2.2-5.7-2.2-10.8c2.7,1.1,7.1,2.1,9.2,0c1.5-1.5,3.9-1.6,5.4-0.1C237.8-127.4,237.9-127.4,237.9-127.3L237.9-127.3z"/>
	<path class="st3" d="M237.9-127.3c0,5.5,0.4,7.4-1.3,9.8c-2.9,2-6.9,1.7-9.4-0.8c-2.5-2.5-2.2-5.1-2.2-8.3c2.1,0.6,5.5,1.2,7.4-0.7
		c1.5-1.5,3.9-1.6,5.4-0.1C237.8-127.4,237.9-127.4,237.9-127.3L237.9-127.3z"/>
	<path class="st4" d="M237.9-127.3c-1.5-1.5-3.9-1.6-5.4-0.1c0,0-0.1,0.1-0.1,0.1c-2.8,2.8-9.2,0-9.2,0c0-4.1,3.3-7.4,7.4-7.4
		S237.9-131.4,237.9-127.3z"/>
	
		<linearGradient id="SVGID_00000090254201660999078720000000012886948598384056_" gradientUnits="userSpaceOnUse" x1="240.78" y1="516.4229" x2="273.02" y2="516.4229" gradientTransform="matrix(1 0 0 -1 0 402)">
		<stop  offset="0" style="stop-color:#00ADEA"/>
		<stop  offset="1" style="stop-color:#0783E9"/>
	</linearGradient>
	<path style="fill:url(#SVGID_00000090254201660999078720000000012886948598384056_);" d="M265-121.2c0,0-0.1-0.1-0.1-0.1
		c-0.2-0.1-0.5-0.2-0.7-0.4c-4-2.2-8.8-2.6-13.2-1.1c-4.4,1.4-8.3,4.7-10.3,10.1c2.5,1.9,4.4,4.6,5.4,7.5H273v-1.8
		C273-113.7,269.6-118.6,265-121.2z"/>
	
		<linearGradient id="SVGID_00000081614682600275661860000007686449743566244252_" gradientUnits="userSpaceOnUse" x1="188.02" y1="516.3886" x2="220.26" y2="516.3886" gradientTransform="matrix(1 0 0 -1 0 402)">
		<stop  offset="0" style="stop-color:#00ADEA"/>
		<stop  offset="1" style="stop-color:#0783E9"/>
	</linearGradient>
	<path style="fill:url(#SVGID_00000081614682600275661860000007686449743566244252_);" d="M218.2-110.8c0.1-0.1,0.1-0.1,0.1-0.2
		c0.2-0.3,0.5-0.5,0.8-0.8c0,0,0.1-0.1,0.1-0.1c0.3-0.3,0.6-0.6,1-0.8c-0.8-3-2.9-5.8-5.8-7.8c-3.3-2.4-7.2-3.4-10.9-3.1
		c-2.2,0.1-4.3,0.7-6.4,1.8c-0.1,0.1-0.2,0.1-0.4,0.2c-0.4,0.2-0.8,0.4-1.1,0.7c-4.4,2.8-7.5,7.6-7.5,13.9v1.8h26.8
		c0.5-1.3,1.1-2.6,1.9-3.7l0,0c0.2-0.3,0.5-0.7,0.7-1c0,0,0.1-0.1,0.1-0.1C217.8-110.3,218-110.5,218.2-110.8z"/>
	<path class="st2" d="M263.8-134.7c0,5.5,0.4,7.4-1.3,9.8c-2.3,3.3-6.9,4.2-10.3,1.8c-0.4-0.2-0.7-0.5-1-0.8
		c-2.7-2.8-2.2-5.6-2.2-10.8c2.7,1.1,7.2,2.1,9.2,0c1.5-1.5,3.9-1.6,5.4-0.1C263.7-134.8,263.7-134.8,263.8-134.7L263.8-134.7z"/>
	<path class="st3" d="M263.8-134.7c0,5.5,0.4,7.4-1.3,9.8c-2.9,2-6.9,1.7-9.4-0.8c-2.5-2.5-2.2-5.1-2.2-8.3c2.1,0.6,5.5,1.2,7.4-0.6
		c1.5-1.5,3.9-1.6,5.4-0.1C263.7-134.8,263.7-134.8,263.8-134.7L263.8-134.7z"/>
	<path class="st4" d="M263.8-134.7c-1.5-1.5-3.9-1.6-5.4-0.1c0,0-0.1,0.1-0.1,0.1c-2.8,2.8-9.2,0-9.2,0c0-4.1,3.3-7.4,7.4-7.4
		C260.5-142.1,263.8-138.8,263.8-134.7z"/>
	<g>
		<path class="st7" d="M263.8-134.7c-1.5-1.5-3.9-1.6-5.4-0.1c0,0-0.1,0.1-0.1,0.1c-0.7,0.7-1.7,1.1-2.7,1.2
			c-1.6-0.2-3.2-0.6-4.7-1.2c0-3.8,2.8-6.9,6.5-7.4C261-141.6,263.8-138.5,263.8-134.7z"/>
		<path class="st7" d="M237.9-127.3c-1.5-1.5-3.9-1.6-5.4-0.1c-0.1,0-0.1,0.1-0.1,0.1c-0.7,0.7-1.7,1.1-2.7,1.2
			c-1.6-0.2-3.2-0.6-4.7-1.2c0-3.8,2.8-6.9,6.5-7.4C235.2-134.3,237.9-131.1,237.9-127.3z"/>
		<path class="st7" d="M212-134.7c-1.5-1.5-3.9-1.6-5.4-0.1c-0.1,0-0.1,0.1-0.1,0.1c-0.7,0.7-1.7,1.1-2.7,1.2
			c-1.6-0.2-3.2-0.6-4.7-1.2c0-3.8,2.8-6.9,6.5-7.4C209.3-141.6,212.1-138.5,212-134.7z"/>
	</g>
</g>
<g>
	<path class="st8" d="M242.9-152c0,2.7-0.9,5.2-2.4,7.4c-7.1,9.4-22.1,4.4-22.1-7.4c0-3.9,1.8-7.5,4.9-9.8c5.4-4.1,13.1-3,17.2,2.4
		C242.1-157.3,242.9-154.7,242.9-152z"/>
	<path class="st9" d="M242.9-152c0,2.7-0.9,5.2-2.4,7.4c-5.4,4.1-13.1,3-17.2-2.4c-3.3-4.4-3.3-10.4,0-14.7c5.4-4.1,13.1-3,17.2,2.4
		C242.1-157.3,242.9-154.7,242.9-152z"/>
	<path class="st10" d="M236.8-154.5h-3.7v-3.7h-4.9v3.7h-3.7v4.9h3.7v3.7h4.9v-3.7h3.7V-154.5z"/>
</g>
<path class="st14" d="M108.5,8.1c48.7,0,97.5,0,146.2,0c2.4,1.3,5.3,1.4,7.6,3.1c0,13.5-0.1,26.9-0.1,40.4c0,6.6,4.8,11.3,11.4,11.3
	c11.3,0.1,22.7,0,34,0c1.2,0,2.5,0.3,3.5-0.9c1.9,3.3,2.8,6.9,2.9,10.6c0.1,21.4,0.1,42.8,0.1,64.3c-1.6,0-3.2,0.1-4.9,0.1
	c-24.2,0-48.4,0-72.6,0c-5.8,0-11.3,1.2-16.4,4.1c-15.8,7.8-24.4,20.5-24.6,38c-0.4,30.9-0.1,61.9-0.1,92.8c0,13-0.1,26-0.1,38.9
	c-6.7,0-13.4,0-20.1,0c-2.1-5.3-5.1-9.5-11.1-10.6c0-0.9,0.6-1.1,1.4-1.5c7.3-3.3,10.3-8.1,9.8-15.4c-0.4-6.4-4.6-10.9-12-13.1
	c0-0.2,0-0.4,0-0.5c7-1.5,11.6-6.5,12-12.9c0.5-9.5-5.7-16.3-15.3-16.3c-17.4-0.1-34.9-0.1-52.3-0.1c0-9.7,0-19.5,0-29.2
	c0-67.4,0-134.9,0-202.3C108,8.7,108.3,8.4,108.5,8.1z M172.2,194.9c0.1-10.1-4.3-17.2-13.6-21.2c-4.1-1.8-8.4-3.2-12.4-5.1
	c-4.9-2.3-6.8-5.9-5.8-10.5c0.9-4.2,4.1-6.5,9.5-6.9c4.6-0.4,8.9,0.4,13,2.7c3,1.6,5.4,0.8,6.9-2.1c1.5-2.9,0.7-5.3-1.9-7.1
	c-2.1-1.4-4.4-2.5-6.9-2.7c-3.7-0.3-5.8-1.3-5.6-5.8c0.2-3.1-2.3-4.9-5.5-5c-2.9-0.1-5.1,2.3-5.3,5.6c-0.1,0.9-0.1,1.8,0,2.6
	c0.1,1.6-0.4,2.4-2.1,3c-8.1,2.7-12.4,8.3-12.9,16.9c-0.5,9.2,3.6,15.5,11.9,19.2c2.6,1.2,5.3,2.2,8,3.2c2.8,1.1,5.6,2.2,7.9,4.1
	c3.7,3,5.2,8.5,3.6,13.7c-1.4,4.6-4.9,6.3-9.4,6.7c-6,0.6-11-1-15.1-5.6c-2.9-3.3-6.3-2.7-8.1,1c-1.2,2.6-0.5,4.8,1.2,6.9
	c2.9,3.5,6.7,5.7,10.9,6.8c3,0.7,4.5,1.9,4.1,5.2c-0.3,2.5,1.2,4.2,3.5,5.2c2.1,0.9,3.9,0.3,5.5-1.1c1.8-1.5,2-3.7,1.9-5.8
	c-0.1-1.7,0.5-2.6,2.3-3.2C167.5,212.3,172.2,205.5,172.2,194.9z M180.1,81.5c-16.2,0-32.5,0-48.7,0c-6.1,0-8.7,1.7-8.7,5.7
	c-0.1,4.2,2.6,6,8.9,6c32.4,0,64.7,0,97.1,0c1.5,0,3,0,4.5-0.3c3.1-0.7,4.6-2.9,4.4-6c-0.2-3-2-4.7-4.9-5.3
	c-1.1-0.2-2.2-0.1-3.4-0.1C212.9,81.5,196.5,81.5,180.1,81.5z M219.9,110.5c-2.5,0-5,0-7.5,0c-13.7,0-27.5,0-41.2,0
	c-4.7,0-7.4,3-6.4,7c0.9,3.7,3.7,4.5,7.2,4.5c32.1,0,64.2,0,96.3,0c0.9,0,1.8,0.1,2.6-0.1c4-0.8,6-5.2,3.9-8.7
	c-1.5-2.5-3.9-2.8-6.5-2.8C252.1,110.6,236,110.6,219.9,110.5z M137.4,122.1C137.4,122.1,137.4,122.1,137.4,122.1
	c3.1,0,6.2,0.1,9.4,0c3.6-0.1,6-2.6,6-5.8c0-3.1-2.3-5.5-5.8-5.6c-6.2-0.1-12.5-0.1-18.7,0c-3.5,0.1-5.6,2.5-5.6,5.8
	c0,3.2,2.3,5.5,5.7,5.7C131.4,122.2,134.4,122.1,137.4,122.1z M262.5,93.2c2.5,0,5,0.2,7.5,0c3.4-0.3,5.7-2.8,5.6-5.8
	c0-3.2-2.5-5.7-6.1-5.7c-4.7-0.1-9.5-0.1-14.2,0c-3.5,0.1-5.8,2.3-5.9,5.5c-0.2,3.4,2,5.8,5.7,6.1C257.6,93.4,260.1,93.2,262.5,93.2
	z"/>
<linearGradient id="SVGID_00000145779139360341202230000014313489141711664822_" gradientUnits="userSpaceOnUse" x1="302.6521" y1="377.7869" x2="302.6521" y2="136.8792">
	<stop  offset="0" style="stop-color:#006DF0"/>
	<stop  offset="0.125" style="stop-color:#067EEB"/>
	<stop  offset="0.5243" style="stop-color:#17AEDC"/>
	<stop  offset="0.8287" style="stop-color:#21CDD2"/>
	<stop  offset="1" style="stop-color:#25D8CF"/>
</linearGradient>
<path style="fill:url(#SVGID_00000145779139360341202230000014313489141711664822_);" d="M220.2,141.2c5.1-2.9,10.7-4.1,16.4-4.1
	c24.2-0.1,48.4,0,72.6,0c1.6,0,3.2-0.1,4.9-0.1c11.6,0,23.2,0.1,34.7,0.1c19.3,0,35.6,12.3,41,30.8c0.8,2.7,1.4,5.4,2.1,8.2
	c0,59.2,0,118.5,0,177.7c-0.9,0.4-0.6,1.2-0.8,1.9c-1.3,7.3-3.7,14.2-8.8,19.8c-5.4,0.8-10.6,2.4-16.2,2.3
	c-36.7-0.1-73.4-0.1-110.1,0c-6,0-11.7-0.9-17.1-3.3c-4.2-1.9-8.7-3.6-11.2-8.1c8,1.5,16.1,0.8,24.2,0.5c3.8-0.1,5.4-3.3,5.6-6.8
	c0.2-3.3-0.1-6.7-0.1-10.1c0.6-3.1,0.4-6.2,0.2-9.3c-0.2-3.7-2.9-6.3-6.6-6.4c-6.6-0.1-13.2-0.1-19.8,0c-4,0.1-6.4,2.8-6.5,6.7
	c0,3,0.1,6,0.1,9c0,4.7-0.8,9.5,0.7,14.2c-1.6,0-2.3-1.2-3.2-2.3c-6-7.9-9.1-16.6-9-26.7c0.1-55,0.2-110,0-165.1
	c0-9.8,1-19.1,6.6-27.5C220.2,142.2,220.1,141.6,220.2,141.2z M224.9,300.5c0,3.4-0.2,6.7-0.1,10.1c0.1,4.4,2.6,7,7,7
	c6.1,0.1,12.2,0.1,18.3,0c4.7-0.1,7.2-2.3,7.5-7c0.2-3.3-0.1-6.7-0.1-10c0.1-3.1,0.4-6.2,0.3-9.3c-0.2-3.8-2.9-6.4-6.8-6.5
	c-6.6-0.1-13.2-0.1-19.8,0c-3.7,0.1-6.2,2.7-6.3,6.4C224.7,294.3,224.8,297.4,224.9,300.5z M309.6,301.2c1-3.3,0.7-6.7,0.4-10
	c-0.3-4.2-3-6.4-7.2-6.5c-6.2-0.1-12.4-0.1-18.6,0c-4.6,0-6.9,2.3-7,6.8c-0.1,3,0.1,6,0.1,8.9c0,3.4-0.1,6.7-0.1,10.1
	c0.1,4.2,2.5,6.9,6.6,7c6.5,0.2,12.9,0.2,19.4,0c4.2-0.1,6.3-2.5,6.4-6.7C309.7,307.6,309.6,304.4,309.6,301.2z M277.3,350.7
	c0,3.2-0.2,6.5-0.1,9.7c0.1,4,2.6,6.6,6.6,6.7c6.5,0.1,12.9,0.2,19.4,0c4.1-0.1,6.3-2.5,6.4-6.7c0.1-3.2,0-6.5,0-9.7
	c1-3.3,0.7-6.7,0.4-10c-0.3-3.9-2.9-6.3-6.6-6.4c-6.6-0.1-13.2-0.2-19.8,0c-4.1,0.1-6.3,2.6-6.4,6.7
	C277.1,344.2,277.3,347.5,277.3,350.7z M362.6,247.3c0.1-2.5,0.2-5,0.2-7.5c-0.1-4.6-2.2-7-6.8-7.2c-6.4-0.2-12.7-0.2-19.1,0
	c-4.2,0.2-6.6,2.5-6.9,6.5c-0.2,3-0.5,6,0.4,8.9c0,3.6-0.2,7.2-0.1,10.9c0.1,4,2.3,6.4,6.3,6.4c6.6,0.1,13.2,0.1,19.9,0
	c4-0.1,6.2-2.4,6.3-6.4C362.8,255,362.7,251.1,362.6,247.3z M309.6,248.7c1-2.8,0.6-5.7,0.5-8.5c-0.1-4.6-2.3-7.4-6.9-7.7
	c-6.6-0.3-13.2-0.3-19.7,0c-4.3,0.2-6.2,2.9-6.3,7.2c0,3,0.1,6,0.1,8.9c0,3.4-0.2,6.7-0.1,10.1c0.1,4,2.3,6.4,6.2,6.5
	c6.7,0.1,13.4,0.1,20.1,0c3.8-0.1,5.9-2.4,6.1-6.1C309.7,255.7,309.6,252.2,309.6,248.7z M224.9,248.7c0,3.2-0.2,6.5-0.1,9.7
	c0.1,4.5,2.5,6.8,7,6.9c6.1,0.1,12.2,0.1,18.3,0c4.8,0,7.3-2.4,7.4-7.3c0.1-2.8-0.2-5.7-0.4-8.6c1-3.6,0.7-7.2,0.4-10.8
	c-0.3-3.3-2.4-5.6-5.8-5.9c-7.2-0.6-14.5-0.8-21.6,0.1c-3.6,0.5-5.3,2.9-5.4,6.5C224.7,242.5,224.8,245.6,224.9,248.7z M330.4,346.1
	c0,3.5-0.2,7-0.1,10.4c0.2,5.9,4.5,10.2,10.5,10.5c3.7,0.2,7.5,0.2,11.2,0c6.1-0.3,10.5-4.7,10.7-10.8c0.1-3.6-0.1-7.2-0.1-10.8
	c0-17.2,0.2-34.5,0.1-51.7c0-5.2-4-8.8-9.1-9c-3.9-0.1-7.7,0-11.6,0c-8.4,0-12.1,3.6-12.1,12c0,14.6,0,29.2,0,43.8
	C329.9,342.4,330.2,344.3,330.4,346.1z M257.8,210.5c1.2,0.2,2.5,0.6,3.7,0.6c28.7,0,57.5,0.1,86.2,0c8.1,0,13.3-4.5,14.4-12.4
	c1.2-7.9,1-16,0.1-23.9c-1-8.7-6.6-13-15.4-13c-19.7,0-39.5,0-59.2,0c-9.7,0-19.5,0.1-29.2,0.2c-6.6,0-13.2-0.2-19.8-0.1
	c-7.5,0.2-13.6,5.9-13.8,13.1c-0.2,7.5-0.2,15,0,22.4c0.2,7.4,5.9,13,13.2,13.1C244.6,210.7,251.2,210.6,257.8,210.5z"/>
<path class="st16" d="M108.5,8.1c-0.3,0.3-0.5,0.6-0.8,0.9c-13.9,3.1-23.3,14.6-23.3,29.1c-0.1,67.4,0,134.9,0,202.3
	c-4.7,0.1-9.5,0.1-14.2,0.3c-8,0.3-14.2,6.3-14.7,14.2c-0.4,7.2,4.9,13.7,12.4,15c0,0.2,0.1,0.4,0,0.5c-11.4,3.2-15.3,12.6-9.7,23.3
	c-1,0-2,0.1-3,0.1c-16.2,1-29.4,7.7-38.4,21.6c-2.9,3.6-4.9,7.5-5.8,12.1c-1.4,2.8-1.8,5.9-2.1,9c-0.4,0.7,0.2,1.8-0.9,2.2
	c0-109.1,0-218.2-0.1-327.2C8,8.6,8.6,8,11.5,8C43.8,8.1,76.2,8.1,108.5,8.1z"/>
<path class="st16" d="M391.9,176c-0.7-2.7-1.3-5.5-2.1-8.2c-5.4-18.5-21.8-30.8-41-30.8c-11.6,0-23.2-0.1-34.7-0.1
	c0-21.4-0.1-42.8-0.1-64.3c0-3.8-1-7.3-2.9-10.6c-1-2.6-2.6-4.8-4.5-6.8C294.8,42.6,282.9,30,271,17.4c-2.5-2.6-5.3-4.9-8.7-6.2
	c-2.3-1.7-5.2-1.8-7.6-3.1c44.7,0,89.5,0,134.2-0.1c2.6,0,3.1,0.5,3.1,3.1C391.9,66.1,391.9,121,391.9,176z"/>
<path class="st17" d="M220.2,141.2c-0.1,0.5-0.1,1.1-0.3,1.4c-5.6,8.4-6.6,17.7-6.6,27.5c0.2,55,0.2,110,0,165.1
	c0,10.1,3,18.8,9,26.7c0.8,1.1,1.5,2.3,3.2,2.3c0,0-0.1,0-0.1,0c0,0.6,0.2,1.2,0.8,1.5l0,0c0.4,0.6,0.9,0.8,1.5,0.8l0-0.1
	c2.4,4.5,7,6.2,11.2,8.1c5.4,2.4,11.1,3.3,17.1,3.3c36.7-0.1,73.4-0.1,110.1,0c5.6,0,10.8-1.6,16.2-2.3c-4.3,5.9-10,10-16.6,13
	c-3.6,1.7-7.6,2.1-11.3,3.5c-40.7,0-81.5,0-122.2,0c-0.5-0.7-1.3-0.6-2-0.8c-17.7-4-28.9-14.7-33.6-32.3c-1.8-6.6-0.8-13.4-1.2-20.1
	c0-9.3,0-18.6,0-27.9c0-13,0.1-26,0.1-38.9c0-30.9-0.3-61.9,0.1-92.8C195.8,161.7,204.5,148.9,220.2,141.2z"/>
<path class="st16" d="M195.4,338.8c0.4,6.7-0.5,13.5,1.2,20.1c4.7,17.5,16,28.2,33.6,32.3c0.7,0.2,1.5,0,2,0.8
	c-73.6,0-147.2,0-220.9,0.1c-2.9,0-3.4-0.8-3.4-3.5c0.1-13.8,0.1-27.7,0.1-41.5c0.3,0.3,0.6,0.5,0.9,0.8c0.3,3.9,1.1,7.7,2.8,11.3
	c1.1,3.9,3,7.5,5.7,10.6c1.4,2.4,3.3,4.4,5.2,6.3c12,11.9,26.7,15.4,43.1,14c8.4,1.2,16.6,0,24.8-1.7c23.8,0,47.7,0.1,71.5,0.1
	c2.8,0,5.3-1.1,7.6-2.8c4.8-3.7,6.7-8.6,5.6-14.5c-1.2-6.4-5.4-10.1-11.6-11.8c10.7-5.5,13.3-10.3,11.1-20.2
	C181.6,338.8,188.5,338.8,195.4,338.8z"/>
<path class="st16" d="M354.5,391.9c3.7-1.4,7.7-1.8,11.3-3.5c6.6-3,12.3-7.1,16.6-13c5.1-5.6,7.5-12.5,8.8-19.8
	c0.1-0.7-0.1-1.5,0.8-1.9c0,12,0,24,0.1,36c0,1.9-0.4,2.3-2.3,2.3C377.9,391.9,366.2,391.9,354.5,391.9z"/>
<path class="st18" d="M9,347.7c-0.3-0.3-0.6-0.5-0.9-0.8c0-2.7,0-5.5,0-8.2c1.1-0.4,0.5-1.5,0.9-2.2c6.2,0,12.4,0,18.6,0
	c0.1,2.5,0.1,4.9,0.2,7.4c-0.1,1.3-0.1,2.6-0.2,3.8C21.3,347.7,15.1,347.7,9,347.7z"/>
<path class="st19" d="M84.4,240.4c0-67.4-0.1-134.9,0-202.3c0-14.5,9.4-26,23.3-29.1c0,67.4,0,134.9,0,202.3c0,9.7,0,19.5,0,29.2
	C100,240.4,92.2,240.4,84.4,240.4z"/>
<path class="st20" d="M84.4,240.4c7.8,0,15.6,0.1,23.4,0.1c17.4,0,34.9,0,52.3,0.1c9.6,0.1,15.8,6.8,15.3,16.3
	c-0.4,6.4-5,11.4-12,12.9c-17.6,0-35.1-0.1-52.7-0.1c-1,0-2-0.1-2.8,0.7c-7.8,0-15.6,0-23.4,0c-5.5-1.5-11.1-0.5-16.6-0.6
	c-7.5-1.4-12.8-7.8-12.4-15c0.5-7.8,6.7-13.9,14.7-14.2C74.9,240.4,79.7,240.4,84.4,240.4z"/>
<path class="st21" d="M84.5,270.4c7.8,0,15.6,0,23.4,0c18.5,0,37-0.1,55.5-0.1c7.4,2.2,11.6,6.7,12,13.1c0.5,7.3-2.5,12.1-9.8,15.4
	c-0.7,0.3-1.4,0.5-1.4,1.5c-1.8-0.2-3.7-0.6-5.5-0.6c-19.8,0-39.6,0-59.3,0c-9-4.2-18.3-6.6-28.3-6c-4.3,0-8.5,0-12.8-0.1
	c-5.6-10.8-1.7-20.1,9.7-23.3C73.4,270.4,79,270.4,84.5,270.4z"/>
<path class="st1" d="M172.2,194.9c0,10.5-4.7,17.4-14.4,20.7c-1.8,0.6-2.4,1.4-2.3,3.2c0.1,2.2-0.1,4.3-1.9,5.8
	c-1.6,1.4-3.5,2-5.5,1.1c-2.3-1-3.8-2.7-3.5-5.2c0.4-3.3-1-4.5-4.1-5.2c-4.3-1-8.1-3.3-10.9-6.8c-1.7-2.1-2.4-4.4-1.2-6.9
	c1.7-3.7,5.1-4.3,8.1-1c4.1,4.6,9.1,6.2,15.1,5.6c4.5-0.5,8-2.2,9.4-6.7c1.6-5.2,0.1-10.7-3.6-13.7c-2.4-1.9-5.2-3-7.9-4.1
	c-2.7-1.1-5.3-2.1-8-3.2c-8.3-3.7-12.5-10-11.9-19.2c0.5-8.6,4.8-14.2,12.9-16.9c1.7-0.5,2.2-1.4,2.1-3c-0.1-0.9,0-1.7,0-2.6
	c0.2-3.3,2.4-5.7,5.3-5.6c3.2,0.1,5.6,1.9,5.5,5c-0.3,4.5,1.9,5.5,5.6,5.8c2.5,0.2,4.8,1.2,6.9,2.7c2.6,1.8,3.5,4.3,1.9,7.1
	c-1.6,2.9-3.9,3.7-6.9,2.1c-4.1-2.2-8.4-3-13-2.7c-5.4,0.4-8.6,2.7-9.5,6.9c-1,4.5,0.9,8.2,5.8,10.5c4.1,1.9,8.3,3.4,12.4,5.1
	C167.9,177.7,172.3,184.9,172.2,194.9z"/>
<path class="st22" d="M99.3,299.8c19.8,0,39.6,0,59.3,0c1.8,0,3.7,0.4,5.5,0.6c6,1.1,9.1,5.3,11.1,10.6c0.2,10.8-3.2,16-12,18.1
	c-13.8,0-27.5,0-41.3-0.1c-2.4-6.6-5.4-12.9-10-18.3C108.4,306.3,103.8,303.2,99.3,299.8z"/>
<path class="st19" d="M262.3,11.2c3.4,1.4,6.2,3.6,8.7,6.2c11.9,12.6,23.8,25.1,35.6,37.7c1.9,2,3.4,4.3,4.5,6.8
	c-0.9,1.2-2.3,0.9-3.5,0.9c-11.3,0-22.7,0-34,0c-6.5,0-11.3-4.7-11.4-11.3C262.2,38.1,262.3,24.6,262.3,11.2z"/>
<path class="st23" d="M180.1,81.5c16.4,0,32.7,0,49.1,0c1.1,0,2.3-0.1,3.4,0.1c2.9,0.5,4.7,2.2,4.9,5.3c0.2,3.2-1.3,5.3-4.4,6
	c-1.4,0.3-3,0.3-4.5,0.3c-32.4,0-64.7,0-97.1,0c-6.3,0-9-1.8-8.9-6c0.1-4,2.6-5.7,8.7-5.7C147.7,81.5,163.9,81.5,180.1,81.5z"/>
<path class="st23" d="M219.9,110.5c16.1,0,32.2,0,48.3,0c2.6,0,5,0.3,6.5,2.8c2.1,3.4,0.1,7.9-3.9,8.7c-0.8,0.2-1.7,0.1-2.6,0.1
	c-32.1,0-64.2,0-96.3,0c-3.5,0-6.3-0.8-7.2-4.5c-1-4,1.7-7,6.4-7c13.7-0.1,27.5,0,41.2,0C214.9,110.5,217.4,110.5,219.9,110.5z"/>
<path class="st19" d="M163.4,329c8.7-2.1,12.2-7.3,12-18.1c6.7,0,13.4,0,20.1,0c0,9.3,0,18.6,0,27.9c-6.9,0-13.7,0-20.6,0
	c-2.3-4.9-5.9-8.3-11.4-9.2C163.3,329.4,163.3,329.2,163.4,329z"/>
<path class="st23" d="M137.4,122.1c-3,0-6,0.1-9,0c-3.5-0.1-5.7-2.5-5.7-5.7c0-3.3,2.1-5.7,5.6-5.8c6.2-0.2,12.5-0.1,18.7,0
	c3.4,0.1,5.7,2.5,5.8,5.6c0,3.3-2.4,5.7-6,5.8C143.7,122.2,140.5,122.1,137.4,122.1C137.4,122.1,137.4,122.1,137.4,122.1z"/>
<path class="st23" d="M262.5,93.2c-2.5,0-5,0.2-7.5,0c-3.7-0.3-5.8-2.7-5.7-6.1c0.2-3.2,2.4-5.4,5.9-5.5c4.7-0.1,9.5-0.1,14.2,0
	c3.6,0.1,6.1,2.5,6.1,5.7c0,3-2.3,5.6-5.6,5.8C267.5,93.4,265,93.2,262.5,93.2z"/>
<path class="st24" d="M163.4,270.3c-18.5,0-37,0.1-55.5,0.1c0.8-0.8,1.8-0.7,2.8-0.7c17.6,0,35.1,0,52.7,0.1
	C163.4,270,163.4,270.2,163.4,270.3z"/>
<path class="st25" d="M258.4,162c9.7-0.1,19.5-0.2,29.2-0.2c19.7,0,39.5,0,59.2,0c8.8,0,14.4,4.3,15.4,13c0.9,7.9,1,16-0.1,23.9
	c-1.2,8-6.4,12.4-14.4,12.4c-28.7,0.1-57.5,0.1-86.2,0c-1.2,0-2.5-0.4-3.7-0.6c-7.4-3.4-10.4-9.1-9.8-17.1c0.3-4.2,0.3-8.5,0-12.7
	C247.2,172,250.2,165.6,258.4,162z"/>
<path class="st14" d="M330.4,346.1c-0.2-1.9-0.5-3.7-0.5-5.6c0-14.6,0-29.2,0-43.8c0-8.4,3.7-12,12.1-12c3.9,0,7.7-0.1,11.6,0
	c5.2,0.2,9.1,3.9,9.1,9c0.1,17.2,0,34.5-0.1,51.7c-2.9,5.4-7.2,8.3-13.6,7.5c-1.3-0.2-2.7-0.2-4.1,0
	C338.6,353.8,333.9,351.3,330.4,346.1z"/>
<path class="st26" d="M258.4,162c-8.2,3.6-11.2,10-10.5,18.7c0.3,4.2,0.3,8.5,0,12.7c-0.5,8,2.5,13.8,9.8,17.1
	c-6.6,0-13.2,0.2-19.8,0.1c-7.3-0.1-13-5.7-13.2-13.1c-0.2-7.5-0.2-15,0-22.4c0.2-7.2,6.3-13,13.8-13.1
	C245.2,161.7,251.8,161.9,258.4,162z"/>
<path class="st14" d="M224.9,248.7c0-3.1-0.1-6.2-0.1-9.4c0-3.6,1.7-6.1,5.4-6.5c7.2-0.9,14.4-0.7,21.6-0.1c3.4,0.3,5.5,2.6,5.8,5.9
	c0.3,3.6,0.6,7.2-0.4,10.8C246.3,252.7,235.5,253.6,224.9,248.7z"/>
<path class="st14" d="M277.3,248.7c0-3-0.1-6-0.1-8.9c0.1-4.4,2-7,6.3-7.2c6.6-0.3,13.2-0.3,19.7,0c4.6,0.2,6.8,3,6.9,7.7
	c0,2.8,0.4,5.7-0.5,8.5C298.8,253.5,288.1,253.3,277.3,248.7z"/>
<path class="st14" d="M330.4,248c-0.9-2.9-0.7-6-0.4-8.9c0.3-4,2.7-6.3,6.9-6.5c6.4-0.2,12.7-0.3,19.1,0c4.6,0.2,6.7,2.6,6.8,7.2
	c0.1,2.5-0.1,5-0.2,7.5c-2.1,3.4-5.2,4.6-9.1,4.5c-4-0.2-8-0.2-11.9,0C337.3,252,333.5,251.2,330.4,248z"/>
<path class="st14" d="M277.3,350.7c0-3.2-0.2-6.5-0.1-9.7c0.1-4.2,2.3-6.6,6.4-6.7c6.6-0.2,13.2-0.1,19.8,0c3.7,0.1,6.3,2.5,6.6,6.4
	c0.3,3.3,0.6,6.7-0.4,10C298.8,354.3,288.1,354.3,277.3,350.7z"/>
<path class="st14" d="M277.3,300.5c0-3-0.2-6-0.1-8.9c0.1-4.5,2.4-6.8,7-6.8c6.2-0.1,12.4-0.1,18.6,0c4.2,0,6.9,2.3,7.2,6.5
	c0.3,3.3,0.5,6.7-0.4,10C298.7,304.5,288,305.6,277.3,300.5z"/>
<path class="st14" d="M224.9,300.5c0-3.1-0.2-6.2-0.1-9.3c0.1-3.7,2.6-6.4,6.3-6.4c6.6-0.1,13.2-0.1,19.8,0c3.9,0.1,6.6,2.6,6.8,6.5
	c0.1,3.1-0.2,6.2-0.3,9.3c-3.5,3.1-7.8,3.3-12.2,3C238.4,302.9,231.1,305.4,224.9,300.5z"/>
<path class="st14" d="M224.9,350c0-3-0.1-6-0.1-9c0.1-4,2.5-6.6,6.5-6.7c6.6-0.1,13.2-0.1,19.8,0c3.7,0.1,6.4,2.7,6.6,6.4
	c0.2,3.1,0.3,6.2-0.2,9.3c-3.6,3.1-7.8,3.4-12.2,2.9C238.4,352.3,231,355,224.9,350z"/>
<path class="st27" d="M224.9,300.5c6.2,4.9,13.5,2.4,20.4,3c4.4,0.4,8.6,0.1,12.2-3c0.1,3.4,0.3,6.7,0.1,10c-0.3,4.7-2.7,7-7.5,7
	c-6.1,0.1-12.2,0.1-18.3,0c-4.4-0.1-6.9-2.7-7-7C224.7,307.2,224.8,303.8,224.9,300.5z"/>
<path class="st27" d="M224.9,350c6.2,5.1,13.5,2.3,20.3,3c4.4,0.4,8.7,0.2,12.2-2.9c0.1,3.4,0.3,6.7,0.1,10.1
	c-0.2,3.5-1.8,6.7-5.6,6.8c-8,0.3-16.1,1-24.2-0.5c0,0,0,0.1,0,0.1c-0.3-0.6-0.8-0.9-1.5-0.8c0,0,0,0,0,0c0.1-0.7-0.2-1.2-0.8-1.5
	c0,0,0.1,0,0.1,0C224.1,359.5,224.9,354.7,224.9,350z"/>
<path class="st27" d="M330.4,346.1c3.5,5.1,8.2,7.7,14.6,6.8c1.3-0.2,2.7-0.2,4.1,0c6.4,0.8,10.7-2.1,13.6-7.5
	c0,3.6,0.2,7.2,0.1,10.8c-0.2,6.1-4.5,10.5-10.7,10.8c-3.7,0.2-7.5,0.2-11.2,0c-6-0.3-10.3-4.5-10.5-10.5
	C330.2,353.1,330.4,349.6,330.4,346.1z"/>
<path class="st27" d="M277.3,300.5c10.7,5.1,21.4,4,32.3,0.7c0,3.2,0.1,6.5,0,9.7c-0.1,4.2-2.3,6.6-6.4,6.7
	c-6.5,0.2-12.9,0.2-19.4,0c-4.1-0.1-6.5-2.8-6.6-7C277.2,307.2,277.3,303.8,277.3,300.5z"/>
<path class="st27" d="M277.3,350.7c10.8,3.6,21.5,3.6,32.3,0c0,3.2,0.1,6.5,0,9.7c-0.1,4.2-2.3,6.6-6.4,6.7
	c-6.5,0.2-12.9,0.2-19.4,0c-4-0.1-6.4-2.7-6.6-6.7C277.1,357.2,277.3,353.9,277.3,350.7z"/>
<path class="st27" d="M224.9,248.7c10.7,4.9,21.5,3.9,32.3,0.7c0.1,2.9,0.4,5.7,0.4,8.6c-0.1,4.9-2.6,7.3-7.4,7.3
	c-6.1,0-12.2,0.1-18.3,0c-4.6-0.1-6.9-2.3-7-6.9C224.7,255.2,224.8,252,224.9,248.7z"/>
<path class="st27" d="M330.4,248c3.1,3.2,6.9,4.1,11.2,3.8c4-0.2,7.9-0.2,11.9,0c3.9,0.2,7-1.1,9.1-4.5c0,3.9,0.2,7.7,0.1,11.6
	c-0.1,4-2.3,6.3-6.3,6.4c-6.6,0.1-13.2,0.1-19.9,0c-4-0.1-6.1-2.4-6.3-6.4C330.2,255.2,330.4,251.6,330.4,248z"/>
<path class="st27" d="M277.3,248.7c10.8,4.6,21.5,4.7,32.3,0c0,3.5,0.1,7,0,10.4c-0.1,3.8-2.3,6-6.1,6.1c-6.7,0.1-13.4,0.1-20.1,0
	c-3.9-0.1-6.1-2.5-6.2-6.5C277.1,255.4,277.3,252.1,277.3,248.7z"/>
<path class="st28" d="M58.2,293.7c4.3,0,8.5,0,12.8,0.1c-14.9,2.3-27.1,9.3-35.8,21.7c-6.1,0-12.2-0.1-18.3-0.1
	c9-13.9,22.1-20.5,38.4-21.6C56.3,293.8,57.3,293.7,58.2,293.7z"/>
<path class="st18" d="M16.9,315.4c6.1,0,12.2,0.1,18.3,0.1c-1.9,4-3.8,8.1-5.7,12.1c-6.1-0.1-12.2-0.1-18.3-0.2
	C12,322.9,14,318.9,16.9,315.4z"/>
<path class="st28" d="M11.1,327.4c6.1,0.1,12.2,0.1,18.3,0.2c-0.6,2.9-1.3,5.9-1.9,8.8c-6.2,0-12.4,0-18.6,0
	C9.3,333.3,9.8,330.3,11.1,327.4z"/>
<path class="st24" d="M84.5,270.4c-5.5,0-11.1,0-16.6-0.1c0-0.2,0-0.4,0-0.5C73.4,270,79,268.9,84.5,270.4z"/>
<path class="st29" d="M226.2,365.6c0.7-0.1,1.2,0.2,1.5,0.8C227.1,366.4,226.6,366.2,226.2,365.6z"/>
<path class="st29" d="M225.5,364.1c0.6,0.4,0.9,0.8,0.8,1.5C225.7,365.3,225.5,364.8,225.5,364.1z"/>
<path class="st18" d="M163.6,359c6.2,1.7,10.4,5.4,11.6,11.8c1.1,5.9-0.8,10.8-5.6,14.5c-2.2,1.7-4.7,2.8-7.6,2.8
	c-23.8,0-47.7-0.1-71.5-0.1c14.2-5.5,24.6-14.8,30.2-29.1C135,359,149.3,359,163.6,359z"/>
<path class="st20" d="M120.7,359c-5.6,14.3-16,23.7-30.2,29.1c-8.2,1.8-16.4,2.9-24.8,1.7c-0.4-0.3-0.7-0.8-1.1-0.9
	c-12-3-21.6-9.6-28.9-19.6c-1.9-3.8-3.9-7.6-5.8-11.3c-0.8-3.5-1.6-6.9-2.4-10.4c0.1-1.3,0.1-2.6,0.2-3.8c3.9,0,7.8,0,11.7,0
	c1.2,6,2.2,12,5.8,17.2c8.4,12.3,20.1,17.7,34.8,16.6c9.9-1.6,18.1-5.9,24.2-14.1c4.4-5.9,6.3-12.6,7.4-19.7c3.9,0,7.8,0,11.8,0
	C124,349.2,122.3,354.1,120.7,359z"/>
<path class="st28" d="M120.7,359c1.6-4.9,3.3-9.8,2.7-15.1c0.7-4.8-0.5-9.5-1.2-14.2c13.7,0,27.4-0.1,41.1-0.1
	c5.6,0.9,9.1,4.3,11.4,9.2c2.2,9.9-0.4,14.7-11.1,20.2C149.3,359,135,359,120.7,359z"/>
<path class="st28" d="M35.8,369.4c7.3,10,16.8,16.6,28.9,19.6c0.4,0.1,0.7,0.6,1.1,0.9c-16.3,1.5-31.1-2-43.1-14
	c-1.9-1.9-3.8-3.9-5.2-6.3C23.5,369.5,29.7,369.5,35.8,369.4z"/>
<path class="st18" d="M35.8,369.4c-6.1,0.1-12.2,0.1-18.3,0.2c-2.6-3.1-4.6-6.6-5.7-10.6c1.1-1.2,2.5-0.8,3.8-0.8
	c4.8-0.1,9.6-0.1,14.4-0.1C31.9,361.9,33.8,365.6,35.8,369.4z"/>
<path class="st28" d="M29.9,358.1c-4.8,0-9.6,0-14.4,0.1c-1.3,0-2.7-0.3-3.8,0.8c-1.7-3.6-2.5-7.4-2.8-11.3c6.2,0,12.4,0,18.6,0
	C28.3,351.2,29.1,354.6,29.9,358.1z"/>
<path class="st30" d="M122.2,329.7c0.7,4.7,1.9,9.3,1.2,14.2c-3.9,0-7.8,0-11.8,0c0-5-0.6-9.9-2.4-14.6
	c-4.7-12.6-17.5-22.6-29.3-22.7c-8.2-1.4-15.9,0.3-22.9,4.6c-12.2,7.4-17.8,18.6-17.8,32.8c-3.9,0-7.8,0-11.7,0
	c-0.1-2.5-0.1-4.9-0.2-7.4c0.6-2.9,1.3-5.9,1.9-8.8c1.9-4,3.8-8.1,5.8-12.1C44,303,56.1,296.1,71,293.7c10-0.6,19.4,1.8,28.3,6
	c4.4,3.4,9.1,6.5,12.8,10.9c4.6,5.4,7.6,11.7,10,18.3C122.1,329.2,122.2,329.5,122.2,329.7z"/>
<path class="st21" d="M122.2,329.7c0-0.3-0.1-0.5-0.1-0.8c13.8,0,27.5,0,41.3,0.1c0,0.2-0.1,0.4,0,0.6
	C149.6,329.6,135.9,329.7,122.2,329.7z"/>
<path class="st22" d="M80.1,306.5c11.7,0.1,24.6,10.2,29.3,22.7c1.8,4.7,2.3,9.6,2.4,14.6c-1.1,7.1-3.1,13.9-7.4,19.7
	c-6.1,8.1-14.3,12.5-24.2,14.1c-1.1-0.5-2.2-1-3.4-1.5c-16.9-6.1-26.9-22.1-24.1-39.8c2.1-13.4,10-22.8,22.7-27.9
	C76.8,307.8,78.7,307.6,80.1,306.5z M92.7,351.8c-0.2-8.1-3.7-13.3-10.5-16.1c-2.1-0.9-4.2-1.5-6.2-2.5c-1.4-0.7-3.1-1.7-2.5-3.7
	c0.5-1.7,2-2,3.6-2c2.2-0.1,4.2,0.1,6.1,1.3c2.3,1.4,4.4,0.8,6.2-0.8c2-1.7,2.3-4.2,1.5-6.5c-0.8-2.4-3.2-3.5-5.5-4.2
	c-1.8-0.5-2.9-1.1-3.5-3.2c-0.8-2.6-3-4-5.8-3.8c-2.7,0.3-4.7,1.7-5.2,4.6c-0.2,1.5-0.8,2.5-2.2,3.2c-6.1,3.2-7.4,8.6-6.8,14.9
	c0.5,5.7,4.3,8.8,9.1,10.9c2.5,1.1,5.1,2,7.6,3.2c2.4,1.1,2.4,3.3,2,5.5c-0.5,2.3-2.3,2.5-4.3,2.6c-2.6,0.1-4.5-1-6.2-2.9
	c-2.2-2.3-4.7-2.3-7-0.5c-2.3,1.7-3,4.2-1.8,7c1.2,3,3.6,4.7,6.4,5.9c1.8,0.8,3.1,1.6,3.6,3.8c0.6,2.6,3,3.7,5.5,3.6
	c2.3,0,4.4-1.2,5.1-3.7c0.5-1.6,1-2.9,2.7-3.7C90.4,362.1,92,356.8,92.7,351.8z"/>
<path class="st28" d="M80.1,306.5c-1.4,1.2-3.2,1.3-4.8,1.9c-12.8,5.1-20.6,14.5-22.7,27.9c-2.8,17.7,7.2,33.7,24.1,39.8
	c1.2,0.4,2.3,1,3.4,1.5c-14.8,1.1-26.4-4.3-34.8-16.6c-3.5-5.2-4.6-11.2-5.8-17.2c0-14.2,5.6-25.4,17.8-32.8
	C64.2,306.8,71.8,305,80.1,306.5z"/>
<path class="st18" d="M92.7,351.8c-0.7,5-2.3,10.3-8.1,13c-1.7,0.8-2.2,2.1-2.7,3.7c-0.7,2.5-2.8,3.6-5.1,3.7
	c-2.5,0-4.9-1.1-5.5-3.6c-0.5-2.2-1.9-3-3.6-3.8c-2.8-1.2-5.2-2.9-6.4-5.9c-1.2-2.8-0.4-5.3,1.8-7c2.3-1.8,4.9-1.8,7,0.5
	c1.7,1.8,3.6,3,6.2,2.9c2-0.1,3.9-0.3,4.3-2.6c0.4-2.2,0.4-4.4-2-5.5c-2.5-1.2-5-2.1-7.6-3.2c-4.8-2.1-8.5-5.2-9.1-10.9
	c-0.6-6.3,0.7-11.7,6.8-14.9c1.4-0.7,2-1.6,2.2-3.2c0.4-2.9,2.5-4.3,5.2-4.6c2.8-0.3,5,1.2,5.8,3.8c0.6,2.1,1.7,2.7,3.5,3.2
	c2.3,0.7,4.6,1.7,5.5,4.2c0.8,2.4,0.5,4.8-1.5,6.5c-1.8,1.6-3.9,2.1-6.2,0.8c-1.9-1.2-4-1.4-6.1-1.3c-1.6,0.1-3.1,0.4-3.6,2
	c-0.6,2,1,3,2.5,3.7c2,1,4.2,1.7,6.2,2.5C89.1,338.5,92.6,343.7,92.7,351.8z"/>
</svg>
