<?xml version="1.0" encoding="utf-8"?>
<!-- Generator: Adobe Illustrator 25.4.1, SVG Export Plug-In . SVG Version: 6.00 Build 0)  -->
<svg version="1.1" id="Capa_1" xmlns="http://www.w3.org/2000/svg" xmlns:xlink="http://www.w3.org/1999/xlink" x="0px" y="0px"
	 viewBox="0 0 400 400" style="enable-background:new 0 0 400 400;" xml:space="preserve">
<style type="text/css">
	.st0{fill:#FFFFFF;}
</style>
<g>
	<path class="st0" d="M255.4,99.2c-11.4-9.1-25.5-15.1-40.8-17.4V67.6h-29.2v14.2c-15.3,2.3-29.4,8.3-40.8,17.4
		c-15.9,12.7-24.6,29.9-24.6,48.4c0,18.5,8.8,35.7,24.6,48.4c13.2,10.6,27.8,15.1,40.8,17.1v75c-8.5-1.8-16.4-5.2-22.6-10.2
		c-8.8-7.1-13.7-16.2-13.7-25.6v-1.5H120v1.5c0,18.5,8.7,35.7,24.6,48.4c11.4,9.1,25.5,15.1,40.8,17.4v14.2h29.2v-14.2
		c15.3-2.3,29.4-8.3,40.8-17.4c15.9-12.7,24.6-29.9,24.6-48.4s-8.8-35.7-24.6-48.4c-13.1-10.5-28-14.9-40.8-16.9v-75.2
		c8.5,1.8,16.4,5.2,22.6,10.2c8.8,7.1,13.7,16.2,13.7,25.6v1.5H280v-1.5C280,129.1,271.3,111.9,255.4,99.2z M185.4,183.5
		c-9.2-2-16.4-5.2-22.6-10.2c-8.8-7.1-13.7-16.2-13.7-25.6c0-9.5,4.9-18.6,13.7-25.6c6.2-5,14.1-8.4,22.6-10.2V183.5z M214.6,216.7
		c9.3,2,16.7,5.3,22.6,10c8.8,7.1,13.7,16.2,13.7,25.6c0,9.5-4.9,18.6-13.7,25.6c-6.2,5-14.1,8.4-22.6,10.2V216.7z"/>
	<path class="st0" d="M200,2.1C90.9,2.1,2.1,90.9,2.1,200S90.9,397.9,200,397.9S397.9,309.1,397.9,200S309.1,2.1,200,2.1z
		 M200,368.7C107,368.7,31.3,293,31.3,200S107,31.3,200,31.3S368.7,107,368.7,200S293,368.7,200,368.7z"/>
</g>
</svg>
