<?xml version="1.0" encoding="utf-8"?>
<!-- Generator: Adobe Illustrator 23.0.4, SVG Export Plug-In . SVG Version: 6.00 Build 0)  -->
<svg version="1.1" id="Layer_1" xmlns="http://www.w3.org/2000/svg" xmlns:xlink="http://www.w3.org/1999/xlink" x="0px" y="0px"
	 viewBox="0 0 512 512" style="enable-background:new 0 0 512 512;" xml:space="preserve">
<style type="text/css">
	.st0{fill:none;stroke:#FFFFFF;stroke-width:27.8103;stroke-miterlimit:10;}
	.st1{fill:#FFFFFF;stroke:#FFFFFF;stroke-width:7.9525;stroke-miterlimit:10;}
</style>
<g>
	<circle class="st0" cx="256" cy="256" r="235.6"/>
	<g>
		<path class="st1" d="M451.4,260.7c0,31.3-7.6,62.6-22.4,90.5c-2.5,5.1-7.6,8-13.1,8c-2.5,0-4.6-0.4-6.8-1.7
			c-7.2-3.8-10.1-12.7-5.9-19.9c12.3-23.3,19-49.9,19-76.5c0-62.2-36.4-120.1-92.6-147.2c-7.2-3.4-10.6-12.3-6.8-19.9
			c3.4-7.2,12.3-10.6,19.9-6.8c32.1,15.7,59.6,39.7,78.7,69.8C440.8,187.9,451.4,223.9,451.4,260.7z"/>
		<path class="st1" d="M321.2,216.7c0,8-6.8,14.8-14.8,14.8c-8,0-14.8-6.8-14.8-14.8c0-15.7-14.8-28.3-32.6-28.3
			c-17.8,0-32.6,12.7-32.6,28.3c0,15.7,14.8,28.3,32.6,28.3c34.2,0,62.2,25.8,62.2,57.9c0,27.1-20.3,49.9-47.4,56.2v6.3
			c0,8-6.8,14.8-14.8,14.8c-8,0-14.8-6.8-14.8-14.8v-6.3c-27.1-6.3-47.4-29.2-47.4-56.2c0-8,6.8-14.8,14.8-14.8
			c8,0,14.8,6.8,14.8,14.8c0,15.7,14.8,28.3,32.6,28.3c17.8,0,32.6-12.7,32.6-28.3c0-15.7-14.8-28.3-32.6-28.3
			c-34.2,0-62.2-25.8-62.2-57.9c0-27.1,20.3-49.9,47.4-56.2v-7.6c0-8,6.8-14.8,14.8-14.8c8,0,14.8,6.8,14.8,14.8v7.6
			C300.9,166.8,321.2,189.6,321.2,216.7z"/>
		<path class="st1" d="M282.3,68.3c8,0,14.8,6.8,14.8,14.8s-6.8,14.8-14.8,14.8l0,0h-0.8c-8,0-14.8-6.8-14.8-14.8
			s6.8-14.8,14.8-14.8H282.3z"/>
		<path class="st1" d="M188.4,407.8c7.2,3.4,10.6,12.3,6.8,19.9c-2.5,5.5-8,8.5-13.5,8.5c-2.1,0-4.2-0.4-6.3-1.3
			c-32.1-15.7-59.6-39.7-78.7-69.8c-19.9-30.9-30.4-66.8-30.4-104c0-31.7,7.6-62.6,22.4-90.5c3.8-7.2,12.7-10.1,19.9-6.3
			c7.2,3.8,10.1,12.7,5.9,19.9c-12.3,23.3-19,49.9-19,76.5C95.8,323.3,132.2,380.8,188.4,407.8z"/>
	</g>
</g>
</svg>
