<?xml version="1.0" encoding="utf-8"?>
<!-- Generator: Adobe Illustrator 25.4.1, SVG Export Plug-In . SVG Version: 6.00 Build 0)  -->
<svg version="1.1" id="Capa_1" xmlns="http://www.w3.org/2000/svg" xmlns:xlink="http://www.w3.org/1999/xlink" x="0px" y="0px"
	 viewBox="0 0 512 512" style="enable-background:new 0 0 512 512;" xml:space="preserve">
<style type="text/css">
	.st0{fill:url(#SVGID_1_);}
	.st1{fill:#EAF5FC;}
	.st2{opacity:0.41;fill:#D3DDFB;}
	.st3{fill:#CCD2DB;}
	.st4{fill:#E4EAF8;}
	.st5{fill:#FC6559;}
	.st6{fill:#999999;}
	.st7{fill:url(#SVGID_00000082360352233237995440000017017420952093119150_);}
	.st8{fill:#BFD6F7;}
	.st9{fill:#DCE7F7;}
	.st10{fill:url(#SVGID_00000153663687004368722620000017794855747827200388_);}
	.st11{fill:#60CACB;}
</style>
<linearGradient id="SVGID_1_" gradientUnits="userSpaceOnUse" x1="60.3024" y1="480.1526" x2="451.6984" y2="88.7567">
	<stop  offset="0" style="stop-color:#006DF0"/>
	<stop  offset="0.0358" style="stop-color:#057BEC"/>
	<stop  offset="0.1209" style="stop-color:#0F98E3"/>
	<stop  offset="0.2165" style="stop-color:#17B0DB"/>
	<stop  offset="0.3252" style="stop-color:#1DC2D6"/>
	<stop  offset="0.4548" style="stop-color:#22CED2"/>
	<stop  offset="0.6257" style="stop-color:#24D6D0"/>
	<stop  offset="1" style="stop-color:#25D8CF"/>
</linearGradient>
<path class="st0" d="M408.06,57.02c-15.61,0-68.54,0-84.15,0c0,0.03,0,0.06,0,0.09C160.92,57,207.29,57.02,103.94,57.02
	c-15.86,0-28.77,12.9-28.77,28.77v397.34c0,15.86,12.91,28.77,28.77,28.77h304.13c15.86,0,28.77-12.9,28.77-28.77V85.78
	C436.83,69.92,423.93,57.02,408.06,57.02z"/>
<path class="st1" d="M402.31,88.98c-6.93,0-289.32,0-292.62,0c-1.41,0-2.56,1.14-2.56,2.56v385.83c0,1.41,1.14,2.56,2.56,2.56
	h292.62c1.41,0,2.56-1.14,2.56-2.56V91.54C404.87,90.12,403.72,88.98,402.31,88.98z"/>
<path class="st2" d="M127.43,477.37V91.54c0-1.41,1.15-2.56,2.56-2.56c-12.27,0-19.77,0-20.3,0c-1.41,0-2.56,1.14-2.56,2.56v385.83
	c0,1.41,1.14,2.56,2.56,2.56h20.3C128.58,479.93,127.43,478.78,127.43,477.37z"/>
<path class="st3" d="M282.37,60.72c-4.2,0-7.61-3.41-7.61-7.61V33.87c0-10.34-8.41-18.76-18.76-18.76
	c-10.34,0-18.75,8.41-18.75,18.76v19.24c0,4.2-3.41,7.61-7.61,7.61c-4.21,0-7.61-3.41-7.61-7.61V33.87
	c0-18.74,15.24-33.98,33.98-33.98c18.74,0,33.98,15.24,33.98,33.98v19.24C289.98,57.31,286.57,60.72,282.37,60.72z"/>
<path class="st4" d="M315.86,49.05H196.14c-4.43,0-8.06,3.62-8.06,8.06v36.62c0,4.43,3.63,8.06,8.06,8.06h119.71
	c4.43,0,8.06-3.63,8.06-8.06V57.11C323.92,52.67,320.29,49.05,315.86,49.05z"/>
<path class="st3" d="M315.86,81.48H196.14c-4.43,0-8.06-3.62-8.06-8.06v20.3c0,4.43,3.62,8.06,8.06,8.06h119.71
	c4.43,0,8.06-3.63,8.06-8.06v-20.3C323.92,77.86,320.29,81.48,315.86,81.48z"/>
<g id="g2315_00000157991581462491720310000002388622277916738738_" transform="translate(306.8206,307.691)">
	<path id="path2317_00000008830441203374949050000011417870273493727659_" class="st5" d="M2.45-120.03H-30v-32.46h-41.63v32.46
		h-32.46v41.63h32.46v32.46H-30V-78.4H2.45V-120.03z"/>
</g>
<g id="g2319_00000070104336846771507130000002707504475969836972_" transform="translate(337.2794,177.0099)">
	<path id="path2321_00000123403211713087032440000002463413371710043051_" class="st6" d="M3.92,147.64h-174.19
		c-7.89-6.93-3.08-15.72,3.78-15.72H7.7C15.6,138.85,10.79,147.64,3.92,147.64"/>
</g>
<g id="g2323_00000107548454490274786520000015826656233108451976_" transform="translate(337.2794,138.1371)">
	<path id="path2325_00000131360276348297828040000005996712974722227599_" class="st6" d="M3.92,227.27h-174.19
		c-7.89-6.93-3.08-15.72,3.78-15.72H7.7C15.6,218.48,10.79,227.27,3.92,227.27"/>
</g>
<g id="g2327_00000142872817511510472260000015136263183988052652_" transform="translate(337.2794,99.2643)">
	<path id="path2329_00000085250718284548768790000005400467913356704904_" class="st6" d="M3.92,306.89h-174.19
		c-7.89-6.93-3.08-15.72,3.78-15.72H7.7C15.6,298.1,10.79,306.89,3.92,306.89"/>
</g>
<g>
	
		<linearGradient id="SVGID_00000147942486924942162650000010362093778190690992_" gradientUnits="userSpaceOnUse" x1="885.4708" y1="204.1282" x2="1005.1308" y2="204.1282" gradientTransform="matrix(1 0 0 -1 0 511.8898)">
		<stop  offset="0" style="stop-color:#00ADEA"/>
		<stop  offset="1" style="stop-color:#0783E9"/>
	</linearGradient>
	<polygon style="fill:url(#SVGID_00000147942486924942162650000010362093778190690992_);" points="958.6,374.24 1005.13,241.29 
		885.47,241.29 	"/>
	<rect x="705.99" y="41.86" class="st8" width="232.67" height="305.79"/>
	<rect x="679.4" y="15.27" class="st9" width="232.67" height="279.2"/>
	
		<linearGradient id="SVGID_00000072242591129194294860000008527732258957609369_" gradientUnits="userSpaceOnUse" x1="619.5708" y1="204.1282" x2="958.6008" y2="204.1282" gradientTransform="matrix(1 0 0 -1 0 511.8898)">
		<stop  offset="0" style="stop-color:#006DF0"/>
		<stop  offset="0.0358" style="stop-color:#057BEC"/>
		<stop  offset="0.1209" style="stop-color:#0F98E3"/>
		<stop  offset="0.2165" style="stop-color:#17B0DB"/>
		<stop  offset="0.3252" style="stop-color:#1DC2D6"/>
		<stop  offset="0.4548" style="stop-color:#22CED2"/>
		<stop  offset="0.6257" style="stop-color:#24D6D0"/>
		<stop  offset="1" style="stop-color:#25D8CF"/>
	</linearGradient>
	<polygon style="fill:url(#SVGID_00000072242591129194294860000008527732258957609369_);" points="958.6,374.24 885.47,241.29 
		619.57,241.29 692.69,374.24 	"/>
	<path class="st11" d="M732.58,61.81c-11.01,0-19.94-8.93-19.94-19.94v-6.65h13.3v6.65c0,3.67,2.98,6.65,6.65,6.65
		c3.67,0,6.65-2.98,6.65-6.65V8.63c0-7.35-5.95-13.3-13.3-13.3c-7.35,0-13.3,5.95-13.3,13.3v6.65h-13.3V8.63
		c0-14.69,11.91-26.59,26.59-26.59s26.59,11.91,26.59,26.59v33.24C752.52,52.88,743.59,61.81,732.58,61.81z"/>
	<polygon class="st5" points="838.94,75.1 812.35,75.1 812.35,48.51 785.76,48.51 785.76,75.1 759.17,75.1 759.17,101.69 
		785.76,101.69 785.76,128.28 812.35,128.28 812.35,101.69 838.94,101.69 	"/>
	<g>
		<rect x="719.28" y="148.23" class="st6" width="13.3" height="13.3"/>
		<rect x="745.87" y="148.23" class="st6" width="139.6" height="13.3"/>
		<rect x="705.99" y="174.82" class="st6" width="179.49" height="13.3"/>
		<rect x="705.99" y="201.41" class="st6" width="152.9" height="13.3"/>
		<rect x="877.7" y="41.86" class="st6" width="13.67" height="13.3"/>
		<rect x="878.83" y="68.45" class="st6" width="13.3" height="13.3"/>
	</g>
</g>
</svg>
