<?xml version="1.0" encoding="utf-8"?>
<!-- Generator: Adobe Illustrator 24.2.3, SVG Export Plug-In . SVG Version: 6.00 Build 0)  -->
<svg version="1.1" id="Capa_1" xmlns="http://www.w3.org/2000/svg" xmlns:xlink="http://www.w3.org/1999/xlink" x="0px" y="0px"
	 viewBox="0 0 200 200" style="enable-background:new 0 0 200 200;" xml:space="preserve">
<style type="text/css">
	.st0{fill:url(#SVGID_1_);stroke:url(#SVGID_2_);stroke-width:6;stroke-miterlimit:10;}
	.st1{fill:#FFFFFF;stroke:url(#SVGID_3_);stroke-width:5;stroke-miterlimit:10;}
	.st2{fill:#3366CC;}
	.st3{fill:url(#SVGID_4_);}
	.st4{fill:url(#SVGID_5_);}
	.st5{fill:url(#SVGID_6_);}
	.st6{fill:#FFFFFF;}
	.st7{fill:url(#SVGID_7_);}
	.st8{fill:#3366CC;stroke:url(#SVGID_8_);stroke-miterlimit:10;}
</style>
<linearGradient id="SVGID_1_" gradientUnits="userSpaceOnUse" x1="13.224" y1="100" x2="186.776" y2="100">
	<stop  offset="0" style="stop-color:#FFFFFF"/>
	<stop  offset="1" style="stop-color:#1CBEBE"/>
</linearGradient>
<linearGradient id="SVGID_2_" gradientUnits="userSpaceOnUse" x1="10.224" y1="100" x2="189.776" y2="100">
	<stop  offset="0" style="stop-color:#3366CC"/>
	<stop  offset="0.9141" style="stop-color:#3366CC"/>
</linearGradient>
<circle class="st0" cx="100" cy="100" r="86.8"/>
<linearGradient id="SVGID_3_" gradientUnits="userSpaceOnUse" x1="125.4822" y1="41.3871" x2="196.5909" y2="41.3871">
	<stop  offset="0" style="stop-color:#3366CC"/>
	<stop  offset="0.9141" style="stop-color:#3366CC"/>
</linearGradient>
<circle class="st1" cx="161" cy="41.4" r="33.1"/>
<path class="st2" d="M121.7,114.7c-0.9-10.1-7.4-17-17-18c-1.6-0.2-3.3-0.3-5-0.3c-1.3,0-2.7-0.1-4-0.2c-5.7-0.5-10.1-5-10.4-10.8
	c-0.3-5.9,3.4-10.8,9.1-11.9c1.6-0.3,3-0.4,4.5-0.4c2.1,0,4.2,0,6.3,0c4.1,0,8.4,0.1,12.5,0c1.6,0,2.8-0.6,3.5-1.6
	c0.6-0.8,0.7-1.9,0.4-3.1c-0.6-1.9-2.5-2.4-4.1-2.5l-13.9,0v-2.5c0-0.6,0-1.2,0-1.8c0-1,0-1.8,0-2.6c0-0.3,0-0.6-0.1-0.9
	c-0.1-0.8-0.1-1.7-0.3-2.2c-0.7-1.5-1.8-2.2-3.5-2c-2.3,0.2-2.8,1.5-3,2.4c-0.2,1.3-0.3,2.8-0.4,4.4c-0.1,1.1-0.1,2.2-0.2,3.3
	L96,65.5l-1.4,0.6c-0.7,0.3-1.3,0.4-1.8,0.5l-0.3,0.1c-8.6,2.3-14.4,9.6-14.3,18.1c0.1,8.7,5.9,16,14.4,18c2.2,0.5,4.7,0.6,7.3,0.7
	c1.2,0,2.4,0.1,3.6,0.1c5.3,0.3,9.6,3.7,10.9,8.6c0.9,3.4,0.3,7-1.8,9.8c-2.2,3-5.8,4.7-9.8,4.8C98,127,93.1,127,88.3,127
	c-1.6,0-3.2,0-4.7,0c-1.3,0-2.4,0.1-3.3,0.4c-1.3,0.4-2.2,2-2,3.6c0.2,2,1.5,3,3.7,3.1c2.5,0.1,5,0.1,7.6,0c1.3,0,2.7,0,4,0H96
	l0.2,2.3c0.2,1.8,0.2,3.5,0.3,5.1c0,0.7,0.1,1.5,0.1,2.2c0.4,2.3,2.5,2.5,3.4,2.5c1.4,0,2.9-0.7,3.3-2.5l0-0.1
	c0.3-1.4,0.4-2.9,0.3-4.4c-0.2-3.1,1.3-5.1,4.4-5.8C116.3,130.9,122.4,122.8,121.7,114.7z"/>
<g>
	<g id="XMLID_3_">
		<g>
			<path class="st2" d="M713.3,422c0.1,6.6-4.5,11.7-11.3,12.3c-1.5,0.1-3,0.1-4.5,0.1c-157.4,0-314.8,0-472.2,0
				c-1.7,0-3.4,0.1-5.1-0.1c-6.4-0.7-11.2-5.9-11.1-12.1s4.9-11.4,11.4-11.6c9.9-0.3,19.9-0.1,29.8-0.1c2,0,4,0,6.7,0
				c0-3.2,0-5.4,0-7.7c0-80.1,0-160.2,0-240.3c0-12.6,3.7-16.3,16.5-16.3c16.5,0,33,0,49.5,0c1.8,0,3.6,0,6,0c0-2.5,0-4.6,0-6.6
				c0-24.2,0-48.4,0-72.6c0-13.5,3.4-16.8,17.1-16.8c10.1,0,20.2,0,31.1,0c0-9.5,0-18.4,0-27.4c0-3-0.1-6,0.1-9
				c0.4-6.9,4.9-11.4,11.9-11.7C395,1.9,400.8,2,406.6,2c41.1,0,82.2,0,123.2,0c11.2,0,15.3,4.1,15.3,15.2c0,10.7,0,21.4,0,32.9
				c4.3,0,8.4,0,12.5,0c6.2,0,12.4,0,18.6,0c13.6,0,17.1,3.4,17.1,16.9c0,21.4,0,42.8,0,64.2c0,4.7,0,9.4,0,14.9c2.2,0,4.2,0,6.2,0
				c16.9,0,33.8,0,50.6,0c10.9,0,15.2,4.3,15.2,15.4c0,80.3,0,160.6,0,240.9c0,2.4,0,4.8,0,8c4,0,7.5,0,11,0
				c8.4,0,16.9-0.2,25.3,0.1C708.6,410.7,713.1,415.5,713.3,422z M640.9,410c0-80.2,0-159.8,0-239.6c-15.9,0-31.4,0-47.1,0
				c0,80,0,159.6,0,239.6C609.5,410,625,410,640.9,410z M568.8,410c0-112.2,0-223.9,0-335.6c-72,0-143.6,0-215.2,0
				c0,112,0,223.7,0,335.5c16.1,0,31.7,0,47.7,0c0-2.5,0-4.5,0-6.6c0-24.8,0-49.5,0-74.3c0-10.6,4.4-14.9,15.1-14.9
				c29.8,0,59.7,0,89.5,0c11.3,0,15.5,4.3,15.6,15.7c0,24.6,0,49.2,0,73.7c0,2,0,4,0,6.4C537.5,410,553,410,568.8,410z M521.1,49.7
				c0-8,0-15.6,0-23.5c-40,0-79.6,0-119.5,0c0,7.9,0,15.5,0,23.5C441.7,49.7,481.3,49.7,521.1,49.7z M497,410c0-23.9,0-47.4,0-71.3
				c-24.2,0-47.7,0-71.3,0c0,24,0,47.7,0,71.3C449.7,410,473.2,410,497,410z M328.8,410c0-80.1,0-159.9,0-239.6c-16,0-31.4,0-47.3,0
				c0,80.3,0,159.9,0,239.6C297.6,410,313.2,410,328.8,410z"/>
			
				<linearGradient id="SVGID_4_" gradientUnits="userSpaceOnUse" x1="593.8109" y1="-90.3517" x2="640.9109" y2="-90.3517" gradientTransform="matrix(1 0 0 -1 0 199.8898)">
				<stop  offset="0" style="stop-color:#FFFFFF"/>
				<stop  offset="0.1001" style="stop-color:#F9FDFD"/>
				<stop  offset="0.2348" style="stop-color:#E8F8F8"/>
				<stop  offset="0.3892" style="stop-color:#CCF0F0"/>
				<stop  offset="0.5583" style="stop-color:#A4E5E5"/>
				<stop  offset="0.7392" style="stop-color:#72D7D7"/>
				<stop  offset="0.9274" style="stop-color:#35C5C5"/>
				<stop  offset="1" style="stop-color:#1CBEBE"/>
			</linearGradient>
			<path class="st3" d="M640.9,170.4c0,79.8,0,159.4,0,239.6c-15.9,0-31.4,0-47.1,0c0-80,0-159.6,0-239.6
				C609.6,170.4,625,170.4,640.9,170.4z"/>
			
				<linearGradient id="SVGID_5_" gradientUnits="userSpaceOnUse" x1="353.5109" y1="-42.3517" x2="568.8109" y2="-42.3517" gradientTransform="matrix(1 0 0 -1 0 199.8898)">
				<stop  offset="0" style="stop-color:#FFFFFF"/>
				<stop  offset="1" style="stop-color:#1CBEBE"/>
			</linearGradient>
			<path class="st4" d="M568.8,74.4c0,111.7,0,223.3,0,335.6c-15.9,0-31.3,0-47.4,0c0-2.4,0-4.4,0-6.4c0-24.6,0-49.2,0-73.7
				c0-11.4-4.3-15.7-15.6-15.7c-29.8,0-59.7,0-89.5,0c-10.7,0-15.1,4.4-15.1,14.9c0,24.8,0,49.5,0,74.3c0,2,0,4.1,0,6.6
				c-16,0-31.6,0-47.7,0c0-111.8,0-223.5,0-335.5C425.3,74.4,496.8,74.4,568.8,74.4z M545.3,205.7c0.2-15.8,0.2-31.5,0-47.3
				c-0.1-7.5-5-12.2-12.6-12.3c-9.6-0.2-19.1,0-28.7,0c-2.2,0-4.3,0-6.8,0c0-11.8,0-22.6,0-33.5c0-10.4-4.3-14.6-14.8-14.6
				c-13.7-0.1-27.4,0-41.1,0c-12.1,0-16.1,4.1-16.2,16.3c0,10.4,0,20.9,0,31.8c-11.7,0-22.7,0-33.7,0c-9.7,0-14,4.3-14.1,14.1
				c-0.1,14.5-0.1,28.9,0,43.3c0,10.5,4.2,14.6,14.8,14.6c10.8,0,21.7,0,33.1,0c0,2.6,0,4.6,0,6.6c0,9.4-0.1,18.8,0.1,28.1
				c0.2,8.1,4.5,13.1,12.3,13.2c15.9,0.3,31.9,0.3,47.8,0c7.4-0.2,11.6-5,11.8-12.4c0.2-7.5,0.1-15,0.1-22.5c0-4.2,0-8.5,0-13.1
				c12.2,0,23.6,0.1,35.1,0C540.3,218.1,545.2,213.4,545.3,205.7z"/>
			<path class="st2" d="M545.3,158.4c0.2,15.8,0.2,31.5,0,47.3c-0.1,7.7-5.1,12.3-13,12.4c-11.4,0.1-22.9,0-35.1,0
				c0,4.6,0,8.9,0,13.1c0,7.5,0.1,15-0.1,22.5c-0.2,7.4-4.5,12.2-11.8,12.4c-15.9,0.3-31.9,0.3-47.8,0c-7.8-0.2-12.1-5.1-12.3-13.2
				c-0.2-9.4,0-18.8-0.1-28.1c0-2,0-4,0-6.6c-11.4,0-22.2,0-33.1,0c-10.6,0-14.7-4.1-14.8-14.6c0-14.5-0.1-28.9,0-43.3
				c0-9.8,4.4-14.1,14.1-14.1c11-0.1,22,0,33.7,0c0-10.9,0-21.4,0-31.8c0-12.2,4.1-16.3,16.2-16.3c13.7,0,27.4,0,41.1,0
				c10.5,0,14.8,4.3,14.8,14.6c0.1,10.9,0,21.7,0,33.5c2.5,0,4.7,0,6.8,0c9.6,0,19.1-0.1,28.7,0C540.3,146.3,545.2,151,545.3,158.4z
				 M521,194.2c0-8.5,0-16.1,0-24.2c-11.8,0-23.2,0.1-34.6,0c-8.3-0.1-12.8-4.7-13-12.9c-0.1-4.7,0-9.4,0-14.1c0-6.9,0-13.7,0-20.3
				c-8.5,0-16,0-23.5,0c-0.2,0.8-0.3,1.2-0.3,1.6c0,9.7-0.1,19.5-0.1,29.2c0,12.8-3.7,16.5-16.3,16.5c-10.5,0-20.9,0-31.5,0
				c0,8.3,0,15.9,0,24.2c2.3,0,4.3,0,6.3,0c9.8,0,19.5-0.1,29.3,0.1c7.1,0.2,11.5,4.4,12.2,11.4c0.3,2.4,0.1,4.9,0.1,7.3
				c0,9.5,0,19,0,28.6c8.3,0,15.9,0,23.9,0c0-11,0-21.7,0-32.3c0-11.2,4-15.1,15.3-15.2c7.3,0,14.6,0,22,0
				C514.1,194.2,517.5,194.2,521,194.2z"/>
			
				<linearGradient id="SVGID_6_" gradientUnits="userSpaceOnUse" x1="401.6109" y1="161.7983" x2="521.1109" y2="161.7983" gradientTransform="matrix(1 0 0 -1 0 199.8898)">
				<stop  offset="0" style="stop-color:#FFFFFF"/>
				<stop  offset="1" style="stop-color:#1CBEBE"/>
			</linearGradient>
			<path class="st5" d="M521.1,26.3c0,7.9,0,15.5,0,23.5c-39.8,0-79.4,0-119.5,0c0-8,0-15.6,0-23.5
				C441.5,26.3,481.1,26.3,521.1,26.3z"/>
			<path class="st6" d="M521,170c0,8.1,0,15.7,0,24.2c-3.5,0-6.9,0-10.4,0c-7.3,0-14.6,0-22,0c-11.3,0-15.3,4-15.3,15.2
				c0,10.6,0,21.3,0,32.3c-8,0-15.6,0-23.9,0c0-9.6,0-19.1,0-28.6c0-2.4,0.1-4.9-0.1-7.3c-0.7-7.1-5.1-11.3-12.2-11.4
				c-9.7-0.2-19.5-0.1-29.3-0.1c-2,0-4,0-6.3,0c0-8.3,0-15.9,0-24.2c10.6,0,21.1,0,31.5,0c12.6,0,16.3-3.8,16.3-16.5
				c0-9.7,0-19.5,0.1-29.2c0-0.4,0.2-0.7,0.3-1.6c7.5,0,15,0,23.5,0c0,6.6,0,13.5,0,20.3c0,4.7-0.1,9.4,0,14.1
				c0.2,8.3,4.7,12.8,13,12.9C497.8,170.1,509.2,170,521,170z"/>
			<path class="st6" d="M497,338.7c0,23.9,0,47.4,0,71.3c-23.7,0-47.3,0-71.3,0c0-23.6,0-47.3,0-71.3
				C449.3,338.7,472.8,338.7,497,338.7z"/>
			
				<linearGradient id="SVGID_7_" gradientUnits="userSpaceOnUse" x1="281.5109" y1="-90.3517" x2="328.7613" y2="-90.3517" gradientTransform="matrix(1 0 0 -1 0 199.8898)">
				<stop  offset="0" style="stop-color:#FFFFFF"/>
				<stop  offset="0.1001" style="stop-color:#F9FDFD"/>
				<stop  offset="0.2348" style="stop-color:#E8F8F8"/>
				<stop  offset="0.3892" style="stop-color:#CCF0F0"/>
				<stop  offset="0.5583" style="stop-color:#A4E5E5"/>
				<stop  offset="0.7392" style="stop-color:#72D7D7"/>
				<stop  offset="0.9274" style="stop-color:#35C5C5"/>
				<stop  offset="1" style="stop-color:#1CBEBE"/>
			</linearGradient>
			<path class="st7" d="M328.8,170.4c0,79.8,0,159.5,0,239.6c-15.6,0-31.2,0-47.3,0c0-79.7,0-159.3,0-239.6
				C297.4,170.4,312.8,170.4,328.8,170.4z"/>
		</g>
	</g>
</g>
<g>
	<linearGradient id="SVGID_8_" gradientUnits="userSpaceOnUse" x1="144.6296" y1="39.7109" x2="177.4962" y2="39.7109">
		<stop  offset="0" style="stop-color:#3366CC"/>
		<stop  offset="0.9141" style="stop-color:#3366CC"/>
	</linearGradient>
	<path class="st8" d="M176.3,45.9c0.5-0.5,0.7-1,0.7-1.6c0-0.6-0.3-1.2-0.7-1.6c-0.9-0.9-2.2-0.8-3.1,0.1c-1.7,1.6-3.3,3.3-5.2,5.3
		l-4.5,4.6V21c0-1.2-0.6-2-1.7-2.3c-0.8-0.2-1.8-0.1-2.3,0.8l0,0.1c-0.3,0.5-0.5,1.2-0.5,1.9c-0.1,7.8-0.1,15.6-0.1,23.2v7.7
		l-4.1-4.1c-0.7-0.7-1.5-1.5-2.2-2.2c-1.3-1.3-2.6-2.6-3.9-3.9c-0.4-0.4-1-0.6-1.5-0.6c-0.3,0-0.7,0.1-1,0.3c-0.7,0.4-1.3,1.1-1.2,2
		c0.1,0.6,0.4,1.3,0.8,1.6l0,0c4.5,4.7,9.1,9.3,13.5,13.8l-1.7,1.7l0,0l1.7-1.7c1,1,2.3,1,3.3,0C167.3,54.9,171.8,50.4,176.3,45.9z"
		/>
	<polygon class="st6" points="158.2,58.9 159.8,60.3 159,61.6 157.2,62.2 156.8,60.5 	"/>
</g>
</svg>
