<?xml version="1.0" encoding="utf-8"?>
<!-- Generator: Adobe Illustrator 23.0.4, SVG Export Plug-In . SVG Version: 6.00 Build 0)  -->
<svg version="1.1" id="Capa_1" xmlns="http://www.w3.org/2000/svg" xmlns:xlink="http://www.w3.org/1999/xlink" x="0px" y="0px"
	 viewBox="0 0 130.5 86.9" style="enable-background:new 0 0 130.5 86.9;" xml:space="preserve">
<style type="text/css">
	.st0{fill:#3366CC;}
	.st1{fill:#1CBEBE;}
	.st2{fill:#FFFFFF;}
</style>
<rect x="-1.6" y="-0.2" class="st0" width="133.9" height="88.5"/>
<g>
	<polygon class="st1" points="64.8,26.7 54.5,22.4 49.6,23.4 43.1,28.2 41.3,36.3 43.1,42.4 46.4,48.1 55.2,57 65.3,63.9 75.3,57.2 
		82.1,50.7 88.5,41.8 89.7,35.9 88.2,29.3 82.2,23.2 77.9,22.4 74.5,22.5 	"/>
	<path class="st2" d="M93.9,42.5h-5c2.1-4.8,1.9-8.6,1.1-11.2c-1.4-4.6-5.8-9.6-12.6-9.6c-1.8,0-3.6,0.4-5.5,1.1
		c-3.2,1.2-5.3,2.5-6.3,3.2c-1-0.6-3.1-1.9-6.3-3.2c-1.9-0.7-3.7-1.1-5.5-1.1c-6.8,0-11.3,5-12.6,9.6c-1,2.7-1.2,6.9,1.4,12.1h-6.2
		c-0.5,0-1,0.4-1,1c0,0.5,0.4,1,1,1h7.1c0.4,0.5,0.6,1.1,1,1.5c5.8,8.4,18.6,17.6,20.9,18.2v0.1c0,0,0.1,0,0.1-0.1
		c0.1,0,0.1,0,0.1,0v-0.1c2-1,14.3-8.8,20.7-18.2c0.6-0.8,1.1-1.8,1.5-2.5h5.9c0.5,0,1-0.4,1-1C94.8,42.8,94.4,42.5,93.9,42.5z
		 M42.9,31.8c1.2-4,5.1-8.3,10.9-8.3c1.5,0,3.2,0.4,4.9,1c4.2,1.5,6.3,3.3,6.3,3.3c0.4,0.2,0.8,0.2,1.2,0c0,0,2.1-1.8,6.3-3.3
		c1.7-0.6,3.3-1,4.9-1c5.8,0,9.7,4.3,10.9,8.3c1,3.3,0.5,6.9-1.4,10.7h-5.5l-2.3-3.9c-0.1-0.2-0.5-0.5-0.7-0.5s-0.6,0.1-0.7,0.4
		l-2.1,2.9l-3.1-10.1c-0.1-0.4-0.5-0.6-1-0.6c-0.4,0-0.7,0.2-1,0.6l-5.2,18.2l-5.7-14.5c-0.1-0.4-0.5-0.6-0.8-0.6
		c-0.4,0-0.7,0.2-0.8,0.5l-4.5,8.7h-8.8C42.4,39.3,41.7,35.4,42.9,31.8z M84.9,45.8c-6.1,8.7-17,15.8-19.4,17.3
		c-2.4-1.5-13.4-8.7-19.4-17.3c-0.1-0.2-0.2-0.4-0.4-0.5h8.3c0.4,0,0.6-0.2,0.8-0.5l3.7-7.4l5.9,15.2c0.1,0.4,0.5,0.6,0.8,0.6
		c0,0,0,0,0.1,0c0.4,0,0.7-0.2,0.8-0.6L71.6,35l2.7,9c0.1,0.4,0.4,0.6,0.7,0.6c0.4,0.1,0.7-0.1,1-0.4l2.1-3.2l1.9,3.2
		c0.2,0.2,0.5,0.5,0.7,0.5h5C85.5,44.9,85.1,45.3,84.9,45.8z"/>
</g>
</svg>
