<?xml version="1.0" encoding="utf-8"?>
<!-- Generator: Adobe Illustrator 24.2.3, SVG Export Plug-In . SVG Version: 6.00 Build 0)  -->
<svg version="1.1" id="Layer_1" xmlns="http://www.w3.org/2000/svg" xmlns:xlink="http://www.w3.org/1999/xlink" x="0px" y="0px"
	 viewBox="0 0 512 512" style="enable-background:new 0 0 512 512;" xml:space="preserve">
<style type="text/css">
	.st0{fill:#FFFFFF;}
	.st1{fill:#1CBEBE;}
	.st2{fill:url(#SVGID_1_);}
	.st3{fill:url(#SVGID_2_);}
	.st4{fill:url(#SVGID_3_);}
	.st5{fill:url(#SVGID_4_);}
	.st6{fill:url(#SVGID_5_);}
	.st7{fill:#3366CC;}
	.st8{fill:url(#SVGID_6_);}
	.st9{fill:url(#SVGID_7_);}
	.st10{fill:url(#SVGID_8_);}
	.st11{fill:url(#SVGID_9_);}
</style>
<g>
	<g id="XMLID_1_">
		<g>
			<path class="st0" d="M501.4,431.8h3.1c0,23.9,0,47.7,0,71.6c-25.7,0-51.4,0-77,0c5-3.4,10-6.6,14.9-10.2c3.1-2.3,5.8-5,8.7-7.6
				c13.9-12.2,27.8-24.3,41.6-36.5C498.2,444.2,501.4,438.4,501.4,431.8z"/>
			<path class="st1" d="M427.9,486.5c-3.9,3.4-7.8,3-11-0.6c-3.2-3.6-3-8,0.9-11.4c18.4-16.2,36.9-32.4,55.4-48.6
				c2.6-2.3,5.7-3.7,8.7-1.6c2.3,1.6,3.9,4.2,6.1,6.7c-1.7,2.7-2.6,5.1-4.2,6.6C465.2,454.1,446.6,470.3,427.9,486.5z"/>
			<path class="st0" d="M69.7,9.4c144.9,0,289.8,0,434.7,0c0,140.8,0,281.6,0,422.4h-3.1c0-2.5-0.4-5-1.3-7.7
				c-4.9-14.8-23.1-19.9-35.4-9.8c-7.8,6.4-15.2,13.2-23.2,20.1c-19.8-22.8-39.4-45.3-59.1-68c4.7-4.1,8.8-7.7,12.8-11.3
				c4-3.6,4.3-7.4,1.1-10.9c-3-3.3-6.6-3.4-10.6,0.1c-5.1,4.4-10.2,8.9-15.2,13.3c-19.8,17.3-39.6,34.7-59.4,52
				c-5,4.3-9.1,4.4-12.5,0.3c-3.5-4.1-2.8-7.9,2.2-12.4c2.2-1.9,4.3-3.8,6.5-5.7c35.2-30.9,70.5-61.8,105.7-92.7
				c5.2-4.5,8.9-4.7,12.5-0.7c3.6,4,2.9,8.2-2.2,12.8c-3,2.7-6.1,5.2-9,8c-3.7,3.4-4,7.1-1,10.6c2.7,3.1,6.7,3.4,10.2,0.4
				c4.2-3.5,8.6-6.8,12.1-11c2.8-3.3,5.2-7.5,6.1-11.6c2-9.1-3.4-18.9-12-23.8c-8.2-4.7-16.5-3.7-24.4,3c-4.3,3.6-8.4,7.2-12.7,10.9
				c-1-1.1-1.7-1.8-2.3-2.5c-30.3-34.9-60.6-69.8-90.9-104.7c-25.4-29.2-50.8-58.4-76.1-87.6c-6.1-7.1-13.8-10.3-22.8-7.6
				c-5.2,1.5-9.7,5.2-15,8.1c-5-5.7-10.4-12-15.9-18.2c-5.6-6.3-12.7-8.9-20.8-7.2c-4.2,0.8-8.1,3.3-12.5,5.2
				c-0.7-0.8-1.8-2-2.9-3.2C115.2,59,96.9,37.9,78.5,16.8c-1.3-1.5-2.5-3-3.9-4.3c-1.5-1.4-3.2-2.1-5-2.1V9.4z"/>
			<path class="st0" d="M278.2,349.1c8.6,9.8,16.2,18.6,24.2,27.8c-4.5,4-9,7.8-13.2,11.8c-7.4,7-9.1,15.6-5,24.5
				c4.3,9.3,13.7,15.6,23,13.9c4.6-0.8,9.4-3.4,13-6.4c17.1-14.5,33.9-29.5,51.3-44.7c19.7,22.6,39.3,45.2,59.1,68
				c-7,6.1-13.7,12.1-20.4,17.9c-15.8,13.7-12.3,33,7.4,40.7c0.4,0.2,0.7,0.5,1.1,0.8c-53.9,0-107.9,0-161.8,0
				c10.2-2.9,17.9-8.6,20.5-19.4c0.7-2.9,0.8-6,0.8-9.1c0.1-39.8,0-79.6,0-119.3C278.2,353.9,278.2,352.2,278.2,349.1z"/>
			<linearGradient id="SVGID_1_" gradientUnits="userSpaceOnUse" x1="333.2544" y1="308.6548" x2="381.7597" y2="308.6548">
				<stop  offset="0" style="stop-color:#FFFFFF"/>
				<stop  offset="0.2301" style="stop-color:#FCFEFE"/>
				<stop  offset="0.3713" style="stop-color:#F4FCFC"/>
				<stop  offset="0.4886" style="stop-color:#E5F8F8"/>
				<stop  offset="0.5927" style="stop-color:#D1F2F2"/>
				<stop  offset="0.6882" style="stop-color:#B6EAEA"/>
				<stop  offset="0.7773" style="stop-color:#96E1E1"/>
				<stop  offset="0.8615" style="stop-color:#6FD6D6"/>
				<stop  offset="0.9397" style="stop-color:#43C9C9"/>
				<stop  offset="1" style="stop-color:#1CBEBE"/>
			</linearGradient>
			<path class="st2" d="M362.1,284.7c6.7,7.7,13.1,15,19.7,22.7c-9.6,8.5-19,16.7-28.8,25.2c-6.6-7.6-13-14.9-19.7-22.7
				C342.9,301.5,352.4,293.2,362.1,284.7z"/>
			<path class="st1" d="M352.6,273.8c-22.8,20-45.4,39.8-68.5,60.1c-2.4-2.8-4.8-5.5-7.3-8.5c22.9-20.1,45.5-39.9,68.4-60
				C347.6,268.1,349.9,270.7,352.6,273.8z"/>
			<linearGradient id="SVGID_2_" gradientUnits="userSpaceOnUse" x1="293.5929" y1="343.4449" x2="342.1191" y2="343.4449">
				<stop  offset="0" style="stop-color:#FFFFFF"/>
				<stop  offset="0.2301" style="stop-color:#FCFEFE"/>
				<stop  offset="0.3713" style="stop-color:#F4FCFC"/>
				<stop  offset="0.4886" style="stop-color:#E5F8F8"/>
				<stop  offset="0.5927" style="stop-color:#D1F2F2"/>
				<stop  offset="0.6882" style="stop-color:#B6EAEA"/>
				<stop  offset="0.7773" style="stop-color:#96E1E1"/>
				<stop  offset="0.8615" style="stop-color:#6FD6D6"/>
				<stop  offset="0.9397" style="stop-color:#43C9C9"/>
				<stop  offset="1" style="stop-color:#1CBEBE"/>
			</linearGradient>
			<path class="st3" d="M322.3,319.5c6.6,7.5,13,14.9,19.8,22.7c-9.9,8.7-19.2,16.9-28.8,25.2c-6.6-7.6-13-15-19.7-22.7
				C303.1,336.4,312.4,328.2,322.3,319.5z"/>
			<linearGradient id="SVGID_3_" gradientUnits="userSpaceOnUse" x1="141.0971" y1="211.5842" x2="335.7215" y2="211.5842">
				<stop  offset="0" style="stop-color:#FFFFFF"/>
				<stop  offset="0.2301" style="stop-color:#FCFEFE"/>
				<stop  offset="0.3713" style="stop-color:#F4FCFC"/>
				<stop  offset="0.4886" style="stop-color:#E5F8F8"/>
				<stop  offset="0.5927" style="stop-color:#D1F2F2"/>
				<stop  offset="0.6882" style="stop-color:#B6EAEA"/>
				<stop  offset="0.7773" style="stop-color:#96E1E1"/>
				<stop  offset="0.8615" style="stop-color:#6FD6D6"/>
				<stop  offset="0.9397" style="stop-color:#43C9C9"/>
				<stop  offset="1" style="stop-color:#1CBEBE"/>
			</linearGradient>
			<path class="st4" d="M213.4,113.7c3.7,4.2,7.4,8.5,11.5,13.2c-2.7,2.4-5.2,4.7-7.8,7c-4.1,3.7-4.6,7.3-1.5,10.8
				c2.9,3.4,6.9,3.5,11,0.1c1.4-1.1,2.6-2.3,4-3.5c1.2-1,2.4-2,4-3.4c5.7,6.5,11.2,12.9,17.1,19.7c-6.9,6-13.2,11.6-19.6,17.2
				c-4.5,4-5,7.5-1.8,11.2c3.1,3.5,6.9,3.4,11.3-0.4c6.4-5.5,12.8-11.2,19.5-17.1c5.8,6.6,11.3,13,17.2,19.7
				c-2.7,2.4-5.4,4.7-7.9,7.1c-4,3.7-4.5,7.4-1.3,10.8c3.1,3.4,6.8,3.4,11-0.1c2.4-2.1,4.8-4.2,7.8-6.8c5.7,6.6,11.4,13,17.2,19.7
				c-6.3,5.6-12.5,11-18.6,16.4c-5.2,4.6-6.1,8.4-2.7,12.1c3.4,3.8,6.9,3.3,12.4-1.5c6-5.3,12-10.5,18.4-16.1
				c7.1,8.2,14,16.1,21.2,24.4c-22.9,20.1-45.5,39.9-68.5,60c-10.1-11.8-19.9-23.1-29.6-34.7c-1-1.2-1.1-3.3-1.1-4.9
				c-0.2-4.1-0.1-8.3-0.1-13c2.7,0,5.1,0.1,7.4,0c4.9-0.1,7.8-2.5,7.9-7.2c0.3-8.8,0.3-17.7,0-26.5c-0.1-4.9-3.2-7.2-8.9-7.2
				c-16.7-0.1-33.4-0.2-50.1,0.1c-4.9,0.1-8.2-1.3-11.5-5.1c-12.1-14.4-24.5-28.4-36.8-42.6c-5-5.8-4.7-9.1,1.1-14.2
				c17.6-15.4,35.2-30.9,52.8-46.3C204.8,107.2,207.9,107.4,213.4,113.7z"/>
			<linearGradient id="SVGID_4_" gradientUnits="userSpaceOnUse" x1="152.7247" y1="467.9016" x2="263.7233" y2="467.9016">
				<stop  offset="0" style="stop-color:#FFFFFF"/>
				<stop  offset="0.2301" style="stop-color:#FCFEFE"/>
				<stop  offset="0.3713" style="stop-color:#F4FCFC"/>
				<stop  offset="0.4886" style="stop-color:#E5F8F8"/>
				<stop  offset="0.5927" style="stop-color:#D1F2F2"/>
				<stop  offset="0.6882" style="stop-color:#B6EAEA"/>
				<stop  offset="0.7773" style="stop-color:#96E1E1"/>
				<stop  offset="0.8615" style="stop-color:#6FD6D6"/>
				<stop  offset="0.9397" style="stop-color:#43C9C9"/>
				<stop  offset="1" style="stop-color:#1CBEBE"/>
			</linearGradient>
			<path class="st5" d="M263.6,446.9c0,11.2,0.4,22.2-0.1,33.2c-0.3,5.6-5.5,8.8-12.4,8.9c-21.8,0-43.6,0-65.5,0
				c-6.7,0-13.5,0.1-20.2,0c-8.3-0.1-12.5-4.2-12.6-12.4c-0.1-9.8,0-19.5,0-29.7C190.1,446.9,226.6,446.9,263.6,446.9z"/>
			<linearGradient id="SVGID_5_" gradientUnits="userSpaceOnUse" x1="152.6395" y1="319.3473" x2="263.8913" y2="319.3473">
				<stop  offset="0" style="stop-color:#FFFFFF"/>
				<stop  offset="0.2301" style="stop-color:#FCFEFE"/>
				<stop  offset="0.3713" style="stop-color:#F4FCFC"/>
				<stop  offset="0.4886" style="stop-color:#E5F8F8"/>
				<stop  offset="0.5927" style="stop-color:#D1F2F2"/>
				<stop  offset="0.6882" style="stop-color:#B6EAEA"/>
				<stop  offset="0.7773" style="stop-color:#96E1E1"/>
				<stop  offset="0.8615" style="stop-color:#6FD6D6"/>
				<stop  offset="0.9397" style="stop-color:#43C9C9"/>
				<stop  offset="1" style="stop-color:#1CBEBE"/>
			</linearGradient>
			<path class="st6" d="M194.6,288.3c9.1,0.2,18.3-0.1,27.4,0.2c1.9,0.1,4.4,1.1,5.6,2.6c10.1,11.4,20,23,29.8,34.6
				c5.7,6.7,7.3,13.8,5.8,24.7c-36.6,0-73.2,0-110.4,0c-1-9.6,0.1-18.2,6.8-25.7c9.6-10.8,18.8-21.9,28-33
				C189.7,289.4,191.6,288.3,194.6,288.3z"/>
			<path class="st7" d="M231.3,393.2c6,0,8.7,2.4,8.7,7.1c0,4.7-2.9,7.2-8.7,7.3c-7.7,0.1-15.4,0-23,0c-7.7,0-15.4,0.1-23,0
				c-5.9-0.1-8.8-2.6-8.7-7.2c0-4.7,3-7.2,8.7-7.2C200.6,393.2,215.9,393.2,231.3,393.2z"/>
			<path class="st1" d="M237.2,235.7c0,3.7,0,7.3,0,11.2c-19.3,0-38.4,0-57.9,0c0-3.6,0-7.2,0-11.2
				C198.5,235.7,217.7,235.7,237.2,235.7z"/>
			<linearGradient id="SVGID_6_" gradientUnits="userSpaceOnUse" x1="194.7737" y1="267.7912" x2="221.6503" y2="267.7912">
				<stop  offset="0" style="stop-color:#FFFFFF"/>
				<stop  offset="0.2301" style="stop-color:#FCFEFE"/>
				<stop  offset="0.3713" style="stop-color:#F4FCFC"/>
				<stop  offset="0.4886" style="stop-color:#E5F8F8"/>
				<stop  offset="0.5927" style="stop-color:#D1F2F2"/>
				<stop  offset="0.6882" style="stop-color:#B6EAEA"/>
				<stop  offset="0.7773" style="stop-color:#96E1E1"/>
				<stop  offset="0.8615" style="stop-color:#6FD6D6"/>
				<stop  offset="0.9397" style="stop-color:#43C9C9"/>
				<stop  offset="1" style="stop-color:#1CBEBE"/>
			</linearGradient>
			<path class="st8" d="M221.7,262c0,3.7,0,7.5,0,11.6c-8.8,0-17.7,0-26.9,0c0-3.9,0-7.6,0-11.6C203.7,262,212.5,262,221.7,262z"/>
			<path class="st1" d="M185.2,407.6c7.7,0.1,15.4,0,23,0c7.7,0,15.4,0.1,23,0c5.8-0.1,8.7-2.5,8.7-7.3c0-4.8-2.7-7.1-8.7-7.1
				c-15.4-0.1-30.7-0.1-46.1,0c-5.8,0-8.7,2.5-8.7,7.2C176.4,405.1,179.3,407.6,185.2,407.6z M263.4,365.5c0,22.1,0,44.2,0,66.5
				c-36.7,0-73.4,0-110.3,0c0-22.1,0-44.1,0-66.5C189.8,365.5,226.4,365.5,263.4,365.5z"/>
			<path class="st0" d="M10.4,369.6c0-120.1,0-240.1,0-360.2c19.8,0,39.5,0,59.3,0v1c-1.9,0-3.7,0.8-5.3,2.5
				c-3,3.1-2.8,6.5,0.8,10.6c18.8,21.7,37.7,43.4,56.5,65.1c1.4,1.6,2.8,3.3,4.2,4.9c-11.4,11.9-11.7,22.7-1.3,34.8
				c4.9,5.7,9.8,11.3,14.7,17.1c-2.1,1.9-3.8,3.4-5.4,4.9c-5.6,5.2-8.3,11.7-6.8,19.1c0.9,4.5,3.2,9.2,6.1,12.7
				c11.1,13.5,22.8,26.5,33.9,39.3c-1,2.7-2.4,4.9-2.4,7.1c-0.3,8.7-0.3,17.3-0.1,26c0.1,4.7,3,7.2,7.8,7.3c2.4,0.1,4.7,0,7.6,0
				c0,5.4,0.1,10.3-0.1,15.3c0,1.1-0.8,2.4-1.5,3.3c-10.9,13-21.9,25.9-33,39c-11.2-13.2-22.3-26.3-33.4-39.4
				c-0.7-0.8-1.3-1.9-1.3-2.9c-0.1-4.9-0.1-9.9-0.1-15.3c2.7,0,4.9,0,7.1,0c5.7-0.1,8.2-2.6,8.3-8.2c0.1-8.2,0.1-16.4,0-24.5
				c-0.1-5.4-2.5-7.8-8-8.1c-3-0.1-6.1,0-9.1,0c-20.2,0-40.4,0-60.7,0c-6.3,0-9.1,2.1-9.2,7.3c-0.2,8.8-0.2,17.7,0,26.5
				c0.1,4.5,2.8,6.9,7.4,7.1c2.5,0.1,5,0,7.9,0c0,3.6-0.3,6.7,0.1,9.7c0.5,4.8-1.1,8.4-4.3,12.1c-9.9,11.2-19.4,22.7-29,34.1
				c-4.5,5.4-7.9,11.6-8.2,18.6c-0.4,11.1-0.5,22.3-0.5,33.4H10.4z"/>
			<path class="st0" d="M159.7,503.4c-9.3,0-18.6,0-27.9,0c4.7-2.3,9.3-4.5,13.6-6.6C150,499,154.8,501.2,159.7,503.4z"/>
			<path class="st1" d="M147.8,93.9c3.6-2.9,7.6-2.7,10.7,0.7c5.6,6.2,11,12.5,16.8,19.3c-8.5,7.4-16.6,14.6-25,21.9
				c-5.8-6.7-11.5-13-16.9-19.5c-2.9-3.6-2.5-7.5,1-10.7C138.8,101.5,143.2,97.6,147.8,93.9z"/>
			<linearGradient id="SVGID_7_" gradientUnits="userSpaceOnUse" x1="26.8917" y1="468.0145" x2="138.2028" y2="468.0145">
				<stop  offset="0" style="stop-color:#FFFFFF"/>
				<stop  offset="0.2301" style="stop-color:#FCFEFE"/>
				<stop  offset="0.3713" style="stop-color:#F4FCFC"/>
				<stop  offset="0.4886" style="stop-color:#E5F8F8"/>
				<stop  offset="0.5927" style="stop-color:#D1F2F2"/>
				<stop  offset="0.6882" style="stop-color:#B6EAEA"/>
				<stop  offset="0.7773" style="stop-color:#96E1E1"/>
				<stop  offset="0.8615" style="stop-color:#6FD6D6"/>
				<stop  offset="0.9397" style="stop-color:#43C9C9"/>
				<stop  offset="1" style="stop-color:#1CBEBE"/>
			</linearGradient>
			<path class="st9" d="M138.1,447.1c0,10.7,0.3,21.3-0.1,31.8c-0.3,6.3-5.1,9.9-12,10c-15.7,0.1-31.4,0-47.1,0c-13,0-26,0-39,0
				c-8.7,0-12.9-4.3-13-13c-0.1-9.5,0-18.9,0-28.8C63.9,447.1,100.7,447.1,138.1,447.1z"/>
			<linearGradient id="SVGID_8_" gradientUnits="userSpaceOnUse" x1="26.8371" y1="319.3941" x2="138.285" y2="319.3941">
				<stop  offset="0" style="stop-color:#FFFFFF"/>
				<stop  offset="0.2301" style="stop-color:#FCFEFE"/>
				<stop  offset="0.3713" style="stop-color:#F4FCFC"/>
				<stop  offset="0.4886" style="stop-color:#E5F8F8"/>
				<stop  offset="0.5927" style="stop-color:#D1F2F2"/>
				<stop  offset="0.6882" style="stop-color:#B6EAEA"/>
				<stop  offset="0.7773" style="stop-color:#96E1E1"/>
				<stop  offset="0.8615" style="stop-color:#6FD6D6"/>
				<stop  offset="0.9397" style="stop-color:#43C9C9"/>
				<stop  offset="1" style="stop-color:#1CBEBE"/>
			</linearGradient>
			<path class="st10" d="M102.4,291.1c9.7,11.1,19,22.6,28.8,33.7c6.5,7.4,7.7,15.9,6.8,25.6c-37.2,0-73.9,0-110.9,0
				c-0.8-9.1-0.2-17.4,6-24.6c9.9-11.6,19.7-23.3,29.7-34.8c1.2-1.4,3.7-2.5,5.7-2.5c9.5-0.3,18.9-0.3,28.4,0
				C98.8,288.6,101.2,289.7,102.4,291.1z"/>
			<path class="st7" d="M106.4,393.2c5.3,0.1,7.9,2.5,8,6.9c0.1,4.6-2.7,7.4-8,7.5c-15.8,0.1-31.7,0.1-47.5,0c-5.4,0-7.9-2.5-8-6.9
				c-0.1-4.7,2.6-7.3,8-7.4c8-0.1,16,0,24,0C90.7,393.2,98.5,393.1,106.4,393.2z"/>
			<path class="st1" d="M111.3,235.6c0,3.6,0,7.4,0,11.4c-19.1,0-38.2,0-57.6,0c0-3.8,0-7.5,0-11.4
				C72.9,235.6,91.9,235.6,111.3,235.6z"/>
			<linearGradient id="SVGID_9_" gradientUnits="userSpaceOnUse" x1="69.1825" y1="267.833" x2="95.8082" y2="267.833">
				<stop  offset="0" style="stop-color:#FFFFFF"/>
				<stop  offset="0.2301" style="stop-color:#FCFEFE"/>
				<stop  offset="0.3713" style="stop-color:#F4FCFC"/>
				<stop  offset="0.4886" style="stop-color:#E5F8F8"/>
				<stop  offset="0.5927" style="stop-color:#D1F2F2"/>
				<stop  offset="0.6882" style="stop-color:#B6EAEA"/>
				<stop  offset="0.7773" style="stop-color:#96E1E1"/>
				<stop  offset="0.8615" style="stop-color:#6FD6D6"/>
				<stop  offset="0.9397" style="stop-color:#43C9C9"/>
				<stop  offset="1" style="stop-color:#1CBEBE"/>
			</linearGradient>
			<path class="st11" d="M95.8,262.1c0,3.6,0,7.3,0,11.5c-8.7,0-17.6,0-26.6,0c0-3.8,0-7.5,0-11.5C77.9,262.1,86.7,262.1,95.8,262.1
				z"/>
			<path class="st7" d="M416.9,485.9c3.2,3.6,7.1,4,11,0.6c18.6-16.2,37.2-32.5,55.7-48.9c1.7-1.5,2.5-3.9,4.2-6.6
				c-2.2-2.5-3.8-5.1-6.1-6.7c-3.1-2.1-6.1-0.7-8.7,1.6c-18.5,16.2-36.9,32.3-55.4,48.6C413.9,477.9,413.7,482.4,416.9,485.9z
				 M276.7,325.3c2.6,3,4.9,5.7,7.3,8.5c23.1-20.3,45.7-40.1,68.5-60.1c-2.7-3-5-5.6-7.5-8.4C322.3,285.4,299.7,305.2,276.7,325.3z
				 M181.4,215.9c3.2,3.8,6.5,5.2,11.5,5.1c16.7-0.3,33.4-0.2,50.1-0.1c5.7,0,8.8,2.3,8.9,7.2c0.3,8.8,0.3,17.6,0,26.5
				c-0.1,4.7-3.1,7-7.9,7.2c-2.3,0.1-4.7,0-7.4,0c0,4.8-0.1,8.9,0.1,13c0.1,1.7,0.2,3.8,1.1,4.9c9.6,11.5,19.5,22.9,29.6,34.7
				c23-20.1,45.6-40,68.5-60c-7.2-8.3-14.1-16.2-21.2-24.4c-6.3,5.5-12.4,10.8-18.4,16.1c-5.5,4.8-9,5.3-12.4,1.5
				c-3.4-3.7-2.6-7.5,2.7-12.1c6.1-5.4,12.2-10.8,18.6-16.4c-5.8-6.7-11.5-13.1-17.2-19.7c-3,2.6-5.4,4.7-7.8,6.8
				c-4.2,3.5-7.9,3.5-11,0.1c-3.1-3.5-2.7-7.2,1.3-10.8c2.6-2.4,5.2-4.7,7.9-7.1c-5.9-6.7-11.4-13.1-17.2-19.7
				c-6.8,5.9-13.1,11.5-19.5,17.1c-4.4,3.8-8.2,3.9-11.3,0.4c-3.2-3.7-2.7-7.2,1.8-11.2c6.4-5.6,12.7-11.2,19.6-17.2
				c-5.9-6.8-11.4-13.2-17.1-19.7c-1.6,1.3-2.8,2.3-4,3.4c-1.3,1.1-2.6,2.4-4,3.5c-4.1,3.4-8,3.3-11-0.1c-3.1-3.5-2.5-7.2,1.5-10.8
				c2.6-2.3,5.1-4.6,7.8-7c-4.1-4.7-7.8-9-11.5-13.2c-5.5-6.3-8.6-6.4-14.9-0.9c-17.6,15.4-35.2,30.9-52.8,46.3
				c-5.8,5.1-6.1,8.4-1.1,14.2C156.9,187.4,169.4,201.5,181.4,215.9z M153,350.3c37.2,0,73.8,0,110.4,0c1.5-10.8-0.1-18-5.8-24.7
				c-9.9-11.6-19.8-23.2-29.8-34.6c-1.3-1.4-3.7-2.5-5.6-2.6c-9.1-0.3-18.3,0-27.4-0.2c-3.1-0.1-5,1-6.9,3.3
				c-9.2,11.1-18.5,22.2-28,33C153,332.1,152,340.7,153,350.3z M152.8,476.6c0.1,8.2,4.2,12.3,12.6,12.4c6.7,0.1,13.5,0,20.2,0
				c21.8,0,43.7,0,65.5,0c7,0,12.2-3.3,12.4-8.9c0.5-11,0.1-22,0.1-33.2c-37,0-73.5,0-110.9,0C152.7,457,152.7,466.8,152.8,476.6z
				 M39.9,488.9c13,0.1,26,0,39,0c15.7,0,31.4,0.1,47.1,0c6.9,0,11.7-3.6,12-10c0.4-10.5,0.1-21.1,0.1-31.8c-37.4,0-74.2,0-111.2,0
				c0,9.9,0,19.3,0,28.8C27,484.6,31.2,488.9,39.9,488.9z M20.3,388.2c-4.1,0.3-7.6-2.2-7.6-6.3c0-4.1,0-8.2,0-12.3
				c0-11.1,0.1-22.3,0.5-33.4c0.2-7.1,3.6-13.2,8.2-18.6c9.6-11.4,19.1-22.9,29-34.1c3.2-3.6,4.8-7.3,4.3-12.1c-0.3-3-0.1-6-0.1-9.7
				c-2.9,0-5.4,0.1-7.9,0c-4.6-0.2-7.3-2.6-7.4-7.1c-0.2-8.8-0.2-17.7,0-26.5c0.1-5.2,2.9-7.3,9.2-7.3c20.2-0.1,40.4,0,60.7,0
				c3,0,6.1-0.1,9.1,0c5.5,0.2,7.9,2.7,8,8.1c0.1,8.2,0.1,16.4,0,24.5c-0.1,5.7-2.6,8.1-8.3,8.2c-2.2,0-4.4,0-7.1,0
				c0,5.4-0.1,10.3,0.1,15.3c0,1,0.6,2.2,1.3,2.9c11,13.1,22.2,26.2,33.4,39.4c11.1-13.1,22.1-26,33-39c0.8-0.9,1.5-2.2,1.5-3.3
				c0.2-4.9,0.1-9.9,0.1-15.3c-2.8,0-5.2,0.1-7.6,0c-4.8-0.2-7.7-2.6-7.8-7.3c-0.2-8.7-0.2-17.3,0.1-26c0.1-2.2,1.5-4.4,2.4-7.1
				c-11.1-12.8-22.8-25.8-33.9-39.3c-2.9-3.5-5.2-8.2-6.1-12.7c-1.5-7.3,1.2-13.9,6.8-19.1c1.6-1.5,3.3-3,5.4-4.9
				c-5-5.7-9.8-11.4-14.7-17.1c-10.4-12.1-10.2-22.8,1.3-34.8c-1.4-1.6-2.7-3.3-4.2-4.9c-18.8-21.7-37.7-43.4-56.5-65.1
				c-3.6-4.1-3.8-7.5-0.8-10.6c1.6-1.7,3.4-2.5,5.3-2.5c1.7,0,3.4,0.7,5,2.1c1.4,1.3,2.6,2.8,3.9,4.3C96.9,37.9,115.2,59,133.5,80
				c1,1.2,2.1,2.3,2.9,3.2c4.4-1.9,8.3-4.3,12.5-5.2c8.1-1.6,15.2,0.9,20.8,7.2c5.5,6.3,10.9,12.5,15.9,18.2c5.3-3,9.8-6.6,15-8.1
				c8.9-2.7,16.6,0.6,22.8,7.6c25.3,29.2,50.7,58.4,76.1,87.6c30.3,34.9,60.6,69.8,90.9,104.7c0.6,0.7,1.3,1.4,2.3,2.5
				c4.3-3.7,8.4-7.3,12.7-10.9c7.9-6.7,16.2-7.6,24.4-3c8.6,4.9,14,14.6,12,23.8c-0.9,4.2-3.3,8.3-6.1,11.6
				c-3.5,4.1-7.9,7.5-12.1,11c-3.6,3-7.5,2.7-10.2-0.4c-3-3.4-2.7-7.1,1-10.6c2.9-2.7,6-5.3,9-8c5.1-4.6,5.8-8.8,2.2-12.8
				c-3.6-4-7.3-3.8-12.5,0.7c-35.2,30.9-70.5,61.8-105.7,92.7c-2.2,1.9-4.4,3.8-6.5,5.7c-5,4.4-5.7,8.3-2.2,12.4
				c3.4,4.1,7.5,4,12.5-0.3c19.8-17.3,39.6-34.7,59.4-52c5.1-4.4,10.1-8.9,15.2-13.3c4-3.4,7.5-3.4,10.6-0.1
				c3.2,3.5,2.9,7.3-1.1,10.9c-4,3.7-8.2,7.2-12.8,11.3c19.7,22.7,39.3,45.2,59.1,68c7.9-6.9,15.4-13.7,23.2-20.1
				c12.3-10.1,30.6-5,35.4,9.8c0.9,2.7,1.3,5.3,1.3,7.7c0,6.6-3.1,12.4-8.7,17.4c-13.9,12.2-27.8,24.3-41.6,36.5
				c-2.9,2.5-5.6,5.3-8.7,7.6c-4.8,3.6-9.9,6.8-14.9,10.2c-2.9,0-5.8,0-8.7,0c-0.4-0.3-0.7-0.7-1.1-0.8
				c-19.7-7.6-23.2-26.9-7.4-40.7c6.7-5.9,13.4-11.8,20.4-17.9c-19.9-22.8-39.5-45.4-59.1-68c-17.4,15.3-34.2,30.2-51.3,44.7
				c-3.6,3.1-8.4,5.6-13,6.4c-9.3,1.7-18.7-4.6-23-13.9c-4.1-8.9-2.4-17.5,5-24.5c4.3-4,8.7-7.8,13.2-11.8
				c-8-9.2-15.6-17.9-24.2-27.8c0,3.1,0,4.8,0,6.5c0,39.8,0,79.6,0,119.3c0,3-0.1,6.1-0.8,9.1c-2.6,10.8-10.3,16.5-20.5,19.4
				c-32.4,0-64.8,0-97.3,0c-4.8-2.2-9.7-4.4-14.4-6.6c-4.3,2.1-8.9,4.3-13.6,6.6c-32.7,0-65.5,0-98.2,0c-1.3-0.5-2.6-1.1-4-1.5
				c-10.4-3.7-17-12.9-17.1-24.4c-0.1-8.3-0.1-16.7-0.1-25c0-10.3,0-20.6,0.1-30.9c0-5.7,2.8-8.8,7.4-8.6c4.5,0.2,6.9,3.1,7,8.5
				c0,3.3,0,6.7,0,10.3c37.2,0,74,0,111.1,0c0-22.1,0-44,0-66.3c-36.9,0-73.7,0-111.1,0c0,5.4,0.1,10.7,0,15.9
				C26.8,385.7,24.4,387.9,20.3,388.2z M381.8,307.4c-6.6-7.7-13-15-19.7-22.7c-9.7,8.5-19.1,16.8-28.8,25.2
				c6.8,7.8,13.1,15.1,19.7,22.7C362.8,324,372.1,315.8,381.8,307.4z M342.1,342.2c-6.8-7.8-13.2-15.2-19.8-22.7
				c-9.9,8.7-19.3,16.9-28.7,25.3c6.7,7.7,13.1,15,19.7,22.7C322.9,359,332.2,350.8,342.1,342.2z M263.4,431.9c0-22.3,0-44.3,0-66.5
				c-37,0-73.6,0-110.3,0c0,22.4,0,44.4,0,66.5C190.1,431.9,226.7,431.9,263.4,431.9z M237.2,247c0-3.9,0-7.5,0-11.2
				c-19.5,0-38.7,0-57.9,0c0,4.1,0,7.7,0,11.2C198.8,247,218,247,237.2,247z M221.7,273.6c0-4.1,0-7.9,0-11.6c-9.2,0-17.9,0-26.9,0
				c0,4,0,7.7,0,11.6C204,273.6,212.8,273.6,221.7,273.6z M175.4,113.9c-5.9-6.8-11.2-13.1-16.8-19.3c-3.1-3.4-7.1-3.6-10.7-0.7
				c-4.6,3.8-9.1,7.7-13.4,11.7c-3.5,3.3-3.9,7.2-1,10.7c5.4,6.5,11.1,12.8,16.9,19.5C158.7,128.4,166.9,121.3,175.4,113.9z
				 M138.1,350.4c0.8-9.8-0.3-18.3-6.8-25.6c-9.8-11.1-19.1-22.5-28.8-33.7c-1.3-1.4-3.7-2.5-5.6-2.6c-9.5-0.3-18.9-0.3-28.4,0
				c-1.9,0.1-4.4,1.1-5.7,2.5c-10,11.5-19.7,23.2-29.7,34.8c-6.2,7.2-6.8,15.5-6,24.6C64.2,350.4,100.9,350.4,138.1,350.4z
				 M111.3,247c0-4,0-7.7,0-11.4c-19.4,0-38.4,0-57.6,0c0,3.9,0,7.5,0,11.4C73,247,92.1,247,111.3,247z M95.8,273.6
				c0-4.2,0-7.9,0-11.5c-9.1,0-17.9,0-26.6,0c0,4,0,7.6,0,11.5C78.3,273.6,87.1,273.6,95.8,273.6z"/>
			<path class="st0" d="M33.5,503.4c-7.7,0-15.4,0-23.1,0c0-17,0-33.9,0-50.9h2c0,8.3,0,16.7,0.1,25c0.1,11.5,6.7,20.6,17.1,24.4
				C30.9,502.3,32.2,502.9,33.5,503.4z"/>
			<path class="st1" d="M50.8,400.7c0.1,4.5,2.6,6.9,8,6.9c15.8,0.1,31.7,0.1,47.5,0c5.3,0,8.1-2.9,8-7.5c-0.1-4.4-2.7-6.8-8-6.9
				c-7.8-0.1-15.7,0-23.5,0c-8,0-16-0.1-24,0C53.4,393.3,50.7,396,50.8,400.7z M12.5,421.7c0,10.3-0.1,20.6-0.1,30.9h-2
				c0-27.6,0-55.3,0-82.9h2.2c0,4.1,0,8.2,0,12.3c0,4.1,3.5,6.6,7.6,6.3c4.1-0.3,6.5-2.5,6.6-6.7c0.1-5.2,0-10.5,0-15.9
				c37.4,0,74.2,0,111.1,0c0,22.3,0,44.2,0,66.3c-37.1,0-73.9,0-111.1,0c0-3.6,0-7,0-10.3c-0.1-5.4-2.5-8.4-7-8.5
				C15.3,412.9,12.5,416,12.5,421.7z"/>
		</g>
		<g>
		</g>
	</g>
</g>
</svg>
