<?xml version="1.0" encoding="utf-8"?>
<!-- Generator: Adobe Illustrator 24.2.3, SVG Export Plug-In . SVG Version: 6.00 Build 0)  -->
<svg version="1.1" id="Capa_1" xmlns="http://www.w3.org/2000/svg" xmlns:xlink="http://www.w3.org/1999/xlink" x="0px" y="0px"
	 viewBox="0 0 200 200" style="enable-background:new 0 0 200 200;" xml:space="preserve">
<style type="text/css">
	.st0{fill:#3366CC;}
	.st1{fill:#1CBEBE;}
	.st2{fill:url(#SVGID_1_);}
	.st3{fill:#FFFFFF;}
	.st4{fill:url(#SVGID_2_);}
	.st5{fill:url(#SVGID_3_);}
	.st6{enable-background:new    ;}
</style>
<g id="Capa_3">
</g>
<g>
	<g id="XMLID_1_">
		<g>
			<path class="st0" d="M197.4,181.5c0,3.9,0,7.8,0,11.7c0,2.5-1.2,3.7-3.7,3.8c-0.4,0-0.8,0-1.2,0c-61.5,0-123,0-184.5,0
				c-4.2,0-5-0.8-5-4.9c0-3.5,0-7,0-10.5c0-2.8,1.1-4,3.9-4c1.9,0,3.7,0,5.7,0c0-38.9,0-77.7,0-116.7c-1,0-2.1,0.1-3.1,0
				c-1.9-0.1-3.2-1.3-3.2-3.2c-0.1-4.3-0.1-8.6,0-13c0-2.1,1.4-3.2,3.8-3.2c8.6,0,17.1,0,25.7,0c5.2,0,10.4,0,15.7,0
				c0-6.5,0-12.8,0-19.5c-1.7,0-3.4,0-5.1,0c-3.5,0-4.5-1-4.5-4.4c0-3.5,0-7,0-10.5s1-4.5,4.4-4.5c36,0,72,0,108,0
				c3.2,0,4.3,1.1,4.3,4.2c0,3.6,0,7.3,0,10.9c0,3.3-1.1,4.3-4.4,4.3c-1.7,0-3.4,0-5.2,0c0,6.6,0,12.9,0,19.5c0.8,0,1.5,0,2.2,0
				c12.8,0,25.7,0,38.5,0c3.6,0,4.6,1,4.6,4.6c0,3.4,0,6.9,0,10.3c0,3.6-1,4.5-4.6,4.6c-0.5,0-1.1,0-1.8,0c0,38.9,0,77.7,0,116.7
				c1.8,0,3.7,0,5.6,0C196.2,177.6,197.4,178.7,197.4,181.5z M190.8,190.4c0-2.1,0-4.1,0-6.2c-60.5,0-120.9,0-181.2,0
				c0,2.2,0,4.2,0,6.2C70.1,190.4,130.4,190.4,190.8,190.4z M187.6,54.2c0-2.1,0-4.2,0-6.2c-13,0-25.8,0-38.7,0c0,2.1,0,4,0,6.2
				C161.7,54.2,174.6,54.2,187.6,54.2z M181.1,177.4c0-38.9,0-77.6,0-116.4c-10.7,0-21.4,0-32.2,0c0,38.9,0,77.7,0,116.4
				C159.8,177.4,170.4,177.4,181.1,177.4z M151.9,15.3c0-2.1,0-4.1,0-6.2c-34.5,0-69,0-103.5,0c0,2.1,0,4.1,0,6.2
				C83,15.3,117.5,15.3,151.9,15.3z M142.2,177.5c0-51.9,0-103.7,0-155.4c-28.1,0-56,0-84,0c0,51.9,0,103.6,0,155.4
				c4.3,0,8.5,0,12.8,0c0-0.9,0-1.6,0-2.4c0-12.8,0-25.5,0-38.3c0-3.6,1-4.6,4.5-4.6c16.4,0,32.8,0,49.2,0c3.6,0,4.6,1,4.6,4.5
				c0,12.8,0,25.7,0,38.5c0,0.7,0,1.5,0,2.3C133.7,177.5,137.9,177.5,142.2,177.5z M122.7,177.5c0-13,0-25.9,0-38.6
				c-6.5,0-12.9,0-19.2,0c0,13,0,25.8,0,38.6C109.9,177.5,116.3,177.5,122.7,177.5z M96.8,177.5c0-13,0-25.8,0-38.6
				c-6.5,0-12.9,0-19.3,0c0,12.9,0,25.7,0,38.6C84.1,177.5,90.4,177.5,96.8,177.5z M51.4,177.5c0-38.9,0-77.7,0-116.4
				c-10.8,0-21.5,0-32.2,0c0,38.9,0,77.6,0,116.4C30,177.5,40.6,177.5,51.4,177.5z M51.4,54.3c0-2.2,0-4.2,0-6.2
				c-13,0-25.7,0-38.6,0c0,2.1,0,4.1,0,6.2C25.8,54.3,38.6,54.3,51.4,54.3z"/>
			<path class="st1" d="M190.8,184.2c0,2.2,0,4.2,0,6.2c-60.4,0-120.8,0-181.2,0c0-2,0-4.1,0-6.2
				C69.9,184.2,130.3,184.2,190.8,184.2z"/>
			<path class="st1" d="M187.6,48c0,2,0,4.1,0,6.2c-12.9,0-25.8,0-38.7,0c0-2.1,0-4.1,0-6.2C161.7,48,174.6,48,187.6,48z"/>
			
				<linearGradient id="SVGID_1_" gradientUnits="userSpaceOnUse" x1="148.9" y1="82.8" x2="181.1" y2="82.8" gradientTransform="matrix(1 0 0 -1 0 202)">
				<stop  offset="0" style="stop-color:#FFFFFF"/>
				<stop  offset="0.2301" style="stop-color:#FCFEFE"/>
				<stop  offset="0.3713" style="stop-color:#F4FCFC"/>
				<stop  offset="0.4886" style="stop-color:#E5F8F8"/>
				<stop  offset="0.5927" style="stop-color:#D1F2F2"/>
				<stop  offset="0.6882" style="stop-color:#B6EAEA"/>
				<stop  offset="0.7773" style="stop-color:#96E1E1"/>
				<stop  offset="0.8615" style="stop-color:#6FD6D6"/>
				<stop  offset="0.9397" style="stop-color:#43C9C9"/>
				<stop  offset="1" style="stop-color:#1CBEBE"/>
			</linearGradient>
			<path class="st2" d="M181.1,61c0,38.8,0,77.6,0,116.4c-10.7,0-21.4,0-32.2,0c0-38.7,0-77.5,0-116.4C159.7,61,170.4,61,181.1,61z
				 M174.7,83.4c0.1-4.2,0.1-8.4,0-12.6c0-2.2-1.3-3.4-3.4-3.4c-2.1-0.1-4.2,0-6.3,0s-4.2,0-6.3,0c-2.2,0.1-3.4,1.3-3.4,3.4
				c-0.1,4.2-0.1,8.4,0,12.6c0,2.2,1.3,3.4,3.4,3.4c4.2,0.1,8.4,0.1,12.6,0C173.4,86.8,174.7,85.5,174.7,83.4z M174.7,109.3
				c0.1-4.2,0.1-8.4,0-12.6c0-2.2-1.3-3.4-3.4-3.4c-4.2-0.1-8.4-0.1-12.6,0c-2.2,0-3.4,1.3-3.4,3.4c-0.1,4.2-0.1,8.4,0,12.6
				c0,2.2,1.3,3.4,3.4,3.4c2.1,0.1,4.2,0,6.3,0s4.2,0,6.3,0C173.4,112.7,174.7,111.4,174.7,109.3z M174.7,135.2
				c0.1-4.2,0.1-8.4,0-12.6c0-2.1-1.3-3.4-3.5-3.4c-4.2-0.1-8.4-0.1-12.6,0c-2.1,0-3.3,1.3-3.4,3.4c-0.1,2,0,4.1,0,6.1
				c0,2.1,0,4.2,0,6.3c0,2.3,1.2,3.6,3.5,3.6c4.2,0.1,8.4,0.1,12.6,0C173.4,138.6,174.7,137.4,174.7,135.2z M174.7,161
				c0-4.1,0-8.2,0-12.4c0-2.3-1.3-3.5-3.5-3.5c-4.1,0-8.2,0-12.4,0c-2.3,0-3.5,1.3-3.5,3.5c0,4.1,0,8.2,0,12.4
				c0,2.3,1.3,3.5,3.5,3.5c2,0,4.1,0,6.1,0c2.1,0,4.2,0,6.3,0C173.5,164.5,174.7,163.3,174.7,161z"/>
			<path class="st0" d="M174.7,70.8c0.1,4.2,0.1,8.4,0,12.6c0,2.1-1.3,3.4-3.4,3.4c-4.2,0.1-8.4,0.1-12.6,0c-2.2,0-3.4-1.3-3.4-3.4
				c-0.1-4.2-0.1-8.4,0-12.6c0-2.2,1.3-3.4,3.4-3.4c2.1-0.1,4.2,0,6.3,0s4.2,0,6.3,0C173.4,67.4,174.7,68.6,174.7,70.8z M168.1,80.2
				c0-2.2,0-4.2,0-6.3c-2.1,0-4.1,0-6.2,0c0,2.2,0,4.2,0,6.3C164,80.2,166,80.2,168.1,80.2z"/>
			<path class="st0" d="M174.7,96.7c0.1,4.2,0.1,8.4,0,12.6c0,2.1-1.3,3.4-3.4,3.4c-2.1,0.1-4.2,0-6.3,0s-4.2,0-6.3,0
				c-2.2-0.1-3.4-1.3-3.4-3.4c-0.1-4.2-0.1-8.4,0-12.6c0-2.2,1.3-3.4,3.4-3.4c4.2-0.1,8.4-0.1,12.6,0
				C173.4,93.3,174.7,94.6,174.7,96.7z M168.1,106.2c0-2.2,0-4.3,0-6.3c-2.1,0-4.1,0-6.2,0c0,2.1,0,4.2,0,6.3
				C164,106.2,166,106.2,168.1,106.2z"/>
			<path class="st0" d="M174.7,122.6c0.1,4.2,0.1,8.4,0,12.6c0,2.2-1.3,3.4-3.4,3.5c-4.2,0.1-8.4,0.1-12.6,0c-2.2,0-3.4-1.3-3.5-3.6
				c0-2.1,0-4.2,0-6.3c0-2,0-4.1,0-6.1c0.1-2.2,1.3-3.4,3.4-3.4c4.2-0.1,8.4-0.1,12.6,0C173.4,119.3,174.7,120.5,174.7,122.6z
				 M168.1,132.1c0-2.2,0-4.2,0-6.3c-2.1,0-4.2,0-6.2,0c0,2.2,0,4.2,0,6.3C164,132.1,166,132.1,168.1,132.1z"/>
			<path class="st0" d="M174.7,148.7c0.1,4.1,0,8.2,0,12.4c0,2.3-1.2,3.5-3.5,3.6c-2.1,0.1-4.2,0-6.3,0c-2,0-4.1,0-6.1,0
				c-2.3-0.1-3.5-1.2-3.5-3.5c0-4.1,0-8.2,0-12.4c0-2.3,1.2-3.5,3.5-3.5c4.1,0,8.2,0,12.4,0C173.4,145.2,174.7,146.4,174.7,148.7z
				 M168.1,158c0-2.2,0-4.2,0-6.2c-2.2,0-4.2,0-6.3,0c0,2.1,0,4.1,0,6.2C164.1,158,166.1,158,168.1,158z"/>
			<path class="st3" d="M168.1,125.8c0,2.1,0,4.1,0,6.3c-2.1,0-4.1,0-6.2,0c0-2.1,0-4.1,0-6.3C164,125.8,166,125.8,168.1,125.8z"/>
			<path class="st3" d="M168.1,151.8c0,2,0,4.1,0,6.2c-2,0-4,0-6.3,0c0-2.1,0-4.1,0-6.2C163.9,151.8,165.9,151.8,168.1,151.8z"/>
			<path class="st3" d="M168.1,73.9c0,2.1,0,4.1,0,6.3c-2.1,0-4.1,0-6.2,0c0-2.1,0-4.1,0-6.3C164,73.9,166,73.9,168.1,73.9z"/>
			<path class="st3" d="M168.1,99.9c0,2,0,4.1,0,6.3c-2.1,0-4.1,0-6.2,0c0-2.1,0-4.2,0-6.3C164,99.9,165.9,99.9,168.1,99.9z"/>
			<path class="st1" d="M151.9,9.1c0,2.1,0,4.1,0,6.2c-34.5,0-68.9,0-103.5,0c0-2.1,0-4.1,0-6.2C83,9.1,117.4,9.1,151.9,9.1z"/>
			
				<linearGradient id="SVGID_2_" gradientUnits="userSpaceOnUse" x1="58.1641" y1="102.2" x2="142.1671" y2="102.2" gradientTransform="matrix(1 0 0 -1 0 202)">
				<stop  offset="0" style="stop-color:#FFFFFF"/>
				<stop  offset="0.2301" style="stop-color:#FCFEFE"/>
				<stop  offset="0.3713" style="stop-color:#F4FCFC"/>
				<stop  offset="0.4886" style="stop-color:#E5F8F8"/>
				<stop  offset="0.5927" style="stop-color:#D1F2F2"/>
				<stop  offset="0.6882" style="stop-color:#B6EAEA"/>
				<stop  offset="0.7773" style="stop-color:#96E1E1"/>
				<stop  offset="0.8615" style="stop-color:#6FD6D6"/>
				<stop  offset="0.9397" style="stop-color:#43C9C9"/>
				<stop  offset="1" style="stop-color:#1CBEBE"/>
			</linearGradient>
			<path class="st4" d="M142.2,22.1c0,51.8,0,103.5,0,155.4c-4.3,0-8.5,0-12.8,0c0-0.8,0-1.5,0-2.3c0-12.8,0-25.7,0-38.5
				c0-3.6-1-4.5-4.6-4.5c-16.4,0-32.8,0-49.2,0c-3.6,0-4.5,1-4.5,4.6c0,12.8,0,25.5,0,38.3c0,0.7,0,1.5,0,2.4c-4.3,0-8.5,0-12.8,0
				c0-51.8,0-103.5,0-155.4C86.2,22.1,114.1,22.1,142.2,22.1z M135.8,96.3c0.1-4.2,0.1-8.4,0-12.6c0-2.2-1.3-3.4-3.4-3.4
				c-4.2-0.1-8.4-0.1-12.6,0c-2.2,0-3.4,1.3-3.4,3.4c-0.1,4.2-0.1,8.4,0,12.6c0,2.2,1.3,3.4,3.4,3.4c2.1,0.1,4.2,0,6.3,0
				c2.1,0,4.2,0,6.3,0C134.5,99.7,135.8,98.5,135.8,96.3z M135.8,122.2c0.1-4.2,0.1-8.4,0-12.6c0-2.2-1.3-3.4-3.4-3.4
				c-4.2-0.1-8.4-0.1-12.6,0c-2.1,0-3.3,1.3-3.4,3.4c-0.1,2,0,4.1,0,6.1c0,2.2,0,4.3,0,6.5c0.1,2.1,1.3,3.4,3.4,3.4
				c4.2,0.1,8.4,0.1,12.6,0C134.5,125.7,135.8,124.4,135.8,122.2z M109.9,96.3c0.1-2.1,0-4.2,0-6.3s0-4.2,0-6.3
				c-0.1-2.2-1.3-3.4-3.4-3.4c-4.2-0.1-8.4-0.1-12.6,0c-2.2,0-3.4,1.3-3.4,3.4c-0.1,4.2-0.1,8.4,0,12.6c0,2.2,1.3,3.4,3.4,3.4
				c4.2,0.1,8.4,0.1,12.6,0C108.6,99.7,109.8,98.5,109.9,96.3z M109.9,121.9c0-4,0-8,0-12c0-2.5-1.2-3.7-3.8-3.7c-2,0-3.9,0-5.9,0
				s-3.9,0-5.9,0c-2.7,0-3.9,1.2-3.9,3.8c0,4,0,8,0,12c0,2.5,1.2,3.7,3.8,3.7c4,0,8,0,11.9,0C108.7,125.7,109.9,124.4,109.9,121.9z
				 M84,96.3c0-4.1,0-8.3,0-12.5c0-2.2-1.3-3.4-3.4-3.4c-4.2-0.1-8.4-0.1-12.6,0c-2.2,0-3.4,1.3-3.4,3.4c-0.1,2.1,0,4.2,0,6.3
				c0,2.1,0,4.2,0,6.3c0.1,2.2,1.3,3.4,3.4,3.4c4.2,0.1,8.4,0.1,12.6,0C82.7,99.7,83.9,98.5,84,96.3z M84,122.2
				c0.1-4.2,0.1-8.4,0-12.6c0-2.1-1.3-3.3-3.5-3.4c-2-0.1-4.1,0-6.1,0c-2.1,0-4.2,0-6.3,0c-2.3,0-3.6,1.2-3.6,3.5
				c-0.1,4.2-0.1,8.4,0,12.6c0,2.1,1.3,3.4,3.4,3.4c4.2,0,8.4,0.1,12.6,0C82.7,125.7,83.9,124.4,84,122.2z"/>
			<path class="st0" d="M135.8,83.8c0.1,4.2,0.1,8.4,0,12.6c0,2.2-1.3,3.4-3.4,3.4c-2.1,0.1-4.2,0-6.3,0c-2.1,0-4.2,0-6.3,0
				c-2.2-0.1-3.4-1.3-3.4-3.4c-0.1-4.2-0.1-8.4,0-12.6c0-2.2,1.3-3.4,3.4-3.4c4.2-0.1,8.4-0.1,12.6,0
				C134.5,80.4,135.8,81.6,135.8,83.8z M129.2,93.2c0-2.2,0-4.2,0-6.3c-2.1,0-4,0-6.2,0c0,2.1,0,4.2,0,6.3
				C125.1,93.2,127.2,93.2,129.2,93.2z"/>
			<path class="st0" d="M135.8,109.7c0.1,4.2,0.1,8.4,0,12.6c0,2.2-1.3,3.4-3.4,3.4c-4.2,0.1-8.4,0.1-12.6,0c-2.2,0-3.4-1.3-3.4-3.4
				c-0.1-2.2,0-4.3,0-6.5c0-2,0-4.1,0-6.1c0.1-2.2,1.3-3.4,3.4-3.4c4.2-0.1,8.4-0.1,12.6,0C134.5,106.3,135.8,107.5,135.8,109.7z
				 M129.2,119.1c0-2.2,0-4.3,0-6.2c-2.2,0-4.2,0-6.2,0c0,2.2,0,4.2,0,6.2C125.1,119.1,127.1,119.1,129.2,119.1z"/>
			<path class="st3" d="M129.2,112.9c0,2,0,4,0,6.2c-2.1,0-4.1,0-6.2,0c0-2.1,0-4.1,0-6.2C125,112.9,127,112.9,129.2,112.9z"/>
			<path class="st3" d="M129.2,86.8c0,2.1,0,4.1,0,6.3c-2,0-4,0-6.2,0c0-2.1,0-4.2,0-6.3C125.1,86.8,127.1,86.8,129.2,86.8z"/>
			<path class="st3" d="M122.7,138.8c0,12.8,0,25.6,0,38.6c-6.5,0-12.8,0-19.2,0c0-12.9,0-25.7,0-38.6
				C109.9,138.8,116.2,138.8,122.7,138.8z"/>
			<path class="st0" d="M109.9,90.1c0,2.1,0,4.2,0,6.3c-0.1,2.1-1.3,3.4-3.4,3.4c-4.2,0.1-8.4,0.1-12.6,0c-2.2,0-3.4-1.3-3.4-3.4
				c0-4.2-0.1-8.4,0-12.6c0-2.2,1.3-3.4,3.4-3.4c4.2-0.1,8.4-0.1,12.6,0c2.1,0,3.4,1.3,3.4,3.4S109.9,88,109.9,90.1z M103.3,93.1
				c0-2.2,0-4.1,0-6.2c-2.1,0-4.2,0-6.2,0c0,2.2,0,4.2,0,6.2C99.3,93.1,101.3,93.1,103.3,93.1z"/>
			<path class="st0" d="M109.9,110c0,4,0,8,0,12c0,2.5-1.2,3.8-3.7,3.8c-4,0-8,0-11.9,0c-2.5,0-3.8-1.2-3.8-3.7c0-4,0-8,0-12
				c0-2.6,1.2-3.8,3.9-3.8c2,0,3.9,0,5.9,0s3.9,0,5.9,0C108.7,106.3,109.9,107.5,109.9,110z M103.3,119.1c0-2.2,0-4.2,0-6.2
				c-2.2,0-4.2,0-6.2,0c0,2.1,0,4.1,0,6.2C99.2,119.1,101.3,119.1,103.3,119.1z"/>
			<path class="st3" d="M103.3,86.9c0,2.1,0,4.1,0,6.2c-2,0-4.1,0-6.2,0c0-2,0-4,0-6.2C99.1,86.9,101.2,86.9,103.3,86.9z"/>
			<path class="st3" d="M103.3,112.8c0,2,0,4,0,6.2c-2,0-4,0-6.2,0c0-2.1,0-4.1,0-6.2C99.1,112.8,101.1,112.8,103.3,112.8z"/>
			<path class="st3" d="M96.8,138.8c0,12.8,0,25.6,0,38.6c-6.4,0-12.7,0-19.3,0c0-13,0-25.7,0-38.6
				C83.9,138.8,90.3,138.8,96.8,138.8z"/>
			<path class="st0" d="M84,83.8c0,4.2,0,8.4,0,12.5c0,2.1-1.3,3.4-3.4,3.4c-4.2,0.1-8.4,0.1-12.6,0c-2.1,0-3.4-1.3-3.4-3.4
				c-0.1-2.1,0-4.2,0-6.3c0-2.1,0-4.2,0-6.3c0.1-2.2,1.3-3.4,3.4-3.4c4.2-0.1,8.4-0.1,12.6,0C82.7,80.4,83.9,81.6,84,83.8z
				 M77.4,93.2c0-2.1,0-4.2,0-6.2c-2.2,0-4.2,0-6.2,0c0,2.2,0,4.2,0,6.2C73.3,93.2,75.3,93.2,77.4,93.2z"/>
			<path class="st0" d="M84,109.7c0.1,4.2,0.1,8.4,0,12.6c0,2.2-1.3,3.4-3.4,3.5c-4.2,0.1-8.4,0.1-12.6,0c-2.2,0-3.4-1.3-3.4-3.4
				c-0.1-4.2-0.1-8.4,0-12.6c0-2.2,1.3-3.4,3.6-3.5c2.1,0,4.2,0,6.3,0c2,0,4.1,0,6.1,0C82.7,106.3,83.9,107.5,84,109.7z M77.3,119.1
				c0-2.2,0-4.2,0-6.3c-2.1,0-4.1,0-6.2,0c0,2.2,0,4.2,0,6.3C73.3,119.1,75.3,119.1,77.3,119.1z"/>
			<path class="st3" d="M77.4,86.9c0,2.1,0,4.1,0,6.2c-2.1,0-4.1,0-6.2,0c0-2,0-4.1,0-6.2C73.2,86.9,75.2,86.9,77.4,86.9z"/>
			<path class="st3" d="M77.3,112.8c0,2,0,4.1,0,6.3c-2,0-4.1,0-6.2,0c0-2,0-4,0-6.3C73.2,112.8,75.2,112.8,77.3,112.8z"/>
			
				<linearGradient id="SVGID_3_" gradientUnits="userSpaceOnUse" x1="19.2577" y1="82.8" x2="51.4217" y2="82.8" gradientTransform="matrix(1 0 0 -1 0 202)">
				<stop  offset="0" style="stop-color:#FFFFFF"/>
				<stop  offset="0.2301" style="stop-color:#FCFEFE"/>
				<stop  offset="0.3713" style="stop-color:#F4FCFC"/>
				<stop  offset="0.4886" style="stop-color:#E5F8F8"/>
				<stop  offset="0.5927" style="stop-color:#D1F2F2"/>
				<stop  offset="0.6882" style="stop-color:#B6EAEA"/>
				<stop  offset="0.7773" style="stop-color:#96E1E1"/>
				<stop  offset="0.8615" style="stop-color:#6FD6D6"/>
				<stop  offset="0.9397" style="stop-color:#43C9C9"/>
				<stop  offset="1" style="stop-color:#1CBEBE"/>
			</linearGradient>
			<path class="st5" d="M51.4,61c0,38.7,0,77.5,0,116.4c-10.8,0-21.4,0-32.2,0c0-38.8,0-77.6,0-116.4C29.9,61,40.6,61,51.4,61z
				 M45.1,80.1c0.1-4.2,0.1-8.4,0-12.6c0-2.2-1.3-3.4-3.4-3.4c-4.2-0.1-8.4-0.1-12.6,0c-2.2,0-3.4,1.3-3.4,3.4
				c-0.1,4.2-0.1,8.4,0,12.6c0,2.1,1.3,3.4,3.4,3.4c2.1,0.1,4.2,0,6.3,0s4.2,0,6.3,0C43.8,83.5,45,82.3,45.1,80.1z M45.1,109.3
				c0.1-4.2,0.1-8.4,0-12.6c0-2.1-1.3-3.3-3.4-3.4c-2-0.1-4.1,0-6.1,0c-2.2,0-4.3,0-6.5,0c-2.1,0.1-3.4,1.3-3.4,3.4
				c-0.1,4.2-0.1,8.4,0,12.6c0,2.1,1.3,3.4,3.4,3.4c4.2,0.1,8.4,0.1,12.6,0C43.8,112.7,45,111.4,45.1,109.3z M45.1,135.1
				c0-4.1,0-8.1,0-12.2c0-2.5-1.2-3.6-3.8-3.7c-2,0-3.9,0-5.9,0s-4.1,0-6.1,0c-2.4,0-3.6,1.2-3.7,3.6c0,4.1,0,8.1,0,12.2
				c0,2.4,1.2,3.7,3.6,3.7c4.1,0,8.1,0,12.2,0C43.8,138.6,45,137.4,45.1,135.1z M45.1,155.1c0-2.2,0-4.3,0-6.5
				c-0.1-2.2-1.3-3.4-3.4-3.4c-4.2,0-8.4-0.1-12.6,0c-2.1,0-3.4,1.3-3.4,3.4c-0.1,4.2-0.1,8.4,0,12.6c0,2.1,1.3,3.4,3.4,3.4
				c4.2,0.1,8.4,0.1,12.6,0c2.1,0,3.3-1.3,3.4-3.4C45.1,159.1,45.1,157.1,45.1,155.1z"/>
			<path class="st1" d="M51.4,48c0,2,0,4.1,0,6.2c-12.8,0-25.6,0-38.6,0c0-2.1,0-4.1,0-6.2C25.7,48,38.4,48,51.4,48z"/>
			<path class="st0" d="M45.1,67.5c0.1,4.2,0.1,8.4,0,12.6c0,2.2-1.3,3.4-3.4,3.4c-2.1,0.1-4.2,0-6.3,0s-4.2,0-6.3,0
				c-2.2-0.1-3.4-1.3-3.4-3.4c-0.1-4.2-0.1-8.4,0-12.6c0-2.2,1.3-3.4,3.4-3.4c4.2-0.1,8.4-0.1,12.6,0C43.8,64.2,45,65.4,45.1,67.5z
				 M38.4,77c0-2.1,0-4.2,0-6.3c-2.1,0-4.2,0-6.2,0c0,2.2,0,4.2,0,6.3C34.4,77,36.3,77,38.4,77z"/>
			<path class="st0" d="M45.1,96.7c0.1,4.2,0.1,8.4,0,12.6c0,2.2-1.3,3.4-3.4,3.4c-4.2,0.1-8.4,0.1-12.6,0c-2.2,0-3.4-1.3-3.4-3.4
				c-0.1-4.2-0.1-8.4,0-12.6c0-2.2,1.3-3.4,3.4-3.4c2.2-0.1,4.3,0,6.5,0c2,0,4.1,0,6.1,0C43.8,93.4,45,94.6,45.1,96.7z M38.4,106.1
				c0-2.2,0-4.2,0-6.2c-2.1,0-4.1,0-6.2,0c0,2.1,0,4.1,0,6.2C34.4,106.1,36.4,106.1,38.4,106.1z"/>
			<path class="st0" d="M45.1,122.9c0,4,0,8.1,0,12.2c0,2.4-1.3,3.6-3.7,3.6c-4,0-8.1,0-12.2,0c-2.4,0-3.6-1.3-3.6-3.7
				c0-4,0-8.1,0-12.2c0-2.4,1.3-3.5,3.7-3.6c2,0,4,0,6.1,0c2,0,3.9,0,5.9,0C43.8,119.3,45,120.4,45.1,122.9z M38.5,132.1
				c0-2.2,0-4.2,0-6.2c-2.2,0-4.2,0-6.2,0c0,2.2,0,4.2,0,6.2C34.3,132.1,36.3,132.1,38.5,132.1z"/>
			<path class="st0" d="M45.1,148.6c0.1,2.2,0,4.3,0,6.5c0,2,0,4.1,0,6.1c-0.1,2.2-1.3,3.4-3.4,3.4c-4.2,0.1-8.4,0.1-12.6,0
				c-2.2,0-3.4-1.3-3.4-3.4c-0.1-4.2-0.1-8.4,0-12.6c0-2.2,1.3-3.4,3.4-3.4c4.2-0.1,8.4-0.1,12.6,0C43.8,145.2,45,146.4,45.1,148.6z
				 M38.5,158c0-2.1,0-4.1,0-6.2c-2.2,0-4.2,0-6.3,0c0,2.2,0,4.2,0,6.2C34.4,158,36.5,158,38.5,158z"/>
			<path class="st3" d="M38.5,151.8c0,2.1,0,4.1,0,6.2c-2,0-4.1,0-6.3,0c0-2,0-4.1,0-6.2C34.3,151.8,36.3,151.8,38.5,151.8z"/>
			<path class="st3" d="M38.5,125.9c0,2,0,4,0,6.2c-2.1,0-4.1,0-6.2,0c0-2.1,0-4.1,0-6.2C34.2,125.9,36.3,125.9,38.5,125.9z"/>
			<path class="st3" d="M38.4,99.9c0,2,0,4.1,0,6.2c-2,0-4,0-6.2,0c0-2.2,0-4.2,0-6.2C34.3,99.9,36.3,99.9,38.4,99.9z"/>
			<path class="st3" d="M38.4,70.7c0,2.1,0,4.2,0,6.3c-2.1,0-4.1,0-6.2,0c0-2.1,0-4.1,0-6.3C34.3,70.7,36.3,70.7,38.4,70.7z"/>
		</g>
	</g>
</g>
<g class="st6">
	<path class="st0" d="M67.2,38.3h5.3v21h11.6v4.9H67.2V38.3z"/>
	<path class="st0" d="M102.6,58.6H91.9l-2,5.5h-5.5l10.3-25.8h5.3l10.3,25.8h-5.6L102.6,58.6z M100.9,54l-3.7-9.9L93.6,54H100.9z"/>
	<path class="st0" d="M132.7,53c0.7,1.1,1.1,2.4,1.1,4c0,2.3-0.8,4-2.4,5.2c-1.6,1.2-3.9,1.8-6.9,1.8h-11.9V38.3h11.3
		c2.8,0,5,0.6,6.5,1.8c1.5,1.2,2.3,2.8,2.3,4.9c0,1.3-0.3,2.4-0.8,3.4c-0.5,1-1.3,1.8-2.3,2.3C130.9,51.1,132,51.9,132.7,53z
		 M118,42.8v6.1h5.3c1.3,0,2.3-0.3,3-0.8c0.7-0.5,1-1.3,1-2.3c0-1-0.3-1.8-1-2.3c-0.7-0.5-1.7-0.8-3-0.8H118z M127.4,58.8
		c0.7-0.5,1.1-1.3,1.1-2.4c0-2.1-1.4-3.2-4.3-3.2H118v6.4h6.2C125.6,59.6,126.7,59.3,127.4,58.8z"/>
</g>
<g id="Capa_3_1_">
</g>
</svg>
