<?xml version="1.0" encoding="utf-8"?>
<!-- Generator: Adobe Illustrator 25.4.1, SVG Export Plug-In . SVG Version: 6.00 Build 0)  -->
<svg version="1.1" id="Capa_1" xmlns="http://www.w3.org/2000/svg" xmlns:xlink="http://www.w3.org/1999/xlink" x="0px" y="0px"
	 viewBox="0 0 512 512" style="enable-background:new 0 0 512 512;" xml:space="preserve">
<style type="text/css">
	.st0{fill:#D4D4FF;}
	.st1{fill:#636BA9;}
	.st2{fill:#9FA3E3;}
</style>
<path class="st0" d="M328.8,284.6c-10,34.6-41.6,58.4-77.6,58.4c-44.6,0-80.8-36.2-80.8-80.8c0-44.6,36.2-80.8,80.8-80.8
	c32,0,60.9,18.9,73.9,48.1l39.1-49C319,115.3,229.5,99,164.3,144.2S82.9,278.8,128,343.9s134.6,81.5,199.8,36.3
	c22.7-15.7,40.4-37.7,51-63.2c4.3-10.4,7.4-21.3,9.1-32.5L328.8,284.6z"/>
<path class="st1" d="M302.3,361.9c0-31.1-25.2-56.3-56.3-56.3c0,0,0,0,0,0c-31.1,0-56.3,25.2-56.3,56.3c0,0,0,0,0,0v61.8h112.6
	L302.3,361.9z"/>
<path class="st0" d="M131.8,423.6h228.5V457H131.8V423.6z"/>
<path class="st2" d="M81.7,457h328.7v33.3H81.7V457z"/>
<path class="st1" d="M307.3,284.6H464V317H307.3V284.6z"/>
<circle class="st2" cx="246.1" cy="364.6" r="22.1"/>
<path class="st2" d="M344.4,130.5l-70,87.7l-105.6-84.3c-6-4.7-7-13.4-2.3-19.3c0,0,0-0.1,0.1-0.1l10.1-12.6l35.8-45l6.8-8.5
	c4.7-6,13.4-7,19.4-2.2c0,0,0,0,0,0L344.4,130.5z"/>
<g>
	<path class="st1" d="M212.5,56.9l-35.8,45l-24.8-19.7l16.5-60.4L212.5,56.9z"/>
	<path class="st1" d="M398.2,137.7l-34.1,42.7l-39.1,49l-22.9,28.6c-8,10.1-22.7,11.7-32.8,3.7c-10.1-8-11.7-22.7-3.7-32.8l0,0
		l28.2-35.4l37.5-46.9l30.4-38c8-10.1,22.7-11.7,32.8-3.7S406.2,127.7,398.2,137.7L398.2,137.7L398.2,137.7z"/>
</g>
</svg>
