<?xml version="1.0" encoding="utf-8"?>
<!-- Generator: Adobe Illustrator 24.1.3, SVG Export Plug-In . SVG Version: 6.00 Build 0)  -->
<svg version="1.1" id="Layer_3" xmlns="http://www.w3.org/2000/svg" xmlns:xlink="http://www.w3.org/1999/xlink" x="0px" y="0px"
	 viewBox="0 0 512 512" style="enable-background:new 0 0 512 512;" xml:space="preserve">
<style type="text/css">
	.st0{fill:#DDEBFD;}
	.st1{fill:url(#SVGID_1_);stroke:#DDEBFD;stroke-width:6;stroke-miterlimit:10;}
	.st2{fill:url(#SVGID_2_);stroke:#DDEBFD;stroke-width:6;stroke-miterlimit:10;}
	.st3{fill:url(#SVGID_3_);stroke:#DDEBFD;stroke-width:6;stroke-miterlimit:10;}
	.st4{fill:#3579DB;}
	.st5{fill:#FC6559;}
	.st6{fill:#31A6FA;}
	.st7{fill:#D84F48;}
	.st8{fill:#FEFEFE;}
</style>
<path class="st0" d="M445.8,138.1l-0.4-65.3v-28c0-1.4-0.1-2.7-0.2-4l0-4.6c-0.1-16-13.3-29-29.3-28.9l-6.3,0c-0.6,0-1.1,0-1.7,0
	H267v0.2h-11H110.3C86.2,7.4,66.6,27,66.6,51.1v409.8c0,24.1,19.6,43.7,43.7,43.7H256h145.7c24.1,0,43.7-19.6,43.7-43.7v-183V138.5
	V138C445.5,138,445.7,138.1,445.8,138.1z"/>
<linearGradient id="SVGID_1_" gradientUnits="userSpaceOnUse" x1="154" y1="206.1898" x2="358" y2="206.1898" gradientTransform="matrix(1 0 0 -1 0 511.8898)">
	<stop  offset="0" style="stop-color:#00ADEA"/>
	<stop  offset="1" style="stop-color:#0783E9"/>
</linearGradient>
<path class="st1" d="M168.6,320.3H256h87.4c8.1,0,14.6-6.5,14.6-14.6s-6.5-14.6-14.6-14.6H256h-87.4c-8.1,0-14.6,6.5-14.6,14.6
	S160.6,320.3,168.6,320.3z"/>
<linearGradient id="SVGID_2_" gradientUnits="userSpaceOnUse" x1="154" y1="95.5898" x2="358" y2="95.5898" gradientTransform="matrix(1 0 0 -1 0 511.8898)">
	<stop  offset="0" style="stop-color:#00ADEA"/>
	<stop  offset="1" style="stop-color:#0783E9"/>
</linearGradient>
<path class="st2" d="M343.4,401.7H256h-87.4c-8.1,0-14.6,6.5-14.6,14.6s6.5,14.6,14.6,14.6H256h87.4c8.1,0,14.6-6.5,14.6-14.6
	S351.4,401.7,343.4,401.7z"/>
<linearGradient id="SVGID_3_" gradientUnits="userSpaceOnUse" x1="154" y1="152.7897" x2="358" y2="152.7897" gradientTransform="matrix(1 0 0 -1 0 511.8898)">
	<stop  offset="0" style="stop-color:#00ADEA"/>
	<stop  offset="1" style="stop-color:#0783E9"/>
</linearGradient>
<path class="st3" d="M343.4,344.5H256h-87.4c-8.1,0-14.6,6.5-14.6,14.6s6.5,14.6,14.6,14.6H256h87.4c8.1,0,14.6-6.5,14.6-14.6
	S351.4,344.5,343.4,344.5z"/>
<g>
	<path class="st4" d="M170.4,264.2h9.9v4.5h-15.7v-29.4h5.9V264.2z"/>
	<path class="st4" d="M189.7,239.3v29.4h-5.9v-29.4H189.7z"/>
	<path class="st4" d="M217.4,241.8c2.4,1.9,4,4.4,4.8,7.7H216c-0.6-1.6-1.6-2.8-3-3.7c-1.3-0.9-3-1.4-4.8-1.4c-1.6,0-3,0.4-4.2,1.2
		c-1.2,0.8-2.2,1.9-2.9,3.3c-0.7,1.4-1,3.1-1,5.1c0,1.9,0.3,3.6,1,5c0.7,1.4,1.7,2.6,2.9,3.3c1.2,0.8,2.6,1.2,4.2,1.2
		c1.9,0,3.5-0.5,4.8-1.4c1.3-0.9,2.3-2.2,3-3.7h6.2c-0.8,3.2-2.4,5.8-4.8,7.7c-2.4,1.9-5.4,2.8-9.1,2.8c-2.8,0-5.3-0.6-7.4-1.9
		c-2.1-1.3-3.8-3-5-5.3c-1.2-2.3-1.8-4.9-1.8-7.7c0-2.9,0.6-5.5,1.8-7.8c1.2-2.3,2.8-4,5-5.3c2.1-1.3,4.6-1.9,7.4-1.9
		C211.9,239,214.9,239.9,217.4,241.8z"/>
	<path class="st4" d="M232.4,244v7.6h10.4v4.5h-10.4v7.9H244v4.7h-17.5v-29.4H244v4.7H232.4z"/>
	<path class="st4" d="M273.2,268.7h-5.9l-13.1-20v20h-5.9v-29.4h5.9l13.1,20.1v-20.1h5.9V268.7z"/>
	<path class="st4" d="M300.9,241.8c2.4,1.9,4,4.4,4.8,7.7h-6.2c-0.6-1.6-1.6-2.8-3-3.7c-1.3-0.9-3-1.4-4.8-1.4c-1.6,0-3,0.4-4.2,1.2
		c-1.2,0.8-2.2,1.9-2.9,3.3c-0.7,1.4-1,3.1-1,5.1c0,1.9,0.3,3.6,1,5c0.7,1.4,1.7,2.6,2.9,3.3c1.2,0.8,2.6,1.2,4.2,1.2
		c1.9,0,3.5-0.5,4.8-1.4c1.3-0.9,2.3-2.2,3-3.7h6.2c-0.8,3.2-2.4,5.8-4.8,7.7c-2.4,1.9-5.4,2.8-9.1,2.8c-2.8,0-5.3-0.6-7.4-1.9
		c-2.1-1.3-3.8-3-5-5.3c-1.2-2.3-1.8-4.9-1.8-7.7c0-2.9,0.6-5.5,1.8-7.8c1.2-2.3,2.8-4,5-5.3c2.1-1.3,4.6-1.9,7.4-1.9
		C295.5,239,298.5,239.9,300.9,241.8z"/>
	<path class="st4" d="M316,239.3v29.4h-5.9v-29.4H316z"/>
	<path class="st4" d="M339.2,262.7h-11.8l-2.1,5.9h-6.2l10.8-29h6.7l10.8,29h-6.2L339.2,262.7z M337.6,258.3l-4.3-12.4l-4.3,12.4
		H337.6z"/>
</g>
<path class="st5" d="M239.1,202.3c-8.8-5.2-16.7-11.5-24.3-18.3c-13.9-12.5-26-26.5-34-43.6c-6.9-14.8-9.9-30.1-5.9-46.3
	c8-32.5,46.1-41.8,70.1-21.3c3.8,3.2,6.8,7,9.7,11.3c7.5-11.6,17.7-19,31.3-21.5c0.6,1.6,2.3,1.6,3.6,2.1c4.9,2,9.5,4.6,13.2,8.3
	c8.6,8.6,12,19.3,12.5,31.2c0.3,5.7-1.1,11.3-1.7,16.9c-3,0-6.1,0.1-9.1,0.1c-3.5,0.1-5.2,1.7-5.3,5.3c0,1.9-0.1,3.9-0.1,5.8
	c-6,0-12-0.1-18,0c-1.8,0-2.6-0.5-3-2.3c-1.3-5.3-2.9-10.5-4.3-15.8c-0.6-2.3-1.9-3.9-4.3-3.9c-2.5,0-3.8,1.6-4.4,3.9
	c-0.1,0.4-0.2,0.7-0.3,1.1c-3.3,10.9-6.6,21.9-9.9,32.8c-0.3,0.9-0.3,1.9-1.3,2.7c-0.4-1.2-0.7-2.2-0.9-3.1
	c-3.9-14.4-7.8-28.8-11.7-43.3c-0.6-2.3-1.8-4.2-4.5-4.2c-2.6,0-3.8,1.8-4.4,4.2c-2.1,8.5-4.3,17-6.3,25.5c-0.4,1.8-1.1,2.4-2.9,2.4
	c-6.1-0.1-12.2-0.1-18.3,0c-3,0-4.8,1.7-4.9,4.2c0,2.5,1.8,4.2,4.8,4.3c7.9,0,15.7,0,23.6,0c2.6,0,4.2-1.2,4.8-3.7
	c0.9-3.9,1.8-7.7,2.9-11.5c0.3-0.9,0-2.3,1.3-2.9c1.2,4.3,2.4,8.6,3.5,12.9c3,10.9,5.9,21.7,8.9,32.6c0.6,2.2,1.9,3.6,4.3,3.6
	c2.2,0,3.5-1.3,4.1-3.4c0.1-0.4,0.3-0.7,0.4-1c3.4-11.1,6.7-22.3,10.1-33.4c0.3-0.9,0.3-1.9,1.4-2.7c0.6,2.1,1.1,3.9,1.6,5.8
	c0.7,2.6,2.2,3.9,5,3.9c7.7-0.1,15.3,0,23-0.1c0.5,3-0.4,6.2,0.7,9.1c-0.6,1.5-1.6,2.9-2.6,4.2c-7.6,10.2-16.4,19.2-26.2,27.4
	C261.1,189.7,250.7,196.9,239.1,202.3z"/>
<path class="st6" d="M299.1,132.4c0-1.9,0.1-3.9,0.1-5.8c0.1-3.6,1.7-5.2,5.3-5.3c3,0,6.1-0.1,9.1-0.1c1.7,0,3.5,0,5.2,0.1
	c1.6,0.1,2.1-0.4,2-2c-0.1-4.7-0.1-9.4,0-14.1c0-3.9,1.6-5.5,5.5-5.6c3.1,0,6.2-0.1,9.4-0.1c3.5,0,7,0.1,10.5,0.1
	c3.6,0.1,5.2,1.6,5.2,5.3c0,4.6,0.1,9.2,0,13.8c-0.1,2.2,0.7,2.6,2.7,2.5c4.5-0.2,9-0.1,13.6-0.1c3.8,0,5.6,1.6,5.6,5.2
	c0.1,6.7,0.1,13.5,0,20.2c-0.1,3.5-1.8,5.2-5.4,5.3c-4.7,0.1-9.4,0.1-14.1-0.1c-1.8-0.1-2.5,0.4-2.4,2.2c0.1,4.7,0.1,9.4,0,14.1
	c0,3.6-1.6,5.2-5.3,5.2c-6.6,0-13.3,0-19.9,0c-3.7,0-5.3-1.6-5.4-5.4c-0.1-4.4-0.1-8.9-0.1-13.3c0.6-2.4-0.4-3-2.7-2.9
	c-4.3,0.2-8.7,0-13,0.1c-2.1,0-3.8-0.5-5.2-2c-1.2-3-0.3-6.1-0.7-9.1C299.1,138,299.1,135.2,299.1,132.4z"/>
<path class="st7" d="M299.8,149.9c1.4,1.5,3.1,2.1,5.2,2c4.3-0.1,8.7,0.1,13-0.1c2.3-0.1,3.3,0.5,2.7,2.9
	c-8.3,11.8-17.9,22.4-28.9,31.8c-9.9,8.5-20.5,15.8-31.9,22.1c-3.7,2.1-7,2.2-10.5-0.1c-3.4-2.2-7.2-3.7-10.3-6.3
	c11.6-5.5,22.1-12.7,31.9-20.9c9.8-8.1,18.6-17.2,26.2-27.4C298.2,152.8,299.2,151.4,299.8,149.9z"/>
<path class="st7" d="M335.7,99.6c-3.1,0-6.2,0.1-9.4,0.1c-3.9,0.1-5.5,1.7-5.5,5.6c0,4.7-0.1,9.4,0,14.1c0,1.6-0.5,2.1-2,2
	c-1.7-0.1-3.5-0.1-5.2-0.1c0.5-5.6,1.9-11.2,1.7-16.9c-0.5-11.9-4-22.6-12.5-31.2c-3.7-3.7-8.3-6.3-13.2-8.3c-1.3-0.5-3-0.5-3.6-2.1
	c23.3-4.3,45.1,10.8,49.3,34.2C335.3,97.7,335.5,98.6,335.7,99.6z"/>
<path class="st8" d="M299.1,132.4c0,2.8,0,5.6,0,8.4c-7.7,0-15.3,0-23,0.1c-2.8,0-4.3-1.3-5-3.9c-0.5-1.9-1-3.7-1.6-5.8
	c-1.1,0.8-1.1,1.8-1.4,2.7c-3.4,11.1-6.7,22.2-10.1,33.4c-0.1,0.4-0.3,0.7-0.4,1c-0.6,2.1-1.9,3.4-4.1,3.4c-2.4,0-3.7-1.4-4.3-3.6
	c-2.9-10.9-5.9-21.7-8.9-32.6c-1.2-4.3-2.3-8.5-3.5-12.9c-1.3,0.6-1,1.9-1.3,2.9c-1.1,3.8-2,7.7-2.9,11.5c-0.6,2.5-2.2,3.7-4.8,3.7
	c-7.9,0-15.7,0-23.6,0c-2.9,0-4.8-1.8-4.8-4.3c0-2.5,1.9-4.1,4.9-4.2c6.1,0,12.2-0.1,18.3,0c1.8,0,2.5-0.6,2.9-2.4
	c2-8.5,4.2-17,6.3-25.5c0.6-2.4,1.8-4.2,4.4-4.2c2.7,0,3.8,1.8,4.5,4.2c3.9,14.4,7.8,28.8,11.7,43.3c0.3,1,0.6,1.9,0.9,3.1
	c1-0.8,1.1-1.8,1.3-2.7c3.3-10.9,6.6-21.9,9.9-32.8c0.1-0.4,0.2-0.7,0.3-1.1c0.6-2.3,1.9-3.9,4.4-3.9c2.4,0,3.7,1.6,4.3,3.9
	c1.4,5.3,3,10.5,4.3,15.8c0.4,1.8,1.2,2.3,3,2.3C287.1,132.3,293.1,132.4,299.1,132.4z"/>
</svg>
