<?xml version="1.0" encoding="utf-8"?>
<!-- Generator: Adobe Illustrator 23.0.4, SVG Export Plug-In . SVG Version: 6.00 Build 0)  -->
<svg version="1.1" id="Capa_1" xmlns="http://www.w3.org/2000/svg" xmlns:xlink="http://www.w3.org/1999/xlink" x="0px" y="0px"
	 viewBox="0 0 600 600" style="enable-background:new 0 0 600 600;" xml:space="preserve">
<style type="text/css">
	.st0{fill:#B4C6CA;}
	.st1{fill:#DFE8EA;}
	.st2{fill:#82C5BE;}
	.st3{fill:#68ADA4;}
	.st4{fill:#EF4125;}
</style>
<g>
	<g>
		<rect x="18.63" y="265.58" class="st0" width="562.74" height="268.55"/>
		<rect x="160.14" y="65.86" class="st1" width="279.72" height="468.27"/>
		<rect x="225.96" y="427.17" class="st0" width="159.48" height="106.96"/>
	</g>
	<g>
		<rect x="187.15" y="88.2" class="st2" width="75.9" height="75.9"/>
		<rect x="187.15" y="211.83" class="st2" width="75.9" height="75.9"/>
		<rect x="336.95" y="88.2" class="st2" width="75.9" height="75.9"/>
		<rect x="336.95" y="211.83" class="st2" width="75.9" height="75.9"/>
	</g>
	<g>
		<rect x="47.97" y="283.57" class="st3" width="75.91" height="75.9"/>
		<rect x="47.97" y="436.75" class="st3" width="75.91" height="75.9"/>
		<rect x="476.13" y="283.6" class="st3" width="75.91" height="75.9"/>
		<rect x="476.13" y="436.75" class="st3" width="75.91" height="75.9"/>
	</g>
	<g>
		<rect x="284.37" y="308.07" class="st4" width="31.25" height="82.08"/>
		<rect x="258.97" y="333.48" class="st4" width="82.06" height="31.26"/>
	</g>
	<g>
		<rect x="174.99" y="417.59" class="st2" width="250.02" height="19.17"/>
		<g>
			<rect x="214.56" y="427.4" class="st2" width="22.8" height="106.73"/>
			<rect x="362.64" y="427.4" class="st2" width="22.8" height="106.73"/>
		</g>
	</g>
</g>
</svg>
