<?xml version="1.0" encoding="utf-8"?>
<!-- Generator: Adobe Illustrator 23.0.4, SVG Export Plug-In . SVG Version: 6.00 Build 0)  -->
<svg version="1.1" id="Capa_1" xmlns="http://www.w3.org/2000/svg" xmlns:xlink="http://www.w3.org/1999/xlink" x="0px" y="0px"
	 viewBox="0 0 200 200" style="enable-background:new 0 0 200 200;" xml:space="preserve">
<style type="text/css">
	.st0{fill:#FFFFFF;stroke:#FFFFFF;stroke-width:3;stroke-miterlimit:10;}
</style>
<g>
	<path class="st0" d="M114.9,64.4c1.7,0,3-1.3,3-3s-1.3-3-3-3h-0.3v-13c0-4.4-3.6-8-8-8H16.8c-4.4,0-8,3.6-8,8v12.9H8.6
		c-1.7,0-3,1.3-3,3s1.3,3,3,3H16v7.2l-3.7,2.1C8.5,75.9,5.6,81.3,5.6,86v95.5c0,7.2,5.8,13,13,13H105c7.2,0,13-5.8,13-13V86
		c0-4.7-3-10.1-6.7-12.2l-3.7-2.1v-7.2L114.9,64.4L114.9,64.4z M111.9,181.5c0,3.8-3.1,6.9-6.9,6.9H18.5c-3.8,0-6.9-3.1-6.9-6.9
		v-6.9h100.3V181.5z M111.9,168.5H11.6v-58.3h100.3V168.5z M108.2,79c1.9,1.1,3.7,4.4,3.7,7v18.2H11.6V86c0-2.6,1.8-5.9,3.7-7l5.2-3
		c0.9-0.5,1.5-1.5,1.5-2.6v-8.9h79.5v8.9c0,1.1,0.6,2.1,1.5,2.6L108.2,79z M14.8,58.4v-13c0-1.1,0.9-2,2-2h12v5.9c0,1.7,1.3,3,3,3
		s3-1.3,3-3v-5.9h13.9v5.9c0,1.7,1.3,3,3,3s3-1.3,3-3v-5.9h13.9v5.9c0,1.7,1.3,3,3,3s3-1.3,3-3v-5.9h13.9v5.9c0,1.7,1.3,3,3,3
		s3-1.3,3-3v-5.9h12c1.1,0,2,0.9,2,2v12.9L14.8,58.4L14.8,58.4z"/>
	<path class="st0" d="M43.7,157.6h36.1c10.1,0,18.3-8.2,18.3-18.3S89.9,121,79.8,121H43.7c-10.1,0-18.3,8.2-18.3,18.3
		S33.6,157.6,43.7,157.6z M64.8,127.1h15c6.8,0,12.2,5.5,12.2,12.2c0,6.8-5.5,12.2-12.2,12.2h-15V127.1z M43.7,127.1h15v24.5h-15
		c-6.8,0-12.2-5.5-12.2-12.2C31.5,132.6,37,127.1,43.7,127.1z"/>
	<path class="st0" d="M92.4,70.4H55.2c-1.7,0-3,1.3-3,3s1.3,3,3,3h37.3c1.7,0,3-1.3,3-3C95.4,71.7,94.1,70.4,92.4,70.4z"/>
	<path class="st0" d="M43.1,70.4h-12c-1.7,0-3,1.3-3,3s1.3,3,3,3h12.1c1.7,0,3-1.3,3-3C46.1,71.7,44.8,70.4,43.1,70.4z"/>
	<path class="st0" d="M128.6,179.4c0,1.7,1.3,3,3,3s3-1.3,3-3v-24.1c0-1.7-1.3-3-3-3s-3,1.3-3,3V179.4z"/>
	<path class="st0" d="M131.6,146.2c1.7,0,3-1.3,3-3V20.6c0-1.7-1.3-3-3-3s-3,1.3-3,3v122.6C128.6,144.9,129.9,146.2,131.6,146.2z"/>
	<path class="st0" d="M171.7,5.6H91.4c-12.5,0-22.7,10.2-22.7,22.7c0,1.7,1.3,3,3,3s3-1.3,3-3c0-9.2,7.5-16.7,16.7-16.7h80.3
		c9.2,0,16.7,7.5,16.7,16.7v143.5c0,9.2-7.5,16.7-16.7,16.7h-47.1c-1.7,0-3,1.3-3,3s1.3,3,3,3h47.1c12.5,0,22.7-10.2,22.7-22.7V28.3
		C194.4,15.7,184.3,5.6,171.7,5.6z"/>
	<path class="st0" d="M161.5,52.8c8.1,0,14.7-6.6,14.7-14.7s-6.6-14.7-14.7-14.7c-8.1,0-14.7,6.6-14.7,14.7S153.4,52.8,161.5,52.8z
		 M161.5,29.4c4.8,0,8.7,3.9,8.7,8.7s-3.9,8.7-8.7,8.7s-8.7-3.9-8.7-8.7S156.7,29.4,161.5,29.4z"/>
	<path class="st0" d="M161.5,94.1c8.1,0,14.7-6.6,14.7-14.7s-6.6-14.7-14.7-14.7c-8.1,0-14.7,6.6-14.7,14.7S153.4,94.1,161.5,94.1
		L161.5,94.1z M161.5,70.7c4.8,0,8.7,3.9,8.7,8.7s-3.9,8.7-8.7,8.7s-8.7-3.9-8.7-8.7S156.7,70.7,161.5,70.7z"/>
	<path class="st0" d="M161.5,135.3c8.1,0,14.7-6.6,14.7-14.7s-6.6-14.7-14.7-14.7c-8.1,0-14.7,6.6-14.7,14.7
		S153.4,135.3,161.5,135.3z M161.5,111.9c4.8,0,8.7,3.9,8.7,8.7c0,4.8-3.9,8.7-8.7,8.7s-8.7-3.9-8.7-8.7
		C152.8,115.8,156.7,111.9,161.5,111.9z"/>
	<path class="st0" d="M161.5,176.6c8.1,0,14.7-6.6,14.7-14.7s-6.6-14.7-14.7-14.7c-8.1,0-14.7,6.6-14.7,14.7
		S153.4,176.6,161.5,176.6z M161.5,153.2c4.8,0,8.7,3.9,8.7,8.7s-3.9,8.7-8.7,8.7s-8.7-3.9-8.7-8.7
		C152.8,157.1,156.7,153.2,161.5,153.2z"/>
	<path class="st0" d="M96.8,30.9c1.4-1,3.1-1.5,4.9-1.5s3.5,0.5,4.9,1.5c0.5,0.4,1.1,0.5,1.7,0.5c1,0,1.9-0.5,2.5-1.3
		c0.9-1.4,0.6-3.2-0.8-4.2c-2.5-1.7-5.4-2.6-8.4-2.6c-2.9,0-5.8,0.9-8.2,2.5c-1.4,0.9-1.7,2.8-0.8,4.2
		C93.5,31.5,95.4,31.8,96.8,30.9L96.8,30.9z"/>
</g>
</svg>
