<?xml version="1.0" encoding="utf-8"?>
<!-- Generator: Adobe Illustrator 24.2.3, SVG Export Plug-In . SVG Version: 6.00 Build 0)  -->
<svg version="1.1" id="Capa_1" xmlns="http://www.w3.org/2000/svg" xmlns:xlink="http://www.w3.org/1999/xlink" x="0px" y="0px"
	 viewBox="0 0 200 200" style="enable-background:new 0 0 200 200;" xml:space="preserve">
<style type="text/css">
	.st0{fill:none;stroke:#FCFCFC;stroke-width:7;stroke-miterlimit:10;}
	.st1{fill:#FFFFFF;}
	.st2{fill:none;stroke:#FFFFFF;stroke-width:3;stroke-miterlimit:10;}
</style>
<circle class="st0" cx="100" cy="100" r="93.5"/>
<g id="XMLID_5_">
	<g>
		<g id="XMLID_1_">
			<g>
				<path class="st1" d="M80.9,114.9c0.9,0.9,1.3,1,2.2,0c19.7-19.7,39.4-39.5,59.1-59.2c4.7-4.7,10.2-4.7,14.9,0
					c1.1,1.1,2.3,2.2,3.4,3.4c0.1,0.1,0.3,0.3,0.4,0.4c1.7,1.9,2.6,3.9,2.9,5.9c0,0.3,0.1,0.7,0.1,1c0,2.5-1.1,5-3.3,7.2
					c-18.9,18.9-37.8,37.8-56.7,56.7c-5.6,5.6-11.2,11.2-16.8,16.8c-3.2,3.2-6.9,3.2-10.1,0c-11.5-11.5-23-23.1-34.6-34.6
					c-1.7-1.7-2.9-3.7-3.8-5.8c0-1.3,0-2.6,0-3.9c1.2-4,4.4-6.4,7.2-9.2c4-4,9.8-4,13.9,0C66.7,100.7,73.8,107.8,80.9,114.9z"/>
			</g>
			<g>
				<path class="st2" d="M163.8,65.4c0,0.3,0.1,0.7,0.1,1c0,2.5-1.1,5-3.3,7.2c-18.9,18.9-37.8,37.8-56.7,56.7
					c-5.6,5.6-11.2,11.2-16.8,16.8c-3.2,3.2-6.9,3.2-10.1,0c-11.5-11.5-23-23.1-34.6-34.6c-1.7-1.7-2.9-3.7-3.8-5.8
					c0-1.3,0-2.6,0-3.9c1.2-4,4.4-6.4,7.2-9.2c4-4,9.8-4,13.9,0c7.1,7.1,14.2,14.2,21.3,21.3c0.9,0.9,1.3,1,2.2,0
					c19.7-19.7,39.4-39.5,59.1-59.2c4.7-4.7,10.2-4.7,14.9,0c1.1,1.1,2.3,2.2,3.4,3.4c0.1,0.1,0.3,0.3,0.4,0.4
					C162.6,61.3,163.5,63.3,163.8,65.4z"/>
			</g>
		</g>
	</g>
</g>
</svg>
