<?xml version="1.0" encoding="utf-8"?>
<!-- Generator: Adobe Illustrator 23.0.4, SVG Export Plug-In . SVG Version: 6.00 Build 0)  -->
<svg version="1.1" id="Layer_1" xmlns="http://www.w3.org/2000/svg" xmlns:xlink="http://www.w3.org/1999/xlink" x="0px" y="0px"
	 viewBox="0 0 512 512" style="enable-background:new 0 0 512 512;" xml:space="preserve">
<style type="text/css">
	.st0{fill:#FFFFFF;stroke:#FFFFFF;stroke-width:10.8941;stroke-miterlimit:10;}
</style>
<g>
	<g id="XMLID_1_">
		<g>
			<path class="st0" d="M501.5,211.6c7.9,46,2.3,93.6-16.2,138c-18.5,44.3-48.5,81.9-86.8,108.9c-41,28.8-90.1,44-142,44
				c-0.1,0-0.3,0-0.5,0h-0.1c-63.7,1.3-127.7-25.2-175.6-72.7S5.8,318.7,7,255.4v-0.1c-0.1-51.8,15.2-100.7,44.3-141.4
				C78.5,75.9,116.5,46,161,27.8c31.5-12.9,64.6-19.5,97.7-19.5c13.8,0,27.6,1.2,41.2,3.5c49.6,8.4,95.3,32.3,132.1,68.9l0,0
				C469.1,117.1,493.1,162.4,501.5,211.6z M483,295.5c7.3-42.4,2.2-86.5-14.9-127.4s-44.8-75.6-80.2-100.6
				C350,40.9,304.5,26.8,256.5,26.8c-0.1,0-0.2,0-0.4,0c-59-1.2-118.2,23.3-162.4,67.2c-44.2,44-69,102.7-67.8,161.3
				C25.8,303.2,40,348.4,67,386.1c25,35.1,60.1,62.7,101.3,79.6c29,11.9,59.6,18,90.2,18c12.7,0,25.5-1.1,38.2-3.2
				c45.9-7.8,88.2-29.8,122.2-63.6C452.9,383,475.1,341.1,483,295.5z"/>
			<path class="st0" d="M411,203.4v103.4c0,5.1-4.3,9.4-9.4,9.4h-83.5v82.9c0,5.1-4.3,9.4-9.4,9.4H204.4c-5.2,0-9.4-4.2-9.4-9.4
				v-82.9h-83.5c-5.2,0-9.4-4.2-9.4-9.4V203.4c0-5.1,4.3-9.4,9.4-9.4H195v-82.9c0-5.1,4.3-9.4,9.4-9.4h104.2c5.2,0,9.4,4.2,9.4,9.4
				V194h83.5C406.7,194,411,198.3,411,203.4z M392.1,297.4v-84.7h-83.5c-5.2,0-9.4-4.2-9.4-9.4v-82.9h-85.3v82.9
				c0,5.1-4.3,9.4-9.4,9.4H121v84.7h83.5c5.2,0,9.4,4.2,9.4,9.4v82.9h85.3v-82.9c0-5.1,4.3-9.4,9.4-9.4H392.1z"/>
		</g>
	</g>
</g>
</svg>
