<?xml version="1.0" encoding="utf-8"?>
<!-- Generator: Adobe Illustrator 23.0.4, SVG Export Plug-In . SVG Version: 6.00 Build 0)  -->
<svg version="1.1" id="Layer_1" xmlns="http://www.w3.org/2000/svg" xmlns:xlink="http://www.w3.org/1999/xlink" x="0px" y="0px"
	 viewBox="0 0 512 512" style="enable-background:new 0 0 512 512;" xml:space="preserve">
<style type="text/css">
	.st0{fill:url(#SVGID_1_);}
	.st1{fill:#3366CC;}
	.st2{fill:#FFFFFF;}
</style>
<g id="XMLID_1_">
	<g>
		<linearGradient id="SVGID_1_" gradientUnits="userSpaceOnUse" x1="24.4585" y1="255.879" x2="487.5309" y2="255.879">
			<stop  offset="0" style="stop-color:#FFFFFF"/>
			<stop  offset="1" style="stop-color:#1CBEBE"/>
		</linearGradient>
		<path class="st0" d="M469.3,167.6c17.2,41.4,22.3,86.1,15,129.1c-7.9,46.2-30.2,88.7-64.6,123c-34.2,34.3-76.7,56.6-122.9,64.5
			c-12.7,2.1-25.6,3.2-38.4,3.2c-30.7,0-61.5-6.1-90.7-18.2C126.3,452,91,424.1,65.8,388.5c-27.1-38.2-41.4-84-41.3-132.5
			c-1.2-59.4,23.7-118.9,68.2-163.5c44.5-44.5,104-69.3,163.4-68.1c0.2,0,0.3,0,0.4,0c48.3,0,94,14.3,132.1,41.3
			C424.2,91,452.1,126.2,469.3,167.6z"/>
		<path class="st1" d="M503,211.7c7.9,46.6,2.3,94.9-16.3,139.8c-18.6,44.9-48.8,83-87.3,110.4c-41.2,29.2-90.6,44.6-142.9,44.6
			c-0.1,0-0.3,0-0.5,0h-0.1c-64.1,1.3-128.5-25.5-176.7-73.7S4.2,320.2,5.5,256.1V256c-0.1-52.5,15.3-102,44.6-143.3
			c27.3-38.5,65.5-68.8,110.3-87.3c31.7-13.1,65-19.8,98.3-19.8c13.9,0,27.8,1.2,41.5,3.5c49.9,8.5,95.9,32.7,132.9,69.8
			c18.65,18.5,34,39.23,45.75,61.56C490.6,162.8,498.75,186.75,503,211.7z M484.3,296.7c7.3-43,2.2-87.7-15-129.1
			c-17.2-41.4-45.1-76.6-80.7-101.9c-38.1-27-83.8-41.3-132.1-41.3c-0.1,0-0.2,0-0.4,0C196.7,23.2,137.2,48,92.7,92.5
			C48.2,137.1,23.3,196.6,24.5,256c-0.1,48.5,14.2,94.3,41.3,132.5c25.2,35.6,60.5,63.5,101.9,80.7c29.2,12.1,60,18.2,90.7,18.2
			c12.8,0,25.7-1.1,38.4-3.2c46.2-7.9,88.7-30.2,122.9-64.5C454.1,385.4,476.4,342.9,484.3,296.7z"/>
	</g>
	<g>
	</g>
</g>
<polygon class="st2" points="206.04,202.14 206.04,113.72 305.83,108.66 309.61,203.4 401.83,204.66 404.35,303.19 313.4,306.98 
	308.35,397.93 204.77,396.66 200.98,308.24 111.3,305.72 112.56,200.87 "/>
<path class="st1" d="M411.9,203.4v104.8c0,5.2-4.3,9.5-9.5,9.5h-84v84c0,5.2-4.3,9.5-9.5,9.5H204.1c-5.2,0-9.5-4.3-9.5-9.5v-84h-84
	c-5.2,0-9.5-4.3-9.5-9.5V203.4c0-5.2,4.3-9.5,9.5-9.5h84v-84c0-5.2,4.3-9.5,9.5-9.5h104.8c5.2,0,9.5,4.3,9.5,9.5v84h84
	C407.6,193.9,411.9,198.2,411.9,203.4z M392.9,298.7v-85.8h-84c-5.2,0-9.5-4.3-9.5-9.5v-84h-85.8v84c0,5.2-4.3,9.5-9.5,9.5h-84v85.8
	h84c5.2,0,9.5,4.3,9.5,9.5v84h85.8v-84c0-5.2,4.3-9.5,9.5-9.5H392.9z"/>
</svg>
