<?xml version="1.0" encoding="utf-8"?>
<!-- Generator: Adobe Illustrator 25.4.1, SVG Export Plug-In . SVG Version: 6.00 Build 0)  -->
<svg version="1.1" id="Capa_1" xmlns="http://www.w3.org/2000/svg" xmlns:xlink="http://www.w3.org/1999/xlink" x="0px" y="0px"
	 viewBox="0 0 413 392.2" style="enable-background:new 0 0 413 392.2;" xml:space="preserve">
<style type="text/css">
	.st0{fill:url(#SVGID_1_);}
	.st1{fill:url(#SVGID_00000018216333099136400470000000407490670817919412_);}
	.st2{fill:url(#SVGID_00000023968256324881863670000014968377371650424718_);}
	.st3{fill:#F6CCAF;}
	.st4{fill:#FFDEC7;}
	.st5{fill:#374F68;}
	.st6{fill:#425B72;}
	.st7{fill:#D3DDFB;}
	.st8{fill:#EAF5FC;}
	.st9{fill:#FC6559;}
</style>
<linearGradient id="SVGID_1_" gradientUnits="userSpaceOnUse" x1="24.8966" y1="713.5463" x2="153.0119" y2="841.6617" gradientTransform="matrix(1 0 0 1 0 -450.3937)">
	<stop  offset="0" style="stop-color:#00ADEA"/>
	<stop  offset="1" style="stop-color:#0783E9"/>
</linearGradient>
<path class="st0" d="M172.2,302.4C172.3,302.4,172.3,302.4,172.2,302.4c0-0.4-0.1-0.9-0.2-1.3c-0.1-0.9-0.3-1.9-0.4-2.8
	c-0.2-1.3-0.6-2.6-0.9-4c-0.1-0.3-0.1-0.6-0.2-0.9c-2.5-9.4-7.1-18.2-13.6-26.1c-27.1-32.9-79.6-40.3-117.1-16.5
	c-0.2,0.2-0.3,0.4-0.4,0.6c-13.1,8.4-23.5,20.2-29.4,34.6c-4.1,10.5-5.9,74.3-5.1,85.4h168v-60.9
	C172.9,307.8,172.6,305.1,172.2,302.4z"/>
<linearGradient id="SVGID_00000004523084332182742270000003298341310568305080_" gradientUnits="userSpaceOnUse" x1="257.0465" y1="714.5064" x2="385.162" y2="842.6217" gradientTransform="matrix(1 0 0 1 0 -450.3937)">
	<stop  offset="0" style="stop-color:#00ADEA"/>
	<stop  offset="1" style="stop-color:#0783E9"/>
</linearGradient>
<path style="fill:url(#SVGID_00000004523084332182742270000003298341310568305080_);" d="M404.4,303.3
	C404.4,303.3,404.4,303.3,404.4,303.3c0-0.4-0.1-0.9-0.2-1.3c-0.1-0.9-0.3-1.9-0.5-2.8c-0.2-1.3-0.6-2.6-0.9-4
	c-0.1-0.3-0.1-0.6-0.2-0.9c-2.5-9.4-7.1-18.2-13.6-26.1c-27.1-32.9-79.6-40.3-117.1-16.5c-0.1,0.2-0.3,0.4-0.4,0.6
	c-13.1,8.4-23.5,20.2-29.4,34.6c-4.1,10.5-5.9,74.3-5.1,85.4h168v-60.9C405,308.7,404.8,306,404.4,303.3z"/>
<linearGradient id="SVGID_00000170239105034280231110000005106189497017809026_" gradientUnits="userSpaceOnUse" x1="135.1891" y1="728.2102" x2="278.3014" y2="871.3223" gradientTransform="matrix(1 0 0 1 0 -450.3937)">
	<stop  offset="0" style="stop-color:#00A99D"/>
	<stop  offset="0.1894" style="stop-color:#0FBBB1"/>
	<stop  offset="0.4258" style="stop-color:#1BCBC2"/>
	<stop  offset="0.6836" style="stop-color:#23D5CC"/>
	<stop  offset="1" style="stop-color:#25D8CF"/>
</linearGradient>
<path style="fill:url(#SVGID_00000170239105034280231110000005106189497017809026_);" d="M299.8,321.6
	C299.8,321.6,299.8,321.6,299.8,321.6c0-0.5-0.1-1-0.2-1.5c-0.2-1-0.3-2.1-0.5-3.1c-0.3-1.5-0.6-3-1-4.4c-0.1-0.3-0.1-0.7-0.2-1
	c-2.8-10.5-8-20.4-15.2-29.1c-30.3-36.8-88.9-45-130.8-18.4c-0.2,0.2-0.3,0.4-0.5,0.6c-14.6,9.4-26.3,22.6-32.8,38.7
	c-4.5,11.7-6.6,83-5.7,95.4h187.7v-68C300.4,327.7,300.2,324.6,299.8,321.6z"/>
<g>
	<path class="st3" d="M358.2,182.1c0,28,1.8,37.3-6.7,49.2c-11.8,16.9-35,21.1-51.9,9.4c-1.8-1.3-3.5-2.7-5.1-4.2
		c-13.8-14-10.9-28.5-10.9-54.3c13.7,5.7,36.1,10.5,46.6,0c7.4-7.7,19.7-8,27.4-0.6C357.9,181.7,358,181.9,358.2,182.1L358.2,182.1z
		"/>
	<path class="st4" d="M358.2,182.1c0,28,1.8,37.3-6.7,49.2c-14.8,10.3-34.9,8.5-47.6-4.2c-12.6-12.8-10.9-25.5-10.9-41.8
		c10.7,3,28,6,37.3-3.3c7.4-7.7,19.7-8,27.4-0.6C357.9,181.7,358,181.9,358.2,182.1L358.2,182.1z"/>
	<path class="st5" d="M358.2,182.1c-7.4-7.7-19.7-8-27.4-0.6c-0.2,0.2-0.4,0.4-0.5,0.6c-14,14-46.6,0-46.6,0
		c0-20.6,16.7-37.3,37.3-37.3C341.5,144.8,358.2,161.5,358.2,182.1z"/>
	<path class="st6" d="M358.2,182.1c-7.3-7.7-19.6-8-27.3-0.7c-0.2,0.2-0.5,0.4-0.7,0.7c-3.7,3.5-8.5,5.6-13.6,6
		c-8.1-0.9-16.1-2.9-23.7-6c-0.1-18.9,13.9-34.9,32.6-37.3C344.4,147.1,358.4,163.2,358.2,182.1z"/>
</g>
<g>
	<path class="st3" d="M248.2,191.4c0,31.2,2,41.6-7.5,55c-13.1,18.9-39.1,23.6-58,10.4c-2-1.4-3.9-3-5.7-4.7
		c-15.4-15.6-12.2-31.9-12.2-60.7c15.3,6.4,40.3,11.8,52.1,0c8.3-8.6,22-8.9,30.6-0.6C247.8,191,248,191.2,248.2,191.4L248.2,191.4z
		"/>
	<path class="st4" d="M248.2,191.4c0,31.2,2,41.6-7.5,55c-16.5,11.5-38.9,9.5-53.2-4.7c-14.1-14.3-12.2-28.5-12.2-46.6
		c12,3.3,31.2,6.7,41.6-3.6c8.3-8.6,22-8.9,30.6-0.6C247.8,191,248,191.2,248.2,191.4L248.2,191.4z"/>
	<path class="st5" d="M248.2,191.4c-8.3-8.6-22-8.9-30.6-0.6c-0.2,0.2-0.4,0.4-0.6,0.6c-15.6,15.6-52.1,0-52.1,0
		c0-23,18.6-41.6,41.6-41.6S248.2,168.4,248.2,191.4z"/>
	<path class="st6" d="M248.2,191.4c-8.2-8.6-21.9-9-30.5-0.8c-0.3,0.2-0.5,0.5-0.8,0.8c-4.1,3.9-9.5,6.3-15.2,6.7
		c-9.1-1-18-3.2-26.4-6.7c-0.2-21.1,15.5-39,36.4-41.6C232.7,152.4,248.4,170.3,248.2,191.4z"/>
</g>
<g>
	<path class="st3" d="M126.1,182.1c0,28,1.8,37.3-6.7,49.2c-11.8,16.9-35,21.1-51.9,9.4c-1.8-1.3-3.5-2.7-5.1-4.2
		c-13.8-14-10.9-28.5-10.9-54.3c13.7,5.7,36.1,10.5,46.6,0c7.4-7.7,19.7-8,27.4-0.6C125.7,181.7,125.9,181.9,126.1,182.1
		L126.1,182.1z"/>
	<path class="st4" d="M126.1,182.1c0,28,1.8,37.3-6.7,49.2c-14.8,10.3-34.9,8.5-47.6-4.2c-12.6-12.8-10.9-25.5-10.9-41.8
		c10.7,3,28,6,37.3-3.3c7.4-7.7,19.7-8,27.4-0.6C125.7,181.7,125.9,181.9,126.1,182.1L126.1,182.1z"/>
	<path class="st5" d="M126.1,182.1c-7.4-7.7-19.7-8-27.4-0.6c-0.2,0.2-0.4,0.4-0.6,0.6c-14,14-46.6,0-46.6,0
		c0-20.6,16.7-37.3,37.3-37.3S126.1,161.5,126.1,182.1z"/>
	<path class="st6" d="M126.1,182.1c-7.3-7.7-19.6-8-27.3-0.7c-0.2,0.2-0.5,0.4-0.7,0.7c-3.7,3.5-8.5,5.6-13.6,6
		c-8.1-0.9-16.1-2.9-23.7-6c-0.2-18.9,13.9-34.9,32.6-37.3C112.2,147.1,126.2,163.2,126.1,182.1z"/>
</g>
<g>
	<path class="st7" d="M274.4,69.9c0,14.5-4.7,28.6-13.4,40.1c-38.5,51.3-120.4,23.7-120.4-40.1c0-21,9.9-40.9,26.8-53.5
		C196.9-5.8,238.9,0.2,261,29.8C269.7,41.3,274.4,55.4,274.4,69.9z"/>
	<path class="st8" d="M274.4,69.9c0,14.5-4.7,28.6-13.4,40.1c-29.6,22.2-71.5,16.2-93.7-13.4c-17.8-23.8-17.8-56.5,0-80.3
		C196.9-5.8,238.9,0.2,261,29.8C269.7,41.3,274.4,55.4,274.4,69.9z"/>
	<path class="st9" d="M241,56.5h-20.1V36.5h-26.8v20.1h-20.1v26.8h20.1v20.1h26.8V83.3H241L241,56.5L241,56.5z"/>
</g>
</svg>
