<?xml version="1.0" encoding="utf-8"?>
<!-- Generator: Adobe Illustrator 25.4.1, SVG Export Plug-In . SVG Version: 6.00 Build 0)  -->
<svg version="1.1" id="Capa_1" xmlns="http://www.w3.org/2000/svg" xmlns:xlink="http://www.w3.org/1999/xlink" x="0px" y="0px"
	 viewBox="0 0 200 200" style="enable-background:new 0 0 200 200;" xml:space="preserve">
<style type="text/css">
	.st0{fill:#AEEAFF;}
	.st1{fill:#FCF5AF;}
	.st2{fill:#FCE3A0;}
	.st3{fill:#FFD3C7;}
	.st4{fill:#FFB7A6;}
	.st5{fill:#FFE5DC;}
	.st6{fill:#617184;}
	.st7{fill:#455060;}
	.st8{fill:#EDA1AB;}
</style>
<rect x="-2" y="-4" class="st0" width="203.2" height="206"/>
<g>
	<g>
		<g>
			<path class="st1" d="M144.4,192.6c-2.4-12.2-9.7-22.7-19.8-29.3c-3.5,10.5-13.4,15.9-25,15.9s-21.5-5.4-25-15.9
				c-10.1,6.6-17.4,17-19.8,29.3c-0.9,4.7,2.7,9,7.4,9H137C141.7,201.6,145.3,197.3,144.4,192.6L144.4,192.6z"/>
			<path class="st2" d="M74.6,163.4c-10.1,6.6-17.4,17-19.8,29.3c-0.9,4.7,2.7,9,7.4,9h13.3c0-9.9,3.1-19,8.4-26.5
				C79.6,172.5,76.3,168.6,74.6,163.4z"/>
			<path class="st3" d="M124.6,163.4c-3.5,10.5-13.4,18-25,18s-21.5-7.5-25-18l25-3.7L124.6,163.4z"/>
			<path class="st4" d="M124.6,163.4c-7.6,3.4-16.1,5.3-25,5.3s-17.4-1.9-25-5.3c7.2-4.7,15.8-7.5,25-7.5S117.4,158.7,124.6,163.4z"
				/>
		</g>
		<circle class="st3" cx="154.8" cy="108.2" r="13.4"/>
		<circle class="st3" cx="44.4" cy="108.2" r="13.4"/>
		<g>
			<path class="st5" d="M155,108.3c0,27.9-20.6,50.9-47.4,54.9c-37.9,0-56-27-56-54.9c0-27.9,19.6-54.9,56-54.9h0
				C134.5,57.3,155,80.4,155,108.3L155,108.3z"/>
			<path class="st3" d="M60.3,108.3c0-27.9,20.6-50.9,47.4-54.9c-2.6-0.4-5.3-0.6-8.1-0.6c-30.6,0-55.4,24.8-55.4,55.4
				s24.8,55.4,55.4,55.4c2.7,0,5.4-0.2,8.1-0.6C80.9,159.2,60.3,136.1,60.3,108.3L60.3,108.3z"/>
		</g>
		<path class="st6" d="M164.6,99.1c-3.5,0-7.1-0.4-10.5-0.7c-2.6-9.3-8.3-22.6-14.7-28.1C127.2,59.6,113,80,100.6,80
			c-6.9,0-16-6.8-24.8-10.2c1.7-18.2,22.8-33.4,40.9-33.4C144.3,43.9,164.6,69.1,164.6,99.1L164.6,99.1z"/>
		<path class="st7" d="M116.7,36.4c-5.5-1.5-11.2-2.3-17.1-2.3c-35.9,0-65,29.1-65,65c3.3,0,7.1-0.3,10.5-0.7
			c3-10.6,7.1-22.4,14.7-28.1c4.7-3.5,10.4-2.7,16.1-0.5C84.1,53.6,98.9,41.3,116.7,36.4z"/>
	</g>
	<g>
		<g>
			<ellipse class="st8" cx="72.5" cy="118.6" rx="10" ry="8"/>
			<ellipse class="st8" cx="126.7" cy="118.6" rx="10" ry="8"/>
		</g>
		<g>
			<path class="st7" d="M78.3,113.4c-1.4,0-2.5-1.1-2.5-2.5v-4.1c0-1.4,1.1-2.5,2.5-2.5c1.4,0,2.5,1.1,2.5,2.5v4.1
				C80.8,112.3,79.7,113.4,78.3,113.4z"/>
			<path class="st7" d="M120.9,113.4c-1.4,0-2.5-1.1-2.5-2.5v-4.1c0-1.4,1.1-2.5,2.5-2.5s2.5,1.1,2.5,2.5v4.1
				C123.3,112.3,122.2,113.4,120.9,113.4z"/>
			<path class="st7" d="M99.6,115.9c-2.9,0-5.6-1.2-7.5-3.4c-0.9-1-0.8-2.6,0.2-3.5c1-0.9,2.6-0.8,3.5,0.2c0.9,1.1,2.3,1.7,3.8,1.7
				s2.8-0.6,3.8-1.7c0.9-1,2.4-1.1,3.5-0.2c1,0.9,1.1,2.4,0.2,3.5C105.2,114.6,102.5,115.9,99.6,115.9z"/>
		</g>
	</g>
</g>
</svg>
