<?xml version="1.0" encoding="utf-8"?>
<!-- Generator: Adobe Illustrator 25.4.1, SVG Export Plug-In . SVG Version: 6.00 Build 0)  -->
<svg version="1.1" id="Capa_1" xmlns="http://www.w3.org/2000/svg" xmlns:xlink="http://www.w3.org/1999/xlink" x="0px" y="0px"
	 viewBox="0 0 413 392.23" style="enable-background:new 0 0 413 392.23;" xml:space="preserve">
<style type="text/css">
	.st0{fill:#2CBEBF;}
	.st1{fill:#60CACB;}
	.st2{fill:#F6CCAF;}
	.st3{fill:#FFDEC7;}
	.st4{fill:#374F68;}
	.st5{fill:#3DA5FF;}
	.st6{fill:#6AB7FF;}
	.st7{fill:#425B72;}
	.st8{fill:#D3DDFB;}
	.st9{fill:#EAF5FC;}
	.st10{fill:#FC6559;}
	.st11{fill:url(#SVGID_1_);}
	.st12{fill:url(#SVGID_00000083061766541839260760000005049354503705773502_);}
	.st13{fill:url(#SVGID_00000155120062500526242960000013755908090039420590_);}
	.st14{fill:url(#SVGID_00000163766083688343195720000004753370829684877447_);}
	.st15{fill:url(#SVGID_00000160173270054024977360000015530642936797609912_);}
	.st16{fill:url(#SVGID_00000175280782754398615200000011686321446060698497_);}
	.st17{fill:url(#SVGID_00000098199689447586698700000005731590378616100762_);}
	.st18{fill:url(#SVGID_00000016761162096507524250000005922680264130877114_);}
	.st19{fill:url(#SVGID_00000152265326929150118740000016285110172730496178_);}
</style>
<path class="st0" d="M220.04-115.4c-2.48,1.95-4.36,4.56-5.41,7.54H187.8v-1.85c0-15.61,19.59-22.41,29.27-10.79
	C218.36-118.99,219.37-117.26,220.04-115.4z"/>
<path class="st1" d="M220.04-115.4c-1.38,1.08-2.58,2.38-3.55,3.84h-19.46c-2.89-0.17-5.1-2.65-4.93-5.54
	c0.03-0.48,0.12-0.95,0.28-1.4c0.33-1.01,0.75-1.99,1.27-2.92c0.52-1.33,1.58-2.39,2.92-2.9
	C206.28-129.68,218.05-123.4,220.04-115.4z"/>
<path class="st2" d="M211.82-137.42c0,5.54,0.35,7.39-1.33,9.76c-2.33,3.35-6.93,4.18-10.29,1.85c-0.36-0.25-0.69-0.53-1-0.84
	c-2.73-2.77-2.16-5.65-2.16-10.77c2.72,1.13,7.15,2.09,9.24,0c1.47-1.53,3.9-1.58,5.43-0.11
	C211.75-137.5,211.79-137.46,211.82-137.42L211.82-137.42z"/>
<path class="st3" d="M211.82-137.42c0,5.54,0.35,7.39-1.33,9.76c-2.93,2.04-6.91,1.69-9.44-0.83c-2.49-2.53-2.16-5.06-2.16-8.28
	c2.12,0.59,5.54,1.18,7.39-0.65c1.47-1.53,3.9-1.58,5.43-0.11C211.75-137.5,211.79-137.46,211.82-137.42L211.82-137.42z"/>
<path class="st4" d="M211.82-137.42c-1.47-1.53-3.9-1.58-5.43-0.11c-0.04,0.04-0.07,0.07-0.11,0.11c-2.77,2.77-9.24,0-9.24,0
	c0-4.08,3.31-7.39,7.39-7.39S211.82-141.51,211.82-137.42z"/>
<path class="st5" d="M246.93-102.31v1.85h-33.26c-0.17-2.5,0.15-5.02,0.96-7.39c3.08-8.65,12.59-13.18,21.24-10.1
	C242.49-115.6,246.92-109.34,246.93-102.31z"/>
<path class="st6" d="M246.82-104.16c-32.72,0-21.62,0-24.02,0c-2.89-0.17-5.1-2.65-4.93-5.54c0.03-0.48,0.12-0.95,0.28-1.4
	c0.55-1.69,1.36-3.28,2.4-4.71c7.44-5.38,17.84-3.71,23.22,3.73C245.45-109.76,246.5-107.03,246.82-104.16L246.82-104.16z"/>
<path class="st2" d="M237.69-130.03c0,5.54,0.35,7.39-1.33,9.76c-2.33,3.35-6.93,4.18-10.29,1.85c-0.36-0.25-0.69-0.53-1-0.84
	c-2.73-2.77-2.16-5.65-2.16-10.77c2.72,1.13,7.15,2.09,9.24,0c1.47-1.53,3.9-1.58,5.43-0.11
	C237.62-130.11,237.65-130.07,237.69-130.03L237.69-130.03z"/>
<path class="st3" d="M237.69-130.03c0,5.54,0.35,7.39-1.33,9.76c-2.93,2.04-6.91,1.69-9.44-0.83c-2.49-2.53-2.16-5.06-2.16-8.28
	c2.12,0.59,5.54,1.18,7.39-0.65c1.47-1.53,3.9-1.58,5.43-0.11C237.62-130.11,237.65-130.07,237.69-130.03L237.69-130.03z"/>
<path class="st4" d="M237.69-130.03c-1.47-1.53-3.9-1.58-5.43-0.11c-0.04,0.04-0.07,0.07-0.11,0.11c-2.77,2.77-9.24,0-9.24,0
	c0-4.08,3.31-7.39,7.39-7.39S237.69-134.11,237.69-130.03z"/>
<path class="st0" d="M272.8-109.71v1.85h-26.83c-1.05-2.98-2.93-5.59-5.41-7.54C246.93-132.73,272.8-128.31,272.8-109.71z"/>
<path class="st1" d="M272.69-111.55c-32.73,0-21.62,0-24.02,0c-2.89-0.17-5.1-2.65-4.93-5.54c0.03-0.48,0.12-0.95,0.28-1.4
	c0.55-1.69,1.36-3.28,2.4-4.71c7.44-5.38,17.84-3.71,23.22,3.73C271.32-117.15,272.37-114.42,272.69-111.55L272.69-111.55z"/>
<path class="st2" d="M263.56-137.42c0,5.54,0.35,7.39-1.33,9.76c-2.33,3.35-6.93,4.18-10.29,1.85c-0.36-0.25-0.69-0.53-1-0.84
	c-2.73-2.77-2.16-5.65-2.16-10.77c2.72,1.13,7.15,2.09,9.24,0c1.47-1.53,3.9-1.58,5.43-0.11
	C263.49-137.5,263.52-137.46,263.56-137.42L263.56-137.42z"/>
<path class="st3" d="M263.56-137.42c0,5.54,0.35,7.39-1.33,9.76c-2.93,2.04-6.91,1.69-9.44-0.83c-2.49-2.53-2.16-5.06-2.16-8.28
	c2.13,0.59,5.54,1.18,7.39-0.65c1.47-1.53,3.9-1.58,5.43-0.11C263.49-137.5,263.52-137.46,263.56-137.42L263.56-137.42z"/>
<path class="st4" d="M263.56-137.42c-1.47-1.53-3.9-1.58-5.43-0.11c-0.04,0.04-0.07,0.07-0.11,0.11c-2.77,2.77-9.24,0-9.24,0
	c0-4.08,3.31-7.39,7.39-7.39C260.25-144.81,263.56-141.51,263.56-137.42z"/>
<g>
	<path class="st7" d="M263.56-137.42c-1.46-1.53-3.88-1.59-5.41-0.14c-0.05,0.04-0.09,0.09-0.14,0.14c-0.73,0.7-1.69,1.11-2.7,1.18
		c-1.61-0.17-3.19-0.57-4.69-1.18c-0.03-3.75,2.75-6.92,6.47-7.39C260.81-144.35,263.59-141.17,263.56-137.42z"/>
	<path class="st7" d="M237.69-130.03c-1.46-1.53-3.88-1.59-5.41-0.14c-0.05,0.04-0.09,0.09-0.14,0.14c-0.73,0.7-1.69,1.11-2.7,1.18
		c-1.61-0.17-3.19-0.57-4.69-1.18c-0.03-3.75,2.75-6.92,6.47-7.39C234.94-136.96,237.72-133.78,237.69-130.03z"/>
	<path class="st7" d="M211.82-137.42c-1.46-1.53-3.88-1.59-5.41-0.14c-0.05,0.04-0.09,0.09-0.14,0.14c-0.73,0.7-1.69,1.11-2.7,1.18
		c-1.61-0.17-3.19-0.57-4.69-1.18c-0.03-3.75,2.75-6.92,6.47-7.39C209.07-144.35,211.85-141.17,211.82-137.42z"/>
</g>
<g>
	<path class="st8" d="M242.71-154.72c0,2.66-0.86,5.24-2.45,7.36c-7.07,9.41-22.09,4.35-22.09-7.36c0-3.86,1.82-7.5,4.91-9.82
		c5.42-4.07,13.12-2.97,17.18,2.45C241.84-159.96,242.71-157.37,242.71-154.72z"/>
	<path class="st9" d="M242.71-154.72c0,2.66-0.86,5.24-2.45,7.36c-5.42,4.07-13.12,2.97-17.18-2.45c-3.27-4.36-3.27-10.37,0-14.73
		c5.42-4.07,13.12-2.97,17.18,2.45C241.84-159.96,242.71-157.37,242.71-154.72z"/>
	<path class="st10" d="M236.57-157.17h-3.68v-3.68h-4.91v3.68h-3.68v4.91h3.68v3.68h4.91v-3.68h3.68V-157.17z"/>
</g>
<g>
	<path class="st2" d="M212.04-134.73c0,5.54,0.35,7.39-1.33,9.76c-2.33,3.35-6.93,4.18-10.29,1.85c-0.36-0.25-0.69-0.53-1-0.84
		c-2.73-2.77-2.16-5.65-2.16-10.77c2.72,1.13,7.15,2.09,9.24,0c1.47-1.53,3.9-1.58,5.43-0.11C211.97-134.8,212-134.77,212.04-134.73
		L212.04-134.73z"/>
	<path class="st3" d="M212.04-134.73c0,5.54,0.35,7.39-1.33,9.76c-2.93,2.04-6.91,1.69-9.44-0.83c-2.49-2.53-2.16-5.06-2.16-8.28
		c2.12,0.59,5.54,1.18,7.39-0.65c1.47-1.53,3.9-1.58,5.43-0.11C211.97-134.8,212-134.77,212.04-134.73L212.04-134.73z"/>
	<path class="st4" d="M212.04-134.73c-1.47-1.53-3.9-1.58-5.43-0.11c-0.04,0.04-0.07,0.07-0.11,0.11c-2.77,2.77-9.24,0-9.24,0
		c0-4.08,3.31-7.39,7.39-7.39S212.04-138.81,212.04-134.73z"/>
	
		<linearGradient id="SVGID_1_" gradientUnits="userSpaceOnUse" x1="220.033" y1="512.6376" x2="241.0153" y2="491.6553" gradientTransform="matrix(1 0 0 -1 0 400)">
		<stop  offset="0" style="stop-color:#00A99D"/>
		<stop  offset="0.1894" style="stop-color:#0FBBB1"/>
		<stop  offset="0.4258" style="stop-color:#1BCBC2"/>
		<stop  offset="0.6836" style="stop-color:#23D5CC"/>
		<stop  offset="1" style="stop-color:#25D8CF"/>
	</linearGradient>
	<path class="st11" d="M247.03-101.47L247.03-101.47c0-0.1-0.02-0.2-0.04-0.3c-0.03-0.21-0.05-0.42-0.09-0.63
		c-0.05-0.3-0.11-0.6-0.18-0.89c-0.02-0.07-0.03-0.14-0.04-0.21c-0.5-2.12-1.42-4.12-2.7-5.9c-5.38-7.44-15.78-9.11-23.22-3.73
		c-0.03,0.04-0.06,0.09-0.09,0.13c-2.59,1.9-4.67,4.57-5.83,7.83c-0.81,2.38-1.13,4.89-0.96,7.39h33.26v-1.85
		C247.15-100.24,247.1-100.86,247.03-101.47z"/>
	<path class="st2" d="M237.91-127.34c0,5.54,0.35,7.39-1.33,9.76c-2.33,3.35-6.93,4.18-10.29,1.85c-0.36-0.25-0.69-0.53-1-0.84
		c-2.73-2.77-2.16-5.65-2.16-10.77c2.72,1.13,7.15,2.09,9.24,0c1.47-1.53,3.9-1.58,5.43-0.11
		C237.84-127.41,237.87-127.38,237.91-127.34L237.91-127.34z"/>
	<path class="st3" d="M237.91-127.34c0,5.54,0.35,7.39-1.33,9.76c-2.93,2.04-6.91,1.69-9.44-0.83c-2.49-2.53-2.16-5.06-2.16-8.28
		c2.12,0.59,5.54,1.18,7.39-0.65c1.47-1.53,3.9-1.58,5.43-0.11C237.84-127.41,237.87-127.38,237.91-127.34L237.91-127.34z"/>
	<path class="st4" d="M237.91-127.34c-1.47-1.53-3.9-1.58-5.43-0.11c-0.04,0.04-0.07,0.07-0.11,0.11c-2.77,2.77-9.24,0-9.24,0
		c0-4.08,3.31-7.39,7.39-7.39S237.91-131.42,237.91-127.34z"/>
	
		<linearGradient id="SVGID_00000036949907438700301080000012046786414617544341_" gradientUnits="userSpaceOnUse" x1="240.78" y1="514.4229" x2="273.02" y2="514.4229" gradientTransform="matrix(1 0 0 -1 0 400)">
		<stop  offset="0" style="stop-color:#00ADEA"/>
		<stop  offset="1" style="stop-color:#0783E9"/>
	</linearGradient>
	<path style="fill:url(#SVGID_00000036949907438700301080000012046786414617544341_);" d="M265.05-121.24
		c-0.05-0.03-0.1-0.06-0.15-0.09c-0.23-0.13-0.45-0.25-0.68-0.37c-4.02-2.15-8.8-2.59-13.18-1.1c-4.4,1.41-8.28,4.69-10.26,10.09
		c2.48,1.95,4.36,4.56,5.41,7.54h26.83v-1.85C273.02-113.72,269.65-118.57,265.05-121.24z"/>
	
		<linearGradient id="SVGID_00000023259709091959407370000008868217428576114323_" gradientUnits="userSpaceOnUse" x1="188.02" y1="514.3886" x2="220.26" y2="514.3886" gradientTransform="matrix(1 0 0 -1 0 400)">
		<stop  offset="0" style="stop-color:#00ADEA"/>
		<stop  offset="1" style="stop-color:#0783E9"/>
	</linearGradient>
	<path style="fill:url(#SVGID_00000023259709091959407370000008868217428576114323_);" d="M218.24-110.81
		c0.05-0.05,0.09-0.1,0.13-0.15c0.25-0.27,0.52-0.54,0.79-0.79c0.04-0.04,0.08-0.08,0.12-0.11c0.32-0.29,0.64-0.57,0.98-0.83
		c-0.76-3.03-2.92-5.81-5.83-7.81c-3.28-2.44-7.17-3.38-10.95-3.07c-2.16,0.14-4.34,0.71-6.43,1.82c-0.12,0.06-0.25,0.12-0.37,0.19
		c-0.41,0.17-0.78,0.4-1.13,0.67c-4.39,2.81-7.53,7.64-7.53,13.89v1.85h26.83c0.46-1.31,1.1-2.55,1.87-3.7l0,0
		c0.23-0.34,0.47-0.68,0.72-1c0.03-0.03,0.05-0.07,0.08-0.1C217.75-110.26,217.99-110.54,218.24-110.81z"/>
	<path class="st2" d="M263.78-134.73c0,5.54,0.35,7.39-1.33,9.76c-2.33,3.35-6.93,4.18-10.29,1.85c-0.36-0.25-0.69-0.53-1-0.84
		c-2.73-2.77-2.16-5.65-2.16-10.77c2.72,1.13,7.15,2.09,9.24,0c1.47-1.53,3.9-1.58,5.43-0.11
		C263.71-134.8,263.74-134.77,263.78-134.73L263.78-134.73z"/>
	<path class="st3" d="M263.78-134.73c0,5.54,0.35,7.39-1.33,9.76c-2.93,2.04-6.91,1.69-9.44-0.83c-2.49-2.53-2.16-5.06-2.16-8.28
		c2.13,0.59,5.54,1.18,7.39-0.65c1.47-1.53,3.9-1.58,5.43-0.11C263.71-134.8,263.74-134.77,263.78-134.73L263.78-134.73z"/>
	<path class="st4" d="M263.78-134.73c-1.47-1.53-3.9-1.58-5.43-0.11c-0.04,0.04-0.07,0.07-0.11,0.11c-2.77,2.77-9.24,0-9.24,0
		c0-4.08,3.31-7.39,7.39-7.39C260.47-142.12,263.78-138.81,263.78-134.73z"/>
	<g>
		<path class="st7" d="M263.78-134.73c-1.46-1.53-3.88-1.59-5.41-0.14c-0.05,0.04-0.09,0.09-0.14,0.14c-0.73,0.7-1.69,1.11-2.7,1.18
			c-1.61-0.17-3.19-0.57-4.69-1.18c-0.03-3.75,2.75-6.92,6.47-7.39C261.03-141.65,263.81-138.48,263.78-134.73z"/>
		<path class="st7" d="M237.91-127.34c-1.46-1.53-3.88-1.59-5.41-0.14c-0.05,0.04-0.09,0.09-0.14,0.14c-0.73,0.7-1.69,1.11-2.7,1.18
			c-1.61-0.17-3.19-0.57-4.69-1.18c-0.03-3.75,2.75-6.92,6.47-7.39C235.16-134.26,237.94-131.09,237.91-127.34z"/>
		<path class="st7" d="M212.04-134.73c-1.46-1.53-3.88-1.59-5.41-0.14c-0.05,0.04-0.09,0.09-0.14,0.14c-0.73,0.7-1.69,1.11-2.7,1.18
			c-1.61-0.17-3.19-0.57-4.69-1.18c-0.03-3.75,2.75-6.92,6.47-7.39C209.29-141.65,212.07-138.48,212.04-134.73z"/>
	</g>
</g>
<g>
	<path class="st8" d="M242.92-152.02c0,2.66-0.86,5.24-2.45,7.36c-7.07,9.41-22.09,4.35-22.09-7.36c0-3.86,1.82-7.5,4.91-9.82
		c5.42-4.07,13.12-2.97,17.18,2.45C242.06-157.26,242.92-154.68,242.92-152.02z"/>
	<path class="st9" d="M242.92-152.02c0,2.66-0.86,5.24-2.45,7.36c-5.42,4.07-13.12,2.97-17.18-2.45c-3.27-4.36-3.27-10.37,0-14.73
		c5.42-4.07,13.12-2.97,17.18,2.45C242.06-157.26,242.92-154.68,242.92-152.02z"/>
	<path class="st10" d="M236.79-154.48h-3.68v-3.68h-4.91v3.68h-3.68v4.91h3.68v3.68h4.91v-3.68h3.68V-154.48z"/>
</g>
<linearGradient id="SVGID_00000016769097426759180330000005109253401819979926_" gradientUnits="userSpaceOnUse" x1="321.8727" y1="572.1849" x2="445.9159" y2="448.1417" gradientTransform="matrix(1 0 0 -1 0 400)">
	<stop  offset="0" style="stop-color:#00ADEA"/>
	<stop  offset="1" style="stop-color:#0783E9"/>
</linearGradient>
<path style="fill:url(#SVGID_00000016769097426759180330000005109253401819979926_);" d="M459.89-134.57c0.01,0,0.02,0,0.03,0
	c-0.05-0.46-0.14-0.92-0.2-1.38c-0.13-0.97-0.25-1.93-0.41-2.89c-0.23-1.38-0.51-2.75-0.82-4.11c-0.07-0.32-0.12-0.64-0.2-0.96
	c-2.32-9.75-6.52-18.98-12.43-27.15c-24.77-34.26-72.63-41.95-106.89-17.17c-0.14,0.2-0.26,0.41-0.4,0.61
	c-11.94,8.75-21.48,21.05-26.81,36.05c-3.71,10.94-5.43,77.38-4.63,88.9h153.31v-63.39C460.43-128.93,460.21-131.76,459.89-134.57z"
	/>
<linearGradient id="SVGID_00000130623494882304627720000001648991927922308023_" gradientUnits="userSpaceOnUse" x1="561.095" y1="571.1849" x2="685.1382" y2="447.1417" gradientTransform="matrix(1 0 0 -1 0 400)">
	<stop  offset="0" style="stop-color:#00ADEA"/>
	<stop  offset="1" style="stop-color:#0783E9"/>
</linearGradient>
<path style="fill:url(#SVGID_00000130623494882304627720000001648991927922308023_);" d="M699.12-133.57c0.01,0,0.02,0,0.03,0
	c-0.05-0.46-0.14-0.92-0.2-1.38c-0.13-0.97-0.25-1.93-0.41-2.89c-0.23-1.38-0.51-2.75-0.82-4.11c-0.07-0.32-0.12-0.64-0.2-0.96
	c-2.32-9.75-6.52-18.98-12.43-27.15c-24.77-34.26-72.63-41.95-106.89-17.17c-0.14,0.2-0.26,0.41-0.4,0.61
	c-11.94,8.75-21.48,21.05-26.81,36.05c-3.71,10.94-5.43,77.38-4.63,88.9h153.31v-63.39C699.66-127.93,699.44-130.76,699.12-133.57z"
	/>
<linearGradient id="SVGID_00000144323779572056564520000004844026572304245414_" gradientUnits="userSpaceOnUse" x1="441.9421" y1="537.2878" x2="565.9853" y2="413.2447" gradientTransform="matrix(1 0 0 -1 0 400)">
	<stop  offset="0" style="stop-color:#00A99D"/>
	<stop  offset="0.1894" style="stop-color:#0FBBB1"/>
	<stop  offset="0.4258" style="stop-color:#1BCBC2"/>
	<stop  offset="0.6836" style="stop-color:#23D5CC"/>
	<stop  offset="1" style="stop-color:#25D8CF"/>
</linearGradient>
<path style="fill:url(#SVGID_00000144323779572056564520000004844026572304245414_);" d="M579.96-99.67c0.01,0,0.02,0,0.03,0
	c-0.05-0.46-0.14-0.92-0.2-1.38c-0.13-0.97-0.25-1.93-0.41-2.89c-0.23-1.38-0.51-2.75-0.82-4.11c-0.07-0.32-0.12-0.64-0.2-0.96
	c-2.32-9.75-6.52-18.98-12.43-27.15c-24.77-34.26-72.63-41.95-106.89-17.17c-0.14,0.2-0.26,0.41-0.4,0.61
	c-11.94,8.75-21.48,21.05-26.81,36.05c-3.71,10.94-5.43,77.38-4.63,88.9h153.31v-63.39C580.5-94.03,580.28-96.86,579.96-99.67z"/>
<g>
	<path class="st2" d="M656.98-252.77c0,25.52,1.62,34.02-6.12,44.91c-10.72,15.43-31.92,19.25-47.35,8.53
		c-1.65-1.15-3.19-2.44-4.62-3.85c-12.59-12.76-9.95-26.03-9.95-49.59c12.5,5.19,32.92,9.61,42.53,0c6.77-7.05,17.97-7.27,25.02-0.5
		C656.65-253.11,656.82-252.94,656.98-252.77L656.98-252.77z"/>
	<path class="st3" d="M656.98-252.77c0,25.52,1.62,34.02-6.12,44.91c-13.51,9.41-31.81,7.79-43.46-3.83
		c-11.48-11.65-9.95-23.31-9.95-38.11c9.78,2.72,25.52,5.44,34.02-2.98c6.77-7.05,17.97-7.27,25.02-0.5
		C656.65-253.11,656.82-252.94,656.98-252.77L656.98-252.77z"/>
	<path class="st4" d="M656.98-252.77c-6.77-7.05-17.97-7.27-25.02-0.5c-0.17,0.16-0.34,0.33-0.5,0.5c-12.76,12.76-42.53,0-42.53,0
		c0-18.79,15.23-34.02,34.02-34.02C641.75-286.79,656.98-271.56,656.98-252.77z"/>
	<path class="st7" d="M656.98-252.77c-6.7-7.05-17.85-7.33-24.89-0.63c-0.21,0.2-0.42,0.41-0.63,0.63
		c-3.38,3.2-7.77,5.12-12.42,5.44c-7.42-0.79-14.7-2.62-21.6-5.44c-0.14-17.25,12.66-31.87,29.77-34.02
		C644.33-284.64,657.12-270.02,656.98-252.77z"/>
</g>
<g>
	<path class="st2" d="M537.83-218.75c0,25.52,1.62,34.02-6.12,44.91c-10.72,15.43-31.92,19.25-47.35,8.53
		c-1.65-1.15-3.19-2.44-4.62-3.85c-12.59-12.76-9.95-26.03-9.95-49.59c12.5,5.19,32.92,9.61,42.53,0c6.77-7.05,17.97-7.27,25.02-0.5
		C537.5-219.09,537.67-218.92,537.83-218.75L537.83-218.75z"/>
	<path class="st3" d="M537.83-218.75c0,25.52,1.62,34.02-6.12,44.91c-13.51,9.41-31.81,7.79-43.46-3.83
		c-11.48-11.65-9.95-23.31-9.95-38.11c9.78,2.72,25.52,5.44,34.02-2.98c6.77-7.05,17.97-7.27,25.02-0.5
		C537.5-219.09,537.67-218.92,537.83-218.75L537.83-218.75z"/>
	<path class="st4" d="M537.83-218.75c-6.77-7.05-17.97-7.27-25.02-0.5c-0.17,0.16-0.34,0.33-0.5,0.5c-12.76,12.76-42.53,0-42.53,0
		c0-18.79,15.23-34.02,34.02-34.02C522.59-252.77,537.83-237.54,537.83-218.75z"/>
	<path class="st7" d="M537.83-218.75c-6.7-7.05-17.85-7.33-24.89-0.63c-0.21,0.2-0.42,0.41-0.63,0.63
		c-3.38,3.2-7.77,5.12-12.42,5.44c-7.42-0.79-14.7-2.62-21.6-5.44c-0.14-17.25,12.66-31.87,29.77-34.02
		C525.18-250.62,537.97-236,537.83-218.75z"/>
</g>
<g>
	<path class="st2" d="M417.76-252.77c0,25.52,1.62,34.02-6.12,44.91c-10.72,15.43-31.92,19.25-47.35,8.53
		c-1.65-1.15-3.19-2.44-4.62-3.85c-12.59-12.76-9.95-26.03-9.95-49.59c12.5,5.19,32.92,9.61,42.53,0c6.77-7.05,17.97-7.27,25.02-0.5
		C417.43-253.11,417.6-252.94,417.76-252.77L417.76-252.77z"/>
	<path class="st3" d="M417.76-252.77c0,25.52,1.62,34.02-6.12,44.91c-13.51,9.41-31.81,7.79-43.46-3.83
		c-11.48-11.65-9.95-23.31-9.95-38.11c9.78,2.72,25.52,5.44,34.02-2.98c6.77-7.05,17.97-7.27,25.02-0.5
		C417.43-253.11,417.6-252.94,417.76-252.77L417.76-252.77z"/>
	<path class="st4" d="M417.76-252.77c-6.77-7.05-17.97-7.27-25.02-0.5c-0.17,0.16-0.34,0.33-0.5,0.5c-12.76,12.76-42.53,0-42.53,0
		c0-18.79,15.23-34.02,34.02-34.02S417.76-271.56,417.76-252.77z"/>
	<path class="st7" d="M417.76-252.77c-6.7-7.05-17.85-7.33-24.89-0.63c-0.21,0.2-0.42,0.41-0.63,0.63
		c-3.38,3.2-7.77,5.12-12.42,5.44c-7.42-0.79-14.7-2.62-21.6-5.44c-0.14-17.25,12.66-31.87,29.77-34.02
		C405.11-284.64,417.9-270.02,417.76-252.77z"/>
</g>
<g>
	<path class="st8" d="M568.83-338.75c0,14.06-4.56,27.73-12.99,38.97c-37.42,49.82-116.9,22.99-116.9-38.97
		c0-20.44,9.62-39.69,25.98-51.96c28.69-21.52,69.41-15.7,90.93,12.99C564.26-366.48,568.83-352.8,568.83-338.75z"/>
	<path class="st9" d="M568.83-338.75c0,14.06-4.56,27.73-12.99,38.97c-28.69,21.52-69.41,15.7-90.93-12.99
		c-17.32-23.09-17.32-54.84,0-77.94c28.69-21.52,69.41-15.7,90.93,12.99C564.26-366.48,568.83-352.8,568.83-338.75z"/>
	<path class="st10" d="M536.35-351.74h-19.48v-19.48h-25.98v19.48h-19.48v25.98h19.48v19.48h25.98v-19.48h19.48V-351.74z"/>
</g>
<linearGradient id="SVGID_00000059298480457524654100000015361783243187429026_" gradientUnits="userSpaceOnUse" x1="24.9033" y1="136.8488" x2="153.0198" y2="8.7322" gradientTransform="matrix(1 0 0 -1 0 400)">
	<stop  offset="0" style="stop-color:#00ADEA"/>
	<stop  offset="1" style="stop-color:#0783E9"/>
</linearGradient>
<path style="fill:url(#SVGID_00000059298480457524654100000015361783243187429026_);" d="M172.25,302.36c0.01,0,0.02,0,0.03,0
	c-0.05-0.44-0.15-0.88-0.22-1.33c-0.14-0.93-0.27-1.85-0.45-2.78c-0.25-1.33-0.56-2.64-0.9-3.95c-0.08-0.31-0.13-0.61-0.22-0.92
	c-2.54-9.37-7.14-18.23-13.62-26.08c-27.14-32.91-79.59-40.3-117.13-16.49c-0.15,0.19-0.28,0.39-0.44,0.59
	c-13.08,8.41-23.54,20.22-29.38,34.63c-4.07,10.51-5.95,74.34-5.07,85.4h168v-60.9C172.85,307.78,172.61,305.06,172.25,302.36z"/>
<linearGradient id="SVGID_00000065774302056022763480000000443977616834250112_" gradientUnits="userSpaceOnUse" x1="257.0456" y1="135.8881" x2="385.1622" y2="7.7716" gradientTransform="matrix(1 0 0 -1 0 400)">
	<stop  offset="0" style="stop-color:#00ADEA"/>
	<stop  offset="1" style="stop-color:#0783E9"/>
</linearGradient>
<path style="fill:url(#SVGID_00000065774302056022763480000000443977616834250112_);" d="M404.4,303.32c0.01,0,0.02,0,0.03,0
	c-0.05-0.44-0.15-0.88-0.22-1.33c-0.14-0.93-0.27-1.85-0.45-2.78c-0.25-1.33-0.56-2.64-0.9-3.95c-0.08-0.31-0.13-0.61-0.22-0.92
	c-2.54-9.37-7.14-18.23-13.62-26.08c-27.14-32.91-79.59-40.3-117.13-16.49c-0.15,0.19-0.28,0.39-0.44,0.59
	c-13.08,8.41-23.54,20.22-29.38,34.63c-4.07,10.51-5.95,74.34-5.07,85.4h168v-60.9C404.99,308.74,404.75,306.02,404.4,303.32z"/>
<linearGradient id="SVGID_00000006677470748829628110000007156685827194461589_" gradientUnits="userSpaceOnUse" x1="135.175" y1="122.1917" x2="278.2896" y2="-20.9228" gradientTransform="matrix(1 0 0 -1 0 400)">
	<stop  offset="0" style="stop-color:#00A99D"/>
	<stop  offset="0.1894" style="stop-color:#0FBBB1"/>
	<stop  offset="0.4258" style="stop-color:#1BCBC2"/>
	<stop  offset="0.6836" style="stop-color:#23D5CC"/>
	<stop  offset="1" style="stop-color:#25D8CF"/>
</linearGradient>
<path style="fill:url(#SVGID_00000006677470748829628110000007156685827194461589_);" d="M299.78,321.61c0.01,0,0.02,0,0.04,0
	c-0.06-0.49-0.17-0.99-0.24-1.48c-0.16-1.04-0.31-2.07-0.5-3.1c-0.28-1.48-0.62-2.95-1-4.41c-0.09-0.34-0.15-0.69-0.24-1.03
	c-2.84-10.46-7.98-20.37-15.22-29.13c-30.32-36.76-88.91-45.02-130.84-18.43c-0.17,0.21-0.32,0.44-0.49,0.65
	c-14.62,9.39-26.29,22.59-32.82,38.69c-4.54,11.74-6.64,83.04-5.67,95.4h187.66v-68.03C300.44,327.66,300.17,324.62,299.78,321.61z"
	/>
<g>
	<path class="st2" d="M358.22,182.05c0,27.97,1.78,37.28-6.71,49.21c-11.75,16.91-34.98,21.09-51.89,9.35
		c-1.81-1.26-3.5-2.67-5.06-4.22c-13.8-13.98-10.9-28.52-10.9-54.34c13.7,5.69,36.07,10.53,46.6,0c7.42-7.73,19.69-7.97,27.42-0.55
		C357.86,181.68,358.05,181.86,358.22,182.05L358.22,182.05z"/>
	<path class="st3" d="M358.22,182.05c0,27.97,1.78,37.28-6.71,49.21c-14.8,10.31-34.86,8.54-47.62-4.2
		c-12.58-12.77-10.9-25.54-10.9-41.76c10.72,2.98,27.97,5.96,37.28-3.27c7.42-7.73,19.69-7.97,27.42-0.55
		C357.86,181.68,358.05,181.86,358.22,182.05L358.22,182.05z"/>
	<path class="st4" d="M358.22,182.05c-7.42-7.73-19.69-7.97-27.42-0.55c-0.19,0.18-0.37,0.36-0.55,0.55c-13.98,13.98-46.6,0-46.6,0
		c0-20.59,16.69-37.28,37.28-37.28C341.54,144.77,358.22,161.46,358.22,182.05z"/>
	<path class="st7" d="M358.22,182.05c-7.34-7.73-19.56-8.03-27.27-0.69c-0.23,0.22-0.46,0.45-0.69,0.69
		c-3.7,3.51-8.51,5.61-13.61,5.96c-8.13-0.87-16.11-2.87-23.67-5.96c-0.15-18.9,13.87-34.92,32.62-37.28
		C344.36,147.12,358.38,163.15,358.22,182.05z"/>
</g>
<g>
	<path class="st2" d="M248.2,191.41c0,31.24,1.98,41.64-7.49,54.97c-13.12,18.89-39.07,23.56-57.96,10.44
		c-2.02-1.41-3.9-2.99-5.66-4.71c-15.41-15.62-12.18-31.86-12.18-60.7c15.3,6.35,40.3,11.76,52.06,0c8.29-8.63,22-8.9,30.63-0.61
		C247.79,190.99,248,191.2,248.2,191.41L248.2,191.41z"/>
	<path class="st3" d="M248.2,191.41c0,31.24,1.98,41.64-7.49,54.97c-16.54,11.52-38.94,9.54-53.2-4.69
		c-14.05-14.26-12.18-28.53-12.18-46.65c11.97,3.33,31.24,6.66,41.64-3.65c8.29-8.63,22-8.9,30.63-0.61
		C247.79,190.99,248,191.2,248.2,191.41L248.2,191.41z"/>
	<path class="st4" d="M248.2,191.41c-8.29-8.63-22-8.9-30.63-0.61c-0.21,0.2-0.42,0.4-0.61,0.61c-15.62,15.62-52.06,0-52.06,0
		c0-23,18.64-41.64,41.64-41.64S248.2,168.41,248.2,191.41z"/>
	<path class="st7" d="M248.2,191.41c-8.2-8.63-21.85-8.97-30.47-0.77c-0.26,0.24-0.51,0.5-0.77,0.77c-4.14,3.92-9.51,6.27-15.2,6.66
		c-9.08-0.97-17.99-3.21-26.44-6.66c-0.17-21.12,15.5-39.01,36.44-41.64C232.71,152.39,248.37,170.29,248.2,191.41z"/>
</g>
<g>
	<path class="st2" d="M126.08,182.05c0,27.97,1.78,37.28-6.71,49.21c-11.75,16.91-34.98,21.09-51.89,9.35
		c-1.81-1.26-3.5-2.67-5.06-4.22c-13.8-13.98-10.9-28.52-10.9-54.34c13.7,5.69,36.07,10.53,46.6,0c7.42-7.73,19.69-7.97,27.42-0.55
		C125.72,181.68,125.91,181.86,126.08,182.05L126.08,182.05z"/>
	<path class="st3" d="M126.08,182.05c0,27.97,1.78,37.28-6.71,49.21c-14.8,10.31-34.86,8.54-47.62-4.2
		c-12.58-12.77-10.9-25.54-10.9-41.76c10.72,2.98,27.97,5.96,37.28-3.27c7.42-7.73,19.69-7.97,27.42-0.55
		C125.72,181.68,125.91,181.86,126.08,182.05L126.08,182.05z"/>
	<path class="st4" d="M126.08,182.05c-7.42-7.73-19.69-7.97-27.42-0.55c-0.19,0.18-0.37,0.36-0.55,0.55c-13.98,13.98-46.6,0-46.6,0
		c0-20.59,16.69-37.28,37.28-37.28S126.08,161.46,126.08,182.05z"/>
	<path class="st7" d="M126.08,182.05c-7.34-7.73-19.56-8.03-27.27-0.69c-0.23,0.22-0.46,0.45-0.69,0.69
		c-3.7,3.51-8.51,5.61-13.61,5.96c-8.13-0.87-16.11-2.87-23.67-5.96c-0.15-18.9,13.87-34.92,32.62-37.28
		C112.22,147.12,126.24,163.15,126.08,182.05z"/>
</g>
<g>
	<path class="st8" d="M274.41,69.9c0,14.48-4.7,28.56-13.38,40.14c-38.54,51.32-120.42,23.68-120.42-40.14
		c0-21.05,9.91-40.89,26.76-53.52c29.55-22.17,71.49-16.17,93.66,13.38C269.71,41.34,274.41,55.43,274.41,69.9z"/>
	<path class="st9" d="M274.41,69.9c0,14.48-4.7,28.56-13.38,40.14c-29.55,22.17-71.49,16.17-93.66-13.38
		c-17.84-23.79-17.84-56.49,0-80.28c29.55-22.17,71.49-16.17,93.66,13.38C269.71,41.34,274.41,55.43,274.41,69.9z"/>
	<path class="st10" d="M240.96,56.52h-20.07V36.45h-26.76v20.07h-20.07v26.76h20.07v20.07h26.76V83.28h20.07V56.52z"/>
</g>
</svg>
