<?xml version="1.0" encoding="utf-8"?>
<!-- Generator: Adobe Illustrator 24.1.3, SVG Export Plug-In . SVG Version: 6.00 Build 0)  -->
<svg version="1.1" id="Capa_1" xmlns="http://www.w3.org/2000/svg" xmlns:xlink="http://www.w3.org/1999/xlink" x="0px" y="0px"
	 viewBox="0 0 100 100" style="enable-background:new 0 0 100 100;" xml:space="preserve">
<style type="text/css">
	.st0{fill:url(#SVGID_1_);}
	.st1{fill:#DCD9EB;}
	.st2{fill:#F0CD64;}
	.st3{fill:#F5F8F8;}
	.st4{fill:#CFCDE6;}
	.st5{fill:#9DC5FA;}
	.st6{fill:#F4DD7C;}
	.st7{fill:#80B3FA;}
	.st8{fill:#E0E0E0;}
	.st9{fill:#DC636E;}
	.st10{fill:#426F92;}
	.st11{fill:#E8BF51;}
</style>
<linearGradient id="SVGID_1_" gradientUnits="userSpaceOnUse" x1="86.4784" y1="111.5388" x2="-1.6381" y2="-41.0835">
	<stop  offset="0" style="stop-color:#1CBEBE"/>
	<stop  offset="0.3054" style="stop-color:#1ACECD"/>
	<stop  offset="0.8989" style="stop-color:#16F7F4"/>
	<stop  offset="1" style="stop-color:#15FFFB"/>
</linearGradient>
<rect x="-1.9" y="-3.3" class="st0" width="104.9" height="105.3"/>
<g>
	<path class="st1" d="M18.7,80.2c-0.5-0.9-1.5-1.3-2-2.3c-0.9-2-0.6-4.1,0.9-5.7c0.1-0.1,0.2-0.2,0.3-0.4c0.7-0.5,1.4-1,2.2-1.1
		c0.9-0.1,1.2-0.4,1.2-1.4c0-9.2,0-18.5,0-27.7c0-0.4-0.1-0.8,0.2-1.1c0.7,0.8,1.7,1.2,2.5,1.9c0,8.3,0,16.5,0,24.8
		c0,0.7,0.1,1,0.9,1c17.9,0,35.8,0,53.7,0c0,0.8,0,1.5,0,2.3c-5.7,0-11.4,0-17.1,0c-0.4,0-0.8-0.1-1.1,0.2c-7,0-14,0-21,0
		c-0.3-0.3-0.7-0.2-1.1-0.2c-4.8,0-9.5,0-14.3,0c-1,0-1.4,0.4-1.7,1.1c-0.4,1.2-0.5,2.4,0,3.5c1,2.2,2.7,3.4,5.1,3.4
		c18.4,0,36.7,0,55.1,0c0,0.2-0.2,0.4-0.3,0.6c-1.1,1.4-2.7,1.7-4.3,1.7c-18.5,0-37.1,0-55.6,0C21.2,80.9,20,80.6,18.7,80.2z"/>
	<path class="st2" d="M24.1,42.4c-0.8-0.7-1.8-1.1-2.5-1.9c-4.6-4.2-6.1-9.4-4.9-15.5c0.7-2.3,1.6-4.4,3.2-6.2
		c1.4-1.6,2.9-2.9,4.8-3.9c0.3-0.1,0.6-0.3,1-0.4c3.2-1.5,6.6-1.6,10-0.9c2,0.4,3.7,1.4,5.5,2.4c0.3,0.3,0.5,0.7,1,0.7l0,0
		c0.1,0.1,0.1,0.2,0.2,0.3c1.6,1.5,2.9,3.2,3.8,5.2c1.1,2.5,1.4,5.1,1.3,7.8c-0.2,1.8-0.6,3.5-1.3,5.1c-0.3,0.6-0.6,1.2-1,1.7
		c-1.7,2.7-4,4.7-6.9,6c-2.4,1.1-5,1.4-7.7,1.3c-1.3-0.3-2.7-0.3-4-0.9C25.6,43.4,25,42.6,24.1,42.4z M31.8,40.3
		C38.5,40.4,43,35,43.4,29.8c0.5-7.7-5.5-12.4-11-12.6c-7.1-0.2-11.9,5.2-12.1,11.2C20,35.1,25.5,40.5,31.8,40.3z"/>
	<path class="st3" d="M74.5,30.2c1.9,0.5,3.1,1.8,4,3.4c0.3,2.2,0.2,4.4,0.2,6.7c-1.7,0-3.4,0-5.2,0c0-0.6,0-1.2,0-1.8
		c0-2.1-1-3.2-3.1-3.2c-8.1,0-16.2,0-24.3,0c0.7-1.6,1.1-3.4,1.3-5.1c2.4,0,4.8,0,7.2,0c6.4,0,12.7,0,19.1,0
		C74,30.2,74.3,30.2,74.5,30.2z"/>
	<path class="st3" d="M60.6,70.7c0.3-0.3,0.7-0.2,1.1-0.2c5.7,0,11.4,0,17.1,0c0.3,0.1,0.6,0.1,0.8,0.2c3.5,0.7,4.9,3.7,4,6.7
		c-0.1,0.4-0.2,1.1-0.9,1.1c-18.4,0-36.7,0-55.1,0c-2.5,0-4.2-1.2-5.1-3.4c-0.5-1.1-0.4-2.4,0-3.5c0.3-0.7,0.7-1.2,1.7-1.1
		c4.8,0.1,9.5,0,14.3,0c0.4,0,0.8-0.1,1.1,0.2c-0.2,2.1,2,4.4,4.3,4.4c4.1,0,8.3,0,12.4,0C58.6,75.1,60.8,72.8,60.6,70.7z"/>
	<path class="st3" d="M78.7,61.9c0,2.1,0,4.2,0,6.3c-17.9,0-35.8,0-53.7,0c-0.8,0-0.9-0.3-0.9-1c0-8.3,0-16.5,0-24.8
		c0.9,0.2,1.6,1,2.5,1c0,1.2,0,2.5,0,3.7c0,5.1,0,10.3,0,15.4c0,1.8,0.9,2.7,2.7,2.7c1,0,2,0,3.1,0c12.9,0,25.7,0,38.6,0
		c0.1,0,0.1,0,0.2,0c1.5-0.1,2.4-1,2.5-2.5c0-0.3,0-0.6,0-1C75.3,61.9,77,61.9,78.7,61.9z"/>
	<path class="st4" d="M60.6,70.7c0.2,2.1-2,4.4-4.3,4.4c-4.1,0-8.3,0-12.4,0c-2.3,0-4.5-2.3-4.3-4.4C46.6,70.7,53.6,70.7,60.6,70.7z
		"/>
	<path class="st5" d="M73.6,61.9c0,0.3,0,0.6,0,1c-0.1,1.5-1,2.4-2.5,2.5c-0.1,0-0.1,0-0.2,0c-12.9,0-25.7,0-38.6,0
		c-1.4-0.7-1.8-1.8-1.7-3.3c0.1-5.9,0-11.8,0-17.6c2.6,0.1,5.2-0.2,7.7-1.3c2.9-1.3,5.2-3.3,6.9-6c0.3-0.6,0.7-1.1,1-1.7
		c8.1,0,16.2,0,24.3,0c2.1,0,3.1,1,3.1,3.2c0,0.6,0,1.2,0,1.8c-4.5,0-8.9,0-13.4,0c-1,0-1.9,0.3-2.7,0.9c-1.6,1-2,2.6-1.9,4.4
		c-0.1,1.3-0.1,2.6,0,3.9c0,2.7,0,5.3,0,8c0,1.9,0.9,3.3,2.6,4.1c0.9,0.4,2,0.3,3,0.3C65.3,61.9,69.4,61.9,73.6,61.9z M40.3,51
		c-2.6,0-5.2,0-7.8,0c-0.9,0-1.2,0.5-1,1.3c0.2,0.7,0.8,0.7,1.3,0.7c3.4,0,6.9,0,10.3,0c1.6,0,3.2,0,4.9,0c0.7,0,1.3-0.2,1.3-0.9
		c0-0.8-0.5-1-1.3-1C45.4,51,42.9,51,40.3,51z M38.5,58.8c-2,0-3.9,0-5.9,0c-0.4,0-0.8,0-1,0.4c-0.2,0.3-0.3,0.7-0.1,1.1
		c0.2,0.5,0.7,0.6,1.2,0.6c1.6,0,3.2,0,4.9,0c2.2,0,4.3,0,6.5,0c0.7,0,1.4-0.2,1.4-1.1c0-0.8-0.6-1-1.4-1
		C42.2,58.9,40.4,58.8,38.5,58.8z M37.2,54.8c-1.6,0-3.2,0-4.8,0c-0.8,0-1,0.5-1,1.1c0,0.6,0.4,1,1,1c3.1,0,6.3,0,9.4,0
		c0.6,0,1.1-0.3,1.1-1c0-0.7-0.4-1.1-1.2-1.1C40.3,54.8,38.8,54.8,37.2,54.8z"/>
	<path class="st6" d="M31.8,40.3c-6.3,0.2-11.8-5.2-11.6-11.9c0.2-6,5-11.4,12.1-11.2c5.5,0.2,11.5,4.8,11,12.6
		C43,35,38.5,40.4,31.8,40.3z M30.8,23.9c0,0.5,0,0.8,0,1.1c0,0.7,0.2,1.2,0.9,1.3c0.8,0,1-0.5,1-1.3c0-1.2,0-1.2,1.1-0.8
		c0.6,0.3,1,0,1.4-0.5c0.4-0.5,0.1-0.9-0.3-1.2c-0.4-0.4-1-0.6-1.5-0.8c-0.5-0.2-0.8-0.4-0.7-0.9c0.1-0.6-0.3-0.9-0.9-0.9
		c-0.6,0-1,0.4-1,0.8c0,0.8-0.4,1.1-1,1.4c-2.2,1.1-2.5,4.6-0.6,5.9c1.1,0.7,2.2,1.2,3.4,1.6c0.7,0.2,1.2,0.6,1.4,1.3
		c0.2,0.8,0.1,1.7-0.6,2.3c-0.1,0.1-0.3,0.3-0.5,0.2c-0.2-0.1-0.2-0.3-0.2-0.5c0-0.6,0-1.1,0-1.7c0-0.7-0.2-1-0.9-1
		c-0.7,0-1,0.3-1,0.9c0,0.3,0,0.6,0,1c-0.1,0.6,0.3,1.3-0.2,1.6c-0.4,0.3-0.9-0.3-1.4-0.5c-0.5-0.2-1.1-0.3-1.5,0.3
		c-0.3,0.4-0.3,0.9,0,1.1c0.6,0.5,1.3,1.1,2.1,1.1c0.6,0.1,1,0.2,1,0.9c0,0.7,0.4,1,1.1,1c0.7,0,0.8-0.5,0.8-1
		c-0.1-0.5,0.1-0.7,0.6-0.9c2-1,3.1-2.3,2.8-4.9c-0.2-1.9-1.7-2.8-3.4-3.3c-0.7-0.2-1.3-0.5-1.9-0.8C29.7,26,29.7,24.9,30.8,23.9z
		 M39.7,28.8c-0.1-0.6-0.4-1.1-1-1c-0.6,0-0.9,0.4-0.9,1.1c0,0.7,0.4,0.9,0.9,1C39.4,29.8,39.7,29.4,39.7,28.8z M25.8,28.7
		c0.1-0.6-0.2-0.9-0.8-1c-0.7,0-1,0.4-1.1,1c0,0.7,0.5,0.9,1,1C25.6,29.8,25.8,29.4,25.8,28.7z"/>
	<path class="st7" d="M30.6,44.3c0,5.9,0,11.8,0,17.6c0,1.5,0.4,2.7,1.7,3.3c-1,0-2,0-3.1,0c-1.8,0-2.7-0.9-2.7-2.7
		c0-5.1,0-10.3,0-15.4c0-1.2,0-2.5,0-3.7C27.8,44,29.2,44.1,30.6,44.3z"/>
	<path class="st8" d="M41,16.1c0.6-0.1,1.1,0,1,0.7C41.6,16.8,41.3,16.4,41,16.1z"/>
	<path class="st9" d="M55.5,45.5c-0.1-1.8,0.3-3.3,1.9-4.4c0.8-0.5,1.7-0.9,2.7-0.9c4.5,0,8.9,0,13.4,0c1.7,0,3.4,0,5.2,0
		c1.3,0,2.6,0.3,3.6,1.1c1.4,1.1,1.7,2.6,1.5,4.2c-6.8,0-13.6,0-20.4,0C60.8,45.6,58.2,45.6,55.5,45.5z"/>
	<path class="st9" d="M73.6,61.9c-4.1,0-8.3,0-12.4,0c-1,0-2,0.1-3-0.3c-1.8-0.8-2.6-2.2-2.6-4.1c0-2.7,0-5.3,0-8
		c9.4,0,18.9,0,28.3,0c0,2.8,0.1,5.5,0,8.3c-0.1,2.4-1.8,4-4.3,4.1c-0.3,0-0.6,0-0.9,0C77,61.9,75.3,61.9,73.6,61.9z M72.5,52.1
		C72.5,52.2,72.5,52.2,72.5,52.1c-0.5,0.1-1,0-1.4,0.1c-0.5,0.1-0.8,0.4-0.8,1c0,0.6,0.3,0.9,0.8,1c0.9,0.1,1.9,0.1,2.8,0
		c0.5-0.1,0.8-0.4,0.8-0.9c0-0.6-0.2-0.9-0.8-1C73.5,52.1,73,52.2,72.5,52.1z M61.3,54.2C61.3,54.2,61.3,54.2,61.3,54.2
		c0.5,0,1,0,1.4,0c0.6-0.1,0.9-0.3,0.9-1c0-0.7-0.4-0.9-0.9-1c-0.9-0.1-1.7-0.1-2.6,0c-0.6,0-0.9,0.3-0.9,1c0,0.7,0.4,1,1,1
		C60.6,54.2,60.9,54.2,61.3,54.2z M67,52.1c-0.5,0-1,0-1.4,0.1c-0.5,0.1-0.8,0.4-0.8,1c0,0.5,0.2,0.9,0.7,0.9c1,0.1,2,0.1,2.9,0
		c0.5-0.1,0.7-0.4,0.8-0.9c0-0.6-0.3-0.9-0.8-1C67.9,52.1,67.4,52.2,67,52.1z M78.1,52.1C78.1,52.2,78.1,52.2,78.1,52.1
		c-0.5,0.1-1,0-1.4,0.1c-0.6,0.1-0.8,0.5-0.8,1c0,0.5,0.3,0.9,0.8,0.9c0.9,0.1,1.9,0.1,2.9,0c0.5-0.1,0.8-0.4,0.8-0.9
		c0-0.6-0.2-0.9-0.8-1C79,52.1,78.6,52.2,78.1,52.1z"/>
	<path class="st10" d="M83.9,49.4c-9.4,0-18.9,0-28.3,0c-0.1-1.3-0.1-2.6,0-3.9c2.6,0,5.3,0.1,7.9,0.1c6.8,0,13.6,0,20.4,0
		C83.9,46.9,83.9,48.2,83.9,49.4z"/>
	<path class="st3" d="M40.3,51c2.5,0,5.1,0,7.6,0c0.8,0,1.3,0.2,1.3,1c0,0.7-0.7,0.9-1.3,0.9c-1.6,0-3.2,0-4.9,0
		c-3.4,0-6.9,0-10.3,0c-0.5,0-1.1,0-1.3-0.7c-0.2-0.8,0.1-1.2,1-1.3C35.1,51,37.7,51,40.3,51z"/>
	<path class="st3" d="M38.5,58.8c1.8,0,3.7,0,5.5,0c0.8,0,1.4,0.2,1.4,1c0,0.9-0.7,1.1-1.4,1.1c-2.2,0-4.3,0-6.5,0
		c-1.6,0-3.2,0-4.9,0c-0.5,0-0.9-0.2-1.2-0.6c-0.2-0.4-0.2-0.7,0.1-1.1c0.3-0.4,0.6-0.4,1-0.4C34.6,58.8,36.6,58.8,38.5,58.8z"/>
	<path class="st3" d="M37.2,54.8c1.5,0,3.1,0,4.6,0c0.8,0,1.1,0.4,1.2,1.1c0.1,0.7-0.5,1-1.1,1c-3.1,0-6.3,0-9.4,0c-0.7,0-1-0.4-1-1
		c0-0.6,0.3-1.1,1-1.1C34.1,54.8,35.7,54.8,37.2,54.8z"/>
	<path class="st11" d="M30.8,23.9c-1.1,0.9-1,2.1,0,2.7c0.6,0.3,1.2,0.6,1.9,0.8c1.7,0.5,3.2,1.4,3.4,3.3c0.3,2.6-0.8,3.9-2.8,4.9
		c-0.5,0.2-0.7,0.5-0.6,0.9c0.1,0.6-0.1,1-0.8,1c-0.7,0-1.1-0.3-1.1-1c0-0.7-0.3-0.9-1-0.9c-0.8-0.1-1.5-0.6-2.1-1.1
		c-0.3-0.3-0.3-0.8,0-1.1c0.4-0.5,1-0.4,1.5-0.3c0.5,0.2,1,0.8,1.4,0.5c0.5-0.3,0.1-1.1,0.2-1.6c0-0.3,0-0.6,0-1
		c0-0.7,0.3-0.9,1-0.9c0.7,0,0.9,0.3,0.9,1c0,0.6,0,1.1,0,1.7c0,0.2,0,0.4,0.2,0.5c0.2,0.1,0.4,0,0.5-0.2c0.7-0.6,0.8-1.5,0.6-2.3
		c-0.1-0.7-0.7-1.1-1.4-1.3c-1.2-0.4-2.3-0.9-3.4-1.6c-1.9-1.3-1.6-4.8,0.6-5.9c0.6-0.3,1.1-0.6,1-1.4c0-0.5,0.4-0.9,1-0.8
		c0.5,0,0.9,0.4,0.9,0.9c-0.1,0.6,0.3,0.8,0.7,0.9c0.5,0.2,1.1,0.4,1.5,0.8c0.4,0.3,0.7,0.7,0.3,1.2c-0.3,0.4-0.7,0.8-1.4,0.5
		c-1.1-0.5-1.2-0.5-1.1,0.8c0,0.8-0.2,1.3-1,1.3c-0.8,0-1-0.6-0.9-1.3C30.8,24.7,30.8,24.4,30.8,23.9z"/>
	<path class="st11" d="M39.7,28.8c0,0.6-0.3,1-1,1c-0.6,0-0.9-0.3-0.9-1c0-0.7,0.3-1,0.9-1.1C39.4,27.7,39.7,28.1,39.7,28.8z"/>
	<path class="st11" d="M25.8,28.7c0,0.7-0.2,1.1-0.9,1.1c-0.6,0-1.1-0.3-1-1c0-0.7,0.4-1.1,1.1-1C25.6,27.8,25.9,28.2,25.8,28.7z"/>
	<path class="st10" d="M72.5,52.1c0.5,0,1,0,1.4,0.1c0.5,0.1,0.8,0.4,0.8,1c0,0.6-0.3,0.8-0.8,0.9c-0.9,0.1-1.9,0.1-2.8,0
		c-0.5-0.1-0.8-0.4-0.8-1c0-0.6,0.3-0.9,0.8-1C71.6,52.1,72.1,52.2,72.5,52.1C72.5,52.2,72.5,52.2,72.5,52.1z"/>
	<path class="st10" d="M61.3,54.2c-0.4,0-0.8,0-1.1,0c-0.6-0.1-1-0.3-1-1c0-0.7,0.4-0.9,0.9-1c0.9-0.1,1.7-0.1,2.6,0
		c0.5,0,0.9,0.3,0.9,1c0,0.7-0.3,0.9-0.9,1C62.3,54.2,61.8,54.2,61.3,54.2C61.3,54.2,61.3,54.2,61.3,54.2z"/>
	<path class="st10" d="M67,52.1c0.5,0,1,0,1.4,0.1c0.5,0.1,0.8,0.4,0.8,1c0,0.5-0.2,0.8-0.8,0.9c-1,0.2-2,0.1-2.9,0
		c-0.5-0.1-0.7-0.4-0.7-0.9c0-0.6,0.2-0.9,0.8-1C66,52.1,66.5,52.2,67,52.1z"/>
	<path class="st10" d="M78.1,52.1c0.5,0,1,0,1.4,0.1c0.5,0.1,0.8,0.4,0.8,1c0,0.6-0.3,0.8-0.8,0.9c-0.9,0.1-1.9,0.1-2.9,0
		c-0.5-0.1-0.8-0.4-0.8-0.9c0-0.5,0.2-1,0.8-1C77.1,52.2,77.6,52.2,78.1,52.1C78.1,52.2,78.1,52.2,78.1,52.1z"/>
</g>
</svg>
