<?xml version="1.0" encoding="utf-8"?>
<!-- Generator: Adobe Illustrator 25.4.1, SVG Export Plug-In . SVG Version: 6.00 Build 0)  -->
<svg version="1.1" id="Capa_1" xmlns="http://www.w3.org/2000/svg" xmlns:xlink="http://www.w3.org/1999/xlink" x="0px" y="0px"
	 viewBox="0 0 400 400" style="enable-background:new 0 0 400 400;" xml:space="preserve">
<style type="text/css">
	.st0{fill:#2CBEBF;}
	.st1{fill:#60CACB;}
	.st2{fill:#F6CCAF;}
	.st3{fill:#FFDEC7;}
	.st4{fill:#374F68;}
	.st5{fill:#3DA5FF;}
	.st6{fill:#6AB7FF;}
	.st7{fill:#425B72;}
	.st8{fill:#D3DDFB;}
	.st9{fill:#EAF5FC;}
	.st10{fill:#FC6559;}
	.st11{fill:url(#SVGID_1_);}
	.st12{fill:url(#SVGID_00000039842694834071962740000001201994719319576725_);}
	.st13{fill:url(#SVGID_00000140000427076638759600000015991543962389043900_);}
	.st14{fill:#DCE7F7;}
	.st15{fill:#C8CFDB;}
	.st16{fill:url(#SVGID_00000019643508995350576820000015334968347745366933_);}
</style>
<path class="st0" d="M220.04-115.4c-2.48,1.95-4.36,4.56-5.41,7.54H187.8v-1.85c0-15.61,19.59-22.41,29.27-10.79
	C218.36-118.99,219.37-117.26,220.04-115.4z"/>
<path class="st1" d="M220.04-115.4c-1.38,1.08-2.58,2.38-3.55,3.84h-19.46c-2.89-0.17-5.1-2.65-4.93-5.54
	c0.03-0.48,0.12-0.95,0.28-1.4c0.33-1.01,0.75-1.99,1.27-2.92c0.52-1.33,1.58-2.39,2.92-2.9
	C206.28-129.68,218.05-123.4,220.04-115.4z"/>
<path class="st2" d="M211.82-137.42c0,5.54,0.35,7.39-1.33,9.76c-2.33,3.35-6.93,4.18-10.29,1.85c-0.36-0.25-0.69-0.53-1-0.84
	c-2.73-2.77-2.16-5.65-2.16-10.77c2.72,1.13,7.15,2.09,9.24,0c1.47-1.53,3.9-1.58,5.43-0.11
	C211.75-137.5,211.79-137.46,211.82-137.42L211.82-137.42z"/>
<path class="st3" d="M211.82-137.42c0,5.54,0.35,7.39-1.33,9.76c-2.93,2.04-6.91,1.69-9.44-0.83c-2.49-2.53-2.16-5.06-2.16-8.28
	c2.12,0.59,5.54,1.18,7.39-0.65c1.47-1.53,3.9-1.58,5.43-0.11C211.75-137.5,211.79-137.46,211.82-137.42L211.82-137.42z"/>
<path class="st4" d="M211.82-137.42c-1.47-1.53-3.9-1.58-5.43-0.11c-0.04,0.04-0.07,0.07-0.11,0.11c-2.77,2.77-9.24,0-9.24,0
	c0-4.08,3.31-7.39,7.39-7.39S211.82-141.51,211.82-137.42z"/>
<path class="st5" d="M246.93-102.31v1.85h-33.26c-0.17-2.5,0.15-5.02,0.96-7.39c3.08-8.65,12.59-13.18,21.24-10.1
	C242.49-115.6,246.92-109.34,246.93-102.31z"/>
<path class="st6" d="M246.82-104.16c-32.72,0-21.62,0-24.02,0c-2.89-0.17-5.1-2.65-4.93-5.54c0.03-0.48,0.12-0.95,0.28-1.4
	c0.55-1.69,1.36-3.28,2.4-4.71c7.44-5.38,17.84-3.71,23.22,3.73C245.45-109.76,246.5-107.03,246.82-104.16L246.82-104.16z"/>
<path class="st2" d="M237.69-130.03c0,5.54,0.35,7.39-1.33,9.76c-2.33,3.35-6.93,4.18-10.29,1.85c-0.36-0.25-0.69-0.53-1-0.84
	c-2.73-2.77-2.16-5.65-2.16-10.77c2.72,1.13,7.15,2.09,9.24,0c1.47-1.53,3.9-1.58,5.43-0.11
	C237.62-130.11,237.65-130.07,237.69-130.03L237.69-130.03z"/>
<path class="st3" d="M237.69-130.03c0,5.54,0.35,7.39-1.33,9.76c-2.93,2.04-6.91,1.69-9.44-0.83c-2.49-2.53-2.16-5.06-2.16-8.28
	c2.12,0.59,5.54,1.18,7.39-0.65c1.47-1.53,3.9-1.58,5.43-0.11C237.62-130.11,237.65-130.07,237.69-130.03L237.69-130.03z"/>
<path class="st4" d="M237.69-130.03c-1.47-1.53-3.9-1.58-5.43-0.11c-0.04,0.04-0.07,0.07-0.11,0.11c-2.77,2.77-9.24,0-9.24,0
	c0-4.08,3.31-7.39,7.39-7.39S237.69-134.11,237.69-130.03z"/>
<path class="st0" d="M272.8-109.71v1.85h-26.83c-1.05-2.98-2.93-5.59-5.41-7.54C246.93-132.73,272.8-128.31,272.8-109.71z"/>
<path class="st1" d="M272.69-111.55c-32.73,0-21.62,0-24.02,0c-2.89-0.17-5.1-2.65-4.93-5.54c0.03-0.48,0.12-0.95,0.28-1.4
	c0.55-1.69,1.36-3.28,2.4-4.71c7.44-5.38,17.84-3.71,23.22,3.73C271.32-117.15,272.37-114.42,272.69-111.55L272.69-111.55z"/>
<path class="st2" d="M263.56-137.42c0,5.54,0.35,7.39-1.33,9.76c-2.33,3.35-6.93,4.18-10.29,1.85c-0.36-0.25-0.69-0.53-1-0.84
	c-2.73-2.77-2.16-5.65-2.16-10.77c2.72,1.13,7.15,2.09,9.24,0c1.47-1.53,3.9-1.58,5.43-0.11
	C263.49-137.5,263.52-137.46,263.56-137.42L263.56-137.42z"/>
<path class="st3" d="M263.56-137.42c0,5.54,0.35,7.39-1.33,9.76c-2.93,2.04-6.91,1.69-9.44-0.83c-2.49-2.53-2.16-5.06-2.16-8.28
	c2.13,0.59,5.54,1.18,7.39-0.65c1.47-1.53,3.9-1.58,5.43-0.11C263.49-137.5,263.52-137.46,263.56-137.42L263.56-137.42z"/>
<path class="st4" d="M263.56-137.42c-1.47-1.53-3.9-1.58-5.43-0.11c-0.04,0.04-0.07,0.07-0.11,0.11c-2.77,2.77-9.24,0-9.24,0
	c0-4.08,3.31-7.39,7.39-7.39C260.25-144.81,263.56-141.51,263.56-137.42z"/>
<g>
	<path class="st7" d="M263.56-137.42c-1.46-1.53-3.88-1.59-5.41-0.14c-0.05,0.04-0.09,0.09-0.14,0.14c-0.73,0.7-1.69,1.11-2.7,1.18
		c-1.61-0.17-3.19-0.57-4.69-1.18c-0.03-3.75,2.75-6.92,6.47-7.39C260.81-144.35,263.59-141.17,263.56-137.42z"/>
	<path class="st7" d="M237.69-130.03c-1.46-1.53-3.88-1.59-5.41-0.14c-0.05,0.04-0.09,0.09-0.14,0.14c-0.73,0.7-1.69,1.11-2.7,1.18
		c-1.61-0.17-3.19-0.57-4.69-1.18c-0.03-3.75,2.75-6.92,6.47-7.39C234.94-136.96,237.72-133.78,237.69-130.03z"/>
	<path class="st7" d="M211.82-137.42c-1.46-1.53-3.88-1.59-5.41-0.14c-0.05,0.04-0.09,0.09-0.14,0.14c-0.73,0.7-1.69,1.11-2.7,1.18
		c-1.61-0.17-3.19-0.57-4.69-1.18c-0.03-3.75,2.75-6.92,6.47-7.39C209.07-144.35,211.85-141.17,211.82-137.42z"/>
</g>
<g>
	<path class="st8" d="M242.71-154.72c0,2.66-0.86,5.24-2.45,7.36c-7.07,9.41-22.09,4.35-22.09-7.36c0-3.86,1.82-7.5,4.91-9.82
		c5.42-4.07,13.12-2.97,17.18,2.45C241.84-159.96,242.71-157.37,242.71-154.72z"/>
	<path class="st9" d="M242.71-154.72c0,2.66-0.86,5.24-2.45,7.36c-5.42,4.07-13.12,2.97-17.18-2.45c-3.27-4.36-3.27-10.37,0-14.73
		c5.42-4.07,13.12-2.97,17.18,2.45C241.84-159.96,242.71-157.37,242.71-154.72z"/>
	<path class="st10" d="M236.57-157.17h-3.68v-3.68h-4.91v3.68h-3.68v4.91h3.68v3.68h4.91v-3.68h3.68V-157.17z"/>
</g>
<g>
	<path class="st2" d="M212.04-134.73c0,5.54,0.35,7.39-1.33,9.76c-2.33,3.35-6.93,4.18-10.29,1.85c-0.36-0.25-0.69-0.53-1-0.84
		c-2.73-2.77-2.16-5.65-2.16-10.77c2.72,1.13,7.15,2.09,9.24,0c1.47-1.53,3.9-1.58,5.43-0.11C211.97-134.8,212-134.77,212.04-134.73
		L212.04-134.73z"/>
	<path class="st3" d="M212.04-134.73c0,5.54,0.35,7.39-1.33,9.76c-2.93,2.04-6.91,1.69-9.44-0.83c-2.49-2.53-2.16-5.06-2.16-8.28
		c2.12,0.59,5.54,1.18,7.39-0.65c1.47-1.53,3.9-1.58,5.43-0.11C211.97-134.8,212-134.77,212.04-134.73L212.04-134.73z"/>
	<path class="st4" d="M212.04-134.73c-1.47-1.53-3.9-1.58-5.43-0.11c-0.04,0.04-0.07,0.07-0.11,0.11c-2.77,2.77-9.24,0-9.24,0
		c0-4.08,3.31-7.39,7.39-7.39S212.04-138.81,212.04-134.73z"/>
	<linearGradient id="SVGID_1_" gradientUnits="userSpaceOnUse" x1="220.0357" y1="-112.6346" x2="241.0223" y2="-91.648">
		<stop  offset="0" style="stop-color:#00A99D"/>
		<stop  offset="0.1894" style="stop-color:#0FBBB1"/>
		<stop  offset="0.4258" style="stop-color:#1BCBC2"/>
		<stop  offset="0.6836" style="stop-color:#23D5CC"/>
		<stop  offset="1" style="stop-color:#25D8CF"/>
	</linearGradient>
	<path class="st11" d="M247.03-101.47C247.03-101.47,247.03-101.47,247.03-101.47c0-0.1-0.02-0.2-0.04-0.3
		c-0.03-0.21-0.05-0.42-0.09-0.63c-0.05-0.3-0.11-0.6-0.18-0.89c-0.02-0.07-0.03-0.14-0.04-0.21c-0.5-2.12-1.42-4.12-2.7-5.9
		c-5.38-7.44-15.78-9.11-23.22-3.73c-0.03,0.04-0.06,0.09-0.09,0.13c-2.59,1.9-4.67,4.57-5.83,7.83c-0.81,2.38-1.13,4.89-0.96,7.39
		h33.26v-1.85C247.15-100.24,247.1-100.86,247.03-101.47z"/>
	<path class="st2" d="M237.91-127.34c0,5.54,0.35,7.39-1.33,9.76c-2.33,3.35-6.93,4.18-10.29,1.85c-0.36-0.25-0.69-0.53-1-0.84
		c-2.73-2.77-2.16-5.65-2.16-10.77c2.72,1.13,7.15,2.09,9.24,0c1.47-1.53,3.9-1.58,5.43-0.11
		C237.84-127.41,237.87-127.38,237.91-127.34L237.91-127.34z"/>
	<path class="st3" d="M237.91-127.34c0,5.54,0.35,7.39-1.33,9.76c-2.93,2.04-6.91,1.69-9.44-0.83c-2.49-2.53-2.16-5.06-2.16-8.28
		c2.12,0.59,5.54,1.18,7.39-0.65c1.47-1.53,3.9-1.58,5.43-0.11C237.84-127.41,237.87-127.38,237.91-127.34L237.91-127.34z"/>
	<path class="st4" d="M237.91-127.34c-1.47-1.53-3.9-1.58-5.43-0.11c-0.04,0.04-0.07,0.07-0.11,0.11c-2.77,2.77-9.24,0-9.24,0
		c0-4.08,3.31-7.39,7.39-7.39S237.91-131.42,237.91-127.34z"/>
	
		<linearGradient id="SVGID_00000024702806219476044740000007133926645569582984_" gradientUnits="userSpaceOnUse" x1="240.7724" y1="-114.417" x2="273.0171" y2="-114.417">
		<stop  offset="0" style="stop-color:#00ADEA"/>
		<stop  offset="1" style="stop-color:#0783E9"/>
	</linearGradient>
	<path style="fill:url(#SVGID_00000024702806219476044740000007133926645569582984_);" d="M265.05-121.24
		c-0.05-0.03-0.1-0.06-0.15-0.09c-0.23-0.13-0.45-0.25-0.68-0.37c-4.02-2.15-8.8-2.59-13.18-1.1c-4.4,1.41-8.28,4.69-10.26,10.09
		c2.48,1.95,4.36,4.56,5.41,7.54h26.83v-1.85C273.02-113.72,269.65-118.57,265.05-121.24z"/>
	
		<linearGradient id="SVGID_00000070817659077792539100000011516626671970674570_" gradientUnits="userSpaceOnUse" x1="188.0171" y1="-114.4032" x2="220.2646" y2="-114.4032">
		<stop  offset="0" style="stop-color:#00ADEA"/>
		<stop  offset="1" style="stop-color:#0783E9"/>
	</linearGradient>
	<path style="fill:url(#SVGID_00000070817659077792539100000011516626671970674570_);" d="M218.24-110.81
		c0.05-0.05,0.09-0.1,0.13-0.15c0.25-0.27,0.52-0.54,0.79-0.79c0.04-0.04,0.08-0.08,0.12-0.11c0.32-0.29,0.64-0.57,0.98-0.83
		c-0.76-3.03-2.92-5.81-5.83-7.81c-3.28-2.44-7.17-3.38-10.95-3.07c-2.16,0.14-4.34,0.71-6.43,1.82c-0.12,0.06-0.25,0.12-0.37,0.19
		c-0.41,0.17-0.78,0.4-1.13,0.67c-4.39,2.81-7.53,7.64-7.53,13.89v1.85h26.83c0.46-1.31,1.1-2.55,1.87-3.7h0
		c0.23-0.34,0.47-0.68,0.72-1c0.03-0.03,0.05-0.07,0.08-0.1C217.75-110.26,217.99-110.54,218.24-110.81z"/>
	<path class="st2" d="M263.78-134.73c0,5.54,0.35,7.39-1.33,9.76c-2.33,3.35-6.93,4.18-10.29,1.85c-0.36-0.25-0.69-0.53-1-0.84
		c-2.73-2.77-2.16-5.65-2.16-10.77c2.72,1.13,7.15,2.09,9.24,0c1.47-1.53,3.9-1.58,5.43-0.11
		C263.71-134.8,263.74-134.77,263.78-134.73L263.78-134.73z"/>
	<path class="st3" d="M263.78-134.73c0,5.54,0.35,7.39-1.33,9.76c-2.93,2.04-6.91,1.69-9.44-0.83c-2.49-2.53-2.16-5.06-2.16-8.28
		c2.13,0.59,5.54,1.18,7.39-0.65c1.47-1.53,3.9-1.58,5.43-0.11C263.71-134.8,263.74-134.77,263.78-134.73L263.78-134.73z"/>
	<path class="st4" d="M263.78-134.73c-1.47-1.53-3.9-1.58-5.43-0.11c-0.04,0.04-0.07,0.07-0.11,0.11c-2.77,2.77-9.24,0-9.24,0
		c0-4.08,3.31-7.39,7.39-7.39C260.47-142.12,263.78-138.81,263.78-134.73z"/>
	<g>
		<path class="st7" d="M263.78-134.73c-1.46-1.53-3.88-1.59-5.41-0.14c-0.05,0.04-0.09,0.09-0.14,0.14c-0.73,0.7-1.69,1.11-2.7,1.18
			c-1.61-0.17-3.19-0.57-4.69-1.18c-0.03-3.75,2.75-6.92,6.47-7.39C261.03-141.65,263.81-138.48,263.78-134.73z"/>
		<path class="st7" d="M237.91-127.34c-1.46-1.53-3.88-1.59-5.41-0.14c-0.05,0.04-0.09,0.09-0.14,0.14c-0.73,0.7-1.69,1.11-2.7,1.18
			c-1.61-0.17-3.19-0.57-4.69-1.18c-0.03-3.75,2.75-6.92,6.47-7.39C235.16-134.26,237.94-131.09,237.91-127.34z"/>
		<path class="st7" d="M212.04-134.73c-1.46-1.53-3.88-1.59-5.41-0.14c-0.05,0.04-0.09,0.09-0.14,0.14c-0.73,0.7-1.69,1.11-2.7,1.18
			c-1.61-0.17-3.19-0.57-4.69-1.18c-0.03-3.75,2.75-6.92,6.47-7.39C209.29-141.65,212.07-138.48,212.04-134.73z"/>
	</g>
</g>
<g>
	<path class="st8" d="M242.92-152.02c0,2.66-0.86,5.24-2.45,7.36c-7.07,9.41-22.09,4.35-22.09-7.36c0-3.86,1.82-7.5,4.91-9.82
		c5.42-4.07,13.12-2.97,17.18,2.45C242.06-157.26,242.92-154.68,242.92-152.02z"/>
	<path class="st9" d="M242.92-152.02c0,2.66-0.86,5.24-2.45,7.36c-5.42,4.07-13.12,2.97-17.18-2.45c-3.27-4.36-3.27-10.37,0-14.73
		c5.42-4.07,13.12-2.97,17.18,2.45C242.06-157.26,242.92-154.68,242.92-152.02z"/>
	<path class="st10" d="M236.79-154.48h-3.68v-3.68h-4.91v3.68h-3.68v4.91h3.68v3.68h4.91v-3.68h3.68V-154.48z"/>
</g>
<g>
	<path class="st14" d="M384.2,166.25l-43.33-8.61c-2.72-9.51-6.57-18.57-11.32-27.4l24.01-36.01c2.94-4.53,2.49-10.42-1.36-14.27
		L320.04,47.8c-3.85-3.85-9.74-4.3-14.27-1.36l-36.01,24.01c-8.84-4.76-17.89-8.38-27.41-11.32l-8.61-43.33
		c-1.13-5.21-5.66-9.06-11.1-9.06h-45.3c-5.44,0-9.96,3.85-11.1,9.06l-8.61,43.33c-9.51,2.94-18.57,6.57-27.41,11.32L94.24,46.45
		c-4.53-2.94-10.42-2.49-14.27,1.36L47.81,79.97c-3.85,3.85-4.3,9.74-1.36,14.27l24.01,36.01c-4.76,8.83-8.61,17.89-11.32,27.4
		l-43.33,8.61c-5.21,1.13-9.06,5.66-9.06,11.1v45.3c0,5.44,3.85,9.97,9.06,11.1l43.33,8.61c2.72,9.51,6.57,18.57,11.32,27.4
		l-24.01,36.01c-2.94,4.53-2.49,10.42,1.36,14.27l32.16,32.16c3.85,3.85,9.74,4.3,14.27,1.36l36.01-24.01
		c8.84,4.76,17.89,8.38,27.41,11.32l8.61,43.33c1.13,5.21,5.66,9.06,11.1,9.06h45.3c5.44,0,9.96-3.85,11.1-9.06l8.61-43.33
		c9.51-2.94,18.57-6.57,27.41-11.32l36.01,24.01c4.53,2.94,10.42,2.49,14.27-1.36l32.16-32.16c3.85-3.85,4.3-9.74,1.36-14.27
		l-24.01-36.01c4.76-8.83,8.61-17.89,11.32-27.4l43.33-8.61c5.21-1.13,9.06-5.66,9.06-11.1v-45.3
		C393.26,171.92,389.41,167.39,384.2,166.25z M200,267.94c-37.37,0-67.94-30.58-67.94-67.94c0-37.37,30.57-67.94,67.94-67.94
		s67.94,30.57,67.94,67.94C267.94,237.37,237.37,267.94,200,267.94z"/>
	<path class="st15" d="M393.26,177.35v45.3c0,5.44-3.85,9.97-9.06,11.1l-43.33,8.61c-2.72,9.51-6.57,18.57-11.32,27.4l24.01,36.01
		c2.94,4.53,2.49,10.42-1.36,14.27l-32.16,32.16c-3.85,3.85-9.74,4.3-14.27,1.36l-36.01-24.01c-8.84,4.76-17.89,8.38-27.41,11.32
		l-8.61,43.33c-1.13,5.21-5.66,9.06-11.1,9.06H200V267.94c37.37,0,67.94-30.58,67.94-67.94c0-37.37-30.57-67.94-67.94-67.94V6.74
		h22.65c5.44,0,9.96,3.85,11.1,9.06l8.61,43.33c9.51,2.94,18.57,6.57,27.41,11.32l36.01-24.01c4.53-2.94,10.42-2.49,14.27,1.36
		l32.16,32.16c3.85,3.85,4.3,9.74,1.36,14.27l-24.01,36.01c4.76,8.83,8.61,17.89,11.32,27.4l43.33,8.61
		C389.41,167.39,393.26,171.92,393.26,177.35z"/>
	
		<linearGradient id="SVGID_00000119807372660690037970000018260869283888537260_" gradientUnits="userSpaceOnUse" x1="288.2336" y1="149.0579" x2="111.7667" y2="250.9412">
		<stop  offset="0" style="stop-color:#006DF0"/>
		<stop  offset="0.0914" style="stop-color:#0883E9"/>
		<stop  offset="0.247" style="stop-color:#12A2E0"/>
		<stop  offset="0.4105" style="stop-color:#1ABAD8"/>
		<stop  offset="0.5829" style="stop-color:#20CBD3"/>
		<stop  offset="0.7702" style="stop-color:#24D5D0"/>
		<stop  offset="1" style="stop-color:#25D8CF"/>
	</linearGradient>
	<path style="fill:url(#SVGID_00000119807372660690037970000018260869283888537260_);" d="M200,98.08
		c-56.17,0-101.91,45.75-101.91,101.92c0,56.17,45.75,101.92,101.91,101.92S301.92,256.17,301.92,200
		C301.92,143.83,256.17,98.08,200,98.08z M200,256.62c-31.25,0-56.62-25.37-56.62-56.62c0-31.25,25.37-56.62,56.62-56.62
		s56.62,25.37,56.62,56.62C256.62,231.25,231.25,256.62,200,256.62z"/>
</g>
</svg>
