<?xml version="1.0" encoding="utf-8"?>
<!-- Generator: Adobe Illustrator 23.0.4, SVG Export Plug-In . SVG Version: 6.00 Build 0)  -->
<svg version="1.1" id="Capa_1" xmlns="http://www.w3.org/2000/svg" xmlns:xlink="http://www.w3.org/1999/xlink" x="0px" y="0px"
	 viewBox="0 0 200 200" style="enable-background:new 0 0 200 200;" xml:space="preserve">
<style type="text/css">
	.st0{fill:#3366CC;}
	.st1{fill:#1CBEBE;}
	.st2{fill:url(#SVGID_1_);}
	.st3{fill:url(#SVGID_2_);}
</style>
<g id="Capa_3">
</g>
<g id="XMLID_1_">
	<g>
		<path class="st0" d="M194,25v104.4c0,10.5-8.5,19-19,19h-47.2l5.3,19l0.8,0.2c6.6,1.8,11.3,7.9,11.3,14.7v7.5
			c0,2.3-1.8,4.1-4.1,4.1H59c-2.3,0-4.1-1.8-4.1-4.1v-7.5c0-6.9,4.6-12.9,11.3-14.7l0.8-0.2l5.3-19H25c-10.5,0-19-8.5-19-19V25
			C6,14.5,14.5,6,25,6h150C185.5,6,194,14.5,194,25z M185.8,129.5v-3.4H14.2v3.4c0,6,4.9,10.8,10.8,10.8h150
			C180.9,140.3,185.8,135.4,185.8,129.5z M185.8,117.9V25c0-6-4.9-10.8-10.8-10.8H25c-6,0-10.8,4.9-10.8,10.8v92.9H185.8z
			 M136.9,185.8v-3.4c0-3.9-3.2-7.1-7.1-7.1H70.2c-3.9,0-7.1,3.2-7.1,7.1v3.4H136.9z M124.4,167.2l-5.2-18.7H80.7l-5.2,18.7H124.4z"
			/>
		<path class="st1" d="M185.8,126.1v3.4c0,6-4.9,10.8-10.8,10.8H25c-6,0-10.8-4.9-10.8-10.8v-3.4H185.8z"/>
		<linearGradient id="SVGID_1_" gradientUnits="userSpaceOnUse" x1="14.19" y1="66.05" x2="185.81" y2="66.05">
			<stop  offset="0" style="stop-color:#FFFFFF"/>
			<stop  offset="0.2301" style="stop-color:#FCFEFE"/>
			<stop  offset="0.3713" style="stop-color:#F4FCFC"/>
			<stop  offset="0.4886" style="stop-color:#E5F8F8"/>
			<stop  offset="0.5927" style="stop-color:#D1F2F2"/>
			<stop  offset="0.6882" style="stop-color:#B6EAEA"/>
			<stop  offset="0.7773" style="stop-color:#96E1E1"/>
			<stop  offset="0.8615" style="stop-color:#6FD6D6"/>
			<stop  offset="0.9397" style="stop-color:#43C9C9"/>
			<stop  offset="1" style="stop-color:#1CBEBE"/>
		</linearGradient>
		<path class="st2" d="M185.8,25v92.9H14.2V25c0-6,4.9-10.8,10.8-10.8h150C180.9,14.2,185.8,19,185.8,25z M151.9,66.1
			c0-10.1-8.2-18.3-18.3-18.3c-10.1,0-18.3,8.2-18.3,18.3s8.2,18.3,18.3,18.3C143.7,84.3,151.9,76.1,151.9,66.1z M81.7,38.1
			c0-2.3-1.8-4.1-4.1-4.1H48.1v-1.5c0-2.3-1.8-4.1-4.1-4.1c-2.3,0-4.1,1.8-4.1,4.1V34h-7.1c-2.3,0-4.1,1.8-4.1,4.1
			c0,2.3,1.8,4.1,4.1,4.1H40v1.5c0,2.3,1.8,4.1,4.1,4.1c2.3,0,4.1-1.8,4.1-4.1v-1.5h29.5C79.9,42.2,81.7,40.3,81.7,38.1z M81.7,66.1
			c0-2.3-1.8-4.1-4.1-4.1h-7.1v-1.5c0-2.3-1.8-4.1-4.1-4.1s-4.1,1.8-4.1,4.1V62H32.8c-2.3,0-4.1,1.8-4.1,4.1c0,2.3,1.8,4.1,4.1,4.1
			h29.5v1.5c0,2.3,1.8,4.1,4.1,4.1s4.1-1.8,4.1-4.1v-1.5h7.1C79.9,70.2,81.7,68.3,81.7,66.1z M81.7,94c0-2.3-1.8-4.1-4.1-4.1H48.1
			v-1.5c0-2.3-1.8-4.1-4.1-4.1c-2.3,0-4.1,1.8-4.1,4.1v1.5h-7.1c-2.3,0-4.1,1.8-4.1,4.1s1.8,4.1,4.1,4.1H40v1.5
			c0,2.2,1.8,4.1,4.1,4.1c2.3,0,4.1-1.8,4.1-4.1v-1.5h29.5C79.9,98.1,81.7,96.3,81.7,94z"/>
		<path class="st1" d="M136.9,182.4v3.4H63.1v-3.4c0-3.9,3.2-7.1,7.1-7.1h59.7C133.8,175.4,136.9,178.5,136.9,182.4z"/>
		<linearGradient id="SVGID_2_" gradientUnits="userSpaceOnUse" x1="75.55" y1="157.825" x2="124.45" y2="157.825">
			<stop  offset="0" style="stop-color:#FFFFFF"/>
			<stop  offset="0.2301" style="stop-color:#FCFEFE"/>
			<stop  offset="0.3713" style="stop-color:#F4FCFC"/>
			<stop  offset="0.4886" style="stop-color:#E5F8F8"/>
			<stop  offset="0.5927" style="stop-color:#D1F2F2"/>
			<stop  offset="0.6882" style="stop-color:#B6EAEA"/>
			<stop  offset="0.7773" style="stop-color:#96E1E1"/>
			<stop  offset="0.8615" style="stop-color:#6FD6D6"/>
			<stop  offset="0.9397" style="stop-color:#43C9C9"/>
			<stop  offset="1" style="stop-color:#1CBEBE"/>
		</linearGradient>
		<polygon class="st3" points="119.3,148.5 124.4,167.2 75.6,167.2 80.7,148.5 		"/>
		<path class="st0" d="M77.6,34c2.3,0,4.1,1.8,4.1,4.1c0,2.3-1.8,4.1-4.1,4.1H48.1v1.5c0,2.3-1.8,4.1-4.1,4.1
			c-2.3,0-4.1-1.8-4.1-4.1v-1.5h-7.1c-2.3,0-4.1-1.8-4.1-4.1c0-2.3,1.8-4.1,4.1-4.1H40v-1.5c0-2.3,1.8-4.1,4.1-4.1
			c2.3,0,4.1,1.8,4.1,4.1V34H77.6z"/>
		<path class="st0" d="M77.6,62c2.3,0,4.1,1.8,4.1,4.1c0,2.3-1.8,4.1-4.1,4.1h-7.1v1.5c0,2.3-1.8,4.1-4.1,4.1s-4.1-1.8-4.1-4.1v-1.5
			H32.8c-2.3,0-4.1-1.8-4.1-4.1c0-2.3,1.8-4.1,4.1-4.1h29.5v-1.5c0-2.3,1.8-4.1,4.1-4.1s4.1,1.8,4.1,4.1V62H77.6z"/>
		<path class="st0" d="M77.6,89.9c2.3,0,4.1,1.8,4.1,4.1s-1.8,4.1-4.1,4.1H48.1v1.5c0,2.2-1.8,4.1-4.1,4.1c-2.3,0-4.1-1.8-4.1-4.1
			v-1.5h-7.1c-2.3,0-4.1-1.8-4.1-4.1s1.8-4.1,4.1-4.1H40v-1.5c0-2.3,1.8-4.1,4.1-4.1c2.3,0,4.1,1.8,4.1,4.1v1.5H77.6z"/>
	</g>
	<g>
	</g>
</g>
<g>
	<g id="XMLID_2_">
		<g>
			<path class="st0" d="M147.5,66.2c0-6.4-5.2-11.6-11.6-11.6s-11.6,5.2-11.6,11.6c0,6.4,5.2,11.6,11.6,11.6S147.5,72.6,147.5,66.2z
				 M167.7,63v6.5c0,0.7-0.6,1.3-1.3,1.4l-6.4,0.8c-0.6,0.1-1,0.5-1.2,1c-0.5,1.8-1.2,3.5-2.1,5.1c-0.3,0.5-0.2,1.1,0.1,1.6l3.9,5.1
				c0.5,0.6,0.4,1.4-0.1,1.9l-4.6,4.6c-0.5,0.5-1.3,0.6-1.9,0.1l-5.1-3.9c-0.5-0.4-1.1-0.4-1.6-0.1c-1.6,0.9-3.3,1.6-5.1,2.1
				c-0.6,0.2-1,0.6-1,1.2l-0.8,6.4c-0.1,0.7-0.7,1.3-1.4,1.3h-6.5c-0.7,0-1.3-0.6-1.4-1.3l-0.8-6.4c-0.1-0.6-0.5-1-1-1.2
				c-1.8-0.5-3.5-1.2-5.1-2.1c-0.2-0.1-0.5-0.2-0.7-0.2c-0.3,0-0.6,0.1-0.9,0.3l-5.1,3.9c-0.6,0.5-1.4,0.4-1.9-0.1l-4.6-4.6
				c-0.5-0.5-0.6-1.3-0.1-1.9l3.9-5.1c0.4-0.5,0.4-1.1,0.1-1.6c-0.9-1.6-1.6-3.3-2.1-5.1c-0.2-0.6-0.6-1-1.2-1l-6.4-0.8
				c-0.7-0.1-1.3-0.7-1.3-1.4V63c0-0.7,0.6-1.3,1.3-1.4l6.4-0.8c0.6-0.1,1-0.5,1.2-1c0.5-1.8,1.2-3.5,2.1-5.1
				c0.3-0.5,0.2-1.1-0.1-1.6l-3.9-5.1c-0.5-0.6-0.4-1.4,0.1-1.9l4.6-4.6c0.5-0.5,1.3-0.5,1.9-0.1l5.1,3.9c0.5,0.4,1.1,0.4,1.6,0.1
				c1.6-0.9,3.3-1.6,5.1-2.1c0.6-0.2,1-0.6,1-1.2l0.8-6.4c0.1-0.7,0.7-1.3,1.4-1.3h6.5c0.7,0,1.3,0.6,1.4,1.3l0.8,6.4
				c0.1,0.6,0.5,1,1,1.2c1.8,0.5,3.5,1.2,5.1,2.1c0.5,0.3,1.1,0.2,1.6-0.1l5.1-3.9c0.6-0.5,1.4-0.4,1.9,0.1l4.6,4.6
				c0.5,0.5,0.6,1.3,0.1,1.9l-3.9,5.1c-0.4,0.5-0.4,1.1-0.1,1.6c0.9,1.6,1.6,3.3,2.1,5.1c0.2,0.6,0.6,1,1.2,1l6.4,0.8
				C167.2,61.6,167.7,62.2,167.7,63z"/>
		</g>
		<g>
		</g>
	</g>
</g>
</svg>
