<?xml version="1.0" encoding="utf-8"?>
<!-- Generator: Adobe Illustrator 25.4.1, SVG Export Plug-In . SVG Version: 6.00 Build 0)  -->
<svg version="1.1" id="Layer_1" xmlns="http://www.w3.org/2000/svg" xmlns:xlink="http://www.w3.org/1999/xlink" x="0px" y="0px"
	 viewBox="0 0 512 476" style="enable-background:new 0 0 512 476;" xml:space="preserve">
<style type="text/css">
	.st0{fill:#4F5761;}
	.st1{fill:#3E454D;}
	.st2{fill:#D7DCE2;}
	.st3{fill:#C5CBD3;}
	.st4{fill:#2CBEBF;}
	.st5{fill:#FFFFFF;}
	.st6{fill:url(#SVGID_1_);}
	.st7{fill:#F6CCAF;}
	.st8{fill:#FFDEC7;}
	.st9{fill:#374F68;}
	.st10{fill:#425B72;}
	.st11{fill:url(#SVGID_00000153664480642104297300000001334047323327501462_);}
	.st12{fill:url(#SVGID_00000117641607621552415350000013337037765290084278_);}
</style>
<path class="st0" d="M-164.5-244.9h-301c-3.9,0-7-3.1-7-7v-25.4c0-3.9,3.1-7,7-7h301.1c3.9,0,7,3.1,7,7v25.4
	C-157.5-248.1-160.6-244.9-164.5-244.9L-164.5-244.9z"/>
<path class="st1" d="M-421-284.3v39.4h-44.5c-3.9,0-7-3.1-7-7v-25.4c0-3.9,3.1-7,7-7H-421L-421-284.3z"/>
<g>
	<path class="st2" d="M-367.1,159.3l-28-5.6c-1.7-6.2-4.2-12-7.3-17.7l15.5-23.3c1.9-3,1.6-6.7-0.9-9.3l-20.8-20.8
		c-2.5-2.5-6.3-2.7-9.3-0.9l-23.3,15.5c-5.7-3.1-11.5-5.4-17.7-7.3l-5.6-28c-0.7-3.3-3.7-5.8-7.2-5.8h-29.2c-3.5,0-6.4,2.5-7.2,5.8
		l-5.6,28c-6.2,1.9-12,4.2-17.7,7.3l-23.3-15.5c-3-1.9-6.7-1.6-9.3,0.9l-20.8,20.8c-2.5,2.5-2.7,6.3-0.9,9.3l15.6,23.3
		c-3.1,5.7-5.6,11.5-7.3,17.7l-28,5.6c-3.3,0.7-5.8,3.7-5.8,7.2v29.2c0,3.5,2.5,6.4,5.8,7.2l28,5.6c1.7,6.2,4.2,12,7.3,17.7
		l-15.5,23.3c-1.9,3-1.6,6.7,0.9,9.3l20.8,20.8c2.5,2.5,6.3,2.7,9.3,0.9l23.3-15.5c5.7,3.1,11.5,5.4,17.7,7.3l5.6,28
		c0.7,3.3,3.7,5.8,7.2,5.8h29.2c3.5,0,6.4-2.5,7.2-5.8l5.6-28c6.2-1.9,12-4.2,17.7-7.3l23.3,15.5c3,1.9,6.7,1.6,9.3-0.9l20.8-20.8
		c2.5-2.5,2.7-6.3,0.9-9.3l-15.6-23.3c3.1-5.7,5.6-11.5,7.3-17.7l28-5.6c3.3-0.7,5.8-3.7,5.8-7.2v-29.2
		C-361.3,162.9-363.7,159.9-367.1,159.3z M-486.2,225c-24.2,0-44-19.8-44-44s19.8-44,44-44c24.2,0,44,19.8,44,44S-462,225-486.2,225
		z"/>
	<path class="st3" d="M-361.3,166.4v29.2c0,3.5-2.5,6.4-5.8,7.2l-28,5.6c-1.7,6.2-4.2,12-7.3,17.7l15.5,23.3c1.9,3,1.6,6.7-0.9,9.3
		l-20.8,20.8c-2.5,2.5-6.3,2.7-9.3,0.9l-23.3-15.5c-5.7,3.1-11.5,5.4-17.7,7.3l-5.6,28c-0.7,3.3-3.7,5.8-7.2,5.8h-14.6v-81.1
		c24.2,0,44-19.8,44-44s-19.8-44-44-44V55.9h14.6c3.5,0,6.4,2.5,7.2,5.8l5.6,28c6.2,1.9,12,4.2,17.7,7.3l23.3-15.5
		c3-1.9,6.7-1.6,9.3,0.9l20.8,20.8c2.5,2.5,2.7,6.3,0.9,9.3l-15.5,23.5c3.1,5.7,5.6,11.5,7.3,17.7l28,5.6
		C-363.7,159.9-361.3,162.9-361.3,166.4z"/>
</g>
<g>
	<path class="st2" d="M-216.7,50.8l-19.7,4.4c-2.9-3.5-6.2-6.6-9.8-9.3l3.4-19.5c0.4-2.4-0.9-4.8-3.2-5.7l-19.2-7.5
		c-2.2-0.9-4.9,0-6.2,2.1l-10.7,16.6c-4.5-0.4-9-0.3-13.5,0.2l-11.5-16.5c-1.4-2-4-2.8-6.3-1.7l-18.9,8.3c-2.2,1-3.4,3.4-3,5.8
		l4.4,19.7c-3.5,3-6.6,6.2-9.3,9.8l-19.4-3.4c-2.4-0.4-4.8,0.9-5.7,3.2l-7.5,19.3c-0.9,2.2,0,4.9,2.1,6.2l16.6,10.7
		c-0.4,4.5-0.3,9,0.2,13.5l-16.5,11.5c-2,1.4-2.8,4-1.7,6.3l8.3,18.9c1,2.2,3.4,3.5,5.8,3l19.7-4.4c2.9,3.5,6.2,6.6,9.8,9.3
		l-3.4,19.5c-0.4,2.4,0.9,4.8,3.2,5.7l19.3,7.5c2.2,0.9,4.9,0,6.2-2.1l10.7-16.6c4.5,0.4,9,0.3,13.5-0.2l11.5,16.5
		c1.4,2,4,2.8,6.3,1.7l18.9-8.3c2.2-1,3.4-3.4,3-5.8l-4.4-19.7c3.5-3,6.6-6.2,9.3-9.8l19.5,3.4c2.4,0.4,4.8-0.9,5.7-3.2l7.5-19.3
		c0.9-2.2,0-4.9-2.1-6.2l-16.6-10.7c0.4-4.5,0.3-9-0.2-13.5l16.5-11.5c2-1.4,2.8-4,1.7-6.3l-8.3-18.9
		C-211.9,51.6-214.2,50.4-216.7,50.8z M-275,127.1c-15.7,6.9-34-0.3-40.9-15.9c-6.9-15.7,0.3-34,15.9-40.9
		c15.7-6.9,34,0.3,40.9,15.9C-252.1,101.9-259.3,120.2-275,127.1z"/>
	<path class="st3" d="M-210.9,53.8l8.3,18.9c1,2.2,0.3,4.9-1.7,6.3l-16.5,11.5c0.6,4.5,0.6,9,0.2,13.5l16.6,10.7
		c2,1.4,2.9,3.9,2.1,6.2l-7.5,19.3c-0.9,2.2-3.3,3.6-5.7,3.2l-19.5-3.4c-2.8,3.6-5.9,6.8-9.3,9.8l4.4,19.7c0.5,2.4-0.7,4.8-3,5.8
		l-9.4,4.1l-23-52.4c15.7-6.9,22.8-25.2,15.9-40.9c-6.9-15.7-25.2-22.8-40.9-15.9L-323,18l9.4-4.1c2.2-1,4.8-0.2,6.3,1.7l11.5,16.5
		c4.5-0.5,9-0.6,13.5-0.2l10.7-16.6c1.4-2,3.9-2.9,6.2-2.1l19.3,7.5c2.2,0.9,3.6,3.3,3.2,5.7l-3.4,19.5c3.6,2.8,6.8,5.9,9.8,9.3
		l19.7-4.4C-214.2,50.4-211.9,51.6-210.9,53.8z"/>
</g>
<g>
	<g>
		<path class="st4" d="M179.2,73c-7.1,3-14.1,6.5-20.7,10.4c-2.9,1.7-3.8,5.3-2.2,8.2c1.1,1.9,3.1,3,5.2,3c1,0,2.1-0.3,3-0.8
			c6.2-3.6,12.8-6.9,19.4-9.7c3-1.3,4.5-4.8,3.2-7.9C185.8,73.1,182.3,71.7,179.2,73z"/>
		<path class="st4" d="M105.2,341.1c-1.8-2.8-5.5-3.6-8.3-1.8c-2.8,1.8-3.6,5.5-1.8,8.3c4.2,6.5,8.8,12.7,13.8,18.6
			c1.2,1.4,2.9,2.1,4.6,2.1c1.4,0,2.7-0.5,3.9-1.4c2.5-2.1,2.9-5.9,0.7-8.5C113.5,353,109.1,347.1,105.2,341.1z"/>
		<path class="st4" d="M124.7,108.5c-5.6,5.3-11,10.9-16,16.8c-2.1,2.5-1.8,6.3,0.7,8.5c1.1,0.9,2.5,1.4,3.9,1.4
			c1.7,0,3.4-0.7,4.6-2.1c4.6-5.5,9.7-10.8,15-15.8c2.4-2.3,2.6-6.1,0.3-8.5C130.9,106.3,127.1,106.2,124.7,108.5z"/>
		<path class="st4" d="M164.8,397.7c-6.2-3.6-12.3-7.6-18.1-12c-2.6-2-6.4-1.5-8.4,1.2c-2,2.6-1.5,6.4,1.2,8.4
			c6.2,4.7,12.7,9,19.3,12.8c0.9,0.5,2,0.8,3,0.8c2.1,0,4.1-1.1,5.2-3C168.7,403,167.7,399.4,164.8,397.7z"/>
		<path class="st4" d="M77,245.8v-0.2c0-7.2,0.4-14.4,1.3-21.5c0.4-3.3-1.9-6.3-5.2-6.7c-3.3-0.4-6.3,1.9-6.7,5.2
			c-0.9,7.6-1.4,15.3-1.4,22.9v0.2c0,3.3,2.7,6,6,6S77,249.1,77,245.8z"/>
		<path class="st4" d="M79.8,189.4c0.7,0.2,1.4,0.4,2,0.4c2.5,0,4.8-1.5,5.6-4c2.5-6.8,5.4-13.5,8.7-19.9c1.5-3,0.3-6.6-2.6-8.1
			c-3-1.5-6.6-0.3-8.1,2.6c-3.5,6.9-6.6,14-9.3,21.3C75,184.8,76.6,188.3,79.8,189.4z"/>
		<path class="st4" d="M423.5,206.1c0.6,2.8,3.1,4.7,5.8,4.7c0.4,0,0.9-0.1,1.4-0.2c3.2-0.7,5.2-4,4.5-7.2c-1.7-7.5-4-15-6.6-22.2
			c-1.1-3.1-4.6-4.7-7.7-3.6c-3.1,1.1-4.7,4.6-3.6,7.7C419.8,192.1,421.9,199.1,423.5,206.1z"/>
		<path class="st4" d="M222.1,418.5c-7.1-1.2-14.2-2.9-21.1-5.1c-3.2-1-6.5,0.8-7.5,4c-1,3.2,0.8,6.5,4,7.5c7.4,2.3,15,4.1,22.6,5.4
			c0.3,0.1,0.7,0.1,1,0.1c2.9,0,5.4-2.1,5.9-5C227.5,422.2,225.4,419.1,222.1,418.5z"/>
		<path class="st4" d="M81.4,285c-0.7-3.2-4-5.2-7.2-4.5c-3.2,0.7-5.2,4-4.5,7.2c1.7,7.5,3.9,15,6.6,22.3c0.9,2.4,3.2,3.9,5.6,3.9
			c0.7,0,1.4-0.1,2.1-0.4c3.1-1.1,4.7-4.6,3.6-7.7C85.1,299,83,292,81.4,285z"/>
		<path class="st4" d="M307.3,66.3c-7.4-2.3-15-4.1-22.6-5.4c-3.3-0.6-6.4,1.6-6.9,4.9c-0.6,3.3,1.6,6.4,4.9,6.9
			c7.1,1.2,14.2,2.9,21.1,5c0.6,0.2,1.2,0.3,1.8,0.3c2.6,0,4.9-1.7,5.7-4.2C312.2,70.6,310.5,67.3,307.3,66.3z"/>
		<path class="st4" d="M409.7,143.5c-4.2-6.5-8.9-12.7-13.8-18.6c-2.1-2.5-5.9-2.9-8.5-0.7c-2.5,2.1-2.9,5.9-0.7,8.5
			c4.7,5.5,9,11.4,12.9,17.4c1.2,1.8,3.1,2.7,5,2.7c1.1,0,2.3-0.3,3.3-1C410.7,150,411.5,146.3,409.7,143.5z"/>
		<path class="st4" d="M395.4,357.7c-2.5-2.1-6.3-1.8-8.5,0.7c-4.6,5.5-9.7,10.8-15,15.7c-2.4,2.3-2.6,6.1-0.3,8.5
			c1.2,1.3,2.8,1.9,4.4,1.9c1.5,0,2.9-0.5,4.1-1.6c5.6-5.2,11-10.9,16-16.8C398.2,363.6,397.9,359.8,395.4,357.7z"/>
		<path class="st4" d="M425.1,302.1c-3.1-1.1-6.6,0.5-7.7,3.6c-2.5,6.8-5.4,13.5-8.7,19.9c-1.5,2.9-0.3,6.6,2.6,8.1
			c0.9,0.4,1.8,0.7,2.7,0.7c2.2,0,4.3-1.2,5.3-3.3c3.5-6.9,6.6-14,9.3-21.3C429.8,306.7,428.2,303.2,425.1,302.1z"/>
		<path class="st4" d="M433.9,239.3c-3.3,0-6,2.7-6,6v0.4c0,7.2-0.4,14.5-1.3,21.7c-0.4,3.3,1.9,6.3,5.2,6.7c0.2,0,0.5,0,0.7,0
			c3,0,5.6-2.2,5.9-5.3c0.9-7.6,1.4-15.4,1.4-23.1v-0.4C439.9,241.9,437.3,239.3,433.9,239.3z"/>
		<path class="st4" d="M242.7,58.4c-7.7,0.4-15.5,1.3-23,2.6c-3.3,0.6-5.4,3.7-4.9,7c0.5,2.9,3,5,5.9,5c0.3,0,0.7,0,1.1-0.1
			c7.1-1.3,14.4-2.1,21.6-2.4c3.3-0.2,5.9-3,5.7-6.3C248.8,60.8,246,58.2,242.7,58.4z"/>
		<path class="st4" d="M365.3,95.9c-6.2-4.6-12.7-9-19.4-12.8c-2.9-1.7-6.5-0.7-8.2,2.2c-1.7,2.9-0.7,6.5,2.2,8.2
			c6.3,3.6,12.3,7.6,18.1,12c1.1,0.8,2.4,1.2,3.6,1.2c1.8,0,3.6-0.8,4.8-2.4C368.5,101.6,367.9,97.9,365.3,95.9z"/>
		<path class="st4" d="M283,418.5c-7.1,1.2-14.4,2.1-21.6,2.4c-3.3,0.2-5.9,3-5.7,6.3c0.2,3.2,2.8,5.7,6,5.7c0.1,0,0.2,0,0.3,0
			c7.7-0.4,15.5-1.3,23.1-2.6c3.3-0.6,5.4-3.7,4.9-6.9C289.4,420.1,286.3,417.9,283,418.5z"/>
		<path class="st4" d="M340.3,397.6c-6.3,3.6-12.8,6.9-19.4,9.7c-3.1,1.3-4.5,4.8-3.2,7.9c1,2.3,3.2,3.7,5.5,3.7
			c0.8,0,1.6-0.2,2.3-0.5c7.1-3,14.1-6.5,20.8-10.4c2.9-1.7,3.8-5.3,2.2-8.2C346.8,396.9,343.1,396,340.3,397.6z"/>
	</g>
	<ellipse class="st5" cx="262.7" cy="52.4" rx="61.4" ry="52.4"/>
	<ellipse class="st5" cx="398" cy="280.3" rx="61.4" ry="52.4"/>
	<ellipse class="st5" cx="108.1" cy="301.7" rx="61.4" ry="52.4"/>
	<linearGradient id="SVGID_1_" gradientUnits="userSpaceOnUse" x1="41.4552" y1="398.2762" x2="201.3406" y2="398.2762">
		<stop  offset="0" style="stop-color:#006DF0"/>
		<stop  offset="1" style="stop-color:#3272B2"/>
	</linearGradient>
	<path class="st6" d="M200.8,396.6C200.8,396.6,200.8,396.6,200.8,396.6c0-0.4-0.1-0.8-0.2-1.3c-0.1-0.9-0.3-1.8-0.4-2.6
		c-0.2-1.3-0.5-2.5-0.9-3.8c-0.1-0.3-0.1-0.6-0.2-0.9c-2.4-8.9-6.8-17.3-12.9-24.8C160.4,332,110.5,325,74.8,347.6
		c-0.1,0.2-0.3,0.4-0.4,0.6c-12.4,8-22.4,19.2-27.9,32.9c-3.9,10-5.7,70.7-4.8,81.2h159.7v-57.9
		C201.3,401.7,201.1,399.2,200.8,396.6z"/>
	<g>
		<path class="st7" d="M156.9,282.2c0,26.6,1.7,35.4-6.4,46.8c-11.2,16.1-33.2,20-49.3,8.9c-1.7-1.2-3.3-2.5-4.8-4
			C83.3,320.6,86,306.8,86,282.2c13,5.4,34.3,10,44.3,0c7.1-7.3,18.7-7.6,26.1-0.5C156.5,281.9,156.7,282.1,156.9,282.2L156.9,282.2
			z"/>
		<path class="st8" d="M156.9,282.2c0,26.6,1.7,35.4-6.4,46.8c-14.1,9.8-33.1,8.1-45.3-4c-12-12.1-10.4-24.3-10.4-39.7
			c10.2,2.8,26.6,5.7,35.4-3.1c7.1-7.3,18.7-7.6,26.1-0.5C156.5,281.9,156.7,282.1,156.9,282.2L156.9,282.2z"/>
		<path class="st9" d="M156.9,282.2c-7.1-7.3-18.7-7.6-26.1-0.5c-0.2,0.2-0.4,0.3-0.5,0.5c-13.3,13.3-44.3,0-44.3,0
			c0-19.6,15.9-35.4,35.4-35.4S156.9,262.7,156.9,282.2z"/>
		<path class="st10" d="M156.9,282.2c-7-7.3-18.6-7.6-25.9-0.7c-0.2,0.2-0.4,0.4-0.7,0.7c-3.5,3.3-8.1,5.3-12.9,5.7
			c-7.7-0.8-15.3-2.7-22.5-5.7c-0.1-18,13.2-33.2,31-35.4C143.7,249,157,264.3,156.9,282.2z"/>
	</g>
	
		<linearGradient id="SVGID_00000152983362567921320400000012462732574674429356_" gradientUnits="userSpaceOnUse" x1="329.9158" y1="752.9874" x2="451.6888" y2="874.7604" gradientTransform="matrix(1 0 0 1 0 -392)">
		<stop  offset="0" style="stop-color:#006DF0"/>
		<stop  offset="1" style="stop-color:#3272B2"/>
	</linearGradient>
	<path style="fill:url(#SVGID_00000152983362567921320400000012462732574674429356_);" d="M470,398.3C470,398.3,470,398.3,470,398.3
		c0-0.4-0.1-0.8-0.2-1.3c-0.1-0.9-0.3-1.8-0.4-2.6c-0.2-1.3-0.5-2.5-0.9-3.8c-0.1-0.3-0.1-0.6-0.2-0.9c-2.4-8.9-6.8-17.3-12.9-24.8
		c-25.8-31.3-75.6-38.3-111.3-15.7c-0.1,0.2-0.3,0.4-0.4,0.6c-12.4,8-22.4,19.2-27.9,32.9c-3.9,10-5.7,70.7-4.8,81.2h159.7V406
		C470.5,403.4,470.3,400.8,470,398.3z"/>
	<g>
		<path class="st7" d="M426.1,283.9c0,26.6,1.7,35.4-6.4,46.8c-11.2,16.1-33.2,20-49.3,8.9c-1.7-1.2-3.3-2.5-4.8-4
			c-13.1-13.3-10.4-27.1-10.4-51.6c13,5.4,34.3,10,44.3,0c7.1-7.3,18.7-7.6,26.1-0.5C425.7,283.5,425.9,283.7,426.1,283.9
			L426.1,283.9z"/>
		<path class="st8" d="M426.1,283.9c0,26.6,1.7,35.4-6.4,46.8c-14.1,9.8-33.1,8.1-45.3-4c-12-12.1-10.4-24.3-10.4-39.7
			c10.2,2.8,26.6,5.7,35.4-3.1c7.1-7.3,18.7-7.6,26.1-0.5C425.7,283.5,425.9,283.7,426.1,283.9L426.1,283.9z"/>
		<path class="st9" d="M426.1,283.9c-7.1-7.3-18.7-7.6-26.1-0.5c-0.2,0.2-0.4,0.3-0.5,0.5c-13.3,13.3-44.3,0-44.3,0
			c0-19.6,15.9-35.4,35.4-35.4S426.1,264.3,426.1,283.9z"/>
		<path class="st10" d="M426.1,283.9c-7-7.3-18.6-7.6-25.9-0.7c-0.2,0.2-0.4,0.4-0.7,0.7c-3.5,3.3-8.1,5.3-12.9,5.7
			c-7.7-0.8-15.3-2.7-22.5-5.7c-0.1-18,13.2-33.2,31-35.4C412.9,250.7,426.2,265.9,426.1,283.9z"/>
	</g>
	
		<linearGradient id="SVGID_00000098202527210298076310000015392054690634196865_" gradientUnits="userSpaceOnUse" x1="175.9414" y1="158.8431" x2="335.8267" y2="158.8431">
		<stop  offset="0" style="stop-color:#006DF0"/>
		<stop  offset="1" style="stop-color:#3272B2"/>
	</linearGradient>
	<path style="fill:url(#SVGID_00000098202527210298076310000015392054690634196865_);" d="M335.3,157.2
		C335.3,157.2,335.3,157.2,335.3,157.2c0-0.4-0.1-0.8-0.2-1.3c-0.1-0.9-0.3-1.8-0.4-2.6c-0.2-1.3-0.5-2.5-0.9-3.8
		c-0.1-0.3-0.1-0.6-0.2-0.9c-2.4-8.9-6.8-17.3-12.9-24.8c-25.8-31.3-75.6-38.3-111.3-15.7c-0.1,0.2-0.3,0.4-0.4,0.6
		c-12.4,8-22.4,19.2-27.9,32.9c-3.9,10-5.7,70.7-4.8,81.2h159.7v-57.9C335.8,162.3,335.6,159.7,335.3,157.2z"/>
	<g>
		<path class="st7" d="M291.4,42.8c0,26.6,1.7,35.4-6.4,46.8c-11.2,16.1-33.2,20-49.3,8.9c-1.7-1.2-3.3-2.5-4.8-4
			c-13.1-13.3-10.4-27.1-10.4-51.6c13,5.4,34.3,10,44.3,0c7.1-7.3,18.7-7.6,26.1-0.5C291,42.4,291.2,42.6,291.4,42.8L291.4,42.8z"/>
		<path class="st8" d="M291.4,42.8c0,26.6,1.7,35.4-6.4,46.8c-14.1,9.8-33.1,8.1-45.3-4c-12-12.1-10.4-24.3-10.4-39.7
			c10.2,2.8,26.6,5.7,35.4-3.1c7.1-7.3,18.7-7.6,26.1-0.5C291,42.4,291.2,42.6,291.4,42.8L291.4,42.8z"/>
		<path class="st9" d="M291.4,42.8c-7.1-7.3-18.7-7.6-26.1-0.5c-0.2,0.2-0.4,0.3-0.5,0.5c-13.3,13.3-44.3,0-44.3,0
			c0-19.6,15.9-35.4,35.4-35.4S291.4,23.2,291.4,42.8z"/>
		<path class="st10" d="M291.4,42.8c-7-7.3-18.6-7.6-25.9-0.7c-0.2,0.2-0.4,0.4-0.7,0.7c-3.5,3.3-8.1,5.3-12.9,5.7
			c-7.7-0.8-15.3-2.7-22.5-5.7c-0.1-18,13.2-33.2,31-35.4C278.2,9.6,291.5,24.8,291.4,42.8z"/>
	</g>
</g>
</svg>
