<?xml version="1.0" encoding="utf-8"?>
<!-- Generator: Adobe Illustrator 25.4.1, SVG Export Plug-In . SVG Version: 6.00 Build 0)  -->
<svg version="1.1" id="Capa_1" xmlns="http://www.w3.org/2000/svg" xmlns:xlink="http://www.w3.org/1999/xlink" x="0px" y="0px"
	 viewBox="0 0 400 400" style="enable-background:new 0 0 400 400;" xml:space="preserve">
<style type="text/css">
	.st0{fill:#FFFFFF;}
</style>
<path class="st0" d="M391.95,202.15h-18.38c4.17-13.11,6.19-26.81,5.99-40.57c-0.53-32.97-14.4-64.31-38.45-86.88
	c-17.83-15.69-41.39-23.24-65.01-20.82c-35.24,3.03-60.22,26.14-76.1,47.6c-15.89-21.46-40.87-44.58-76.05-47.6
	c-23.62-2.4-47.18,5.14-65.01,20.82c-24.05,22.56-37.93,53.91-38.46,86.88c-0.21,13.76,1.8,27.46,5.96,40.57H8.05
	c-3.42,0-6.19,2.77-6.19,6.19c0,3.42,2.77,6.19,6.19,6.19h22.8c6.69,16.19,15.66,31.33,26.62,44.99
	c20.97,25.46,45.8,47.47,73.59,65.22c15.61,10.35,31.73,19.91,48.3,28.64l1,0.53c5.57,2.95,11.23,5.8,16.9,8.59
	c1.72,0.85,3.74,0.85,5.46,0c5.67-2.79,11.31-5.63,17.26-8.78l0.65-0.35c16.57-8.73,32.69-18.29,48.3-28.63
	c27.79-17.76,52.62-39.77,73.59-65.22c10.97-13.65,19.94-28.8,26.63-44.99h22.8c3.42,0,6.19-2.77,6.19-6.19
	C398.14,204.92,395.37,202.15,391.95,202.15z M32.82,161.9c0.45-29.59,12.88-57.74,34.43-78.02c13.52-11.81,30.93-18.2,48.88-17.96
	c2.24,0,4.5,0.1,6.76,0.29c34.32,2.97,58.07,28.54,71.96,49.47c2.12,2.85,6.14,3.44,8.99,1.32c0.5-0.37,0.95-0.82,1.32-1.32
	c13.89-20.93,37.64-46.51,71.96-49.47c20.17-2,40.27,4.37,55.61,17.62c21.58,20.29,34.01,48.45,34.46,78.07
	c0.22,13.69-1.99,27.32-6.51,40.25H248.3l-11.31-50.88c-0.74-3.34-4.05-5.45-7.38-4.71c-2.12,0.47-3.85,2.02-4.53,4.09l-24.45,73.48
	l-13.19-48.38c-0.7-2.77-3.25-4.68-6.11-4.56c-2.83,0.05-5.27,2.02-5.92,4.77l-17.58,74.72L138,126.85
	c-0.54-3.38-3.71-5.68-7.09-5.14c-2.49,0.4-4.49,2.27-5.06,4.72l-17.49,75.71H39.33C34.81,189.22,32.6,175.6,32.82,161.9z
	 M332.81,251.82c-20.16,24.44-44.03,45.57-70.74,62.62c-14.32,9.55-29.77,18.71-47.22,27.99l-1.01,0.54
	c-4.57,2.42-9.19,4.78-13.84,7.08c-4.65-2.31-9.29-4.69-14.17-7.26l-0.66-0.35c-17.47-9.29-32.92-18.45-47.24-28
	c-26.71-17.04-50.58-38.17-70.74-62.62c-9.16-11.44-16.88-23.96-22.97-37.29h69.09c2.88,0,5.39-1.99,6.04-4.8l11.44-49.58
	l19.76,123.46c0.47,2.92,2.93,5.11,5.89,5.21h0.22c2.87,0,5.37-1.98,6.03-4.77l19.19-81.52l12.16,44.58c0.9,3.3,4.3,5.25,7.6,4.35
	c2-0.54,3.6-2.05,4.25-4.02l23.89-71.67l7.54,33.91c0.63,2.83,3.13,4.84,6.02,4.85h112.44
	C349.69,227.86,341.97,240.38,332.81,251.82z"/>
</svg>
