<?xml version="1.0" encoding="utf-8"?>
<!-- Generator: Adobe Illustrator 24.2.3, SVG Export Plug-In . SVG Version: 6.00 Build 0)  -->
<svg version="1.1" id="Capa_1" xmlns="http://www.w3.org/2000/svg" xmlns:xlink="http://www.w3.org/1999/xlink" x="0px" y="0px"
	 viewBox="0 0 200 200" style="enable-background:new 0 0 200 200;" xml:space="preserve">
<style type="text/css">
	.st0{fill:#3366CC;}
	.st1{fill:url(#SVGID_1_);}
	.st2{fill:url(#SVGID_2_);}
	.st3{fill:#1CBEBE;}
	.st4{fill:#FFFFFF;}
	.st5{fill:url(#SVGID_3_);}
	.st6{fill:url(#SVGID_4_);}
	.st7{fill:url(#SVGID_5_);}
	.st8{fill:url(#SVGID_6_);}
	.st9{fill:url(#SVGID_7_);}
	.st10{fill:url(#SVGID_8_);}
	.st11{fill:url(#SVGID_9_);}
	.st12{fill:url(#SVGID_10_);}
	.st13{fill:url(#SVGID_11_);}
</style>
<g>
	<g id="XMLID_1_">
		<g>
			<path class="st0" d="M-86,390.5c0,18.6,0,37.1,0,55.7c-1.4,3-3.4,4.9-6.9,4.9c-23.6,0-47.2,0-70.7,0c-4.2,0-6.9-2.7-7-6.9
				c0-4.6,0-9.2,0-13.7c0-0.7,0-1.3,0-2c-5.9-1-10,1.5-9.8,8.4c0.3,8.3,0.1,16.7,0.1,25c0,0.7,0,1.5,0,2.3c3.4-0.1,6.4-0.1,9,1.9
				c2.6,2,3.8,4.7,4.1,7.9c0.9,0,1.6,0,2.3,0c7.6,0,15.3,0,22.9,0c12,0.1,20.2,8.4,20.2,20.3c0,8.8,0,17.5,0,26.3c0,0.7,0,1.4,0,2
				c5,1.3,6.5,3.1,6.5,8.1c0,2.6,0,5.2,0,7.8c0,4.4-2.6,7-7,7c-2.1,0-4.2,0-6.2,0c-1.6,7.2-5.6,12.3-12.3,15
				c-1.4,0.6-2.9,0.9-4.3,1.3c-1.8,0-3.6,0-5.3,0c-0.3-0.1-0.6-0.3-0.9-0.3c-8.1-1.7-13.2-6.6-15.4-14.5c-0.3-1.2-0.8-1.5-1.9-1.4
				c-6.6,0-13.2,0-19.8,0c-2.8,0-5.6,0-8.4,0c-0.2,0.7-0.4,1.2-0.5,1.8c-1.9,6.6-6,11-12.4,13.4c-1.3,0.5-2.7,0.8-4,1.1
				c-1.7,0-3.3,0-5,0c-0.2-0.1-0.4-0.2-0.7-0.3c-8.3-1.8-13.5-6.7-15.7-14.8c-0.3-1-0.7-1.3-1.7-1.3c-3,0-6,0.1-9,0
				c-3.5-0.1-6.1-2.8-6.2-6.3c-0.1-3.4-0.1-6.7,0-10.1c0-2.8,1.7-5,4.3-5.9c0.7-0.2,1.4-0.4,2.2-0.6c0-0.9,0-1.6,0-2.4
				c0-15.1,0-30.1,0-45.2c0-6.9,3.9-10.8,10.9-10.8c15.1,0,30.1,0,45.2,0c0.7,0,1.5,0,2.3,0c0.1-0.4,0.2-0.7,0.2-0.9
				c0-9.5,0.1-19-0.1-28.4c0-1.4-0.7-3-1.5-4.2c-2-2.7-5-2.5-8.1-2.2c0,5.1,0,10.1,0,15.1s-2.6,7.6-7.5,7.6c-23.2,0-46.4,0-69.6,0
				c-5.1,0-7.6-2.5-7.6-7.7c0-16.6,0-33.2,0-49.8c0-4.9,2-8.3,6.5-10.5c10.2-5,20.4-10.1,30.5-15.2c3.6-1.9,7.1-1.9,10.7-0.1
				c10.2,5.2,20.4,10.3,30.7,15.3c4.4,2.1,6.4,5.5,6.4,10.3c-0.1,8.7,0,17.4,0,26.1c0,0.7,0,1.3,0,2.2c5.1-0.4,9.5,0.5,12.6,4
				c2.3-1.2,4.2-2.7,6.4-3.4c2.2-0.7,4.6-0.7,6.9-0.9c0-9.3,0.1-18.5,0-27.7c-0.1-5,2-8.4,6.5-10.6c10.1-4.9,20.2-9.9,30.2-15.1
				c3.9-2,7.5-2,11.4,0c9.5,4.9,19,9.7,28.6,14.3C-90.2,384.2-87.2,386.4-86,390.5z M-92.4,393.7c0-2.4-0.9-3.7-3-4.8
				c-10.1-5-20.1-10-30.2-15.1c-1.9-0.9-3.5-1-5.4,0c-10.1,5.1-20.2,10.2-30.3,15.2c-2.1,1-2.9,2.5-2.9,4.8c0.1,16.2,0,32.4,0,48.6
				c0,0.7,0,1.4,0,2c2.3,0,4.4,0,6.5,0c0-0.9,0-1.7,0-2.4c0-14,0-28,0-41.9c0-5,2.6-7.6,7.6-7.6c14.4,0,28.8,0,43.3,0
				c5.2,0,7.7,2.5,7.7,7.7c0,14,0,28.1,0,42.1c0,0.7,0,1.5,0,2.2c2.3,0,4.2,0,6.5,0c0-0.8,0-1.4,0-2
				C-92.5,426.3-92.5,410-92.4,393.7z M-105.5,405.3c0-2.1,0-4.1,0-6.2c-15.3,0-30.3,0-45.4,0c0,2.2,0,4.2,0,6.2
				C-135.8,405.3-120.7,405.3-105.5,405.3z M-105.6,444.5c0-10.8,0-21.5,0-32.3c-15.2,0-30.3,0-45.4,0c0,10.8,0,21.5,0,32.3
				c2.2,0,4.2,0,6.4,0c0-0.8,0-1.5,0-2.1c0-5.6,0-11.2,0-16.8c0-4.3,2.6-6.9,6.8-7c1.8-0.1,3.6,0,5.3,0c4.9,0,7.4,2.5,7.4,7.4
				c0,1.8,0,3.6,0,5.7c2.2,0,4.1,0,5.9,0c4.5,0.1,7,2.6,7.1,7.1c0,1.9,0,3.8,0,5.7C-109.7,444.5-107.7,444.5-105.6,444.5z
				 M-118.6,444.5c0-2.1,0-4.1,0-6.2c-2.2,0-4.2,0-6.3,0c0,2.1,0,4.1,0,6.2C-122.7,444.5-120.7,444.5-118.6,444.5z M-121.9,538.8
				c0-3.2,0-6.3,0-9.4c-3.7,0-7.3,0-10.7,0c1.5,3.1,2.9,6.1,4.5,9.4C-126.3,538.8-124.1,538.8-121.9,538.8z M-128.5,496.7
				c0.5-5.2-0.4-8.6-3.2-11.7c-1.3,1.4-2.5,2.7-3.7,4c-1.6,1.6-3.5,1.7-4.9,0.4c-1.4-1.4-1.3-3.3,0.3-5c0.9-1,1.9-1.9,2.8-2.9
				c-0.1-0.2-0.1-0.4-0.2-0.6c-3.4,0-6.8,0-10.3,0c0,0.1-0.1,0.3-0.1,0.4c0,3.9,0,7.7,0,11.6c0,2.7,1.1,3.8,3.9,3.8
				c4.3,0,8.6,0,12.9,0C-130.1,496.7-129.3,496.7-128.5,496.7z M-128.4,522.6c0-6.5,0-12.9,0-19.4c-0.8,0-1.5,0-2.2,0
				c-4.6,0-9.2,0.1-13.7,0c-5.9-0.1-9.9-4.1-9.9-10c0-2.2,0-4.5,0-6.7c0-2,0-3.9,0-5.9c-4.4,0-8.6,0-12.9,0c0,14.2,0,28.1,0,42.1
				C-154.1,522.6-141.3,522.6-128.4,522.6z M-131.7,431.5c0-2.2,0-4.2,0-6.3c-2.2,0-4.2,0-6.2,0c0,2.2,0,4.2,0,6.3
				C-135.8,431.5-133.8,431.5-131.7,431.5z M-131.7,444.6c0-2.2,0-4.3,0-6.3c-2.2,0-4.2,0-6.2,0c0,2.2,0,4.2,0,6.3
				C-135.8,444.6-133.8,444.6-131.7,444.6z M-147.9,555.3c7.2,0,13.1-5.9,13.1-13.1c0-7.2-5.8-12.9-13.1-12.9
				c-7.2,0-12.9,5.8-12.9,13S-155,555.3-147.9,555.3z M-163.2,529.4c-12.4,0-25.2,0-37.7,0c1.5,3.1,2.9,6.1,4.6,9.6
				c9.2,0,18.8,0,28.4,0c0.4,0,0.9-0.4,1.1-0.7C-165.6,535.3-164.4,532.3-163.2,529.4z M-175.8,522.8c1.6,0,2-0.4,2-2
				c-0.1-15.2,0-30.4,0-45.6c0-3.5-1-4.6-4.5-4.6c-18.7,0-37.4,0-56.1,0c-3.5,0-4.5,1-4.5,4.5c0,13.4,0,26.8,0,40.2
				c0,2.3,0,4.7,0,7.3c0.8,0,1.3,0.1,1.9,0.1C-216.6,522.8-196.2,522.7-175.8,522.8z M-203.1,393.9c0-2.4-0.8-3.9-3-4.9
				c-10.1-4.9-20.1-10-30.1-15.1c-1.9-1-3.5-1-5.4,0c-10.1,5.1-20.2,10.2-30.3,15.1c-2,1-2.9,2.3-2.9,4.6c0.1,16.3,0,32.7,0,49
				c0,0.6,0.1,1.2,0.1,1.9c2.2,0,4.2,0,6.4,0c0-0.8,0-1.6,0-2.3c0-14,0-28,0-41.9c0-5.3,2.5-7.8,7.8-7.8c14.3,0,28.6,0,42.9,0
				c5.5,0,7.9,2.5,7.9,7.9c0,14,0,28,0,42c0,0.7,0,1.5,0,2.2c2.3,0,4.2,0,6.5,0c0-0.9,0-1.6,0-2.3
				C-203.1,426.2-203.2,410-203.1,393.9z M-203.1,542.3c0-7.1-5.8-13-13-13c-7.2,0-13,5.7-13,12.9c-0.1,7.2,5.7,13.1,12.9,13.1
				C-209.1,555.3-203.2,549.5-203.1,542.3z M-216.3,405.4c0-2.1,0-4.1,0-6.2c-15.2,0-30.3,0-45.4,0c0,2.1,0,4.1,0,6.2
				C-246.5,405.4-231.4,405.4-216.3,405.4z M-216.3,444.5c0-10.8,0-21.6,0-32.3c-15.2,0-30.3,0-45.3,0c0,10.9,0,21.6,0,32.4
				c2.1,0,4.1,0,6.3,0c0-0.9,0-1.5,0-2.2c0-5.6,0-11.2,0-16.8c0-4.3,2.6-6.9,6.9-7c1.7,0,3.4,0,5.1,0c5,0,7.5,2.4,7.5,7.5
				c0,1.8,0,3.6,0,5.6c2.1,0,3.9,0,5.6,0c4.9,0,7.4,2.5,7.4,7.4c0,1.8,0,3.6,0,5.5C-220.4,444.5-218.4,444.5-216.3,444.5z
				 M-229.3,444.5c0-2.2,0-4.2,0-6.3c-2.2,0-4.2,0-6.2,0c0,2.2,0,4.2,0,6.3C-233.4,444.5-231.4,444.5-229.3,444.5z M-231.6,529.4
				c-4.3,0-9,0-13.8,0c0,3.2,0,6.2,0,9.5c3.2,0,6.1,0,9.1,0c0.3,0,0.9-0.3,1-0.6C-234,535.3-232.8,532.3-231.6,529.4z M-242.3,431.5
				c0-2.1,0-4.1,0-6.3c-2.2,0-4.2,0-6.2,0c0,2.2,0,4.2,0,6.3C-246.4,431.5-244.4,431.5-242.3,431.5z M-242.4,444.5
				c0-2.1,0-4.2,0-6.2c-2.2,0-4.2,0-6.3,0c0,2.2,0,4.2,0,6.2C-246.5,444.5-244.5,444.5-242.4,444.5z"/>
			
				<linearGradient id="SVGID_1_" gradientUnits="userSpaceOnUse" x1="-164.1029" y1="-209.0099" x2="-92.3836" y2="-209.0099" gradientTransform="matrix(1 0 0 -1 0 199.8898)">
				<stop  offset="0" style="stop-color:#FFFFFF"/>
				<stop  offset="0.1392" style="stop-color:#FBFEFE"/>
				<stop  offset="0.2728" style="stop-color:#F0FBFB"/>
				<stop  offset="0.4042" style="stop-color:#DCF5F5"/>
				<stop  offset="0.5343" style="stop-color:#C1EDED"/>
				<stop  offset="0.6635" style="stop-color:#9EE3E3"/>
				<stop  offset="0.792" style="stop-color:#73D7D7"/>
				<stop  offset="0.9175" style="stop-color:#41C9C9"/>
				<stop  offset="1" style="stop-color:#1CBEBE"/>
			</linearGradient>
			<path class="st1" d="M-95.4,389c2.1,1,3,2.4,3,4.8c-0.1,16.3,0,32.5,0,48.8c0,0.6,0,1.2,0,2c-2.3,0-4.2,0-6.5,0
				c0-0.8,0-1.5,0-2.2c0-14,0-28.1,0-42.1c0-5.2-2.5-7.7-7.7-7.7c-14.4,0-28.9,0-43.3,0c-5.1,0-7.6,2.6-7.6,7.6c0,14,0,28,0,41.9
				c0,0.8,0,1.5,0,2.4c-2.2,0-4.2,0-6.5,0c0-0.7,0-1.4,0-2c0-16.2,0-32.4,0-48.6c0-2.3,0.8-3.7,2.9-4.8c10.1-5,20.2-10,30.3-15.2
				c1.9-1,3.5-0.9,5.4,0C-115.5,379-105.5,384-95.4,389z M-121.8,382.8c0-1.7-1.1-3.2-2.8-3.3c-2.4-0.1-4.8-0.2-7.2,0
				c-1.8,0.1-3,1.7-2.9,3.4c0.1,1.7,1.4,2.9,3.1,3c0.4,0,0.8,0,1.2,0s0.7,0,1.1,0c0.3,0,0.6,0,0.9,0c0.3,0,0.7,0,1,0
				c0.8,0,1.6,0,2.4,0C-123.1,385.8-121.9,384.6-121.8,382.8z"/>
			
				<linearGradient id="SVGID_2_" gradientUnits="userSpaceOnUse" x1="-150.9207" y1="-202.3164" x2="-105.5207" y2="-202.3164" gradientTransform="matrix(1 0 0 -1 0 199.8898)">
				<stop  offset="0" style="stop-color:#FFFFFF"/>
				<stop  offset="0.1392" style="stop-color:#FBFEFE"/>
				<stop  offset="0.2728" style="stop-color:#F0FBFB"/>
				<stop  offset="0.4042" style="stop-color:#DCF5F5"/>
				<stop  offset="0.5343" style="stop-color:#C1EDED"/>
				<stop  offset="0.6635" style="stop-color:#9EE3E3"/>
				<stop  offset="0.792" style="stop-color:#73D7D7"/>
				<stop  offset="0.9175" style="stop-color:#41C9C9"/>
				<stop  offset="1" style="stop-color:#1CBEBE"/>
			</linearGradient>
			<path class="st2" d="M-105.5,399.1c0,2.1,0,4.1,0,6.2c-15.1,0-30.2,0-45.4,0c0-2,0-4,0-6.2C-135.9,399.1-120.8,399.1-105.5,399.1
				z"/>
			<path class="st3" d="M-105.6,412.2c0,10.8,0,21.4,0,32.3c-2.1,0-4.1,0-6.4,0c0-1.9,0-3.8,0-5.7c0-4.5-2.6-7.1-7.1-7.1
				c-1.9,0-3.8,0-5.9,0c0-2,0-3.8,0-5.7c0-4.9-2.5-7.4-7.4-7.4c-1.8,0-3.6,0-5.3,0c-4.2,0.1-6.8,2.7-6.8,7c0,5.6,0,11.2,0,16.8
				c0,0.7,0,1.4,0,2.1c-2.3,0-4.3,0-6.4,0c0-10.9,0-21.5,0-32.3C-135.9,412.2-120.8,412.2-105.6,412.2z"/>
			<path class="st4" d="M-118.6,438.3c0,2.1,0,4.1,0,6.2c-2.1,0-4.1,0-6.3,0c0-2.1,0-4.1,0-6.2
				C-122.8,438.3-120.8,438.3-118.6,438.3z"/>
			<path class="st0" d="M-124.6,379.5c1.7,0.1,2.9,1.6,2.8,3.3c0,1.8-1.3,3-3.2,3.1c-0.8,0-1.6,0-2.4,0c-0.3,0-0.7,0-1,0
				s-0.6,0-0.9,0c-0.4,0-0.7,0-1.1,0c-0.4,0-0.8,0-1.2,0c-1.8-0.1-3-1.3-3.1-3c-0.1-1.7,1.1-3.3,2.9-3.4
				C-129.5,379.4-127,379.4-124.6,379.5z"/>
			<path class="st3" d="M-121.9,529.4c0,3.1,0,6.2,0,9.4c-2.2,0-4.4,0-6.2,0c-1.6-3.3-3-6.3-4.5-9.4
				C-129.2,529.4-125.6,529.4-121.9,529.4z"/>
			<path class="st3" d="M-131.7,484.9c2.9,3.2,3.8,6.5,3.2,11.7c-0.8,0-1.7,0-2.5,0c-4.3,0-8.6,0-12.9,0c-2.7,0-3.8-1.1-3.9-3.8
				c0-3.9,0-7.7,0-11.6c0-0.2,0.1-0.4,0.1-0.4c3.5,0,6.9,0,10.3,0c0.1,0.2,0.1,0.4,0.2,0.6c-0.9,1-1.9,1.9-2.8,2.9
				c-1.6,1.7-1.8,3.7-0.3,5c1.4,1.3,3.3,1.2,4.9-0.4C-134.2,487.6-133,486.3-131.7,484.9z"/>
			
				<linearGradient id="SVGID_3_" gradientUnits="userSpaceOnUse" x1="-167.1142" y1="-301.6664" x2="-128.4142" y2="-301.6664" gradientTransform="matrix(1 0 0 -1 0 199.8898)">
				<stop  offset="0" style="stop-color:#FFFFFF"/>
				<stop  offset="0.1392" style="stop-color:#FBFEFE"/>
				<stop  offset="0.2728" style="stop-color:#F0FBFB"/>
				<stop  offset="0.4042" style="stop-color:#DCF5F5"/>
				<stop  offset="0.5343" style="stop-color:#C1EDED"/>
				<stop  offset="0.6635" style="stop-color:#9EE3E3"/>
				<stop  offset="0.792" style="stop-color:#73D7D7"/>
				<stop  offset="0.9175" style="stop-color:#41C9C9"/>
				<stop  offset="1" style="stop-color:#1CBEBE"/>
			</linearGradient>
			<path class="st5" d="M-128.4,503.2c0,6.5,0,12.9,0,19.4c-12.8,0-25.7,0-38.7,0c0-14,0-27.9,0-42.1c4.3,0,8.4,0,12.9,0
				c0,2,0,4,0,5.9c0,2.2,0,4.4,0,6.7c0.1,5.9,4,9.9,9.9,10c4.6,0.1,9.2,0,13.7,0C-130,503.2-129.3,503.2-128.4,503.2z M-137.9,516.2
				c1.9-0.2,3.1-1.5,3.1-3.3c0-1.7-1.2-3-3-3.1c-2.3-0.1-4.7-0.1-7,0c-1.8,0.1-2.9,1.5-2.9,3.1c0,1.7,1.1,3,2.9,3.2
				c1.2,0.1,2.4,0,3.6,0l0,0C-140.1,516.2-139,516.3-137.9,516.2z"/>
			<path class="st4" d="M-131.7,425.2c0,2.1,0,4.1,0,6.3c-2.1,0-4.1,0-6.2,0c0-2.1,0-4.1,0-6.3
				C-135.8,425.2-133.8,425.2-131.7,425.2z"/>
			<path class="st4" d="M-131.7,438.2c0,2,0,4.1,0,6.3c-2.1,0-4.1,0-6.2,0c0-2.1,0-4.1,0-6.3C-135.9,438.2-133.9,438.2-131.7,438.2z
				"/>
			<path class="st4" d="M-134.8,542.2c0,7.2-5.8,13.1-13.1,13.1c-7.1,0-12.9-5.8-12.9-13s5.7-13,12.9-13
				C-140.6,529.3-134.8,535-134.8,542.2z M-141.3,542.4c0.1-1.6-1-3.1-2.6-3.2c-2.5-0.2-5.1-0.2-7.6,0c-1.8,0.1-2.8,1.6-2.7,3.3
				s1.3,2.9,3.1,3c1.1,0.1,2.3,0,3.4,0c1.1,0,2.3,0.1,3.4,0C-142.6,545.3-141.4,544-141.3,542.4z"/>
			<path class="st0" d="M-134.8,512.9c0,1.7-1.2,3.1-3.1,3.3c-1.1,0.1-2.3,0-3.4,0l0,0c-1.2,0-2.4,0.1-3.6,0
				c-1.8-0.2-2.9-1.5-2.9-3.2s1.1-3,2.9-3.1c2.3-0.1,4.7-0.1,7,0C-136,509.9-134.8,511.2-134.8,512.9z"/>
			<path class="st0" d="M-144,539.1c1.6,0.1,2.7,1.7,2.6,3.2c-0.1,1.7-1.3,3-3,3.1c-1.1,0.1-2.3,0-3.4,0c-1.1,0-2.3,0.1-3.4,0
				c-1.8-0.1-3-1.3-3.1-3c-0.1-1.7,1-3.2,2.7-3.3C-149,538.9-146.5,538.9-144,539.1z"/>
			<path class="st3" d="M-200.9,529.4c12.6,0,25.3,0,37.7,0c-1.2,2.9-2.4,5.9-3.7,8.8c-0.2,0.4-0.7,0.7-1.1,0.7
				c-9.6,0-19.2,0-28.4,0C-198,535.5-199.5,532.5-200.9,529.4z"/>
			
				<linearGradient id="SVGID_4_" gradientUnits="userSpaceOnUse" x1="-238.8507" y1="-296.8664" x2="-173.7507" y2="-296.8664" gradientTransform="matrix(1 0 0 -1 0 199.8898)">
				<stop  offset="0" style="stop-color:#FFFFFF"/>
				<stop  offset="0.1392" style="stop-color:#FBFEFE"/>
				<stop  offset="0.2728" style="stop-color:#F0FBFB"/>
				<stop  offset="0.4042" style="stop-color:#DCF5F5"/>
				<stop  offset="0.5343" style="stop-color:#C1EDED"/>
				<stop  offset="0.6635" style="stop-color:#9EE3E3"/>
				<stop  offset="0.792" style="stop-color:#73D7D7"/>
				<stop  offset="0.9175" style="stop-color:#41C9C9"/>
				<stop  offset="1" style="stop-color:#1CBEBE"/>
			</linearGradient>
			<path class="st6" d="M-173.8,520.8c0,1.6-0.5,2-2,2c-20.4-0.1-40.8,0-61.2,0c-0.6,0-1.1-0.1-1.9-0.1c0-2.6,0-4.9,0-7.3
				c0-13.4,0-26.8,0-40.2c0-3.5,1-4.5,4.5-4.5c18.7,0,37.4,0,56.1,0c3.5,0,4.5,1,4.5,4.6C-173.8,490.4-173.9,505.6-173.8,520.8z
				 M-183.6,496.7c0-2-1.5-3.3-4-3.3c-5.6,0-11.3,0-16.9,0c-5.8,0-11.7,0-17.5,0c-2.4,0-3.9,1.3-3.8,3.3c0,1.9,1.5,3.2,3.9,3.2
				c11.5,0,23,0,34.5,0C-185.2,500-183.7,498.7-183.6,496.7z M-183.6,480.5c0.1-2-1.5-3.3-4-3.3c-11.4,0-22.8,0-34.3,0
				c-2.5,0-4.1,1.3-4,3.3c0,2,1.5,3.2,4.1,3.2c5.6,0,11.3,0,16.9,0c5.8,0,11.5,0,17.3,0C-185.1,483.6-183.7,482.5-183.6,480.5z
				 M-183.7,513c0-1.6-0.8-2.8-2.5-3.2c-0.7-0.2-1.4-0.2-2.1-0.2c-5.5,0-10.9,0-16.4,0c-5.6,0-11.3,0-16.9,0c-2.9,0-4.4,1.2-4.4,3.3
				c0,2.1,1.6,3.2,4.5,3.2c0.1,0,0.1,0,0.2,0c11,0,22,0,32.9,0c0.8,0,1.5,0,2.3-0.2C-184.5,515.7-183.7,514.6-183.7,513z"/>
			<path class="st0" d="M-187.6,493.5c2.5,0,4,1.3,4,3.3c0,1.9-1.5,3.2-3.9,3.2c-11.5,0-23,0-34.5,0c-2.4,0-3.9-1.3-3.9-3.2
				c0-2,1.5-3.2,3.8-3.3c5.8,0,11.7,0,17.5,0C-198.9,493.5-193.3,493.5-187.6,493.5z"/>
			<path class="st0" d="M-187.6,477.1c2.5,0,4,1.3,4,3.3s-1.5,3.1-3.9,3.2c-5.8,0-11.5,0-17.3,0c-5.7,0-11.3,0-16.9,0
				c-2.6,0-4.1-1.2-4.1-3.2s1.5-3.3,4-3.3C-210.5,477.1-199,477.1-187.6,477.1z"/>
			<path class="st0" d="M-186.1,509.9c1.6,0.4,2.5,1.5,2.5,3.2c0,1.5-0.8,2.7-2.4,3c-0.7,0.2-1.5,0.2-2.3,0.2c-11,0-22,0-32.9,0
				c-0.1,0-0.1,0-0.2,0c-2.9,0-4.5-1.1-4.5-3.2c0-2.1,1.5-3.3,4.4-3.3c5.6,0,11.3,0,16.9,0c5.5,0,10.9,0,16.4,0
				C-187.5,509.7-186.8,509.7-186.1,509.9z"/>
			
				<linearGradient id="SVGID_5_" gradientUnits="userSpaceOnUse" x1="-274.7565" y1="-208.9599" x2="-203.0372" y2="-208.9599" gradientTransform="matrix(1 0 0 -1 0 199.8898)">
				<stop  offset="0" style="stop-color:#FFFFFF"/>
				<stop  offset="0.1392" style="stop-color:#FBFEFE"/>
				<stop  offset="0.2728" style="stop-color:#F0FBFB"/>
				<stop  offset="0.4042" style="stop-color:#DCF5F5"/>
				<stop  offset="0.5343" style="stop-color:#C1EDED"/>
				<stop  offset="0.6635" style="stop-color:#9EE3E3"/>
				<stop  offset="0.792" style="stop-color:#73D7D7"/>
				<stop  offset="0.9175" style="stop-color:#41C9C9"/>
				<stop  offset="1" style="stop-color:#1CBEBE"/>
			</linearGradient>
			<path class="st7" d="M-206.1,389c2.2,1.1,3,2.5,3,4.9c-0.1,16.1,0,32.3,0,48.4c0,0.7,0,1.4,0,2.3c-2.3,0-4.2,0-6.5,0
				c0-0.8,0-1.5,0-2.2c0-14,0-28,0-42c0-5.4-2.5-7.9-7.9-7.9c-14.3,0-28.6,0-42.9,0c-5.4,0-7.8,2.5-7.8,7.8c0,14,0,28,0,41.9
				c0,0.7,0,1.5,0,2.3c-2.2,0-4.2,0-6.4,0c0-0.7-0.1-1.3-0.1-1.9c0-16.3,0-32.7,0-49c0-2.3,0.9-3.6,2.9-4.6
				c10.1-5,20.2-10,30.3-15.2c1.9-1,3.5-0.9,5.4,0C-226.2,379-216.2,384-206.1,389z M-232.5,382.8c0-1.7-1.2-3.2-3-3.3
				c-2.3-0.1-4.7-0.1-7,0c-1.8,0.1-3,1.7-2.9,3.4c0.1,1.7,1.3,2.9,3.1,3c0.8,0,1.5,0,2.3,0c0.3,0,0.6,0,0.9,0s0.7,0,1,0
				c0.8,0,1.6,0,2.4,0C-233.8,385.8-232.5,384.6-232.5,382.8z"/>
			<path class="st4" d="M-216.1,529.3c7.2,0,13,5.9,13,13c0,7.2-6,13.1-13.2,13c-7.1-0.1-12.9-5.9-12.9-13.1
				C-229.1,535-223.3,529.2-216.1,529.3z M-209.7,542.5c0.2-1.5-0.8-3.2-2.5-3.3c-2.6-0.2-5.3-0.2-8,0c-1.7,0.1-2.7,1.8-2.5,3.5
				c0.2,1.8,1.3,2.7,3,2.8c1.1,0.1,2.3,0,3.4,0l0,0c1.1,0,2.3,0.1,3.4,0C-210.9,545.3-209.9,544.2-209.7,542.5z"/>
			<path class="st0" d="M-212.2,539.2c1.6,0.1,2.7,1.8,2.5,3.3c-0.2,1.7-1.2,2.8-3,2.9c-1.1,0.1-2.3,0-3.4,0l0,0
				c-1.1,0-2.3,0.1-3.4,0c-1.8-0.1-2.8-1-3-2.8c-0.2-1.7,0.8-3.3,2.5-3.5C-217.5,539-214.8,539-212.2,539.2z"/>
			
				<linearGradient id="SVGID_6_" gradientUnits="userSpaceOnUse" x1="-261.6507" y1="-202.3164" x2="-216.2507" y2="-202.3164" gradientTransform="matrix(1 0 0 -1 0 199.8898)">
				<stop  offset="0" style="stop-color:#FFFFFF"/>
				<stop  offset="0.1392" style="stop-color:#FBFEFE"/>
				<stop  offset="0.2728" style="stop-color:#F0FBFB"/>
				<stop  offset="0.4042" style="stop-color:#DCF5F5"/>
				<stop  offset="0.5343" style="stop-color:#C1EDED"/>
				<stop  offset="0.6635" style="stop-color:#9EE3E3"/>
				<stop  offset="0.792" style="stop-color:#73D7D7"/>
				<stop  offset="0.9175" style="stop-color:#41C9C9"/>
				<stop  offset="1" style="stop-color:#1CBEBE"/>
			</linearGradient>
			<path class="st8" d="M-216.3,399.1c0,2.1,0,4.1,0,6.2c-15.1,0-30.2,0-45.4,0c0-2.1,0-4.1,0-6.2
				C-246.5,399.1-231.5,399.1-216.3,399.1z"/>
			<path class="st3" d="M-216.3,412.2c0,10.7,0,21.5,0,32.3c-2.1,0-4.1,0-6.3,0c0-1.9,0-3.7,0-5.5c0-4.9-2.5-7.4-7.4-7.4
				c-1.8,0-3.5,0-5.6,0c0-1.9,0-3.8,0-5.6c0-5-2.5-7.4-7.5-7.5c-1.7,0-3.4,0-5.1,0c-4.3,0.1-6.8,2.7-6.9,7c0,5.6,0,11.2,0,16.8
				c0,0.7,0,1.4,0,2.2c-2.3,0-4.2,0-6.3,0c0-10.8,0-21.5,0-32.4C-246.6,412.2-231.5,412.2-216.3,412.2z"/>
			<path class="st4" d="M-229.3,438.2c0,2.1,0,4.1,0,6.3c-2.1,0-4.1,0-6.2,0c0-2.1,0-4.1,0-6.3
				C-233.5,438.2-231.5,438.2-229.3,438.2z"/>
			<path class="st3" d="M-245.4,529.4c4.8,0,9.5,0,13.8,0c-1.2,2.9-2.4,5.9-3.7,8.9c-0.1,0.3-0.6,0.6-1,0.6c-3,0.1-5.9,0-9.1,0
				C-245.4,535.6-245.4,532.6-245.4,529.4z"/>
			<path class="st0" d="M-235.5,379.5c1.8,0.1,3.1,1.6,3,3.3c0,1.7-1.3,3-3.2,3.1c-0.8,0-1.6,0-2.4,0c-0.3,0-0.7,0-1,0
				c-0.3,0-0.6,0-0.9,0c-0.8,0-1.5,0-2.3,0c-1.8-0.1-3-1.3-3.1-3c-0.1-1.7,1.1-3.3,2.9-3.4C-240.2,379.4-237.8,379.4-235.5,379.5z"
				/>
			<path class="st4" d="M-242.3,425.2c0,2.2,0,4.2,0,6.3c-2.1,0-4.1,0-6.2,0c0-2.1,0-4.1,0-6.3
				C-246.5,425.2-244.5,425.2-242.3,425.2z"/>
			<path class="st4" d="M-242.4,438.3c0,2.1,0,4.1,0,6.2c-2.1,0-4.1,0-6.3,0c0-2.1,0-4.1,0-6.2
				C-246.6,438.3-244.5,438.3-242.4,438.3z"/>
		</g>
	</g>
</g>
<g>
	<g id="XMLID_3_">
		<g>
			<path class="st3" d="M175.3,172.5c11.5,0,18.5,7.7,17.5,19.4c-55.3,0-110.6,0-166,0c-0.8-10.3,4.6-17.7,13.9-19.2
				c1.2-0.2,2.4-0.2,3.7-0.2C88,172.5,131.6,172.5,175.3,172.5z"/>
			<linearGradient id="SVGID_7_" gradientUnits="userSpaceOnUse" x1="148.3869" y1="113.9967" x2="183.1996" y2="113.9967">
				<stop  offset="0" style="stop-color:#FFFFFF"/>
				<stop  offset="0.1392" style="stop-color:#FBFEFE"/>
				<stop  offset="0.2728" style="stop-color:#F0FBFB"/>
				<stop  offset="0.4042" style="stop-color:#DCF5F5"/>
				<stop  offset="0.5343" style="stop-color:#C1EDED"/>
				<stop  offset="0.6635" style="stop-color:#9EE3E3"/>
				<stop  offset="0.792" style="stop-color:#73D7D7"/>
				<stop  offset="0.9175" style="stop-color:#41C9C9"/>
				<stop  offset="1" style="stop-color:#1CBEBE"/>
			</linearGradient>
			<path class="st9" d="M148.4,61.7c7,0.3,13.1,2.2,18.6,5.9c10.3,7,15.9,16.8,16.1,29.3c0.2,22.9,0.1,45.8,0.1,68.7
				c0,0.3,0,0.7,0,0.7c-6.5,0-12.9,0-19.5,0c0-1.2,0-2,0-2.8c0-21.3,0-42.6,0-64c0-10.4-4.4-15.9-14.6-18.2c-0.1,0-0.2-0.1-0.6-0.3
				C151.2,74.8,151.3,68.4,148.4,61.7z"/>
			<path class="st3" d="M127.6,81.2c5.3,0.1,9.8-4.2,9.9-9.5c0.1-5.4-4.2-10-9.6-10c-5.3-0.1-9.8,4.2-9.9,9.5
				C117.8,76.5,122.2,81.1,127.6,81.2z M127.7,87.7c-9,0-16.3-7.4-16.3-16.4c0-9,7.4-16.3,16.4-16.2c8.9,0,16.2,7.4,16.2,16.3
				C144,80.4,136.7,87.7,127.7,87.7z"/>
			<linearGradient id="SVGID_8_" gradientUnits="userSpaceOnUse" x1="124.4795" y1="71.4097" x2="130.9801" y2="71.4097">
				<stop  offset="0" style="stop-color:#FFFFFF"/>
				<stop  offset="0.1392" style="stop-color:#FBFEFE"/>
				<stop  offset="0.2728" style="stop-color:#F0FBFB"/>
				<stop  offset="0.4042" style="stop-color:#DCF5F5"/>
				<stop  offset="0.5343" style="stop-color:#C1EDED"/>
				<stop  offset="0.6635" style="stop-color:#9EE3E3"/>
				<stop  offset="0.792" style="stop-color:#73D7D7"/>
				<stop  offset="0.9175" style="stop-color:#41C9C9"/>
				<stop  offset="1" style="stop-color:#1CBEBE"/>
			</linearGradient>
			<path class="st10" d="M127.6,74.7c-1.7-0.1-3.2-1.5-3.2-3.3c0-1.8,1.5-3.2,3.2-3.2c1.8,0,3.3,1.6,3.3,3.4
				C130.9,73.3,129.4,74.7,127.6,74.7z"/>
			<path class="st0" d="M127.6,74.7c1.7,0.1,3.3-1.4,3.3-3.1c0.1-1.8-1.4-3.4-3.3-3.4c-1.7,0-3.2,1.5-3.2,3.2
				C124.5,73.1,125.9,74.6,127.6,74.7z M127.6,81.2c-5.4-0.1-9.7-4.6-9.6-10.1c0.1-5.3,4.6-9.6,9.9-9.5c5.4,0.1,9.7,4.6,9.6,10
				C137.4,77,132.9,81.3,127.6,81.2z"/>
			<path class="st3" d="M132.1,15.2c-2.9,3.6-6.3,4.8-10.4,4c-2.4-0.5-4.7-1.3-7-1.9c-3.5-1-6.9-5.1-6.4-8.4
				C116.2,10.9,124,13,132.1,15.2z"/>
			<linearGradient id="SVGID_9_" gradientUnits="userSpaceOnUse" x1="108.6974" y1="27.6824" x2="122.934" y2="27.6824">
				<stop  offset="0" style="stop-color:#FFFFFF"/>
				<stop  offset="0.1392" style="stop-color:#FBFEFE"/>
				<stop  offset="0.2728" style="stop-color:#F0FBFB"/>
				<stop  offset="0.4042" style="stop-color:#DCF5F5"/>
				<stop  offset="0.5343" style="stop-color:#C1EDED"/>
				<stop  offset="0.6635" style="stop-color:#9EE3E3"/>
				<stop  offset="0.792" style="stop-color:#73D7D7"/>
				<stop  offset="0.9175" style="stop-color:#41C9C9"/>
				<stop  offset="1" style="stop-color:#1CBEBE"/>
			</linearGradient>
			<path class="st11" d="M110.4,22.8c4.2,1.1,8.2,2.2,12.5,3.3c-0.5,2-1,4-1.7,6.3c-4.2-1.1-8.3-2.2-12.6-3.3
				C109.3,27,109.8,25,110.4,22.8z"/>
			<linearGradient id="SVGID_10_" gradientUnits="userSpaceOnUse" x1="79.187" y1="65.4805" x2="132.1268" y2="65.4805">
				<stop  offset="0" style="stop-color:#FFFFFF"/>
				<stop  offset="0.1392" style="stop-color:#FBFEFE"/>
				<stop  offset="0.2728" style="stop-color:#F0FBFB"/>
				<stop  offset="0.4042" style="stop-color:#DCF5F5"/>
				<stop  offset="0.5343" style="stop-color:#C1EDED"/>
				<stop  offset="0.6635" style="stop-color:#9EE3E3"/>
				<stop  offset="0.792" style="stop-color:#73D7D7"/>
				<stop  offset="0.9175" style="stop-color:#41C9C9"/>
				<stop  offset="1" style="stop-color:#1CBEBE"/>
			</linearGradient>
			<path class="st12" d="M105.5,66.6c-2.3,10.3,2.1,19,13.2,26c-0.5,2-1.1,4.1-1.7,6.3c-12.6-3.4-25.1-6.7-37.8-10.1
				c5.1-18.9,10.1-37.7,15.2-56.7c12.6,3.4,25.1,6.7,37.7,10.1c-0.6,2.2-1.1,4.3-1.7,6.5c-7-0.5-13.1,1.3-18.2,6.1
				C108.7,58,106.5,61.9,105.5,66.6z"/>
			<path class="st3" d="M117.8,146.5c0,2,0,4.1,0,6.3c-17.2,0-34.5,0-51.9,0c0-2.2,0-4.2,0-6.3C83.2,146.5,100.4,146.5,117.8,146.5z
				"/>
			<path class="st3" d="M104.2,109c-6.4-1.7-12.5-3.4-18.9-5.1c0.5-2.1,1-4,1.6-6.3c6.3,1.7,12.5,3.3,18.9,5
				C105.3,104.8,104.7,106.8,104.2,109z"/>
			<path class="st3" d="M89.9,111.9c2.1,0.5,4,1.1,6.2,1.6c-0.5,2.1-1.1,4.1-1.6,6.3c-2.1-0.6-4.1-1.1-6.3-1.7
				C88.8,116,89.3,114.1,89.9,111.9z"/>
			<path class="st4" d="M46.2,42c0,3.5-2.9,6.5-6.4,6.5c-3.5,0.1-6.5-2.9-6.6-6.4c-0.1-3.7,2.9-6.7,6.5-6.6
				C43.3,35.6,46.2,38.5,46.2,42z"/>
			<path class="st0" d="M39.6,74.7c18,0,32.6-14.6,32.7-32.4c0-18.2-14.5-32.7-32.7-32.8C21.7,9.5,7.1,24.2,7.1,42.3
				C7.2,60,21.9,74.7,39.6,74.7z M78.7,38.8C80.6,58.1,66.1,79.3,43,81.2c0,8.5,0,16.8,0,25.2c0,5.4,0,10.9,0,16.3
				c0,3,1.1,4.1,4.2,4.1c7.9,0,15.8,0,23.6,0c0.5,0,1.1,0,1.6,0c1.8,0.2,3.1,1.5,3.1,3.2c0,1.8-1.3,3.3-3.2,3.3
				c-9,0-18.1,0.2-27.1-0.1c-5.1-0.1-8.8-4.6-8.8-9.9c0-13.3,0-26.5,0-39.7c0-0.7,0-1.5,0-2.4c-14.3-1.8-25.1-8.8-31.7-21.6
				c-4.3-8.3-5.3-17.2-3.1-26.3C6.1,14.3,23.2,1.7,42.6,3C61.6,4.2,76.7,19.2,78.7,38.8z"/>
			<path class="st0" d="M163.6,163.5c0,0.8,0,1.6,0,2.8c6.7,0,13,0,19.5,0c0-0.1,0-0.4,0-0.7c0-22.9,0.2-45.8-0.1-68.7
				c-0.1-12.5-5.8-22.3-16.1-29.3c-5.5-3.8-11.7-5.6-18.6-5.9c2.9,6.7,2.8,13.1,0.1,19.4c0.3,0.2,0.4,0.2,0.6,0.3
				c10.2,2.3,14.6,7.8,14.6,18.2C163.6,120.9,163.6,142.2,163.6,163.5z M112.2,54.7c5.1-4.7,11.3-6.5,18.2-6.1
				c0.6-2.2,1.1-4.3,1.7-6.5c-12.7-3.4-25.1-6.8-37.7-10.1c-5.1,19-10.1,37.8-15.2,56.7c12.7,3.4,25.2,6.7,37.8,10.1
				c0.6-2.2,1.2-4.3,1.7-6.3c-11.2-7-15.5-15.7-13.2-26C106.5,61.9,108.7,58,112.2,54.7z M127.7,87.7c9,0,16.3-7.3,16.3-16.3
				c0-8.9-7.3-16.2-16.2-16.3c-9,0-16.4,7.2-16.4,16.2C111.4,80.3,118.7,87.7,127.7,87.7z M121.8,19.2c4.1,0.8,7.4-0.4,10.4-4
				c-8.1-2.2-15.9-4.3-23.8-6.3c-0.5,3.2,2.8,7.4,6.4,8.4C117.1,17.9,119.4,18.7,121.8,19.2z M94.5,119.9c0.6-2.2,1.1-4.2,1.6-6.3
				c-2.2-0.6-4.1-1.1-6.2-1.6c-0.6,2.1-1.1,4.1-1.7,6.3C90.4,118.8,92.4,119.3,94.5,119.9z M104.2,109c0.6-2.2,1.1-4.2,1.7-6.3
				c-6.4-1.7-12.6-3.3-18.9-5c-0.6,2.3-1.1,4.2-1.6,6.3C91.6,105.6,97.7,107.2,104.2,109z M40.7,172.7c-9.3,1.5-14.7,8.9-13.9,19.2
				c55.4,0,110.7,0,166,0c1-11.7-6-19.4-17.5-19.4c-43.7,0-87.3,0-131,0C43.1,172.5,41.9,172.5,40.7,172.7z M199.4,188.3
				c0.1,2.2,0,4.3,0,6.5c0,2.5-1.3,3.7-3.8,3.7c-0.5,0-0.9,0-1.4,0c-56.3,0-112.6,0-168.9,0c-4.4,0-5.1-0.8-5.2-5.2
				c0-4.6-0.1-9.1,1.8-13.4c3.7-8.7,11.9-14,21.8-14c36.9,0,73.7,0,110.6,0c0.8,0,1.6,0,2.7,0c0-4.4,0-8.6,0-12.9
				c-10.8,0-21.5,0-32.5,0c0,0.8,0,1.5,0,2.2c0,3.1-1.1,4.2-4.1,4.2c-2.2,0-4.5,0-6.7,0c-16.6,0-33.1,0-49.7,0c-3.6,0-4.6-1-4.6-4.5
				c0-3.5,0-6.9,0-10.4c0-3.6,1-4.6,4.5-4.6c18.7,0,37.4,0,56,0c3.6,0,4.6,0.9,4.6,4.5c0,0.6,0,1.2,0,1.9c10.9,0,21.6,0,32.6,0
				c0-0.8,0-1.5,0-2.2c0-15.2-0.1-30.4,0-45.6c0.1-6.2-4.1-11.8-13.1-10.7c-0.4,0-0.8,0.3-1.1,0.5c-5,4.5-10.8,6.3-17.4,5.9
				c-0.1,0-0.3,0.1-0.6,0.2c-0.7,2.7-1.4,5.5-2.2,8.3c-0.9,3.2-2.1,3.9-5.4,3.1c-1.6-0.4-3.2-0.8-4.7-1.2c-0.1,0-0.1,0-0.5,0
				c-0.7,2.5-1.4,5.1-2.1,7.7c-1.1,4-2.1,4.6-6.1,3.5c-0.4-0.1-0.8-0.2-1.4-0.3c-0.7,2.6-1.4,5.2-2.1,7.8c-1,3.8-2.2,4.5-6,3.4
				c-3.4-0.9-6.8-1.8-10.2-2.7c-2.8-0.8-3.6-2.1-2.9-5c0.7-2.8,1.5-5.6,2.3-8.6c-1-0.3-1.9-0.6-2.8-0.9c-2.4-0.8-3.1-2.1-2.5-4.5
				c0.7-2.9,1.5-5.9,2.3-9c-2-0.5-3.8-1-5.6-1.6c-2.7-0.8-3.5-2.1-2.8-4.8c5.5-20.5,11-41,16.5-61.5c0.8-2.8,2.2-3.6,5-2.9
				c2.8,0.7,5.6,1.5,8.6,2.3c0.8-3,1.7-5.9,2.4-8.9c0.1-0.5-0.2-1.1-0.5-1.6c-2.3-3.6-3.1-7.5-2.5-11.7c0.5-3.4,2.1-4.5,5.3-3.6
				c9.8,2.6,19.6,5.2,29.5,7.9c3.2,0.9,4,2.5,2.9,5.6c-1.4,3.9-4.1,6.8-7.7,8.9c-0.9,0.5-1.6,1.5-2,2.5c-0.8,2.4-1.4,4.9-2.1,7.6
				c2.9,0.8,5.6,1.5,8.3,2.2c3.2,0.9,4,2.2,3.1,5.4c-0.7,2.8-1.5,5.6-2.2,8.3c2.2,1.6,4.2,3.2,6.4,4.5c0.9,0.5,2.3,0.5,3.5,0.5
				c13.1,0.1,24.1,4.9,32.7,14.8c7,8,10.3,17.4,10.3,28c0,23.3,0,46.6,0,69.9c0,1.6,0.5,2.6,1.7,3.6
				C196.5,175.8,199.2,181.5,199.4,188.3z M122.9,26.2c-4.4-1.2-8.4-2.2-12.5-3.3c-0.6,2.1-1.1,4.2-1.7,6.4
				c4.3,1.1,8.4,2.2,12.6,3.3C121.9,30.2,122.4,28.2,122.9,26.2z M117.8,152.8c0-2.2,0-4.3,0-6.3c-17.4,0-34.6,0-51.9,0
				c0,2.1,0,4.1,0,6.3C83.3,152.8,100.6,152.8,117.8,152.8z"/>
			<linearGradient id="SVGID_11_" gradientUnits="userSpaceOnUse" x1="7.1092" y1="42.0664" x2="72.3026" y2="42.0664">
				<stop  offset="0" style="stop-color:#FFFFFF"/>
				<stop  offset="0.1392" style="stop-color:#FBFEFE"/>
				<stop  offset="0.2728" style="stop-color:#F0FBFB"/>
				<stop  offset="0.4042" style="stop-color:#DCF5F5"/>
				<stop  offset="0.5343" style="stop-color:#C1EDED"/>
				<stop  offset="0.6635" style="stop-color:#9EE3E3"/>
				<stop  offset="0.792" style="stop-color:#73D7D7"/>
				<stop  offset="0.9175" style="stop-color:#41C9C9"/>
				<stop  offset="1" style="stop-color:#1CBEBE"/>
			</linearGradient>
			<path class="st13" d="M39.6,74.7C21.9,74.7,7.2,60,7.1,42.3c0-18.1,14.5-32.8,32.5-32.8c18.2,0,32.8,14.6,32.7,32.8
				C72.3,60.1,57.6,74.6,39.6,74.7z M31,27.5c0.8-1.6,0.5-3.1-0.9-4.2c-1.5-1.1-3.1-0.8-4.4,0.5c-1.5,1.5-3,2.9-4.4,4.5
				C20.1,29.6,20,31,21,32.4c0.9,1.3,2.3,1.9,3.8,1.1c1.5-0.8,2,0.4,2.8,1c0.9,0.7,0.5,1.4,0.3,2.3c-0.6,2.7-2.6,2-4.4,1.9
				c-0.1-0.3-0.2-0.5-0.3-0.7c-0.7-1.8-1.9-2.7-3.8-2.3c-1.9,0.4-2.7,1.7-2.6,3.6c0,2.1-0.1,4.2,0,6.3c0.1,1.6,1.1,2.9,2.6,2.9
				c1.1,0,2.3-0.9,3.4-1.6c0.4-0.2,0.4-0.9,0.6-1.4c1.9-0.2,4-0.6,4.3,2.1c0.1,0.7,0,1.6-0.4,2c-0.6,0.7-1.1,2-2.6,1.1
				c-1.5-0.8-3-0.3-3.9,1c-1,1.5-0.8,3,0.4,4.3c1.2,1.3,2.5,2.5,3.7,3.8c1.8,1.8,3.3,2.2,4.8,1.2c1.5-1,1.8-2.5,0.8-4.9
				c0-0.1,0-0.3,0-0.2c1.2-1.9,2.4-2.9,4.7-1.5c1.9,1.1,0.5,2.7,1,3.9c-0.6,0.2-1,0.4-1.4,0.6c-1.4,0.7-2.2,2-1.7,3.3
				c0.4,1.1,1.6,2.5,2.6,2.6c2.5,0.4,5,0.4,7.5,0c1-0.2,2.4-1.6,2.6-2.6c0.2-1-0.9-2.3-1.6-3.4c-0.2-0.4-0.9-0.4-1.3-0.6
				c-0.5-2.2-0.4-3.9,2.3-4.5c2.1-0.5,2.2,1.5,3.4,2.2c-1.1,1.9-1.2,3.5,0.4,4.9c1.3,1,2.7,1.1,3.9,0c1.8-1.6,3.6-3.3,5.2-5.2
				c1.1-1.2,1-2.7,0-3.9c-0.9-1.2-2.2-1.6-3.6-1.1c-0.4,0.2-0.9,0.4-1.3,0.5c-3.2-3-2.7-1.7-1-5.7c1.1,0,2.3,0,3.4,0
				c0.5,2,1.6,3.3,3.7,3.1c1.7-0.2,2.8-1.2,2.9-2.9c0.1-2.4,0.1-4.8,0-7.1c-0.1-1.6-1.1-2.6-2.7-2.9c-1.5-0.2-2.7,0.4-3.4,1.7
				c-0.2,0.5-0.4,0.9-0.6,1.4c-1.2,0-2.3,0-3.3,0c-1.7-3.4-1.7-3.4,1-5.7c0.2,0.1,0.4,0.1,0.6,0.2c2,0.8,3.6,0.5,4.5-0.9
				c1-1.6,0.6-3.1-0.7-4.4c-1.4-1.4-2.8-2.8-4.2-4.2c-1.3-1.2-2.8-1.5-4.3-0.4c-1.4,1-1.9,2.4-1.1,3.9c0.8,1.5-0.4,2-1.1,2.6
				c-0.5,0.4-1.4,0.5-2,0.4c-2.7-0.3-2.4-2.4-2.1-4.3c0.1-0.1,0.3-0.2,0.5-0.2c1.9-0.6,2.9-1.8,2.6-3.8c-0.2-1.7-1.6-2.7-3.8-2.7
				c-2,0-3.9-0.1-5.9,0c-2.2,0.1-3.8,1.9-3.2,3.8c0.5,1.2,1.7,2.2,2.6,3.2c0.7,1.8,0.8,3.5-1.8,4.1c-2.2,0.5-2.2-1.5-3.5-2.1
				C30.8,28,30.9,27.7,31,27.5z"/>
			<path class="st0" d="M33.2,42.2c0.1,3.5,3.1,6.4,6.6,6.4c3.6-0.1,6.4-3,6.4-6.5c0-3.5-2.9-6.5-6.5-6.5
				C36.1,35.5,33.1,38.5,33.2,42.2z M25.7,23.8c1.3-1.3,2.9-1.6,4.4-0.5c1.5,1.1,1.7,2.5,0.9,4.2c-0.1,0.2-0.2,0.5-0.4,0.9
				c1.3,0.6,1.3,2.6,3.5,2.1c2.6-0.6,2.5-2.3,1.8-4.1c-0.9-1.1-2.1-2-2.6-3.2c-0.7-1.8,1-3.7,3.2-3.8c2-0.1,3.9,0,5.9,0
				c2.1,0,3.5,1,3.8,2.7c0.3,2-0.7,3.2-2.6,3.8c-0.2,0.1-0.3,0.2-0.5,0.2c-0.2,2-0.6,4,2.1,4.3c0.7,0.1,1.5-0.1,2-0.4
				c0.7-0.6,1.9-1.1,1.1-2.6c-0.8-1.5-0.3-3,1.1-3.9c1.5-1,3-0.8,4.3,0.4c1.4,1.4,2.8,2.8,4.2,4.2c1.3,1.3,1.7,2.8,0.7,4.4
				c-0.9,1.5-2.5,1.7-4.5,0.9c-0.2-0.1-0.4-0.1-0.6-0.2c-2.7,2.3-2.7,2.3-1,5.7c1,0,2.1,0,3.3,0c0.2-0.4,0.4-0.9,0.6-1.4
				c0.7-1.4,1.9-2,3.4-1.7c1.6,0.3,2.6,1.3,2.7,2.9c0.1,2.4,0.1,4.8,0,7.1c-0.1,1.7-1.2,2.8-2.9,2.9c-2.1,0.2-3.2-1.2-3.7-3.1
				c-1.1,0-2.3,0-3.4,0c-1.7,4-2.2,2.7,1,5.7c0.4-0.2,0.8-0.4,1.3-0.5c1.5-0.5,2.7-0.1,3.6,1.1c1,1.3,1,2.7,0,3.9
				c-1.6,1.8-3.4,3.6-5.2,5.2c-1.2,1-2.7,1-3.9,0c-1.7-1.4-1.5-3-0.4-4.9c-1.2-0.7-1.3-2.6-3.4-2.2c-2.7,0.6-2.8,2.3-2.3,4.5
				c0.4,0.2,1.1,0.2,1.3,0.6c0.7,1.1,1.8,2.3,1.6,3.4c-0.2,1-1.6,2.4-2.6,2.6c-2.5,0.4-5,0.4-7.5,0c-1-0.2-2.2-1.5-2.6-2.6
				c-0.5-1.4,0.3-2.6,1.7-3.3c0.4-0.2,0.9-0.4,1.4-0.6c-0.5-1.2,0.9-2.8-1-3.9c-2.2-1.3-3.5-0.3-4.7,1.5c0,0-0.1,0.1,0,0.2
				c1,2.4,0.7,3.9-0.8,4.9c-1.5,1-3,0.6-4.8-1.2c-1.3-1.3-2.5-2.5-3.7-3.8c-1.2-1.3-1.5-2.8-0.4-4.3c1-1.4,2.4-1.9,3.9-1
				c1.5,0.8,2-0.4,2.6-1.1c0.4-0.5,0.5-1.4,0.4-2c-0.4-2.8-2.4-2.3-4.3-2.1c-0.2,0.5-0.3,1.2-0.6,1.4c-1.1,0.7-2.3,1.6-3.4,1.6
				c-1.5,0-2.5-1.3-2.6-2.9c-0.1-2.1,0-4.2,0-6.3c0-1.9,0.8-3.2,2.6-3.6c1.9-0.4,3.1,0.6,3.8,2.3c0.1,0.2,0.2,0.5,0.3,0.7
				c1.8,0.1,3.7,0.8,4.4-1.9c0.2-0.9,0.6-1.6-0.3-2.3c-0.8-0.6-1.3-1.9-2.8-1c-1.4,0.8-2.8,0.2-3.8-1.1c-1-1.4-0.9-2.9,0.3-4.1
				C22.6,26.8,24.2,25.3,25.7,23.8z"/>
		</g>
		<g>
		</g>
	</g>
</g>
<g>
	<path d="M631.5,392c0-59,0-118.1,0-177.1c0-7.4,1.6-9,9-9c81.9,0,163.7,0,245.6,0c7.4,0,9,1.6,9,9c0,118.1,0,236.1,0,354.2
		c0,7.4-1.6,9-9,9c-81.9,0-163.7,0-245.6,0c-7.4,0-9-1.6-9-9C631.5,510,631.5,451,631.5,392z M858.8,541.9c0-88.1,0-175.9,0-263.8
		c-17.9,0-35.6,0-53.6,0c0,2.1,0,4.1,0,6.1c-0.3,9.9-7.9,17.6-17.7,17.7c-16.2,0.1-32.4,0.2-48.7,0c-9.6-0.1-17.2-7.9-17.5-17.5
		c-0.1-2.1,0-4.1,0-6.1c-18.3,0-36,0-53.7,0c0,88,0,175.8,0,263.7C731.4,541.9,795,541.9,858.8,541.9z M721.1,253.9
		c-3.8,0-7.2,0-10.7,0c-4.9-0.1-7-2.2-7.1-7.1c0-7.3,0-14.5,0-21.8c0-2.3,0-4.6,0-6.9c-20.2,0-39.9,0-59.7,0c0,116,0,231.9,0,347.7
		c79.9,0,159.5,0,239.1,0c0-116.1,0-231.9,0-347.7c-20,0-39.6,0-59.6,0c0,9.7,0,19.2,0,28.6c0,4.9-2.2,7.1-7.1,7.2
		c-3.6,0.1-7.1,0-10.6,0c0,4.3,0,8.1,0,12c19.4,0,38.5,0,57.6,0c6.1,0,8,1.9,8,8.1c0,90.7,0,181.3,0,272c0,6.1-1.9,8.1-8.1,8.1
		c-66.5,0-133,0-199.5,0c-6.1,0-8.1-1.9-8.1-8.1c0-90.7,0-181.3,0-272c0-6.2,1.9-8.1,8-8.1c17.8,0,35.7,0,53.5,0c1.3,0,2.7,0,4.2,0
		C721.1,261.8,721.1,258.1,721.1,253.9z M811,241.7c0-8.1,0-15.8,0-23.6c-31.9,0-63.6,0-95.3,0c0,8,0,15.8,0,23.6
		C747.5,241.7,779.1,241.7,811,241.7z M733.5,265.7c19.9,0,39.7,0,59.5,0c0-4,0-7.8,0-11.5c-20,0-39.7,0-59.5,0
		C733.5,258.1,733.5,261.8,733.5,265.7z M733.3,278c0,2.1-0.1,3.9,0,5.6c0.2,3.9,2.4,6.2,6.4,6.2c15.7,0.1,31.4,0,47.1,0
		c3.5,0,5.7-1.8,6.2-5.2c0.3-2.1,0.1-4.4,0.1-6.6C773,278,753.4,278,733.3,278z"/>
	<path d="M919,398.3c-0.8-0.2-1-0.3-1.2-0.3c-9.9,0.7-11.1-2.4-10.8-11.4c0.2-5.9,0-11.8,0.1-17.6c0-4.7,2.2-7,6.8-7
		c27.3,0,54.7,0,82,0c4.8,0,7,2.3,7,7.2c0,7.1,0,14.3,0,21.4c0,5.2-2.1,7.3-7.2,7.4c-1.5,0-2.9,0-4.7,0c0,1.8,0,3.3,0,4.8
		c0,46.1,0,92.3,0,138.4c0,16.8-10.1,30.6-25.5,35.4c-22.6,7-46-9.9-46.3-33.7c-0.3-21.9-0.1-43.8-0.1-65.7c0-24.9,0-49.8,0-74.7
		C919,401.1,919,399.8,919,398.3z M931.4,440c-0.2,0.7-0.3,0.9-0.3,1.1c0,34.1-0.1,68.3,0.1,102.4c0,6.4,2.9,11.9,7.7,16.1
		c7.6,6.7,16.4,8.4,25.7,4.2c9.3-4.1,14.3-11.7,14.3-21.9c0.2-29.3,0.1-58.5,0.1-87.8c0-0.7-0.2-1.4-0.3-2c-0.5-0.1-0.7-0.2-0.9-0.2
		c-1.2,0-2.5-0.1-3.7,0c-9.3,0.6-17.4-1.9-24.3-8.5c-2-1.9-5.2-2.9-8.1-3.3C938.3,439.6,934.8,440,931.4,440z M978.6,439.9
		c0-14.2,0-28,0-41.7c-16,0-31.7,0-47.4,0c0,10.1,0,19.8,0,29.7c1.8,0,3.3,0.1,4.8,0c9.3-0.6,17.3,1.9,24.2,8.5
		c2,1.9,5.2,2.8,8.1,3.3C971.6,440.4,975,439.9,978.6,439.9z M990.7,374.2c-24,0-47.8,0-71.4,0c0,4.1,0,7.8,0,11.6
		c23.9,0,47.6,0,71.4,0C990.7,381.9,990.7,378.2,990.7,374.2z"/>
	<path class="st4" d="M858.8,541.9c-63.8,0-127.4,0-191.2,0c0-87.9,0-175.6,0-263.7c17.7,0,35.4,0,53.7,0c0,2-0.1,4.1,0,6.1
		c0.3,9.6,7.8,17.4,17.5,17.5c16.2,0.2,32.4,0.2,48.7,0c9.8-0.1,17.4-7.8,17.7-17.7c0.1-2,0-3.9,0-6.1c18,0,35.7,0,53.6,0
		C858.8,365.9,858.8,453.7,858.8,541.9z M761.4,318.6c-3-3.2-5.6-5.9-8.6-9c-4.5,4.9-8.9,9.7-13.3,14.4c-0.1-0.5-0.2-1.1-0.2-1.6
		c-2.5-0.8-5.1-2.3-7.6-2.3c-15-0.2-29.9-0.1-44.9-0.1c-5.2,0-7.3,2.1-7.3,7.2c0,15.1,0,30.2,0,45.4c0,5.3,2.1,7.4,7.6,7.4
		c15,0,29.9,0,44.9,0c5.3,0,7.4-2.1,7.4-7.5c0-9.6-0.1-19.2,0.1-28.9c0-1.7,0.9-3.9,2.1-5.1C748,331.7,754.7,325.2,761.4,318.6z
		 M739.3,396.3c-2.2-3.7-4.8-4.4-8-4.4c-14.8,0.1-29.7,0-44.5,0.1c-5.2,0-7.3,2.1-7.4,7.2c0,15.2,0,30.5,0,45.7c0,4.9,2.2,7,7.2,7
		c15.2,0,30.4,0,45.6,0c4.9,0,7-2.2,7.1-7.1c0.1-4.6,0-9.2,0-13.9c0-6.1-1.6-12.9,0.6-18.2c2.2-5.2,8.1-9,12.4-13.3
		c3.1-3.1,6.2-6,9.2-8.9c-3.1-3.2-5.7-5.9-8.7-9C748.3,386.5,743.9,391.2,739.3,396.3z M740.3,466.9c-3.3-1.2-5.7-2.8-8.1-2.8
		c-15.2-0.2-30.4-0.1-45.6-0.1c-4.9,0-7.1,2.2-7.1,7.1c0,15.2,0,30.5,0,45.7c0,4.9,2.2,7.2,7,7.2c15.2,0,30.4,0,45.6,0
		c5.1,0,7.2-2.2,7.2-7.4c0-9.2,0.1-18.5-0.1-27.7c-0.1-3.1,0.8-5.3,3.1-7.5c6.5-6.2,12.7-12.6,18.6-18.5c-2.8-3.2-5.4-6-8.1-9.1
		C748.2,458.6,743.9,463.2,740.3,466.9z M846.9,362.2c-28,0-55.8,0-83.4,0c0,4.1,0,7.9,0,11.5c27.9,0,55.6,0,83.4,0
		C846.9,369.9,846.9,366.2,846.9,362.2z M763.5,434.2c0,4,0,7.8,0,11.6c27.9,0,55.7,0,83.3,0c0-4,0-7.8,0-11.6
		C818.9,434.2,791.3,434.2,763.5,434.2z M847,506.2c-28.1,0-55.8,0-83.5,0c0,4,0,7.8,0,11.5c28,0,55.7,0,83.5,0
		C847,513.8,847,510.2,847,506.2z M829.1,338.1c-18.1,0-35.8,0-53.6,0c0,4,0,7.8,0,11.5c18,0,35.7,0,53.6,0
		C829.1,345.8,829.1,342.1,829.1,338.1z M829,410.2c-18,0-35.8,0-53.4,0c0,4.1,0,7.8,0,11.6c18,0,35.6,0,53.4,0
		C829,417.9,829,414.2,829,410.2z M829,482.3c-18.1,0-35.8,0-53.4,0c0,4.1,0,7.9,0,11.5c18,0,35.6,0,53.4,0
		C829,489.9,829,486.2,829,482.3z M847,338.2c-4.2,0-8,0-11.6,0c0,4,0,7.7,0,11.5c4,0,7.7,0,11.6,0C847,345.8,847,342.1,847,338.2z
		 M846.9,410.2c-4.1,0-7.8,0-11.6,0c0,4,0,7.8,0,11.5c4,0,7.8,0,11.6,0C846.9,417.7,846.9,414.1,846.9,410.2z M835.4,482.1
		c0,4.1,0,7.9,0,11.7c4,0,7.7,0,11.5,0c0-4,0-7.7,0-11.7C843,482.1,839.3,482.1,835.4,482.1z"/>
	<path class="st4" d="M721.1,253.9c0,4.2,0,7.9,0,12c-1.5,0-2.8,0-4.2,0c-17.8,0-35.7,0-53.5,0c-6.1,0-8,1.9-8,8.1
		c0,90.7,0,181.3,0,272c0,6.1,1.9,8.1,8.1,8.1c66.5,0,133,0,199.5,0c6.1,0,8.1-1.9,8.1-8.1c0-90.7,0-181.3,0-272
		c0-6.2-1.9-8.1-8-8.1c-19.1,0-38.2,0-57.6,0c0-3.9,0-7.7,0-12c3.5,0,7,0,10.6,0c4.9-0.1,7-2.2,7.1-7.2c0-9.5,0-18.9,0-28.6
		c20,0,39.6,0,59.6,0c0,115.8,0,231.6,0,347.7c-79.6,0-159.2,0-239.1,0c0-115.8,0-231.7,0-347.7c19.8,0,39.4,0,59.7,0
		c0,2.3,0,4.6,0,6.9c0,7.3,0,14.5,0,21.8c0,4.9,2.2,7.1,7.1,7.1C713.9,253.9,717.4,253.9,721.1,253.9z"/>
	<path class="st4" d="M811,241.7c-31.8,0-63.4,0-95.3,0c0-7.8,0-15.6,0-23.6c31.7,0,63.4,0,95.3,0C811,225.9,811,233.6,811,241.7z"
		/>
	<path class="st4" d="M733.5,265.7c0-3.8,0-7.5,0-11.5c19.7,0,39.5,0,59.5,0c0,3.7,0,7.5,0,11.5
		C773.2,265.7,753.4,265.7,733.5,265.7z"/>
	<path class="st4" d="M733.3,278c20.1,0,39.7,0,59.8,0c0,2.3,0.3,4.5-0.1,6.6c-0.5,3.4-2.8,5.2-6.2,5.2c-15.7,0-31.4,0.1-47.1,0
		c-4,0-6.2-2.3-6.4-6.2C733.2,281.9,733.3,280.2,733.3,278z"/>
	<path class="st4" d="M931.4,440c3.5,0,6.9-0.4,10.2,0.1c2.8,0.5,6.1,1.5,8.1,3.3c6.9,6.6,15,9.1,24.3,8.5c1.2-0.1,2.5,0,3.7,0
		c0.2,0,0.5,0.1,0.9,0.2c0.1,0.6,0.3,1.3,0.3,2c0,29.3,0.1,58.5-0.1,87.8c-0.1,10.2-5,17.7-14.3,21.9c-9.3,4.1-18.1,2.5-25.7-4.2
		c-4.8-4.2-7.7-9.8-7.7-16.1c-0.2-34.1-0.1-68.3-0.1-102.4C931,440.9,931.2,440.7,931.4,440z M954.6,475.9c0-3.9,0-7.8,0-11.7
		c-3.9,0-7.7,0-11.4,0c0,4,0,7.8,0,11.7C947.1,475.9,950.7,475.9,954.6,475.9z M955.2,488.1c0,4.1,0,7.9,0,11.7c4,0,7.8,0,11.4,0
		c0-4.1,0-7.8,0-11.7C962.7,488.1,959.1,488.1,955.2,488.1z M943.2,524.2c0,4.1,0,7.9,0,11.5c4.1,0,7.8,0,11.5,0c0-4,0-7.7,0-11.5
		C950.8,524.2,947.1,524.2,943.2,524.2z"/>
	<path class="st4" d="M978.6,439.9c-3.6,0-7,0.4-10.3-0.1c-2.8-0.5-6.1-1.4-8.1-3.3c-6.9-6.6-14.9-9.1-24.2-8.5c-1.5,0.1-3,0-4.8,0
		c0-9.9,0-19.7,0-29.7c15.6,0,31.4,0,47.4,0C978.6,411.9,978.6,425.7,978.6,439.9z"/>
	<path class="st4" d="M990.7,374.2c0,4,0,7.7,0,11.6c-23.8,0-47.5,0-71.4,0c0-3.7,0-7.5,0-11.6C942.9,374.2,966.7,374.2,990.7,374.2
		z"/>
	<path d="M761.4,318.6c-6.7,6.6-13.4,13.1-19.9,19.8c-1.2,1.3-2.1,3.4-2.1,5.1c-0.2,9.6-0.1,19.2-0.1,28.9c0,5.4-2.1,7.5-7.4,7.5
		c-15,0-29.9,0-44.9,0c-5.4,0-7.6-2.1-7.6-7.4c0-15.1,0-30.2,0-45.4c0-5.1,2.2-7.2,7.3-7.2c15,0,29.9-0.1,44.9,0.1
		c2.6,0,5.1,1.5,7.6,2.3c0.1,0.5,0.2,1.1,0.2,1.6c4.4-4.8,8.7-9.5,13.3-14.4C755.8,312.7,758.3,315.4,761.4,318.6z M691.6,332.1
		c0,12.1,0,23.9,0,35.7c12,0,23.6,0,35.4,0c0-4.9,0-9.7,0-15.7c-2.9,3.2-5,5.7-7.3,7.9c-2.2,2.2-5.2,3-7.4,0.9
		c-4.4-4.1-8.4-8.7-12.1-12.8c2.3-2.6,4.8-5.4,7.9-8.8c2.4,2.8,4.6,5.4,7.3,8.5c4-5.8,10.8-8.4,12.4-15.8
		C715.3,332.1,703.6,332.1,691.6,332.1z"/>
	<path d="M739.3,396.3c4.6-5.1,9-9.8,13.4-14.7c3,3.1,5.6,5.8,8.7,9c-3,2.9-6.2,5.9-9.2,8.9c-4.3,4.3-10.2,8-12.4,13.3
		c-2.2,5.2-0.5,12-0.6,18.2c0,4.6,0,9.2,0,13.9c-0.1,4.9-2.2,7.1-7.1,7.1c-15.2,0-30.4,0-45.6,0c-4.9,0-7.1-2.2-7.2-7
		c0-15.2,0-30.5,0-45.7c0-5.1,2.2-7.2,7.4-7.2c14.8,0,29.7,0,44.5-0.1C734.5,391.9,737.2,392.6,739.3,396.3z M699.7,421.1
		c2.9-3.3,5.5-6.1,8.9-9.9c2.2,2.9,4.3,5.7,6.3,8.4c11.1-9.6,12.6-11.6,12-15.3c-11.8,0-23.6,0-35.3,0c0,12,0,23.7,0,35.5
		c12,0,23.7,0,35.5,0c0-4.9,0-9.6,0-15.5c-2.9,3-4.9,5.4-7.3,7.6c-3,2.8-6,2.9-9,0.1C707,428.3,703.2,424.5,699.7,421.1z"/>
	<path d="M740.3,466.9c3.6-3.8,8-8.3,12.6-13.1c2.8,3.1,5.3,5.9,8.1,9.1c-5.9,5.9-12.1,12.3-18.6,18.5c-2.3,2.2-3.1,4.4-3.1,7.5
		c0.2,9.2,0.1,18.5,0.1,27.7c0,5.2-2.1,7.4-7.2,7.4c-15.2,0-30.4,0-45.6,0c-4.8,0-7-2.2-7-7.2c0-15.2,0-30.5,0-45.7
		c0-4.9,2.2-7.1,7.1-7.1c15.2,0,30.4-0.1,45.6,0.1C734.6,464.1,737,465.7,740.3,466.9z M691.5,511.7c12.1,0,23.8,0,35.5,0
		c0-5,0-9.6,0-15.2c-2.8,2.9-5,5.3-7.3,7.5c-2.3,2.2-5.3,3.1-7.8,0.8c-4.4-4-8.3-8.5-12.4-12.8c2.6-2.6,5.2-5.3,8.5-8.8
		c2.2,2.9,4.3,5.7,6.8,9c4.4-6.1,10.9-8.9,12.8-16.1c-12.5,0-24.2,0-36.2,0C691.5,488.1,691.5,499.8,691.5,511.7z"/>
	<path d="M846.9,362.2c0,3.9,0,7.6,0,11.5c-27.8,0-55.4,0-83.4,0c0-3.7,0-7.5,0-11.5C791.2,362.2,818.9,362.2,846.9,362.2z"/>
	<path d="M763.5,434.2c27.8,0,55.4,0,83.3,0c0,3.8,0,7.5,0,11.6c-27.7,0-55.4,0-83.3,0C763.5,441.9,763.5,438.1,763.5,434.2z"/>
	<path d="M847,506.2c0,4,0,7.6,0,11.5c-27.8,0-55.5,0-83.5,0c0-3.7,0-7.5,0-11.5C791.2,506.2,819,506.2,847,506.2z"/>
	<path d="M829.1,338.1c0,4,0,7.6,0,11.5c-17.8,0-35.6,0-53.6,0c0-3.7,0-7.5,0-11.5C793.3,338.1,811,338.1,829.1,338.1z"/>
	<path d="M829,410.2c0,4,0,7.7,0,11.6c-17.8,0-35.5,0-53.4,0c0-3.7,0-7.5,0-11.6C793.2,410.2,810.9,410.2,829,410.2z"/>
	<path d="M829,482.3c0,3.9,0,7.6,0,11.5c-17.8,0-35.5,0-53.4,0c0-3.7,0-7.5,0-11.5C793.2,482.3,810.9,482.3,829,482.3z"/>
	<path d="M847,338.2c0,3.9,0,7.5,0,11.5c-3.9,0-7.7,0-11.6,0c0-3.8,0-7.5,0-11.5C839,338.2,842.8,338.2,847,338.2z"/>
	<path d="M846.9,410.2c0,3.9,0,7.6,0,11.5c-3.8,0-7.6,0-11.6,0c0-3.8,0-7.6,0-11.5C839.1,410.2,842.8,410.2,846.9,410.2z"/>
	<path d="M835.4,482.1c3.9,0,7.6,0,11.5,0c0,3.9,0,7.7,0,11.7c-3.8,0-7.5,0-11.5,0C835.4,490.1,835.4,486.3,835.4,482.1z"/>
	<path d="M954.6,475.9c-3.9,0-7.5,0-11.4,0c0-3.9,0-7.6,0-11.7c3.7,0,7.5,0,11.4,0C954.6,468.2,954.6,472,954.6,475.9z"/>
	<path d="M955.2,488.1c3.9,0,7.5,0,11.4,0c0,3.8,0,7.6,0,11.7c-3.6,0-7.4,0-11.4,0C955.2,496,955.2,492.2,955.2,488.1z"/>
	<path d="M943.2,524.2c3.9,0,7.6,0,11.5,0c0,3.8,0,7.5,0,11.5c-3.7,0-7.5,0-11.5,0C943.2,532.1,943.2,528.3,943.2,524.2z"/>
	<path class="st4" d="M691.6,332.1c12,0,23.7,0,36,0c-1.6,7.4-8.4,10-12.4,15.8c-2.6-3.1-4.9-5.7-7.3-8.5c-3.1,3.4-5.6,6.2-7.9,8.8
		c3.8,4,7.7,8.7,12.1,12.8c2.3,2.1,5.3,1.2,7.4-0.9c2.3-2.3,4.4-4.7,7.3-7.9c0,6,0,10.8,0,15.7c-11.8,0-23.4,0-35.4,0
		C691.6,356,691.6,344.2,691.6,332.1z"/>
	<path class="st4" d="M699.7,421.1c3.5,3.4,7.3,7.2,11.2,10.9c3,2.8,6,2.7,9-0.1c2.3-2.2,4.4-4.6,7.3-7.6c0,5.9,0,10.5,0,15.5
		c-11.8,0-23.6,0-35.5,0c0-11.8,0-23.5,0-35.5c11.7,0,23.5,0,35.3,0c0.7,3.7-0.8,5.7-12,15.3c-2-2.7-4.1-5.5-6.3-8.4
		C705.2,415,702.6,417.8,699.7,421.1z"/>
	<path class="st4" d="M691.5,511.7c0-11.9,0-23.6,0-35.5c12,0,23.8,0,36.2,0c-1.8,7.2-8.4,10-12.8,16.1c-2.5-3.3-4.6-6.1-6.8-9
		c-3.4,3.5-6,6.1-8.5,8.8c4.1,4.3,8,8.8,12.4,12.8c2.4,2.2,5.4,1.4,7.8-0.8c2.3-2.2,4.5-4.6,7.3-7.5c0,5.6,0,10.2,0,15.2
		C715.4,511.7,703.6,511.7,691.5,511.7z"/>
</g>
</svg>
