<?xml version="1.0" encoding="utf-8"?>
<!-- Generator: Adobe Illustrator 25.4.1, SVG Export Plug-In . SVG Version: 6.00 Build 0)  -->
<svg version="1.1" id="Capa_1" xmlns="http://www.w3.org/2000/svg" xmlns:xlink="http://www.w3.org/1999/xlink" x="0px" y="0px"
	 viewBox="0 0 413 392.23" style="enable-background:new 0 0 413 392.23;" xml:space="preserve">
<style type="text/css">
	.st0{fill:url(#SVGID_1_);}
	.st1{fill:#BFD6F7;}
	.st2{fill:#DCE7F7;}
	.st3{fill:url(#SVGID_00000147184428689617811470000003844899357708603297_);}
	.st4{fill:#60CACB;}
	.st5{fill:#FC6559;}
	.st6{fill:#999999;}
	.st7{fill:#CCCECE;}
	.st8{fill:#6EDBD5;}
	.st9{fill:url(#SVGID_00000162312776438767880900000011331488987882713475_);}
	.st10{fill:#B7B7B7;}
</style>
<g>
	
		<linearGradient id="SVGID_1_" gradientUnits="userSpaceOnUse" x1="721.48" y1="127.3709" x2="841.14" y2="127.3709" gradientTransform="matrix(1 0 0 -1 0 391.8898)">
		<stop  offset="0" style="stop-color:#00ADEA"/>
		<stop  offset="1" style="stop-color:#0783E9"/>
	</linearGradient>
	<polygon class="st0" points="794.61,330.99 841.14,198.04 721.48,198.04 	"/>
	<rect x="542" y="-1.39" class="st1" width="232.67" height="305.79"/>
	<rect x="515.41" y="-27.98" class="st2" width="232.67" height="279.2"/>
	
		<linearGradient id="SVGID_00000054246466492689321970000012338419644301476256_" gradientUnits="userSpaceOnUse" x1="455.58" y1="127.3709" x2="794.61" y2="127.3709" gradientTransform="matrix(1 0 0 -1 0 391.8898)">
		<stop  offset="0" style="stop-color:#006DF0"/>
		<stop  offset="0.0358" style="stop-color:#057BEC"/>
		<stop  offset="0.1209" style="stop-color:#0F98E3"/>
		<stop  offset="0.2165" style="stop-color:#17B0DB"/>
		<stop  offset="0.3252" style="stop-color:#1DC2D6"/>
		<stop  offset="0.4548" style="stop-color:#22CED2"/>
		<stop  offset="0.6257" style="stop-color:#24D6D0"/>
		<stop  offset="1" style="stop-color:#25D8CF"/>
	</linearGradient>
	<polygon style="fill:url(#SVGID_00000054246466492689321970000012338419644301476256_);" points="794.61,330.99 721.48,198.04 
		455.58,198.04 528.7,330.99 	"/>
	<path class="st4" d="M568.59,18.56c-11.01,0-19.94-8.93-19.94-19.94v-6.65h13.3v6.65c0,3.67,2.98,6.65,6.65,6.65
		c3.67,0,6.65-2.98,6.65-6.65v-33.24c0-7.35-5.95-13.3-13.3-13.3c-7.35,0-13.3,5.95-13.3,13.3v6.65h-13.3v-6.65
		c0-14.69,11.91-26.59,26.59-26.59s26.59,11.91,26.59,26.59v33.24C588.53,9.63,579.6,18.56,568.59,18.56z"/>
	<polygon class="st5" points="674.95,31.85 648.36,31.85 648.36,5.26 621.77,5.26 621.77,31.85 595.18,31.85 595.18,58.44 
		621.77,58.44 621.77,85.03 648.36,85.03 648.36,58.44 674.95,58.44 	"/>
	<g>
		<rect x="555.29" y="104.98" class="st6" width="13.3" height="13.3"/>
		<rect x="581.88" y="104.98" class="st6" width="139.6" height="13.3"/>
		<rect x="542" y="131.57" class="st6" width="179.49" height="13.3"/>
		<rect x="542" y="158.16" class="st6" width="152.9" height="13.3"/>
		<rect x="713.71" y="-1.39" class="st6" width="13.67" height="13.3"/>
		<rect x="714.84" y="25.2" class="st6" width="13.3" height="13.3"/>
	</g>
</g>
<path class="st7" d="M42.31,121.29c-4.12,0-7.46-3.34-7.46-7.46V61.59c0.03-20.6,16.72-37.29,37.32-37.32
	c4.12,0,7.46,3.34,7.46,7.46s-3.34,7.46-7.46,7.46c-12.36,0-22.39,10.02-22.39,22.39v52.24C49.78,117.95,46.44,121.29,42.31,121.29z
	"/>
<path class="st8" d="M102.02,9.35c-24.76,0-37.32,7.53-37.32,22.39c0,14.86,12.55,22.39,37.32,22.39
	c12.36,0,22.39-10.02,22.39-22.39S114.38,9.35,102.02,9.35z"/>
<path class="st7" d="M221.43,121.29c-4.12,0-7.46-3.34-7.46-7.46V61.59c0-12.36-10.02-22.39-22.39-22.39
	c-4.12,0-7.46-3.34-7.46-7.46s3.34-7.46,7.46-7.46c20.6,0.03,37.29,16.72,37.32,37.32v52.24
	C228.89,117.95,225.55,121.29,221.43,121.29z"/>
<path class="st8" d="M161.72,9.35c-12.36,0-22.39,10.02-22.39,22.39s10.02,22.39,22.39,22.39c24.76,0,37.32-7.53,37.32-22.39
	C199.04,16.88,186.48,9.35,161.72,9.35z"/>
<path class="st7" d="M187.84,382.5c-35.02-0.04-63.4-28.42-63.44-63.44v-41.05c0-4.12,3.34-7.46,7.46-7.46
	c4.12,0,7.46,3.34,7.46,7.46v41.05c0,26.79,21.72,48.51,48.51,48.51s48.51-21.72,48.51-48.51v-63.44c0-35.03,28.4-63.44,63.44-63.44
	s63.44,28.4,63.44,63.44v37.32c0,4.12-3.34,7.46-7.46,7.46c-4.12,0-7.46-3.34-7.46-7.46v-37.32c0-26.79-21.72-48.51-48.51-48.51
	c-26.79,0-48.51,21.72-48.51,48.51v63.44C251.24,354.08,222.86,382.46,187.84,382.5z"/>
<linearGradient id="SVGID_00000024717299925229663080000000227782282671315339_" gradientUnits="userSpaceOnUse" x1="131.8703" y1="285.4805" x2="131.8703" y2="106.3617">
	<stop  offset="0" style="stop-color:#0080C4"/>
	<stop  offset="0.0653" style="stop-color:#0791C6"/>
	<stop  offset="0.1914" style="stop-color:#12ABC9"/>
	<stop  offset="0.3308" style="stop-color:#1ABFCC"/>
	<stop  offset="0.4886" style="stop-color:#20CDCE"/>
	<stop  offset="0.6802" style="stop-color:#24D5CF"/>
	<stop  offset="1" style="stop-color:#25D8CF"/>
</linearGradient>
<path style="fill:url(#SVGID_00000024717299925229663080000000227782282671315339_);" d="M235.92,111.7
	c-5.03-4.27-11.69-6.11-18.2-5.02c-10.95,2.09-18.82,11.74-18.68,22.88v1.44c0.16,11.68-2.56,23.22-7.94,33.58
	c-11.54,22.01-34.37,35.76-59.23,35.66h-0.08c-24.87,0.06-47.7-13.76-59.18-35.82c-5.35-10.37-8.06-21.9-7.9-33.57v-1.29
	c0.14-11.14-7.72-20.78-18.66-22.88c-6.5-1.1-13.15,0.72-18.19,4.98c-5.03,4.26-7.93,10.51-7.93,17.11v4.35
	c-0.15,42.45,23.85,81.28,61.88,100.13c4.8,2.4,9.78,4.43,14.88,6.08c3.13,0.96,5.29,3.84,5.33,7.11v16.66
	c0,12.36,10.02,22.39,22.39,22.39h14.93c12.36,0,22.39-10.02,22.39-22.39v-16.66c0.04-3.28,2.2-6.15,5.34-7.11
	c5.1-1.65,10.07-3.69,14.87-6.08c38.03-18.85,62.03-57.69,61.88-100.13v-4.35C243.82,122.19,240.93,115.94,235.92,111.7z"/>
<path class="st10" d="M393.08,345.18c0,20.61-16.7,37.32-37.32,37.32c-20.61,0-37.32-16.71-37.32-37.32
	c0-20.61,16.71-37.32,37.32-37.32C376.37,307.87,393.08,324.58,393.08,345.18z"/>
<path class="st7" d="M370.69,345.18c0,8.24-6.68,14.93-14.93,14.93c-8.24,0-14.93-6.68-14.93-14.93s6.68-14.93,14.93-14.93
	C364,330.26,370.69,336.94,370.69,345.18z"/>
</svg>
