<?xml version="1.0" encoding="utf-8"?>
<!-- Generator: Adobe Illustrator 24.1.3, SVG Export Plug-In . SVG Version: 6.00 Build 0)  -->
<svg version="1.1" id="Capa_1" xmlns="http://www.w3.org/2000/svg" xmlns:xlink="http://www.w3.org/1999/xlink" x="0px" y="0px"
	 viewBox="0 0 100 100" style="enable-background:new 0 0 100 100;" xml:space="preserve">
<style type="text/css">
	.st0{fill:url(#SVGID_1_);}
	.st1{fill:#FFFFFF;}
</style>
<linearGradient id="SVGID_1_" gradientUnits="userSpaceOnUse" x1="86.4784" y1="111.5388" x2="14.6705" y2="-12.8361">
	<stop  offset="0" style="stop-color:#1CBEBE"/>
	<stop  offset="0.1912" style="stop-color:#1BBABD"/>
	<stop  offset="0.3743" style="stop-color:#18AFBB"/>
	<stop  offset="0.5541" style="stop-color:#149BB8"/>
	<stop  offset="0.732" style="stop-color:#0D80B4"/>
	<stop  offset="0.9069" style="stop-color:#055EAE"/>
	<stop  offset="1" style="stop-color:#0048AA"/>
</linearGradient>
<rect x="-1.9" y="-3.3" class="st0" width="104.9" height="105.3"/>
<g>
	<path class="st1" d="M57.8,82.1H42.2c-1.7,0-3.1-1.4-3.1-3.1V21c0-1.7,1.4-3.1,3.1-3.1h15.5c1.7,0,3.1,1.4,3.1,3.1V79
		C60.9,80.7,59.5,82.1,57.8,82.1z"/>
	<path class="st1" d="M82.1,42.2v15.5c0,1.7-1.4,3.1-3.1,3.1H21c-1.7,0-3.1-1.4-3.1-3.1V42.2c0-1.7,1.4-3.1,3.1-3.1H79
		C80.7,39.1,82.1,40.5,82.1,42.2z"/>
</g>
</svg>
