<?xml version="1.0" encoding="utf-8"?>
<!-- Generator: Adobe Illustrator 23.0.4, SVG Export Plug-In . SVG Version: 6.00 Build 0)  -->
<svg version="1.1" id="Capa_1" xmlns="http://www.w3.org/2000/svg" xmlns:xlink="http://www.w3.org/1999/xlink" x="0px" y="0px"
	 viewBox="0 0 400 400" style="enable-background:new 0 0 400 400;" xml:space="preserve">
<style type="text/css">
	.st0{fill:#FFFFFF;}
</style>
<title>2</title>
<g>
	<g>
		<g>
			<path class="st0" d="M390.5,216.6c-2.8-19.2-17.9-34.4-37.1-37.1V168c0-31.4-23.9-57-53.3-57c-28.5,0-52.4,24.8-53.3,55.3h0.4
				l-0.4,0.1v123.5c0,39.5-29.5,71.5-65.8,71.5s-65.8-32.1-65.8-71.5v-10.7c9.1,0,18.8-6.6,18.8-25.1v-15.8
				c40.2-10.3,68.9-44.8,68.9-83.9v-13.1h-12.5l-0.3-81.5c-0.1-15.1-10.9-28-25.8-30.7c-3.2-9.8-13.8-15.2-23.6-12
				c-9.8,3.2-15.2,13.8-12,23.6c3.2,9.8,13.8,15.2,23.6,12c5.3-1.7,9.5-5.7,11.5-10.8c8,2.3,13.6,9.6,13.7,17.9l0.3,81.5h-12.5v13.2
				c-0.5,21.8-15.1,40.7-36.1,46.7c-11.2,3.6-23.2,3.6-34.5,0c-20.9-6-35.5-25-36-46.7v-13.2H40.2V59.9c0-8.5,5.7-15.9,13.9-18.1
				c3.8,9.7,14.8,14.5,24.5,10.7S93,37.7,89.2,28c-3.8-9.7-14.8-14.5-24.5-10.7c-5.3,2.1-9.3,6.4-11.1,11.8c-15,2.6-26,15.6-26,30.8
				v81.4H15.1v13c0,39.2,28.7,73.7,68.9,84v15.8c0,18.5,9.7,25.1,18.8,25.1v10.7c0,46.4,35.1,84.1,78.3,84.1s78.3-37.7,78.3-84.1
				V166.7c0.6-23.8,18.9-43.1,40.7-43.1c22.5,0,40.7,19.9,40.7,44.5v11.4c-24,3.5-40.6,25.7-37.1,49.7s25.7,40.6,49.7,37.1
				C377.4,262.8,394,240.5,390.5,216.6z M146.7,41.1c-3.5,0-6.3-2.8-6.3-6.3s2.8-6.3,6.3-6.3s6.3,2.8,6.3,6.3S150.1,41.1,146.7,41.1
				z M71.5,28.6c3.5,0,6.3,2.8,6.3,6.3s-2.8,6.3-6.3,6.3c-3.5,0-6.3-2.8-6.3-6.3S68,28.6,71.5,28.6z M27.6,154.4v-0.5h18.8v0.7
				c0.5,27.2,18.6,51,44.7,58.7c13.7,4.3,28.4,4.3,42.1,0c26.1-7.7,44.3-31.4,44.8-58.7v-0.7h12.5v0.5c0,34.9-26.9,65.5-63.9,72.9
				c-8.7,1.7-17.6,2.2-26.4,1.3c-2.9-0.3-5.8-0.7-8.7-1.3C54.5,219.9,27.6,189.2,27.6,154.4z M102.8,266.6c-5.6,0-6.3-8.8-6.3-12.5
				v-13.3c0.5,0.1,1,0.1,1.5,0.1c0.6,0.1,1.3,0.1,1.9,0.2c3,0.3,6,0.4,9,0.4h0.3c3,0,6-0.2,8.9-0.4c0.6-0.1,1.3-0.1,1.9-0.2
				c0.5-0.1,1-0.1,1.5-0.1v13.3c0,3.8-0.6,12.5-6.3,12.5H102.8z M347.1,254.1c-17.3,0-31.3-14-31.3-31.3s14-31.3,31.3-31.3
				s31.3,14,31.3,31.3C378.4,240.1,364.4,254.1,347.1,254.1z"/>
		</g>
	</g>
	<g>
		<g>
			<path class="st0" d="M347.1,204c-10.4,0-18.8,8.4-18.8,18.8c0,10.4,8.4,18.8,18.8,18.8s18.8-8.4,18.8-18.8
				C365.9,212.4,357.5,204,347.1,204z M347.1,229c-3.5,0-6.3-2.8-6.3-6.3c0-3.5,2.8-6.3,6.3-6.3s6.3,2.8,6.3,6.3
				C353.4,226.2,350.6,229,347.1,229z"/>
		</g>
	</g>
	<g>
	</g>
	<g>
	</g>
	<g>
	</g>
	<g>
	</g>
	<g>
	</g>
	<g>
	</g>
	<g>
	</g>
	<g>
	</g>
	<g>
	</g>
	<g>
	</g>
	<g>
	</g>
	<g>
	</g>
	<g>
	</g>
	<g>
	</g>
	<g>
	</g>
</g>
</svg>
