<?xml version="1.0" encoding="utf-8"?>
<!-- Generator: Adobe Illustrator 25.4.1, SVG Export Plug-In . SVG Version: 6.00 Build 0)  -->
<svg version="1.1" id="Capa_1" xmlns="http://www.w3.org/2000/svg" xmlns:xlink="http://www.w3.org/1999/xlink" x="0px" y="0px"
	 viewBox="0 0 512 512" style="enable-background:new 0 0 512 512;" xml:space="preserve">
<style type="text/css">
	.st0{fill:#0C84C6;}
	.st1{opacity:0.68;fill:#76C1E2;}
	.st2{fill:#C1DDEC;}
	.st3{fill:#DEF3FC;}
</style>
<path class="st0" d="M13.8,54.1h484.5v403.6H13.8V54.1z"/>
<path class="st1" d="M330.5,78.7l1.5,110c0.2,12.3-1.7,24.5-5.6,36.1c-8.7,26.1-27,48-51.2,61.3L169,344.2
	c-14.1,7.7-30.1,11.3-46.2,10.3c-5.7-0.4-11.5,0.7-16.8,3l-55.3,24.9c-6.2,2.8-10.5,8.6-11.4,15.4c-0.9,6.9,2,13.8,7.6,18.1
	l12.7,9.6c12.6,9.5,29.8,10.1,43,1.5l8.5-5.5c3.7-2.4,8.4-3,12.6-1.5l15.1,5.5c24.1,8.7,50.6,8.2,74.3-1.4l50.8-20.6
	c28.6-11.6,61-9.7,88.1,5.1l25.2,13.8c47.7,26.1,104.2-16,91.8-68.4l-2-8.5c-14.1-59.5-16.6-121.2-7.3-181.7l13.1-85L330.5,78.7
	L330.5,78.7z"/>
<path class="st2" d="M282.8,305.8l-2.6-0.3c-12.7-1.3-24.8,5.9-29.8,17.6s11.8,57.9,11.8,57.9c12.1,4,25.3,3.3,37-1.8
	c8.5-3.7,17.7-5.7,27-5.7h14.3v-20.5L282.8,305.8z"/>
<path class="st2" d="M310.2,292.3c-4.8-1.4-9.9-0.3-13.7,2.9l-2.7,2.3c-7.6,2.1-13,8.9-13.5,16.8c-0.5,9.7,1.4,19.5,5.5,28.3
	l6.3,13.4c4,8.4,13.9,12.2,22.4,8.5l15.9-6.9l12.7-34.3L310.2,292.3L310.2,292.3z"/>
<path class="st2" d="M410.1,228.8l1.7-10c3.7-21.7,5.9-43.6,6.5-65.6l2-74.5h-20.4l-18.6,129.9L410.1,228.8L410.1,228.8z"/>
<path class="st2" d="M340.1,270.6c-4.2,2.5-7.9,5.7-10.9,9.6c-2.5,3.3-6.4,5.2-10.5,5.2c-6.8,0-11,7.5-7.4,13.3l5.8,9.2
	c6.4,10.2,11.1,21.3,13.9,33c3.2,13.2,20.4,16.5,28.2,5.4l7-9.9c3.4-4.8,9.5-6.9,15.1-5.1l14.9,4.6c8.6,2.7,17.6-3.1,18.6-12.1
	l0.8-6.4c1.5-12.9-3.4-25.7-13.1-34.3S340.1,270.6,340.1,270.6z"/>
<path class="st2" d="M408.3,334.4l6.6,6.9c4.8,5,12.1,6.9,18.8,4.7l5-1.6c5-1.6,10.3,1,12.2,5.9c14,37.2-20.9,74.3-58.9,62.6
	c-4.2-1.3-6.9-5.4-6.5-9.8l0.2-1.9c0.4-4.2-1.2-8.2-4.3-11c-10.4-9.2-23.6-14.8-37.4-15.9c-6.7-0.5-12.2-5.7-13.1-12.4
	c-0.6-4.7,0.2-9.4,2.3-13.6l0.8-1.4l42.6-26L408.3,334.4L408.3,334.4z"/>
<path class="st3" d="M450.8,350.3c-1.8-4.9-7.2-7.5-12.2-5.9l-5,1.6c-6.6,2.1-13.9,0.3-18.8-4.7l-1-1.1c-3.8,2.8-8.3,4.5-13.3,4.5
	c-2.2,0-4.5-0.3-6.6-1l-14.9-4.6c-0.5-0.2-1.1-0.2-1.6-0.2c-1.8,0-3.5,0.9-4.6,2.4l-7,9.9c-4.5,6.4-11.6,10-19.3,10
	c-6,0-11.4-2.2-15.7-5.9c-0.4,2.2-0.4,4.5-0.1,6.7c0.9,6.7,6.4,11.8,13.1,12.4c13.9,1.1,27,6.7,37.4,15.9c3.1,2.8,4.7,6.8,4.3,11
	l-0.2,1.9c-0.4,4.4,2.3,8.5,6.5,9.8C429.9,424.6,464.8,387.5,450.8,350.3L450.8,350.3z"/>
<path class="st2" d="M280.7,324.8l-26.1-1.9c-9.4-0.7-17,7.6-15.4,17l0.4,2.6c2,11.7,6.4,22.9,12.9,32.9c3.4,5.2,10,7.2,15.7,4.8
	c6.6-2.8,13.2-5.2,20.1-7.2l2.3-0.7c4.2-1.3,7.3-4.7,8.2-8.9L280.7,324.8L280.7,324.8z"/>
<path class="st2" d="M257.4,379.7c-2.2,6.6-9.2,10.1-15.8,8l-19.3-6.3c-12.6-4.1-26.4-1.7-36.8,6.6c-4,3.2-7.1,7.3-9.1,12.1
	l-0.4,0.9c-2.4,5.8-9.8,7.5-14.5,3.3c-7.4-6.6-11.2-16.4-10.1-26.3c0.6-5.7,6.2-9.4,11.7-7.8c3.9,1.1,8,1,11.8-0.5
	c19.6-7.4,37-19.6,50.6-35.5l1.6-1.9c3.6-4.2,9.5-5.6,14.6-3.5"/>
<path class="st2" d="M152.4,375h-11.9c-11.9,0-23.7,2.8-34.3,8.1c-3.2,1.6-5.4,4.8-5.8,8.4c-0.4,3.9,1.3,7.7,4.5,10
	c3.4,2.4,8.1,1.4,10.3-2.1l1.5-2.4c1.5-2.4,4.2-3.8,7.1-3.5c12.9,1.2,25.4,4.7,37,10.4l0.8,0.4"/>
<path class="st2" d="M101.1,388.5c-4.6,0.1-9.1,1.4-13,3.8l-1.6,1c-3.4,2.1-7.6,2.1-11,0c-4.4-2.7-10.2-0.6-11.9,4.3
	c-0.6,1.8,0,3.8,1.5,4.9l11,8.2c2.5,1.9,6.1,1.3,7.8-1.3c2.7-3.9,7.6-5.4,12.1-3.8c4.2,1.5,8.8,0.2,11.6-3.1"/>
<g>
	<path class="st3" d="M39.2,76.9h168.3v8H39.2V76.9z"/>
	<path class="st3" d="M39.2,100.6h112.2v8H39.2V100.6z"/>
	<path class="st3" d="M39.2,124.4h91.8v8H39.2V124.4z"/>
	<path class="st3" d="M39.2,149.7h150.1v8H39.2V149.7z"/>
	<path class="st3" d="M352.5,78.7l2,73.9c0.6,22.8-3.1,45.4-10.9,66.8l-5.9,16c-5.8,15.8-1.9,33.4,9.8,45.4l1.8,2.1
		c5.3,6.1,10.2,12.6,14.7,19.4c4.1,6.2,13.2,6,17.1-0.4l1.9-3.1c1.6-2.6,3-5.3,4.2-8.1l9.3-4.2c8.1-3.7,14.7-10.1,18.5-18.2
		c2.8-5.9,3.3-12.7,1.4-18.9l-5.2-16.6c-8.3-26.6-11.4-54.5-9.2-82.2l5.8-71.9L352.5,78.7L352.5,78.7z"/>
	<path class="st3" d="M393.3,296.9c-1,2.1-2.2,4.2-3.4,6.2l-1.9,3.1c-3.3,5.4-9.1,8.7-15.5,8.7c-6.1,0-11.7-3-15.1-8.1
		c-4.3-6.4-9-12.7-14.1-18.6l-1.8-2.1c-3.1-3.2-5.7-6.8-7.8-10.6c-1.6,1.5-3.1,3-4.4,4.8c-2.5,3.3-6.4,5.2-10.5,5.2
		c-6.8,0-11,7.5-7.4,13.3l5.8,9.2c6.4,10.2,11.1,21.3,13.9,33c3.2,13.2,20.4,16.5,28.2,5.4l7-9.9c3.4-4.8,9.5-6.9,15.1-5.1l14.9,4.6
		c8.6,2.7,17.6-3.1,18.6-12.1l0.8-6.4c1.2-10.2-1.7-20.4-7.8-28.4c-2.5,1.8-5.1,3.4-7.9,4.7L393.3,296.9L393.3,296.9z"/>
</g>
<path class="st2" d="M450.8,350.3c-1-2.7-3.1-4.6-5.6-5.5c-2.6-0.4-5.4,0.5-7,3c-1.2,1.9-1.6,4.3-0.9,6.5l1.4,4.5
	c0.5,1.7-0.1,3.6-1.6,4.6c-3.5,2.4-5.5,6.5-5.2,10.8c0.7,9-4.7,17.4-13.1,20.6c-5,1.9-9.8,4.3-14.3,7.3c-2,1.3-4.4,2.1-6.8,2.1
	l-5.8,0.1c-3.4,0.1-5.1,3.7-3.8,6.3c1,1.1,2.3,2,3.8,2.4C429.9,424.6,464.8,387.5,450.8,350.3L450.8,350.3z"/>
<path class="st3" d="M324.7,347.2c-0.7-1.4-1.2-2.8-1.5-4.3c-2.6-10.8-7-21.2-12.9-30.6l-5.8-9.2c-2.1-3.3-2.7-7.1-2.3-10.8
	c-2.1,0.6-4,1.5-5.7,2.9l-2.7,2.3c-7.6,2.1-13,8.9-13.5,16.8c-0.5,9.7,1.4,19.5,5.5,28.3l6.3,13.4c4,8.4,13.9,12.2,22.4,8.5l8-3.5
	C322.3,356.2,322.9,351.5,324.7,347.2L324.7,347.2z"/>
<path class="st3" d="M284.9,359.3l-6.3-13.4c-3.2-6.8-5.1-14.2-5.9-21.7l-18.1-1.3c-9.4-0.7-17,7.6-15.4,17l0.4,2.6
	c2,11.7,6.4,22.9,12.9,32.9c3.4,5.2,10,7.2,15.7,4.8c6.6-2.8,13.2-5.2,20.1-7.2l2.3-0.7c1.5-0.5,2.8-1.3,4-2.2
	C290.4,367.5,287,363.8,284.9,359.3z"/>
<path class="st3" d="M245.8,379.7c-7.2-10.9-11.9-23-14.1-35.9l-0.4-2.6c-0.7-4.3-0.1-8.7,1.6-12.6c-2.1,0.7-4.1,1.9-5.6,3.6
	l-1.6,1.9c-13.6,15.9-31,28.1-50.6,35.5c-3.8,1.4-7.9,1.6-11.8,0.5c-5.5-1.6-11.1,2.2-11.7,7.8c-1.1,9.9,2.6,19.7,10.1,26.3
	c4.7,4.2,12.1,2.5,14.5-3.3l0.4-0.9c2-4.7,5.1-8.9,9.1-12.1c10.4-8.2,24.2-10.7,36.8-6.6l19.3,6.3c3.8,1.3,7.8,0.5,10.9-1.6
	C249.9,384.5,247.6,382.4,245.8,379.7L245.8,379.7z"/>
<path class="st3" d="M143.6,377c0.1-0.7,0.3-1.3,0.4-2h-3.5c-11.9,0-23.7,2.8-34.3,8.1c-3.2,1.6-5.4,4.8-5.8,8.4
	c-0.4,3.9,1.3,7.7,4.5,10c3.4,2.4,8.1,1.4,10.3-2.1l1.5-2.4c1.5-2.4,4.2-3.8,7.1-3.5c8.1,0.7,16,2.5,23.6,5.1
	C144.2,391.9,142.7,384.5,143.6,377L143.6,377z"/>
<path class="st3" d="M92.4,390.6c0-0.1,0.1-0.2,0.1-0.3c-1.5,0.6-3,1.2-4.4,2.1l-1.6,1c-3.4,2.1-7.6,2.1-11,0
	c-4.4-2.7-10.2-0.6-11.9,4.3c-0.6,1.8,0,3.8,1.5,4.9l11,8.2c2.5,1.9,6.1,1.3,7.8-1.3c2.7-3.9,7.6-5.4,12.1-3.8
	c0.8,0.3,1.6,0.4,2.3,0.5C94,402.1,91.7,396.5,92.4,390.6L92.4,390.6z"/>
</svg>
