<?xml version="1.0" encoding="utf-8"?>
<!-- Generator: Adobe Illustrator 25.4.1, SVG Export Plug-In . SVG Version: 6.00 Build 0)  -->
<svg version="1.1" id="Layer_3" xmlns="http://www.w3.org/2000/svg" xmlns:xlink="http://www.w3.org/1999/xlink" x="0px" y="0px"
	 viewBox="0 0 512 512" style="enable-background:new 0 0 512 512;" xml:space="preserve">
<style type="text/css">
	.st0{fill:#DDEBFD;}
	.st1{fill:url(#SVGID_1_);stroke:#DDEBFD;stroke-width:6;stroke-miterlimit:10;}
	.st2{fill:url(#SVGID_00000079447507760114288180000017843258616834566273_);stroke:#DDEBFD;stroke-width:6;stroke-miterlimit:10;}
	.st3{fill:url(#SVGID_00000108282681551097340100000014666133212624934073_);stroke:#DDEBFD;stroke-width:6;stroke-miterlimit:10;}
	
		.st4{opacity:0.39;fill:url(#SVGID_00000161602756804216256310000003954418652442457532_);stroke:#DDEBFD;stroke-width:6;stroke-miterlimit:10;}
	
		.st5{opacity:0.39;fill:url(#SVGID_00000009552399666723667210000010332028239827663540_);stroke:#DDEBFD;stroke-width:6;stroke-miterlimit:10;}
	
		.st6{opacity:0.39;fill:url(#SVGID_00000128453660883627883630000002460221047676210066_);stroke:#DDEBFD;stroke-width:6;stroke-miterlimit:10;}
	.st7{fill:#5CBC5C;}
	.st8{fill:#FEFEFE;}
	.st9{fill:#FC6559;}
</style>
<path class="st0" d="M400.9,503.2H111.1c-24.4,0-44.5-20-44.5-44.5V50.5C66.6,26,86.6,6,111.1,6h289.9c24.4,0,44.5,20,44.5,44.5
	v408.3C445.4,483.2,425.4,503.2,400.9,503.2z"/>
<linearGradient id="SVGID_1_" gradientUnits="userSpaceOnUse" x1="195.931" y1="763.8" x2="388.3157" y2="763.8" gradientTransform="matrix(1 0 0 1 0 -566)">
	<stop  offset="0" style="stop-color:#00ADEA"/>
	<stop  offset="1" style="stop-color:#0783E9"/>
</linearGradient>
<path class="st1" d="M209.7,212.4h82.4h82.4c7.6,0,13.8-6.5,13.8-14.6s-6.1-14.6-13.8-14.6h-82.4h-82.4c-7.6,0-13.8,6.5-13.8,14.6
	S202.2,212.4,209.7,212.4z"/>
<linearGradient id="SVGID_00000096770904755449546020000003534629014955993224_" gradientUnits="userSpaceOnUse" x1="195.931" y1="965.4" x2="388.3157" y2="965.4" gradientTransform="matrix(1 0 0 1 0 -566)">
	<stop  offset="0" style="stop-color:#00ADEA"/>
	<stop  offset="1" style="stop-color:#0783E9"/>
</linearGradient>
<path style="fill:url(#SVGID_00000096770904755449546020000003534629014955993224_);stroke:#DDEBFD;stroke-width:6;stroke-miterlimit:10;" d="
	M374.5,384.8h-82.4h-82.4c-7.6,0-13.8,6.5-13.8,14.6s6.1,14.6,13.8,14.6h82.4h82.4c7.6,0,13.8-6.5,13.8-14.6
	S382.1,384.8,374.5,384.8z"/>
<linearGradient id="SVGID_00000119815304356686887530000012899558529887719328_" gradientUnits="userSpaceOnUse" x1="195.931" y1="867.2" x2="388.3157" y2="867.2" gradientTransform="matrix(1 0 0 1 0 -566)">
	<stop  offset="0" style="stop-color:#00ADEA"/>
	<stop  offset="1" style="stop-color:#0783E9"/>
</linearGradient>
<path style="fill:url(#SVGID_00000119815304356686887530000012899558529887719328_);stroke:#DDEBFD;stroke-width:6;stroke-miterlimit:10;" d="
	M374.5,286.6h-82.4h-82.4c-7.6,0-13.8,6.5-13.8,14.6s6.1,14.6,13.8,14.6h82.4h82.4c7.6,0,13.8-6.5,13.8-14.6
	S382.1,286.6,374.5,286.6z"/>
<linearGradient id="SVGID_00000083072191644297254000000001555621979203976116_" gradientUnits="userSpaceOnUse" x1="108.7733" y1="199.9311" x2="176.9837" y2="199.9311">
	<stop  offset="0" style="stop-color:#00ADEA"/>
	<stop  offset="1" style="stop-color:#0783E9"/>
</linearGradient>
<path style="opacity:0.39;fill:url(#SVGID_00000083072191644297254000000001555621979203976116_);stroke:#DDEBFD;stroke-width:6;stroke-miterlimit:10;" d="
	M165,234h-44.2c-6.6,0-12-5.4-12-12v-44.2c0-6.6,5.4-12,12-12H165c6.6,0,12,5.4,12,12V222C177,228.6,171.6,234,165,234z"/>
<linearGradient id="SVGID_00000135652499969947238610000005188229224098419846_" gradientUnits="userSpaceOnUse" x1="108.7733" y1="304.2" x2="176.9837" y2="304.2">
	<stop  offset="0" style="stop-color:#00ADEA"/>
	<stop  offset="1" style="stop-color:#0783E9"/>
</linearGradient>
<path style="opacity:0.39;fill:url(#SVGID_00000135652499969947238610000005188229224098419846_);stroke:#DDEBFD;stroke-width:6;stroke-miterlimit:10;" d="
	M165,338.3h-44.2c-6.6,0-12-5.4-12-12v-44.2c0-6.6,5.4-12,12-12H165c6.6,0,12,5.4,12,12v44.2C177,332.9,171.6,338.3,165,338.3z"/>
<linearGradient id="SVGID_00000095298303312869001920000016035348745588535222_" gradientUnits="userSpaceOnUse" x1="108.7733" y1="398.6646" x2="176.9837" y2="398.6646">
	<stop  offset="0" style="stop-color:#00ADEA"/>
	<stop  offset="1" style="stop-color:#0783E9"/>
</linearGradient>
<path style="opacity:0.39;fill:url(#SVGID_00000095298303312869001920000016035348745588535222_);stroke:#DDEBFD;stroke-width:6;stroke-miterlimit:10;" d="
	M165,432.8h-44.2c-6.6,0-12-5.4-12-12v-44.2c0-6.6,5.4-12,12-12H165c6.6,0,12,5.4,12,12v44.2C177,427.4,171.6,432.8,165,432.8z"/>
<g>
	<g id="XMLID_00000037656952602769709830000017361427883376816291_">
		<g>
			<path class="st7" d="M504.7,402.2c0,56.7-46.1,102.9-102.8,102.9c-56.8,0-102.9-46.1-102.9-103c0-56.6,46.1-102.6,102.8-102.7
				C458.5,299.4,504.6,345.5,504.7,402.2z M442.4,397c1.4-4,0.5-7.6-2.5-10.6c-10.1-10.1-20.2-20.2-30.3-30.3
				c-4.8-4.8-10.6-4.8-15.5,0c-7.3,7.3-14.6,14.6-22,22c-2.9,2.9-5.8,5.7-8.6,8.6c-3.2,3.3-3.7,8.2-1.4,12.1c2.3,4,6.9,5.9,11.4,4.8
				c2.1-0.5,3.8-1.6,5.3-3.1c4.1-4.2,8.3-8.3,12.8-12.9c0,1.3,0,2,0,2.8c0,17,0,34,0,51c0,6.1,4.6,10.7,10.5,10.6
				c5.6-0.1,10-4.7,10-10.6c0-17.7,0-35.4,0-53.6c0.8,0.8,1.3,1.2,1.8,1.7c3.9,3.8,7.7,7.7,11.5,11.5c2.4,2.4,5.4,3.4,8.8,2.9
				C438.3,403.1,441.1,400.9,442.4,397z"/>
			<path class="st8" d="M439.8,386.4c3,3,3.9,6.6,2.5,10.6c-1.3,3.8-4.1,6.1-8.1,6.8c-3.4,0.6-6.4-0.5-8.8-2.9
				c-3.9-3.8-7.7-7.7-11.5-11.5c-0.5-0.5-1-0.9-1.8-1.7c0,18.2,0,35.9,0,53.6c0,5.9-4.4,10.5-10,10.6c-5.9,0.1-10.5-4.5-10.5-10.6
				c0-17,0-34,0-51c0-0.8,0-1.5,0-2.8c-4.5,4.5-8.7,8.7-12.8,12.9c-1.5,1.5-3.2,2.6-5.3,3.1c-4.5,1.1-9.1-0.8-11.4-4.8
				c-2.2-3.9-1.7-8.8,1.4-12.1c2.8-2.9,5.7-5.8,8.6-8.6c7.3-7.3,14.6-14.7,22-22c4.8-4.8,10.7-4.8,15.5,0
				C419.7,366.2,429.8,376.3,439.8,386.4z"/>
		</g>
		<g>
		</g>
	</g>
</g>
<path class="st9" d="M297.5,87.6h-24.7c-0.9,0-1.7-0.8-1.7-1.7V61.3c0-1.4-1.2-2.5-2.5-2.5h-25.2c-1.4,0-2.5,1.2-2.5,2.5V86
	c0,0.9-0.8,1.7-1.7,1.7h-24.7c-1.4,0-2.5,1.2-2.5,2.5v25.2c0,1.4,1.2,2.5,2.5,2.5h24.7c0.9,0,1.7,0.8,1.7,1.7v24.7
	c0,1.4,1.2,2.5,2.5,2.5h25.2c1.4,0,2.5-1.2,2.5-2.5v-24.7c0-0.9,0.8-1.7,1.7-1.7h24.7c1.4,0,2.5-1.2,2.5-2.5V90.3
	C300.1,88.8,299,87.6,297.5,87.6z"/>
</svg>
