<?xml version="1.0" encoding="utf-8"?>
<!-- Generator: Adobe Illustrator 23.0.4, SVG Export Plug-In . SVG Version: 6.00 Build 0)  -->
<svg version="1.1" id="Capa_1" xmlns="http://www.w3.org/2000/svg" xmlns:xlink="http://www.w3.org/1999/xlink" x="0px" y="0px"
	 viewBox="0 0 200 200" style="enable-background:new 0 0 200 200;" xml:space="preserve">
<style type="text/css">
	.st0{fill:#3366CC;}
	.st1{fill:url(#SVGID_1_);}
	.st2{fill:#FFFFFF;}
	.st3{fill:#FFFFFF;stroke:#3366CC;stroke-width:7;stroke-miterlimit:10;}
</style>
<g id="Capa_3_1_">
</g>
<g>
	<g id="XMLID_6_">
		<g>
			<path class="st0" d="M172.5,58.6c0.1,40.6,0.1,81.3,0.1,121.9c0,6.8-5.2,11.8-12.2,11.8c-19.8,0-39.6,0-59.4,0
				c-19.8,0-39.6,0-59.4,0c-7,0-12.2-5-12.2-11.7c0-53.5,0-107,0-160.5c0-5.3,3.3-9.6,8.5-11.2c0.4-0.1,0.8-0.3,1.2-0.5
				c27.7,0,55.5,0,83.2,0c1.1,1,2.3,2,3.4,3c15.2,14.6,30.4,29.2,45.5,43.8C171.9,56.1,172.5,57.5,172.5,58.6z M164.7,179.4
				c0-38.4,0-76.8,0-115.2c0-0.6-0.1-1.3-0.1-2.1c-0.9,0-1.6,0-2.4,0c-10.5,0-21-0.3-31.5,0.1c-8.5,0.3-14.1-5.4-13.9-13.3
				c0.4-10.1,0.1-20.2,0.1-30.3c0-0.7,0-1.4,0-2.5c-0.9,0-1.6,0-2.3,0c-24,0-48,0-72,0c-4,0-5.4,1.3-5.4,5.1c0,52.8,0,105.6,0,158.3
				c0,3.8,1.4,5.1,5.4,5.1c38.9,0,77.7,0,116.6,0C163.3,184.7,164.7,183.4,164.7,179.4z M151.8,54.4c2.2,0,4.4,0,6.3,0
				c-11.1-10.7-22.3-21.4-33.3-32c0,8.9,0,18.2,0,27.5c0,3.2,1.5,4.6,4.8,4.6C137,54.4,144.4,54.4,151.8,54.4z"/>
			<linearGradient id="SVGID_1_" gradientUnits="userSpaceOnUse" x1="37.2071" y1="100.3905" x2="164.6601" y2="100.3905">
				<stop  offset="0" style="stop-color:#FFFFFF"/>
				<stop  offset="0.2301" style="stop-color:#FCFEFE"/>
				<stop  offset="0.3713" style="stop-color:#F4FCFC"/>
				<stop  offset="0.4886" style="stop-color:#E5F8F8"/>
				<stop  offset="0.5927" style="stop-color:#D1F2F2"/>
				<stop  offset="0.6882" style="stop-color:#B6EAEA"/>
				<stop  offset="0.7773" style="stop-color:#96E1E1"/>
				<stop  offset="0.8615" style="stop-color:#6FD6D6"/>
				<stop  offset="0.9397" style="stop-color:#43C9C9"/>
				<stop  offset="1" style="stop-color:#1CBEBE"/>
			</linearGradient>
			<path class="st1" d="M164.6,64.1c0,38.4,0,76.8,0,115.2c0,4-1.3,5.3-5.4,5.3c-38.9,0-77.7,0-116.6,0c-4,0-5.4-1.3-5.4-5.1
				c0-52.8,0-105.6,0-158.3c0-3.9,1.4-5.1,5.4-5.1c24,0,48,0,72,0c0.7,0,1.3,0,2.3,0c0,1,0,1.8,0,2.5c0,10.1,0.3,20.2-0.1,30.3
				c-0.3,7.9,5.4,13.5,13.9,13.3c10.5-0.4,21-0.1,31.5-0.1c0.7,0,1.5,0,2.4,0C164.6,62.9,164.6,63.5,164.6,64.1z"/>
			<path class="st2" d="M158.1,54.4c-1.9,0-4.1,0-6.3,0c-7.4,0-14.8,0-22.2,0c-3.3,0-4.8-1.4-4.8-4.6c0-9.3,0-18.5,0-27.5
				C135.9,33,147,43.7,158.1,54.4z"/>
		</g>
		<g>
		</g>
	</g>
	<g>
		<circle class="st3" cx="101.4" cy="108.9" r="40.2"/>
		<g id="XMLID_1_">
			<g>
				<path class="st0" d="M99.9,84.6c1.1-0.9,2.4-0.9,3.6,0c4.7,3.7,9.4,7.5,14.1,11.3c1.3,1.1,1.5,2.8,0.5,4c-1,1.3-2.7,1.5-4.1,0.3
					c-2.9-2.3-5.8-4.6-8.7-6.9c-0.2-0.2-0.5-0.3-0.8-0.6c0,0.5,0,0.8,0,1.2c0,12.6,0,25.2,0,37.7c0,0.5,0,1-0.1,1.4
					c-0.4,1.3-1.6,2.1-3,2c-1.4-0.1-2.5-1.3-2.5-2.6c0-0.3,0-0.6,0-0.9c0-12.5,0-25,0-37.5c0-0.4,0-0.7,0-1.2
					c-0.3,0.3-0.6,0.4-0.8,0.6c-2.8,2.3-5.7,4.6-8.5,6.8c-1.7,1.4-4.1,0.5-4.6-1.6c-0.2-1.1,0.1-2,1-2.7
					C90.5,92.1,95.2,88.3,99.9,84.6z"/>
			</g>
			<g>
			</g>
		</g>
	</g>
</g>
</svg>
