<?xml version="1.0" encoding="utf-8"?>
<!-- Generator: Adobe Illustrator 23.0.4, SVG Export Plug-In . SVG Version: 6.00 Build 0)  -->
<svg version="1.1" id="Capa_1" xmlns="http://www.w3.org/2000/svg" xmlns:xlink="http://www.w3.org/1999/xlink" x="0px" y="0px"
	 viewBox="0 0 200 200" style="enable-background:new 0 0 200 200;" xml:space="preserve">
<style type="text/css">
	.st0{fill:url(#SVGID_1_);}
	.st1{fill:#3366CC;}
	.st2{fill:#FFFFFF;}
	.st3{fill:url(#SVGID_2_);}
	.st4{fill:url(#SVGID_3_);}
	.st5{fill:url(#SVGID_4_);}
	.st6{fill:url(#SVGID_5_);}
	.st7{fill:none;stroke:#3366CC;stroke-width:7;stroke-miterlimit:10;}
	.st8{clip-path:url(#SVGID_7_);}
	.st9{fill:url(#SVGID_8_);}
</style>
<g>
	<g id="XMLID_4_">
		<g>
			<linearGradient id="SVGID_1_" gradientUnits="userSpaceOnUse" x1="31.9634" y1="94.4535" x2="158.0849" y2="94.4535">
				<stop  offset="0" style="stop-color:#FFFFFF"/>
				<stop  offset="0.2301" style="stop-color:#FCFEFE"/>
				<stop  offset="0.3713" style="stop-color:#F4FCFC"/>
				<stop  offset="0.4886" style="stop-color:#E5F8F8"/>
				<stop  offset="0.5927" style="stop-color:#D1F2F2"/>
				<stop  offset="0.6882" style="stop-color:#B6EAEA"/>
				<stop  offset="0.7773" style="stop-color:#96E1E1"/>
				<stop  offset="0.8615" style="stop-color:#6FD6D6"/>
				<stop  offset="0.9397" style="stop-color:#43C9C9"/>
				<stop  offset="1" style="stop-color:#1CBEBE"/>
			</linearGradient>
			<path class="st0" d="M55.9,104.9c0.7,0.2,1.4,0.1,2.2,0.1c24.7,0,49.4,0,74.1,0c0.7,0,1.3,0.1,2-0.1c1.9-0.4,3-1.5,3-3.4
				c0-1.9-1.1-3.1-3-3.5c-0.6-0.1-1.3-0.1-2-0.1c-12.3,0-24.7,0-37,0c-12.3,0-24.7,0-37,0c-0.7,0-1.5-0.1-2.2,0.1
				c-1.8,0.4-2.8,1.6-2.8,3.4C53,103.3,54.1,104.5,55.9,104.9z M56.1,83.9c0.6,0.1,1.3,0.1,2,0.1c12.3,0,24.6,0,36.8,0
				c12.4,0,24.8,0,37.3,0c0.7,0,1.3,0.1,2-0.1c1.9-0.4,3-1.5,3-3.4c0-1.9-1.1-3.1-3-3.5c-0.6-0.1-1.3-0.1-2-0.1
				c-24.7,0-49.4,0-74.1,0c-0.7,0-1.3-0.1-2,0.1c-1.9,0.4-3,1.5-3,3.4C53.1,82.4,54.2,83.5,56.1,83.9z M57.4,62.9c5.5,0,11,0,16.4,0
				c5.6,0,11.3,0,16.9,0c2.8,0,4.4-1.3,4.4-3.5c0-2.2-1.6-3.5-4.4-3.5c-11.1,0-22.2,0-33.3,0c-2.8,0-4.4,1.3-4.4,3.5
				C53,61.6,54.6,62.9,57.4,62.9z M116.2,44.6c0,10.8,7.5,18.3,18.3,18.3c7.7,0,15.3,0,23,0c0.1,0,0.3,0.1,0.6,0.1c0,19,0,38,0,57.2
				c-15.9-3.5-29.7,0.2-40.1,12.9c-10.4,12.6-11.3,26.9-4.8,42c-1,0-1.7,0-2.5,0c-22.3,0-44.6,0-66.9,0c-7.6,0-11.8-4.2-11.8-11.8
				c0-46,0-91.9,0-137.9c0-7.5,4.2-11.7,11.6-11.7c23.4,0,46.8,0,70.1,0c0.7,0,1.4,0,2.4,0c0,0.9,0,1.7,0,2.5
				C116.1,25.7,116.1,35.1,116.2,44.6z"/>
			<linearGradient id="SVGID_2_" gradientUnits="userSpaceOnUse" x1="116.1494" y1="157.5931" x2="179.2896" y2="157.5931">
				<stop  offset="0" style="stop-color:#FFFFFF"/>
				<stop  offset="0.2301" style="stop-color:#FCFEFE"/>
				<stop  offset="0.3713" style="stop-color:#F4FCFC"/>
				<stop  offset="0.4886" style="stop-color:#E5F8F8"/>
				<stop  offset="0.5927" style="stop-color:#D1F2F2"/>
				<stop  offset="0.6882" style="stop-color:#B6EAEA"/>
				<stop  offset="0.7773" style="stop-color:#96E1E1"/>
				<stop  offset="0.8615" style="stop-color:#6FD6D6"/>
				<stop  offset="0.9397" style="stop-color:#43C9C9"/>
				<stop  offset="1" style="stop-color:#1CBEBE"/>
			</linearGradient>
			<path class="st3" d="M135.2,155.9c1.4,1.5,3.5,1.5,5.1,0c1.2-1.1,2.2-2.4,3.3-3.5c0.2,0.1,0.4,0.2,0.6,0.3c0,6,0,12.1,0,18.1
				c0,2.8,1.3,4.4,3.5,4.4c2.2,0,3.5-1.6,3.5-4.4c0-5.6,0-11.1,0-16.7c0-0.5,0.1-1,0.2-2.2c0.9,1,1.4,1.7,1.9,2.2
				c0.5,0.6,1.1,1.2,1.7,1.7c1.6,1.4,3.5,1.5,4.9,0.2c1.4-1.4,1.5-3.5,0-5.1c-3.2-3.3-6.4-6.6-9.8-9.8c-1.6-1.6-3.5-1.6-5.1,0
				c-3.3,3.2-6.6,6.5-9.8,9.8C133.9,152.5,133.9,154.5,135.2,155.9z M147.8,126c17.4,0,31.5,14.3,31.5,31.8
				c-0.1,17.3-14.3,31.4-31.7,31.4c-17.4,0-31.5-14.3-31.5-31.8C116.2,140.1,130.4,126,147.8,126z"/>
			<path class="st1" d="M160,150.9c1.5,1.6,1.5,3.7,0,5.1c-1.4,1.3-3.3,1.3-4.9-0.2c-0.6-0.5-1.2-1.1-1.7-1.7
				c-0.5-0.6-1-1.2-1.9-2.2c-0.1,1.1-0.2,1.6-0.2,2.2c0,5.6,0,11.1,0,16.7c0,2.8-1.3,4.4-3.5,4.4c-2.2,0-3.5-1.6-3.5-4.4
				c0-6,0-12.1,0-18.1c-0.2-0.1-0.4-0.2-0.6-0.3c-1.1,1.2-2.1,2.5-3.3,3.5c-1.6,1.5-3.7,1.5-5.1,0c-1.3-1.4-1.3-3.4,0.2-4.9
				c3.2-3.3,6.4-6.6,9.8-9.8c1.6-1.6,3.5-1.6,5.1,0C153.6,144.4,156.8,147.6,160,150.9z"/>
			<path class="st1" d="M147.6,189.2c17.4,0,31.6-14,31.7-31.4c0.1-17.5-14-31.7-31.5-31.8c-17.4,0-31.6,14-31.7,31.4
				C116.1,174.9,130.2,189.1,147.6,189.2z M123.3,46.4c0.2,5.2,4.8,9.3,10.1,9.4c3.6,0.1,7.2,0,10.7,0c3.2,0,6.3,0,10,0
				c-10.4-12.1-20.5-23.9-30.9-36.1C123.2,29.1,123,37.8,123.3,46.4z M117.9,6.7c2.3,0,4,0.7,5.5,2.5c13.3,15.6,26.7,31.2,40.1,46.8
				c1.3,1.5,1.8,3,1.8,5c0,20.1,0,40.2-0.1,60.3c0,1.5,0.5,2.3,1.8,3c14.2,8.2,21.8,24.7,18.6,40.5c-3.4,16.8-16.3,29-33.1,31.1
				c-13.1,1.6-24.2-2.7-33.2-12.2c-1.1-1.1-2.1-1.5-3.6-1.5c-24,0-47.9,0-71.9,0c-11.6,0-18.9-7.3-18.9-18.9c0-22.9,0-45.9,0-68.8
				c0-22.9,0-45.9,0-68.8c0-11.6,7.3-18.9,18.9-18.9C68.5,6.8,93.2,6.8,117.9,6.7z M32,163.4c0,7.6,4.2,11.8,11.8,11.8
				c22.3,0,44.6,0,66.9,0c0.8,0,1.5,0,2.5,0c-6.5-15.1-5.6-29.3,4.8-42c10.4-12.7,24.2-16.4,40.1-12.9c0-19.2,0-38.3,0-57.2
				c-0.3-0.1-0.4-0.1-0.6-0.1c-7.7,0-15.3,0-23,0c-10.8,0-18.3-7.5-18.3-18.3c0-9.4,0-18.8,0-28.3c0-0.8,0-1.6,0-2.5
				c-1,0-1.7,0-2.4,0c-23.4,0-46.8,0-70.1,0C36.2,13.8,32,18,32,25.5C32,71.5,32,117.4,32,163.4z"/>
			<linearGradient id="SVGID_3_" gradientUnits="userSpaceOnUse" x1="123.1437" y1="37.8473" x2="154.1211" y2="37.8473">
				<stop  offset="0" style="stop-color:#FFFFFF"/>
				<stop  offset="0.2301" style="stop-color:#FCFEFE"/>
				<stop  offset="0.3713" style="stop-color:#F4FCFC"/>
				<stop  offset="0.4886" style="stop-color:#E5F8F8"/>
				<stop  offset="0.5927" style="stop-color:#D1F2F2"/>
				<stop  offset="0.6882" style="stop-color:#B6EAEA"/>
				<stop  offset="0.7773" style="stop-color:#96E1E1"/>
				<stop  offset="0.8615" style="stop-color:#6FD6D6"/>
				<stop  offset="0.9397" style="stop-color:#43C9C9"/>
				<stop  offset="1" style="stop-color:#1CBEBE"/>
			</linearGradient>
			<path class="st4" d="M123.2,19.8c10.5,12.2,20.5,23.9,30.9,36.1c-3.7,0-6.8,0-10,0c-3.6,0-7.2,0.1-10.7,0
				c-5.3-0.1-9.9-4.2-10.1-9.4C123,37.8,123.2,29.1,123.2,19.8z"/>
			<path class="st1" d="M90.7,55.9c2.8,0,4.4,1.3,4.4,3.5c0,2.2-1.6,3.5-4.4,3.5c-5.6,0-11.2,0-16.9,0c-5.5,0-11,0-16.4,0
				c-2.8,0-4.4-1.3-4.4-3.5c0-2.2,1.6-3.5,4.4-3.5C68.5,55.9,79.6,55.9,90.7,55.9z"/>
			<path class="st1" d="M132.2,83.9c-12.4,0-24.8,0-37.3,0c-12.3,0-24.5,0-36.8,0c-0.7,0-1.3,0.1-2-0.1c-1.9-0.4-3-1.5-3-3.4
				c0-1.9,1.1-3.1,3-3.4c0.6-0.1,1.3-0.1,2-0.1c24.7,0,49.4,0,74.1,0c0.7,0,1.3-0.1,2,0.1c1.9,0.4,3,1.5,3,3.5c0,1.9-1.1,3.1-3,3.4
				C133.5,84,132.8,83.9,132.2,83.9z"/>
			<path class="st1" d="M58.1,98c12.4,0,24.7,0,37,0c12.4,0,24.7,0,37,0c0.7,0,1.3-0.1,2,0.1c1.9,0.4,3,1.5,3,3.5
				c0,1.9-1.2,3.1-3,3.4c-0.6,0.1-1.3,0.1-2,0.1c-24.7,0-49.4,0-74.1,0c-0.7,0-1.5,0.1-2.2-0.1c-1.8-0.4-2.8-1.6-2.8-3.4
				c0-1.8,1.1-3,2.8-3.4C56.6,97.9,57.3,98,58.1,98z"/>
		</g>
	</g>
</g>
</svg>
