<?xml version="1.0" encoding="utf-8"?>
<!-- Generator: Adobe Illustrator 25.4.1, SVG Export Plug-In . SVG Version: 6.00 Build 0)  -->
<svg version="1.1" id="Layer_3" xmlns="http://www.w3.org/2000/svg" xmlns:xlink="http://www.w3.org/1999/xlink" x="0px" y="0px"
	 viewBox="0 0 512 512" style="enable-background:new 0 0 512 512;" xml:space="preserve">
<style type="text/css">
	.st0{fill:#DDEBFD;}
	.st1{fill:#BED9FD;}
	.st2{fill:url(#SVGID_1_);stroke:#DDEBFD;stroke-width:6;stroke-miterlimit:10;}
	.st3{fill:url(#SVGID_00000120559380262337755580000016490677007354256781_);stroke:#DDEBFD;stroke-width:6;stroke-miterlimit:10;}
	.st4{fill:url(#SVGID_00000134240359688466442040000015505024003847607741_);stroke:#DDEBFD;stroke-width:6;stroke-miterlimit:10;}
	.st5{fill:url(#SVGID_00000055667452217816732910000016854277442642684810_);stroke:#DDEBFD;stroke-width:6;stroke-miterlimit:10;}
	.st6{fill:#FC6559;}
	.st7{fill:url(#path1255_00000105412759561397740930000004558590621978012061_);}
</style>
<path class="st0" d="M343.4,109.4l-29.1-102H256H110.3C86.2,7.4,66.6,27,66.6,51.1v409.8c0,24.1,19.6,43.7,43.7,43.7H256h145.7
	c24.1,0,43.7-19.6,43.7-43.7V138.5L343.4,109.4z"/>
<path class="st1" d="M445.4,138.5h-102c-16,0-29.1-13.1-29.1-29.1V7.4c3.8,0,7.6,1.5,10.2,4.4L441,128.3
	C443.9,130.9,445.4,134.7,445.4,138.5z"/>
<linearGradient id="SVGID_1_" gradientUnits="userSpaceOnUse" x1="154.0369" y1="226.8677" x2="357.9631" y2="226.8677">
	<stop  offset="0" style="stop-color:#00ADEA"/>
	<stop  offset="1" style="stop-color:#0783E9"/>
</linearGradient>
<path class="st2" d="M168.6,241.4H256h87.4c8.1,0,14.6-6.5,14.6-14.6s-6.5-14.6-14.6-14.6H256h-87.4c-8.1,0-14.6,6.5-14.6,14.6
	S160.6,241.4,168.6,241.4z"/>
<linearGradient id="SVGID_00000158712397444184142620000011091237508266737282_" gradientUnits="userSpaceOnUse" x1="154.0369" y1="401.6615" x2="276.1414" y2="401.6615">
	<stop  offset="0" style="stop-color:#00ADEA"/>
	<stop  offset="1" style="stop-color:#0783E9"/>
</linearGradient>
<path style="fill:url(#SVGID_00000158712397444184142620000011091237508266737282_);stroke:#DDEBFD;stroke-width:6;stroke-miterlimit:10;" d="
	M274.1,393.5c-0.2-0.4-0.5-0.8-0.7-1.1c-1-1.4-2.2-2.6-3.6-3.5c-0.3-0.2-0.7-0.4-1.1-0.6c-0.7-0.4-1.5-0.7-2.3-0.8
	c-0.8-0.2-1.6-0.3-2.5-0.3h-24.4h-73.3c-6.7,0-12.2,6.5-12.2,14.6c0,8.1,5.5,14.6,12.2,14.6h73.3h24.4c0.8,0,1.7-0.1,2.5-0.3
	c0.8-0.2,1.6-0.5,2.3-0.8c0.4-0.2,0.7-0.4,1.1-0.6c1.4-0.9,2.6-2.1,3.6-3.5c0.2-0.4,0.5-0.7,0.7-1.1c0.7-1.2,1.2-2.4,1.5-3.8
	c0.4-1.4,0.5-2.8,0.5-4.3s-0.2-3-0.5-4.3C275.2,396,274.7,394.7,274.1,393.5z"/>
<linearGradient id="SVGID_00000057144899446059421990000017098824696653414046_" gradientUnits="userSpaceOnUse" x1="154.0369" y1="343.3969" x2="357.9631" y2="343.3969">
	<stop  offset="0" style="stop-color:#00ADEA"/>
	<stop  offset="1" style="stop-color:#0783E9"/>
</linearGradient>
<path style="fill:url(#SVGID_00000057144899446059421990000017098824696653414046_);stroke:#DDEBFD;stroke-width:6;stroke-miterlimit:10;" d="
	M343.4,328.8H256h-87.4c-8.1,0-14.6,6.5-14.6,14.6s6.5,14.6,14.6,14.6H256h87.4c8.1,0,14.6-6.5,14.6-14.6S351.4,328.8,343.4,328.8z"
	/>
<linearGradient id="SVGID_00000083770844282011202700000002689103488850159254_" gradientUnits="userSpaceOnUse" x1="154.0369" y1="285.1323" x2="357.9631" y2="285.1323">
	<stop  offset="0" style="stop-color:#00ADEA"/>
	<stop  offset="1" style="stop-color:#0783E9"/>
</linearGradient>
<path style="fill:url(#SVGID_00000083770844282011202700000002689103488850159254_);stroke:#DDEBFD;stroke-width:6;stroke-miterlimit:10;" d="
	M343.4,270.6H256h-87.4c-8.1,0-14.6,6.5-14.6,14.6c0,8.1,6.5,14.6,14.6,14.6H256h87.4c8.1,0,14.6-6.5,14.6-14.6
	C358,277.1,351.4,270.6,343.4,270.6z"/>
<path class="st6" d="M219,92.2h-22.1V70.1c0-4.3-3.5-7.8-7.8-7.8h-22c-4.3,0-7.8,3.5-7.8,7.8v22.1h-22.1c-4.3,0-7.8,3.5-7.8,7.8v22
	c0,4.3,3.5,7.8,7.8,7.8h22.1v22.1c0,4.3,3.5,7.8,7.8,7.8h22c4.3,0,7.8-3.5,7.8-7.8v-22.1H219c4.3,0,7.8-3.5,7.8-7.8v-22
	C226.9,95.7,223.4,92.2,219,92.2z"/>
<g id="g1253" transform="translate(118.064,69.8047)">
	
		<linearGradient id="path1255_00000036245478982961222260000012627018311201719463_" gradientUnits="userSpaceOnUse" x1="158.0773" y1="356.0799" x2="253.6044" y2="356.0799">
		<stop  offset="0" style="stop-color:#00ADEA"/>
		<stop  offset="1" style="stop-color:#0783E9"/>
	</linearGradient>
	<path id="path1255" style="fill:url(#path1255_00000036245478982961222260000012627018311201719463_);" d="M166,377.6
		c3.7-6.3,7.5-12.5,11.4-18.7c2.9-4.6,5.8-9.1,8.8-13.6c1.1-1.5,2.4-3.4,3.2-4.3c0.6-0.7,1.2-1.5,2-2c0.7-0.5,1.1-0.6,1.5-0.3
		c-0.4-0.3,0.2,0.5,0.3,0.8c0.6,1.5,0.2,3.4,0.1,5c-0.3,3.4-0.7,6.8-1,10.1c-0.5,5.9-2.1,15,4.5,18.2c3.6,1.8,7.5-0.2,10.7-2
		c3.3-1.8,6.5-3.6,10-5.1c1-0.4,1.4-0.2,0-0.6c-0.6-0.1-0.1-0.7-0.1-0.1c0,0.7,0.9,2.2,1.2,3c0.8,2.5,1.4,5.1,2.7,7.4
		c5.5,9.6,21,6.2,29.6,3.4c5.2-1.7,2.9-9.9-2.3-8.2c-3.3,1.1-6.7,1.9-10.1,2.3c-2.5,0.3-5.2,0.5-7.7-0.3c-1.9-0.6-2.3-1.4-3-3.4
		c-1.6-4.5-2.7-12-8.8-12.3c-3.6-0.2-7.4,1.8-10.5,3.5c-1.7,1-3.4,2-5.2,3c-0.8,0.4-1.5,0.9-2.3,1.2c-1.7,0.7-0.3,0.3-0.4,0.5
		c0.2-1-0.1-2.5-0.1-3.5c0-1.7,0.1-3.3,0.2-5c0.2-3.3,0.6-6.5,0.9-9.8c0.6-6.2,0.7-14.6-6.8-16.5c-5.8-1.5-10.1,3-13.2,7.1
		c-3,4.1-5.8,8.3-8.5,12.6c-4.9,7.6-9.6,15.4-14.2,23.2C155.9,378.1,163.2,382.3,166,377.6"/>
</g>
</svg>
