<?xml version="1.0" encoding="utf-8"?>
<!-- Generator: Adobe Illustrator 25.4.1, SVG Export Plug-In . SVG Version: 6.00 Build 0)  -->
<svg version="1.1" id="Capa_1" xmlns="http://www.w3.org/2000/svg" xmlns:xlink="http://www.w3.org/1999/xlink" x="0px" y="0px"
	 viewBox="0 0 200 200" style="enable-background:new 0 0 200 200;" xml:space="preserve">
<style type="text/css">
	.st0{fill:#F4F4F4;}
	.st1{fill:#4466AA;}
	.st2{fill:#35589E;}
	.st3{fill:#8FC1EA;}
	.st4{fill:#5B6FA0;}
	.st5{fill:#009AFF;}
	.st6{opacity:0.1;enable-background:new    ;}
	.st7{fill:#E6E9EE;}
	.st8{opacity:0.5;fill:#FFFFFF;enable-background:new    ;}
	.st9{fill:#5D5B68;}
	.st10{opacity:0.15;enable-background:new    ;}
	.st11{fill:#AAB2BD;}
	.st12{fill:#FEC200;}
	.st13{fill:#FF4823;}
	.st14{opacity:0.25;fill:#FFFFFF;enable-background:new    ;}
	.st15{fill:#FFFFFF;}
</style>
<rect x="-2" y="-4" class="st0" width="203.2" height="206"/>
<g id="Capa_3">
</g>
<g>
	<g>
		<path class="st1" d="M39.3,121c-1.8,0-3.2,1.4-3.2,3.2v5.8c0,1.8,1.4,3.2,3.2,3.2H101V121H39.3z"/>
		<path class="st1" d="M64.6,74.1c-1.4-1.4-3.7-1.4-5.2,0l-5.1,5.1c-1.4,1.4-1.4,3.7,0,5.2L75,104.9c1.4,1.4,3.7,1.4,5.2,0l5.1-5.1
			c1.4-1.4,1.4-3.7,0-5.2l-7.5-14.2L64.6,74.1z"/>
		<path class="st1" d="M118.9,30.3l-4.2,4.2l2.8,7.9l7.2,2.1l4.2-4.2c1.2-1.2,1.2-3.3,0-4.5l-5.5-5.5
			C122.2,29.1,120.2,29.1,118.9,30.3z"/>
		<path class="st1" d="M118.2,140.2L106,121c7.7-4.9,12.3-13.3,12.3-22.4c0-5.8-1.9-11.3-5.4-16c-3.4-4.5-8.2-7.8-13.6-9.4l6.5-21.8
			c10,3,18.9,9.2,25.3,17.5c6.5,8.6,10,18.9,10,29.7C141.1,115.6,132.6,131.1,118.2,140.2z"/>
	</g>
	<path class="st2" d="M80.6,133.2H101V121H87.2C84.2,124.5,81.9,128.6,80.6,133.2z"/>
	<path class="st2" d="M115.6,110.5c-2.1,4.2-5.4,7.8-9.5,10.5l12.2,19.2c7.4-4.7,13.2-11.1,17.2-18.5
		C130.5,115.8,123.5,111.7,115.6,110.5z"/>
	<path class="st3" d="M111,118.3c-13,0-23.5,10.5-23.5,23.5v2.7l23.5,5.2l23.5-5.2v-2.7C134.5,128.8,124,118.3,111,118.3z"/>
	<path class="st4" d="M115.7,130.6c0,2.6-2.1,4.7-4.7,4.7s-4.7-2.1-4.7-4.7c0-2.6,2.1-4.7,4.7-4.7S115.7,128,115.7,130.6z"/>
	<path class="st2" d="M105.9,51.4l-6.5,21.8c4.4,1.3,8.4,3.7,11.5,7l16.1-16.1C121.2,58.2,113.9,53.8,105.9,51.4z"/>
	<path class="st3" d="M104.1,34.5L64.6,74.1l20.6,20.6l39.5-39.5c2.9-2.9,2.9-7.7,0-10.6l-10-10C111.8,31.6,107.1,31.6,104.1,34.5z"
		/>
	<path class="st2" d="M134.5,144.5H55.8c-8.9,0-16.2,7.2-16.2,16.2c0,1.3,1.1,2.4,2.4,2.4h106.2c1.3,0,2.4-1.1,2.4-2.4
		C150.7,151.7,143.4,144.5,134.5,144.5z"/>
</g>
<g>
	<path class="st5" d="M-129.1,288.8l-17.2-4.7c-2.6-0.7-5.3,0.8-6,3.4l-10.8,39.2c-0.7,2.6,0.8,5.3,3.4,6l17.2,4.7
		c2.6,0.7,5.3-0.8,6-3.4l3.5-12.7l4.9-17.8l2.4-8.8C-125,292.2-126.5,289.5-129.1,288.8L-129.1,288.8z"/>
	<path class="st6" d="M-136.3,333.3c-12.1-3.3-19.2-15.8-15.9-28l5.8-21.2c-2.6-0.7-5.3,0.8-6,3.4l-10.8,39.2
		c-0.7,2.6,0.8,5.3,3.4,6l17.2,4.7c2.6,0.7,5.3-0.8,6-3.4L-136.3,333.3z"/>
	<path class="st7" d="M-177.4,361.6c-2.5,0-4.6,2.1-4.6,4.6s2.1,4.6,4.6,4.6h9.1l4-9.2H-177.4z"/>
	<path class="st7" d="M-121,312l-4.2,8.3c5.8,4.1,9.6,10.9,9.6,18.5c0,12.4-10,22.5-22.3,22.7l-10.8,2.1l5.7,11l9-4.2
		c15.6-2.1,27.7-15.5,27.7-31.7C-106.4,327.6-112.2,317.7-121,312L-121,312z"/>
	<path class="st8" d="M-106.4,338.9c0-11.2-5.9-21.1-14.7-26.8l-1.9,3.7c7.8,5.2,12.4,13.8,12.4,23.1c0,13.9-10.4,25.7-24.1,27.6
		c-2.2,0.3-3.8,2.4-3.5,4.6c0.1,0.4,0.2,0.8,0.3,1.2l3.7-1.7C-118.5,368.4-106.4,355.1-106.4,338.9L-106.4,338.9z"/>
	<path class="st7" d="M-222.6,282.9h25.2v33.5h-25.2V282.9z"/>
	<path class="st9" d="M-121,379.5h-60.3c-5.1,0-9.2,4.1-9.2,9.2v4.6h78.8v-4.6C-111.8,383.6-115.9,379.5-121,379.5L-121,379.5z"/>
	<path class="st10" d="M-118.6,393c0-5.1-4.1-9.2-9.2-9.2h-60.3c-0.3,0-0.7,0.1-1,0.1c-0.9,1.4-1.4,3.1-1.4,4.9v4.6h71.9L-118.6,393
		z"/>
	<path class="st11" d="M-138.6,360c-0.7-1.5-2.1-2.5-3.8-2.5h-17.5c-1.6,0-3.1,1-3.8,2.5l-8.4,19.5h41.9L-138.6,360z"/>
	<path class="st6" d="M-144.7,375.4c-9.5,0-16-9.1-13.4-17.9h-1.8c-1.6,0-3.1,1-3.8,2.5l-8.4,19.5h41.9l-1.8-4.1H-144.7z"/>
	<path class="st9" d="M-143.1,337.2l-16-4.4l0.2,10.8l10.1,2.8L-143.1,337.2z"/>
	<path class="st6" d="M-147.4,343.6c-4.4-1.2-7.4-5.1-7.5-9.6l-4.2-1.2l0.2,10.8l10.1,2.8l1.7-2.7L-147.4,343.6z"/>
	<path class="st9" d="M-141,276.3l11.2,3.1l-2.4,8.7l-11.2-3.1L-141,276.3z"/>
	<path class="st5" d="M-123.1,271.4l-19.6-5.4c-1.3-0.3-2.7,0.4-3,1.7l-1.2,4.4c-0.3,1.3,0.4,2.7,1.7,3l19.6,5.4
		c1.3,0.3,2.7-0.4,3-1.7l1.2-4.4C-121,273.1-121.8,271.8-123.1,271.4z"/>
	<path class="st6" d="M-141,273c-1.3-0.3-2.1-1.7-1.7-3l1-3.7l-0.9-0.3c-1.3-0.3-2.7,0.4-3,1.7l-1.2,4.4c-0.3,1.3,0.4,2.7,1.7,3
		l19.6,5.4c1.3,0.3,2.7-0.4,3-1.7l0.2-0.6L-141,273z"/>
	<path class="st11" d="M-194.8,272.6h-30.3c-1.1,0-2.1,0.9-2.1,2.1v6.2c0,1.1,0.9,2.1,2.1,2.1h30.3c1.1,0,2.1-0.9,2.1-2.1v-6.2
		C-192.8,273.5-193.7,272.6-194.8,272.6z"/>
	<path class="st6" d="M-216.9,278.8c-1.1,0-2.1-0.9-2.1-2.1v-4.2h-6.2c-1.1,0-2.1,0.9-2.1,2.1v6.2c0,1.1,0.9,2.1,2.1,2.1h30.3
		c1.1,0,2.1-0.9,2.1-2.1v-2.1H-216.9z"/>
	<g>
		<path class="st11" d="M-213.7,292.2c0-1.1-0.9-2.1-2.1-2.1h-6.8v4.1h6.8C-214.7,294.2-213.7,293.3-213.7,292.2z"/>
		<path class="st11" d="M-215.8,298.2h-6.8v4.1h6.8c1.1,0,2.1-0.9,2.1-2.1C-213.8,299.1-214.7,298.2-215.8,298.2z"/>
		<path class="st11" d="M-215.8,306.3h-6.8v4.1h6.8c1.1,0,2.1-0.9,2.1-2.1C-213.8,307.2-214.7,306.3-215.8,306.3z"/>
	</g>
	<path class="st12" d="M-222.6,316.4v12.8c0,7,5.7,12.6,12.6,12.6c7,0,12.6-5.7,12.6-12.6v-12.8H-222.6z"/>
	<path class="st6" d="M-203.8,335.6c-6.9,0-12.6-5.7-12.6-12.6v-40.1h-6.2v46.3c0,6.9,5.7,12.6,12.6,12.6c3.5,0,6.6-1.4,8.9-3.7
		c1-1,1.9-2.3,2.5-3.6C-200.1,335.2-201.9,335.6-203.8,335.6z"/>
	<path class="st13" d="M-171.9,334.4c0,10.4-8.4,18.8-18.8,18.8s-18.8-8.4-18.8-18.8c0-10.4,18.8-34.6,18.8-34.6
		S-171.9,324-171.9,334.4z"/>
	<path class="st14" d="M-193.2,303.1c7,9.1,17.4,25,17.4,31.3c0,2.1,1.5,3.8,3.5,4c0.3-1.3,0.5-2.7,0.5-4
		c0-10.4-18.8-34.6-18.8-34.6S-191.7,301-193.2,303.1L-193.2,303.1z"/>
	<g>
		<path class="st15" d="M-190.7,347.1c-1.1,0-2.1-0.9-2.1-2.1c0-1.1,0.9-2.1,2.1-2.1c4.7,0,8.6-3.8,8.6-8.6c0-1.1,0.9-2.1,2.1-2.1
			c1.1,0,2.1,0.9,2.1,2.1C-178,341.4-183.7,347.1-190.7,347.1L-190.7,347.1z"/>
	</g>
	<path class="st6" d="M-184.5,345c-10.4,0-18.8-8.4-18.8-18.8c0-6.5,7.3-18.3,12.8-26.3c-0.1-0.1-0.1-0.1-0.1-0.1
		s-18.8,24.2-18.8,34.6c0,10.4,8.4,18.8,18.8,18.8c8,0,14.9-5,17.6-12.1C-176.3,343.6-180.2,345-184.5,345L-184.5,345z"/>
	<path class="st14" d="M-125.7,294.8c0.7-2.6-0.8-5.3-3.4-6l-13.4-3.7c-0.6,2.2,0.7,4.5,2.9,5.1l9.4,2.6c0.4,0.1,0.7,0.5,0.5,0.9
		l-2.4,8.8c-0.6,2.2,0.7,4.5,2.9,5.1l1.1-4L-125.7,294.8z"/>
	<g>
		<circle class="st9" cx="-130.2" cy="312.6" r="9.2"/>
		<path class="st10" d="M-125,316.6c-5.1,0-9.2-4.1-9.2-9.2c0-1.2,0.2-2.3,0.6-3.3c-3.5,1.3-5.9,4.7-5.9,8.6c0,5.1,4.1,9.2,9.2,9.2
			c3.9,0,7.3-2.4,8.6-5.9C-122.7,316.3-123.8,316.6-125,316.6L-125,316.6z"/>
		<path class="st15" d="M-130.2,314.6c-1.1,0-2.1-0.9-2.1-2.1c0-1.1,0.9-2.1,2.1-2.1s2.1,0.9,2.1,2.1
			C-128.2,313.7-129.1,314.6-130.2,314.6z"/>
	</g>
</g>
</svg>
