<?xml version="1.0" encoding="utf-8"?>
<!-- Generator: Adobe Illustrator 23.0.4, SVG Export Plug-In . SVG Version: 6.00 Build 0)  -->
<svg version="1.1" id="Capa_1" xmlns="http://www.w3.org/2000/svg" xmlns:xlink="http://www.w3.org/1999/xlink" x="0px" y="0px"
	 viewBox="0 0 200 200" style="enable-background:new 0 0 200 200;" xml:space="preserve">
<style type="text/css">
	.st0{fill:#A06CC1;}
	.st1{fill:#FFFFFF;}
</style>
<rect x="-2" y="-4" class="st0" width="203.2" height="206"/>
<g id="Capa_3">
</g>
<g>
	<g id="XMLID_1_">
		<g>
			<path class="st1" d="M143.1,47.3c3.3,0.6,6,2.2,7.7,5.1c0.9,1.5,1.3,3.3,2,5c0,28.3,0,56.6,0,84.9c-0.1,0.2-0.1,0.3-0.2,0.5
				c-1.2,6-5.8,9.8-11.8,9.8c-10.2,0-20.4,0-30.6,0c-17,0-34,0-50.9,0c-1,0-2-0.1-3-0.3c-5.5-1.3-9-5.9-9-11.7c0-14.7,0-29.3,0-44
				c0-12.4,0-24.9,0-37.3c0-4.1,1.5-7.4,4.8-9.9c1.6-1.2,3.5-1.8,5.5-2.3c28.3,0,56.6,0,84.9,0C142.7,47.2,142.9,47.3,143.1,47.3z
				 M135.2,111.6c0-7.9,0-15.6,0-23.4c-7.8,0-15.5,0-23.4,0c0-7.9,0-15.6,0-23.4c-7.8,0-15.6,0-23.4,0c0,7.8,0,15.6,0,23.4
				c-7.8,0-15.6,0-23.4,0c0,7.9,0,15.6,0,23.5c7.8,0,15.6,0,23.4,0c0,7.9,0,15.6,0,23.3c7.8,0,15.6,0,23.5,0c0-7.8,0-15.6,0-23.4
				C119.7,111.6,127.5,111.6,135.2,111.6z"/>
		</g>
		<g>
		</g>
	</g>
</g>
</svg>
