<?xml version="1.0" encoding="utf-8"?>
<!-- Generator: Adobe Illustrator 25.4.1, SVG Export Plug-In . SVG Version: 6.00 Build 0)  -->
<svg version="1.1" id="Capa_1" xmlns="http://www.w3.org/2000/svg" xmlns:xlink="http://www.w3.org/1999/xlink" x="0px" y="0px"
	 viewBox="0 0 200 200" style="enable-background:new 0 0 200 200;" xml:space="preserve">
<style type="text/css">
	.st0{fill:#AEEAFF;}
	.st1{fill:#DAE3F7;}
	.st2{fill:#95A7C6;}
	.st3{fill:#EAEEF9;}
	.st4{fill:#39C3FC;}
	.st5{fill:#2594EF;}
	.st6{fill:#A1B7D6;}
	.st7{fill:#FB5968;}
	.st8{fill:#67D0F4;}
	.st9{fill:#1974D8;}
	.st10{fill:#F7F6F7;}
	.st11{fill:#EDEBED;}
	.st12{fill:#5BCEE8;}
	.st13{fill:#E84256;}
	.st14{fill:#FFFFFF;}
	.st15{fill:#655E67;}
	.st16{fill:#544F56;}
	.st17{fill:#8B808E;}
	.st18{fill:#766D78;}
</style>
<rect x="-1.6" y="-3" class="st0" width="203.2" height="206"/>
<g>
	<path class="st1" d="M-175.7-30.7h26.1c1,0,1.8,0.9,1.8,1.8v67.2c0,1-0.9,1.8-1.8,1.8h-26.1c-1,0-1.8-0.9-1.8-1.8v-67.2
		C-177.6-29.9-176.8-30.7-175.7-30.7z"/>
	<path class="st1" d="M-250.5-30.7h26.1c1,0,1.8,0.9,1.8,1.8v67.2c0,1-0.9,1.8-1.8,1.8h-26.1c-1,0-1.8-0.9-1.8-1.8v-67.2
		C-252.3-29.9-251.4-30.7-250.5-30.7z"/>
	<path class="st2" d="M-256.1-40.1h31.7c1,0,1.8,0.9,1.8,1.8v9.4c0,1-0.9,1.8-1.8,1.8h-31.7c-1,0-1.8-0.9-1.8-1.8v-9.3
		C-257.9-39.2-257.1-40.1-256.1-40.1z"/>
	<path class="st2" d="M-175.7-40.1h31.7c1,0,1.8,0.9,1.8,1.8v9.4c0,1-0.9,1.8-1.8,1.8h-31.7c-1,0-1.8-0.9-1.8-1.8v-9.3
		C-177.6-39.2-176.8-40.1-175.7-40.1z"/>
	<path class="st3" d="M-224.3-60.6h48.5c1,0,1.8,0.9,1.8,1.8v97.1c0,1-0.9,1.8-1.8,1.8h-48.5c-1,0-1.8-0.9-1.8-1.8v-97
		C-226.2-59.8-225.3-60.6-224.3-60.6z"/>
	<path class="st4" d="M-211.2,10.4h22.4c1,0,1.8,0.9,1.8,1.8v26.1c0,1-0.9,1.8-1.8,1.8h-22.4c-1,0-1.8-0.9-1.8-1.8V12.2
		C-213.1,11.1-212.3,10.4-211.2,10.4z"/>
	<path class="st5" d="M-200,40.3c-1,0-1.8-0.9-1.8-1.8V12.3c0-1,0.9-1.8,1.8-1.8s1.8,0.9,1.8,1.8v26.1
		C-198.2,39.4-199,40.3-200,40.3z"/>
	<path class="st6" d="M-229.9-71.8h59.7c1,0,1.8,0.9,1.8,1.8v11.2c0,1-0.9,1.8-1.8,1.8h-59.7c-1,0-1.8-0.9-1.8-1.8V-70
		C-231.8-70.9-231-71.8-229.9-71.8z"/>
	<path class="st7" d="M-190.7-45.7h-5.6v-5.6c0-1-0.9-1.8-1.8-1.8h-3.8c-1,0-1.8,0.9-1.8,1.8v5.6h-5.6c-1,0-1.8,0.9-1.8,1.8v3.8
		c0,1,0.9,1.8,1.8,1.8h5.6v5.6c0,1,0.9,1.8,1.8,1.8h3.8c1,0,1.8-0.9,1.8-1.8v-5.6h5.6c1,0,1.8-0.9,1.8-1.8v-3.8
		C-188.8-44.8-189.6-45.7-190.7-45.7z"/>
	<g>
		<g>
			<path class="st8" d="M-166.5-23.3h11.2c1,0,1.8,0.9,1.8,1.8v7.4c0,1-0.9,1.8-1.8,1.8h-11.2c-1,0-1.8-0.9-1.8-1.8v-7.4
				C-168.3-22.4-167.4-23.3-166.5-23.3z"/>
			<path class="st8" d="M-166.5-8.4h11.2c1,0,1.8,0.9,1.8,1.8v7.4c0,1-0.9,1.8-1.8,1.8h-11.2c-1,0-1.8-0.9-1.8-1.8v-7.4
				C-168.3-7.5-167.4-8.4-166.5-8.4z"/>
			<path class="st8" d="M-166.5,6.6h11.2c1,0,1.8,0.9,1.8,1.8v7.4c0,1-0.9,1.8-1.8,1.8h-11.2c-1,0-1.8-0.9-1.8-1.8V8.4
				C-168.3,7.5-167.4,6.6-166.5,6.6z"/>
			<path class="st8" d="M-166.5,21.5h11.2c1,0,1.8,0.9,1.8,1.8v7.4c0,1-0.9,1.8-1.8,1.8h-11.2c-1,0-1.8-0.9-1.8-1.8v-7.4
				C-168.3,22.4-167.4,21.5-166.5,21.5z"/>
			<path class="st8" d="M-244.9-23.3h11.2c1,0,1.8,0.9,1.8,1.8v7.4c0,1-0.9,1.8-1.8,1.8h-11.2c-1,0-1.8-0.9-1.8-1.8v-7.4
				C-246.7-22.4-245.8-23.3-244.9-23.3z"/>
			<path class="st8" d="M-244.9-8.4h11.2c1,0,1.8,0.9,1.8,1.8v7.4c0,1-0.9,1.8-1.8,1.8h-11.2c-1,0-1.8-0.9-1.8-1.8v-7.4
				C-246.7-7.5-245.8-8.4-244.9-8.4z"/>
			<path class="st8" d="M-244.9,6.6h11.2c1,0,1.8,0.9,1.8,1.8v7.4c0,1-0.9,1.8-1.8,1.8h-11.2c-1,0-1.8-0.9-1.8-1.8V8.4
				C-246.7,7.5-245.8,6.6-244.9,6.6z"/>
			<path class="st8" d="M-244.9,21.5h11.2c1,0,1.8,0.9,1.8,1.8v7.4c0,1-0.9,1.8-1.8,1.8h-11.2c-1,0-1.8-0.9-1.8-1.8v-7.4
				C-246.7,22.4-245.8,21.5-244.9,21.5z"/>
		</g>
		<path class="st8" d="M-196.3-27h13.1c1,0,1.8,0.9,1.8,1.8v7.4c0,1-0.9,1.8-1.8,1.8h-13.1c-1,0-1.8-0.9-1.8-1.8v-7.4
			C-198.2-26.2-197.3-27-196.3-27z"/>
		<path class="st8" d="M-216.8-27h13.1c1,0,1.8,0.9,1.8,1.8v7.4c0,1-0.9,1.8-1.8,1.8h-13.1c-1,0-1.8-0.9-1.8-1.8v-7.4
			C-218.7-26.2-217.9-27-216.8-27z"/>
		<path class="st8" d="M-196.3-12h13.1c1,0,1.8,0.9,1.8,1.8v7.4c0,1-0.9,1.8-1.8,1.8h-13.1c-1,0-1.8-0.9-1.8-1.8v-7.4
			C-198.2-11.2-197.3-12-196.3-12z"/>
		<path class="st8" d="M-216.8-12h13.1c1,0,1.8,0.9,1.8,1.8v7.4c0,1-0.9,1.8-1.8,1.8h-13.1c-1,0-1.8-0.9-1.8-1.8v-7.4
			C-218.7-11.2-217.9-12-216.8-12z"/>
	</g>
	<path class="st2" d="M-257.9,36.4h115.7c1,0,1.9,0.9,1.9,1.9v7.4c0,1-0.9,1.9-1.9,1.9h-115.7c-1,0-1.9-0.9-1.9-1.9v-7.4
		C-259.8,37.3-258.9,36.4-257.9,36.4z"/>
	<path class="st9" d="M-215,2.8h29.9c1,0,1.8,0.9,1.8,1.8v5.6c0,1-0.9,1.8-1.8,1.8H-215c-1,0-1.8-0.9-1.8-1.8V4.7
		C-216.8,3.7-216,2.8-215,2.8z"/>
</g>
<g>
	<g>
		<g>
			<path class="st10" d="M40.3,152.7h22.6v-84H45.7c-4.1,0-7.4,3.3-7.4,7.4v74.6C38.3,151.8,39.2,152.7,40.3,152.7z"/>
		</g>
		<path class="st11" d="M55.4,68.7h7.4v84h-7.4V68.7z"/>
		<g>
			<path class="st8" d="M62.9,79.9H51.5c-1.1,0-2,0.9-2,2l0,9.2c0,1.1,0.9,2,2,2h11.4L62.9,79.9L62.9,79.9z"/>
			<path class="st8" d="M62.9,104.2H51.5c-1.1,0-2,0.9-2,2l0,9.2c0,1.1,0.9,2,2,2h11.4L62.9,104.2L62.9,104.2z"/>
			<path class="st12" d="M55.4,79.9h7.4V93h-7.4V79.9z"/>
			<path class="st12" d="M55.4,104.2h7.4v13.1h-7.4V104.2z"/>
			<path class="st8" d="M62.9,128.4H51.5c-1.1,0-2,0.9-2,2l0,9.2c0,1.1,0.9,2,2,2h11.4L62.9,128.4L62.9,128.4z"/>
			<path class="st12" d="M55.4,128.4h7.4v13.1h-7.4V128.4z"/>
		</g>
	</g>
	<path class="st10" d="M137.1,152.7h-18.6L100,149l-18.5,3.7H62.8v-94c0-4.1,3.3-7.4,7.4-7.4h59.5c4.1,0,7.4,3.3,7.4,7.4
		L137.1,152.7z"/>
	<path class="st11" d="M129.7,51.3h-7.4c4.1,0,7.4,3.3,7.4,7.4v94h7.4v-94C137.1,54.6,133.8,51.3,129.7,51.3z"/>
	<circle class="st7" cx="100" cy="51.3" r="22"/>
	<path class="st13" d="M100,29.3c-1.3,0-2.5,0.1-3.7,0.3c10.3,1.8,18.2,10.8,18.2,21.7s-7.9,19.9-18.2,21.7c1.2,0.2,2.5,0.3,3.7,0.3
		c12.1,0,22-9.9,22-22S112.1,29.3,100,29.3z"/>
	<path class="st14" d="M113,47.5h-8.6c-0.4,0-0.7-0.3-0.7-0.7v-8.6c0-0.8-0.7-1.5-1.5-1.5h-4.5c-0.8,0-1.5,0.7-1.5,1.5v8.6
		c0,0.4-0.3,0.7-0.7,0.7H87c-0.8,0-1.5,0.7-1.5,1.5v4.5c0,0.8,0.7,1.5,1.5,1.5h8.6c0.4,0,0.7,0.3,0.7,0.7v8.6c0,0.8,0.7,1.5,1.5,1.5
		h4.5c0.8,0,1.5-0.7,1.5-1.5v-8.6c0-0.4,0.3-0.7,0.7-0.7h8.6c0.8,0,1.5-0.7,1.5-1.5V49C114.5,48.2,113.9,47.5,113,47.5L113,47.5z"/>
	<path class="st15" d="M81.5,116.2h37v36.5h-37V116.2z"/>
	<path class="st16" d="M111.1,116.2h7.4v36.5h-7.4V116.2z"/>
	<g>
		<path class="st10" d="M98.1,152.7v-36.5c0-1,0.8-1.9,1.9-1.9s1.9,0.8,1.9,1.9v36.5H98.1z"/>
	</g>
	<g>
		<path class="st10" d="M107.4,138.2c-1,0-1.9-0.8-1.9-1.9v-3.8c0-1,0.8-1.9,1.9-1.9c1,0,1.9,0.8,1.9,1.9v3.8
			C109.3,137.4,108.5,138.2,107.4,138.2z"/>
	</g>
	<g>
		<path class="st10" d="M92.6,138.2c-1,0-1.9-0.8-1.9-1.9v-3.8c0-1,0.8-1.9,1.9-1.9c1,0,1.9,0.8,1.9,1.9v3.8
			C94.4,137.4,93.6,138.2,92.6,138.2z"/>
	</g>
	<path class="st8" d="M92.4,97.6H75.9c-1.1,0-2-0.9-2-2l0-9.2c0-1.1,0.9-2,2-2h16.5c1.1,0,2,0.9,2,2v9.2
		C94.4,96.7,93.5,97.6,92.4,97.6L92.4,97.6z"/>
	<path class="st12" d="M92.4,84.4H85c1.1,0,2,0.9,2,2v9.2c0,1.1-0.9,2-2,2h7.4c1.1,0,2-0.9,2-2v-9.2C94.4,85.3,93.5,84.4,92.4,84.4z
		"/>
	<path class="st8" d="M107.6,84.4H124c1.1,0,2,0.9,2,2l0,9.2c0,1.1-0.9,2-2,2h-16.4c-1.1,0-2-0.9-2-2v-9.2
		C105.6,85.3,106.5,84.4,107.6,84.4z"/>
	<path class="st12" d="M124,84.4h-7.4c1.1,0,2,0.9,2,2l0,9.2c0,1.1-0.9,2-2,2h7.4c1.1,0,2-0.9,2-2l0-9.2
		C126,85.3,125.1,84.4,124,84.4L124,84.4z"/>
	<g>
		<g>
			<path class="st10" d="M159.7,152.7h-22.6v-84h17.1c4.1,0,7.4,3.3,7.4,7.4v74.6C161.7,151.8,160.8,152.7,159.7,152.7z"/>
		</g>
		<path class="st11" d="M154.3,68.7h-7.4c4.1,0,7.4,3.3,7.4,7.4v74.6c0,1.1-0.9,2-2,2h7.4c1.1,0,2-0.9,2-2V76.1
			C161.7,72,158.4,68.7,154.3,68.7z"/>
		<g>
			<path class="st8" d="M137.1,79.9h11.4c1.1,0,2,0.9,2,2l0,9.2c0,1.1-0.9,2-2,2h-11.4"/>
			<path class="st8" d="M137.1,104.2h11.4c1.1,0,2,0.9,2,2l0,9.2c0,1.1-0.9,2-2,2h-11.4V104.2z"/>
			<path class="st8" d="M137.1,128.4h11.4c1.1,0,2,0.9,2,2l0,9.2c0,1.1-0.9,2-2,2h-11.4V128.4z"/>
		</g>
	</g>
	<path class="st17" d="M120.7,108.7H79.3c-0.8,0-1.5,0.7-1.5,1.5v4.5c0,0.8,0.7,1.5,1.5,1.5h41.5c0.8,0,1.5-0.7,1.5-1.5v-4.5
		C122.2,109.4,121.6,108.7,120.7,108.7z"/>
	<path class="st18" d="M120.7,108.7h-7.4c0.8,0,1.5,0.7,1.5,1.5v4.5c0,0.8-0.7,1.5-1.5,1.5h7.4c0.8,0,1.5-0.7,1.5-1.5v-4.5
		C122.2,109.4,121.6,108.7,120.7,108.7z"/>
</g>
</svg>
