<?xml version="1.0" encoding="utf-8"?>
<!-- Generator: Adobe Illustrator 25.4.1, SVG Export Plug-In . SVG Version: 6.00 Build 0)  -->
<svg version="1.1" id="Capa_1" xmlns="http://www.w3.org/2000/svg" xmlns:xlink="http://www.w3.org/1999/xlink" x="0px" y="0px"
	 viewBox="0 0 200 200" style="enable-background:new 0 0 200 200;" xml:space="preserve">
<style type="text/css">
	.st0{fill:#FFFCD2;}
	.st1{fill:#FDC072;}
	.st2{fill:#FFB25A;}
	.st3{fill:#FFDDCF;}
	.st4{fill:#9AC3F4;}
	.st5{fill:#82B1F4;}
	.st6{fill:#ACEAE1;}
	.st7{fill:#9EE8DF;}
	.st8{fill:#91E2D6;}
	.st9{fill:#88D8CC;}
	.st10{fill:#FFCBBE;}
	.st11{fill:#FFA1AC;}
	.st12{fill:#666667;}
	.st13{fill:#9BC6F9;}
	.st14{fill:#7DAEF4;}
	.st15{fill:#3ED6D2;}
	.st16{fill:#77E5DA;}
</style>
<rect x="-2" y="-4" class="st0" width="203.2" height="206"/>
<g id="Capa_3">
</g>
<g>
	<path class="st1" d="M156.2,137.1c-2.4,7.3-9.3,12.2-17,12.2H109c0,0-37.8-40.4-37.8-69.5c0-21.3,9.1-41.3,34.3-53.8
		c28.1,2.5,54.6,24.2,55.9,65.2C162.9,102.5,161,122.5,156.2,137.1L156.2,137.1z"/>
	<path class="st2" d="M123.4,145.7l-14.4,3.6H60.8c-7.7,0-14.5-4.9-17-12.2c-4.8-14.6-6.7-34.5-5.3-45.8C40,45,73.8,23.2,105.6,26
		C91.1,39.4,82,58.5,82,79.8C82,108.8,98.9,133.9,123.4,145.7L123.4,145.7z"/>
</g>
<path class="st3" d="M123.7,138.2c-1.4,0.7-10.6,34.6-10.6,34.6c-2.8,4.2-23.4,4.2-26.2,0c0,0-9.2-33.9-10.6-34.6
	c7.3-2.8,15.3-4.4,23.7-4.4C108.4,133.8,116.3,135.4,123.7,138.2z"/>
<path class="st4" d="M154.4,200h-36.5c-13.5-18.1-4.2-38.2,12.3-58.9c17.7,9.1,30.8,26,34.8,46.1C166.2,193.8,161.2,200,154.4,200z"
	/>
<path class="st5" d="M82.1,200H45.6c-6.8,0-11.8-6.2-10.5-12.8c3.9-20.2,17-37,34.8-46.1C83,163.2,93.6,184.7,82.1,200z"/>
<path class="st6" d="M117.9,167.4V200h-12.6c-13.3-5.7-18.6-16.6-6.5-27.7c2.6,0.5,5.5-0.6,7.2-3.1l1.2-1.8L117.9,167.4L117.9,167.4
	z"/>
<path class="st7" d="M105.3,200H82.1v-32.6h10.8l1.2,1.8c1.2,1.7,2.9,2.8,4.7,3.1C94.7,182,98,193.2,105.3,200z"/>
<path class="st8" d="M131.2,143c1.6,9.4,1.1,16.9-1.1,25.7c-1.1,4.4-5.9,6.6-10,4.7l-12.9-6l12.3-24.9
	C124.3,134.9,130.1,136.8,131.2,143L131.2,143z"/>
<path class="st9" d="M68.9,143c-1.6,9.4-1.1,16.9,1.1,25.7c1.1,4.4,5.9,6.6,10,4.7l12.9-6l-12.3-24.9C75.8,134.9,70,136.8,68.9,143z
	"/>
<g>
	<path class="st3" d="M123.6,145.8c-30.7-6.6-52.1-32.7-52.1-61.9c0-11.1,5.1-24.2,17.3-35.2c3.6-0.8,7.3-1.2,11.2-1.2
		c28.6,0,51.9,23.3,51.9,52C151.9,119.7,140.4,137.2,123.6,145.8L123.6,145.8z"/>
	<path class="st10" d="M123.6,145.8c-7.1,3.6-15.1,5.7-23.6,5.7c-28.6,0-51.9-23.3-51.9-52c0-24.9,17.4-45.6,40.7-50.8
		c-4.4,9.4-6.9,20-6.9,31.1C82,108.9,99,134.1,123.6,145.8L123.6,145.8z"/>
</g>
<g>
	<g>
		<ellipse class="st11" cx="71.5" cy="115.1" rx="10.5" ry="8.4"/>
		<ellipse class="st11" cx="128.5" cy="115.1" rx="10.5" ry="8.4"/>
	</g>
	<g>
		<path class="st12" d="M77.7,109.8c-1.5,0-2.7-1.2-2.7-2.7v-4.3c0-1.5,1.2-2.7,2.7-2.7s2.7,1.2,2.7,2.7v4.3
			C80.3,108.6,79.1,109.8,77.7,109.8z"/>
		<path class="st12" d="M122.3,109.8c-1.5,0-2.7-1.2-2.7-2.7v-4.3c0-1.5,1.2-2.7,2.7-2.7s2.7,1.2,2.7,2.7v4.3
			C125,108.6,123.8,109.8,122.3,109.8z"/>
		<path class="st12" d="M100,112.3c-3,0-5.9-1.3-7.9-3.6c-1-1.1-0.9-2.8,0.3-3.8s2.8-0.9,3.8,0.3c1,1.1,2.4,1.8,3.9,1.8
			s2.9-0.6,3.9-1.8c1-1.1,2.7-1.2,3.8-0.3c1.1,1,1.2,2.7,0.3,3.8C105.9,111,103,112.3,100,112.3L100,112.3z"/>
	</g>
</g>
<g>
	<path class="st1" d="M159,82.1l-5.5,14.2c-1.4,3.7-6.9,2.7-6.9-1.3v-6.2c-16.2,3-39.7-1.4-52.4-15.3c-1.5-1.6-4.1-1.6-5.5,0.2
		c-1.8,2.5-4.1,4.8-6.8,6.9c-2.8-0.9-4.9-1.9-5.1-2.1C64,66.3,79.4,54.9,91.4,43.9c19.1-0.7,38.8,0.9,59,5.2L159,82.1z"/>
	<path class="st2" d="M82,79.8c0,0.3,0,0.6,0,0.9c-8.2,6.6-19.4,11.2-28.6,12v2.4c0,4-5.5,5-6.9,1.3L41,82.1l8.7-33
		c13.7-2.9,27.6-4.7,41.8-5.2C85.4,54.5,82,66.8,82,79.8L82,79.8z"/>
</g>
<path class="st13" d="M161.7,83.9v13.4H151V83.9c0-14.1-5.7-26.8-14.9-36.1c-9.2-9.2-22-14.9-36.1-14.9c-0.3,0-0.7,0-1,0
	c-3.4-4.7-0.2-8.1,10.2-10.1C138.9,27.3,161.7,53,161.7,83.9z"/>
<path class="st14" d="M109.2,22.9c-3.7,3-7.2,6.4-10.2,10.1c-27.7,0.6-50,23.2-50,51v13.4H38.3V83.9c0-17,6.9-32.5,18.1-43.6
	C67.5,29.1,83,22.2,100,22.2C103.1,22.2,106.2,22.4,109.2,22.9L109.2,22.9z"/>
<path class="st14" d="M85.8,133.3H68.7c-11.3,0-20.6-9.2-20.6-20.6v-4.9c0-1.5,1.2-2.7,2.7-2.7s2.7,1.2,2.7,2.7v4.9
	c0,8.4,6.8,15.2,15.2,15.2h17.1c1.5,0,2.7,1.2,2.7,2.7C88.5,132.1,87.3,133.3,85.8,133.3L85.8,133.3z"/>
<path class="st15" d="M94.7,130.6c0-3-2.4-5.4-5.4-5.4h-3.6c-3,0-5.4,2.4-5.4,5.4c0,3,2.4,5.4,5.4,5.4h3.6
	C92.3,136,94.7,133.6,94.7,130.6z"/>
<path class="st15" d="M48.1,116.1c-10.9,0-19.7-8.8-19.7-19.7c0-10.9,8.8-19.7,19.7-19.7c3,0,5.4,2.4,5.4,5.4v28.6
	C53.5,113.7,51.1,116.1,48.1,116.1z"/>
<path class="st16" d="M151.9,116.1c10.9,0,19.7-8.8,19.7-19.7c0-10.9-8.8-19.7-19.7-19.7c-3,0-5.4,2.4-5.4,5.4v28.6
	C146.5,113.7,148.9,116.1,151.9,116.1z"/>
</svg>
