<?xml version="1.0" encoding="utf-8"?>
<!-- Generator: Adobe Illustrator 25.4.1, SVG Export Plug-In . SVG Version: 6.00 Build 0)  -->
<svg version="1.1" id="Capa_1" xmlns="http://www.w3.org/2000/svg" xmlns:xlink="http://www.w3.org/1999/xlink" x="0px" y="0px"
	 viewBox="0 0 512 512" style="enable-background:new 0 0 512 512;" xml:space="preserve">
<style type="text/css">
	.st0{fill:#70CFF0;}
	.st1{fill:#ACE0F3;}
	.st2{fill:#0C84C6;}
	.st3{fill:#B5DCE8;}
	.st4{fill:#D3EEF4;}
	.st5{fill:#CCDDE7;}
	.st6{fill:url(#SVGID_1_);}
	.st7{fill:url(#SVGID_00000003810086644789190250000003094843937521176477_);}
	.st8{fill:url(#SVGID_00000073711668340553034680000010418195941790892200_);}
	.st9{fill:url(#SVGID_00000042696526019988099700000000283093560426065323_);}
	.st10{fill:url(#SVGID_00000157280597466780880600000002431290569496482445_);}
	.st11{fill:url(#SVGID_00000067221852549354049820000004849213016591207094_);}
	.st12{fill:#ACCCE5;}
	.st13{fill:#CBDEF3;}
	.st14{fill:url(#SVGID_00000000210399054796880360000015657600839102025658_);}
	.st15{fill:#FC6559;}
</style>
<path class="st0" d="M155.8,409.8l-56.5,56.4c-3,3.1-8,3.2-11.1,0.2c-0.1-0.1-0.1-0.1-0.2-0.2l-42.3-42.3c-3.1-3-3.2-8-0.2-11.1
	c0.1-0.1,0.1-0.1,0.2-0.2l38.1-38.2l18.3-18.3c3.1-3.1,8.2-3.1,11.4,0l42.3,42.3C158.9,401.6,158.9,406.7,155.8,409.8L155.8,409.8z"
	/>
<path class="st1" d="M115.8,417.8l-38.1,38.1l-32-32c-3.1-3-3.2-8-0.2-11.1c0.1-0.1,0.1-0.1,0.2-0.2l38.1-38.2l32,32
	C118.9,409.6,118.9,414.7,115.8,417.8L115.8,417.8z"/>
<path class="st2" d="M123.3,501.6L10.4,388.6c-3.1-3.1-3.1-8.2,0.1-11.3c3.1-3.1,8.1-3.1,11.2,0l112.9,112.9
	c3.1,3.1,3.1,8.2-0.1,11.3C131.4,504.6,126.4,504.6,123.3,501.6z"/>
<path class="st3" d="M383.9,165.6l-12.6,69.2c-0.3,1.6-1.1,3-2.2,4.2c-30.4,30.4-134.9,134.9-163.8,163.8c-1.5,1.5-3.5,2.4-5.7,2.4
	c-2.1,0-4.2-0.9-5.7-2.4c-44.4-44.5-40.6-40.6-84.6-84.6c-3.1-3.1-3.1-8.2,0-11.4L273,142.9c1.1-1.1,2.6-1.9,4.2-2.2l58.6-10.8
	l10.6-1.9c2.6-0.5,5.2,0.3,7.1,2.2l28.2,28.2C383.5,160.3,384.3,163,383.9,165.6L383.9,165.6z"/>
<path class="st4" d="M335.9,133.6l-12.6,69.2c-0.3,1.6-1.1,3-2.2,4.2c-16.2,16.2-145.3,145.3-161.4,161.4l-50.3-50.3
	c-3.1-3.1-3.1-8.2,0-11.4L273,142.9c1.1-1.1,2.6-1.9,4.2-2.2l58.6-10.8C336,131.1,336.1,132.4,335.9,133.6z"/>
<path class="st5" d="M391.5,120.4c-3.1-3.1-3.1-8.2,0-11.3c0,0,0,0,0,0l98.8-98.8c3.2-3.1,8.2-3.1,11.3,0.1c3.1,3.1,3.1,8.1,0,11.2
	l-98.8,98.8C399.7,123.5,394.7,123.5,391.5,120.4C391.5,120.4,391.5,120.4,391.5,120.4L391.5,120.4z"/>
<path class="st2" d="M212.3,438.1c-10.9,10.9-28.6,10.9-39.5,0l-98.9-98.9c-1.2-1.1-2.2-2.4-3.1-3.8c-8.8-12.7-5.8-30.1,6.9-38.9
	c11.1-7.8,26.2-6.4,35.8,3.2l98.8,98.8C223.1,409.4,223.1,427.1,212.3,438.1z"/>
<linearGradient id="SVGID_1_" gradientUnits="userSpaceOnUse" x1="70.7438" y1="384.8569" x2="215.3838" y2="384.8569">
	<stop  offset="0" style="stop-color:#00ADEA"/>
	<stop  offset="1" style="stop-color:#0783E9"/>
</linearGradient>
<path class="st6" d="M215.4,434.2c-0.9,1.4-1.9,2.7-3.1,3.8c-10.9,10.9-28.6,10.9-39.5,0l-98.9-98.9c-1.2-1.1-2.2-2.4-3.1-3.8
	c0.9-1.4,1.9-2.6,3.1-3.8c11-10.9,28.6-10.9,39.6,0l98.8,98.8C213.4,431.6,214.5,432.9,215.4,434.2L215.4,434.2z"/>
<linearGradient id="SVGID_00000015316024842475332880000010992412823012257424_" gradientUnits="userSpaceOnUse" x1="339.7838" y1="136.5373" x2="410.9822" y2="136.5373">
	<stop  offset="0" style="stop-color:#00ADEA"/>
	<stop  offset="1" style="stop-color:#0783E9"/>
</linearGradient>
<path style="fill:url(#SVGID_00000015316024842475332880000010992412823012257424_);" d="M402.8,148.6c-7.4,7.4-3,2.9-21.1,21.2
	c-3.2,3.1-8.2,3.1-11.4,0l-28.2-28.2c-1.5-1.5-2.3-3.6-2.3-5.7c0-2.1,0.9-4.1,2.3-5.7l21.2-21.1c10.9-10.9,28.6-10.9,39.5,0.1
	C413.7,120.1,413.7,137.7,402.8,148.6L402.8,148.6z"/>
<path class="st2" d="M397.5,154l-15.8,15.8c-3.2,3.1-8.2,3.1-11.4,0l-28.2-28.2c-1.5-1.5-2.3-3.6-2.3-5.7c0-2.1,0.9-4.1,2.3-5.7
	l21.2-21.1c4.9-5.1,11.7-8,18.7-8.2C379.9,109,378.9,126.7,397.5,154L397.5,154z"/>
<path class="st2" d="M381.7,158.5l-28.2-28.2c-1.9-1.8-4.5-2.7-7.1-2.2L279,140.5l-1.8,0.3c-1.6,0.3-3,1-4.2,2.2l-7.1,7.1l96,96
	l7.1-7.1c1.1-1.1,1.9-2.6,2.2-4.2l0.3-1.8l12.3-67.4C384.3,163,383.5,160.3,381.7,158.5L381.7,158.5z"/>
<linearGradient id="SVGID_00000169546214339989916460000010729199173958210699_" gradientUnits="userSpaceOnUse" x1="265.8639" y1="167.9718" x2="336.001" y2="167.9718">
	<stop  offset="0" style="stop-color:#00ADEA"/>
	<stop  offset="1" style="stop-color:#0783E9"/>
</linearGradient>
<path style="fill:url(#SVGID_00000169546214339989916460000010729199173958210699_);" d="M321.7,205.9c0.7-0.9,1.2-2,1.5-3.2
	l12.6-69.2c0.2-1.2,0.2-2.4-0.2-3.6L279,140.5l-1.8,0.3c-1.6,0.3-3,1-4.2,2.2l-7.1,7.1L321.7,205.9z"/>
<linearGradient id="SVGID_00000096059904562737328500000009895736714418124981_" gradientUnits="userSpaceOnUse" x1="283.3394" y1="264.6145" x2="330.9038" y2="264.6145">
	<stop  offset="0" style="stop-color:#00A99D"/>
	<stop  offset="0.1894" style="stop-color:#0FBBB1"/>
	<stop  offset="0.4258" style="stop-color:#1BCBC2"/>
	<stop  offset="0.6836" style="stop-color:#23D5CC"/>
	<stop  offset="1" style="stop-color:#25D8CF"/>
</linearGradient>
<path style="fill:url(#SVGID_00000096059904562737328500000009895736714418124981_);" d="M330.9,277.1l-11.4,11.3l-33.8-33.8
	c-3.1-3.1-3.2-8.2,0-11.3c3.1-3.1,8.2-3.2,11.3,0l0,0L330.9,277.1z"/>
<linearGradient id="SVGID_00000168832969763945122240000017258275482047138186_" gradientUnits="userSpaceOnUse" x1="241.0211" y1="307.0154" x2="288.5038" y2="307.0154">
	<stop  offset="0" style="stop-color:#00A99D"/>
	<stop  offset="0.1894" style="stop-color:#0FBBB1"/>
	<stop  offset="0.4258" style="stop-color:#1BCBC2"/>
	<stop  offset="0.6836" style="stop-color:#23D5CC"/>
	<stop  offset="1" style="stop-color:#25D8CF"/>
</linearGradient>
<path style="fill:url(#SVGID_00000168832969763945122240000017258275482047138186_);" d="M288.5,319.4l-11.3,11.4l-33.9-33.9
	c-3.1-3.2-3-8.2,0.1-11.3c3.1-3.1,8.1-3,11.2,0L288.5,319.4z"/>
<linearGradient id="SVGID_00000057856204581584597040000012284525800907528632_" gradientUnits="userSpaceOnUse" x1="198.6477" y1="349.3286" x2="246.1838" y2="349.3286">
	<stop  offset="0" style="stop-color:#00A99D"/>
	<stop  offset="0.1894" style="stop-color:#0FBBB1"/>
	<stop  offset="0.4258" style="stop-color:#1BCBC2"/>
	<stop  offset="0.6836" style="stop-color:#23D5CC"/>
	<stop  offset="1" style="stop-color:#25D8CF"/>
</linearGradient>
<path style="fill:url(#SVGID_00000057856204581584597040000012284525800907528632_);" d="M246.2,361.7l-11.4,11.4L201,339.2
	c-3.1-3.1-3.1-8.2,0-11.3s8.2-3.1,11.3,0L246.2,361.7z"/>
<path class="st12" d="M488,351.9v128c0,13.2-10.8,24-24,24h-80c-13.2,0-24-10.8-24-24v-128c0-4.4,3.6-8,8-8h112
	C484.4,343.9,488,347.5,488,351.9z"/>
<path class="st13" d="M488,375.9v104c0,4.8-1.4,9.4-4.1,13.4c-86.1-3.7-96.9-59-95.5-92.3c0.7-14.1,12.3-25.1,26.4-25L488,375.9z"/>
<path class="st2" d="M368,279.9h112c13.3,0,24,10.7,24,24v32c0,13.3-10.7,24-24,24H368c-13.3,0-24-10.7-24-24v-32
	C344,290.6,354.8,279.9,368,279.9z"/>
<linearGradient id="SVGID_00000044150484405978287090000012968354409402649239_" gradientUnits="userSpaceOnUse" x1="368.0238" y1="307.8967" x2="504.0238" y2="307.8967">
	<stop  offset="0" style="stop-color:#00ADEA"/>
	<stop  offset="1" style="stop-color:#0783E9"/>
</linearGradient>
<path style="fill:url(#SVGID_00000044150484405978287090000012968354409402649239_);" d="M504,303.9v32H392c-13.2,0-24-10.8-24-24
	v-32h112C493.3,279.9,504,290.7,504,303.9z"/>
<path class="st15" d="M457.5,408.5h-20.1v-20.1h-26.8v20.1h-20.1v26.8h20.1v20.1h26.8v-20.1h20.1L457.5,408.5L457.5,408.5z"/>
</svg>
