<?xml version="1.0" encoding="utf-8"?>
<!-- Generator: Adobe Illustrator 24.2.3, SVG Export Plug-In . SVG Version: 6.00 Build 0)  -->
<svg version="1.1" id="Layer_1" xmlns="http://www.w3.org/2000/svg" xmlns:xlink="http://www.w3.org/1999/xlink" x="0px" y="0px"
	 viewBox="0 0 512 512" style="enable-background:new 0 0 512 512;" xml:space="preserve">
<style type="text/css">
	.st0{fill:url(#SVGID_1_);stroke:#3366CC;stroke-width:15;stroke-linecap:round;stroke-linejoin:round;stroke-miterlimit:10;}
	.st1{fill:url(#SVGID_2_);stroke:#3366CC;stroke-width:15;stroke-linecap:round;stroke-linejoin:round;stroke-miterlimit:10;}
	.st2{fill:url(#SVGID_3_);stroke:#3366CC;stroke-width:15;stroke-linecap:round;stroke-linejoin:round;stroke-miterlimit:10;}
	.st3{fill:#3366CC;}
	.st4{fill:url(#SVGID_4_);}
	.st5{fill:#1CBEBE;}
</style>
<g>
	<linearGradient id="SVGID_1_" gradientUnits="userSpaceOnUse" x1="9" y1="388.9791" x2="140.3812" y2="388.9791">
		<stop  offset="0" style="stop-color:#FFFFFF"/>
		<stop  offset="1" style="stop-color:#1CBEBE"/>
	</linearGradient>
	<polygon class="st0" points="74.7,326.5 95,367.6 140.4,374.2 107.5,406.2 115.3,451.5 74.7,430.1 34.1,451.5 41.8,406.2 9,374.2 
		54.4,367.6 	"/>
	<linearGradient id="SVGID_2_" gradientUnits="userSpaceOnUse" x1="190.5282" y1="388.9791" x2="321.9094" y2="388.9791">
		<stop  offset="0" style="stop-color:#FFFFFF"/>
		<stop  offset="1" style="stop-color:#1CBEBE"/>
	</linearGradient>
	<polygon class="st1" points="256.2,326.5 276.5,367.6 321.9,374.2 289.1,406.2 296.8,451.5 256.2,430.1 215.6,451.5 223.4,406.2 
		190.5,374.2 235.9,367.6 	"/>
	<linearGradient id="SVGID_3_" gradientUnits="userSpaceOnUse" x1="371.6188" y1="388.9791" x2="503" y2="388.9791">
		<stop  offset="0" style="stop-color:#FFFFFF"/>
		<stop  offset="1" style="stop-color:#1CBEBE"/>
	</linearGradient>
	<polygon class="st2" points="437.3,326.5 457.6,367.6 503,374.2 470.2,406.2 477.9,451.5 437.3,430.1 396.7,451.5 404.5,406.2 
		371.6,374.2 417,367.6 	"/>
</g>
<g id="XMLID_1_">
	<g>
		<path class="st3" d="M171.8,141.4c-9.2,0-18.1,0-26.9,0c0,46.4,0,92.5,0,138.8c9.1,0,17.8,0,26.9,0
			C171.8,233.6,171.8,187.5,171.8,141.4z M331.7,298.7c-29.6,0.3-59.2,0.3-88.8-0.2c-5.9-0.1-12-2.5-17.7-4.8
			c-6.9-2.8-13.3-6.7-20-9.7c-4.2-1.9-8.8-3-13.6-4.5c-3.5,14.9-9.2,19.4-23.2,19.4c-7.8,0-15.6,0.1-23.4,0
			c-11.2-0.1-19-7.4-19.1-18.7c-0.2-46.4-0.2-92.8,0-139.2c0-11.2,7.9-18.3,19.3-18.4c8.7-0.1,17.4,0,26.2,0c6,0,10.8,2.2,15,6.5
			c1.4,1.4,4,2.5,5.9,2.3c16.2-1.7,29.4-9.3,37.2-23.5c8.3-15,15.3-30.7,21.9-46.6c4.9-11.7,12.3-19.5,24.9-21.7
			c17.9-3.2,35,10.7,35.4,28.8c0.4,20-3.9,39.2-11.5,57.7c-0.7,1.6-1.3,3.2-2.3,5.7c4.8,0,8.8,0,12.7,0c14.5,0,29,0,43.6,0
			c15.4,0,25.5,6,30.1,17.9c4.6,11.9,1.2,23.1-8.9,32.2c0.3,8,1.8,15.2,0.3,21.7c-1.5,6.3-6.3,11.8-10.4,18.8
			c3.2,7.4,4.6,17.5-1.8,25.5c-5.7,7.1-7,13.1-5.6,22.1C360.2,284.6,346.9,298.5,331.7,298.7z M313.8,243.3c8.3,0,16.7,0.1,25.1-0.1
			c6.1-0.1,9.9-3.8,9.9-9.2c0-5.5-3.7-9.1-9.8-9.2c-5.5-0.1-10.9,0.1-16.3-0.1c-6.7-0.1-11-4.1-10.8-9.6c0.2-5.4,4.3-8.8,10.9-8.9
			c8.3-0.1,16.7,0.1,25-0.1c6.4-0.1,10.6-4,10.6-9.3c0-5.4-4.1-9-10.6-9.2c-5.5-0.1-10.9,0.1-16.3-0.1c-5-0.1-8.8-2.3-9.9-7.5
			c-1.3-6,2.8-10.8,9.5-11c9.1-0.2,18.2,0.1,27.2-0.2c5.7-0.2,9.3-4.2,9.2-9.4c-0.1-5.3-3.6-8.7-9.5-9c-1.4-0.1-2.9,0-4.3,0
			c-27.6,0-55.2,0-82.8,0c-1.6,0-3.3,0.1-4.9,0c-6.1-0.4-9.9-4.1-9.8-9.5c0.1-5.1,3.8-8.7,9.6-9.1c2.9-0.2,5.8,0.2,8.7-0.2
			c1.5-0.2,3.6-1.2,4.1-2.4c7.9-18.4,14.8-37,14.6-57.4c0-2,0-4-0.7-5.9c-1.7-5.2-5.7-7.9-11-8.2c-5.4-0.4-10.1,3.2-12.1,9.2
			c-5.8,17.8-13.6,34.7-23.6,50.5c-11.7,18.6-28.5,29.6-50.4,32.4c-3.9,0.5-4.6,2-4.6,5.5c0.1,33.5,0,67.1,0.1,100.6
			c0,1.8,0.2,3.6,0.2,4.5c7.9,2.4,15,4,21.6,6.7c6.9,2.8,13.2,6.8,20,9.8c3.7,1.7,7.9,3.2,11.9,3.3c28.5,0.3,57,0.3,85.5,0.2
			c5.6,0,9.6-4.1,9.7-9.1c0.1-5.2-4-9.2-9.9-9.4c-5.3-0.1-10.5,0-15.8,0c-7.4-0.1-11.5-3.4-11.4-9.5
			C302.7,246.5,306.6,243.3,313.8,243.3z"/>
		<linearGradient id="SVGID_4_" gradientUnits="userSpaceOnUse" x1="190.7018" y1="168.9669" x2="367.378" y2="168.9669">
			<stop  offset="0" style="stop-color:#FFFFFF"/>
			<stop  offset="0.1709" style="stop-color:#FCFEFE"/>
			<stop  offset="0.3079" style="stop-color:#F2FBFB"/>
			<stop  offset="0.4331" style="stop-color:#E1F6F6"/>
			<stop  offset="0.5513" style="stop-color:#C9F0F0"/>
			<stop  offset="0.6646" style="stop-color:#AAE7E7"/>
			<stop  offset="0.7743" style="stop-color:#85DCDC"/>
			<stop  offset="0.881" style="stop-color:#58CFCF"/>
			<stop  offset="0.9827" style="stop-color:#25C1C1"/>
			<stop  offset="1" style="stop-color:#1CBEBE"/>
		</linearGradient>
		<path class="st4" d="M338.8,243.2c-8.3,0.2-16.7,0-25.1,0.1c-7.2,0-11,3.2-11.1,9.1c-0.1,6,4,9.4,11.4,9.5c5.3,0,10.5-0.1,15.8,0
			c5.8,0.2,10,4.2,9.9,9.4c-0.1,5-4.1,9-9.7,9.1c-28.5,0.1-57,0.1-85.5-0.2c-4-0.1-8.2-1.6-11.9-3.3c-6.8-3-13.1-7-20-9.8
			c-6.6-2.7-13.7-4.3-21.6-6.7c-0.1-0.9-0.2-2.7-0.2-4.5c0-33.5,0-67.1-0.1-100.6c0-3.5,0.8-5,4.6-5.5c21.9-2.8,38.6-13.8,50.4-32.4
			c10-15.8,17.8-32.7,23.6-50.5c2-6,6.7-9.5,12.1-9.2c5.4,0.4,9.3,3,11,8.2c0.6,1.8,0.6,3.9,0.7,5.9c0.2,20.4-6.7,39.1-14.6,57.4
			c-0.5,1.2-2.6,2.2-4.1,2.4c-2.9,0.4-5.8,0-8.7,0.2c-5.8,0.4-9.5,4-9.6,9.1c-0.1,5.3,3.7,9,9.8,9.5c1.6,0.1,3.3,0,4.9,0
			c27.6,0,55.2,0,82.8,0c1.4,0,2.9,0,4.3,0c5.9,0.3,9.4,3.7,9.5,9c0.1,5.2-3.5,9.2-9.2,9.4c-9.1,0.3-18.2,0-27.2,0.2
			c-6.7,0.2-10.8,4.9-9.5,11c1.1,5.2,4.9,7.4,9.9,7.5c5.4,0.1,10.9,0,16.3,0.1c6.5,0.1,10.6,3.7,10.6,9.2c0,5.4-4.2,9.2-10.6,9.3
			c-8.3,0.2-16.7,0-25,0.1c-6.6,0.1-10.7,3.5-10.9,8.9c-0.2,5.5,4.2,9.5,10.8,9.6c5.4,0.1,10.9-0.1,16.3,0.1
			c6.1,0.1,9.9,3.7,9.8,9.2C348.7,239.4,344.9,243.1,338.8,243.2z"/>
		<path class="st5" d="M171.8,280.2c-9.1,0-17.8,0-26.9,0c0-46.3,0-92.3,0-138.8c8.8,0,17.7,0,26.9,0
			C171.8,187.5,171.8,233.6,171.8,280.2z"/>
	</g>
	<g>
	</g>
</g>
</svg>
