<?xml version="1.0" encoding="utf-8"?>
<!-- Generator: Adobe Illustrator 25.4.1, SVG Export Plug-In . SVG Version: 6.00 Build 0)  -->
<svg version="1.1" id="Layer_3" xmlns="http://www.w3.org/2000/svg" xmlns:xlink="http://www.w3.org/1999/xlink" x="0px" y="0px"
	 viewBox="0 0 512 512" style="enable-background:new 0 0 512 512;" xml:space="preserve">
<style type="text/css">
	.st0{fill:#DDEBFD;}
	.st1{fill:#BED9FD;}
	.st2{fill:url(#SVGID_1_);stroke:#DDEBFD;stroke-width:6;stroke-miterlimit:10;}
	.st3{fill:url(#SVGID_00000011011482744663517810000004614508500405683851_);stroke:#DDEBFD;stroke-width:6;stroke-miterlimit:10;}
	.st4{fill:url(#SVGID_00000142877705777047285280000000110729619829780926_);stroke:#DDEBFD;stroke-width:6;stroke-miterlimit:10;}
	.st5{fill:url(#SVGID_00000010297646315135980160000005700539924298437263_);stroke:#DDEBFD;stroke-width:6;stroke-miterlimit:10;}
	.st6{fill:#72BC39;}
</style>
<path class="st0" d="M343.4,109.4l-29.1-102H256H110.3C86.2,7.4,66.6,27,66.6,51.1v409.8c0,24.1,19.6,43.7,43.7,43.7H256h145.7
	c24.1,0,43.7-19.6,43.7-43.7V138.5L343.4,109.4z"/>
<path class="st1" d="M445.4,138.5h-102c-16,0-29.1-13.1-29.1-29.1V7.4c3.8,0,7.6,1.5,10.2,4.4L441,128.3
	C443.9,130.9,445.4,134.7,445.4,138.5z"/>
<linearGradient id="SVGID_1_" gradientUnits="userSpaceOnUse" x1="154" y1="792.8" x2="358" y2="792.8" gradientTransform="matrix(1 0 0 1 0 -566)">
	<stop  offset="0" style="stop-color:#00ADEA"/>
	<stop  offset="1" style="stop-color:#0783E9"/>
</linearGradient>
<path class="st2" d="M168.6,241.4H256h87.4c8.1,0,14.6-6.5,14.6-14.6s-6.5-14.6-14.6-14.6H256h-87.4c-8.1,0-14.6,6.5-14.6,14.6
	S160.6,241.4,168.6,241.4z"/>
<linearGradient id="SVGID_00000080196561468968837540000011411283751844154757_" gradientUnits="userSpaceOnUse" x1="154" y1="909.4" x2="358" y2="909.4" gradientTransform="matrix(1 0 0 1 0 -566)">
	<stop  offset="0" style="stop-color:#00ADEA"/>
	<stop  offset="1" style="stop-color:#0783E9"/>
</linearGradient>
<path style="fill:url(#SVGID_00000080196561468968837540000011411283751844154757_);stroke:#DDEBFD;stroke-width:6;stroke-miterlimit:10;" d="
	M343.4,328.8H256h-87.4c-8.1,0-14.6,6.5-14.6,14.6s6.5,14.6,14.6,14.6H256h87.4c8.1,0,14.6-6.5,14.6-14.6S351.4,328.8,343.4,328.8z"
	/>
<linearGradient id="SVGID_00000061470298935408218200000010767262165275233701_" gradientUnits="userSpaceOnUse" x1="154" y1="963.4" x2="358" y2="963.4" gradientTransform="matrix(1 0 0 1 0 -566)">
	<stop  offset="0" style="stop-color:#00ADEA"/>
	<stop  offset="1" style="stop-color:#0783E9"/>
</linearGradient>
<path style="fill:url(#SVGID_00000061470298935408218200000010767262165275233701_);stroke:#DDEBFD;stroke-width:6;stroke-miterlimit:10;" d="
	M343.4,382.8H256h-87.4c-8.1,0-14.6,6.5-14.6,14.6s6.5,14.6,14.6,14.6H256h87.4c8.1,0,14.6-6.5,14.6-14.6S351.4,382.8,343.4,382.8z"
	/>
<linearGradient id="SVGID_00000149384203999107591720000004722806294115640486_" gradientUnits="userSpaceOnUse" x1="154" y1="851.2" x2="358" y2="851.2" gradientTransform="matrix(1 0 0 1 0 -566)">
	<stop  offset="0" style="stop-color:#00ADEA"/>
	<stop  offset="1" style="stop-color:#0783E9"/>
</linearGradient>
<path style="fill:url(#SVGID_00000149384203999107591720000004722806294115640486_);stroke:#DDEBFD;stroke-width:6;stroke-miterlimit:10;" d="
	M343.4,270.6H256h-87.4c-8.1,0-14.6,6.5-14.6,14.6s6.5,14.6,14.6,14.6H256h87.4c8.1,0,14.6-6.5,14.6-14.6S351.4,270.6,343.4,270.6z"
	/>
<g>
	<g id="XMLID_00000141444743021518595830000014174151133785111990_">
		<g>
			<path class="st6" d="M295.2,135.1c4.3,11.6,1.3,28-13.5,36c-5.1,2.8-10.6,4.2-16.4,4.9c-0.4,0-0.8,0.1-1.2,0.1
				c-0.9,0-1.1,0.4-1.1,1.2c0.1,2.4,0,4.8,0,7.3c0,0.9-0.3,1.1-1.1,1.1c-3.8,0-7.5-0.1-11.3,0c-1,0-1.2-0.3-1.2-1.2
				c0.1-2.3-0.1-4.7,0.1-7c0.1-1.5-0.4-1.9-1.8-2c-9.9-1.3-18.9-5-27-10.9c-1.8-1.2-3.4-2.7-5.1-4c-0.6-0.5-0.8-0.9-0.2-1.6
				c3.2-3.8,6.3-7.7,9.4-11.6c0.6-0.8,0.9-0.6,1.5,0c6.3,5.7,13.6,9.6,21.9,11.8c1.1,0.3,1.2,0,1.2-1c0-4.4,0-8.9,0-13.3
				s0-8.9,0-13.3c0-0.9-0.3-1.2-1.1-1.4c-5.6-1.5-11.2-3.3-16.3-6.1c-6.7-3.7-11.3-9-12.7-16.7c-2.3-12.7,3.1-24.4,14.2-31.1
				c4.6-2.7,9.5-4.4,14.8-5.1c1-0.1,1.2-0.5,1.2-1.4c-0.1-2.2,0-4.5,0-6.7c0-0.8,0.1-1.1,1-1.1c3.9,0,7.7,0,11.6,0
				c0.9,0,1,0.3,1,1.1c0,2.2,0.1,4.4,0,6.6c0,1.2,0.3,1.6,1.5,1.8c6.3,0.7,12.2,2.6,17.9,5.5c3.9,2,7.6,4.4,10.9,7.3
				c0.7,0.6,0.9,1,0.2,1.8c-3,3.9-5.9,7.8-8.7,11.8c-0.5,0.8-0.9,0.8-1.6,0.2c-5.5-4.7-11.7-8-18.7-10c-1.5-0.4-1.5-0.4-1.5,1.1
				c0,8.3,0,16.7,0,25c0,1.1,0.3,1.5,1.4,1.8c6,1.4,12,3.1,17.5,5.9C287.8,124.7,292.8,128.7,295.2,135.1z M274,156.1
				c5.4-4.3,6.8-14.2-1.5-18.6c-2.6-1.4-5.4-2.4-8.2-3.3c-1-0.3-1.2-0.1-1.2,0.9c0,4,0,8,0,12c0,4,0,8,0,12c0,1.1,0.3,1.3,1.3,1.1
				C267.8,159.5,271.1,158.4,274,156.1z M248.3,111.4c0.9,0.4,1.2,0.3,1.2-0.8c-0.1-3.7,0-7.4,0-11.1c0-3.7,0-7.4,0-11.1
				c0-1.1-0.3-1.2-1.2-0.9c-2.4,0.8-4.7,2-6.6,3.7c-5.1,4.6-6.5,13.6,1.9,18.1C245.1,110.1,246.7,110.7,248.3,111.4z"/>
		</g>
		<g>
		</g>
	</g>
</g>
</svg>
