<?xml version="1.0" encoding="utf-8"?>
<!-- Generator: Adobe Illustrator 16.0.0, SVG Export Plug-In . SVG Version: 6.00 Build 0)  -->
<!DOCTYPE svg PUBLIC "-//W3C//DTD SVG 1.1//EN" "http://www.w3.org/Graphics/SVG/1.1/DTD/svg11.dtd">
<svg version="1.1" id="Layer_1" xmlns="http://www.w3.org/2000/svg" xmlns:xlink="http://www.w3.org/1999/xlink" x="0px" y="0px"
	 width="327.434px" height="81.506px" viewBox="0 0 327.434 81.506" enable-background="new 0 0 327.434 81.506"
	 xml:space="preserve">
<g>
	<g>
		<g>
			<circle fill="#22ae8a" stroke="#595955" stroke-width="0.75" stroke-miterlimit="10" cx="20.25" cy="19.375" r="19"/>
			<g>
				<circle fill="#595955" cx="12.75" cy="19.375" r="2.25"/>
				<circle fill="#595955" cx="27.75" cy="19.375" r="2.25"/>
			</g>
			<path fill="none" stroke="#595955" stroke-linecap="round" stroke-miterlimit="10" d="M27.494,27.631
				c-1.854,1.851-4.413,2.994-7.24,2.994c-2.83,0-5.393-1.146-7.248-3.001"/>
		</g>
		<g>
			<circle fill="#FFC743" stroke="#595955" stroke-width="0.75" stroke-miterlimit="10" cx="131.483" cy="19.375" r="19"/>
			<g>
				<circle fill="#595955" cx="123.983" cy="19.375" r="2.25"/>
				<circle fill="#595955" cx="138.983" cy="19.375" r="2.25"/>
			</g>
			<path fill="none" stroke="#595955" stroke-linecap="round" stroke-miterlimit="10" d="M124.239,30.618
				c1.854-1.851,4.413-2.994,7.24-2.994c2.83,0,5.393,1.146,7.248,3.001"/>
		</g>
		<g>
			<circle fill="#CCDE94" stroke="#595955" stroke-width="0.75" stroke-miterlimit="10" cx="75.866" cy="19.375" r="19"/>
			<g>
				<circle fill="#595955" cx="68.366" cy="19.375" r="2.25"/>
				<circle fill="#595955" cx="83.366" cy="19.375" r="2.25"/>
			</g>

				<line fill="none" stroke="#595955" stroke-linecap="round" stroke-miterlimit="10" x1="67.866" y1="29.125" x2="83.866" y2="29.125"/>
		</g>
		<g>
			<circle fill="#fa7268" stroke="#595955" stroke-width="0.75" stroke-miterlimit="10" cx="187.099" cy="19.375" r="19"/>
			<g>
				<circle fill="#595955" cx="179.599" cy="19.375" r="2.25"/>
				<circle fill="#595955" cx="194.599" cy="19.375" r="2.25"/>
			</g>
			<path fill="none" stroke="#595955" stroke-linecap="round" stroke-miterlimit="10" d="M180.057,30.167c0,0,2.542-1.813,4-1.833
				c1.479-0.021,2.481,1.75,3.917,1.833c1.438,0.083,2.25-1.854,3.916-1.833c1.461,0.019,3.771,1.605,4,1.833"/>
		</g>
		<g>
			<circle fill="#fa7268" stroke="#595955" stroke-width="0.75" stroke-miterlimit="10" cx="242.716" cy="19.375" r="19"/>
			<g>
				<circle fill="#595955" cx="235.216" cy="19.375" r="2.25"/>
				<circle fill="#595955" cx="250.216" cy="19.375" r="2.25"/>
			</g>
			<path fill="none" stroke="#595955" stroke-linecap="round" stroke-miterlimit="10" d="M235.472,30.618
				c1.854-1.851,4.413-2.994,7.24-2.994c2.83,0,5.393,1.146,7.248,3.001"/>
			<path fill="#595955" d="M235.253,27.197c0,0.592-0.518,1.072-1.156,1.072s-1.156-0.48-1.156-1.072
				c0-0.593,0.518-3.291,1.156-3.291S235.253,26.604,235.253,27.197z"/>
		</g>
		<g>
			<circle fill="#B372B0" stroke="#595955" stroke-width="0.75" stroke-miterlimit="10" cx="298.333" cy="19.375" r="19"/>
			<path fill="#595955" d="M290.344,26.683c0,0.451-0.395,0.817-0.881,0.817s-0.881-0.366-0.881-0.817
				c0-0.452,0.395-2.507,0.881-2.507S290.344,26.231,290.344,26.683z"/>
			<ellipse fill="#595955" cx="298.333" cy="29.125" rx="6.25" ry="5"/>
			<g>
				<line fill="none" stroke="#595955" stroke-miterlimit="10" x1="294.333" y1="17.875" x2="287.083" y2="20.375"/>
				<line fill="none" stroke="#595955" stroke-miterlimit="10" x1="302.333" y1="17.875" x2="309.583" y2="20.375"/>
			</g>
		</g>
	</g>
	<g>
		<text transform="matrix(1 0 0 1 0 79.2563)" fill="#595A5C" font-family="'Montserrat-Bold'" font-size="9">Sin dolor</text>
		<text transform="matrix(1 0 0 1 108.0742 79.2563)" fill="#595A5C" font-family="'Montserrat-Bold'" font-size="9">Moderado</text>
		<text transform="matrix(1 0 0 1 65.1475 79.2563)" fill="#595A5C" font-family="'Montserrat-Bold'" font-size="9">Leve</text>
		<text transform="matrix(1 0 0 1 161.2378 79.2563)" fill="#595A5C" font-family="'Montserrat-Bold'" font-size="9">Angustioso</text>
		<text transform="matrix(1 0 0 1 226.9478 79.2563)" fill="#595A5C" font-family="'Montserrat-Bold'" font-size="9">Severo</text>
		<text transform="matrix(1 0 0 1 269.231 79.2563)" fill="#595A5C" font-family="'Montserrat-Bold'" font-size="9">Insoportable</text>
		<g>
			<text transform="matrix(1 0 0 1 46.2432 50.7563)" fill="#595A5C" font-family="'Montserrat-Bold'" font-size="9">1</text>
			<text transform="matrix(1 0 0 1 17.1445 50.7563)" fill="#595A5C" font-family="'Montserrat-Bold'" font-size="9">0</text>
			<text transform="matrix(1 0 0 1 101.0151 50.7563)" fill="#595A5C" font-family="'Montserrat-Bold'" font-size="9">3</text>
			<text transform="matrix(1 0 0 1 156.6099 50.7563)" fill="#595A5C" font-family="'Montserrat-Bold'" font-size="9">5</text>
			<text transform="matrix(1 0 0 1 212.3022 50.7563)" fill="#595A5C" font-family="'Montserrat-Bold'" font-size="9">7</text>
			<text transform="matrix(1 0 0 1 267.6938 50.7563)" fill="#595A5C" font-family="'Montserrat-Bold'" font-size="9">9</text>
			<text transform="matrix(1 0 0 1 239.8276 50.7563)" fill="#595A5C" font-family="'Montserrat-Bold'" font-size="9">8</text>
			<text transform="matrix(1 0 0 1 184.2642 50.7563)" fill="#595A5C" font-family="'Montserrat-Bold'" font-size="9">6</text>
			<text transform="matrix(1 0 0 1 128.8369 50.7563)" fill="#595A5C" font-family="'Montserrat-Bold'" font-size="9">4</text>
			<text transform="matrix(1 0 0 1 73.1436 50.7563)" fill="#595A5C" font-family="'Montserrat-Bold'" font-size="9">2</text>
			<text transform="matrix(1 0 0 1 293.4146 50.7563)" fill="#595A5C" font-family="'Montserrat-Bold'" font-size="9">10</text>
			<g>

					<line fill="none" stroke="#595955" stroke-width="0.75" stroke-miterlimit="10" x1="19.832" y1="62.375" x2="298.666" y2="62.375"/>

					<line fill="none" stroke="#595955" stroke-width="0.75" stroke-miterlimit="10" x1="20.25" y1="56.375" x2="20.25" y2="67.875"/>

					<line fill="none" stroke="#595955" stroke-width="0.75" stroke-miterlimit="10" x1="48.057" y1="56.375" x2="48.057" y2="62.375"/>

					<line fill="none" stroke="#595955" stroke-width="0.75" stroke-miterlimit="10" x1="75.866" y1="56.375" x2="75.866" y2="67.875"/>

					<line fill="none" stroke="#595955" stroke-width="0.75" stroke-miterlimit="10" x1="103.674" y1="56.375" x2="103.674" y2="62.375"/>

					<line fill="none" stroke="#595955" stroke-width="0.75" stroke-miterlimit="10" x1="159.292" y1="56.375" x2="159.292" y2="62.375"/>

					<line fill="none" stroke="#595955" stroke-width="0.75" stroke-miterlimit="10" x1="214.908" y1="56.375" x2="214.908" y2="62.375"/>

					<line fill="none" stroke="#595955" stroke-width="0.75" stroke-miterlimit="10" x1="270.524" y1="56.375" x2="270.524" y2="62.375"/>

					<line fill="none" stroke="#595955" stroke-width="0.75" stroke-miterlimit="10" x1="131.483" y1="56.375" x2="131.483" y2="67.875"/>

					<line fill="none" stroke="#595955" stroke-width="0.75" stroke-miterlimit="10" x1="187.099" y1="56.375" x2="187.099" y2="67.875"/>

					<line fill="none" stroke="#595955" stroke-width="0.75" stroke-miterlimit="10" x1="242.716" y1="56.375" x2="242.716" y2="67.875"/>

					<line fill="none" stroke="#595955" stroke-width="0.75" stroke-miterlimit="10" x1="298.333" y1="56.375" x2="298.333" y2="67.875"/>
			</g>
		</g>
	</g>
</g>
</svg>
