<?xml version="1.0" encoding="utf-8"?>
<!-- Generator: Adobe Illustrator 16.0.0, SVG Export Plug-In . SVG Version: 6.00 Build 0)  -->
<!DOCTYPE svg PUBLIC "-//W3C//DTD SVG 1.1//EN" "http://www.w3.org/Graphics/SVG/1.1/DTD/svg11.dtd">
<svg version="1.1" id="Layer_1" xmlns="http://www.w3.org/2000/svg" xmlns:xlink="http://www.w3.org/1999/xlink" x="0px" y="0px"
	 width="200px" height="200px" viewBox="0 0 200 200" enable-background="new 0 0 200 200" xml:space="preserve">
<g>
	<g>
		<path fill="#fa7268" d="M58.211,58.211c-23.085,23.084-23.085,60.501,0,83.578c23.084,23.069,60.502,23.077,83.571,0
			c23.084-23.084,23.084-60.502,0-83.578C118.705,35.134,81.28,35.134,58.211,58.211z M131.4,103.696H99.895
			c-0.06,0-0.104,0.029-0.157,0.029c-2.187,0-3.959-1.772-3.959-3.959V60.164c0-2.187,1.772-3.959,3.959-3.959
			c2.179,0,3.959,1.772,3.959,3.959v35.614H131.4c2.179,0,3.951,1.772,3.951,3.959C135.352,101.915,133.579,103.696,131.4,103.696z"
			/>
	</g>
	<g>
		<path fill="#fa7268" d="M100,0C44.771,0,0,44.771,0,100c0,55.221,44.771,100,100,100s100-44.779,100-100
			C200,44.771,155.229,0,100,0z M100,186.666c-47.784,0-86.666-38.875-86.666-86.666c0-47.792,38.882-86.666,86.666-86.666
			S186.666,52.208,186.666,100C186.666,147.791,147.784,186.666,100,186.666z"/>
	</g>
</g>
</svg>
