<?xml version="1.0" encoding="utf-8"?>
<!-- Generator: Adobe Illustrator 16.0.0, SVG Export Plug-In . SVG Version: 6.00 Build 0)  -->
<!DOCTYPE svg PUBLIC "-//W3C//DTD SVG 1.1//EN" "http://www.w3.org/Graphics/SVG/1.1/DTD/svg11.dtd">
<svg version="1.1" id="Layer_1" xmlns="http://www.w3.org/2000/svg" xmlns:xlink="http://www.w3.org/1999/xlink" x="0px" y="0px"
	 width="200px" height="200px" viewBox="0 0 200 200" enable-background="new 0 0 200 200" xml:space="preserve">
<g>
	<g>
		<path d="M92.788,60.359c0-9.653-8.368-18.029-18.028-18.029c-9.646,0-18.029,8.376-18.029,18.029
			c0,9.646,8.384,18.028,18.029,18.028C84.42,78.388,92.788,70.005,92.788,60.359z M105.408,128.869
			c0-28.847-14.964-43.27-31.55-43.27c-16.571,0-31.551,14.423-31.551,43.27C42.308,148.618,105.408,148.618,105.408,128.869z
			 M127.043,92.413c9.661,0,18.029-8.376,18.029-18.029c0-9.652-8.368-18.028-18.029-18.028c-9.646,0-18.028,8.376-18.028,18.028
			C109.015,84.037,117.397,92.413,127.043,92.413z M126.142,99.624c-4.973,0-9.75,1.465-14.077,4.079
			c2.614,7.031,4.161,15.377,4.161,25.166c0,9.713-6.475,17.27-17.578,21.597c13.777,11.674,59.045,9.18,59.045-7.572
			C157.692,114.048,142.729,99.624,126.142,99.624z"/>
	</g>
	<g>
		<path d="M100,0C44.771,0,0,44.771,0,100c0,55.221,44.771,100,100,100s100-44.779,100-100
			C200,44.771,155.229,0,100,0z M100,186.666c-47.776,0-86.658-38.875-86.658-86.666S52.224,13.334,100,13.334
			c47.791,0,86.674,38.875,86.674,86.666S147.791,186.666,100,186.666z"/>
	</g>
</g>
</svg>
