<?xml version="1.0" encoding="utf-8"?>
<!-- Generator: Adobe Illustrator 16.0.0, SVG Export Plug-In . SVG Version: 6.00 Build 0)  -->
<!DOCTYPE svg PUBLIC "-//W3C//DTD SVG 1.1//EN" "http://www.w3.org/Graphics/SVG/1.1/DTD/svg11.dtd">
<svg version="1.1" id="Layer_1" xmlns="http://www.w3.org/2000/svg" xmlns:xlink="http://www.w3.org/1999/xlink" x="0px" y="0px"
	 width="200px" height="200px" viewBox="0 0 200 200" enable-background="new 0 0 200 200" xml:space="preserve">
<g>
	<path fill="#22ae8a" d="M149.062,57.948H50.939c-3.869,0-7.009,3.14-7.009,7.009v70.086c0,3.869,3.14,7.01,7.009,7.01h98.122
		c3.866,0,7.008-3.141,7.008-7.01V64.957C156.069,61.088,152.928,57.948,149.062,57.948z M83.739,107.2l16.275,11.058l16.176-11.137
		l27.916,27.922H55.895L83.739,107.2z M50.939,130.088V84.896l26.898,18.286L50.939,130.088z M122.057,103.084l27.005-18.586v45.59
		L122.057,103.084z M149.062,64.957v11.34l-0.148-0.211l-48.926,33.692L50.939,76.43V64.957H149.062z"/>
</g>
<g>
	<g>
		<path fill="#22ae8a" d="M100-0.002C44.771-0.002,0,44.771,0,99.999c0,55.221,44.771,100.003,100,100.003S200,155.22,200,99.999
			C200,44.771,155.229-0.002,100-0.002z M100,186.661c-47.776,0-86.658-38.871-86.658-86.662c0-47.792,38.882-86.667,86.658-86.667
			c47.791,0,86.674,38.875,86.674,86.667C186.674,147.79,147.791,186.661,100,186.661z"/>
	</g>
</g>
</svg>
