<?xml version="1.0" encoding="utf-8"?>
<!-- Generator: Adobe Illustrator 25.4.1, SVG Export Plug-In . SVG Version: 6.00 Build 0)  -->
<svg version="1.1" id="Capa_1" xmlns="http://www.w3.org/2000/svg" xmlns:xlink="http://www.w3.org/1999/xlink" x="0px" y="0px"
	 viewBox="0 0 300 75" style="enable-background:new 0 0 300 75;" xml:space="preserve">
<style type="text/css">
	.st0{enable-background:new    ;}
	.st1{fill:#0E4C97;}
	.st2{fill:#E91010;}
</style>
<g class="st0">
	<path class="st1" d="M71.53,26.77v3.58h-7.47v3.87h5.59v3.48h-5.59v7.42h-4.47V26.77H71.53z"/>
	<path class="st1" d="M85.3,41.88h-6.85l-1.1,3.24h-4.68l6.64-18.34h5.17l6.64,18.34H86.4L85.3,41.88z M84.15,38.42l-2.27-6.72
		l-2.25,6.72H84.15z"/>
	<path class="st1" d="M102.5,45.12l-3.82-6.92h-1.07v6.92h-4.47V26.77h7.5c1.45,0,2.68,0.25,3.7,0.76c1.02,0.5,1.78,1.2,2.29,2.08
		s0.76,1.86,0.76,2.94c0,1.22-0.34,2.31-1.03,3.27c-0.69,0.96-1.7,1.64-3.04,2.04l4.23,7.26H102.5z M97.61,35.03h2.77
		c0.82,0,1.43-0.2,1.84-0.6c0.41-0.4,0.61-0.97,0.61-1.7c0-0.7-0.21-1.25-0.61-1.65c-0.41-0.4-1.02-0.6-1.84-0.6h-2.77V35.03z"/>
	<path class="st1" d="M130.96,26.77v18.34h-4.47v-11l-4.1,11h-3.61l-4.13-11.03v11.03h-4.47V26.77h5.28l5.15,12.7l5.1-12.7H130.96z"
		/>
	<path class="st1" d="M145.59,41.88h-6.85l-1.1,3.24h-4.68l6.64-18.34h5.17l6.64,18.34h-4.73L145.59,41.88z M144.44,38.42
		l-2.27-6.72l-2.25,6.72H144.44z"/>
	<path class="st1" d="M153.85,31.07c0.78-1.42,1.88-2.53,3.28-3.32s2.99-1.19,4.77-1.19c2.18,0,4.04,0.58,5.59,1.73
		c1.55,1.15,2.59,2.72,3.11,4.7h-4.91c-0.37-0.77-0.88-1.35-1.55-1.75c-0.67-0.4-1.43-0.6-2.29-0.6c-1.38,0-2.49,0.48-3.34,1.44
		c-0.85,0.96-1.28,2.24-1.28,3.84c0,1.6,0.43,2.88,1.28,3.84c0.85,0.96,1.97,1.44,3.34,1.44c0.85,0,1.62-0.2,2.29-0.6
		c0.67-0.4,1.19-0.98,1.55-1.75h4.91c-0.52,1.99-1.56,3.55-3.11,4.69c-1.55,1.14-3.41,1.71-5.59,1.71c-1.78,0-3.37-0.4-4.77-1.19
		c-1.4-0.79-2.5-1.89-3.28-3.31c-0.78-1.41-1.18-3.02-1.18-4.83C152.67,34.1,153.06,32.49,153.85,31.07z"/>
	<path class="st1" d="M182.7,45.12l-3.81-6.92h-1.07v6.92h-4.47V26.77h7.5c1.45,0,2.68,0.25,3.7,0.76c1.02,0.5,1.78,1.2,2.29,2.08
		c0.51,0.88,0.76,1.86,0.76,2.94c0,1.22-0.34,2.31-1.03,3.27c-0.69,0.96-1.7,1.64-3.04,2.04l4.23,7.26H182.7z M177.81,35.03h2.77
		c0.82,0,1.43-0.2,1.84-0.6c0.41-0.4,0.61-0.97,0.61-1.7c0-0.7-0.21-1.25-0.61-1.65c-0.41-0.4-1.02-0.6-1.84-0.6h-2.77V35.03z"/>
	<path class="st1" d="M194.31,44.1c-1.44-0.8-2.58-1.92-3.42-3.36c-0.85-1.44-1.27-3.05-1.27-4.85s0.42-3.41,1.27-4.83
		c0.84-1.43,1.99-2.54,3.42-3.34c1.44-0.8,3.02-1.2,4.74-1.2s3.31,0.4,4.74,1.2c1.44,0.8,2.57,1.92,3.4,3.34
		c0.83,1.43,1.24,3.04,1.24,4.83s-0.42,3.41-1.25,4.85s-1.97,2.56-3.4,3.36c-1.43,0.8-3.01,1.2-4.73,1.2S195.75,44.9,194.31,44.1z
		 M202.57,39.76c0.88-0.98,1.32-2.26,1.32-3.87c0-1.62-0.44-2.91-1.32-3.88s-2.05-1.45-3.51-1.45c-1.48,0-2.66,0.48-3.54,1.44
		c-0.88,0.96-1.32,2.26-1.32,3.89c0,1.62,0.44,2.91,1.32,3.88c0.88,0.97,2.06,1.45,3.54,1.45
		C200.52,41.22,201.69,40.73,202.57,39.76z M202.09,23.08l-6.3,2.64v-3.08l6.3-3.03V23.08z"/>
	<path class="st1" d="M227.33,45.12h-4.47l-7.47-11.32v11.32h-4.47V26.77h4.47l7.47,11.37V26.77h4.47V45.12z"/>
	<path class="st1" d="M235.04,26.77v18.34h-4.47V26.77H235.04z"/>
	<path class="st1" d="M238.7,31.07c0.78-1.42,1.88-2.53,3.28-3.32s2.99-1.19,4.77-1.19c2.18,0,4.04,0.58,5.59,1.73
		c1.55,1.15,2.59,2.72,3.11,4.7h-4.91c-0.37-0.77-0.88-1.35-1.55-1.75c-0.67-0.4-1.43-0.6-2.29-0.6c-1.38,0-2.49,0.48-3.34,1.44
		c-0.85,0.96-1.28,2.24-1.28,3.84c0,1.6,0.43,2.88,1.28,3.84c0.85,0.96,1.97,1.44,3.34,1.44c0.85,0,1.62-0.2,2.29-0.6
		c0.67-0.4,1.19-0.98,1.55-1.75h4.91c-0.52,1.99-1.56,3.55-3.11,4.69c-1.55,1.14-3.42,1.71-5.59,1.71c-1.78,0-3.37-0.4-4.77-1.19
		c-1.4-0.79-2.5-1.89-3.28-3.31c-0.78-1.41-1.18-3.02-1.18-4.83C237.52,34.1,237.92,32.49,238.7,31.07z"/>
	<path class="st1" d="M262.13,44.1c-1.44-0.8-2.58-1.92-3.42-3.36s-1.27-3.05-1.27-4.85s0.42-3.41,1.27-4.83
		c0.84-1.43,1.99-2.54,3.42-3.34c1.44-0.8,3.02-1.2,4.74-1.2c1.72,0,3.3,0.4,4.74,1.2c1.44,0.8,2.57,1.92,3.4,3.34
		c0.83,1.43,1.24,3.04,1.24,4.83s-0.42,3.41-1.25,4.85s-1.97,2.56-3.4,3.36c-1.43,0.8-3,1.2-4.73,1.2
		C265.15,45.3,263.56,44.9,262.13,44.1z M270.38,39.76c0.88-0.98,1.32-2.26,1.32-3.87c0-1.62-0.44-2.91-1.32-3.88
		c-0.88-0.97-2.05-1.45-3.51-1.45c-1.48,0-2.66,0.48-3.54,1.44c-0.88,0.96-1.32,2.26-1.32,3.89c0,1.62,0.44,2.91,1.32,3.88
		c0.88,0.97,2.06,1.45,3.54,1.45C268.33,41.22,269.51,40.73,270.38,39.76z"/>
	<path class="st1" d="M281.77,44.64c-1.06-0.43-1.91-1.08-2.55-1.93s-0.97-1.88-1.01-3.08h4.76c0.07,0.68,0.3,1.2,0.71,1.56
		c0.4,0.36,0.92,0.54,1.57,0.54c0.66,0,1.18-0.15,1.57-0.46c0.38-0.3,0.58-0.73,0.58-1.27c0-0.45-0.15-0.83-0.46-1.12
		c-0.31-0.3-0.68-0.54-1.12-0.73c-0.44-0.19-1.08-0.41-1.89-0.65c-1.18-0.37-2.15-0.73-2.9-1.1c-0.75-0.37-1.39-0.91-1.93-1.62
		c-0.54-0.71-0.81-1.65-0.81-2.8c0-1.71,0.62-3.04,1.86-4.01c1.24-0.97,2.85-1.45,4.83-1.45c2.02,0,3.65,0.48,4.89,1.45
		s1.9,2.31,1.99,4.04h-4.83c-0.04-0.59-0.25-1.06-0.65-1.4s-0.92-0.51-1.54-0.51c-0.54,0-0.98,0.14-1.31,0.43
		c-0.33,0.29-0.5,0.7-0.5,1.24c0,0.59,0.28,1.05,0.84,1.38s1.43,0.69,2.61,1.07c1.19,0.4,2.15,0.78,2.89,1.15
		c0.74,0.37,1.38,0.9,1.92,1.59c0.54,0.7,0.81,1.59,0.81,2.69c0,1.05-0.27,2-0.8,2.85c-0.53,0.85-1.3,1.53-2.31,2.04
		c-1.01,0.51-2.2,0.76-3.58,0.76C284.03,45.3,282.83,45.08,281.77,44.64z"/>
</g>
<g>
	<path class="st2" d="M49.04,41.76H37.72v11.51H26.93V41.76H15.62V31.49h11.31V19.92h10.79V31.5h11.31L49.04,41.76L49.04,41.76z"/>
</g>
<g>
	<path class="st1" d="M30.34,19.75v6.59H16.29v7.51h10.86v6.3H16.29v13.86H8V19.75H30.34z"/>
</g>
</svg>
