<?xml version="1.0" encoding="utf-8"?>
<!-- Generator: Adobe Illustrator 23.0.4, SVG Export Plug-In . SVG Version: 6.00 Build 0)  -->
<svg version="1.1" id="Capa_1" xmlns="http://www.w3.org/2000/svg" xmlns:xlink="http://www.w3.org/1999/xlink" x="0px" y="0px"
	 viewBox="0 0 200 200" style="enable-background:new 0 0 200 200;" xml:space="preserve">
<style type="text/css">
	.st0{fill:url(#SVGID_1_);}
	.st1{fill:#3366CC;}
	.st2{fill:#FFFFFF;}
	.st3{fill:url(#SVGID_2_);}
	.st4{fill:url(#SVGID_3_);}
	.st5{fill:url(#SVGID_4_);}
	.st6{fill:url(#SVGID_5_);}
	.st7{fill:none;stroke:#3366CC;stroke-width:7;stroke-miterlimit:10;}
	.st8{clip-path:url(#SVGID_7_);}
	.st9{fill:url(#SVGID_8_);}
</style>
<g>
	<g id="XMLID_2_">
		<g>
			
				<linearGradient id="SVGID_1_" gradientUnits="userSpaceOnUse" x1="280.5565" y1="199.2453" x2="456.5565" y2="199.2453" gradientTransform="matrix(1 0 0 -1 0 199.89)">
				<stop  offset="0" style="stop-color:#FFFFFF"/>
				<stop  offset="0.2301" style="stop-color:#FCFEFE"/>
				<stop  offset="0.3713" style="stop-color:#F4FCFC"/>
				<stop  offset="0.4886" style="stop-color:#E5F8F8"/>
				<stop  offset="0.5927" style="stop-color:#D1F2F2"/>
				<stop  offset="0.6882" style="stop-color:#B6EAEA"/>
				<stop  offset="0.7773" style="stop-color:#96E1E1"/>
				<stop  offset="0.8615" style="stop-color:#6FD6D6"/>
				<stop  offset="0.9397" style="stop-color:#43C9C9"/>
				<stop  offset="1" style="stop-color:#1CBEBE"/>
			</linearGradient>
			<path class="st0" d="M456.6-8.3v18c0,2-1.5,3.7-3.6,4l-17.6,2.2c-1.6,0.2-2.9,1.3-3.3,2.9c-1.4,5-3.4,9.8-5.9,14.2
				c-0.8,1.4-0.6,3.1,0.3,4.4l10.9,14c1.2,1.6,1.1,3.9-0.3,5.3l-12.7,12.7c-1.4,1.4-3.6,1.5-5.2,0.3l-14-10.9c-1.3-1-3-1.1-4.4-0.3
				c-4.4,2.5-9.2,4.4-14.2,5.9c-1.5,0.4-2.7,1.8-2.9,3.3l-2.2,17.6c-0.2,2-2,3.5-3.9,3.5h-18c-2,0-3.7-1.5-4-3.6l-2.2-17.6
				c-0.2-1.6-1.3-2.9-2.9-3.3c-5-1.4-9.8-3.4-14.2-5.9c-0.6-0.3-1.3-0.5-2-0.5c-0.9,0-1.7,0.3-2.5,0.8l-14,10.9
				c-1.6,1.2-3.9,1.1-5.3-0.3l-12.7-12.7c-1.4-1.4-1.5-3.6-0.3-5.2l10.9-14c1-1.3,1.1-3,0.3-4.4c-2.5-4.4-4.5-9.2-5.9-14.2
				c-0.4-1.5-1.8-2.7-3.3-2.9l-17.6-2.2c-2-0.2-3.5-2-3.5-3.9V-8.3c0-2,1.5-3.7,3.6-4l17.6-2.2c1.6-0.2,2.9-1.3,3.3-2.9
				c1.4-5,3.4-9.8,5.9-14.2c0.8-1.4,0.6-3.1-0.3-4.4l-10.9-14c-1.2-1.6-1.1-3.9,0.3-5.3L312.6-68c1.4-1.4,3.6-1.5,5.2-0.3l14,10.9
				c1.3,1,3,1.1,4.4,0.3c4.4-2.5,9.2-4.4,14.2-5.9c1.5-0.5,2.7-1.8,2.9-3.4l2.2-17.6c0.2-2,2-3.5,3.9-3.5h18.2c2,0,3.7,1.5,4,3.6
				l2.2,17.6c0.2,1.6,1.3,2.9,2.9,3.3c5,1.4,9.8,3.4,14.2,5.9c1.4,0.8,3.1,0.6,4.4-0.3l14-10.9c1.6-1.3,3.9-1.1,5.3,0.3l12.7,12.7
				c1.4,1.4,1.5,3.6,0.3,5.2l-10.9,14c-1,1.3-1.1,3-0.3,4.4c2.5,4.4,4.4,9.2,5.9,14.2c0.4,1.5,1.8,2.7,3.3,2.9l17.6,2.2
				C455.1-12,456.6-10.2,456.6-8.3z M408.6,0.7c0-22.1-17.9-40-40-40c-22.1,0-40,17.9-40,40s17.9,40,40,40
				C390.7,40.7,408.6,22.8,408.6,0.7z"/>
			<path class="st1" d="M464.6-8.3v18c0,6.1-4.5,11.2-10.6,11.9l-15,1.9c-1.2,3.8-2.8,7.5-4.5,11l9.3,11.9c3.8,4.9,3.3,11.7-1,15.9
				l-12.6,12.6c-4.2,4.3-11,4.7-15.8,1l-12-9.3c-3.5,1.8-7.2,3.3-11,4.6l-1.9,15c-0.7,6-5.8,10.5-11.9,10.5h-18
				c-6.1,0-11.2-4.5-11.9-10.6l-1.9-15c-3.8-1.2-7.5-2.8-11-4.5l-12,9.3c-4.8,3.8-11.7,3.3-15.9-1l-12.6-12.6
				c-4.3-4.2-4.7-11-1-15.8l9.3-12c-1.8-3.5-3.3-7.2-4.6-11l-15-1.9c-5.9-0.8-10.4-5.9-10.4-11.9v-18c0-6,4.5-11.1,10.6-11.8l15-1.9
				c1.2-3.8,2.8-7.5,4.5-11l-9.3-12c-3.8-4.8-3.3-11.7,1-15.9L307-73.5c4.2-4.3,11-4.7,15.8-1l11.9,9.3c3.5-1.8,7.2-3.3,11-4.6
				l1.9-15c0.9-6,6-10.5,12-10.5h18c6.1,0,11.2,4.5,11.9,10.6l1.9,15c3.8,1.2,7.5,2.8,11,4.5l12-9.3c4.9-3.8,11.7-3.3,15.9,1
				l12.6,12.6c4.3,4.2,4.7,11,1,15.8l-9.3,12c1.8,3.5,3.3,7.2,4.5,11l15,1.9C460.1-19.4,464.6-14.3,464.6-8.3z M456.6,9.7v-18
				c0-2-1.5-3.7-3.5-3.9l-17.6-2.2c-1.6-0.2-2.9-1.3-3.3-2.9c-1.4-5-3.4-9.8-5.9-14.2c-0.8-1.4-0.7-3.1,0.3-4.4l10.9-14
				c1.2-1.6,1.1-3.9-0.3-5.2l-12.7-12.7c-1.4-1.5-3.7-1.6-5.3-0.3l-14,10.9c-1.3,1-3,1.1-4.4,0.3c-4.4-2.5-9.2-4.4-14.2-5.9
				c-1.5-0.4-2.7-1.8-2.9-3.3l-2.2-17.6c-0.2-2-2-3.6-4-3.6h-17.9c-2,0-3.7,1.5-3.9,3.5l-2.2,17.6c-0.2,1.6-1.3,2.9-2.9,3.4
				c-5,1.4-9.8,3.4-14.2,5.9c-1.4,0.8-3.1,0.7-4.4-0.3l-14-10.9c-1.6-1.3-3.9-1.1-5.2,0.3l-12.7,12.6c-1.4,1.4-1.6,3.7-0.3,5.3
				l10.9,14c1,1.3,1.1,3,0.3,4.4c-2.5,4.4-4.5,9.2-5.9,14.2c-0.4,1.5-1.8,2.7-3.3,2.9l-17.6,2.2c-2,0.2-3.6,2-3.6,4V9.7
				c0,2,1.5,3.7,3.5,3.9l17.6,2.2c1.6,0.2,2.9,1.3,3.3,2.9c1.4,5,3.4,9.8,5.9,14.2c0.8,1.4,0.7,3.1-0.3,4.4l-10.9,14
				c-1.2,1.6-1.1,3.9,0.3,5.2l12.7,12.7c1.4,1.4,3.6,1.6,5.3,0.3l14-10.9c0.7-0.5,1.6-0.8,2.5-0.8c0.7,0,1.3,0.2,2,0.5
				c4.4,2.5,9.2,4.5,14.2,5.9c1.5,0.4,2.7,1.8,2.9,3.3l2.2,17.6c0.2,2,2,3.6,4,3.6h17.8c2,0,3.7-1.5,3.9-3.5l2.2-17.6
				c0.2-1.6,1.3-2.9,2.9-3.3c5-1.4,9.8-3.4,14.2-5.9c1.4-0.8,3.1-0.7,4.4,0.3l14,10.9c1.6,1.2,3.9,1.1,5.2-0.3l12.7-12.7
				c1.4-1.4,1.6-3.7,0.3-5.3l-10.9-14c-1-1.3-1.1-3-0.3-4.4c2.5-4.4,4.5-9.2,5.9-14.2c0.4-1.5,1.8-2.7,3.3-2.9l17.6-2.2
				C455.1,13.4,456.6,11.6,456.6,9.7z"/>
			<path class="st1" d="M368.6-39.3c22.1,0,40,17.9,40,40s-17.9,40-40,40c-22.1,0-40-17.9-40-40S346.5-39.3,368.6-39.3z M400.6,0.7
				c0-17.7-14.3-32-32-32c-17.7,0-32,14.3-32,32s14.3,32,32,32C386.3,32.7,400.6,18.4,400.6,0.7z"/>
		</g>
	</g>
</g>
<g>
	<g id="XMLID_6_">
		<g>
			<path class="st1" d="M198,93.5c-0.6,1.7-1.9,2.2-3.6,2.2c-2,0-3.9-0.1-5.9-0.1c-4.7-0.1-9.4-0.2-14.1-0.3c-1,0-2-0.3-3.4-0.5
				c-0.3-1.1-1.1-2.3-0.9-3.3c0.2-1,1.4-1.8,2.2-2.7c0.2-0.2,0.6-0.2,1-0.2c7.2,0.1,14.4,0.2,21.6,0.5
				C197.4,89.1,198.8,91.3,198,93.5z"/>
			<path class="st1" d="M175.3,117.7c1.6,1.7,1.7,3.7,0.3,5.1c-1.4,1.4-3.4,1.3-5-0.4c-3-2.9-5.9-5.9-8.8-8.9
				c-1.5-1.6-1.6-3.5-0.4-4.8c1.2-1.3,2.9-1.5,4.7-0.3c0.2,0.2,0.7,0.7,1.2,1.1C169.9,112.2,172.6,115,175.3,117.7z"/>
			<path class="st1" d="M138.8,132.1c-0.2,7.4-7.1,11.9-14,9.3c-4.1-1.5-8.3-3-12.5-4.4c-16.2-5.7-32.4-11.3-48.5-17
				c-0.5-0.2-1-0.3-1.7-0.5c0,2.5,0,4.9-0.1,7.3c0,3.7-1.1,4.8-4.8,4.8c-2.7,0-5.5,0-8.2,0c-0.1,0-0.2,0.1-0.4,0.2
				c0,6.4-0.1,12.8-0.1,19.3c0,4.6-1.6,8.6-5.4,11.4c-4,3-8.5,3.6-13.1,1.7c-4.7-1.9-7.5-5.5-8.3-10.6c-0.2-1.1-0.2-2.2-0.2-3.4
				c0.1-10.1,0.1-20.3,0.2-30.4c0-0.6,0-1.2,0-1.7c-2.5-0.9-5-1.6-7.3-2.8C3.5,109.3-1,97.2,3.3,85.6c0.1-0.2,0.1-0.5,0.1-0.8
				c0.9-1.6,1.8-3.1,2.7-4.6c2.1-1.9,3.9-4,6.2-5.6c4.1-3,8.9-4,14-3.9c10.2,0.1,20.4,0.2,30.6,0.2c0.9,0,1.9-0.2,2.8-0.5
				c21.5-8.4,43-16.9,64.5-25.4c4.1-1.6,7.9-1.8,11.4,1.1c2.7,2.1,3.8,5,3.8,8.4c-0.1,7.5-0.1,14.9-0.2,22.4c0,1.5,0.4,2.2,1.7,2.8
				c3.1,1.5,6.2,3.1,9.3,4.7c1.7,0.8,2.4,2.2,2.4,4c-0.1,4-0.1,8.1-0.1,12.1c0,1.9-0.8,3.2-2.5,4c-3.1,1.5-6.2,3.1-9.4,4.6
				c-1.2,0.6-1.7,1.2-1.7,2.6C139,118.4,139,125.3,138.8,132.1z M129.4,135.3c1.4,0,2.3-1.1,2.5-2.5c0.1-0.6,0.1-1.2,0.1-1.8
				c0.2-25.3,0.3-50.6,0.5-75.8c0-0.6,0-1.1-0.1-1.7c-0.3-2.2-2.2-3.4-4.3-2.8c-0.8,0.2-1.6,0.6-2.3,0.9c0,0.7,0,1.3,0,1.9
				c-0.1,10.4-0.1,20.7-0.2,31.1c-0.1,16-0.2,32.1-0.3,48.1c0,0.6-0.1,1.5,0.2,1.6C126.8,134.7,128.1,135.3,129.4,135.3z
				 M145.2,99.2c0.3-0.2,0.5-0.8,0.5-1.2c0.1-2.4,0.1-4.8,0.1-7.2c0-0.4-0.1-1.1-0.3-1.2c-2-1.1-4.1-2.1-6.4-3.3
				c0,5.5-0.1,10.6-0.1,16C141.3,101.2,143.3,100.2,145.2,99.2z M97.8,124.8c6.9,2.4,13.7,4.8,20.8,7.3c0.2-26,0.3-51.8,0.5-78
				c-0.4,0.2-0.6,0.4-0.9,0.5C100,61.7,81.7,68.9,63.4,76.1c-0.9,0.4-1.1,0.9-1.1,1.7c0,11-0.1,22.1-0.2,33.1c0,1,0.3,1.4,1.3,1.7
				C74.9,116.7,86.3,120.7,97.8,124.8z M37.7,157.6c2.7-1.2,3.9-3.4,3.9-6.3c0.1-5.8,0.1-11.6,0.1-17.5c0-5.3,0.1-10.5,0.1-15.9
				c-4.5,0-8.9-0.1-13.5-0.1c-0.1,11.3-0.2,22.4-0.2,33.5c0,2.1,0.7,4,2.4,5.3C32.8,158.4,35.2,158.8,37.7,157.6z M55.3,124.7
				c0-2.4,0-4.5,0-6.7c-2.3,0-4.5,0-6.7,0c0,2.3,0,4.4,0,6.7C50.9,124.7,53,124.7,55.3,124.7z M54.1,111.3c0.4,0,0.8-0.1,1.3-0.1
				c0.1-11.2,0.1-22.4,0.2-33.5c-3.5,0-6.8-0.1-10.1-0.1c-7.2,0-14.3-0.3-21.5,0c-7.4,0.3-13.7,5.9-15.2,13
				c-2.3,10.7,5.5,20.3,16.5,20.5C34.9,111.2,44.5,111.2,54.1,111.3z"/>
			<path class="st1" d="M175.8,60.7c1.3,1.1,1.5,3,0.4,4.7c-0.6,0.6-1.5,1.5-2.3,2.3c-2.4,2.4-4.7,4.7-7.2,7.1
				c-1.7,1.6-3.5,1.6-4.9,0.3c-1.4-1.3-1.4-3.3,0.2-4.9c3-3.1,6.2-6.2,9.3-9.2C172.6,59.6,174.5,59.6,175.8,60.7z"/>
			<path class="st2" d="M132,132.8c-0.3,1.4-1.2,2.5-2.5,2.5c-1.3,0-2.7-0.6-3.9-1c-0.2-0.1-0.2-1-0.2-1.6c0.1-16,0.2-32.1,0.3-48.1
				c0.1-10.4,0.1-20.7,0.2-31.1c0-0.6,0-1.2,0-1.9c0.8-0.3,1.5-0.7,2.3-0.9c2.1-0.6,4,0.6,4.3,2.8c0.1,0.6,0.1,1.1,0.1,1.7
				c-0.2,25.3-0.3,50.6-0.5,75.8C132.1,131.5,132.1,132.2,132,132.8z"/>
			<linearGradient id="SVGID_2_" gradientUnits="userSpaceOnUse" x1="139.0286" y1="94.2617" x2="145.8339" y2="94.2617">
				<stop  offset="0" style="stop-color:#FFFFFF"/>
				<stop  offset="0.2301" style="stop-color:#FCFEFE"/>
				<stop  offset="0.3713" style="stop-color:#F4FCFC"/>
				<stop  offset="0.4886" style="stop-color:#E5F8F8"/>
				<stop  offset="0.5927" style="stop-color:#D1F2F2"/>
				<stop  offset="0.6882" style="stop-color:#B6EAEA"/>
				<stop  offset="0.7773" style="stop-color:#96E1E1"/>
				<stop  offset="0.8615" style="stop-color:#6FD6D6"/>
				<stop  offset="0.9397" style="stop-color:#43C9C9"/>
				<stop  offset="1" style="stop-color:#1CBEBE"/>
			</linearGradient>
			<path class="st3" d="M145.8,97.9c0,0.4-0.2,1.1-0.5,1.2c-2,1-4,2-6.2,3.1c0-5.4,0.1-10.5,0.1-16c2.3,1.2,4.4,2.2,6.4,3.3
				c0.3,0.1,0.3,0.8,0.3,1.2C145.8,93.1,145.8,95.5,145.8,97.9z"/>
			<linearGradient id="SVGID_3_" gradientUnits="userSpaceOnUse" x1="62.1033" y1="93.052" x2="119.1463" y2="93.052">
				<stop  offset="0" style="stop-color:#FFFFFF"/>
				<stop  offset="0.2301" style="stop-color:#FCFEFE"/>
				<stop  offset="0.3713" style="stop-color:#F4FCFC"/>
				<stop  offset="0.4886" style="stop-color:#E5F8F8"/>
				<stop  offset="0.5927" style="stop-color:#D1F2F2"/>
				<stop  offset="0.6882" style="stop-color:#B6EAEA"/>
				<stop  offset="0.7773" style="stop-color:#96E1E1"/>
				<stop  offset="0.8615" style="stop-color:#6FD6D6"/>
				<stop  offset="0.9397" style="stop-color:#43C9C9"/>
				<stop  offset="1" style="stop-color:#1CBEBE"/>
			</linearGradient>
			<path class="st4" d="M118.6,132c-7.1-2.5-13.9-4.9-20.8-7.3c-11.5-4-22.9-8.1-34.4-12c-1-0.3-1.3-0.7-1.3-1.7
				c0.1-11,0.2-22.1,0.2-33.1c0-0.9,0.2-1.4,1.1-1.7c18.3-7.2,36.6-14.4,54.8-21.6c0.3-0.1,0.5-0.3,0.9-0.5
				C119,80.2,118.8,106.1,118.6,132z"/>
			<linearGradient id="SVGID_4_" gradientUnits="userSpaceOnUse" x1="28.1811" y1="138.0466" x2="41.8674" y2="138.0466">
				<stop  offset="0" style="stop-color:#FFFFFF"/>
				<stop  offset="0.2301" style="stop-color:#FCFEFE"/>
				<stop  offset="0.3713" style="stop-color:#F4FCFC"/>
				<stop  offset="0.4886" style="stop-color:#E5F8F8"/>
				<stop  offset="0.5927" style="stop-color:#D1F2F2"/>
				<stop  offset="0.6882" style="stop-color:#B6EAEA"/>
				<stop  offset="0.7773" style="stop-color:#96E1E1"/>
				<stop  offset="0.8615" style="stop-color:#6FD6D6"/>
				<stop  offset="0.9397" style="stop-color:#43C9C9"/>
				<stop  offset="1" style="stop-color:#1CBEBE"/>
			</linearGradient>
			<path class="st5" d="M41.6,151.3c0,2.9-1.3,5.1-3.9,6.3c-2.5,1.2-4.9,0.8-7.1-1c-1.7-1.4-2.4-3.2-2.4-5.3
				c0.1-11.1,0.1-22.2,0.2-33.5c4.6,0,9,0.1,13.5,0.1c0,5.4-0.1,10.7-0.1,15.9C41.7,139.7,41.7,145.5,41.6,151.3z"/>
			<path class="st2" d="M55.3,118c0,2.2,0,4.4,0,6.7c-2.2,0-4.4,0-6.7,0c0-2.3,0-4.4,0-6.7C50.8,118,53,118,55.3,118z"/>
			<path class="st2" d="M55.4,111.1c-0.5,0-0.9,0.1-1.3,0.1c-9.6-0.1-19.2-0.1-28.7-0.2c-11.1-0.2-18.8-9.8-16.5-20.5
				c1.5-7.2,7.8-12.8,15.2-13c7.2-0.2,14.3,0,21.5,0c3.3,0,6.6,0,10.1,0.1C55.5,88.8,55.5,99.9,55.4,111.1z M43.7,103.9
				c1.6,0.9,3.6,0.4,4.5-1.2c0.9-1.6,0.3-3.6-1.3-4.5c-1.6-0.9-3.6-0.4-4.5,1.2C41.6,101,42.1,103,43.7,103.9z M31.5,104.3
				c2.2,0,3.7-1.4,3.7-3.3c0-1.9-1.4-3.3-3.7-3.4c-1.7-0.1-3.5,0-5.2-0.1c-3.1,0-3.9-0.7-4.6-3.7c-0.4-2-1.8-3.2-3.6-3
				c-1.9,0.2-3.1,1.7-3,3.8c0.2,3.6,1.9,6.3,5.5,8.6c0.8,0.2,2.2,0.8,3.7,0.9C26.7,104.4,29.1,104.4,31.5,104.3z"/>
			<path class="st1" d="M48.3,102.7c-0.9,1.6-2.9,2.1-4.5,1.2c-1.6-0.9-2.2-2.9-1.3-4.5c0.9-1.6,2.9-2.1,4.5-1.2
				C48.6,99.2,49.2,101.1,48.3,102.7z"/>
			<path class="st1" d="M35.2,101c0,1.9-1.4,3.3-3.7,3.3c-2.4,0-4.8,0-7.2-0.2c-1.5-0.1-2.9-0.7-3.7-0.9c-3.6-2.3-5.3-5-5.5-8.6
				c-0.1-2.1,1.1-3.6,3-3.8c1.8-0.2,3.2,1,3.6,3c0.6,3.1,1.4,3.7,4.6,3.7c1.7,0,3.5,0,5.2,0.1C33.8,97.7,35.2,99.1,35.2,101z"/>
		</g>
		<g>
		</g>
	</g>
</g>
<g>
	<g id="XMLID_5_">
		<g>
			<path class="st2" d="M-336.7-36.3c81.8,0.1,148.3,66.5,148.4,148.3c0.1,81.9-66.5,148.6-148.4,148.7
				c-81.9,0.1-148.6-66.6-148.6-148.5C-485.3,30.3-418.6-36.3-336.7-36.3z M-271.7,167.2c3.9-2.8,5.3-6.8,4.6-11.5
				c-0.7-4.4-3.6-7.2-7.3-9.4c-15.8-9.6-31.5-19.2-47.3-28.8c-2.2-1.3-3-2.7-3-5.3c0.1-24.6,0.1-49.2,0-73.8
				c0-7.7-4.9-13.1-11.8-13.2c-7.1-0.1-12.2,5.3-12.2,13.2c0,13.7,0,27.5,0,41.2c0,13.5,0.2,27-0.1,40.5c-0.1,6.3,2.4,10.6,7.8,13.8
				c13.6,8.1,27.1,16.4,40.6,24.7c5.2,3.2,10.4,6.5,15.7,9.5C-280.3,170.5-275.8,170.2-271.7,167.2z"/>
			<path d="M-274.5,146.2c3.7,2.2,6.6,4.9,7.3,9.4c0.7,4.7-0.7,8.7-4.6,11.5c-4.1,3-8.6,3.4-13,0.9c-5.3-3-10.5-6.3-15.7-9.5
				c-13.5-8.2-27-16.6-40.6-24.7c-5.4-3.2-7.9-7.5-7.8-13.8c0.2-13.5,0.1-27,0.1-40.5c0-13.7,0-27.5,0-41.2c0-7.9,5-13.3,12.2-13.2
				c6.9,0.1,11.8,5.5,11.8,13.2c0,24.6,0.1,49.2,0,73.8c0,2.6,0.8,4,3,5.3C-306,127-290.2,136.7-274.5,146.2z"/>
			<path d="M-336.6-60.3c95.2,0,172.5,77.6,172.4,172.8c-0.1,95-77.6,172.3-172.6,172.2c-95.2-0.1-172.5-77.6-172.4-172.8
				C-509.1,16.9-431.7-60.3-336.6-60.3z M-336.7,260.8c82-0.1,148.6-66.8,148.4-148.7c-0.1-81.8-66.6-148.3-148.4-148.3
				c-81.9-0.1-148.6,66.6-148.6,148.5C-485.3,194.2-418.6,260.8-336.7,260.8z"/>
		</g>
		<g>
		</g>
	</g>
</g>
<linearGradient id="SVGID_5_" gradientUnits="userSpaceOnUse" x1="724.2003" y1="1417.2708" x2="885.1503" y2="1578.2207" gradientTransform="matrix(1 0 0 1 -197.64 -1603.8347)">
	<stop  offset="0" style="stop-color:#FFFFFF"/>
	<stop  offset="0.2301" style="stop-color:#FCFEFE"/>
	<stop  offset="0.3713" style="stop-color:#F4FCFC"/>
	<stop  offset="0.4886" style="stop-color:#E5F8F8"/>
	<stop  offset="0.5927" style="stop-color:#D1F2F2"/>
	<stop  offset="0.6882" style="stop-color:#B6EAEA"/>
	<stop  offset="0.7773" style="stop-color:#96E1E1"/>
	<stop  offset="0.8615" style="stop-color:#6FD6D6"/>
	<stop  offset="0.9397" style="stop-color:#43C9C9"/>
	<stop  offset="1" style="stop-color:#1CBEBE"/>
</linearGradient>
<path class="st6" d="M669-12.1H545c-6.6,0-12-5.4-12-12v-164c0-6.6,5.4-12,12-12h124c6.6,0,12,5.4,12,12v164
	C681-17.5,675.6-12.1,669-12.1z"/>
<path class="st7" d="M668.5-10.1h-123c-6.6,0-12-5.4-12-12v-166c0-6.6,5.4-12,12-12h123c6.6,0,12,5.4,12,12v166
	C680.5-15.5,675.1-10.1,668.5-10.1z"/>
<g>
	<g>
		<g>
			<g>
				<g>
					<defs>
						<path id="SVGID_6_" d="M655.6-21.1h-97.2c-1.7,0-3.1-1.4-3.1-3.1V-127c0-1.7,1.4-3.1,3.1-3.1h97.1c1.7,0,3.1,1.4,3.1,3.1
							v102.9C658.6-22.5,657.2-21.1,655.6-21.1z"/>
					</defs>
					<clipPath id="SVGID_7_">
						<use xlink:href="#SVGID_6_"  style="overflow:visible;"/>
					</clipPath>
					<g class="st8">
						<g>
							<g id="XMLID_1_">
								<g>
									<path class="st1" d="M682.2-214.5V-6.6c0,1.7-0.7,3.4-1.9,4.5c-2.1,1.8-5,2-7.2,0.6l-8.5-5.6l-11.2,7.3
										c-2,1.3-4.5,1.3-6.5,0l-11.2-7.3l-11.2,7.3c-2,1.3-4.5,1.3-6.5,0l-11.2-7.3l-11.2,7.3c-2,1.3-4.5,1.3-6.5,0l-11.2-7.3
										l-11.2,7.3c-1,0.6-2.1,1-3.2,1c-1.1,0-2.2-0.3-3.2-1l-11.2-7.3l-8.5,5.6c-2.2,1.4-5.1,1.3-7.2-0.6
										c-1.3-1.1-1.9-2.8-1.9-4.5v-48.2c0-1.9,1.7-3.4,3.7-3.2c1.6,0.2,2.8,1.7,2.8,3.4v47.1l7.9-5.2c2-1.3,4.5-1.3,6.5,0
										l11.2,7.3l11.2-7.3c2-1.3,4.5-1.3,6.5,0l11.2,7.3l11.2-7.3c2-1.3,4.5-1.3,6.5,0l11.2,7.3l11.2-7.3c2-1.3,4.5-1.3,6.5,0
										l11.2,7.3l11.2-7.3c2-1.3,4.5-1.3,6.5,0l7.9,5.2v-206.4h-17.5c-1.9,0-3.5-1.7-3.2-3.7c0.2-1.6,1.7-2.8,3.4-2.8h18
										C679.6-220.4,682.2-217.7,682.2-214.5z"/>
									<path class="st1" d="M657-119.3c0.2,2-1.3,3.7-3.2,3.7h-11.5c-1.7,0-3.2-1.2-3.4-2.8c-0.2-2,1.3-3.7,3.2-3.7h11.5
										C655.3-122.1,656.8-120.9,657-119.3z"/>
									<path class="st1" d="M657-100.3c0.2,2-1.3,3.7-3.2,3.7h-11.5c-1.7,0-3.2-1.2-3.4-2.8c-0.2-2,1.3-3.7,3.2-3.7h11.5
										C655.3-103.1,656.8-101.9,657-100.3z"/>
									<path class="st1" d="M657-81.2c0.2,2-1.3,3.7-3.2,3.7h-11.5c-1.7,0-3.2-1.2-3.4-2.8c-0.2-2,1.3-3.7,3.2-3.7h11.5
										C655.3-84,656.8-82.9,657-81.2z"/>
									<path class="st1" d="M655.3-38.2c1.2,1.3,1.2,3.3-0.1,4.6c-2.6,2.5-5.6,4-8.6,4.2c-3.3,0.2-6.5-1.2-8.3-3.6
										c-0.9,1-1.9,1.9-2.9,2.7c-1.1,0.9-2.4,1.8-4.3,1.9c-2.6,0.2-4.7-1-5.7-3.1c-0.5-1-0.7-2.2-0.7-3.5c-4,3.5-8.2,6.8-12.6,9.8
										c-0.6,0.4-1.2,0.6-1.8,0.6c-2.3,0-3.9-2.4-3-4.5c4.9-11.6,10.3-23.2,16.1-34.5c0.8-1.6,2.8-2.2,4.4-1.4
										c1.6,0.8,2.2,2.8,1.4,4.4c-3.8,7.4-7.5,15-10.9,22.7c4.5-3.7,8.7-7.8,12.6-12.1c1.2-1.3,3.3-1.4,4.6-0.2
										c1.3,1.2,1.4,3.3,0.2,4.6c-0.4,0.4-1.7,2.7-2.9,5.6c-0.9,2.3-1.3,3.9-1.4,4.8l0,0c2.7-2.2,4.9-5,6.5-8.1
										c0.7-1.5,2.5-2.2,4.1-1.6c1.6,0.6,2.4,2.3,2,3.9c-0.4,1.3-0.9,3-0.5,4c0.3,0.8,1.6,1.4,2.8,1.4c1.4-0.1,3-0.9,4.5-2.4
										C652-39.6,654-39.5,655.3-38.2z"/>
									<path class="st1" d="M643-220.4c1.9,0,3.5,1.7,3.2,3.7c-0.2,1.6-1.7,2.9-3.4,2.9H538.1v144.1c0,1.8-1.5,3.2-3.2,3.2
										s-3.2-1.4-3.2-3.2v-144.8c0-3.3,2.6-5.9,5.9-5.9C537.5-220.4,643-220.4,643-220.4z"/>
									<path class="st1" d="M634.9-171.3v8.7c0,3.7-3,6.7-6.7,6.7h-9.6c-0.1,0-0.2,0.1-0.2,0.2v9.6c0,3.7-3,6.7-6.7,6.7h-9.1
										c-3.7,0-6.7-3-6.7-6.7v-9.5c0-0.1-0.1-0.2-0.2-0.2h-9.5c-3.7,0-6.7-3-6.7-6.7v-8.6c0-3.7,3-6.7,6.7-6.7h9.6
										c0.1,0,0.2-0.1,0.2-0.2v-9.5c0-3.7,3-6.7,6.7-6.7h9.1c3.7,0,6.7,3,6.7,6.7v9.5c0,0.1,0.1,0.2,0.2,0.2h9.6
										C631.9-178,634.9-175,634.9-171.3z M628.4-162.6v-8.6c0-0.1-0.1-0.2-0.2-0.2H612c-0.3,0-0.5-0.2-0.5-0.5v-16l0,0h-9.1l0,0
										v15.9c0,0.3-0.2,0.5-0.5,0.5h-15.8c-0.1,0-0.2,0.1-0.2,0.2v8.6c0,0.1,0.1,0.2,0.2,0.2h9.6c3.7,0,6.7,3,6.7,6.7v9.5
										c0,0.1,0.1,0.2,0.2,0.2h8.7c0.1,0,0.2-0.1,0.2-0.2v-9.5c0-3.7,3-6.7,6.7-6.7h10C628.3-162.4,628.4-162.5,628.4-162.6z"/>
									
										<linearGradient id="SVGID_8_" gradientUnits="userSpaceOnUse" x1="783.5552" y1="1436.9457" x2="826.0853" y2="1436.9457" gradientTransform="matrix(1 0 0 1 -197.64 -1603.8347)">
										<stop  offset="1.970000e-02" style="stop-color:#3BC7C7;stop-opacity:0.5"/>
										<stop  offset="1" style="stop-color:#1CBEBE"/>
									</linearGradient>
									<path class="st9" d="M628.4-171.3v8.7c0,0.1-0.1,0.2-0.2,0.2h-10c-3.7,0-6.7,3-6.7,6.7v9.6c0,0.1-0.1,0.2-0.2,0.2h-8.7
										c-0.1,0-0.2-0.1-0.2-0.2v-9.5c0-3.7-3-6.7-6.7-6.7h-9.5c-0.1,0-0.2-0.1-0.2-0.2v-8.7c0-0.1,0.1-0.2,0.2-0.2H602
										c0.3,0,0.5-0.2,0.5-0.5v-16l0,0h9.1l0,0v15.9c0,0.3,0.2,0.5,0.5,0.5h16.2C628.3-171.5,628.4-171.4,628.4-171.3z"/>
									<path class="st1" d="M617.7-119.3c0.2,2-1.3,3.7-3.2,3.7h-53.8c-1.7,0-3.2-1.2-3.3-2.8c-0.2-2,1.3-3.7,3.2-3.7h53.8
										C616-122.1,617.4-120.9,617.7-119.3z"/>
									<path class="st1" d="M617.7-81.2c0.2,2-1.3,3.7-3.2,3.7h-53.8c-1.7,0-3.2-1.2-3.3-2.8c-0.2-2,1.3-3.7,3.2-3.7h53.8
										C616-84,617.4-82.9,617.7-81.2z"/>
									<path class="st1" d="M595.3-100.3c0.2,2-1.3,3.7-3.2,3.7h-31.4c-1.7,0-3.2-1.2-3.3-2.8c-0.2-2,1.3-3.7,3.2-3.7H592
										C593.6-103.1,595.1-101.9,595.3-100.3z"/>
								</g>
							</g>
						</g>
					</g>
				</g>
			</g>
		</g>
	</g>
</g>
<g id="Capa_3_1_">
</g>
</svg>
