<?xml version="1.0" encoding="utf-8"?>
<!-- Generator: Adobe Illustrator 23.0.4, SVG Export Plug-In . SVG Version: 6.00 Build 0)  -->
<svg version="1.1" id="Capa_1" xmlns="http://www.w3.org/2000/svg" xmlns:xlink="http://www.w3.org/1999/xlink" x="0px" y="0px"
	 viewBox="0 0 367.2 278.2" style="enable-background:new 0 0 367.2 278.2;" xml:space="preserve">
<style type="text/css">
	.st0{fill:#3366CC;}
	.st1{fill:#FFFFFF;}
	.st2{fill:none;stroke:#3366CC;stroke-width:3.0059;stroke-linecap:round;stroke-miterlimit:10;}
</style>
<g id="XMLID_1_">
	<g>
		<path class="st0" d="M356.5,135c3.1,0,5.4,2.3,5.4,5c0,3.1-2.3,5.4-5.4,5.4H321c-2.7,4.6-5.8,10-9.2,15
			c-38.6,55.9-111.4,103-123.3,108.7v0.4c0,0-0.4,0-0.8,0c-0.4,0.4-0.8,0.4-0.8,0.4v-0.4c-13.9-3.5-89.8-58.2-124.9-108.7
			c-1.9-3.1-3.8-6.2-5.8-9.2H13.4c-3.1,0-5.4-2.3-5.4-5.4s2.3-5.4,5.4-5.4h36.7c-15.4-31.3-13.9-56.3-8.5-72.4
			C49.7,40.6,76.6,11,117.1,11c10.8,0,21.5,1.9,32.8,6.2c19.2,7.3,31.6,15,37.4,18.9c5.4-3.8,18.1-11.5,37.4-18.9
			c11.2-4.2,21.9-6.2,32.8-6.2c40.5,0,67.4,29.7,75.5,57.4c4.6,15.4,6.2,38.2-6.5,66.7h30.1V135z M314.1,135
			c10.8-22.3,13.9-44,8.1-63.6c-6.9-23.9-30.5-49.7-65.1-49.7c-9.2,0-18.9,1.9-29,5.4c-24.6,9.2-37.8,19.6-37.8,19.6
			c-1.9,1.5-5,1.5-6.9,0c0,0-13.1-10.4-37.8-19.6c-10-3.5-19.6-5.4-29-5.4c-34.7,0-58.2,25.9-65.1,49.7
			c-6.5,21.2-2.3,44.7,11.2,69.4h52.8l26.6-51.7c0.8-1.9,2.7-3.1,5-3.1c2.3,0,4.2,1.5,5,3.5l34,86.8L217.4,68
			c0.8-2.3,3.1-3.8,5.4-3.8s4.6,1.5,5.4,3.8l18.5,60.1l11.5-16.9c0.8-1.5,2.7-2.3,4.6-2.3s3.8,1.2,4.6,2.7l13.9,23.5h32.7V135z
			 M308.3,146.7h-29.7c-1.9,0-3.5-1.2-4.6-2.7L262.8,125L249.7,144c-1.2,1.5-3.5,2.7-5.4,2.3c-2.3-0.4-3.8-1.9-4.6-3.8l-16.5-53.6
			l-30.9,106c-0.8,2.3-2.7,3.8-5,3.8c-0.4,0-0.4,0-0.4,0c-2.3,0-4.2-1.2-5-3.5l-35.5-90.6l-22.3,44c-1.2,1.9-3.1,3.1-5,3.1H69.3
			c0.8,1.2,1.2,1.9,1.9,3.1c35.9,51.7,101.4,94.5,115.6,103.3c14.2-8.8,79.8-51.3,115.6-103.3C304.5,152.1,306.4,149,308.3,146.7z"
			/>
		<path class="st1" d="M322.2,71.5c5.8,19.6,2.7,41.3-8.1,63.6h-32.8l-13.9-23.5c-0.8-1.5-2.7-2.7-4.6-2.7c-1.9,0-3.8,0.8-4.6,2.3
			l-11.5,16.9L228.1,68c-0.8-2.3-3.1-3.8-5.4-3.8c-2.3,0-4.6,1.5-5.4,3.8l-31.3,108.3l-34-86.8c-0.8-1.9-2.7-3.5-5-3.5
			c-2.3,0-4.2,1.2-5,3.1l-26.6,51.7H62.7C49.2,116.2,45,92.6,51.5,71.4c6.9-23.9,30.5-49.7,65.1-49.7c9.2,0,18.9,1.9,29,5.4
			c24.6,9.2,37.8,19.6,37.8,19.6c1.9,1.5,5,1.5,6.9,0c0,0,13.1-10.4,37.8-19.6c10-3.5,19.6-5.4,29-5.4
			C291.8,21.7,315.2,47.6,322.2,71.5z"/>
		<path class="st1" d="M278.6,146.7h29.7c-1.9,2.3-3.8,5.4-5.8,8.1c-35.9,52-101.4,94.5-115.6,103.3
			c-14.2-8.8-79.8-51.7-115.6-103.3c-0.8-1.2-1.2-1.9-1.9-3.1H119c1.9,0,3.8-1.2,5-3.1l22.3-44l35.5,90.6c0.8,2.3,2.7,3.5,5,3.5
			c0,0,0,0,0.4,0c2.3,0,4.2-1.5,5-3.8l30.9-106l16.5,53.6c0.8,1.9,2.3,3.5,4.6,3.8c1.9,0.4,4.2-0.8,5.4-2.3l13.1-18.9L274,144
			C275.1,145.5,276.7,146.7,278.6,146.7z"/>
	</g>
	<g>
		<path class="st2" d="M356.5,135h-30.1c12.7-28.6,11.2-51.3,6.5-66.7c-8.1-27.8-35.1-57.4-75.5-57.4c-10.8,0-21.5,1.9-32.8,6.2
			c-19.2,7.3-32,15-37.4,18.9c-5.8-3.8-18.1-11.5-37.4-18.9c-11.2-4.2-21.9-6.2-32.8-6.2c-40.5,0-67.4,29.7-75.5,57.4
			c-5.4,16.2-6.9,41.3,8.5,72.4H13.4c-3.1,0-5.4,2.3-5.4,5.4c0,3.1,2.3,5.4,5.4,5.4h42.8c1.9,3.1,3.8,6.2,5.8,9.2
			C97.1,211.3,173,266,187,269.5v0.4c0,0,0.4,0,0.8-0.4c0.4,0,0.8,0,0.8,0v-0.4c11.9-5.8,84.8-52.8,123.3-108.7
			c3.5-5,6.5-10.4,9.2-15h35.5c3.1,0,5.4-2.3,5.4-5.4C361.9,137.3,359.6,135,356.5,135z"/>
		<path class="st2" d="M51.6,71.5c6.9-23.9,30.5-49.7,65.1-49.7c9.2,0,18.9,1.9,29,5.4c24.6,9.2,37.8,19.6,37.8,19.6
			c1.9,1.5,5,1.5,6.9,0c0,0,13.1-10.4,37.8-19.6c10-3.5,19.6-5.4,29-5.4c34.7,0,58.2,25.9,65.1,49.7c5.8,19.6,2.7,41.3-8.1,63.6
			h-32.8l-13.9-23.5c-0.8-1.5-2.7-2.7-4.6-2.7c-1.9,0-3.8,0.8-4.6,2.3l-11.5,16.9L228.1,68c-0.8-2.3-3.1-3.8-5.4-3.8
			c-2.3,0-4.6,1.5-5.4,3.8l-31.3,108.3l-34-86.8c-0.8-1.9-2.7-3.5-5-3.5c-2.3,0-4.2,1.2-5,3.1l-26.6,51.7H62.7
			C49.3,116.2,45,92.6,51.6,71.5z"/>
		<path class="st2" d="M302.5,154.8c-35.9,52-101.4,94.5-115.6,103.3c-14.2-8.8-79.8-51.7-115.6-103.3c-0.8-1.2-1.2-1.9-1.9-3.1H119
			c1.9,0,3.8-1.2,5-3.1l22.3-44l35.5,90.6c0.8,2.3,2.7,3.5,5,3.5c0,0,0,0,0.4,0c2.3,0,4.2-1.5,5-3.8l30.9-106l16.5,53.6
			c0.8,1.9,2.3,3.5,4.6,3.8c1.9,0.4,4.2-0.8,5.4-2.3l13.1-18.9L274,144c1.2,1.5,2.7,2.7,4.6,2.7h29.7
			C306.4,149,304.5,152.1,302.5,154.8z"/>
	</g>
</g>
<g id="Capa_3">
</g>
</svg>
