<?xml version="1.0" encoding="utf-8"?>
<!-- Generator: Adobe Illustrator 24.2.3, SVG Export Plug-In . SVG Version: 6.00 Build 0)  -->
<svg version="1.1" id="Capa_1" xmlns="http://www.w3.org/2000/svg" xmlns:xlink="http://www.w3.org/1999/xlink" x="0px" y="0px"
	 viewBox="0 0 200 200" style="enable-background:new 0 0 200 200;" xml:space="preserve">
<style type="text/css">
	.st0{fill:url(#SVGID_1_);stroke:url(#SVGID_2_);stroke-width:6;stroke-miterlimit:10;}
	.st1{fill:#FFFFFF;stroke:url(#SVGID_3_);stroke-width:5;stroke-miterlimit:10;}
	.st2{fill:#3366CC;}
	.st3{fill:#3366CC;stroke:url(#SVGID_4_);stroke-miterlimit:10;}
	.st4{fill:#FFFFFF;}
	.st5{fill:url(#SVGID_5_);}
	.st6{fill:url(#SVGID_6_);}
	.st7{fill:url(#SVGID_7_);}
	.st8{fill:url(#SVGID_8_);}
	.st9{fill:url(#SVGID_9_);}
	.st10{fill:url(#SVGID_10_);}
	.st11{fill:url(#SVGID_11_);}
	.st12{fill:url(#SVGID_12_);}
	.st13{fill:url(#SVGID_13_);}
	.st14{fill:url(#SVGID_14_);}
	.st15{fill:url(#SVGID_15_);}
	.st16{fill:url(#SVGID_16_);}
	.st17{fill:url(#SVGID_17_);}
	.st18{fill:url(#SVGID_18_);}
</style>
<linearGradient id="SVGID_1_" gradientUnits="userSpaceOnUse" x1="-159.166" y1="354.5498" x2="14.386" y2="354.5498">
	<stop  offset="0" style="stop-color:#FFFFFF"/>
	<stop  offset="1" style="stop-color:#1CBEBE"/>
</linearGradient>
<linearGradient id="SVGID_2_" gradientUnits="userSpaceOnUse" x1="-162.166" y1="354.5498" x2="17.386" y2="354.5498">
	<stop  offset="0" style="stop-color:#3366CC"/>
	<stop  offset="0.9141" style="stop-color:#3366CC"/>
</linearGradient>
<circle class="st0" cx="-72.4" cy="354.5" r="86.8"/>
<linearGradient id="SVGID_3_" gradientUnits="userSpaceOnUse" x1="-97.9828" y1="269.9806" x2="-26.8742" y2="269.9806">
	<stop  offset="0" style="stop-color:#3366CC"/>
	<stop  offset="0.9141" style="stop-color:#3366CC"/>
</linearGradient>
<circle class="st1" cx="-62.4" cy="270" r="33.1"/>
<path class="st2" d="M-101.8,343.3c-0.9-10.1-7.4-17-17-18c-1.6-0.2-3.3-0.3-5-0.3c-1.3,0-2.7-0.1-4-0.2c-5.7-0.5-10.1-5-10.4-10.8
	c-0.3-5.9,3.4-10.8,9.1-11.9c1.6-0.3,3-0.4,4.5-0.4c2.1,0,4.2,0,6.3,0c4.1,0,8.4,0.1,12.5,0c1.6,0,2.8-0.6,3.5-1.6
	c0.6-0.8,0.7-1.9,0.4-3.1c-0.6-1.9-2.5-2.4-4.1-2.5l-13.9,0V292c0-0.6,0-1.2,0-1.8c0-1,0-1.8,0-2.6c0-0.3,0-0.6-0.1-0.9
	c-0.1-0.8-0.1-1.7-0.3-2.2c-0.7-1.5-1.8-2.2-3.5-2c-2.3,0.2-2.8,1.5-3,2.4c-0.2,1.3-0.3,2.8-0.4,4.4c-0.1,1.1-0.1,2.2-0.2,3.3
	l-0.1,1.5l-1.4,0.6c-0.7,0.3-1.3,0.4-1.8,0.5l-0.3,0.1c-8.6,2.3-14.4,9.6-14.3,18.1c0.1,8.7,5.9,16,14.4,18c2.2,0.5,4.7,0.6,7.3,0.7
	c1.2,0,2.4,0.1,3.6,0.1c5.3,0.3,9.6,3.7,10.9,8.6c0.9,3.4,0.3,7-1.8,9.8c-2.2,3-5.8,4.7-9.8,4.8c-4.9,0.2-9.8,0.2-14.5,0.1
	c-1.6,0-3.2,0-4.7,0c-1.3,0-2.4,0.1-3.3,0.4c-1.3,0.4-2.2,2-2,3.6c0.2,2,1.5,3,3.7,3.1c2.5,0.1,5,0.1,7.6,0c1.3,0,2.7,0,4,0h2.3
	l0.2,2.3c0.2,1.8,0.2,3.5,0.3,5.1c0,0.7,0.1,1.5,0.1,2.2c0.4,2.3,2.5,2.5,3.4,2.5c1.4,0,2.9-0.7,3.3-2.5l0-0.1
	c0.3-1.4,0.4-2.9,0.3-4.4c-0.2-3.1,1.3-5.1,4.4-5.8C-107.2,359.5-101.1,351.4-101.8,343.3z"/>
<g>
	<linearGradient id="SVGID_4_" gradientUnits="userSpaceOnUse" x1="-216.5473" y1="302.3587" x2="-183.6808" y2="302.3587">
		<stop  offset="0" style="stop-color:#3366CC"/>
		<stop  offset="0.9141" style="stop-color:#3366CC"/>
	</linearGradient>
	<path class="st3" d="M-184.9,308.5c0.5-0.5,0.7-1,0.7-1.6c0-0.6-0.3-1.2-0.7-1.6c-0.9-0.9-2.2-0.8-3.1,0.1
		c-1.7,1.6-3.3,3.3-5.2,5.3l-4.5,4.6v-31.6c0-1.2-0.6-2-1.7-2.3c-0.8-0.2-1.8-0.1-2.3,0.8l0,0.1c-0.3,0.5-0.5,1.2-0.5,1.9
		c-0.1,7.8-0.1,15.6-0.1,23.2v7.7l-4.1-4.1c-0.7-0.7-1.5-1.5-2.2-2.2c-1.3-1.3-2.6-2.6-3.9-3.9c-0.4-0.4-1-0.6-1.5-0.6
		c-0.3,0-0.7,0.1-1,0.3c-0.7,0.4-1.3,1.1-1.2,2c0.1,0.6,0.4,1.3,0.8,1.6l0,0c4.5,4.7,9.1,9.3,13.5,13.8l-1.7,1.7l0,0l1.7-1.7
		c1,1,2.3,1,3.3,0C-193.9,317.6-189.4,313-184.9,308.5z"/>
	<polygon class="st4" points="-203,321.5 -201.4,323 -202.2,324.2 -204,324.8 -204.3,323.2 	"/>
</g>
<g id="XMLID_1_">
	<g id="XMLID_3_">
		<g>
			<path class="st2" d="M196.5,170.7c0,2.1,0,4.1,0,6.3c-34.3,0-68.5,0-103.1,0c0,3.1,0,5.9,0,8.8c0,6.7-3.9,10.6-10.7,10.6
				c-23,0-45.9,0-68.9,0c-6.8,0-10.7-3.9-10.7-10.8c0-24.2,0-48.4,0-72.5c0-3.4,1.1-6.2,3.5-8.6c6.9-6.8,13.8-13.7,20.7-20.7
				c2.4-2.4,5.1-3.5,8.5-3.5c15.3,0.1,30.5,0.3,45.7-0.1c7.6-0.2,12.9,4.4,11.8,12.8c-2,0-4.1,0-6.4,0c0-0.8,0-1.7,0-2.5
				c-0.1-2.6-1.2-3.8-3.9-3.8c-5.5,0-11,0-16.5,0c-9.6,0-19.2,0-28.8,0c-0.7,0-1.4,0-2.4,0c0,5.5,0,10.7,0,16
				c-0.1,5.5-4.2,9.7-9.7,9.8c-2.4,0-4.7,0-7.1,0c-2.9,0-5.9,0-9,0c0,0.9,0,1.6,0,2.3c0,23.4,0,46.9,0,70.3c0,3.8,0.9,4.7,4.7,4.7
				c22.6,0,45.3,0,67.9,0c3.8,0,4.7-0.9,4.8-4.7c0-2.7,0-5.3,0-8c-2.2-0.3-3.7-0.4-4.9,1.9c-2.1,3.8-6.7,5.2-10.9,4
				c-4.1-1.3-6.9-5.2-6.8-9.5c0.1-4.3,3-8,7.2-9.1c4.2-1.1,8.6,0.7,10.7,4.4c0.7,1.3,1.5,1.7,2.9,1.7c6.9-0.1,13.8,0,21,0
				c0-0.8,0-1.5,0-2.2c0-5.4,0-10.9,0-16.3c0-2.9,1.1-4,4-4c5,0,10.1,0,15.3,0c0-2.9,0-5.6,0-8.3c0-2.1,0-4.3,0-6.4
				c0-3.6,1-4.6,4.5-4.6c4.2,0,8.5,0,12.7,0c0.7,0,1.3,0,2.2,0c0-5,0-9.8,0-14.6c0-3.8,0.9-4.7,4.8-4.7c4.8,0,9.5,0,14.6,0
				c0-0.7,0-1.4,0-2c0-4.6,0-9.1,0-13.7c0-2.4,1.2-3.6,3.6-3.6c6.2,0,12.4,0,18.5,0c2.6,0,3.6,1.3,3.6,4.2c0,22.5,0,45,0,67.5
				c0,2.9,0,5.8,0,8.9C192.4,170.7,194.4,170.7,196.5,170.7z M183.6,170.5c0-24.7,0-49.3,0-74c-4.2,0-8.4,0-12.6,0
				c0,24.8,0,49.4,0,74C175.3,170.5,179.4,170.5,183.6,170.5z M164.2,170.5c0-18.3,0-36.5,0-54.6c-4.3,0-8.5,0-12.6,0
				c0,18.3,0,36.4,0,54.6C155.8,170.5,160,170.5,164.2,170.5z M144.9,170.5c0-11.8,0-23.5,0-35.2c-4.2,0-8.4,0-12.7,0
				c0,11.9,0,23.6,0,35.2C136.6,170.5,140.8,170.5,144.9,170.5z M125.5,170.5c0-5.4,0-10.7,0-15.9c-4.3,0-8.4,0-12.6,0
				c0,5.4,0,10.6,0,15.9C117.2,170.5,121.3,170.5,125.5,170.5z M77.3,174c0.1-1.8-1.4-3.3-3.3-3.3c-1.7,0-3.2,1.5-3.2,3.2
				c0,1.7,1.4,3.2,3.1,3.2C75.8,177.1,77.3,175.7,77.3,174z M28.9,103.4c0.2-3.8,0.1-7.7,0.1-11.5c-4.8,4.8-9.4,9.4-14.2,14.3
				c3.7,0,7.4,0,11,0C27.4,106.1,28.8,105.1,28.9,103.4z"/>
			<path class="st2" d="M180,11.1c17,12.8,21.8,36.2,11.2,54.6C180.7,84.1,156.8,93,135.1,82c-7.4,7.5-14.8,14.8-22.1,22.2
				c-1.4,1.4-2.8,2-4.8,2c-4.8-0.1-9.6,0-14.6,0c0,19.4,0,38.5,0,57.9c-2.2,0-4.2,0-6.5,0c0-19.2,0-38.4,0-57.9
				c-2.2,0-4.2-0.1-6.2,0.1c-0.6,0-1.2,0.9-1.5,1.5c-2.3,3.8-6.6,5.7-10.9,4.5c-4.2-1.1-7.1-4.8-7.2-9.1c-0.1-4.4,2.8-8.3,7-9.5
				c4.3-1.2,8.9,0.6,11,4.5c0.6,1.2,1.3,1.6,2.6,1.6c8.3-0.1,16.5,0,24.8-0.1c0.7,0,1.7-0.2,2.2-0.6c6.9-6.8,13.7-13.6,20.7-20.6
				c-11.4-9.2-17.2-21.1-16.6-35.7c0.4-10.3,4.3-19.3,11.4-26.8C138.9,0.4,162.9-1.7,180,11.1z M190,48.2c-9.4,0-18.5,0-28,0
				c6.4,7.2,12.5,14,18.6,20.9C186.1,63,189.2,56.2,190,48.2z M158,41.5c10.7,0,21.3,0,31.9,0c-1.4-18.9-18.2-31.4-31.9-31.7
				C158,20.3,158,30.8,158,41.5z M175.6,73.3c-0.4-0.5-0.8-1-1.3-1.5c-7-7.9-14.1-15.9-21.2-23.8c-1.2-1.3-1.7-2.7-1.7-4.5
				c0.1-10.5,0-21.1,0-31.6c0-0.7,0-1.4,0-2.2c-13.7,0.3-27.2,11.7-31,25.8c-4.1,15.3,2.3,31.3,15.6,39.5
				C149.8,83.5,166.2,80.9,175.6,73.3z M71,106.1c1.7-0.1,3.1-1.6,3.1-3.3c0-1.7-1.5-3.2-3.2-3.1c-1.7,0-3.2,1.5-3.2,3.2
				C67.7,104.7,69.2,106.2,71,106.1z"/>
			<linearGradient id="SVGID_5_" gradientUnits="userSpaceOnUse" x1="161.971" y1="58.6342" x2="189.9792" y2="58.6342">
				<stop  offset="0" style="stop-color:#FFFFFF"/>
				<stop  offset="1" style="stop-color:#1CBEBE"/>
			</linearGradient>
			<path class="st5" d="M162,48.2c9.5,0,18.6,0,28,0c-0.7,8-3.9,14.8-9.4,20.9C174.4,62.2,168.4,55.3,162,48.2z"/>
			<linearGradient id="SVGID_6_" gradientUnits="userSpaceOnUse" x1="158.0198" y1="25.6547" x2="189.8984" y2="25.6547">
				<stop  offset="0" style="stop-color:#FFFFFF"/>
				<stop  offset="1" style="stop-color:#1CBEBE"/>
			</linearGradient>
			<path class="st6" d="M189.9,41.5c-10.6,0-21.1,0-31.9,0c0-10.7,0-21.2,0-31.7C171.7,10.1,188.5,22.6,189.9,41.5z"/>
			<linearGradient id="SVGID_7_" gradientUnits="userSpaceOnUse" x1="170.9876" y1="133.5317" x2="183.6271" y2="133.5317">
				<stop  offset="0" style="stop-color:#FFFFFF"/>
				<stop  offset="1" style="stop-color:#1CBEBE"/>
			</linearGradient>
			<path class="st7" d="M183.6,96.5c0,24.7,0,49.3,0,74c-4.2,0-8.4,0-12.6,0c0-24.6,0-49.2,0-74C175.2,96.5,179.4,96.5,183.6,96.5z"
				/>
			<linearGradient id="SVGID_8_" gradientUnits="userSpaceOnUse" x1="119.274" y1="45.0021" x2="175.6009" y2="45.0021">
				<stop  offset="0" style="stop-color:#FFFFFF"/>
				<stop  offset="1" style="stop-color:#1CBEBE"/>
			</linearGradient>
			<path class="st8" d="M174.3,71.8c0.4,0.5,0.8,1,1.3,1.5c-9.4,7.6-25.8,10.2-39.5,1.7c-13.3-8.2-19.6-24.2-15.6-39.5
				c3.8-14.1,17.3-25.5,31-25.8c0,0.7,0,1.4,0,2.2c0,10.5,0,21.1,0,31.6c0,1.8,0.5,3.2,1.7,4.5C160.3,55.9,167.3,63.9,174.3,71.8z"
				/>
			<linearGradient id="SVGID_9_" gradientUnits="userSpaceOnUse" x1="151.6031" y1="143.2509" x2="164.248" y2="143.2509">
				<stop  offset="0" style="stop-color:#FFFFFF"/>
				<stop  offset="1" style="stop-color:#1CBEBE"/>
			</linearGradient>
			<path class="st9" d="M164.2,116c0,18.1,0,36.2,0,54.6c-4.3,0-8.4,0-12.6,0c0-18.2,0-36.3,0-54.6C155.7,116,159.9,116,164.2,116z"
				/>
			<linearGradient id="SVGID_10_" gradientUnits="userSpaceOnUse" x1="132.2886" y1="152.8489" x2="144.9389" y2="152.8489">
				<stop  offset="0" style="stop-color:#FFFFFF"/>
				<stop  offset="1" style="stop-color:#1CBEBE"/>
			</linearGradient>
			<path class="st10" d="M144.9,135.2c0,11.7,0,23.4,0,35.2c-4.1,0-8.3,0-12.7,0c0-11.6,0-23.3,0-35.2
				C136.6,135.2,140.7,135.2,144.9,135.2z"/>
			<linearGradient id="SVGID_11_" gradientUnits="userSpaceOnUse" x1="112.9203" y1="162.5654" x2="125.549" y2="162.5654">
				<stop  offset="0" style="stop-color:#FFFFFF"/>
				<stop  offset="1" style="stop-color:#1CBEBE"/>
			</linearGradient>
			<path class="st11" d="M125.5,154.6c0,5.2,0,10.5,0,15.9c-4.3,0-8.4,0-12.6,0c0-5.3,0-10.6,0-15.9
				C117.1,154.6,121.3,154.6,125.5,154.6z"/>
			<path class="st2" d="M104.3,20.2c3.6,1.9,5.4,5,5.3,9c-0.2,6.2-6.3,10.6-12.4,8.8c-1.5-0.5-2.4-0.2-3.5,0.8
				c-5,4.4-10.2,8.7-15.3,13.2c-0.7,0.6-1.2,1.4-1.5,2.3c-1.4,3.9-4.2,6.3-8.3,6.7c-4.2,0.4-7.5-1.4-9.5-5.1c-0.5-1-1-1.3-2.1-1.3
				c-3.7,0.1-7.4,0-11.1,0.1c-0.7,0-1.6,0.6-1.9,1.2c-2.5,4.2-6.8,6.1-11.5,4.7c-1.1-0.3-1.7-0.1-2.4,0.7c-2.4,2.5-4.8,4.9-7.3,7.3
				c-1,0.9-1.1,1.7-0.7,3c1.2,4-0.5,8.3-3.9,10.6c-3.5,2.3-8,2.1-11.3-0.4c-3.4-2.7-4.6-7.1-3.1-11c1.5-3.9,5.3-6.4,9.4-6.2
				c0.2,0,0.4,0,0.6,0c3,1.6,4.6-0.4,6.4-2.3c1.8-1.9,3.7-3.7,5.5-5.6c0.4-0.5,0.6-1.4,0.5-2c-1.3-5.2,0.9-10,5.6-12
				c4.7-1.9,9.6-0.1,12.4,4.6c0.3,0.5,1.2,1,1.8,1c3.8,0.1,7.5,0.1,11.3,0c0.6,0,1.4-0.4,1.7-0.9c4.1-6.7,11-7.4,16.8-1.4
				c4.9-4.2,9.8-8.3,14.6-12.5c0.4-0.4,0.4-1.4,0.3-2.1c-0.9-4,0.2-7.4,3.4-9.9C97.1,18.7,100.7,18.3,104.3,20.2z M100,31.9
				c1.7,0,3.1-1.5,3.1-3.2c0-1.7-1.5-3.2-3.2-3.2c-1.8,0-3.3,1.5-3.2,3.3C96.8,30.6,98.3,32,100,31.9z M70.9,51.4
				c0-1.7-1.4-3.2-3.1-3.3c-1.8-0.1-3.3,1.4-3.3,3.2c0,1.7,1.5,3.2,3.2,3.2C69.4,54.5,70.8,53.1,70.9,51.4z M38.6,51.4
				c0.1-1.7-1.3-3.2-3-3.3c-1.8-0.1-3.4,1.4-3.4,3.2c0,1.7,1.4,3.2,3.1,3.2C37.1,54.6,38.6,53.2,38.6,51.4z M16.1,74
				c0.1-1.8-1.5-3.3-3.3-3.3c-1.7,0-3.2,1.5-3.2,3.2c0,1.7,1.4,3.2,3.2,3.2C14.5,77.1,16,75.7,16.1,74z"/>
			<linearGradient id="SVGID_12_" gradientUnits="userSpaceOnUse" x1="96.6933" y1="28.737" x2="103.1177" y2="28.737">
				<stop  offset="0" style="stop-color:#FFFFFF"/>
				<stop  offset="1" style="stop-color:#1CBEBE"/>
			</linearGradient>
			<path class="st12" d="M103.1,28.7c0,1.7-1.4,3.2-3.1,3.2c-1.7,0-3.2-1.4-3.3-3.1c-0.1-1.8,1.4-3.3,3.2-3.3
				C101.7,25.5,103.1,27,103.1,28.7z"/>
			<linearGradient id="SVGID_13_" gradientUnits="userSpaceOnUse" x1="70.8999" y1="173.843" x2="77.3239" y2="173.843">
				<stop  offset="0" style="stop-color:#FFFFFF"/>
				<stop  offset="1" style="stop-color:#1CBEBE"/>
			</linearGradient>
			<path class="st13" d="M74.1,170.6c1.8,0,3.3,1.5,3.3,3.3c-0.1,1.7-1.5,3.1-3.3,3.1c-1.7,0-3.2-1.5-3.1-3.2
				C70.9,172.1,72.3,170.7,74.1,170.6z"/>
			<path class="st2" d="M77.2,151.4c0,2,0,4,0,6.2c-6.4,0-12.6,0-19.1,0c0-2,0-4.1,0-6.2C64.4,151.4,70.8,151.4,77.2,151.4z"/>
			<path class="st2" d="M77.2,119.2c0,2.1,0,4.1,0,6.2c-3.1,0-6.2,0-9.4,0c0-2,0-4,0-6.2C70.9,119.2,74,119.2,77.2,119.2z"/>
			<path class="st2" d="M77.2,135.2c0,2.1,0,4.1,0,6.3c-12.7,0-25.5,0-38.4,0c0-2,0-4.1,0-6.3C51.7,135.2,64.3,135.2,77.2,135.2z"/>
			<linearGradient id="SVGID_14_" gradientUnits="userSpaceOnUse" x1="67.6753" y1="102.9006" x2="74.098" y2="102.9006">
				<stop  offset="0" style="stop-color:#FFFFFF"/>
				<stop  offset="1" style="stop-color:#1CBEBE"/>
			</linearGradient>
			<path class="st14" d="M74.1,102.8c0,1.7-1.4,3.2-3.1,3.3c-1.8,0.1-3.3-1.4-3.3-3.2c0-1.7,1.5-3.2,3.2-3.2
				C72.6,99.7,74.1,101.1,74.1,102.8z"/>
			<linearGradient id="SVGID_15_" gradientUnits="userSpaceOnUse" x1="64.4561" y1="51.3095" x2="70.8737" y2="51.3095">
				<stop  offset="0" style="stop-color:#FFFFFF"/>
				<stop  offset="1" style="stop-color:#1CBEBE"/>
			</linearGradient>
			<path class="st15" d="M67.8,48.1c1.7,0.1,3.1,1.5,3.1,3.3s-1.5,3.2-3.2,3.1c-1.7,0-3.2-1.4-3.2-3.2C64.4,49.5,66,48,67.8,48.1z"
				/>
			<path class="st2" d="M61.1,119.2c0,2.1,0,4.1,0,6.2c-5.3,0-10.5,0-15.9,0c0-2,0-4,0-6.2C50.5,119.2,55.7,119.2,61.1,119.2z"/>
			<path class="st2" d="M57.9,167.5c0,2,0,4,0,6.2c-6.4,0-12.7,0-19.1,0c0-2,0-4.1,0-6.2C45.1,167.5,51.4,167.5,57.9,167.5z"/>
			<path class="st2" d="M54.6,103c0,2,0,4.1,0,6.3c-3.2,0-6.2,0-9.4,0c0-2.1,0-4.1,0-6.3C48.4,103,51.4,103,54.6,103z"/>
			<path class="st2" d="M51.4,151.4c0,2,0,4,0,6.2c-10.6,0-21.2,0-32,0c0-2.1,0-4.1,0-6.2C30.1,151.4,40.6,151.4,51.4,151.4z"/>
			<linearGradient id="SVGID_16_" gradientUnits="userSpaceOnUse" x1="32.2116" y1="51.3087" x2="38.6305" y2="51.3087">
				<stop  offset="0" style="stop-color:#FFFFFF"/>
				<stop  offset="1" style="stop-color:#1CBEBE"/>
			</linearGradient>
			<path class="st16" d="M35.6,48.1c1.7,0.1,3.1,1.6,3,3.3c-0.1,1.7-1.5,3.1-3.3,3.1c-1.7,0-3.2-1.5-3.1-3.2
				C32.2,49.5,33.8,48,35.6,48.1z"/>
			<path class="st2" d="M38.5,119.2c0,2,0,4,0,6.2c-6.4,0-12.6,0-19.1,0c0-2,0-4.1,0-6.2C25.8,119.2,32.1,119.2,38.5,119.2z"/>
			<path class="st2" d="M32.1,167.5c0,2.2,0,4.1,0,6.2c-4.2,0-8.4,0-12.6,0c0-2,0-4,0-6.2C23.6,167.5,27.8,167.5,32.1,167.5z"/>
			<path class="st2" d="M32.1,135.3c0,2.1,0,4.1,0,6.2c-4.2,0-8.4,0-12.7,0c0-2,0-4,0-6.2C23.6,135.3,27.8,135.3,32.1,135.3z"/>
			<linearGradient id="SVGID_17_" gradientUnits="userSpaceOnUse" x1="14.6682" y1="98.9953" x2="28.9615" y2="98.9953">
				<stop  offset="0" style="stop-color:#FFFFFF"/>
				<stop  offset="1" style="stop-color:#1CBEBE"/>
			</linearGradient>
			<path class="st17" d="M28.9,91.9c0,3.8,0.1,7.7-0.1,11.5c-0.1,1.7-1.5,2.7-3.2,2.7c-3.6,0-7.2,0-11,0
				C19.5,101.3,24.1,96.6,28.9,91.9z"/>
			<linearGradient id="SVGID_18_" gradientUnits="userSpaceOnUse" x1="9.6404" y1="73.8815" x2="16.0638" y2="73.8815">
				<stop  offset="0" style="stop-color:#FFFFFF"/>
				<stop  offset="1" style="stop-color:#1CBEBE"/>
			</linearGradient>
			<path class="st18" d="M12.8,70.7c1.8,0,3.3,1.5,3.3,3.3c-0.1,1.7-1.5,3.1-3.3,3.1c-1.7,0-3.2-1.5-3.2-3.2
				C9.6,72.2,11.1,70.7,12.8,70.7z"/>
		</g>
		<g>
		</g>
	</g>
</g>
<g id="XMLID_2_">
	<g id="XMLID_4_">
		<g>
			<path class="st2" d="M731.3,297.7c0.1,4.5,0,9,0,13.4c0,4.4,0.1,8.7,0,13c-0.1,4.8-2.4,7.2-7.1,7.7c-4.4,0.5-8.9,1.1-13.3,1.4
				c-2.2,0.1-3.3,1.1-3.9,3.1c-0.4,1.4-0.7,2.9-1.5,4c-3.8,5-2.3,9,1.7,12.9c2.1,2.1,3.8,4.7,5.6,7.2c2.1,3.1,2.1,6-0.7,8.8
				c-6.7,6.6-13.2,13.2-19.8,19.8c-3,2.9-5.7,3.1-9.1,0.6c-3.7-2.7-7.2-5.8-11-8.3c-1.2-0.8-3.3-0.9-4.8-0.6
				c-8.5,1.8-13.1,6.7-12.1,15.8c0.1,1.3-0.2,2.6-0.3,3.9c-0.4,4.9-2.7,7.2-7.5,7.2c-8.9,0.1-17.9,0.1-26.8,0
				c-4.4,0-6.8-2.2-7.3-6.6c-0.5-4.4-1-8.9-1.5-13.3c-0.1-0.5,0-1.1-0.1-1.6c-0.6-2.7-13.2-7.6-15.4-5.9c-3.7,2.8-7.3,5.7-11,8.4
				c-4.1,3.1-6.3,2.9-10-0.7c-6.3-6.2-12.5-12.4-18.7-18.7c-3.8-3.9-3.9-6.2-0.5-10.7c2.4-3.1,4.8-6.2,7.2-9.4
				c0.3-0.4,0.7-0.8,1-1.2c2-2.9-3.6-15.1-7-15.4c-4.6-0.5-9.1-1-13.7-1.5c-4.7-0.5-6.8-2.8-6.8-7.5c-0.1-8.7,0-17.4,0-26.1
				c0-5.1,2.1-7.4,7.2-8c4.2-0.5,8.4-0.9,12.5-1.3c0.5-0.1,1-0.1,1.5-0.2c3-0.7,7.8-13.1,6-15.6c-2.8-3.7-5.7-7.3-8.4-11
				c-2.9-3.9-2.7-6.2,0.8-9.7c6.2-6.3,12.4-12.5,18.7-18.7c3.9-3.9,6.3-4,10.6-0.8c1,0.8,2.1,1.6,3.1,2.4c9.5,7.3,9.5,7.4,20.4,2.4
				c1.1-0.5,2.3-2.1,2.5-3.4c0.8-4.5,1.1-9.1,1.6-13.7c0.5-4.8,2.9-7.1,7.7-7.1c8.7-0.1,17.3-0.1,26,0c5,0.1,7.3,2.4,7.9,7.5
				c0.5,4.3,1.1,8.6,1.3,12.9c0.1,2.4,1.3,3.4,3.4,4c1.5,0.4,3.2,0.8,4.4,1.7c4.2,3.1,7.7,2.5,11.3-1.2c2.4-2.4,5.3-4.3,8.1-6.3
				c3-2.1,6-2.3,8.8,0.6c6.5,6.6,13,13,19.5,19.6c3.4,3.4,3.5,5.9,0.8,9.8c-2.7,3.9-5.8,7.5-8.3,11.5c-0.8,1.1-0.8,3.1-0.5,4.5
				c0.3,1.6,1.7,3.1,1.9,4.7c1,5.9,5.1,7.1,10.2,7.2c3,0.1,6,0.5,9,0.9C729,290.9,731.2,293.4,731.3,297.7z M717,319.8
				c0.2-5.6,0.1-11.2,0.1-16.9c-4.9-0.6-9.1-1.3-13.5-1.6c-4.2-0.3-6.5-2.3-7.8-6.4c-1.6-5.2-3.9-10.3-6.4-15.2c-1.7-3.4-2-6,0.5-9
				c3.2-3.8,6.2-7.7,8.8-11c-4.4-4.5-8.5-8.7-12.8-13.1c-3.6,2.9-7.6,6-11.4,9.1c-2.5,2.1-5,2.3-8,0.9c-5.5-2.6-11-4.9-16.6-7.1
				c-3.5-1.4-5.3-3.5-5.6-7.3c-0.4-4.5-1.2-9-1.7-13.4c-6.4,0-12.4,0-18.4,0c-0.6,4.8-1.4,9.2-1.7,13.6c-0.3,4.3-2.7,6-6.5,7.3
				c-5.1,1.7-10.1,3.7-14.8,6.2c-3.6,2-6.5,2.1-9.6-0.7c-3.6-3.2-7.5-6.1-11-8.8c-4.5,4.4-8.5,8.5-12.9,12.8c3,3.8,6,7.7,9.2,11.5
				c2.2,2.7,2.4,5.3,1,8.4c-2.5,5.5-4.9,11-7.1,16.6c-1.4,3.5-3.6,5.2-7.3,5.5c-4.4,0.4-8.8,1.1-13.7,1.7c0,5.2,0.1,10.2-0.1,15.1
				c-0.1,2.8,1.1,3.7,3.6,3.8c3.4,0.2,6.8,0.8,10.2,1.1c4.2,0.4,6.3,2.6,7.6,6.7c1.5,5.1,3.8,10,6.2,14.8c1.8,3.5,2.1,6.2-0.6,9.3
				c-3.2,3.7-6.2,7.7-8.9,11.2c4.5,4.5,8.5,8.6,12.7,12.9c3.8-3,7.7-6.1,11.5-9.3c2.5-2.1,5-2.3,8-1c5.6,2.5,11.3,5,17,7.2
				c3.1,1.3,4.9,3.2,5.2,6.7c0.3,3.8,1.1,7.5,1.4,11.4c0.2,2.3,1.2,2.9,3.2,2.8c4.2-0.1,8.4-0.1,12.6,0c2.3,0.1,3.3-0.6,3.4-3.1
				c0.2-3.8,1-7.6,1.3-11.4c0.3-3.7,2.3-5.4,5.7-6.6c5.4-1.9,10.7-4.2,15.8-6.7c3.2-1.5,5.9-1.8,8.7,0.5c3.8,3.2,7.8,6.3,11.3,9.1
				c4.5-4.5,8.6-8.6,12.9-12.9c-2.8-3.5-5.7-7.4-8.8-11.1c-2.5-2.9-2.5-5.7-0.9-9.1c2.5-5.2,4.7-10.5,6.8-15.9
				c1.3-3.5,3.5-5.4,7.2-5.8c3.7-0.4,7.3-0.7,11-1.3C715.3,321.5,717,320.5,717,319.8z"/>
			<path class="st2" d="M723.9,36c7.7,8,7.6,18-0.1,26.1c-0.2,0.2-0.4,0.4-0.6,0.6c-107.5,107.9-215,215.9-322.6,323.8
				c-1.9,1.9-4.7,3.5-7.3,4.2c-18.1,5.3-36.3,10.4-54.5,15.6c-3.2,0.9-6.1,1.2-8.7-1.5c-2.5-2.6-1.8-5.5-1-8.5
				c5-17.7,10.1-35.4,14.9-53.2c1.1-3.9,2.9-7,5.8-9.9C410.3,272.8,470.6,212.4,531,152c46.7-46.7,93.4-93.4,140.1-140.1
				c4-4,8.4-7.1,14.4-7c5.2-0.1,9.4,2,13,5.6C707,19,715.6,27.4,723.9,36z M713.1,55.8c5.1-5.1,5.1-7.3,0-12.4
				c-7.2-7.3-14.5-14.5-21.8-21.8c-4.5-4.5-6.9-4.5-11.3-0.2c-17.5,17.3-35.1,34.5-52.5,51.9c-86.8,86.9-173.6,174-260.6,260.8
				c-7,7-11.7,14.3-13.9,23.9c-2.5,11.1-5.9,22-9,33.4c1.1,0,1.5,0.1,1.9,0c13-3.7,26-7.5,39-11.2c5.1-1.4,9-4.3,12.7-8
				c64.6-64.9,129.3-129.7,194-194.5C632.1,137,672.6,96.4,713.1,55.8z"/>
			<path class="st4" d="M717.2,302.8c0,5.7,0.1,11.3-0.1,16.9c0,0.7-1.8,1.7-2.8,1.9c-3.6,0.6-7.3,0.9-11,1.3
				c-3.7,0.4-5.9,2.3-7.2,5.8c-2,5.4-4.3,10.7-6.8,15.9c-1.6,3.4-1.6,6.2,0.9,9.1c3.2,3.7,6.1,7.5,8.8,11.1
				c-4.3,4.3-8.4,8.4-12.9,12.9c-3.5-2.8-7.5-5.9-11.3-9.1c-2.8-2.4-5.5-2.1-8.7-0.5c-5.2,2.5-10.4,4.8-15.8,6.7
				c-3.4,1.2-5.4,2.9-5.7,6.6c-0.3,3.8-1.1,7.6-1.3,11.4c-0.2,2.5-1.2,3.1-3.4,3.1c-4.2-0.1-8.4-0.1-12.6,0c-2.1,0-3.1-0.6-3.2-2.8
				c-0.3-3.8-1-7.6-1.4-11.4c-0.3-3.5-2.1-5.4-5.2-6.7c-5.7-2.3-11.4-4.7-17-7.2c-3-1.3-5.5-1.1-8,1c-3.8,3.2-7.8,6.2-11.5,9.3
				c-4.2-4.3-8.3-8.4-12.7-12.9c2.8-3.5,5.7-7.5,8.9-11.2c2.7-3.1,2.4-5.9,0.6-9.3c-2.5-4.7-4.7-9.7-6.2-14.8
				c-1.3-4.1-3.3-6.3-7.6-6.7c-3.4-0.3-6.8-0.8-10.2-1.1c-2.5-0.2-3.8-1-3.6-3.8c0.2-5,0.1-10,0.1-15.1c4.8-0.6,9.2-1.3,13.7-1.7
				c3.7-0.3,6-2.1,7.3-5.5c2.2-5.6,4.6-11.2,7.1-16.6c1.4-3.1,1.3-5.7-1-8.4c-3.2-3.8-6.2-7.7-9.2-11.5c4.4-4.3,8.4-8.4,12.9-12.8
				c3.5,2.8,7.3,5.6,11,8.8c3.2,2.8,6,2.7,9.6,0.7c4.7-2.5,9.7-4.5,14.8-6.2c3.8-1.3,6.1-3.1,6.5-7.3c0.3-4.4,1.1-8.9,1.7-13.6
				c6,0,12,0,18.4,0c0.6,4.3,1.3,8.8,1.7,13.4c0.3,3.8,2.1,5.9,5.6,7.3c5.6,2.2,11.2,4.6,16.6,7.1c3,1.4,5.5,1.2,8-0.9
				c3.8-3.2,7.8-6.2,11.4-9.1c4.3,4.4,8.3,8.5,12.8,13.1c-2.6,3.2-5.6,7.2-8.8,11c-2.5,3-2.2,5.7-0.5,9c2.5,4.9,4.7,10,6.4,15.2
				c1.3,4.1,3.5,6.1,7.8,6.4C708,301.5,712.3,302.2,717.2,302.8z M633.9,361c27.4,0,49.9-22.6,49.9-50
				c-0.1-27.2-22.6-49.7-49.8-49.7c-27.3,0-49.7,22.3-49.7,49.6C584.3,338.5,606.5,361,633.9,361z"/>
			<path class="st4" d="M713,43.3c5.1,5.1,5.1,7.3,0,12.4c-40.5,40.6-81,81.3-121.5,121.9c-64.7,64.8-129.4,129.6-194,194.5
				c-3.7,3.7-7.7,6.6-12.7,8c-13,3.7-26,7.5-39,11.2c-0.4,0.1-0.8,0-1.9,0c3.1-11.4,6.5-22.3,9-33.4c2.2-9.6,6.9-17,13.9-23.9
				c87-86.8,173.7-173.9,260.6-260.8c17.4-17.4,35-34.6,52.5-51.9c4.4-4.3,6.8-4.3,11.3,0.2C698.5,28.8,705.8,36.1,713,43.3z
				 M601.1,142.3c-2.7-2.9-5.5-5.8-8.1-8.7c-2.9,2.8-5.7,5.6-8.5,8.4c2.9,3,5.7,5.9,8,8.3C595.5,147.5,598.5,144.8,601.1,142.3z
				 M566.2,177.9c-2.8-3-5.5-6-8.1-8.8c-3.2,2.9-6.1,5.7-8.9,8.4c3,3.1,5.8,5.9,8.6,8.9C560.8,183.4,563.6,180.5,566.2,177.9z
				 M530.1,213.2c-2.7-3.1-5.3-6.1-7.5-8.5c-3,2.8-6,5.5-9.1,8.3c2.9,2.8,5.6,5.6,8.1,8C524.9,218,527.8,215.3,530.1,213.2z
				 M495.5,248.6c-3-2.9-5.7-5.7-8.4-8.3c-3.1,3-6,5.8-8.6,8.3c2.7,2.9,5.5,5.9,8,8.6C489.5,254.3,492.5,251.5,495.5,248.6z
				 M452.9,291.8c2.8-2.1,5.4-4.5,7.8-6.6c-3.5-3.8-6.2-6.7-9.1-9.8c-3,3.1-5.8,5.9-9.1,9.2c2.5,2.4,4.9,4.8,7.5,6.9
				C450.6,292.1,452.3,292.2,452.9,291.8z"/>
			<path class="st2" d="M683.8,311c0.1,27.4-22.5,50-49.9,50c-27.4,0-49.6-22.5-49.6-50.1c0-27.3,22.4-49.6,49.7-49.6
				C661.2,261.3,683.7,283.8,683.8,311z M646,311.3c0.1-6.5-5.3-12.1-11.8-12.3c-6.6-0.2-12.4,5.6-12.4,12.2
				c0,6.5,5.6,12.1,12.1,12.1C640.4,323.3,646,317.8,646,311.3z"/>
			<path class="st4" d="M634.2,299c6.5,0.2,11.9,5.8,11.8,12.3c-0.1,6.6-5.6,12-12.1,12c-6.5,0-12.1-5.6-12.1-12.1
				C621.8,304.5,627.7,298.8,634.2,299z"/>
			<path class="st2" d="M593,133.6c2.7,2.9,5.4,5.8,8.1,8.7c-2.6,2.4-5.6,5.1-8.7,8c-2.3-2.4-5.1-5.3-8-8.3
				C587.3,139.2,590.1,136.5,593,133.6z"/>
			<path class="st2" d="M558.1,169.1c2.6,2.8,5.3,5.8,8.1,8.8c-2.6,2.6-5.4,5.5-8.4,8.5c-2.9-3-5.7-5.9-8.6-8.9
				C552,174.8,554.9,172,558.1,169.1z"/>
			<path class="st2" d="M522.7,204.7c2.1,2.4,4.8,5.4,7.5,8.5c-2.3,2.1-5.2,4.8-8.5,7.8c-2.4-2.4-5.2-5.2-8.1-8
				C516.7,210.2,519.6,207.5,522.7,204.7z"/>
			<path class="st2" d="M522.4,89c0.1,9,0.1,17.9,0,26.9c0,4.6-2.3,6.9-6.9,7.5c-4.4,0.5-8.9,1-13.3,1.5c-0.5,0.1-1.1,0-1.6,0.2
				c-2.6,0.7-7,13.5-5.4,15.7c2.8,3.7,5.7,7.2,8.4,11c2.7,3.7,2.6,6.2-0.6,9.4c-6.4,6.5-12.8,12.9-19.2,19.3
				c-3.5,3.5-6.1,3.6-10,0.6c-3.3-2.4-6.5-5-9.7-7.5c-0.4-0.3-0.8-0.7-1.2-1c-2.9-2-15,3.5-15.4,7c-0.5,4.7-1.1,9.4-1.5,14.1
				c-0.4,3.7-2.3,5.8-6.1,5.8c-9.3,0-18.7,0.1-28,0c-4-0.1-6.2-2.4-6.7-6.8c-0.5-4.6-0.8-9.2-1.6-13.7c-0.2-1.3-1.6-2.6-2.8-3.5
				c-1.1-0.8-2.9-0.7-4-1.6c-5.3-4.2-9.4-2.2-13.5,1.9c-2.1,2.1-4.7,3.8-7.1,5.6c-3.5,2.5-6.1,2.4-9.1-0.6
				c-6.5-6.5-13.1-13-19.5-19.6c-3.3-3.4-3.4-6-0.6-9.8c2.7-3.6,5.6-7,8.1-10.7c0.8-1.2,0.8-3.3,0.5-4.8c-0.3-1.6-1.6-3.1-1.9-4.7
				c-1-5.5-4.7-6.8-9.5-6.9c-2.9-0.1-5.8-0.7-8.6-0.8c-3.5-0.1-5.7-2.1-7.7-4.7c0-10.8,0-21.6,0-32.4c2.2-3.3,5.3-4.7,9.3-4.8
				c3.8-0.1,7.6-0.8,11.4-1.3c0.5-0.1,1.1,0,1.6-0.2c2.6-0.8,6.8-13.6,5.2-15.8c-2.8-3.8-5.6-7.7-8.4-11.4c-2.4-3.3-2.1-6.5,0.6-9.3
				c6.5-6.7,13.1-13.3,19.8-19.8c2.8-2.8,6-2.1,9,0c3.7,2.7,7.4,5.5,10.9,8.5c1.8,1.5,3.2,1.2,5.3,0.6c8.2-2.2,11.5-6.9,12-15.8
				c0.6-12.1,1.5-12,13.7-12c6.7,0,13.4,0,20.1,0c5.1,0,7.5,2.2,8,7.2c0.4,4.1,1.2,8.1,1.3,12.2c0.1,3.3,1.5,4.7,4.4,5.3
				c0.9,0.2,1.9,0.4,2.6,1c5.2,4.2,9.4,2.4,13.6-1.8c1.9-1.9,4.3-3.5,6.5-5.1c3.5-2.5,6.2-2.3,9.1,0.6c6.6,6.5,13.1,13,19.5,19.6
				c3.4,3.4,3.4,5.8,0.5,9.8c-2.7,3.6-5.6,7-8.1,10.7c-0.8,1.2-0.8,3.3-0.5,4.8c0.3,1.6,1.7,3.1,2,4.7c0.9,5.7,4.7,6.8,9.5,6.9
				c3.1,0.1,6.3,0.5,9.4,0.9C520.1,82.2,522.4,84.7,522.4,89z M508.9,110.8c0.3-5.5,0.1-11,0.1-16.6c-4.8-0.6-9.1-1.2-13.4-1.7
				c-5.1-0.6-6.2-1.8-7.8-6.7c-1.7-5.1-3.8-10-6.3-14.8c-1.9-3.5-2-6.3,0.7-9.3c3.2-3.6,6.1-7.5,9-11.2c-4.3-4.3-8.4-8.3-12.9-12.7
				c-3.9,3.1-7.9,6.2-11.9,9.5c-2.3,1.8-4.6,2.1-7.3,0.9c-5.8-2.7-11.8-5.2-17.7-7.6c-2.8-1.2-4.5-3-4.8-6.1
				c-0.4-3.9-1.1-7.8-1.4-11.8c-0.2-2.2-1-2.9-3.2-2.9c-4.3,0.1-8.7,0.1-13,0c-2.2-0.1-2.9,0.8-3.1,3c-0.3,3.7-1.1,7.3-1.3,11
				c-0.2,4.3-2.6,6.1-6.4,7.4c-5.2,1.8-10.2,3.9-15.1,6.4c-3.3,1.7-6,2-9-0.6c-3.8-3.2-7.7-6.2-10.9-8.8c-4.5,4.5-8.7,8.6-13,12.8
				c2.8,3.5,5.8,7.3,8.9,11.1c2.2,2.6,2.4,5.2,1,8.4c-2.5,5.5-4.9,11.1-7.1,16.7c-1.4,3.5-3.6,5.2-7.3,5.6
				c-4.4,0.4-8.8,1.1-13.7,1.7c0,5.2,0.1,10.2,0,15.1c-0.1,2.8,1,3.7,3.6,3.8c3.8,0.3,7.6,0.9,11.3,1.3c3.5,0.4,5.1,2.5,6.2,5.7
				c2,5.4,4.1,10.7,6.6,15.9c1.6,3.2,1.8,5.8-0.6,8.7c-3.2,3.8-6.2,7.8-9.2,11.5c4.4,4.4,8.5,8.5,12.9,12.8c3.6-2.9,7.5-6,11.4-9.2
				c2.5-2.1,5-2.3,8-1c5.6,2.6,11.3,4.9,17,7.3c3.1,1.3,4.9,3.2,5.2,6.7c0.4,4.6,1.1,9.1,1.8,14.2c5.7,0,11.3,0.1,16.9-0.1
				c0.6,0,1.6-1.5,1.7-2.5c0.6-3.8,1.2-7.5,1.5-11.3c0.3-4,2.3-5.9,6.1-7.1c5.2-1.7,10.3-3.8,15.1-6.4c3.6-1.9,6.5-2,9.7,0.8
				c3.6,3.1,7.5,6.1,10.8,8.7c4.5-4.4,8.6-8.5,12.9-12.8c-3-3.8-6.1-7.8-9.4-11.7c-2-2.4-2.1-4.9-0.8-7.7c2.6-5.8,5-11.6,7.4-17.4
				c1.2-2.8,3-4.6,6.1-4.9c3.9-0.4,7.8-0.8,11.7-1.5C507.1,112.9,508.8,111.6,508.9,110.8z"/>
			<path class="st4" d="M509,94.3c0,5.6,0.1,11.1-0.1,16.6c0,0.8-1.8,2-2.9,2.2c-3.9,0.7-7.8,1-11.7,1.5c-3.1,0.4-4.9,2.1-6.1,4.9
				c-2.4,5.8-4.9,11.6-7.4,17.4c-1.3,2.8-1.2,5.2,0.8,7.7c3.2,3.9,6.4,8,9.4,11.7c-4.3,4.3-8.4,8.4-12.9,12.8
				c-3.3-2.6-7.1-5.6-10.8-8.7c-3.1-2.7-6-2.7-9.7-0.8c-4.8,2.6-9.9,4.7-15.1,6.4c-3.8,1.2-5.8,3.2-6.1,7.1
				c-0.3,3.8-0.8,7.6-1.5,11.3c-0.2,0.9-1.1,2.4-1.7,2.5c-5.6,0.2-11.2,0.1-16.9,0.1c-0.7-5-1.4-9.6-1.8-14.2
				c-0.3-3.4-2.1-5.4-5.2-6.7c-5.7-2.3-11.4-4.7-17-7.3c-3-1.4-5.5-1.1-8,1c-3.9,3.2-7.8,6.3-11.4,9.2c-4.4-4.3-8.5-8.5-12.9-12.8
				c2.9-3.7,6-7.7,9.2-11.5c2.4-2.9,2.1-5.5,0.6-8.7c-2.5-5.2-4.7-10.5-6.6-15.9c-1.1-3.2-2.7-5.3-6.2-5.7c-3.8-0.4-7.5-1-11.3-1.3
				c-2.6-0.2-3.7-1-3.6-3.8c0.2-5,0-9.9,0-15.1c4.9-0.6,9.3-1.3,13.7-1.7c3.7-0.3,6-2.1,7.3-5.6c2.2-5.6,4.6-11.2,7.1-16.7
				c1.4-3.1,1.2-5.7-1-8.4c-3.1-3.7-6.1-7.6-8.9-11.1c4.3-4.3,8.5-8.4,13-12.8c3.2,2.5,7.2,5.5,10.9,8.8c3,2.6,5.6,2.3,9,0.6
				c4.9-2.5,10-4.7,15.1-6.4c3.8-1.3,6.1-3.1,6.4-7.4c0.2-3.7,1-7.3,1.3-11c0.2-2.1,0.8-3,3.1-3c4.3,0.1,8.7,0.1,13,0
				c2.1-0.1,3,0.6,3.2,2.9c0.3,3.9,1,7.8,1.4,11.8c0.3,3.1,2,5,4.8,6.1c5.9,2.4,11.9,5,17.7,7.6c2.7,1.2,5,1,7.3-0.9
				c4-3.2,8-6.4,11.9-9.5c4.5,4.4,8.6,8.4,12.9,12.7c-2.9,3.7-5.8,7.6-9,11.2c-2.6,3.1-2.5,5.8-0.7,9.3c2.5,4.7,4.6,9.7,6.3,14.8
				c1.7,5,2.7,6.2,7.8,6.7C499.9,93,504.2,93.6,509,94.3z M449.6,102.6c0.1-13.1-11.2-24.5-24.4-24.5c-13.2-0.1-24.4,11.1-24.4,24.4
				c0,13.4,10.8,24.3,24.3,24.4C438.3,127,449.5,116,449.6,102.6z"/>
			<path class="st2" d="M487.1,240.3c2.7,2.7,5.5,5.4,8.4,8.3c-3,2.9-5.9,5.7-9,8.5c-2.6-2.8-5.3-5.7-8-8.6
				C481,246,484,243.3,487.1,240.3z"/>
			<path class="st2" d="M460.6,285.2c-2.4,2.1-5,4.5-7.8,6.6c-0.6,0.5-2.2,0.3-2.9-0.2c-2.6-2.1-5-4.6-7.5-6.9
				c3.3-3.3,6.1-6.2,9.1-9.2C454.4,278.5,457.1,281.4,460.6,285.2z"/>
			<path class="st2" d="M425.2,78.1c13.1,0.1,24.5,11.5,24.4,24.5c-0.1,13.3-11.2,24.3-24.5,24.3c-13.4-0.1-24.3-11-24.3-24.4
				C400.8,89.2,412,78.1,425.2,78.1z M425.2,114.6c6.2,0,12.1-6,12.1-12.3c-0.1-6.4-5.7-12.1-12.2-12c-6.5,0-12.1,5.7-12,12.1
				C413.1,108.8,419,114.7,425.2,114.6z"/>
			<path class="st4" d="M437.3,102.4c0,6.3-5.8,12.2-12.1,12.3c-6.2,0-12.1-5.8-12.2-12.2c0-6.5,5.6-12.1,12-12.1
				C431.5,90.3,437.2,95.9,437.3,102.4z"/>
		</g>
		<g>
		</g>
	</g>
</g>
</svg>
