<?xml version="1.0" encoding="utf-8"?>
<!-- Generator: Adobe Illustrator 23.0.4, SVG Export Plug-In . SVG Version: 6.00 Build 0)  -->
<svg version="1.1" id="Capa_1" xmlns="http://www.w3.org/2000/svg" xmlns:xlink="http://www.w3.org/1999/xlink" x="0px" y="0px"
	 viewBox="0 0 207.6 206.3" style="enable-background:new 0 0 207.6 206.3;" xml:space="preserve">
<style type="text/css">
	.st0{clip-path:url(#SVGID_2_);}
	.st1{fill:url(#SVGID_3_);}
	.st2{fill:#3366CC;}
	.st3{fill:url(#SVGID_4_);}
	.st4{fill:none;}
	.st5{fill:#3366CC;stroke:#3366CC;stroke-width:2.084;stroke-miterlimit:10;}
	.st6{fill:url(#SVGID_5_);}
	.st7{fill:url(#SVGID_6_);}
	.st8{fill:url(#SVGID_7_);}
	.st9{fill:url(#SVGID_8_);}
</style>
<g>
	<g>
		<g>
			<defs>
				<rect id="SVGID_1_" x="3.5" y="190.5" width="211.1" height="283.8"/>
			</defs>
			<clipPath id="SVGID_2_">
				<use xlink:href="#SVGID_1_"  style="overflow:visible;"/>
			</clipPath>
			<g id="XMLID_2_" class="st0">
				<g>
					
						<linearGradient id="SVGID_3_" gradientUnits="userSpaceOnUse" x1="80.2891" y1="86.1778" x2="179.1354" y2="86.1778" gradientTransform="matrix(1 0 0 -1 0 212.5213)">
						<stop  offset="0" style="stop-color:#FFFFFF"/>
						<stop  offset="1" style="stop-color:#1CBEBE"/>
					</linearGradient>
					<path class="st1" d="M179.1,117.5V133c-1-0.2-2.1-0.3-3.2-0.3c-1.1,0-2.2,0.1-3.2,0.3v-15.2c0-10.6-8.7-19.4-19.6-19.6
						c-11.2-0.2-20.3,8.5-20.3,19.3v17.4c0,14-11.5,25.6-25.9,25.8c-14.7,0.2-26.7-11.3-26.7-25.4v-9.2c1,0.3,2.1,0.5,3.2,0.5
						c1.1,0,2.2-0.2,3.2-0.5v8.8c0,10.6,8.6,19.4,19.6,19.6c11.2,0.2,20.3-8.5,20.3-19.3v-17.8c0-14,11.8-25.5,26.4-25.5
						c4.3,0,8.6,1,12.4,3c1.5,0.8,3.4,0.3,4.3-1.2c2.1,1.5,4.5,3.6,6.1,5.6c-1.3,0.9-1.7,2.8-0.7,4.1
						C177.6,107.7,179.1,112.5,179.1,117.5z"/>
					<ellipse class="st2" cx="175.9" cy="151.2" rx="3.2" ry="3.1"/>
					<path class="st2" d="M83.1,81.8C70.7,81.8,58.6,77.6,49,70c-1.1-0.9-1.4-2.4-0.9-3.6c0.2-0.4,0.4-0.7,0.7-1
						c1.2-1.1,3-1.1,4.3-0.1c8.4,6.7,19.1,10.3,29.9,10.3c26,0,47.2-20.4,47.3-45.5c0-4.1,2.7-7.6,6.4-8.8V-8.3
						c0-7.4-4.8-13.8-11.8-16.2c-1.7,4.3-6,7.4-11.1,7.4h-6.4c-6.9,0-12.4-5.6-11.9-12.4c0.5-6,5.8-10.6,12.1-10.6h6.4
						c5.7,0,10.5,4,11.5,9.3c10.3,2.8,17.5,11.9,17.5,22.5v29.5c3.7,1.3,6.3,4.8,6.3,8.7c0,31.9-24.1,58.9-56.4,63.5v41.8
						c0,6.9,5.6,12.6,12.7,13.1c7.9,0.5,14.4-5.7,14.4-13.4v-17.4c0-17.4,14.7-31.6,32.7-31.6c5.3,0,10.6,1.3,15.3,3.7
						c1.3,0.7,2.1,2.2,1.6,3.6c-0.1,0.2-0.2,0.4-0.3,0.7c-0.8,1.5-2.7,2-4.3,1.2c-3.8-1.9-8.1-3-12.4-3c-14.5,0-26.4,11.4-26.4,25.5
						v17.8c0,10.7-9.1,19.4-20.3,19.3c-10.9-0.2-19.6-9-19.6-19.6v-8.8c-1,0.3-2.1,0.5-3.2,0.5c-1.1,0-2.2-0.2-3.2-0.5v9.2
						c0,14.1,12,25.6,26.7,25.4c14.4-0.2,25.9-11.9,25.9-25.8v-17.4c0-10.7,9.1-19.5,20.3-19.3c10.9,0.2,19.6,9,19.6,19.6V133
						c1-0.2,2.1-0.3,3.2-0.3c1.1,0,2.1,0.1,3.2,0.3v-15.5c0-5-1.5-9.8-4.3-13.9c-0.9-1.4-0.6-3.2,0.7-4.1c0.2-0.2,0.5-0.3,0.8-0.4
						c1.4-0.5,3,0,3.8,1.3c3.5,5.1,5.3,11.1,5.3,17.2v17.7c5.7,3.2,9.5,9.1,9.5,16c0,10.4-9,18.8-19.8,18.4
						c-9.7-0.4-17.7-7.9-18.3-17.3c-0.5-7.3,3.5-13.7,9.5-17.1v-17.8c0-7-5.6-12.7-12.7-13.1c-7.9-0.5-14.4,5.7-14.4,13.4v17.5
						c0,17.2-14.3,31.2-32.1,31.6c-18.3,0.3-33.2-14.3-33.2-32V93.4c-32.8-4.5-57.3-31.6-57.3-63.5c0-3.9,2.6-7.4,6.4-8.7V-8.3
						c0-10.6,7.3-19.7,17.8-22.5C41.9-36,46.7-40,52.6-40H59c7.1,0,12.8,5.9,11.9,12.9c-0.7,5.8-6,10-12,10h-6.5
						c-5.1,0-9.4-3.1-11.1-7.4c-7,2.4-11.8,8.8-11.8,16.2v29.5c3.7,1.3,6.3,4.8,6.4,8.8c0,9.1,2.8,17.8,8.1,25.3
						c1,1.4,0.6,3.3-0.9,4.3c-0.2,0.1-0.4,0.2-0.7,0.3c-1.4,0.5-2.9,0.1-3.8-1.2c-5.9-8.5-9.1-18.5-9.1-28.8c0-2.3-2.4-4.1-4.7-2.8
						c-1.1,0.6-1.6,1.7-1.6,2.9C23.2,59.5,45.9,84.1,76,87.6c2.3,0.3,3.9,2.1,3.9,4.3v25.4c0,1.7,1.4,3.2,3,3.2
						c1.8,0.1,3.3-1.3,3.3-3.1V91.8c0-2.2,1.7-4,3.9-4.3c30.1-3.5,52.8-28.1,52.9-57.4c0-1.2-0.6-2.3-1.6-2.9
						c-2.3-1.3-4.7,0.5-4.7,2.8C136.6,58.6,112.5,81.8,83.1,81.8z M188.6,151.2c0-6.8-5.7-12.3-12.7-12.3s-12.7,5.5-12.7,12.3
						c0,6.8,5.7,12.3,12.7,12.3S188.6,158,188.6,151.2z M114-23.2c3.3,0,5.9-2.7,5.5-6c-0.3-2.7-2.8-4.7-5.6-4.7h-6.2
						c-3.3,0-5.9,2.7-5.5,6c0.3,2.7,2.8,4.7,5.6,4.7H114z M58.8-23.2c3.3,0,5.9-2.7,5.5-6c-0.3-2.7-2.8-4.7-5.6-4.7h-6.2
						c-3.3,0-5.9,2.7-5.5,6c0.3,2.7,2.8,4.7,5.6,4.7H58.8z"/>
					
						<linearGradient id="SVGID_4_" gradientUnits="userSpaceOnUse" x1="23.0432" y1="138.8622" x2="143.0808" y2="138.8622" gradientTransform="matrix(1 0 0 -1 0 212.5213)">
						<stop  offset="0" style="stop-color:#FFFFFF"/>
						<stop  offset="1" style="stop-color:#1CBEBE"/>
					</linearGradient>
					<path class="st3" d="M141.5,27.3c1,0.6,1.6,1.7,1.6,2.9c-0.1,29.3-22.8,53.9-52.9,57.4c-2.2,0.3-3.9,2.1-3.9,4.3v25.6
						c0,1.7-1.6,3.2-3.3,3.1c-1.7-0.1-3-1.5-3-3.2V91.8c0-2.2-1.7-4-3.9-4.3C45.9,84.1,23.2,59.4,23,30.2c0-1.2,0.6-2.3,1.6-2.9
						c2.3-1.3,4.7,0.5,4.7,2.8c0,10.3,3.2,20.2,9.1,28.8c0.8,1.2,2.4,1.7,3.8,1.2c1.8,2.1,4,4.5,5.8,6.3c-0.6,1.2-0.3,2.7,0.9,3.6
						c9.6,7.6,21.7,11.8,34.1,11.8c29.5,0,53.5-23.2,53.7-51.7C136.7,27.8,139.1,26,141.5,27.3z"/>
				</g>
			</g>
		</g>
	</g>
</g>
<rect x="3.3" y="0.7" class="st4" width="203.2" height="227.7"/>
<g id="XMLID_3_">
	<g>
		<path class="st5" d="M42.7,104.9c0.2-0.3,0.4-0.7,0.7-1c1.2-1,3-1,4.2-0.1C56,110.4,66.5,114,77.2,114c25.7,0,46.7-19.9,46.8-44.4
			c0-4,2.6-7.4,6.3-8.6V32.2c0-7.2-4.8-13.4-11.7-15.8c-1.7,4.2-6,7.2-11,7.2h-6.3c-6.8,0-12.2-5.5-11.7-12
			c0.5-5.9,5.8-10.3,12-10.3h6.3c5.7,0,10.4,3.9,11.4,9c10.2,2.7,17.3,11.6,17.3,21.9V61c3.7,1.2,6.2,4.7,6.2,8.5
			c0,31.1-23.9,57.4-55.8,61.8V172c0,6.8,5.6,12.3,12.6,12.7c7.9,0.5,14.3-5.6,14.3-13.1v-17c0-17,14.5-30.8,32.4-30.8
			c5.3,0,10.5,1.2,15.1,3.6c1.3,0.7,2,2.1,1.6,3.5c-0.1,0.2-0.2,0.4-0.3,0.6c-0.8,1.4-2.7,1.9-4.2,1.2c-3.8-1.9-8-2.9-12.2-2.9
			c-14.4,0-26.1,11.1-26.1,24.8V172c0,10.4-9,18.9-20.1,18.8c-10.8-0.2-19.4-8.8-19.4-19.1v-8.6c-1,0.3-2,0.5-3.1,0.5
			c-1.1,0-2.2-0.2-3.2-0.5v8.9c0,13.8,11.9,24.9,26.4,24.7c14.3-0.2,25.6-11.6,25.6-25.1v-16.9c0-10.5,9-18.9,20.1-18.8
			c10.8,0.2,19.4,8.8,19.4,19.1v14.8c1-0.2,2.1-0.3,3.2-0.3c1.1,0,2.1,0.1,3.2,0.3v-15.1c0-4.8-1.5-9.5-4.3-13.6
			c-0.9-1.3-0.6-3.1,0.7-4c0.2-0.2,0.5-0.3,0.8-0.4c1.4-0.5,3,0,3.8,1.2c3.4,5,5.2,10.8,5.2,16.8V172c5.6,3.1,9.4,8.9,9.4,15.5
			c0,10.1-8.9,18.3-19.6,17.9c-9.6-0.4-17.5-7.7-18.1-16.9c-0.5-7.1,3.5-13.4,9.4-16.6v-17.3c0-6.8-5.6-12.3-12.6-12.8
			c-7.9-0.5-14.3,5.6-14.3,13.1v17c0,16.7-14.2,30.4-31.7,30.7C83,203,68.2,188.8,68.2,171.6v-40.3c-32.4-4.4-56.7-30.7-56.7-61.8
			c0-3.8,2.6-7.3,6.4-8.5V32.2c0-10.3,7.3-19.2,17.6-21.9c1.1-5.1,5.9-9,11.6-9h6.4c7,0,12.6,5.8,11.8,12.6
			c-0.7,5.6-5.9,9.8-11.9,9.8h-6.5c-5,0-9.3-3-11-7.2c-6.9,2.3-11.7,8.6-11.7,15.8V61c3.7,1.2,6.3,4.6,6.3,8.6
			c0,8.8,2.8,17.4,8,24.7c1,1.4,0.6,3.2-0.9,4.1c-0.2,0.1-0.4,0.2-0.7,0.3c-1.3,0.5-2.9,0-3.7-1.1c-5.9-8.3-9-18-9.1-28
			c0-2.2-2.4-4-4.7-2.7c-1,0.6-1.6,1.7-1.6,2.8c0.1,28.5,22.6,52.5,52.3,55.9c2.2,0.2,3.9,2,3.9,4.1v24.7c0,1.7,1.3,3.1,3,3.2
			c1.8,0.1,3.3-1.3,3.3-3v-24.9c0-2.1,1.7-3.9,3.9-4.1c29.8-3.4,52.2-27.4,52.3-55.9c0-1.1-0.6-2.2-1.6-2.8
			c-2.3-1.3-4.7,0.5-4.7,2.7c-0.1,27.7-23.9,50.3-53.1,50.3c-12.2,0-24.2-4.1-33.7-11.5C42.4,107.6,42.1,106.1,42.7,104.9z
			 M181.7,187.5c0-6.6-5.7-12-12.6-12c-6.9,0-12.6,5.4-12.6,12c0,6.6,5.6,12,12.6,12C176,199.5,181.7,194.1,181.7,187.5z
			 M107.8,17.7c3.2,0,5.8-2.7,5.4-5.8c-0.3-2.6-2.8-4.6-5.6-4.6h-6.1c-3.2,0-5.8,2.7-5.4,5.8c0.3,2.6,2.8,4.6,5.6,4.6H107.8z
			 M53.3,17.7c3.2,0,5.8-2.7,5.4-5.8c-0.3-2.6-2.8-4.6-5.6-4.6H47c-3.2,0-5.8,2.7-5.4,5.8c0.3,2.6,2.8,4.6,5.6,4.6H53.3z"/>
		
			<linearGradient id="SVGID_5_" gradientUnits="userSpaceOnUse" x1="74.4887" y1="49.1851" x2="172.2855" y2="49.1851" gradientTransform="matrix(1 0 0 -1 0 212.5213)">
			<stop  offset="0" style="stop-color:#FFFFFF"/>
			<stop  offset="1" style="stop-color:#1CBEBE"/>
		</linearGradient>
		<path class="st6" d="M172.3,154.7v15.1c-1-0.2-2.1-0.3-3.2-0.3c-1.1,0-2.1,0.1-3.2,0.3V155c0-10.3-8.6-18.9-19.4-19.1
			c-11.1-0.2-20.1,8.3-20.1,18.8v16.9c0,13.6-11.4,24.9-25.6,25.1c-14.5,0.2-26.4-11-26.4-24.7v-8.9c1,0.3,2.1,0.5,3.2,0.5
			c1.1,0,2.1-0.2,3.1-0.5v8.6c0,10.3,8.6,18.9,19.4,19.1c11.1,0.2,20.1-8.3,20.1-18.8v-17.3c0-13.7,11.7-24.8,26.1-24.8
			c4.3,0,8.5,1,12.2,2.9c1.5,0.8,3.4,0.2,4.2-1.2c2,1.5,4.5,3.5,6,5.5c-1.3,0.9-1.7,2.7-0.7,4C170.8,145.2,172.3,149.9,172.3,154.7z
			"/>
		<ellipse class="st2" cx="169.1" cy="187.5" rx="3.2" ry="3"/>
		
			<linearGradient id="SVGID_6_" gradientUnits="userSpaceOnUse" x1="17.8454" y1="100.4994" x2="136.6131" y2="100.4994" gradientTransform="matrix(1 0 0 -1 0 212.5213)">
			<stop  offset="0" style="stop-color:#FFFFFF"/>
			<stop  offset="1" style="stop-color:#1CBEBE"/>
		</linearGradient>
		<path class="st7" d="M135,66.9c1,0.6,1.6,1.7,1.6,2.8c-0.1,28.5-22.6,52.5-52.3,55.9c-2.2,0.2-3.9,2-3.9,4.1v24.9
			c0,1.7-1.5,3.1-3.3,3c-1.7-0.1-3-1.5-3-3.2v-24.7c0-2.1-1.7-3.9-3.9-4.1C40.4,122.2,18,98.2,17.8,69.7c0-1.1,0.6-2.2,1.6-2.8
			c2.3-1.3,4.7,0.5,4.7,2.7c0,10,3.2,19.7,9.1,28c0.8,1.2,2.4,1.6,3.7,1.1c1.8,2.1,4,4.4,5.7,6.2c-0.6,1.2-0.2,2.7,0.9,3.5
			C53,115.9,65,120,77.2,120c29.2,0,53-22.6,53.1-50.3C130.3,67.4,132.7,65.6,135,66.9z"/>
		
			<linearGradient id="SVGID_7_" gradientUnits="userSpaceOnUse" x1="96.0773" y1="200.0456" x2="113.2805" y2="200.0456" gradientTransform="matrix(1 0 0 -1 0 212.5213)">
			<stop  offset="1.970000e-02" style="stop-color:#3BC7C7;stop-opacity:0.5"/>
			<stop  offset="1" style="stop-color:#1CBEBE"/>
		</linearGradient>
		<path class="st8" d="M113.2,11.9c0.4,3.1-2.2,5.8-5.4,5.8h-6.1c-2.8,0-5.2-1.9-5.6-4.6c-0.4-3.1,2.2-5.8,5.4-5.8h6.1
			C110.5,7.3,112.9,9.2,113.2,11.9z"/>
		
			<linearGradient id="SVGID_8_" gradientUnits="userSpaceOnUse" x1="41.5201" y1="200.0456" x2="58.7143" y2="200.0456" gradientTransform="matrix(1 0 0 -1 0 212.5213)">
			<stop  offset="1.970000e-02" style="stop-color:#3BC7C7;stop-opacity:0.5"/>
			<stop  offset="1" style="stop-color:#1CBEBE"/>
		</linearGradient>
		<path class="st9" d="M58.7,11.9c0.4,3.1-2.2,5.8-5.4,5.8h-6.1c-2.8,0-5.2-1.9-5.6-4.6C41.2,10,43.8,7.3,47,7.3h6.1
			C55.9,7.3,58.4,9.2,58.7,11.9z"/>
	</g>
</g>
<g id="Capa_3">
</g>
</svg>
