<?xml version="1.0" encoding="utf-8"?>
<!-- Generator: Adobe Illustrator 24.2.3, SVG Export Plug-In . SVG Version: 6.00 Build 0)  -->
<svg version="1.1" id="Capa_1" xmlns="http://www.w3.org/2000/svg" xmlns:xlink="http://www.w3.org/1999/xlink" x="0px" y="0px"
	 viewBox="0 0 200 200" style="enable-background:new 0 0 200 200;" xml:space="preserve">
<style type="text/css">
	.st0{fill:#3366CC;}
	.st1{fill:url(#SVGID_1_);}
	.st2{fill:url(#SVGID_2_);}
	.st3{fill:#1CBEBE;}
	.st4{fill:#FFFFFF;}
	.st5{fill:url(#SVGID_3_);}
	.st6{fill:url(#SVGID_4_);}
	.st7{fill:url(#SVGID_5_);}
	.st8{fill:url(#SVGID_6_);}
	.st9{fill:url(#SVGID_7_);}
	.st10{fill:url(#SVGID_8_);}
	.st11{fill:url(#SVGID_9_);}
	.st12{fill:url(#SVGID_10_);}
	.st13{fill:url(#SVGID_11_);}
	.st14{fill:url(#SVGID_12_);}
	.st15{fill:url(#SVGID_13_);}
	.st16{fill:url(#SVGID_14_);}
	.st17{fill:url(#SVGID_15_);}
	.st18{fill:url(#SVGID_16_);}
	.st19{fill:url(#SVGID_17_);}
	.st20{fill:url(#SVGID_18_);}
</style>
<g>
	<g id="XMLID_1_">
		<g>
			<path class="st0" d="M-86,390.5c0,18.6,0,37.1,0,55.7c-1.4,3-3.4,4.9-6.9,4.9c-23.6,0-47.2,0-70.7,0c-4.2,0-6.9-2.7-7-6.9
				c0-4.6,0-9.2,0-13.7c0-0.7,0-1.3,0-2c-5.9-1-10,1.5-9.8,8.4c0.3,8.3,0.1,16.7,0.1,25c0,0.7,0,1.5,0,2.3c3.4-0.1,6.4-0.1,9,1.9
				c2.6,2,3.8,4.7,4.1,7.9c0.9,0,1.6,0,2.3,0c7.6,0,15.3,0,22.9,0c12,0.1,20.2,8.4,20.2,20.3c0,8.8,0,17.5,0,26.3c0,0.7,0,1.4,0,2
				c5,1.3,6.5,3.1,6.5,8.1c0,2.6,0,5.2,0,7.8c0,4.4-2.6,7-7,7c-2.1,0-4.2,0-6.2,0c-1.6,7.2-5.6,12.3-12.3,15
				c-1.4,0.6-2.9,0.9-4.3,1.3c-1.8,0-3.6,0-5.3,0c-0.3-0.1-0.6-0.3-0.9-0.3c-8.1-1.7-13.2-6.6-15.4-14.5c-0.3-1.2-0.8-1.5-1.9-1.4
				c-6.6,0-13.2,0-19.8,0c-2.8,0-5.6,0-8.4,0c-0.2,0.7-0.4,1.2-0.5,1.8c-1.9,6.6-6,11-12.4,13.4c-1.3,0.5-2.7,0.8-4,1.1
				c-1.7,0-3.3,0-5,0c-0.2-0.1-0.4-0.2-0.7-0.3c-8.3-1.8-13.5-6.7-15.7-14.8c-0.3-1-0.7-1.3-1.7-1.3c-3,0-6,0.1-9,0
				c-3.5-0.1-6.1-2.8-6.2-6.3c-0.1-3.4-0.1-6.7,0-10.1c0-2.8,1.7-5,4.3-5.9c0.7-0.2,1.4-0.4,2.2-0.6c0-0.9,0-1.6,0-2.4
				c0-15.1,0-30.1,0-45.2c0-6.9,3.9-10.8,10.9-10.8c15.1,0,30.1,0,45.2,0c0.7,0,1.5,0,2.3,0c0.1-0.4,0.2-0.7,0.2-0.9
				c0-9.5,0.1-19-0.1-28.4c0-1.4-0.7-3-1.5-4.2c-2-2.7-5-2.5-8.1-2.2c0,5.1,0,10.1,0,15.1s-2.6,7.6-7.5,7.6c-23.2,0-46.4,0-69.6,0
				c-5.1,0-7.6-2.5-7.6-7.7c0-16.6,0-33.2,0-49.8c0-4.9,2-8.3,6.5-10.5c10.2-5,20.4-10.1,30.5-15.2c3.6-1.9,7.1-1.9,10.7-0.1
				c10.2,5.2,20.4,10.3,30.7,15.3c4.4,2.1,6.4,5.5,6.4,10.3c-0.1,8.7,0,17.4,0,26.1c0,0.7,0,1.3,0,2.2c5.1-0.4,9.5,0.5,12.6,4
				c2.3-1.2,4.2-2.7,6.4-3.4c2.2-0.7,4.6-0.7,6.9-0.9c0-9.3,0.1-18.5,0-27.7c-0.1-5,2-8.4,6.5-10.6c10.1-4.9,20.2-9.9,30.2-15.1
				c3.9-2,7.5-2,11.4,0c9.5,4.9,19,9.7,28.6,14.3C-90.2,384.2-87.2,386.4-86,390.5z M-92.4,393.7c0-2.4-0.9-3.7-3-4.8
				c-10.1-5-20.1-10-30.2-15.1c-1.9-0.9-3.5-1-5.4,0c-10.1,5.1-20.2,10.2-30.3,15.2c-2.1,1-2.9,2.5-2.9,4.8c0.1,16.2,0,32.4,0,48.6
				c0,0.7,0,1.4,0,2c2.3,0,4.4,0,6.5,0c0-0.9,0-1.7,0-2.4c0-14,0-28,0-41.9c0-5,2.6-7.6,7.6-7.6c14.4,0,28.8,0,43.3,0
				c5.2,0,7.7,2.5,7.7,7.7c0,14,0,28.1,0,42.1c0,0.7,0,1.5,0,2.2c2.3,0,4.2,0,6.5,0c0-0.8,0-1.4,0-2
				C-92.5,426.3-92.5,410-92.4,393.7z M-105.5,405.3c0-2.1,0-4.1,0-6.2c-15.3,0-30.3,0-45.4,0c0,2.2,0,4.2,0,6.2
				C-135.8,405.3-120.7,405.3-105.5,405.3z M-105.6,444.5c0-10.8,0-21.5,0-32.3c-15.2,0-30.3,0-45.4,0c0,10.8,0,21.5,0,32.3
				c2.2,0,4.2,0,6.4,0c0-0.8,0-1.5,0-2.1c0-5.6,0-11.2,0-16.8c0-4.3,2.6-6.9,6.8-7c1.8-0.1,3.6,0,5.3,0c4.9,0,7.4,2.5,7.4,7.4
				c0,1.8,0,3.6,0,5.7c2.2,0,4.1,0,5.9,0c4.5,0.1,7,2.6,7.1,7.1c0,1.9,0,3.8,0,5.7C-109.7,444.5-107.7,444.5-105.6,444.5z
				 M-118.6,444.5c0-2.1,0-4.1,0-6.2c-2.2,0-4.2,0-6.3,0c0,2.1,0,4.1,0,6.2C-122.7,444.5-120.7,444.5-118.6,444.5z M-121.9,538.8
				c0-3.2,0-6.3,0-9.4c-3.7,0-7.3,0-10.7,0c1.5,3.1,2.9,6.1,4.5,9.4C-126.3,538.8-124.1,538.8-121.9,538.8z M-128.5,496.7
				c0.5-5.2-0.4-8.6-3.2-11.7c-1.3,1.4-2.5,2.7-3.7,4c-1.6,1.6-3.5,1.7-4.9,0.4c-1.4-1.4-1.3-3.3,0.3-5c0.9-1,1.9-1.9,2.8-2.9
				c-0.1-0.2-0.1-0.4-0.2-0.6c-3.4,0-6.8,0-10.3,0c0,0.1-0.1,0.3-0.1,0.4c0,3.9,0,7.7,0,11.6c0,2.7,1.1,3.8,3.9,3.8
				c4.3,0,8.6,0,12.9,0C-130.1,496.7-129.3,496.7-128.5,496.7z M-128.4,522.6c0-6.5,0-12.9,0-19.4c-0.8,0-1.5,0-2.2,0
				c-4.6,0-9.2,0.1-13.7,0c-5.9-0.1-9.9-4.1-9.9-10c0-2.2,0-4.5,0-6.7c0-2,0-3.9,0-5.9c-4.4,0-8.6,0-12.9,0c0,14.2,0,28.1,0,42.1
				C-154.1,522.6-141.3,522.6-128.4,522.6z M-131.7,431.5c0-2.2,0-4.2,0-6.3c-2.2,0-4.2,0-6.2,0c0,2.2,0,4.2,0,6.3
				C-135.8,431.5-133.8,431.5-131.7,431.5z M-131.7,444.6c0-2.2,0-4.3,0-6.3c-2.2,0-4.2,0-6.2,0c0,2.2,0,4.2,0,6.3
				C-135.8,444.6-133.8,444.6-131.7,444.6z M-147.9,555.3c7.2,0,13.1-5.9,13.1-13.1c0-7.2-5.8-12.9-13.1-12.9
				c-7.2,0-12.9,5.8-12.9,13S-155,555.3-147.9,555.3z M-163.2,529.4c-12.4,0-25.2,0-37.7,0c1.5,3.1,2.9,6.1,4.6,9.6
				c9.2,0,18.8,0,28.4,0c0.4,0,0.9-0.4,1.1-0.7C-165.6,535.3-164.4,532.3-163.2,529.4z M-175.8,522.8c1.6,0,2-0.4,2-2
				c-0.1-15.2,0-30.4,0-45.6c0-3.5-1-4.6-4.5-4.6c-18.7,0-37.4,0-56.1,0c-3.5,0-4.5,1-4.5,4.5c0,13.4,0,26.8,0,40.2
				c0,2.3,0,4.7,0,7.3c0.8,0,1.3,0.1,1.9,0.1C-216.6,522.8-196.2,522.7-175.8,522.8z M-203.1,393.9c0-2.4-0.8-3.9-3-4.9
				c-10.1-4.9-20.1-10-30.1-15.1c-1.9-1-3.5-1-5.4,0c-10.1,5.1-20.2,10.2-30.3,15.1c-2,1-2.9,2.3-2.9,4.6c0.1,16.3,0,32.7,0,49
				c0,0.6,0.1,1.2,0.1,1.9c2.2,0,4.2,0,6.4,0c0-0.8,0-1.6,0-2.3c0-14,0-28,0-41.9c0-5.3,2.5-7.8,7.8-7.8c14.3,0,28.6,0,42.9,0
				c5.5,0,7.9,2.5,7.9,7.9c0,14,0,28,0,42c0,0.7,0,1.5,0,2.2c2.3,0,4.2,0,6.5,0c0-0.9,0-1.6,0-2.3
				C-203.1,426.2-203.2,410-203.1,393.9z M-203.1,542.3c0-7.1-5.8-13-13-13c-7.2,0-13,5.7-13,12.9c-0.1,7.2,5.7,13.1,12.9,13.1
				C-209.1,555.3-203.2,549.5-203.1,542.3z M-216.3,405.4c0-2.1,0-4.1,0-6.2c-15.2,0-30.3,0-45.4,0c0,2.1,0,4.1,0,6.2
				C-246.5,405.4-231.4,405.4-216.3,405.4z M-216.3,444.5c0-10.8,0-21.6,0-32.3c-15.2,0-30.3,0-45.3,0c0,10.9,0,21.6,0,32.4
				c2.1,0,4.1,0,6.3,0c0-0.9,0-1.5,0-2.2c0-5.6,0-11.2,0-16.8c0-4.3,2.6-6.9,6.9-7c1.7,0,3.4,0,5.1,0c5,0,7.5,2.4,7.5,7.5
				c0,1.8,0,3.6,0,5.6c2.1,0,3.9,0,5.6,0c4.9,0,7.4,2.5,7.4,7.4c0,1.8,0,3.6,0,5.5C-220.4,444.5-218.4,444.5-216.3,444.5z
				 M-229.3,444.5c0-2.2,0-4.2,0-6.3c-2.2,0-4.2,0-6.2,0c0,2.2,0,4.2,0,6.3C-233.4,444.5-231.4,444.5-229.3,444.5z M-231.6,529.4
				c-4.3,0-9,0-13.8,0c0,3.2,0,6.2,0,9.5c3.2,0,6.1,0,9.1,0c0.3,0,0.9-0.3,1-0.6C-234,535.3-232.8,532.3-231.6,529.4z M-242.3,431.5
				c0-2.1,0-4.1,0-6.3c-2.2,0-4.2,0-6.2,0c0,2.2,0,4.2,0,6.3C-246.4,431.5-244.4,431.5-242.3,431.5z M-242.4,444.5
				c0-2.1,0-4.2,0-6.2c-2.2,0-4.2,0-6.3,0c0,2.2,0,4.2,0,6.2C-246.5,444.5-244.5,444.5-242.4,444.5z"/>
			
				<linearGradient id="SVGID_1_" gradientUnits="userSpaceOnUse" x1="-164.1029" y1="-209.0099" x2="-92.3836" y2="-209.0099" gradientTransform="matrix(1 0 0 -1 0 199.8898)">
				<stop  offset="0" style="stop-color:#FFFFFF"/>
				<stop  offset="0.1392" style="stop-color:#FBFEFE"/>
				<stop  offset="0.2728" style="stop-color:#F0FBFB"/>
				<stop  offset="0.4042" style="stop-color:#DCF5F5"/>
				<stop  offset="0.5343" style="stop-color:#C1EDED"/>
				<stop  offset="0.6635" style="stop-color:#9EE3E3"/>
				<stop  offset="0.792" style="stop-color:#73D7D7"/>
				<stop  offset="0.9175" style="stop-color:#41C9C9"/>
				<stop  offset="1" style="stop-color:#1CBEBE"/>
			</linearGradient>
			<path class="st1" d="M-95.4,389c2.1,1,3,2.4,3,4.8c-0.1,16.3,0,32.5,0,48.8c0,0.6,0,1.2,0,2c-2.3,0-4.2,0-6.5,0
				c0-0.8,0-1.5,0-2.2c0-14,0-28.1,0-42.1c0-5.2-2.5-7.7-7.7-7.7c-14.4,0-28.9,0-43.3,0c-5.1,0-7.6,2.6-7.6,7.6c0,14,0,28,0,41.9
				c0,0.8,0,1.5,0,2.4c-2.2,0-4.2,0-6.5,0c0-0.7,0-1.4,0-2c0-16.2,0-32.4,0-48.6c0-2.3,0.8-3.7,2.9-4.8c10.1-5,20.2-10,30.3-15.2
				c1.9-1,3.5-0.9,5.4,0C-115.5,379-105.5,384-95.4,389z M-121.8,382.8c0-1.7-1.1-3.2-2.8-3.3c-2.4-0.1-4.8-0.2-7.2,0
				c-1.8,0.1-3,1.7-2.9,3.4c0.1,1.7,1.4,2.9,3.1,3c0.4,0,0.8,0,1.2,0s0.7,0,1.1,0c0.3,0,0.6,0,0.9,0c0.3,0,0.7,0,1,0
				c0.8,0,1.6,0,2.4,0C-123.1,385.8-121.9,384.6-121.8,382.8z"/>
			
				<linearGradient id="SVGID_2_" gradientUnits="userSpaceOnUse" x1="-150.9207" y1="-202.3164" x2="-105.5207" y2="-202.3164" gradientTransform="matrix(1 0 0 -1 0 199.8898)">
				<stop  offset="0" style="stop-color:#FFFFFF"/>
				<stop  offset="0.1392" style="stop-color:#FBFEFE"/>
				<stop  offset="0.2728" style="stop-color:#F0FBFB"/>
				<stop  offset="0.4042" style="stop-color:#DCF5F5"/>
				<stop  offset="0.5343" style="stop-color:#C1EDED"/>
				<stop  offset="0.6635" style="stop-color:#9EE3E3"/>
				<stop  offset="0.792" style="stop-color:#73D7D7"/>
				<stop  offset="0.9175" style="stop-color:#41C9C9"/>
				<stop  offset="1" style="stop-color:#1CBEBE"/>
			</linearGradient>
			<path class="st2" d="M-105.5,399.1c0,2.1,0,4.1,0,6.2c-15.1,0-30.2,0-45.4,0c0-2,0-4,0-6.2C-135.9,399.1-120.8,399.1-105.5,399.1
				z"/>
			<path class="st3" d="M-105.6,412.2c0,10.8,0,21.4,0,32.3c-2.1,0-4.1,0-6.4,0c0-1.9,0-3.8,0-5.7c0-4.5-2.6-7.1-7.1-7.1
				c-1.9,0-3.8,0-5.9,0c0-2,0-3.8,0-5.7c0-4.9-2.5-7.4-7.4-7.4c-1.8,0-3.6,0-5.3,0c-4.2,0.1-6.8,2.7-6.8,7c0,5.6,0,11.2,0,16.8
				c0,0.7,0,1.4,0,2.1c-2.3,0-4.3,0-6.4,0c0-10.9,0-21.5,0-32.3C-135.9,412.2-120.8,412.2-105.6,412.2z"/>
			<path class="st4" d="M-118.6,438.3c0,2.1,0,4.1,0,6.2c-2.1,0-4.1,0-6.3,0c0-2.1,0-4.1,0-6.2
				C-122.8,438.3-120.8,438.3-118.6,438.3z"/>
			<path class="st0" d="M-124.6,379.5c1.7,0.1,2.9,1.6,2.8,3.3c0,1.8-1.3,3-3.2,3.1c-0.8,0-1.6,0-2.4,0c-0.3,0-0.7,0-1,0
				s-0.6,0-0.9,0c-0.4,0-0.7,0-1.1,0c-0.4,0-0.8,0-1.2,0c-1.8-0.1-3-1.3-3.1-3c-0.1-1.7,1.1-3.3,2.9-3.4
				C-129.5,379.4-127,379.4-124.6,379.5z"/>
			<path class="st3" d="M-121.9,529.4c0,3.1,0,6.2,0,9.4c-2.2,0-4.4,0-6.2,0c-1.6-3.3-3-6.3-4.5-9.4
				C-129.2,529.4-125.6,529.4-121.9,529.4z"/>
			<path class="st3" d="M-131.7,484.9c2.9,3.2,3.8,6.5,3.2,11.7c-0.8,0-1.7,0-2.5,0c-4.3,0-8.6,0-12.9,0c-2.7,0-3.8-1.1-3.9-3.8
				c0-3.9,0-7.7,0-11.6c0-0.2,0.1-0.4,0.1-0.4c3.5,0,6.9,0,10.3,0c0.1,0.2,0.1,0.4,0.2,0.6c-0.9,1-1.9,1.9-2.8,2.9
				c-1.6,1.7-1.8,3.7-0.3,5c1.4,1.3,3.3,1.2,4.9-0.4C-134.2,487.6-133,486.3-131.7,484.9z"/>
			
				<linearGradient id="SVGID_3_" gradientUnits="userSpaceOnUse" x1="-167.1142" y1="-301.6664" x2="-128.4142" y2="-301.6664" gradientTransform="matrix(1 0 0 -1 0 199.8898)">
				<stop  offset="0" style="stop-color:#FFFFFF"/>
				<stop  offset="0.1392" style="stop-color:#FBFEFE"/>
				<stop  offset="0.2728" style="stop-color:#F0FBFB"/>
				<stop  offset="0.4042" style="stop-color:#DCF5F5"/>
				<stop  offset="0.5343" style="stop-color:#C1EDED"/>
				<stop  offset="0.6635" style="stop-color:#9EE3E3"/>
				<stop  offset="0.792" style="stop-color:#73D7D7"/>
				<stop  offset="0.9175" style="stop-color:#41C9C9"/>
				<stop  offset="1" style="stop-color:#1CBEBE"/>
			</linearGradient>
			<path class="st5" d="M-128.4,503.2c0,6.5,0,12.9,0,19.4c-12.8,0-25.7,0-38.7,0c0-14,0-27.9,0-42.1c4.3,0,8.4,0,12.9,0
				c0,2,0,4,0,5.9c0,2.2,0,4.4,0,6.7c0.1,5.9,4,9.9,9.9,10c4.6,0.1,9.2,0,13.7,0C-130,503.2-129.3,503.2-128.4,503.2z M-137.9,516.2
				c1.9-0.2,3.1-1.5,3.1-3.3c0-1.7-1.2-3-3-3.1c-2.3-0.1-4.7-0.1-7,0c-1.8,0.1-2.9,1.5-2.9,3.1c0,1.7,1.1,3,2.9,3.2
				c1.2,0.1,2.4,0,3.6,0l0,0C-140.1,516.2-139,516.3-137.9,516.2z"/>
			<path class="st4" d="M-131.7,425.2c0,2.1,0,4.1,0,6.3c-2.1,0-4.1,0-6.2,0c0-2.1,0-4.1,0-6.3
				C-135.8,425.2-133.8,425.2-131.7,425.2z"/>
			<path class="st4" d="M-131.7,438.2c0,2,0,4.1,0,6.3c-2.1,0-4.1,0-6.2,0c0-2.1,0-4.1,0-6.3C-135.9,438.2-133.9,438.2-131.7,438.2z
				"/>
			<path class="st4" d="M-134.8,542.2c0,7.2-5.8,13.1-13.1,13.1c-7.1,0-12.9-5.8-12.9-13s5.7-13,12.9-13
				C-140.6,529.3-134.8,535-134.8,542.2z M-141.3,542.4c0.1-1.6-1-3.1-2.6-3.2c-2.5-0.2-5.1-0.2-7.6,0c-1.8,0.1-2.8,1.6-2.7,3.3
				s1.3,2.9,3.1,3c1.1,0.1,2.3,0,3.4,0c1.1,0,2.3,0.1,3.4,0C-142.6,545.3-141.4,544-141.3,542.4z"/>
			<path class="st0" d="M-134.8,512.9c0,1.7-1.2,3.1-3.1,3.3c-1.1,0.1-2.3,0-3.4,0l0,0c-1.2,0-2.4,0.1-3.6,0
				c-1.8-0.2-2.9-1.5-2.9-3.2s1.1-3,2.9-3.1c2.3-0.1,4.7-0.1,7,0C-136,509.9-134.8,511.2-134.8,512.9z"/>
			<path class="st0" d="M-144,539.1c1.6,0.1,2.7,1.7,2.6,3.2c-0.1,1.7-1.3,3-3,3.1c-1.1,0.1-2.3,0-3.4,0c-1.1,0-2.3,0.1-3.4,0
				c-1.8-0.1-3-1.3-3.1-3c-0.1-1.7,1-3.2,2.7-3.3C-149,538.9-146.5,538.9-144,539.1z"/>
			<path class="st3" d="M-200.9,529.4c12.6,0,25.3,0,37.7,0c-1.2,2.9-2.4,5.9-3.7,8.8c-0.2,0.4-0.7,0.7-1.1,0.7
				c-9.6,0-19.2,0-28.4,0C-198,535.5-199.5,532.5-200.9,529.4z"/>
			
				<linearGradient id="SVGID_4_" gradientUnits="userSpaceOnUse" x1="-238.8507" y1="-296.8664" x2="-173.7507" y2="-296.8664" gradientTransform="matrix(1 0 0 -1 0 199.8898)">
				<stop  offset="0" style="stop-color:#FFFFFF"/>
				<stop  offset="0.1392" style="stop-color:#FBFEFE"/>
				<stop  offset="0.2728" style="stop-color:#F0FBFB"/>
				<stop  offset="0.4042" style="stop-color:#DCF5F5"/>
				<stop  offset="0.5343" style="stop-color:#C1EDED"/>
				<stop  offset="0.6635" style="stop-color:#9EE3E3"/>
				<stop  offset="0.792" style="stop-color:#73D7D7"/>
				<stop  offset="0.9175" style="stop-color:#41C9C9"/>
				<stop  offset="1" style="stop-color:#1CBEBE"/>
			</linearGradient>
			<path class="st6" d="M-173.8,520.8c0,1.6-0.5,2-2,2c-20.4-0.1-40.8,0-61.2,0c-0.6,0-1.1-0.1-1.9-0.1c0-2.6,0-4.9,0-7.3
				c0-13.4,0-26.8,0-40.2c0-3.5,1-4.5,4.5-4.5c18.7,0,37.4,0,56.1,0c3.5,0,4.5,1,4.5,4.6C-173.8,490.4-173.9,505.6-173.8,520.8z
				 M-183.6,496.7c0-2-1.5-3.3-4-3.3c-5.6,0-11.3,0-16.9,0c-5.8,0-11.7,0-17.5,0c-2.4,0-3.9,1.3-3.8,3.3c0,1.9,1.5,3.2,3.9,3.2
				c11.5,0,23,0,34.5,0C-185.2,500-183.7,498.7-183.6,496.7z M-183.6,480.5c0.1-2-1.5-3.3-4-3.3c-11.4,0-22.8,0-34.3,0
				c-2.5,0-4.1,1.3-4,3.3c0,2,1.5,3.2,4.1,3.2c5.6,0,11.3,0,16.9,0c5.8,0,11.5,0,17.3,0C-185.1,483.6-183.7,482.5-183.6,480.5z
				 M-183.7,513c0-1.6-0.8-2.8-2.5-3.2c-0.7-0.2-1.4-0.2-2.1-0.2c-5.5,0-10.9,0-16.4,0c-5.6,0-11.3,0-16.9,0c-2.9,0-4.4,1.2-4.4,3.3
				c0,2.1,1.6,3.2,4.5,3.2c0.1,0,0.1,0,0.2,0c11,0,22,0,32.9,0c0.8,0,1.5,0,2.3-0.2C-184.5,515.7-183.7,514.6-183.7,513z"/>
			<path class="st0" d="M-187.6,493.5c2.5,0,4,1.3,4,3.3c0,1.9-1.5,3.2-3.9,3.2c-11.5,0-23,0-34.5,0c-2.4,0-3.9-1.3-3.9-3.2
				c0-2,1.5-3.2,3.8-3.3c5.8,0,11.7,0,17.5,0C-198.9,493.5-193.3,493.5-187.6,493.5z"/>
			<path class="st0" d="M-187.6,477.1c2.5,0,4,1.3,4,3.3s-1.5,3.1-3.9,3.2c-5.8,0-11.5,0-17.3,0c-5.7,0-11.3,0-16.9,0
				c-2.6,0-4.1-1.2-4.1-3.2s1.5-3.3,4-3.3C-210.5,477.1-199,477.1-187.6,477.1z"/>
			<path class="st0" d="M-186.1,509.9c1.6,0.4,2.5,1.5,2.5,3.2c0,1.5-0.8,2.7-2.4,3c-0.7,0.2-1.5,0.2-2.3,0.2c-11,0-22,0-32.9,0
				c-0.1,0-0.1,0-0.2,0c-2.9,0-4.5-1.1-4.5-3.2c0-2.1,1.5-3.3,4.4-3.3c5.6,0,11.3,0,16.9,0c5.5,0,10.9,0,16.4,0
				C-187.5,509.7-186.8,509.7-186.1,509.9z"/>
			
				<linearGradient id="SVGID_5_" gradientUnits="userSpaceOnUse" x1="-274.7565" y1="-208.9599" x2="-203.0372" y2="-208.9599" gradientTransform="matrix(1 0 0 -1 0 199.8898)">
				<stop  offset="0" style="stop-color:#FFFFFF"/>
				<stop  offset="0.1392" style="stop-color:#FBFEFE"/>
				<stop  offset="0.2728" style="stop-color:#F0FBFB"/>
				<stop  offset="0.4042" style="stop-color:#DCF5F5"/>
				<stop  offset="0.5343" style="stop-color:#C1EDED"/>
				<stop  offset="0.6635" style="stop-color:#9EE3E3"/>
				<stop  offset="0.792" style="stop-color:#73D7D7"/>
				<stop  offset="0.9175" style="stop-color:#41C9C9"/>
				<stop  offset="1" style="stop-color:#1CBEBE"/>
			</linearGradient>
			<path class="st7" d="M-206.1,389c2.2,1.1,3,2.5,3,4.9c-0.1,16.1,0,32.3,0,48.4c0,0.7,0,1.4,0,2.3c-2.3,0-4.2,0-6.5,0
				c0-0.8,0-1.5,0-2.2c0-14,0-28,0-42c0-5.4-2.5-7.9-7.9-7.9c-14.3,0-28.6,0-42.9,0c-5.4,0-7.8,2.5-7.8,7.8c0,14,0,28,0,41.9
				c0,0.7,0,1.5,0,2.3c-2.2,0-4.2,0-6.4,0c0-0.7-0.1-1.3-0.1-1.9c0-16.3,0-32.7,0-49c0-2.3,0.9-3.6,2.9-4.6
				c10.1-5,20.2-10,30.3-15.2c1.9-1,3.5-0.9,5.4,0C-226.2,379-216.2,384-206.1,389z M-232.5,382.8c0-1.7-1.2-3.2-3-3.3
				c-2.3-0.1-4.7-0.1-7,0c-1.8,0.1-3,1.7-2.9,3.4c0.1,1.7,1.3,2.9,3.1,3c0.8,0,1.5,0,2.3,0c0.3,0,0.6,0,0.9,0s0.7,0,1,0
				c0.8,0,1.6,0,2.4,0C-233.8,385.8-232.5,384.6-232.5,382.8z"/>
			<path class="st4" d="M-216.1,529.3c7.2,0,13,5.9,13,13c0,7.2-6,13.1-13.2,13c-7.1-0.1-12.9-5.9-12.9-13.1
				C-229.1,535-223.3,529.2-216.1,529.3z M-209.7,542.5c0.2-1.5-0.8-3.2-2.5-3.3c-2.6-0.2-5.3-0.2-8,0c-1.7,0.1-2.7,1.8-2.5,3.5
				c0.2,1.8,1.3,2.7,3,2.8c1.1,0.1,2.3,0,3.4,0l0,0c1.1,0,2.3,0.1,3.4,0C-210.9,545.3-209.9,544.2-209.7,542.5z"/>
			<path class="st0" d="M-212.2,539.2c1.6,0.1,2.7,1.8,2.5,3.3c-0.2,1.7-1.2,2.8-3,2.9c-1.1,0.1-2.3,0-3.4,0l0,0
				c-1.1,0-2.3,0.1-3.4,0c-1.8-0.1-2.8-1-3-2.8c-0.2-1.7,0.8-3.3,2.5-3.5C-217.5,539-214.8,539-212.2,539.2z"/>
			
				<linearGradient id="SVGID_6_" gradientUnits="userSpaceOnUse" x1="-261.6507" y1="-202.3164" x2="-216.2507" y2="-202.3164" gradientTransform="matrix(1 0 0 -1 0 199.8898)">
				<stop  offset="0" style="stop-color:#FFFFFF"/>
				<stop  offset="0.1392" style="stop-color:#FBFEFE"/>
				<stop  offset="0.2728" style="stop-color:#F0FBFB"/>
				<stop  offset="0.4042" style="stop-color:#DCF5F5"/>
				<stop  offset="0.5343" style="stop-color:#C1EDED"/>
				<stop  offset="0.6635" style="stop-color:#9EE3E3"/>
				<stop  offset="0.792" style="stop-color:#73D7D7"/>
				<stop  offset="0.9175" style="stop-color:#41C9C9"/>
				<stop  offset="1" style="stop-color:#1CBEBE"/>
			</linearGradient>
			<path class="st8" d="M-216.3,399.1c0,2.1,0,4.1,0,6.2c-15.1,0-30.2,0-45.4,0c0-2.1,0-4.1,0-6.2
				C-246.5,399.1-231.5,399.1-216.3,399.1z"/>
			<path class="st3" d="M-216.3,412.2c0,10.7,0,21.5,0,32.3c-2.1,0-4.1,0-6.3,0c0-1.9,0-3.7,0-5.5c0-4.9-2.5-7.4-7.4-7.4
				c-1.8,0-3.5,0-5.6,0c0-1.9,0-3.8,0-5.6c0-5-2.5-7.4-7.5-7.5c-1.7,0-3.4,0-5.1,0c-4.3,0.1-6.8,2.7-6.9,7c0,5.6,0,11.2,0,16.8
				c0,0.7,0,1.4,0,2.2c-2.3,0-4.2,0-6.3,0c0-10.8,0-21.5,0-32.4C-246.6,412.2-231.5,412.2-216.3,412.2z"/>
			<path class="st4" d="M-229.3,438.2c0,2.1,0,4.1,0,6.3c-2.1,0-4.1,0-6.2,0c0-2.1,0-4.1,0-6.3
				C-233.5,438.2-231.5,438.2-229.3,438.2z"/>
			<path class="st3" d="M-245.4,529.4c4.8,0,9.5,0,13.8,0c-1.2,2.9-2.4,5.9-3.7,8.9c-0.1,0.3-0.6,0.6-1,0.6c-3,0.1-5.9,0-9.1,0
				C-245.4,535.6-245.4,532.6-245.4,529.4z"/>
			<path class="st0" d="M-235.5,379.5c1.8,0.1,3.1,1.6,3,3.3c0,1.7-1.3,3-3.2,3.1c-0.8,0-1.6,0-2.4,0c-0.3,0-0.7,0-1,0
				c-0.3,0-0.6,0-0.9,0c-0.8,0-1.5,0-2.3,0c-1.8-0.1-3-1.3-3.1-3c-0.1-1.7,1.1-3.3,2.9-3.4C-240.2,379.4-237.8,379.4-235.5,379.5z"
				/>
			<path class="st4" d="M-242.3,425.2c0,2.2,0,4.2,0,6.3c-2.1,0-4.1,0-6.2,0c0-2.1,0-4.1,0-6.3
				C-246.5,425.2-244.5,425.2-242.3,425.2z"/>
			<path class="st4" d="M-242.4,438.3c0,2.1,0,4.1,0,6.2c-2.1,0-4.1,0-6.3,0c0-2.1,0-4.1,0-6.2
				C-246.6,438.3-244.5,438.3-242.4,438.3z"/>
		</g>
	</g>
</g>
<g>
	<g id="XMLID_2_">
		<g>
			<path class="st0" d="M198.9,187.1c0,1.3,0,2.6,0,3.9c-2.1,5.9-6.3,7.8-12.4,7.8c-57.2-0.1-114.4-0.1-171.7-0.1
				c-1.4,0-2.8,0-4.2,0c-2.8-0.1-5.3-1.2-7.1-3.4c-1-1.3-1.6-2.9-2.4-4.3c0-1.3,0-2.6,0-3.9c2.2-7.5,8.1-8.5,14.8-7.8
				c0-1.2,0-2,0-2.9c0-21.8,0-43.7,0-65.5c0-13.3,0-26.6,0-39.9c0-6,3.6-9.6,9.6-9.6c1.7,0,3.4,0,5.3,0c0-4.3,0-8.4,0-12.5
				c0-0.4-0.4-1-0.7-1.2c-2.9-1.6-3.9-4.2-3.9-7.4c0.1-10.1,0.1-20.3,0-30.4c-0.1-4.2,1.4-7.2,5.4-8.7c10.9,0,21.9,0,32.8,0
				c3.2,1.4,5.3,3.6,5.3,7.3c0,10.9,0,21.8,0,32.7c0,2.8-1.1,5-3.6,6.4c-0.4,0.2-0.9,0.7-0.9,1c-0.1,4.2,0,8.4,0,12.7
				c6,0,11.7,0,17.7,0c0-4.2,0-8.3,0-12.4c0-0.4-0.4-1-0.7-1.2c-2.9-1.6-3.9-4.2-3.8-7.4c0.1-10,0.2-20,0-30
				c-0.1-4.2,1.1-7.4,5.1-9.1c11.1,0,22.1,0,33.2,0c3,1.5,5.1,3.5,5.1,7.2c0,11,0,21.9,0,32.9c0,2.7-1.1,4.8-3.5,6.2
				c-0.4,0.3-1,0.8-1,1.2c-0.1,4.2,0,8.3,0,12.5c6,0,11.8,0,17.7,0c0-4.2,0-8.2,0-12.3c0-0.4-0.3-1-0.6-1.2c-3.2-1.7-4-4.6-3.9-7.9
				c0.1-9.9,0.1-19.9,0-29.8c-0.1-4.2,1.3-7.2,5.3-8.8c10.9,0,21.9,0,32.8,0c3.3,1.3,5.4,3.6,5.4,7.4c0,10.9,0,21.7,0,32.5
				c0,2.3-0.6,4.6-2.6,5.7c-1.9,1.1-2,2.4-2,4.2c0.1,2.9,0,5.8,0,8.7c0,0.6,0.1,1.1,0.1,1.7c2.1,0,4-0.1,6,0
				c3.3,0.1,6.1,1.4,7.6,4.5c0.8,1.7,1.2,3.8,1.2,5.7c0.1,35,0,70,0.1,105c0,0.8,0.1,1.6,0.1,2.6c1.6,0,2.9,0,4.2,0
				c2.5-0.1,4.9,0.3,6.6,2.1C196.6,182.9,197.6,185.1,198.9,187.1z M189.6,192.8c2-0.3,3.5-2,3.5-4c0-2-1.4-3.5-3.5-3.8
				c-0.8-0.1-1.5-0.1-2.3-0.1c-58.2,0-116.4,0-174.6,0c-0.8,0-1.6,0-2.3,0.1c-2,0.3-3.4,1.8-3.5,3.7c-0.1,2,1.4,3.7,3.5,4
				c0.7,0.1,1.4,0.1,2.1,0.1c29.1,0,58.2,0,87.3,0c29.2,0,58.4,0,87.7,0C188.2,192.9,188.9,192.9,189.6,192.8z M178.2,72
				c0-0.7,0.2-1.6-0.1-2.1c-0.6-1-1.4-2.3-2.3-2.5c-2.2-0.4-4.4-0.1-6.7-0.1c0,1,0,1.8,0,2.5c0,27.6,0,55.1,0,82.7
				c0,0.8,0,1.5,0,2.3c-0.5,10.5-10.6,18.1-20.8,15.7c-8.2-1.9-13.4-8.7-13.4-17.4c0-27.8,0-55.5,0-83.3c0-0.8,0-1.6,0-2.5
				c-6,0-11.7,0-17.7,0c0,0.9,0,1.7,0,2.6c0,27.4,0,54.9,0,82.3c0,1,0,1.9-0.1,2.9c-0.5,11.6-12.2,19.3-23.1,15.2
				c-7-2.6-11.1-8.8-11.1-16.9c0-27.9,0-55.8,0-83.6c0-0.8,0-1.6,0-2.4c-6.1,0-11.8,0-17.7,0c0,0.9,0,1.7,0,2.4c0,27.5,0,55,0,82.5
				c0,0.8,0,1.7,0,2.5c-0.6,11.1-10.7,18.7-21.4,16c-7.7-1.9-12.8-8.8-12.8-17.1c0-28,0-56,0-84c0-0.8,0-1.5,0-2.4
				c-1.7,0-3.3,0-4.8,0c-3.5,0-4.3,0.8-4.3,4.3c0,35.1,0,70.3,0,105.4c0,0.7,0.1,1.4,0.1,2.1c52.1,0,104.1,0,156.4,0
				c0-0.9,0-1.7,0-2.5C178.2,141.8,178.2,106.9,178.2,72z M165.6,42.7c1.7,0,2.4-0.5,2.4-2.3c-0.1-5.1,0-10.3,0-15.4
				c0-5.2-0.1-10.4,0-15.6c0-1.7-0.6-2.4-2.3-2.4c-9.1,0.1-18.1,0.1-27.2,0c-1.8,0-2.4,0.6-2.4,2.3c0.1,10.3,0.1,20.7,0,31
				c0,1.7,0.6,2.4,2.3,2.3C147.5,42.7,156.5,42.7,165.6,42.7z M163.3,154.2c0.1-13.7,0-27.4,0-41c0-0.4-0.1-0.8-0.1-1.3
				c-2.8,0-5.5,0-8.3,0c0,0.8,0,1.5,0,2.2c0,5.9,0,11.8,0,17.7c0,4.8-2,6.8-6.8,6.8c-2.4,0-4.8,0-7.2,0c0,6.2-0.3,12.1,0.1,18.1
				c0.2,3.5,2.6,6.1,5.8,7.7C154.4,168.3,163.3,162.9,163.3,154.2z M163.3,105.7c0-12.8,0-25.5,0-38.4c-7.6,0-15,0-22.5,0
				c0,3.9,0,7.6,0,11.6c2.7,0,5.2,0,7.8,0c4.3,0,6.4,2.1,6.4,6.4c0,6.1,0,12.2,0,18.3c0,0.7,0,1.3,0,2
				C157.8,105.7,160.5,105.7,163.3,105.7z M163.2,61.3c0-4.3,0-8.4,0-12.7c-7.5,0-15,0-22.5,0c0,4.3,0,8.4,0,12.7
				C148.4,61.3,155.8,61.3,163.2,61.3z M149,132.6c0-16,0-31.8,0-47.7c-2.7,0-5.4,0-8.2,0c0,16,0,31.8,0,47.7
				C143.6,132.6,146.3,132.6,149,132.6z M113.7,42.7c1.7,0,2.2-0.6,2.2-2.2c-0.1-10.4-0.1-20.8,0-31.2c0-1.7-0.5-2.3-2.2-2.2
				c-9.1,0.1-18.3,0.1-27.4,0c-1.7,0-2.2,0.6-2.2,2.2c0.1,5.2,0,10.4,0,15.6s0.1,10.4,0,15.6c0,1.7,0.5,2.3,2.2,2.2
				C95.4,42.7,104.6,42.7,113.7,42.7z M111.3,154.6c0.1-10.5,0-20.9,0-31.4c0-0.3-0.1-0.6-0.2-0.8c-2.8,0-5.4,0-8.2,0
				c0,3.3,0,6.4,0,9.6c0,4.4-2.2,6.5-6.5,6.5c-2.5,0-5,0-7.5,0c0,6.2-0.2,12.2,0.1,18.2c0.1,2.6,1.8,4.8,3.9,6.4
				c3.6,2.8,7.7,3.3,11.8,1.4C108.9,162.6,111.2,159.2,111.3,154.6z M111.2,116.4c0-16.4,0-32.6,0-49c-7.6,0-15,0-22.4,0
				c0,3.9,0,7.6,0,11.6c2.4,0,4.7,0,7,0c5.2,0,7.1,1.9,7.1,7.1c0,9.3,0,18.6,0,27.9c0,0.7,0,1.5,0,2.3
				C105.8,116.4,108.5,116.4,111.2,116.4z M111.2,61.3c0-4.3,0-8.4,0-12.7c-7.6,0-15,0-22.3,0c0,4.3,0,8.5,0,12.7
				C96.4,61.3,103.8,61.3,111.2,61.3z M96.9,132.7c0-16,0-31.9,0-47.8c-2.7,0-5.3,0-8,0c0,15.9,0,31.9,0,47.8
				C91.6,132.7,94.3,132.7,96.9,132.7z M61.7,42.7c1.8,0,2.3-0.6,2.3-2.4c-0.1-5.1,0-10.3,0-15.4s0-10.3,0-15.4
				C64,7.8,63.5,7,61.6,7c-9.1,0.1-18.1,0.1-27.2,0C32.5,7,32,7.7,32,9.4c0.1,10.3,0.1,20.7,0,31c0,1.8,0.7,2.3,2.4,2.3
				C43.5,42.7,52.6,42.7,61.7,42.7z M59.3,153.8c0.1-18.5,0-37,0-55.5c0-0.5-0.1-1-0.2-1.4c-2.8,0-5.5,0-8.3,0c0,0.9,0,1.6,0,2.3
				c0,11,0,22.1,0,33.1c0,4-2.3,6.2-6.2,6.3c-2.6,0-5.2,0-7.9,0c0,6-0.2,11.7,0.1,17.5c0.2,3.7,2.5,6.5,5.9,8.3
				C50.5,168.3,59.3,162.8,59.3,153.8z M59.3,61.4c0-4.3,0-8.4,0-12.7c-7.6,0-15.1,0-22.5,0c0,4.3,0,8.5,0,12.7
				C44.3,61.4,51.7,61.4,59.3,61.4z M59.2,90.8c0-7.9,0-15.6,0-23.3c-7.6,0-15,0-22.4,0c0,3.9,0,7.7,0,11.6c2.8,0,5.4,0,8,0
				c3.9,0,6.1,2.3,6.1,6.1c0,1.8,0,3.7,0,5.6C53.8,90.8,56.5,90.8,59.2,90.8z M45,132.6c0-16,0-31.8,0-47.7c-2.8,0-5.5,0-8.2,0
				c0,16,0,31.8,0,47.7C39.6,132.6,42.3,132.6,45,132.6z"/>
			<path class="st3" d="M193.1,188.8c0,2-1.4,3.7-3.5,4c-0.7,0.1-1.4,0-2.1,0c-29.2,0-58.4,0-87.7,0c-29.1,0-58.2,0-87.3,0
				c-0.7,0-1.4,0-2.1-0.1c-2-0.3-3.5-2-3.5-4c0.1-1.9,1.5-3.5,3.5-3.7c0.8-0.1,1.5-0.1,2.3-0.1c58.2,0,116.4,0,174.6,0
				c0.8,0,1.6,0,2.3,0.1C191.6,185.3,193,186.9,193.1,188.8z"/>
			<linearGradient id="SVGID_7_" gradientUnits="userSpaceOnUse" x1="136.0441" y1="24.8758" x2="167.9694" y2="24.8758">
				<stop  offset="0" style="stop-color:#FFFFFF"/>
				<stop  offset="0.1392" style="stop-color:#FBFEFE"/>
				<stop  offset="0.2728" style="stop-color:#F0FBFB"/>
				<stop  offset="0.4042" style="stop-color:#DCF5F5"/>
				<stop  offset="0.5343" style="stop-color:#C1EDED"/>
				<stop  offset="0.6635" style="stop-color:#9EE3E3"/>
				<stop  offset="0.792" style="stop-color:#73D7D7"/>
				<stop  offset="0.9175" style="stop-color:#41C9C9"/>
				<stop  offset="1" style="stop-color:#1CBEBE"/>
			</linearGradient>
			<path class="st9" d="M168,40.4c0,1.8-0.6,2.3-2.4,2.3c-9.1-0.1-18.1-0.1-27.2,0c-1.8,0-2.3-0.6-2.3-2.3c0.1-10.3,0.1-20.7,0-31
				c0-1.8,0.6-2.3,2.4-2.3c9.1,0.1,18.1,0.1,27.2,0c1.8,0,2.4,0.6,2.3,2.4c-0.1,5.2,0,10.4,0,15.6C167.9,30.1,167.9,35.3,168,40.4z"
				/>
			<linearGradient id="SVGID_8_" gradientUnits="userSpaceOnUse" x1="140.8401" y1="138.7267" x2="163.359" y2="138.7267">
				<stop  offset="0" style="stop-color:#FFFFFF"/>
				<stop  offset="0.1392" style="stop-color:#FBFEFE"/>
				<stop  offset="0.2728" style="stop-color:#F0FBFB"/>
				<stop  offset="0.4042" style="stop-color:#DCF5F5"/>
				<stop  offset="0.5343" style="stop-color:#C1EDED"/>
				<stop  offset="0.6635" style="stop-color:#9EE3E3"/>
				<stop  offset="0.792" style="stop-color:#73D7D7"/>
				<stop  offset="0.9175" style="stop-color:#41C9C9"/>
				<stop  offset="1" style="stop-color:#1CBEBE"/>
			</linearGradient>
			<path class="st10" d="M163.3,113.1c0,13.7,0.1,27.4,0,41c0,8.7-8.9,14.1-16.5,10.1c-3.2-1.6-5.5-4.2-5.8-7.7
				c-0.4-5.9-0.1-11.9-0.1-18.1c2.3,0,4.8,0,7.2,0c4.7,0,6.8-2,6.8-6.8c0-5.9,0-11.8,0-17.7c0-0.7,0-1.4,0-2.2c2.9,0,5.5,0,8.3,0
				C163.3,112.3,163.3,112.7,163.3,113.1z"/>
			<linearGradient id="SVGID_9_" gradientUnits="userSpaceOnUse" x1="140.7512" y1="86.5689" x2="163.2614" y2="86.5689">
				<stop  offset="0" style="stop-color:#FFFFFF"/>
				<stop  offset="0.1392" style="stop-color:#FBFEFE"/>
				<stop  offset="0.2728" style="stop-color:#F0FBFB"/>
				<stop  offset="0.4042" style="stop-color:#DCF5F5"/>
				<stop  offset="0.5343" style="stop-color:#C1EDED"/>
				<stop  offset="0.6635" style="stop-color:#9EE3E3"/>
				<stop  offset="0.792" style="stop-color:#73D7D7"/>
				<stop  offset="0.9175" style="stop-color:#41C9C9"/>
				<stop  offset="1" style="stop-color:#1CBEBE"/>
			</linearGradient>
			<path class="st11" d="M163.3,67.4c0,12.9,0,25.5,0,38.4c-2.7,0-5.4,0-8.4,0c0-0.7,0-1.4,0-2c0-6.1,0-12.2,0-18.3
				c0-4.3-2.1-6.4-6.4-6.4c-2.5,0-5.1,0-7.8,0c0-4,0-7.8,0-11.6C148.3,67.4,155.7,67.4,163.3,67.4z"/>
			<linearGradient id="SVGID_10_" gradientUnits="userSpaceOnUse" x1="140.7512" y1="54.9871" x2="163.2408" y2="54.9871">
				<stop  offset="0" style="stop-color:#FFFFFF"/>
				<stop  offset="0.1392" style="stop-color:#FBFEFE"/>
				<stop  offset="0.2728" style="stop-color:#F0FBFB"/>
				<stop  offset="0.4042" style="stop-color:#DCF5F5"/>
				<stop  offset="0.5343" style="stop-color:#C1EDED"/>
				<stop  offset="0.6635" style="stop-color:#9EE3E3"/>
				<stop  offset="0.792" style="stop-color:#73D7D7"/>
				<stop  offset="0.9175" style="stop-color:#41C9C9"/>
				<stop  offset="1" style="stop-color:#1CBEBE"/>
			</linearGradient>
			<path class="st12" d="M163.2,48.7c0,4.2,0,8.4,0,12.7c-7.4,0-14.9,0-22.5,0c0-4.2,0-8.4,0-12.7C148.3,48.7,155.7,48.7,163.2,48.7
				z"/>
			<path class="st3" d="M149,84.9c0,15.9,0,31.7,0,47.7c-2.7,0-5.4,0-8.2,0c0-15.9,0-31.7,0-47.7C143.6,84.9,146.2,84.9,149,84.9z"
				/>
			<linearGradient id="SVGID_11_" gradientUnits="userSpaceOnUse" x1="84.0856" y1="24.8757" x2="115.9133" y2="24.8757">
				<stop  offset="0" style="stop-color:#FFFFFF"/>
				<stop  offset="0.1392" style="stop-color:#FBFEFE"/>
				<stop  offset="0.2728" style="stop-color:#F0FBFB"/>
				<stop  offset="0.4042" style="stop-color:#DCF5F5"/>
				<stop  offset="0.5343" style="stop-color:#C1EDED"/>
				<stop  offset="0.6635" style="stop-color:#9EE3E3"/>
				<stop  offset="0.792" style="stop-color:#73D7D7"/>
				<stop  offset="0.9175" style="stop-color:#41C9C9"/>
				<stop  offset="1" style="stop-color:#1CBEBE"/>
			</linearGradient>
			<path class="st13" d="M115.9,40.5c0,1.7-0.5,2.3-2.2,2.2c-9.1-0.1-18.3-0.1-27.4,0c-1.7,0-2.2-0.6-2.2-2.2c0.1-5.2,0-10.4,0-15.6
				s0-10.4,0-15.6c0-1.7,0.5-2.3,2.2-2.2c9.1,0.1,18.3,0.1,27.4,0c1.7,0,2.2,0.6,2.2,2.2C115.9,19.7,115.9,30.1,115.9,40.5z"/>
			<linearGradient id="SVGID_12_" gradientUnits="userSpaceOnUse" x1="88.8765" y1="144.0612" x2="111.3124" y2="144.0612">
				<stop  offset="0" style="stop-color:#FFFFFF"/>
				<stop  offset="0.1392" style="stop-color:#FBFEFE"/>
				<stop  offset="0.2728" style="stop-color:#F0FBFB"/>
				<stop  offset="0.4042" style="stop-color:#DCF5F5"/>
				<stop  offset="0.5343" style="stop-color:#C1EDED"/>
				<stop  offset="0.6635" style="stop-color:#9EE3E3"/>
				<stop  offset="0.792" style="stop-color:#73D7D7"/>
				<stop  offset="0.9175" style="stop-color:#41C9C9"/>
				<stop  offset="1" style="stop-color:#1CBEBE"/>
			</linearGradient>
			<path class="st14" d="M111.3,123.3c0,10.5,0.1,20.9,0,31.4c0,4.6-2.4,8-6.5,9.9c-4.1,1.9-8.2,1.4-11.8-1.4
				c-2.1-1.6-3.8-3.8-3.9-6.4c-0.3-6-0.1-12-0.1-18.2c2.5,0,5,0,7.5,0c4.4,0,6.5-2.1,6.5-6.5c0-3.1,0-6.3,0-9.6c2.8,0,5.4,0,8.2,0
				C111.2,122.7,111.3,123,111.3,123.3z"/>
			<linearGradient id="SVGID_13_" gradientUnits="userSpaceOnUse" x1="88.8144" y1="91.8759" x2="111.2113" y2="91.8759">
				<stop  offset="0" style="stop-color:#FFFFFF"/>
				<stop  offset="0.1392" style="stop-color:#FBFEFE"/>
				<stop  offset="0.2728" style="stop-color:#F0FBFB"/>
				<stop  offset="0.4042" style="stop-color:#DCF5F5"/>
				<stop  offset="0.5343" style="stop-color:#C1EDED"/>
				<stop  offset="0.6635" style="stop-color:#9EE3E3"/>
				<stop  offset="0.792" style="stop-color:#73D7D7"/>
				<stop  offset="0.9175" style="stop-color:#41C9C9"/>
				<stop  offset="1" style="stop-color:#1CBEBE"/>
			</linearGradient>
			<path class="st15" d="M111.2,67.4c0,16.4,0,32.6,0,49c-2.7,0-5.4,0-8.3,0c0-0.8,0-1.6,0-2.3c0-9.3,0-18.6,0-27.9
				c0-5.2-1.9-7.1-7.1-7.1c-2.3,0-4.6,0-7,0c0-4,0-7.7,0-11.6C96.2,67.4,103.6,67.4,111.2,67.4z"/>
			<linearGradient id="SVGID_14_" gradientUnits="userSpaceOnUse" x1="88.8608" y1="55.0052" x2="111.2062" y2="55.0052">
				<stop  offset="0" style="stop-color:#FFFFFF"/>
				<stop  offset="0.1392" style="stop-color:#FBFEFE"/>
				<stop  offset="0.2728" style="stop-color:#F0FBFB"/>
				<stop  offset="0.4042" style="stop-color:#DCF5F5"/>
				<stop  offset="0.5343" style="stop-color:#C1EDED"/>
				<stop  offset="0.6635" style="stop-color:#9EE3E3"/>
				<stop  offset="0.792" style="stop-color:#73D7D7"/>
				<stop  offset="0.9175" style="stop-color:#41C9C9"/>
				<stop  offset="1" style="stop-color:#1CBEBE"/>
			</linearGradient>
			<path class="st16" d="M111.2,48.7c0,4.3,0,8.4,0,12.7c-7.5,0-14.8,0-22.3,0c0-4.2,0-8.4,0-12.7C96.3,48.7,103.6,48.7,111.2,48.7z
				"/>
			<path class="st3" d="M96.9,84.9c0,15.9,0,31.8,0,47.8c-2.7,0-5.3,0-8,0c0-15.9,0-31.8,0-47.8C91.6,84.9,94.2,84.9,96.9,84.9z"/>
			<linearGradient id="SVGID_15_" gradientUnits="userSpaceOnUse" x1="32.0315" y1="24.8705" x2="63.9725" y2="24.8705">
				<stop  offset="0" style="stop-color:#FFFFFF"/>
				<stop  offset="0.1392" style="stop-color:#FBFEFE"/>
				<stop  offset="0.2728" style="stop-color:#F0FBFB"/>
				<stop  offset="0.4042" style="stop-color:#DCF5F5"/>
				<stop  offset="0.5343" style="stop-color:#C1EDED"/>
				<stop  offset="0.6635" style="stop-color:#9EE3E3"/>
				<stop  offset="0.792" style="stop-color:#73D7D7"/>
				<stop  offset="0.9175" style="stop-color:#41C9C9"/>
				<stop  offset="1" style="stop-color:#1CBEBE"/>
			</linearGradient>
			<path class="st17" d="M64,40.3c0,1.7-0.5,2.4-2.3,2.4c-9.1-0.1-18.2-0.1-27.2,0c-1.7,0-2.4-0.5-2.4-2.3c0.1-10.3,0.1-20.7,0-31
				C32,7.7,32.5,7,34.3,7c9.1,0.1,18.1,0.1,27.2,0c2,0,2.4,0.7,2.4,2.5c-0.1,5.1,0,10.3,0,15.4S63.9,35.2,64,40.3z"/>
			<linearGradient id="SVGID_16_" gradientUnits="userSpaceOnUse" x1="36.6971" y1="131.2815" x2="59.377" y2="131.2815">
				<stop  offset="0" style="stop-color:#FFFFFF"/>
				<stop  offset="0.1392" style="stop-color:#FBFEFE"/>
				<stop  offset="0.2728" style="stop-color:#F0FBFB"/>
				<stop  offset="0.4042" style="stop-color:#DCF5F5"/>
				<stop  offset="0.5343" style="stop-color:#C1EDED"/>
				<stop  offset="0.6635" style="stop-color:#9EE3E3"/>
				<stop  offset="0.792" style="stop-color:#73D7D7"/>
				<stop  offset="0.9175" style="stop-color:#41C9C9"/>
				<stop  offset="1" style="stop-color:#1CBEBE"/>
			</linearGradient>
			<path class="st18" d="M59.4,98.3c0,18.5,0.1,37,0,55.5c0,9-8.8,14.5-16.6,10.5c-3.4-1.7-5.7-4.6-5.9-8.3
				c-0.3-5.7-0.1-11.5-0.1-17.5c2.7,0,5.3,0,7.9,0c3.9,0,6.2-2.3,6.2-6.3c0-11,0-22.1,0-33.1c0-0.7,0-1.4,0-2.3c2.8,0,5.4,0,8.3,0
				C59.2,97.4,59.4,97.8,59.4,98.3z"/>
			<linearGradient id="SVGID_17_" gradientUnits="userSpaceOnUse" x1="36.7644" y1="55.0206" x2="59.254" y2="55.0206">
				<stop  offset="0" style="stop-color:#FFFFFF"/>
				<stop  offset="0.1392" style="stop-color:#FBFEFE"/>
				<stop  offset="0.2728" style="stop-color:#F0FBFB"/>
				<stop  offset="0.4042" style="stop-color:#DCF5F5"/>
				<stop  offset="0.5343" style="stop-color:#C1EDED"/>
				<stop  offset="0.6635" style="stop-color:#9EE3E3"/>
				<stop  offset="0.792" style="stop-color:#73D7D7"/>
				<stop  offset="0.9175" style="stop-color:#41C9C9"/>
				<stop  offset="1" style="stop-color:#1CBEBE"/>
			</linearGradient>
			<path class="st19" d="M59.3,48.7c0,4.3,0,8.4,0,12.7c-7.5,0-15,0-22.5,0c0-4.2,0-8.4,0-12.7C44.2,48.7,51.6,48.7,59.3,48.7z"/>
			<linearGradient id="SVGID_18_" gradientUnits="userSpaceOnUse" x1="36.7901" y1="79.0913" x2="59.1922" y2="79.0913">
				<stop  offset="0" style="stop-color:#FFFFFF"/>
				<stop  offset="0.1392" style="stop-color:#FBFEFE"/>
				<stop  offset="0.2728" style="stop-color:#F0FBFB"/>
				<stop  offset="0.4042" style="stop-color:#DCF5F5"/>
				<stop  offset="0.5343" style="stop-color:#C1EDED"/>
				<stop  offset="0.6635" style="stop-color:#9EE3E3"/>
				<stop  offset="0.792" style="stop-color:#73D7D7"/>
				<stop  offset="0.9175" style="stop-color:#41C9C9"/>
				<stop  offset="1" style="stop-color:#1CBEBE"/>
			</linearGradient>
			<path class="st20" d="M59.2,67.4c0,7.7,0,15.4,0,23.3c-2.7,0-5.4,0-8.3,0c0-1.9,0-3.7,0-5.6c-0.1-3.9-2.3-6.1-6.1-6.1
				c-2.6,0-5.3,0-8,0c0-3.9,0-7.7,0-11.6C44.2,67.4,51.6,67.4,59.2,67.4z"/>
			<path class="st3" d="M45,84.9c0,15.9,0,31.7,0,47.7c-2.7,0-5.4,0-8.2,0c0-15.9,0-31.7,0-47.7C39.5,84.9,42.2,84.9,45,84.9z"/>
		</g>
		<g>
		</g>
	</g>
</g>
<g>
	<path d="M597,71.3c0-8.1,0-15.8,0-23.8c-19.8,0-39.5,0-59.7,0c0,1.4,0,2.7,0,4c0,5.7-2.1,7.7-7.6,7.8c-4.1,0-8.2,0-12.4,0
		c-30.4,0-60.9,0-91.3,0c-6.7,0-8.5-1.8-8.5-8.3c0-6.4,0-12.7,0-19.1c0-6.7,1.8-8.5,8.3-8.5c34.3,0,68.6,0,102.9,0
		c6.7,0,8.5,1.7,8.5,8.3c0,1.1,0,2.2,0,3.5c20,0,39.6,0,59.9,0c0-1.5,0-2.8,0-4.1c0-28-0.2-55.9,0.1-83.9
		c0.1-11.3-7.5-21.7-24.1-19.6c-0.7,0.1-1.4,0.5-1.9,1c-9.1,8.2-19.9,11.5-32,10.9c-0.2,0-0.5,0.1-1.1,0.3c-1.3,5-2.7,10.1-4.1,15.3
		c-1.6,5.9-3.9,7.2-9.9,5.6c-2.9-0.8-5.8-1.5-8.7-2.2c-0.1,0-0.2,0-1,0c-1.2,4.6-2.5,9.3-3.8,14.1c-2,7.4-3.8,8.4-11.3,6.4
		c-0.7-0.2-1.4-0.3-2.6-0.6c-1.3,4.8-2.6,9.6-3.8,14.4c-1.9,7-4,8.2-11,6.3c-6.3-1.7-12.5-3.3-18.8-5c-5.2-1.4-6.7-3.9-5.3-9.1
		c1.3-5.2,2.7-10.3,4.2-15.8c-1.8-0.6-3.4-1-5.1-1.6c-4.3-1.4-5.7-3.8-4.6-8.2c1.4-5.4,2.8-10.8,4.3-16.5c-3.6-1-6.9-1.9-10.3-2.9
		c-5-1.5-6.5-3.8-5.1-8.9c10.1-37.7,20.1-75.3,30.2-113c1.4-5.2,4-6.7,9.2-5.3c5.2,1.4,10.3,2.7,15.9,4.2c1.5-5.5,3-10.9,4.3-16.3
		c0.2-0.9-0.4-2.1-1-3c-4.3-6.6-5.7-13.7-4.6-21.4c0.9-6.2,3.8-8.2,9.8-6.6c18.1,4.8,36.1,9.6,54.2,14.4c5.9,1.6,7.4,4.5,5.3,10.3
		c-2.6,7.2-7.5,12.5-14.1,16.4c-1.6,0.9-3,2.8-3.6,4.6c-1.5,4.4-2.6,9.1-3.9,14c5.3,1.4,10.3,2.8,15.3,4.1c5.9,1.6,7.3,4,5.7,9.9
		c-1.4,5.2-2.8,10.3-4.1,15.2c4,2.9,7.7,5.9,11.8,8.2c1.7,1,4.3,0.9,6.4,0.9c24.1,0.2,44.2,9.1,60,27.2c12.8,14.7,18.9,32,18.9,51.5
		c0,42.8,0,85.6-0.1,128.4c0,2.9,0.9,4.7,3.1,6.6c9.6,8.1,14.5,18.5,14.9,31c0.1,4,0.1,8,0,12c-0.1,4.6-2.3,6.8-7,6.9
		c-0.9,0-1.7,0-2.6,0c-103.4,0-206.9,0-310.3,0c-8.1,0-9.5-1.4-9.5-9.6c-0.1-8.4-0.1-16.7,3.3-24.6c6.8-15.9,21.8-25.7,40-25.7
		c67.7,0,135.5,0,203.2,0C593.6,71.3,595.1,71.3,597,71.3z M357.8,118.9c101.8,0,203.4,0,305,0c1.9-21.4-11.1-35.7-32.2-35.7
		c-80.2,0-160.4,0-240.7,0c-2.2,0-4.5,0-6.7,0.3C366.2,86.4,356.4,100,357.8,118.9z M581.2-120.3c5.4,12.3,5.1,24,0.1,35.5
		c0.6,0.3,0.8,0.4,1,0.5c18.7,4.2,26.8,14.3,26.8,33.5c0,39.2,0,78.3,0,117.5c0,1.4,0,2.9,0,5.1c12.2,0,24,0,35.9,0
		c0-0.1,0.1-0.7,0.1-1.3c0-42,0.3-84.1-0.1-126.1c-0.2-22.9-10.6-40.9-29.5-53.8C605.4-116.3,594-119.8,581.2-120.3z M526.6-63.7
		c-20.5-12.8-28.6-28.7-24.3-47.7c1.9-8.5,6-15.8,12.4-21.7c9.4-8.7,20.7-12,33.5-11.1c1.1-4.1,2-7.9,3.1-11.9
		c-23.3-6.2-46.2-12.4-69.4-18.6c-9.4,35-18.6,69.5-27.9,104.2c23.3,6.2,46.2,12.3,69.4,18.5C524.6-56.1,525.7-59.9,526.6-63.7z
		 M573.2-102.5c0-16.3-13.4-29.8-29.7-29.9c-16.6-0.1-30.1,13.3-30.2,29.8c-0.1,16.6,13.4,30.1,29.9,30.1
		C559.8-72.5,573.2-86,573.2-102.5z M429.7,47c32,0,63.7,0,95.4,0c0-4,0-7.8,0-11.5c-31.9,0-63.6,0-95.4,0
		C429.7,39.4,429.7,43.1,429.7,47z M551.3-205.7c-15-4-29.3-7.8-43.6-11.7c-1,6,5.2,13.6,11.7,15.4c4.3,1.2,8.6,2.6,12.9,3.5
		C539.8-196.9,546-199.1,551.3-205.7z M500-33.5c1.1-4.1,2-7.7,3-11.6c-11.8-3.1-23.1-6.1-34.7-9.2c-1.1,4.2-2,7.7-3,11.5
		C476.9-39.6,488.2-36.6,500-33.5z M534.5-185.6c-8-2.1-15.4-4.1-23.1-6.1c-1,3.9-2,7.7-3.1,11.7c7.9,2.1,15.4,4.1,23.1,6.1
		C532.6-178.2,533.5-181.9,534.5-185.6z M470.6-16.5c4,1.1,7.7,2.1,11.6,3.1c1.1-4,2-7.7,3-11.6c-4.1-1.1-7.6-2-11.4-3
		C472.7-24.1,471.7-20.5,470.6-16.5z"/>
	<path d="M387.5-84.5c0,15.6,0,30.9,0,46.3c0,10,0,20,0,29.9c0,5.6,2.1,7.6,7.7,7.6c14.5,0,28.9,0,43.4,0c1,0,2-0.1,3,0
		c3.3,0.3,5.6,2.7,5.7,5.8c0.1,3.3-2.3,6-5.8,6c-16.6,0.1-33.2,0.3-49.8-0.1c-9.3-0.3-16.2-8.5-16.2-18.3c-0.1-24.3,0-48.7,0-73
		c0-1.4,0-2.7,0-4.5c-26.2-3.3-46.1-16.1-58.2-39.7c-7.9-15.3-9.7-31.6-5.8-48.4c8.2-34.7,39.7-57.8,75.2-55.5
		c34.9,2.3,62.8,29.8,66.4,65.8C456.7-126.9,430-87.9,387.5-84.5z M381.4-96.5c33,0,60-26.8,60-59.6c0-33.4-26.7-60.2-60.1-60.2
		c-32.9,0-59.7,27.1-59.6,60.3C321.7-123.3,348.8-96.4,381.4-96.5z"/>
	<path class="st4" d="M357.8,118.9c-1.5-18.9,8.4-32.5,25.5-35.3c2.2-0.4,4.5-0.3,6.7-0.3c80.2,0,160.4,0,240.7,0
		c21.1,0,34,14.2,32.2,35.7C561.3,118.9,459.7,118.9,357.8,118.9z"/>
	<path class="st4" d="M581.2-120.3c12.8,0.5,24.1,4,34.2,10.9c18.9,12.9,29.3,30.9,29.5,53.8c0.4,42,0.1,84.1,0.1,126.1
		c0,0.6-0.1,1.2-0.1,1.3c-11.9,0-23.6,0-35.9,0c0-2.3,0-3.7,0-5.1c0-39.2,0-78.3,0-117.5c0-19.1-8.1-29.2-26.8-33.5
		c-0.2-0.1-0.4-0.2-1-0.5C586.3-96.3,586.6-108,581.2-120.3z"/>
	<path class="st4" d="M526.6-63.7c-1,3.7-2,7.5-3.1,11.7c-23.2-6.2-46.2-12.3-69.4-18.5c9.3-34.7,18.5-69.2,27.9-104.2
		c23.2,6.2,46.1,12.4,69.4,18.6c-1,4-2,7.8-3.1,11.9c-12.8-0.9-24.1,2.5-33.5,11.1c-6.4,5.9-10.5,13.2-12.4,21.7
		C498.1-92.4,506.2-76.5,526.6-63.7z"/>
	<path class="st4" d="M573.2-102.5c0,16.6-13.5,30-30,30c-16.5,0-29.9-13.5-29.9-30.1c0.1-16.5,13.6-29.9,30.2-29.8
		C559.8-132.4,573.2-118.9,573.2-102.5z M543.6-120.4c-9.8-0.1-18,7.7-18.3,17.4c-0.2,10,7.7,18.3,17.6,18.5
		c9.8,0.2,18.1-7.7,18.3-17.4C561.4-112,553.5-120.3,543.6-120.4z"/>
	<path class="st4" d="M429.7,47c0-4,0-7.7,0-11.5c31.8,0,63.4,0,95.4,0c0,3.7,0,7.5,0,11.5C493.4,47,461.7,47,429.7,47z"/>
	<path class="st4" d="M551.3-205.7c-5.3,6.6-11.6,8.8-19,7.3c-4.4-0.9-8.6-2.3-12.9-3.5c-6.5-1.8-12.7-9.5-11.7-15.4
		C522-213.6,536.4-209.7,551.3-205.7z"/>
	<path class="st4" d="M500-33.5c-11.8-3.2-23.1-6.2-34.6-9.3c1-3.8,1.9-7.4,3-11.5c11.5,3.1,22.9,6.1,34.7,9.2
		C502-41.2,501-37.5,500-33.5z"/>
	<path class="st4" d="M534.5-185.6c-0.9,3.6-1.9,7.3-3,11.6c-7.7-2-15.2-4-23.1-6.1c1.1-4,2.1-7.8,3.1-11.7
		C519-189.7,526.4-187.7,534.5-185.6z"/>
	<path class="st4" d="M470.6-16.5c1.1-4,2.1-7.6,3.2-11.5c3.8,1,7.4,1.9,11.4,3c-1,3.9-2,7.5-3,11.6
		C478.3-14.5,474.7-15.5,470.6-16.5z"/>
	<path class="st4" d="M381.4-96.5c-32.6,0-59.7-26.9-59.8-59.5c-0.1-33.3,26.7-60.4,59.6-60.3c33.4,0,60.2,26.8,60.1,60.2
		C441.4-123.3,414.5-96.5,381.4-96.5z M374.6-185.4c1.3,3.3,1.5,6.4-3.3,7.6c-4,1-4.1-2.7-6.4-3.8c0.3-0.7,0.5-1.1,0.7-1.6
		c1.4-3,0.9-5.7-1.7-7.7c-2.8-2.1-5.7-1.5-8.1,0.9c-2.8,2.7-5.6,5.4-8.2,8.2c-2.1,2.3-2.3,5-0.5,7.5c1.7,2.4,4.3,3.4,6.9,2
		c2.8-1.5,3.6,0.7,5.2,1.9c1.7,1.3,1,2.5,0.6,4.2c-1.1,5-4.7,3.6-8,3.5c-0.2-0.5-0.3-0.9-0.5-1.4c-1.2-3.2-3.5-5-6.9-4.3
		c-3.4,0.7-4.9,3.1-4.9,6.6c0,3.9-0.1,7.7,0.1,11.6c0.1,3,2,5.3,4.8,5.3c2.1,0,4.3-1.7,6.3-2.9c0.7-0.4,0.8-1.7,1.2-2.6
		c3.6-0.4,7.3-1.2,7.9,3.9c0.2,1.2,0,2.9-0.8,3.7c-1.1,1.3-2,3.6-4.7,2.1c-2.8-1.5-5.4-0.6-7.2,1.9c-1.9,2.7-1.5,5.4,0.8,7.8
		c2.2,2.4,4.5,4.6,6.8,6.9c3.3,3.3,6.1,4,8.9,2.1c2.8-1.8,3.2-4.6,1.5-8.9c-0.1-0.2,0.1-0.5,0.1-0.5c2.2-3.4,4.4-5.3,8.6-2.8
		c3.5,2.1,0.9,4.9,1.8,7.2c-1,0.4-1.9,0.7-2.6,1.1c-2.5,1.3-4.1,3.6-3.1,6.1c0.8,2,2.9,4.6,4.8,4.9c4.5,0.7,9.3,0.7,13.8,0
		c1.9-0.3,4.4-2.9,4.8-4.7c0.3-1.8-1.7-4.2-2.9-6.2c-0.4-0.7-1.7-0.8-2.4-1.1c-0.8-4-0.6-7.2,4.2-8.3c3.8-0.8,4.1,2.7,6.2,4
		c-2,3.4-2.2,6.5,0.8,9c2.3,1.9,5,1.9,7.2,0c3.4-3,6.5-6.2,9.5-9.5c1.9-2.2,1.9-4.9,0-7.2c-1.7-2.2-4-2.9-6.7-2
		c-0.8,0.3-1.6,0.7-2.3,1c-5.9-5.5-5-3.2-1.9-10.4c2.1,0,4.2,0,6.3,0c0.9,3.6,2.8,6.1,6.8,5.7c3.1-0.3,5.1-2.3,5.3-5.4
		c0.2-4.4,0.2-8.7,0-13.1c-0.2-2.9-2.1-4.8-5-5.3c-2.7-0.4-4.9,0.7-6.2,3.2c-0.4,0.8-0.8,1.7-1.1,2.6c-2.2,0-4.2,0-6.1,0
		c-3.2-6.2-3.2-6.2,1.9-10.4c0.3,0.1,0.7,0.2,1,0.3c3.7,1.5,6.6,1,8.2-1.7c1.9-3,1.1-5.7-1.3-8.1c-2.5-2.6-5.1-5.1-7.7-7.6
		c-2.4-2.2-5.1-2.7-7.8-0.8c-2.5,1.8-3.5,4.5-2,7.2c1.5,2.8-0.7,3.7-2,4.8c-0.9,0.7-2.5,1-3.7,0.8c-5-0.6-4.4-4.3-4-7.9
		c0.3-0.1,0.6-0.3,0.9-0.4c3.4-1.1,5.3-3.3,4.8-7c-0.4-3.1-3-4.9-6.9-4.9c-3.6,0-7.2-0.1-10.8,0c-4,0.2-7.1,3.6-5.8,6.9
		C370.7-189.1,373-187.3,374.6-185.4z"/>
	<path d="M543.6-120.4c9.9,0.1,17.8,8.5,17.6,18.5c-0.2,9.7-8.5,17.6-18.3,17.4c-9.9-0.2-17.9-8.5-17.6-18.5
		C525.6-112.7,533.8-120.6,543.6-120.4z M543.1-96.5c3.2,0.1,6-2.5,6.1-5.7c0.1-3.4-2.6-6.2-6-6.2c-3.2,0-5.9,2.7-5.9,5.9
		C537.3-99.3,539.9-96.6,543.1-96.5z"/>
	<path d="M374.6-185.4c-1.6-2-3.9-3.7-4.8-6c-1.3-3.4,1.8-6.8,5.8-6.9c3.6-0.2,7.2-0.1,10.8,0c3.9,0,6.5,1.8,6.9,4.9
		c0.5,3.7-1.4,5.9-4.8,7c-0.3,0.1-0.6,0.3-0.9,0.4c-0.4,3.6-1.1,7.3,4,7.9c1.2,0.2,2.8-0.1,3.7-0.8c1.3-1.1,3.5-2,2-4.8
		c-1.5-2.8-0.6-5.4,2-7.2c2.7-1.9,5.5-1.4,7.8,0.8c2.6,2.5,5.2,5.1,7.7,7.6c2.4,2.4,3.1,5.1,1.3,8.1c-1.7,2.7-4.5,3.2-8.2,1.7
		c-0.3-0.1-0.7-0.2-1-0.3c-5,4.2-5,4.2-1.9,10.4c1.9,0,3.9,0,6.1,0c0.3-0.8,0.7-1.7,1.1-2.6c1.3-2.5,3.5-3.6,6.2-3.2
		c2.9,0.5,4.8,2.4,5,5.3c0.2,4.4,0.2,8.7,0,13.1c-0.2,3.1-2.2,5.1-5.3,5.4c-3.9,0.4-5.9-2.1-6.8-5.7c-2.1,0-4.2,0-6.3,0
		c-3.1,7.3-4,4.9,1.9,10.4c0.7-0.3,1.5-0.7,2.3-1c2.7-1,5-0.2,6.7,2c1.8,2.3,1.9,5.1,0,7.2c-3,3.3-6.2,6.5-9.5,9.5
		c-2.2,1.9-4.9,1.8-7.2,0c-3.1-2.5-2.8-5.6-0.8-9c-2.1-1.3-2.4-4.8-6.2-4c-4.9,1.1-5.1,4.2-4.2,8.3c0.7,0.3,2,0.4,2.4,1.1
		c1.2,2,3.2,4.3,2.9,6.2c-0.3,1.9-2.9,4.4-4.8,4.7c-4.5,0.7-9.3,0.7-13.8,0c-1.9-0.3-4-2.9-4.8-4.9c-1-2.5,0.6-4.8,3.1-6.1
		c0.8-0.4,1.6-0.7,2.6-1.1c-0.9-2.3,1.7-5.1-1.8-7.2c-4.1-2.5-6.4-0.6-8.6,2.8c0,0-0.1,0.3-0.1,0.5c1.8,4.3,1.3,7.1-1.5,8.9
		c-2.8,1.8-5.6,1.2-8.9-2.1c-2.3-2.3-4.6-4.6-6.8-6.9c-2.3-2.4-2.7-5.1-0.8-7.8c1.8-2.5,4.5-3.4,7.2-1.9c2.8,1.5,3.6-0.8,4.7-2.1
		c0.7-0.9,0.9-2.5,0.8-3.7c-0.6-5.1-4.4-4.3-7.9-3.9c-0.4,0.9-0.5,2.2-1.2,2.6c-2,1.2-4.1,2.9-6.3,2.9c-2.8,0-4.7-2.3-4.8-5.3
		c-0.2-3.9,0-7.7-0.1-11.6c0-3.4,1.5-5.9,4.9-6.6c3.4-0.7,5.7,1.1,6.9,4.3c0.2,0.4,0.3,0.9,0.5,1.4c3.3,0.1,6.9,1.4,8-3.5
		c0.4-1.7,1.1-2.9-0.6-4.2c-1.6-1.2-2.4-3.4-5.2-1.9c-2.6,1.4-5.2,0.4-6.9-2c-1.8-2.5-1.6-5.3,0.5-7.5c2.6-2.9,5.4-5.5,8.2-8.2
		c2.4-2.4,5.3-3,8.1-0.9c2.7,1.9,3.1,4.7,1.7,7.7c-0.2,0.4-0.4,0.9-0.7,1.6c2.3,1,2.4,4.8,6.4,3.8
		C376.1-179,375.9-182.1,374.6-185.4z M393.5-156.4c0-6.5-5.4-11.9-11.9-11.9c-6.7,0-12.1,5.5-12,12.2c0.1,6.5,5.6,11.8,12.1,11.7
		C388.2-144.5,393.5-149.9,393.5-156.4z"/>
	<path class="st4" d="M543.1-96.5c-3.2-0.1-5.8-2.8-5.8-6c0-3.2,2.7-5.9,5.9-5.9c3.4,0,6.1,2.9,6,6.2
		C549.1-99,546.3-96.4,543.1-96.5z"/>
	<path class="st4" d="M393.5-156.4c0,6.5-5.3,11.9-11.8,12c-6.5,0.1-12-5.2-12.1-11.7c-0.1-6.7,5.3-12.2,12-12.2
		C388.1-168.3,393.5-163,393.5-156.4z"/>
</g>
<g>
	<path d="M631.5,392c0-59,0-118.1,0-177.1c0-7.4,1.6-9,9-9c81.9,0,163.7,0,245.6,0c7.4,0,9,1.6,9,9c0,118.1,0,236.1,0,354.2
		c0,7.4-1.6,9-9,9c-81.9,0-163.7,0-245.6,0c-7.4,0-9-1.6-9-9C631.5,510,631.5,451,631.5,392z M858.8,541.9c0-88.1,0-175.9,0-263.8
		c-17.9,0-35.6,0-53.6,0c0,2.1,0,4.1,0,6.1c-0.3,9.9-7.9,17.6-17.7,17.7c-16.2,0.1-32.4,0.2-48.7,0c-9.6-0.1-17.2-7.9-17.5-17.5
		c-0.1-2.1,0-4.1,0-6.1c-18.3,0-36,0-53.7,0c0,88,0,175.8,0,263.7C731.4,541.9,795,541.9,858.8,541.9z M721.1,253.9
		c-3.8,0-7.2,0-10.7,0c-4.9-0.1-7-2.2-7.1-7.1c0-7.3,0-14.5,0-21.8c0-2.3,0-4.6,0-6.9c-20.2,0-39.9,0-59.7,0c0,116,0,231.9,0,347.7
		c79.9,0,159.5,0,239.1,0c0-116.1,0-231.9,0-347.7c-20,0-39.6,0-59.6,0c0,9.7,0,19.2,0,28.6c0,4.9-2.2,7.1-7.1,7.2
		c-3.6,0.1-7.1,0-10.6,0c0,4.3,0,8.1,0,12c19.4,0,38.5,0,57.6,0c6.1,0,8,1.9,8,8.1c0,90.7,0,181.3,0,272c0,6.1-1.9,8.1-8.1,8.1
		c-66.5,0-133,0-199.5,0c-6.1,0-8.1-1.9-8.1-8.1c0-90.7,0-181.3,0-272c0-6.2,1.9-8.1,8-8.1c17.8,0,35.7,0,53.5,0c1.3,0,2.7,0,4.2,0
		C721.1,261.8,721.1,258.1,721.1,253.9z M811,241.7c0-8.1,0-15.8,0-23.6c-31.9,0-63.6,0-95.3,0c0,8,0,15.8,0,23.6
		C747.5,241.7,779.1,241.7,811,241.7z M733.5,265.7c19.9,0,39.7,0,59.5,0c0-4,0-7.8,0-11.5c-20,0-39.7,0-59.5,0
		C733.5,258.1,733.5,261.8,733.5,265.7z M733.3,278c0,2.1-0.1,3.9,0,5.6c0.2,3.9,2.4,6.2,6.4,6.2c15.7,0.1,31.4,0,47.1,0
		c3.5,0,5.7-1.8,6.2-5.2c0.3-2.1,0.1-4.4,0.1-6.6C773,278,753.4,278,733.3,278z"/>
	<path d="M919,398.3c-0.8-0.2-1-0.3-1.2-0.3c-9.9,0.7-11.1-2.4-10.8-11.4c0.2-5.9,0-11.8,0.1-17.6c0-4.7,2.2-7,6.8-7
		c27.3,0,54.7,0,82,0c4.8,0,7,2.3,7,7.2c0,7.1,0,14.3,0,21.4c0,5.2-2.1,7.3-7.2,7.4c-1.5,0-2.9,0-4.7,0c0,1.8,0,3.3,0,4.8
		c0,46.1,0,92.3,0,138.4c0,16.8-10.1,30.6-25.5,35.4c-22.6,7-46-9.9-46.3-33.7c-0.3-21.9-0.1-43.8-0.1-65.7c0-24.9,0-49.8,0-74.7
		C919,401.1,919,399.8,919,398.3z M931.4,440c-0.2,0.7-0.3,0.9-0.3,1.1c0,34.1-0.1,68.3,0.1,102.4c0,6.4,2.9,11.9,7.7,16.1
		c7.6,6.7,16.4,8.4,25.7,4.2c9.3-4.1,14.3-11.7,14.3-21.9c0.2-29.3,0.1-58.5,0.1-87.8c0-0.7-0.2-1.4-0.3-2c-0.5-0.1-0.7-0.2-0.9-0.2
		c-1.2,0-2.5-0.1-3.7,0c-9.3,0.6-17.4-1.9-24.3-8.5c-2-1.9-5.2-2.9-8.1-3.3C938.3,439.6,934.8,440,931.4,440z M978.6,439.9
		c0-14.2,0-28,0-41.7c-16,0-31.7,0-47.4,0c0,10.1,0,19.8,0,29.7c1.8,0,3.3,0.1,4.8,0c9.3-0.6,17.3,1.9,24.2,8.5
		c2,1.9,5.2,2.8,8.1,3.3C971.6,440.4,975,439.9,978.6,439.9z M990.7,374.2c-24,0-47.8,0-71.4,0c0,4.1,0,7.8,0,11.6
		c23.9,0,47.6,0,71.4,0C990.7,381.9,990.7,378.2,990.7,374.2z"/>
	<path class="st4" d="M858.8,541.9c-63.8,0-127.4,0-191.2,0c0-87.9,0-175.6,0-263.7c17.7,0,35.4,0,53.7,0c0,2-0.1,4.1,0,6.1
		c0.3,9.6,7.8,17.4,17.5,17.5c16.2,0.2,32.4,0.2,48.7,0c9.8-0.1,17.4-7.8,17.7-17.7c0.1-2,0-3.9,0-6.1c18,0,35.7,0,53.6,0
		C858.8,365.9,858.8,453.7,858.8,541.9z M761.4,318.6c-3-3.2-5.6-5.9-8.6-9c-4.5,4.9-8.9,9.7-13.3,14.4c-0.1-0.5-0.2-1.1-0.2-1.6
		c-2.5-0.8-5.1-2.3-7.6-2.3c-15-0.2-29.9-0.1-44.9-0.1c-5.2,0-7.3,2.1-7.3,7.2c0,15.1,0,30.2,0,45.4c0,5.3,2.1,7.4,7.6,7.4
		c15,0,29.9,0,44.9,0c5.3,0,7.4-2.1,7.4-7.5c0-9.6-0.1-19.2,0.1-28.9c0-1.7,0.9-3.9,2.1-5.1C748,331.7,754.7,325.2,761.4,318.6z
		 M739.3,396.3c-2.2-3.7-4.8-4.4-8-4.4c-14.8,0.1-29.7,0-44.5,0.1c-5.2,0-7.3,2.1-7.4,7.2c0,15.2,0,30.5,0,45.7c0,4.9,2.2,7,7.2,7
		c15.2,0,30.4,0,45.6,0c4.9,0,7-2.2,7.1-7.1c0.1-4.6,0-9.2,0-13.9c0-6.1-1.6-12.9,0.6-18.2c2.2-5.2,8.1-9,12.4-13.3
		c3.1-3.1,6.2-6,9.2-8.9c-3.1-3.2-5.7-5.9-8.7-9C748.3,386.5,743.9,391.2,739.3,396.3z M740.3,466.9c-3.3-1.2-5.7-2.8-8.1-2.8
		c-15.2-0.2-30.4-0.1-45.6-0.1c-4.9,0-7.1,2.2-7.1,7.1c0,15.2,0,30.5,0,45.7c0,4.9,2.2,7.2,7,7.2c15.2,0,30.4,0,45.6,0
		c5.1,0,7.2-2.2,7.2-7.4c0-9.2,0.1-18.5-0.1-27.7c-0.1-3.1,0.8-5.3,3.1-7.5c6.5-6.2,12.7-12.6,18.6-18.5c-2.8-3.2-5.4-6-8.1-9.1
		C748.2,458.6,743.9,463.2,740.3,466.9z M846.9,362.2c-28,0-55.8,0-83.4,0c0,4.1,0,7.9,0,11.5c27.9,0,55.6,0,83.4,0
		C846.9,369.9,846.9,366.2,846.9,362.2z M763.5,434.2c0,4,0,7.8,0,11.6c27.9,0,55.7,0,83.3,0c0-4,0-7.8,0-11.6
		C818.9,434.2,791.3,434.2,763.5,434.2z M847,506.2c-28.1,0-55.8,0-83.5,0c0,4,0,7.8,0,11.5c28,0,55.7,0,83.5,0
		C847,513.8,847,510.2,847,506.2z M829.1,338.1c-18.1,0-35.8,0-53.6,0c0,4,0,7.8,0,11.5c18,0,35.7,0,53.6,0
		C829.1,345.8,829.1,342.1,829.1,338.1z M829,410.2c-18,0-35.8,0-53.4,0c0,4.1,0,7.8,0,11.6c18,0,35.6,0,53.4,0
		C829,417.9,829,414.2,829,410.2z M829,482.3c-18.1,0-35.8,0-53.4,0c0,4.1,0,7.9,0,11.5c18,0,35.6,0,53.4,0
		C829,489.9,829,486.2,829,482.3z M847,338.2c-4.2,0-8,0-11.6,0c0,4,0,7.7,0,11.5c4,0,7.7,0,11.6,0C847,345.8,847,342.1,847,338.2z
		 M846.9,410.2c-4.1,0-7.8,0-11.6,0c0,4,0,7.8,0,11.5c4,0,7.8,0,11.6,0C846.9,417.7,846.9,414.1,846.9,410.2z M835.4,482.1
		c0,4.1,0,7.9,0,11.7c4,0,7.7,0,11.5,0c0-4,0-7.7,0-11.7C843,482.1,839.3,482.1,835.4,482.1z"/>
	<path class="st4" d="M721.1,253.9c0,4.2,0,7.9,0,12c-1.5,0-2.8,0-4.2,0c-17.8,0-35.7,0-53.5,0c-6.1,0-8,1.9-8,8.1
		c0,90.7,0,181.3,0,272c0,6.1,1.9,8.1,8.1,8.1c66.5,0,133,0,199.5,0c6.1,0,8.1-1.9,8.1-8.1c0-90.7,0-181.3,0-272
		c0-6.2-1.9-8.1-8-8.1c-19.1,0-38.2,0-57.6,0c0-3.9,0-7.7,0-12c3.5,0,7,0,10.6,0c4.9-0.1,7-2.2,7.1-7.2c0-9.5,0-18.9,0-28.6
		c20,0,39.6,0,59.6,0c0,115.8,0,231.6,0,347.7c-79.6,0-159.2,0-239.1,0c0-115.8,0-231.7,0-347.7c19.8,0,39.4,0,59.7,0
		c0,2.3,0,4.6,0,6.9c0,7.3,0,14.5,0,21.8c0,4.9,2.2,7.1,7.1,7.1C713.9,253.9,717.4,253.9,721.1,253.9z"/>
	<path class="st4" d="M811,241.7c-31.8,0-63.4,0-95.3,0c0-7.8,0-15.6,0-23.6c31.7,0,63.4,0,95.3,0C811,225.9,811,233.6,811,241.7z"
		/>
	<path class="st4" d="M733.5,265.7c0-3.8,0-7.5,0-11.5c19.7,0,39.5,0,59.5,0c0,3.7,0,7.5,0,11.5
		C773.2,265.7,753.4,265.7,733.5,265.7z"/>
	<path class="st4" d="M733.3,278c20.1,0,39.7,0,59.8,0c0,2.3,0.3,4.5-0.1,6.6c-0.5,3.4-2.8,5.2-6.2,5.2c-15.7,0-31.4,0.1-47.1,0
		c-4,0-6.2-2.3-6.4-6.2C733.2,281.9,733.3,280.2,733.3,278z"/>
	<path class="st4" d="M931.4,440c3.5,0,6.9-0.4,10.2,0.1c2.8,0.5,6.1,1.5,8.1,3.3c6.9,6.6,15,9.1,24.3,8.5c1.2-0.1,2.5,0,3.7,0
		c0.2,0,0.5,0.1,0.9,0.2c0.1,0.6,0.3,1.3,0.3,2c0,29.3,0.1,58.5-0.1,87.8c-0.1,10.2-5,17.7-14.3,21.9c-9.3,4.1-18.1,2.5-25.7-4.2
		c-4.8-4.2-7.7-9.8-7.7-16.1c-0.2-34.1-0.1-68.3-0.1-102.4C931,440.9,931.2,440.7,931.4,440z M954.6,475.9c0-3.9,0-7.8,0-11.7
		c-3.9,0-7.7,0-11.4,0c0,4,0,7.8,0,11.7C947.1,475.9,950.7,475.9,954.6,475.9z M955.2,488.1c0,4.1,0,7.9,0,11.7c4,0,7.8,0,11.4,0
		c0-4.1,0-7.8,0-11.7C962.7,488.1,959.1,488.1,955.2,488.1z M943.2,524.2c0,4.1,0,7.9,0,11.5c4.1,0,7.8,0,11.5,0c0-4,0-7.7,0-11.5
		C950.8,524.2,947.1,524.2,943.2,524.2z"/>
	<path class="st4" d="M978.6,439.9c-3.6,0-7,0.4-10.3-0.1c-2.8-0.5-6.1-1.4-8.1-3.3c-6.9-6.6-14.9-9.1-24.2-8.5c-1.5,0.1-3,0-4.8,0
		c0-9.9,0-19.7,0-29.7c15.6,0,31.4,0,47.4,0C978.6,411.9,978.6,425.7,978.6,439.9z"/>
	<path class="st4" d="M990.7,374.2c0,4,0,7.7,0,11.6c-23.8,0-47.5,0-71.4,0c0-3.7,0-7.5,0-11.6C942.9,374.2,966.7,374.2,990.7,374.2
		z"/>
	<path d="M761.4,318.6c-6.7,6.6-13.4,13.1-19.9,19.8c-1.2,1.3-2.1,3.4-2.1,5.1c-0.2,9.6-0.1,19.2-0.1,28.9c0,5.4-2.1,7.5-7.4,7.5
		c-15,0-29.9,0-44.9,0c-5.4,0-7.6-2.1-7.6-7.4c0-15.1,0-30.2,0-45.4c0-5.1,2.2-7.2,7.3-7.2c15,0,29.9-0.1,44.9,0.1
		c2.6,0,5.1,1.5,7.6,2.3c0.1,0.5,0.2,1.1,0.2,1.6c4.4-4.8,8.7-9.5,13.3-14.4C755.8,312.7,758.3,315.4,761.4,318.6z M691.6,332.1
		c0,12.1,0,23.9,0,35.7c12,0,23.6,0,35.4,0c0-4.9,0-9.7,0-15.7c-2.9,3.2-5,5.7-7.3,7.9c-2.2,2.2-5.2,3-7.4,0.9
		c-4.4-4.1-8.4-8.7-12.1-12.8c2.3-2.6,4.8-5.4,7.9-8.8c2.4,2.8,4.6,5.4,7.3,8.5c4-5.8,10.8-8.4,12.4-15.8
		C715.3,332.1,703.6,332.1,691.6,332.1z"/>
	<path d="M739.3,396.3c4.6-5.1,9-9.8,13.4-14.7c3,3.1,5.6,5.8,8.7,9c-3,2.9-6.2,5.9-9.2,8.9c-4.3,4.3-10.2,8-12.4,13.3
		c-2.2,5.2-0.5,12-0.6,18.2c0,4.6,0,9.2,0,13.9c-0.1,4.9-2.2,7.1-7.1,7.1c-15.2,0-30.4,0-45.6,0c-4.9,0-7.1-2.2-7.2-7
		c0-15.2,0-30.5,0-45.7c0-5.1,2.2-7.2,7.4-7.2c14.8,0,29.7,0,44.5-0.1C734.5,391.9,737.2,392.6,739.3,396.3z M699.7,421.1
		c2.9-3.3,5.5-6.1,8.9-9.9c2.2,2.9,4.3,5.7,6.3,8.4c11.1-9.6,12.6-11.6,12-15.3c-11.8,0-23.6,0-35.3,0c0,12,0,23.7,0,35.5
		c12,0,23.7,0,35.5,0c0-4.9,0-9.6,0-15.5c-2.9,3-4.9,5.4-7.3,7.6c-3,2.8-6,2.9-9,0.1C707,428.3,703.2,424.5,699.7,421.1z"/>
	<path d="M740.3,466.9c3.6-3.8,8-8.3,12.6-13.1c2.8,3.1,5.3,5.9,8.1,9.1c-5.9,5.9-12.1,12.3-18.6,18.5c-2.3,2.2-3.1,4.4-3.1,7.5
		c0.2,9.2,0.1,18.5,0.1,27.7c0,5.2-2.1,7.4-7.2,7.4c-15.2,0-30.4,0-45.6,0c-4.8,0-7-2.2-7-7.2c0-15.2,0-30.5,0-45.7
		c0-4.9,2.2-7.1,7.1-7.1c15.2,0,30.4-0.1,45.6,0.1C734.6,464.1,737,465.7,740.3,466.9z M691.5,511.7c12.1,0,23.8,0,35.5,0
		c0-5,0-9.6,0-15.2c-2.8,2.9-5,5.3-7.3,7.5c-2.3,2.2-5.3,3.1-7.8,0.8c-4.4-4-8.3-8.5-12.4-12.8c2.6-2.6,5.2-5.3,8.5-8.8
		c2.2,2.9,4.3,5.7,6.8,9c4.4-6.1,10.9-8.9,12.8-16.1c-12.5,0-24.2,0-36.2,0C691.5,488.1,691.5,499.8,691.5,511.7z"/>
	<path d="M846.9,362.2c0,3.9,0,7.6,0,11.5c-27.8,0-55.4,0-83.4,0c0-3.7,0-7.5,0-11.5C791.2,362.2,818.9,362.2,846.9,362.2z"/>
	<path d="M763.5,434.2c27.8,0,55.4,0,83.3,0c0,3.8,0,7.5,0,11.6c-27.7,0-55.4,0-83.3,0C763.5,441.9,763.5,438.1,763.5,434.2z"/>
	<path d="M847,506.2c0,4,0,7.6,0,11.5c-27.8,0-55.5,0-83.5,0c0-3.7,0-7.5,0-11.5C791.2,506.2,819,506.2,847,506.2z"/>
	<path d="M829.1,338.1c0,4,0,7.6,0,11.5c-17.8,0-35.6,0-53.6,0c0-3.7,0-7.5,0-11.5C793.3,338.1,811,338.1,829.1,338.1z"/>
	<path d="M829,410.2c0,4,0,7.7,0,11.6c-17.8,0-35.5,0-53.4,0c0-3.7,0-7.5,0-11.6C793.2,410.2,810.9,410.2,829,410.2z"/>
	<path d="M829,482.3c0,3.9,0,7.6,0,11.5c-17.8,0-35.5,0-53.4,0c0-3.7,0-7.5,0-11.5C793.2,482.3,810.9,482.3,829,482.3z"/>
	<path d="M847,338.2c0,3.9,0,7.5,0,11.5c-3.9,0-7.7,0-11.6,0c0-3.8,0-7.5,0-11.5C839,338.2,842.8,338.2,847,338.2z"/>
	<path d="M846.9,410.2c0,3.9,0,7.6,0,11.5c-3.8,0-7.6,0-11.6,0c0-3.8,0-7.6,0-11.5C839.1,410.2,842.8,410.2,846.9,410.2z"/>
	<path d="M835.4,482.1c3.9,0,7.6,0,11.5,0c0,3.9,0,7.7,0,11.7c-3.8,0-7.5,0-11.5,0C835.4,490.1,835.4,486.3,835.4,482.1z"/>
	<path d="M954.6,475.9c-3.9,0-7.5,0-11.4,0c0-3.9,0-7.6,0-11.7c3.7,0,7.5,0,11.4,0C954.6,468.2,954.6,472,954.6,475.9z"/>
	<path d="M955.2,488.1c3.9,0,7.5,0,11.4,0c0,3.8,0,7.6,0,11.7c-3.6,0-7.4,0-11.4,0C955.2,496,955.2,492.2,955.2,488.1z"/>
	<path d="M943.2,524.2c3.9,0,7.6,0,11.5,0c0,3.8,0,7.5,0,11.5c-3.7,0-7.5,0-11.5,0C943.2,532.1,943.2,528.3,943.2,524.2z"/>
	<path class="st4" d="M691.6,332.1c12,0,23.7,0,36,0c-1.6,7.4-8.4,10-12.4,15.8c-2.6-3.1-4.9-5.7-7.3-8.5c-3.1,3.4-5.6,6.2-7.9,8.8
		c3.8,4,7.7,8.7,12.1,12.8c2.3,2.1,5.3,1.2,7.4-0.9c2.3-2.3,4.4-4.7,7.3-7.9c0,6,0,10.8,0,15.7c-11.8,0-23.4,0-35.4,0
		C691.6,356,691.6,344.2,691.6,332.1z"/>
	<path class="st4" d="M699.7,421.1c3.5,3.4,7.3,7.2,11.2,10.9c3,2.8,6,2.7,9-0.1c2.3-2.2,4.4-4.6,7.3-7.6c0,5.9,0,10.5,0,15.5
		c-11.8,0-23.6,0-35.5,0c0-11.8,0-23.5,0-35.5c11.7,0,23.5,0,35.3,0c0.7,3.7-0.8,5.7-12,15.3c-2-2.7-4.1-5.5-6.3-8.4
		C705.2,415,702.6,417.8,699.7,421.1z"/>
	<path class="st4" d="M691.5,511.7c0-11.9,0-23.6,0-35.5c12,0,23.8,0,36.2,0c-1.8,7.2-8.4,10-12.8,16.1c-2.5-3.3-4.6-6.1-6.8-9
		c-3.4,3.5-6,6.1-8.5,8.8c4.1,4.3,8,8.8,12.4,12.8c2.4,2.2,5.4,1.4,7.8-0.8c2.3-2.2,4.5-4.6,7.3-7.5c0,5.6,0,10.2,0,15.2
		C715.4,511.7,703.6,511.7,691.5,511.7z"/>
</g>
</svg>
