<?xml version="1.0" encoding="utf-8"?>
<!-- Generator: Adobe Illustrator 23.0.4, SVG Export Plug-In . SVG Version: 6.00 Build 0)  -->
<svg version="1.1" id="Capa_1" xmlns="http://www.w3.org/2000/svg" xmlns:xlink="http://www.w3.org/1999/xlink" x="0px" y="0px"
	 viewBox="0 0 400 400" style="enable-background:new 0 0 400 400;" xml:space="preserve">
<style type="text/css">
	.st0{fill:#FFFFFF;}
</style>
<title>2</title>
<polygon class="st0" points="319.08,294.5 319.08,261.39 304.8,261.39 304.8,294.5 271.69,294.5 271.69,308.78 304.8,308.78 
	304.8,341.87 319.08,341.87 319.08,308.78 352.18,308.78 352.18,294.5 "/>
<path class="st0" d="M312.07,228.88c-10.49-14.15-23.27-26.44-37.82-36.37c-1.18-0.8-3.54-2.34-3.54-2.34l-5.7-3.7L261,192
	c-29.89,41.7-87.92,51.27-129.61,21.39c-8.25-5.91-15.47-13.14-21.39-21.39l-4-5.55l-8.63,5.67c-43.62,29.32-69.79,78.44-69.78,131
	v23h226.87c24.58,31.76,70.25,37.59,102.01,13.01c31.76-24.58,37.59-70.25,13.01-102.01c-13.75-17.77-34.95-28.19-57.42-28.22
	V228.88z M42,331.82v-8.67c-0.02-46.66,22.64-90.42,60.76-117.32c37.52,45.75,105.02,52.43,150.77,14.91
	c5.45-4.47,10.44-9.46,14.91-14.91c10.08,7.13,19.2,15.54,27.14,25c-39.05,8.94-63.46,47.83-54.52,86.88
	c1.11,4.86,2.72,9.59,4.8,14.12L42,331.82z M312,360.11c-32.3,0-58.48-26.18-58.48-58.48c0-32.3,26.18-58.48,58.48-58.48
	c32.3,0,58.48,26.18,58.48,58.48c0,0,0,0.01,0,0.01c-0.04,32.3-26.24,58.47-58.54,58.47L312,360.11z"/>
<path class="st0" d="M185.55,37.93c-43.24,0-78.3,35.06-78.3,78.3s35.06,78.3,78.3,78.3s78.3-35.06,78.3-78.3l0,0
	C263.8,73.01,228.77,37.98,185.55,37.93z M185.55,180.24c-35.35,0-64-28.65-64-64s28.65-64,64-64s64,28.65,64,64
	C249.5,151.57,220.88,180.19,185.55,180.24L185.55,180.24z"/>
</svg>
