<?xml version="1.0" encoding="utf-8"?>
<!-- Generator: Adobe Illustrator 24.2.3, SVG Export Plug-In . SVG Version: 6.00 Build 0)  -->
<svg version="1.1" id="Capa_1" xmlns="http://www.w3.org/2000/svg" xmlns:xlink="http://www.w3.org/1999/xlink" x="0px" y="0px"
	 viewBox="0 0 200 200" style="enable-background:new 0 0 200 200;" xml:space="preserve">
<style type="text/css">
	.st0{fill:#6DBF77;}
	.st1{fill:#FFFFFF;}
</style>
<rect x="-2" y="-4" class="st0" width="203.2" height="206"/>
<path class="st1" d="M163.8,92.4c-0.7-7-7-11.3-13.7-9.2c-3.2,0.9-5.3,0-6.9-2.9c-1.5-2.7-3.1-5.4-4.6-8.1c-1.7-2.9-1.5-5.1,1-7.4
	c4.9-4.6,4.5-12.1-0.9-16.1c-4.2-3.1-8.8-5.8-13.6-7.8c-6.2-2.6-12.8,0.7-14.4,7.2c-0.9,3.5-2.8,4.8-6.4,4.6c-2.8-0.1-5.6-0.1-8.4,0
	c-3.7,0.2-5.6-1.1-6.4-4.6c-1.6-6.5-8.2-9.8-14.4-7.2c-4.8,2-9.4,4.6-13.6,7.8c-5.4,4-5.8,11.6-0.9,16.1c2.5,2.3,2.7,4.6,0.9,7.5
	c-1.5,2.5-3.1,5-4.4,7.6c-1.7,3.4-4.4,4.2-7.5,3.3c-6.3-2-12.7,2.5-13.3,9.2c-0.1,1.3-0.3,2.6-0.5,3.9c0,2.5,0,5,0,7.5
	c0.1,1.2,0.3,2.4,0.5,3.6c0.7,7.1,6.9,11.4,13.7,9.4c3.2-0.9,5.3,0,6.9,2.9c1.5,2.7,3.1,5.4,4.6,8.1c1.7,2.9,1.5,5.1-1,7.4
	c-4.9,4.6-4.5,12.1,0.9,16.1c4.2,3.1,8.8,5.8,13.6,7.8c1.9,0.8,3.9,1.1,5.9,0.7c4.6-0.9,7.5-3.7,8.6-8.2c0.7-2.9,2.5-4.4,5.1-4.4
	c3.7,0,7.2,0,10.9,0c2.5,0,4.3,1.5,5,3.9c0.1,0.5,0.2,0.9,0.3,1.3c1.6,5.5,7.5,8.8,12.9,7c5.8-2,11.2-5,15.8-9
	c4.7-3.9,4.6-11,0.2-15.2c-2.7-2.6-2.9-4.7-0.9-7.9c1.5-2.3,3-4.7,4.2-7.2c1.5-3.1,4-4.4,7.6-3.3c6.2,2,12.6-2.5,13.3-9
	C164.3,102.5,164.3,97.5,163.8,92.4z M155.4,88.4c-0.7-0.3-1.5-0.4-2.3-0.4C153.9,88,154.7,88.1,155.4,88.4z M123.4,45.9
	c4.2,1.7,8.2,4.1,11.9,6.8c2.9,2.2,3.3,5.6,0.6,8.2c-3.6,3.4-4.6,7.4-2.9,12c0.1,0.3,0.3,0.7,0.4,0.9c1.9,3.4,3.8,6.8,5.8,10.1
	c1.6,2.9,4.7,4.7,8,4.9c-3.3-0.2-6.5-2.1-8.2-4.9c-1.9-3.4-3.9-6.7-5.8-10.1c-0.1-0.3-0.3-0.6-0.4-0.9c-1.7-4.6-0.7-8.6,2.9-12
	c2.7-2.5,2.4-6-0.6-8.2c-3.7-2.7-7.6-5.1-11.9-6.8c-0.9-0.3-1.9-0.6-2.8-0.5c0,0,0,0,0,0C121.4,45.2,122.5,45.5,123.4,45.9z
	 M77.9,114.7c4.7,6.9,12.4,11.5,21.3,11.8C90.3,126.2,82.5,121.6,77.9,114.7z M121.4,99.9c-0.1,11.8-9.6,21.3-21.4,21.3
	c-11.9-0.1-21.4-9.7-21.3-21.5c0.1-11.9,9.7-21.4,21.4-21.2C112,78.6,121.5,88.2,121.4,99.9z M104.9,58c-0.2,0-0.3,0-0.5,0
	C104.6,58,104.8,58,104.9,58C105,58,104.9,58,104.9,58z M126.8,99.9c-0.1,14.8-12.1,26.8-26.8,26.7c0,0,0,0,0,0
	C114.6,126.7,126.6,114.7,126.8,99.9z M91.6,57.5c1,0.3,2.1,0.5,3.2,0.5c-0.1,0-0.1,0-0.2,0c-1.1,0-2.2-0.1-3.2-0.5
	c-2.2-0.7-3.8-1.9-5-3.5C87.6,55.6,89.3,56.8,91.6,57.5z M66.2,74.7c2.8-4.7,2.3-9.5-1.7-13.3c-1.5-1.5-2.7-3.2-1.9-5.3
	c0.3-1.1,1.1-2.4,2.1-3.1c0,0,0,0,0,0c-0.9,0.7-1.6,2-2,3.1c-0.7,2.1,0.4,3.8,1.9,5.3C68.5,65.1,69.1,69.9,66.2,74.7
	c-1.7,2.9-3.3,5.9-5.1,8.9c-0.6,0.9-1.3,1.9-2.1,2.6c0,0,0,0,0,0c0.8-0.7,1.5-1.6,2.1-2.5C62.8,80.7,64.5,77.7,66.2,74.7z M43,89.6
	c-0.1,0.1-0.2,0.2-0.2,0.3C42.8,89.8,42.9,89.7,43,89.6z M61.3,116.5c-2.7-4.6-7.2-6.6-12.3-5.2c-1.2,0.3-2.5,0.5-3.6,0.3
	c-2.1-0.3-3.5-2.2-3.8-4.4c-0.3-2.4-0.3-4.8-0.5-7.2c0.2-2.4,0.3-4.7,0.5-7c0.1-0.9,0.4-1.7,0.8-2.3c-0.4,0.7-0.6,1.4-0.7,2.3
	c-0.3,2.3-0.3,4.6-0.5,7c0.1,2.3,0.3,4.8,0.5,7.2c0.2,2.3,1.7,4.1,3.8,4.4c1.2,0.2,2.5,0,3.6-0.3C54.1,109.9,58.8,111.8,61.3,116.5
	c1.8,3,3.6,5.9,5.2,9c0.5,0.9,1,1.9,1.2,3c0.7,3.1,0,5.8-1.6,8.2c1.6-2.3,2.2-5,1.5-8.1c-0.3-1-0.7-2.1-1.2-3
	C64.8,122.4,63,119.4,61.3,116.5z M79.8,154.4c-0.9,0.1-2.1-0.1-2.9-0.5c-4.4-1.8-8.4-4.2-12.2-7c-2.8-2.2-3.1-5.6-0.5-8
	c0.7-0.6,1.3-1.3,1.8-2c-0.5,0.7-1,1.3-1.7,2c-2.6,2.5-2.3,5.9,0.5,8c3.8,2.9,7.8,5.2,12.2,7C77.8,154.2,79,154.4,79.8,154.4
	c1.5-0.2,2.4-0.8,3.2-1.6C82.3,153.6,81.3,154.2,79.8,154.4z M123,154c-3.3,1.4-6.4-0.1-7.2-3.7c-1.1-4.4-3.8-7.4-8.3-8.4
	c-0.9-0.2-1.7-0.2-2.5-0.2c-3.5,0-6.9,0-10.4,0c-2.7,0-5,0.8-6.9,2.4c1.8-1.6,4.2-2.5,7-2.5c3.5,0,6.9,0,10.4,0c0.9,0,1.7,0,2.5,0.2
	c4.6,1,7.2,3.9,8.3,8.4C116.7,153.8,119.8,155.3,123,154c1.6-0.7,3-1.4,4.4-2.2C126,152.5,124.5,153.3,123,154z M133.1,148.4
	c0.8-0.5,1.6-1,2.3-1.6c0,0,0,0-0.1,0.1C134.7,147.4,133.9,147.8,133.1,148.4z M151.8,111.5c-4-1.1-7.6-0.7-10.7,2c0,0,0,0,0.1-0.1
	C144.2,110.7,147.9,110.3,151.8,111.5c3.4,0.9,6.2-1.2,6.6-4.6C158,110.3,155.2,112.4,151.8,111.5z"/>
</svg>
