<?xml version="1.0" encoding="utf-8"?>
<!-- Generator: Adobe Illustrator 24.2.3, SVG Export Plug-In . SVG Version: 6.00 Build 0)  -->
<svg version="1.1" id="Capa_1" xmlns="http://www.w3.org/2000/svg" xmlns:xlink="http://www.w3.org/1999/xlink" x="0px" y="0px"
	 viewBox="0 0 200 200" style="enable-background:new 0 0 200 200;" xml:space="preserve">
<style type="text/css">
	.st0{fill:#FFFFFF;}
</style>
<g>
	<g id="XMLID_1_">
		<g>
			<path class="st0" d="M112.36,158.56c0,3.77,0,7.41,0,11.17c-3.93,0-7.76,0-11.74,0c0-3.69,0-7.38,0-11.17
				C104.53,158.56,108.43,158.56,112.36,158.56z"/>
			<path class="st0" d="M123.21,90.81c6.08-1.69,9.81-10.59,5.74-17.27c-0.2-0.32-0.65-0.65-0.99-0.67
				c-1.41-0.08-2.82-0.03-3.8-0.03C123.83,79.05,123.51,84.99,123.21,90.81z M35.82,54.79c13.9-21.98,41.07-29.02,63.98-16.53
				c0.4,0.22,0.85,0.36,1.43,0.6c0-2.09,0.08-3.97-0.05-5.82c-0.04-0.57-0.59-1.34-1.12-1.59c-9.3-4.49-19.08-6.2-29.39-5.1
				c-12.47,1.33-23.17,6.39-32.2,15.04c-4.67,4.47-8.39,9.65-11.19,15.66c2.31-0.33,4.46-0.56,6.56-0.99
				C34.57,55.9,35.44,55.4,35.82,54.79z M41.57,90.61c17.18,0,33.94,0,50.77,0c0,3.8,0,7.44,0,11.29c-7.48,0-14.82,0-22.17,0
				c-7.33,0-14.65,0-22.16,0c8.55,12.01,27.59,18.81,44.65,10.23c16.53-8.31,22.46-26.54,19.11-39.31c-3.4,0-6.82,0-10.56,0
				c0-0.89,0-1.56,0-2.23c0-5.3,0.03-10.61-0.03-15.91c-0.01-0.71-0.28-1.66-0.77-2.09c-10.52-8.96-22.53-11.54-35.59-7.18
				C48.92,50.73,39.42,65.17,40.21,82C40.34,84.86,41.1,87.69,41.57,90.61z M22.17,80.31c0.15,4.71,3.56,9.4,7.67,10.6
				c-0.34-3.67-0.95-7.36-0.95-11.06c0-3.77,0.6-7.53,0.94-11.38C25.07,70.18,22,74.92,22.17,80.31z M148.41,196.09
				c-47.95,0-95.89,0-143.84,0c0-3.88,0-7.74,0-11.61c0.13-0.47,0.28-0.93,0.38-1.4c1.15-5.28,1.73-10.75,3.53-15.8
				c7.68-21.59,22.43-36.42,43.9-44.51c0.58-0.22,1.17-0.44,2.1-0.79c-7.24-3.91-13-8.85-17.22-15.33c-1.53-2.35-3-3.96-5.98-3.54
				c-0.53,0.08-1.1-0.19-1.65-0.29c-10.25-1.97-18.35-11.33-18.69-21.71c-0.36-10.74,1.98-20.92,6.88-30.46
				c7.66-14.93,19.38-25.49,35.02-31.57c12.48-4.85,25.33-5.63,38.37-2.68c3.32,0.75,6.54,1.89,10.06,2.92c0-5.02,0-9.97,0-14.88
				c31.81,0,63.37,0,94.94,0c0,22.83,0,45.56,0,68.39c-0.83,0-1.51,0-2.19,0c-10.55,0-21.1-0.02-31.65,0.03
				c-0.95,0-1.98,0.26-2.82,0.7c-5.52,2.88-11.02,5.82-16.47,8.84c-0.68,0.38-1.31,1.27-1.49,2.04
				c-2.5,10.81-11.23,18.23-22.29,18.78c-1.25,0.06-1.85,0.6-2.45,1.57c-4.26,6.86-9.91,12.3-16.93,16.33
				c-0.44,0.25-0.84,0.56-1.48,0.99c7.14,2.34,13.51,5.46,19.29,9.66c16.2,11.73,26.3,27.39,29.5,47.19
				C148.14,184.57,148.05,190.37,148.41,196.09z M184.99,61.44c0-15.41,0-30.59,0-45.74c-24.24,0-48.35,0-72.44,0
				c0,15.28,0,30.42,0,45.82c9.98,0,19.85,0,29.83,0c0,2.86,0,5.45,0,8.24c0.72-0.36,1.28-0.61,1.81-0.9
				c3.68-1.97,7.4-3.87,11.02-5.93c1.9-1.08,3.81-1.58,6.02-1.55C169.09,61.5,176.95,61.44,184.99,61.44z M136.77,184.79
				c-2.73-21.58-13.56-37.41-32.22-48.01c-0.35,0.3-0.51,0.41-0.63,0.54c-7.06,8.07-14.14,16.12-21.16,24.23
				c-0.46,0.53-0.64,1.45-0.64,2.19c-0.05,6.42-0.03,12.85-0.03,19.27c0,0.59,0,1.18,0,1.77
				C100.41,184.79,118.42,184.79,136.77,184.79z M76.41,151.53c5.57-6.37,11.08-12.67,16.81-19.22
				c-11.38-3.08-22.31-3.11-33.61,0.02C65.31,138.84,70.79,145.11,76.41,151.53z M70.77,183.57c0-6.67,0.04-13.35-0.04-20.02
				c-0.01-0.83-0.48-1.79-1.03-2.45c-2.35-2.82-4.82-5.56-7.24-8.32c-4.64-5.29-9.28-10.59-13.97-15.94
				c-20.98,10.71-31.64,32.44-32.09,47.91c18.06,0,36.12,0,54.27,0C70.71,184.29,70.77,183.93,70.77,183.57z"/>
		</g>
		<g>
		</g>
	</g>
</g>
</svg>
