<?xml version="1.0" encoding="utf-8"?>
<!-- Generator: Adobe Illustrator 24.2.3, SVG Export Plug-In . SVG Version: 6.00 Build 0)  -->
<svg version="1.1" id="Capa_1" xmlns="http://www.w3.org/2000/svg" xmlns:xlink="http://www.w3.org/1999/xlink" x="0px" y="0px"
	 viewBox="0 0 200 200" style="enable-background:new 0 0 200 200;" xml:space="preserve">
<style type="text/css">
	.st0{fill:#FFFFFF;}
	.st1{fill:none;stroke:#FFFFFF;stroke-width:4;stroke-miterlimit:10;}
</style>
<g>
	<g id="XMLID_1_">
		<g>
			<path class="st0" d="M99.58,188.81c48.51,0.3,88.55-39.68,88.61-88.48c0.05-48.67-39.44-88.22-88.38-88.52
				c-48.52-0.31-88.56,39.68-88.62,88.48C11.13,148.96,50.62,188.5,99.58,188.81z M194.89,82.16c5.66,31.73-2.34,59.88-23.99,83.83
				c-14.26,15.78-32.15,25.47-53.02,29.58c-3.27,0.64-6.61,0.88-9.91,1.32c-0.62,0.08-1.22,0.25-1.84,0.37c-4.3,0-8.58,0-12.88,0
				c-2.36-0.29-4.73-0.53-7.09-0.88c-18.78-2.8-35.48-10.23-49.81-22.71c-17.22-15.01-28-33.78-32.08-56.31
				c-0.63-3.51-1.02-7.07-1.52-10.6c0-4.3,0-8.58,0-12.87c0.5-3.54,0.89-7.09,1.52-10.61C7.53,64.8,15.57,48.64,28.23,34.85
				C42.71,19.08,60.49,8.86,81.57,5.1c31.65-5.63,59.75,2.34,83.67,23.89C181.09,43.28,191.15,61.16,194.89,82.16z"/>
			<path class="st0" d="M81.2,112.84c4.49,0,5.95,1.48,5.95,6.03c0,8.52,0,17.04,0,25.56c0,0.66,0,1.32,0,1.94
				c8.51,0,16.74,0,25.07,0c0-9.41-0.01-18.68,0-27.93c0-3.99,1.62-5.6,5.64-5.6c8.71,0,17.41,0,26.12,0c0.66,0,1.33,0,2.09,0
				c0-8.44,0-16.62,0-25.07c-0.89,0-1.58,0-2.27,0c-8.64,0-17.28,0.01-25.92,0c-3.74-0.01-5.32-1.57-5.33-5.25
				c-0.01-8.76,0-17.53,0-26.31c0-0.66,0-1.33,0-1.96c-8.62,0-16.97,0-25.39,0c0,9.36,0.01,18.57,0,27.78
				c0,4.15-1.57,5.74-5.68,5.74c-8.64,0.01-17.28,0-25.92,0c-0.66,0-1.33,0-1.93,0c0,8.53,0,16.75,0,25.07
				C62.91,112.84,72.06,112.84,81.2,112.84z M78.56,79.19c0-0.78,0-1.44,0-2.11c0-8.52,0-17.04,0-25.56
				c0.01-4.41,1.49-5.93,5.87-5.93c10.16-0.01,20.33-0.01,30.48,0c4.4,0,5.91,1.51,5.92,5.88c0,8.46,0,16.91,0,25.37
				c0,0.69,0,1.37,0,2.35c0.94,0,1.63,0,2.3,0c8.52,0,17.05-0.01,25.56,0c3.91,0,5.72,1.74,5.72,5.62c0.02,10.35,0.02,20.7,0,31.04
				c0,4.03-1.6,5.58-5.63,5.6c-9.22,0.01-18.43,0-27.96,0c0,0.75,0,1.4,0,2.07c0,8.52,0,17.04,0,25.56
				c-0.01,4.49-1.48,5.97-6.02,5.97c-10.09,0.01-20.19,0.01-30.28,0c-4.49,0-5.95-1.49-5.96-6.04c0-9.07,0-18.16,0-27.55
				c-0.76,0-1.42,0-2.08,0c-8.52,0-17.05,0-25.56,0c-4.42,0-5.95-1.48-5.96-5.84c-0.01-10.16,0-20.32,0-30.48
				c0.01-4.47,1.51-5.93,6.06-5.93c8.39-0.01,16.79,0,25.17,0C76.89,79.19,77.57,79.19,78.56,79.19z"/>
		</g>
		<g>
			<path class="st1" d="M2.76,93.88c0.5-3.54,0.89-7.09,1.52-10.61C7.53,64.8,15.57,48.64,28.23,34.85
				C42.71,19.08,60.49,8.86,81.57,5.1c31.65-5.63,59.75,2.34,83.67,23.89c15.85,14.29,25.91,32.17,29.65,53.17
				c5.66,31.73-2.34,59.88-23.99,83.83c-14.26,15.78-32.15,25.47-53.02,29.58c-3.27,0.64-6.61,0.88-9.91,1.32
				c-0.62,0.08-1.22,0.25-1.84,0.37c-4.3,0-8.58,0-12.88,0c-2.36-0.29-4.73-0.53-7.09-0.88c-18.78-2.8-35.48-10.23-49.81-22.71
				c-17.22-15.01-28-33.78-32.08-56.31c-0.63-3.51-1.02-7.07-1.52-10.6C2.76,102.45,2.76,98.17,2.76,93.88z"/>
			<path class="st1" d="M188.19,100.34c-0.06,48.8-40.1,88.78-88.61,88.48c-48.96-0.31-88.45-39.85-88.39-88.52
				c0.06-48.8,40.1-88.79,88.62-88.48C148.75,12.12,188.24,51.67,188.19,100.34z"/>
			<path class="st1" d="M120.82,79.19c0.94,0,1.63,0,2.3,0c8.52,0,17.05-0.01,25.56,0c3.91,0,5.72,1.74,5.72,5.62
				c0.02,10.35,0.02,20.7,0,31.04c0,4.03-1.6,5.58-5.63,5.6c-9.22,0.01-18.43,0-27.96,0c0,0.75,0,1.4,0,2.07c0,8.52,0,17.04,0,25.56
				c-0.01,4.49-1.48,5.97-6.02,5.97c-10.09,0.01-20.19,0.01-30.28,0c-4.49,0-5.95-1.49-5.96-6.04c0-9.07,0-18.16,0-27.55
				c-0.76,0-1.42,0-2.08,0c-8.52,0-17.05,0-25.56,0c-4.42,0-5.95-1.48-5.96-5.84c-0.01-10.16,0-20.32,0-30.48
				c0.01-4.47,1.51-5.93,6.06-5.93c8.39-0.01,16.79,0,25.17,0c0.69,0,1.37,0,2.36,0c0-0.78,0-1.44,0-2.11c0-8.52,0-17.04,0-25.56
				c0.01-4.41,1.49-5.93,5.87-5.93c10.16-0.01,20.33-0.01,30.48,0c4.4,0,5.91,1.51,5.92,5.88c0,8.46,0,16.91,0,25.37
				C120.82,77.53,120.82,78.21,120.82,79.19z"/>
			<path class="st1" d="M146.06,87.77c0,8.45,0,16.63,0,25.07c-0.76,0-1.42,0-2.09,0c-8.71,0-17.41,0-26.12,0
				c-4.02,0-5.64,1.61-5.64,5.6c-0.01,9.26,0,18.53,0,27.93c-8.33,0-16.56,0-25.07,0c0-0.62,0-1.28,0-1.94c0-8.52,0-17.04,0-25.56
				c0-4.55-1.45-6.03-5.95-6.03c-9.15,0-18.29,0-27.58,0c0-8.32,0-16.54,0-25.07c0.6,0,1.27,0,1.93,0c8.64,0,17.28,0.01,25.92,0
				c4.11,0,5.68-1.59,5.68-5.74c0.01-9.21,0-18.42,0-27.78c8.42,0,16.78,0,25.39,0c0,0.63,0,1.3,0,1.96c0,8.77-0.01,17.54,0,26.31
				c0.01,3.69,1.59,5.24,5.33,5.25c8.64,0.01,17.28,0,25.92,0C144.49,87.77,145.17,87.77,146.06,87.77z"/>
		</g>
	</g>
</g>
</svg>
