<?xml version="1.0" encoding="utf-8"?>
<!-- Generator: Adobe Illustrator 24.2.3, SVG Export Plug-In . SVG Version: 6.00 Build 0)  -->
<svg version="1.1" id="Capa_1" xmlns="http://www.w3.org/2000/svg" xmlns:xlink="http://www.w3.org/1999/xlink" x="0px" y="0px"
	 viewBox="0 0 200 200" style="enable-background:new 0 0 200 200;" xml:space="preserve">
<style type="text/css">
	.st0{fill:#FFFFFF;}
</style>
<g>
	<g id="XMLID_1_">
		<g>
			<path class="st0" d="M139.87,144.24c0.3,4.81,4.36,8.96,9.1,9.31c6.61,0.49,11.34-3.9,11.35-10.64
				c0.01-38.61,0.01-77.23,0-115.84c0-0.54-0.07-1.09-0.12-1.69c-6.8,0-13.45,0-20.37,0c0,0.83,0,1.45,0,2.07
				c0,38.3,0,76.6,0.01,114.9C139.84,142.98,139.83,143.61,139.87,144.24z M46.9,153.11c6.93,2.3,13.58-2.66,13.58-10.2
				c0.02-38.62,0.01-77.23,0.01-115.85c0-0.54-0.07-1.08-0.11-1.67c-6.81,0-13.46,0-20.38,0c0,0.95,0,1.69,0,2.44
				c0,31.31,0,62.62,0,93.92c0,7.37-0.03,14.74,0.04,22.11C40.08,148.03,42.96,151.8,46.9,153.11z M3.38,183.75
				c1.53-2.94,4.17-3.69,7.17-3.4c0-36.47,0-72.69,0-109.15c-3.21,0.57-5.57-0.48-7.17-3.12c0-1.01,0-2.02,0-3.03
				c1.42-2.74,3.72-3.51,6.71-3.43c5.99,0.16,11.97,0.05,17.96,0.05c0.68,0,1.36,0,2.24,0c0-0.92,0-1.65,0-2.39
				c0-12.47-0.01-24.95,0-37.42c0-4.34,1.87-6.23,6.18-6.24c9.2,0,18.4,0,27.6,0c4.19,0.01,6.1,1.91,6.1,6.12
				c0.01,40.26,0.03,80.52-0.01,120.77c-0.01,11.83-8.83,20.86-20.09,20.8c-11.05-0.06-19.76-9.15-19.77-20.74
				c-0.03-22.93-0.01-45.86-0.01-68.79c0-0.74,0-1.48,0-2.34c-3.37,0-6.54,0-9.82,0c0,36.29,0,72.49,0,108.82
				c53.1,0,106.17,0,159.36,0c0-36.26,0-72.5,0-108.84c-3.22,0-6.35,0-9.79,0c0,0.8,0,1.58,0,2.37c0,22.93,0.02,45.87-0.01,68.8
				c-0.01,9.87-6.1,17.83-15.31,20.15c-11.44,2.87-23.27-5.49-24.35-17.23c-0.13-1.5-0.21-3.02-0.21-4.52
				c-0.01-39.38-0.01-78.75-0.01-118.13c0-0.63-0.02-1.26,0.01-1.89c0.14-3.29,2.08-5.31,5.36-5.33c9.7-0.05,19.4-0.05,29.1,0
				c3.43,0.02,5.41,2.14,5.41,5.66c0.02,12.6,0.01,25.2,0.01,37.8c0,0.76,0,1.51,0,2.57c0.74,0,1.4,0,2.06,0
				c6.61,0,13.23-0.02,19.85,0.01c2.45,0.02,4.53,1.7,4.95,3.87c0.06,0.28,0.08,0.57,0.08,0.86c0,1.92-1.17,3.83-3.04,4.47
				c-1.28,0.43-2.7,0.43-4.2,0.64c0,36.17,0,72.37,0,108.88c0.76,0,1.55-0.04,2.33,0c2.69,0.14,4.77,2.12,4.87,4.58
				c0,0.07,0,0.15,0,0.22c0,2.53-1.86,4.54-4.56,4.84c-0.75,0.09-1.51,0.05-2.27,0.05c-59.92,0-119.84-0.02-179.76,0.04
				c-3,0-5.43-0.61-6.97-3.35C3.38,185.77,3.38,184.76,3.38,183.75z"/>
			<path class="st0" d="M153.4,146.62c-2.32,2.73-6.75,1.59-7.84-1.87c-0.24-0.76-0.32-1.61-0.32-2.41c-0.01-29.6-0.01-59.2,0-88.8
				c0-2.82,1.3-4.82,3.46-5.48c3.14-0.95,6.18,1.39,6.22,4.92c0.06,4.91,0.02,9.82,0.02,14.74c0,10.14,0,20.28,0,30.42
				c0,14.73,0.04,29.47-0.06,44.21C154.87,143.79,154.31,145.54,153.4,146.62z"/>
			<path class="st0" d="M114.24,15.63c3.92,0.01,5.86,2,5.87,5.97c0.01,20.29,0,40.57,0,60.85c0,19.97-0.01,39.94,0.01,59.9
				c0,5.37-1.63,10.09-5.12,14.22c-7.45,8.82-22,8.9-29.55,0.15c-3.49-4.04-5.23-8.67-5.23-13.98c-0.01-40.44-0.01-80.88,0-121.32
				c0-3.79,2.03-5.78,5.86-5.79C95.46,15.61,104.85,15.61,114.24,15.63z M89.96,144.42c0.32,4.67,4.42,8.79,9.07,9.13
				c6.7,0.49,11.37-3.93,11.37-10.82c0.01-38.49,0.01-76.98,0-115.47c0-0.61-0.05-1.21-0.09-1.87c-6.82,0-13.48,0-20.39,0
				c0,0.88,0,1.56,0,2.25c0,38.11,0,76.22,0,114.33C89.92,142.79,89.9,143.61,89.96,144.42z"/>
			<path class="st0" d="M104.47,145.28c-0.75,1.84-2.89,3.05-4.68,2.87c-1.89-0.19-3.66-1.65-4.2-3.57
				c-0.2-0.71-0.27-1.48-0.27-2.23c-0.02-14.72-0.02-29.44-0.01-44.17c0-3.28,1.82-5.49,4.57-5.65c2.95-0.17,5.12,2.09,5.13,5.46
				c0.03,7.49,0.01,14.98,0.01,22.46c0,7.24,0.02,14.48-0.02,21.71C104.99,143.2,104.85,144.32,104.47,145.28z"/>
			<path class="st0" d="M49.99,148.16c-2.45-0.16-4.47-2.29-4.59-4.92c-0.06-1.45-0.01-2.9-0.01-4.35c-0.01-10.39,0-20.77,0-31.16
				c0-11.65-0.01-23.3,0-34.94c0-3,1.68-5.18,4.14-5.46c2.66-0.31,4.83,1.23,5.38,3.88c0.15,0.73,0.18,1.5,0.18,2.25
				c0.01,22.79,0,45.58,0,68.37c0,0.63,0.02,1.26-0.07,1.88C54.63,146.32,52.36,148.31,49.99,148.16z"/>
		</g>
		<g>
		</g>
	</g>
</g>
</svg>
