<?xml version="1.0" encoding="utf-8"?>
<!-- Generator: Adobe Illustrator 24.2.3, SVG Export Plug-In . SVG Version: 6.00 Build 0)  -->
<svg version="1.1" id="Capa_1" xmlns="http://www.w3.org/2000/svg" xmlns:xlink="http://www.w3.org/1999/xlink" x="0px" y="0px"
	 viewBox="0 0 200 200" style="enable-background:new 0 0 200 200;" xml:space="preserve">
<style type="text/css">
	.st0{fill:#FFFFFF;}
</style>
<g>
	<path class="st0" d="M68.57,97.4c-26.81-20.15-28.1-56.26-7.29-78.02c21.01-21.97,55.58-22.22,76.86-0.64
		c21.25,21.54,20.56,58.17-6.57,78.63c4.8,2.15,9.79,4,14.42,6.52c28.57,15.56,45.79,39.25,51.39,71c0.86,4.88,0.92,9.91,1.09,14.87
		c0.14,4.35-3.16,7.49-7.6,7.49c-60.59,0.01-121.19,0.01-181.78,0c-4.45,0-7.67-3.25-7.54-7.8c1.16-39.14,19.58-67.8,54.24-86.44
		C59.84,100.81,64.25,99.27,68.57,97.4z M182.82,182.18c-3.15-39.09-37.22-75.24-83.92-74.56c-47.59,0.69-79.16,38.37-81.64,74.56
		C72.39,182.18,127.51,182.18,182.82,182.18z M137.89,55.2c0.03-20.42-17-37.34-37.71-37.44c-20.77-0.1-38.02,16.82-38.05,37.34
		c-0.03,20.42,17,37.33,37.71,37.45C120.59,92.66,137.86,75.71,137.89,55.2z"/>
</g>
</svg>
