<?xml version="1.0" encoding="utf-8"?>
<!-- Generator: Adobe Illustrator 27.0.0, SVG Export Plug-In . SVG Version: 6.00 Build 0)  -->
<svg version="1.1" id="Capa_1" xmlns="http://www.w3.org/2000/svg" xmlns:xlink="http://www.w3.org/1999/xlink" x="0px" y="0px"
	 viewBox="0 0 64 64" style="enable-background:new 0 0 64 64;" xml:space="preserve">
<style type="text/css">
	.st0{fill:#FFFFFF;}
</style>
<g>
	<path class="st0" d="M1.2,33.5c3.9,0,7.7,0,11.6,0c0.1,1.9,0.7,3.5,2.3,4.7c1.1,0.8,2.3,1.1,3.6,1c3-0.1,4.7-1.9,5.4-5.7
		c1.9,0,3.8,0,5.8,0c0,0.3,0,0.6,0,0.9c0,2.1,0,4.3,0,6.4c0,1.3,0.7,2,2,2c0.5,0,1.1,0,1.6,0c1.2,0,2.1,0.9,2.1,2c0,1.2-0.8,2-2,2.1
		c-0.6,0-1.2,0-1.8,0c-1.2,0-1.9,0.7-1.9,1.9c0,2.1,0,4.3,0,6.4c0,3.5-2.2,6.1-5.6,6.8c-0.1,0-0.1,0.1-0.2,0.1c-0.6,0-1.2,0-1.8,0
		c-0.1,0-0.1-0.1-0.2-0.1c-2.9-0.6-4.8-2.4-5.4-5.3c-0.2-1.1,0-2.2,0-3.3c-1.5,0.8-3.2,1.3-5,1C9.8,54.3,8.2,53.4,7,52
		c-2.8-3.4-2.6-6.9,0-10.3C4.7,40.8,3,39.3,2,37c-0.4-0.8-0.5-1.7-0.8-2.5C1.2,34.2,1.2,33.8,1.2,33.5z"/>
	<path class="st0" d="M1.2,29c0.2-0.8,0.4-1.6,0.7-2.3c0.9-2.2,2.5-3.8,4.8-4.7c0.1-0.1,0.2-0.1,0.4-0.2c-1.5-1.7-2.3-3.7-2-6
		C5.2,14,6,12.5,7.2,11.3c2-2.1,5.5-3.6,9.5-1.3c0-0.9-0.2-1.9-0.1-2.9c0.3-3.1,3.2-5.8,6.3-5.9c3.5-0.1,6.5,2.3,6.9,5.5
		c0.2,2,0,4,0,6.1c-1.8,0.1-3.4,0.7-4.5,2.3c-0.8,1.1-1.1,2.3-1,3.6c0.1,3,1.9,4.7,5.7,5.4c0,1.9,0,3.8,0,5.8c-0.2,0-0.4,0-0.6,0
		c-2.2,0-4.5,0-6.7,0c-1.3,0-2,0.7-2,2c0,0.5,0,1.1,0,1.6c0,1.3-0.9,2.1-2,2.1c-1.2,0-2-0.8-2-2.1c0-0.6,0-1.2,0-1.7
		c0-1.2-0.7-1.9-2-1.9c-4.4,0-8.8,0-13.2,0C1.2,29.6,1.2,29.3,1.2,29z"/>
	<path class="st0" d="M39.3,62.2c-0.7-0.2-1.4-0.4-2-0.7c-2.4-1.2-3.7-3.2-3.8-5.9c-0.1-1.7,0-3.3,0-5.1c1.9-0.1,3.6-0.7,4.7-2.3
		c0.8-1.1,1.1-2.3,1-3.6c-0.2-3-1.9-4.7-5.7-5.4c0-1.9,0-3.8,0-5.8c0.2,0,0.4,0,0.6,0c2.2,0,4.5,0,6.7,0c1.3,0,2-0.7,2-2
		c0-0.5,0-1.1,0-1.6c0-1.3,0.9-2.1,2-2.1c1.2,0,2,0.8,2,2c0,0.6,0,1.2,0,1.7c0,1.2,0.7,2,2,2c4.2,0,8.3,0,12.5,0c0.2,0,0.4,0,0.6,0
		c0.4,3.1-1.9,6.3-5.8,8.2c1.5,1.7,2.2,3.6,2,5.9c-0.2,1.7-0.9,3.2-2,4.4c-2.5,2.8-5.6,3.2-9.6,1.4c0.1,0.9,0.2,1.7,0.1,2.6
		c-0.2,3-2.5,5.5-5.5,6c-0.1,0-0.2,0.1-0.3,0.1C40.5,62.2,39.9,62.2,39.3,62.2z"/>
	<path class="st0" d="M62.2,29.9c-3.9,0-7.7,0-11.6,0c-0.1-1.9-0.7-3.5-2.3-4.6c-1.1-0.8-2.3-1.1-3.6-1c-3,0.1-4.7,1.9-5.4,5.7
		c-1.9,0-3.8,0-5.8,0c0-0.2,0-0.4,0-0.7c0-2.2,0-4.5,0-6.7c0-1.3-0.7-2-2-2c-0.5,0-1.1,0-1.6,0c-1.2,0-2.1-0.9-2.1-2
		c0-1.2,0.8-2,2-2.1c0.6,0,1.2,0,1.7,0c1.3,0,2-0.7,2-2c0-2.3-0.1-4.5,0-6.8c0.1-2.6,1.4-4.5,3.6-5.7c2.3-1.2,4.6-1.1,6.8,0.4
		c2.4,1.6,3.4,4.5,2.8,7.3c0,0.1-0.1,0.2-0.1,0.4c1.7-1,3.5-1.5,5.4-1.1c1.9,0.3,3.5,1.3,4.7,2.8c2.4,3,2.3,6-0.3,10
		c1.7,0.6,3.1,1.7,4.2,3.1C61.7,26.4,62.2,28,62.2,29.9z"/>
</g>
</svg>
