<?xml version="1.0" encoding="utf-8"?>
<!-- Generator: Adobe Illustrator 16.0.0, SVG Export Plug-In . SVG Version: 6.00 Build 0)  -->
<!DOCTYPE svg PUBLIC "-//W3C//DTD SVG 1.1//EN" "http://www.w3.org/Graphics/SVG/1.1/DTD/svg11.dtd">
<svg version="1.1" id="Layer_1" xmlns="http://www.w3.org/2000/svg" xmlns:xlink="http://www.w3.org/1999/xlink" x="0px" y="0px"
	 width="200px" height="200px" viewBox="0 0 200 200" enable-background="new 0 0 200 200" xml:space="preserve">
<g>
	<path fill="#fa7268" d="M99.994,6.186c51.732,0,93.82,42.085,93.82,93.814s-42.088,93.814-93.82,93.814
		c-51.726,0-93.809-42.085-93.809-93.814S48.268,6.186,99.994,6.186 M99.994,0C44.772,0,0,44.772,0,100s44.772,100,99.994,100
		C155.228,200,200,155.228,200,100S155.228,0,99.994,0L99.994,0z"/>
</g>
<g>
	<path fill="#fa7268" d="M123.258,69.543c6.662,6.036,9.996,14.434,9.996,25.187c0,10.754-3.234,19.266-9.699,25.534
		c-6.467,6.27-16.363,9.402-29.69,9.402H70.904V60.488h23.752C107.059,60.488,116.594,63.506,123.258,69.543z M121.477,95.027
		c0-15.835-9.072-23.752-27.216-23.752H82.583v47.405h12.964c8.379,0,14.795-1.994,19.25-5.986
		C119.25,108.701,121.477,102.812,121.477,95.027z"/>
</g>
</svg>
