<?xml version="1.0" encoding="utf-8"?>
<!-- Generator: Adobe Illustrator 16.0.0, SVG Export Plug-In . SVG Version: 6.00 Build 0)  -->
<!DOCTYPE svg PUBLIC "-//W3C//DTD SVG 1.1//EN" "http://www.w3.org/Graphics/SVG/1.1/DTD/svg11.dtd">
<svg version="1.1" id="Layer_1" xmlns="http://www.w3.org/2000/svg" xmlns:xlink="http://www.w3.org/1999/xlink" x="0px" y="0px"
	 width="200px" height="200px" viewBox="0 0 200 200" enable-background="new 0 0 200 200" xml:space="preserve">
<path fill="#fa7268" d="M200,100c0,55.227-44.772,100-100.006,100C44.772,200,0,155.227,0,100C0,44.772,44.772,0,99.994,0
	C155.228,0,200,44.772,200,100z"/>
<g>
	<path fill="#FFFFFF" d="M123.258,69.543c6.662,6.036,9.996,14.434,9.996,25.187c0,10.754-3.234,19.266-9.699,25.534
		c-6.467,6.27-16.363,9.402-29.69,9.402H70.904V60.488h23.752C107.059,60.488,116.594,63.506,123.258,69.543z M121.477,95.027
		c0-15.835-9.072-23.752-27.216-23.752H82.583v47.405h12.964c8.379,0,14.795-1.994,19.25-5.986
		C119.25,108.701,121.477,102.812,121.477,95.027z"/>
</g>
</svg>
