<?xml version="1.0" encoding="utf-8"?>
<!-- Generator: Adobe Illustrator 16.0.0, SVG Export Plug-In . SVG Version: 6.00 Build 0)  -->
<!DOCTYPE svg PUBLIC "-//W3C//DTD SVG 1.1//EN" "http://www.w3.org/Graphics/SVG/1.1/DTD/svg11.dtd">
<svg version="1.1" id="Layer_1" xmlns="http://www.w3.org/2000/svg" xmlns:xlink="http://www.w3.org/1999/xlink" x="0px" y="0px"
	 width="200px" height="200px" viewBox="0 0 200 200" enable-background="new 0 0 200 200" xml:space="preserve">
<path fill="#fa7268" d="M200,100c0,55.227-44.772,100-100.006,100C44.772,200,0,155.227,0,100C0,44.772,44.772,0,99.994,0
	C155.228,0,200,44.772,200,100z"/>
<g>
	<path fill="#FFFFFF" d="M73.75,74.149c5.655,5.124,8.484,12.251,8.484,21.378c0,9.129-2.745,16.352-8.232,21.672
		c-5.489,5.32-13.889,7.98-25.2,7.98H29.314V66.463h20.159C60.002,66.463,68.093,69.025,73.75,74.149z M72.238,95.779
		c0-13.439-7.701-20.159-23.101-20.159h-9.912v40.236H50.23c7.11,0,12.558-1.693,16.338-5.082
		C70.348,107.385,72.238,102.387,72.238,95.779z"/>
	<path fill="#FFFFFF" d="M115.246,89.311c-4.649,0-8.148,1.512-10.5,4.536c-2.353,3.024-3.528,7.085-3.528,12.18v19.152H91.81
		V80.491h9.408v8.988c1.512-2.8,3.57-5.095,6.174-6.888c2.604-1.792,5.362-2.716,8.274-2.772l0.084,9.492
		C115.582,89.311,115.414,89.311,115.246,89.311z"/>
	<path fill="#FFFFFF" d="M155.144,111.822c0,4.258-1.54,7.66-4.62,10.207c-3.08,2.549-7.028,3.822-11.844,3.822
		c-3.248,0-6.623-0.588-10.122-1.764c-3.5-1.176-6.594-2.828-9.281-4.957l4.535-7.309c5.208,3.922,10.248,5.881,15.12,5.881
		c2.128,0,3.808-0.49,5.04-1.471c1.231-0.979,1.849-2.225,1.849-3.736c0-2.24-2.97-4.256-8.904-6.049
		c-0.449-0.168-0.785-0.279-1.008-0.336c-9.297-2.52-13.944-6.72-13.944-12.6c0-4.144,1.609-7.462,4.83-9.954
		c3.22-2.491,7.405-3.738,12.558-3.738s10.023,1.513,14.616,4.536l-3.528,6.973c-3.641-2.407-7.589-3.612-11.844-3.612
		c-2.24,0-4.061,0.407-5.46,1.218c-1.4,0.812-2.1,2.03-2.1,3.654c0,1.457,0.727,2.52,2.184,3.191
		c1.008,0.504,2.422,0.98,4.242,1.429c1.819,0.448,3.43,0.896,4.83,1.344c1.399,0.449,2.758,0.953,4.074,1.512
		c1.314,0.561,2.729,1.343,4.241,2.353C153.632,104.432,155.144,107.568,155.144,111.822z"/>
	<path fill="#FFFFFF" d="M164.51,124.004c-1.204-1.232-1.806-2.717-1.806-4.453c0-1.734,0.602-3.205,1.806-4.41
		c1.204-1.203,2.674-1.805,4.41-1.805c1.735,0,3.22,0.602,4.452,1.805c1.231,1.205,1.848,2.676,1.848,4.41
		c0,1.736-0.616,3.221-1.848,4.453c-1.232,1.23-2.717,1.848-4.452,1.848C167.184,125.852,165.714,125.234,164.51,124.004z"/>
</g>
</svg>
