<?xml version="1.0" encoding="utf-8"?>
<!-- Generator: Adobe Illustrator 16.0.0, SVG Export Plug-In . SVG Version: 6.00 Build 0)  -->
<!DOCTYPE svg PUBLIC "-//W3C//DTD SVG 1.1//EN" "http://www.w3.org/Graphics/SVG/1.1/DTD/svg11.dtd">
<svg version="1.1" id="Layer_1" xmlns="http://www.w3.org/2000/svg" xmlns:xlink="http://www.w3.org/1999/xlink" x="0px" y="0px"
	 width="200px" height="200px" viewBox="0 0 200 200" enable-background="new 0 0 200 200" xml:space="preserve">
<g>
	<g>
		<path fill="#22ae8a" d="M148.077,148.077l-6.941-20.951L85.111,71.108l-3.471,3.464L71.102,85.104l56.024,56.032L148.077,148.077z
			 M61.764,75.773l14.01-14.002L68.84,54.83c-3.868-3.868-10.141-3.868-14.01,0c-3.868,3.869-3.868,10.142,0,14.01L61.764,75.773z"
			/>
	</g>
	<g>
		<path fill="#22ae8a" d="M100,0C44.771,0,0,44.771,0,100c0,55.221,44.771,100,100,100s100-44.779,100-100
			C200,44.771,155.229,0,100,0z M100,186.666c-47.784,0-86.666-38.875-86.666-86.666S52.216,13.334,100,13.334
			S186.666,52.209,186.666,100S147.784,186.666,100,186.666z"/>
	</g>
</g>
</svg>
