<?xml version="1.0" encoding="utf-8"?>
<!-- Generator: Adobe Illustrator 16.0.0, SVG Export Plug-In . SVG Version: 6.00 Build 0)  -->
<!DOCTYPE svg PUBLIC "-//W3C//DTD SVG 1.1//EN" "http://www.w3.org/Graphics/SVG/1.1/DTD/svg11.dtd">
<svg version="1.1" id="Layer_1" xmlns="http://www.w3.org/2000/svg" xmlns:xlink="http://www.w3.org/1999/xlink" x="0px" y="0px"
	 width="200px" height="200px" viewBox="0 0 200 200" enable-background="new 0 0 200 200" xml:space="preserve">
<g>
	<path fill="#fa7268" d="M31.83,123.381V68.858h9.203v23.635h27.066V68.858h9.204v54.523h-9.204v-22.309H41.033v22.309H31.83z"/>
	<path fill="#fa7268" d="M124.182,117.803c-4.162,4.135-9.361,6.201-15.602,6.201c-6.238,0-11.44-2.066-15.599-6.201
		c-4.161-4.133-6.24-9.189-6.24-15.17c0-5.98,2.079-11.038,6.24-15.171c4.159-4.134,9.361-6.201,15.599-6.201
		c6.24,0,11.439,2.067,15.602,6.201c4.158,4.134,6.238,9.191,6.238,15.171C130.42,108.613,128.34,113.67,124.182,117.803z
		 M99.182,112.422c2.468,2.521,5.603,3.783,9.398,3.783c3.797,0,6.93-1.262,9.4-3.783c2.469-2.521,3.705-5.785,3.705-9.789
		c0-4.004-1.236-7.267-3.705-9.79c-2.471-2.521-5.604-3.783-9.4-3.783c-3.795,0-6.93,1.262-9.398,3.783
		c-2.471,2.522-3.705,5.785-3.705,9.79C95.477,106.637,96.711,109.9,99.182,112.422z"/>
	<path fill="#fa7268" d="M143.057,139.916c-3.797,0-7.229-1.379-10.297-4.133l3.979-7.1c1.82,1.717,3.705,2.574,5.654,2.574
		c1.951,0,3.537-0.701,4.758-2.105c1.223-1.404,1.834-2.938,1.834-4.602c0-0.729-5.59-14.949-16.77-42.667h9.359l12.402,30.577
		l12.402-30.577h9.359l-20.125,49.295c-1.195,2.703-2.912,4.836-5.146,6.396C148.23,139.137,145.76,139.916,143.057,139.916z"/>
</g>
<g>
	<path fill="#fa7268" d="M99.994,6.186c51.732,0,93.82,42.085,93.82,93.814s-42.088,93.814-93.82,93.814
		c-51.726,0-93.809-42.085-93.809-93.814S48.268,6.186,99.994,6.186 M99.994,0C44.772,0,0,44.772,0,100s44.772,100,99.994,100
		C155.228,200,200,155.228,200,100S155.228,0,99.994,0L99.994,0z"/>
</g>
</svg>
