<?xml version="1.0" encoding="utf-8"?>
<!-- Generator: Adobe Illustrator 16.0.0, SVG Export Plug-In . SVG Version: 6.00 Build 0)  -->
<!DOCTYPE svg PUBLIC "-//W3C//DTD SVG 1.1//EN" "http://www.w3.org/Graphics/SVG/1.1/DTD/svg11.dtd">
<svg version="1.1" id="Layer_1" xmlns="http://www.w3.org/2000/svg" xmlns:xlink="http://www.w3.org/1999/xlink" x="0px" y="0px"
	 width="200px" height="200px" viewBox="0 0 200 200" enable-background="new 0 0 200 200" xml:space="preserve">
<g>
	<path fill="#fa7268" d="M99.994,6.186c51.732,0,93.82,42.085,93.82,93.814s-42.088,93.814-93.82,93.814
		c-51.726,0-93.809-42.085-93.809-93.814S48.268,6.186,99.994,6.186 M99.994,0C44.772,0,0,44.772,0,100s44.772,100,99.994,100
		C155.228,200,200,155.228,200,100S155.228,0,99.994,0L99.994,0z"/>
</g>
<g>
	<path fill="#fa7268" d="M72.636,129.666H60.957V60.488h18.21l20.882,43.446l20.883-43.446h18.11v69.178h-11.678V75.629l-24.148,48
		h-6.531l-24.049-48V129.666z"/>
</g>
</svg>
