<?xml version="1.0" encoding="utf-8"?>
<!-- Generator: Adobe Illustrator 16.0.0, SVG Export Plug-In . SVG Version: 6.00 Build 0)  -->
<!DOCTYPE svg PUBLIC "-//W3C//DTD SVG 1.1//EN" "http://www.w3.org/Graphics/SVG/1.1/DTD/svg11.dtd">
<svg version="1.1" id="Layer_1" xmlns="http://www.w3.org/2000/svg" xmlns:xlink="http://www.w3.org/1999/xlink" x="0px" y="0px"
	 width="200px" height="200px" viewBox="0 0 200 200" enable-background="new 0 0 200 200" xml:space="preserve">
<g>
	<path fill="#595955" d="M100-0.004c-55.222,0-100,44.778-100,100c0,55.23,44.778,100.008,100,100.008
		c55.23,0,100-44.777,100-100.008C200,44.774,155.23-0.004,100-0.004z M100,187.501c-48.246,0-87.505-39.251-87.505-87.505
		c0-48.246,39.259-87.497,87.505-87.497c48.262,0,87.505,39.251,87.505,87.497C187.505,148.25,148.262,187.501,100,187.501z
		 M88.273,68.362c0-10.578-8.568-19.139-19.131-19.139c-10.563,0-19.146,8.561-19.146,19.139c0,10.571,8.583,19.135,19.146,19.135
		C79.705,87.497,88.273,78.922,88.273,68.362z M62.499,68.362c0-3.666,2.978-6.64,6.644-6.64c3.658,0,6.636,2.974,6.636,6.64
		c0,3.658-2.978,6.636-6.636,6.636C65.477,74.998,62.499,72.021,62.499,68.362z M130.857,111.723
		c-10.562,0-19.131,8.576-19.131,19.139c0,10.563,8.568,19.139,19.131,19.139c10.579,0,19.146-8.575,19.146-19.139
		C150.004,120.299,141.429,111.723,130.857,111.723z M130.857,137.497c-3.658,0-6.636-2.978-6.636-6.636
		c0-3.666,2.978-6.636,6.636-6.636c3.666,0,6.644,2.97,6.644,6.636C137.501,134.52,134.523,137.497,130.857,137.497z
		 M141.928,58.073c-2.439-2.439-6.398-2.439-8.837,0l-75.002,75.006c-2.439,2.431-2.439,6.397,0,8.836
		c1.211,1.22,2.818,1.838,4.41,1.838c1.6,0,3.207-0.618,4.427-1.829l75.002-75.002C144.366,64.475,144.366,60.523,141.928,58.073z"
		/>
</g>
</svg>
