<?xml version="1.0" encoding="utf-8"?>
<!-- Generator: Adobe Illustrator 16.0.0, SVG Export Plug-In . SVG Version: 6.00 Build 0)  -->
<!DOCTYPE svg PUBLIC "-//W3C//DTD SVG 1.1//EN" "http://www.w3.org/Graphics/SVG/1.1/DTD/svg11.dtd">
<svg version="1.1" id="Layer_1" xmlns="http://www.w3.org/2000/svg" xmlns:xlink="http://www.w3.org/1999/xlink" x="0px" y="0px"
	 width="200px" height="200px" viewBox="0 0 200 200" enable-background="new 0 0 200 200" xml:space="preserve">
<g>
	<path fill="#22ae8a" d="M187.342,1.324c-7.008,0-12.665,5.676-12.665,12.662v29.526C160.4,26.224,143.951,1.324,98.676,1.324
		C44.275,1.324,0,45.587,0,100c0,54.412,44.275,98.676,98.676,98.676c42.725,0,80.401-27.289,93.774-67.902
		c2.216-6.763-1.459-14.05-8.222-16.277c-6.763-2.223-14.051,1.452-16.278,8.215c-9.875,30.018-37.714,50.177-69.274,50.177
		c-40.201,0-72.9-32.702-72.9-72.9c0-40.2,32.699-72.75,72.9-72.75c28.461,0,44.274,17.712,57.172,36.289h-31.836
		c-6.995,0-12.659,5.673-12.659,12.661c0,7.001,5.677,12.662,12.659,12.662h63.33C194.324,88.873,200,83.2,200,76.211V13.986
		C200,7,194.324,1.324,187.342,1.324z"/>
</g>
</svg>
