<?xml version="1.0" encoding="utf-8"?>
<!-- Generator: Adobe Illustrator 16.0.0, SVG Export Plug-In . SVG Version: 6.00 Build 0)  -->
<!DOCTYPE svg PUBLIC "-//W3C//DTD SVG 1.1//EN" "http://www.w3.org/Graphics/SVG/1.1/DTD/svg11.dtd">
<svg version="1.1" id="Layer_1" xmlns="http://www.w3.org/2000/svg" xmlns:xlink="http://www.w3.org/1999/xlink" x="0px" y="0px"
	 width="200px" height="200px" viewBox="0 0 200 200" enable-background="new 0 0 200 200" xml:space="preserve">
<g>
	<path fill="#fa7268" d="M99.994,6.186c51.732,0,93.82,42.085,93.82,93.814s-42.088,93.814-93.82,93.814
		c-51.726,0-93.809-42.085-93.809-93.814S48.268,6.186,99.994,6.186 M99.994,0C44.772,0,0,44.772,0,100s44.772,100,99.994,100
		C155.228,200,200,155.228,200,100S155.228,0,99.994,0L99.994,0z"/>
</g>
<g>
	<path fill="#fa7268" d="M99.357,69.592c-3.398,0-6.186,0.693-8.362,2.078c-2.178,1.386-3.267,3.481-3.267,6.285
		c0,2.805,1.089,4.948,3.267,6.433c2.177,1.484,6.812,3.085,13.904,4.8c7.092,1.717,12.438,4.124,16.033,7.225
		c3.596,3.102,5.395,7.669,5.395,13.707s-2.277,10.936-6.83,14.697c-4.551,3.76-10.523,5.641-17.912,5.641
		c-10.822,0-20.421-3.727-28.799-11.184l7.323-8.807c6.992,6.07,14.251,9.104,21.773,9.104c3.76,0,6.744-0.807,8.957-2.424
		c2.209-1.617,3.314-3.762,3.314-6.434s-1.039-4.75-3.117-6.234s-5.658-2.836-10.738-4.058c-5.081-1.22-8.941-2.341-11.579-3.364
		c-2.64-1.022-4.982-2.358-7.027-4.009c-4.091-3.101-6.136-7.851-6.136-14.251c0-6.398,2.326-11.332,6.978-14.796
		s10.407-5.195,17.27-5.195c4.42,0,8.809,0.727,13.163,2.177c4.355,1.452,8.115,3.498,11.283,6.137l-6.236,8.808
		c-2.045-1.847-4.816-3.365-8.312-4.553C106.201,70.186,102.754,69.592,99.357,69.592z"/>
</g>
</svg>
