<?xml version="1.0" encoding="utf-8"?>
<!-- Generator: Adobe Illustrator 16.0.0, SVG Export Plug-In . SVG Version: 6.00 Build 0)  -->
<!DOCTYPE svg PUBLIC "-//W3C//DTD SVG 1.1//EN" "http://www.w3.org/Graphics/SVG/1.1/DTD/svg11.dtd">
<svg version="1.1" id="Layer_1" xmlns="http://www.w3.org/2000/svg" xmlns:xlink="http://www.w3.org/1999/xlink" x="0px" y="0px"
	 width="200px" height="200px" viewBox="0 0 200 200" enable-background="new 0 0 200 200" xml:space="preserve">
<g>
	<path fill="#22ae8a" d="M138.261,78.08L99.52,116.82L60.778,78.08c-2.611-2.605-6.849-2.605-9.46,0
		c-2.611,2.617-2.611,6.867,0,9.473l43.446,43.454c1.318,1.316,3.043,1.971,4.755,1.965c1.737,0,3.437-0.648,4.755-1.965
		l43.446-43.454c2.612-2.605,2.612-6.855,0-9.473C145.109,75.474,140.872,75.474,138.261,78.08z M100-0.006
		c-55.223,0-100,44.771-100,100c-0.013,55.235,44.765,100.012,100,100.012s100-44.777,100-100C200,44.764,155.235-0.006,100-0.006z
		 M100,186.615c-47.746,0-86.598-38.863-86.598-86.61c0-47.758,38.852-86.609,86.598-86.609c47.746-0.013,86.61,38.84,86.61,86.609
		C186.61,147.752,147.746,186.615,100,186.615z"/>
</g>
</svg>
