<?xml version="1.0" encoding="utf-8"?>
<!-- Generator: Adobe Illustrator 16.0.0, SVG Export Plug-In . SVG Version: 6.00 Build 0)  -->
<!DOCTYPE svg PUBLIC "-//W3C//DTD SVG 1.1//EN" "http://www.w3.org/Graphics/SVG/1.1/DTD/svg11.dtd">
<svg version="1.1" id="Layer_1" xmlns="http://www.w3.org/2000/svg" xmlns:xlink="http://www.w3.org/1999/xlink" x="0px" y="0px"
	 width="200px" height="200px" viewBox="0 0 200 200" enable-background="new 0 0 200 200" xml:space="preserve">
<g>
	<path fill="#595955" d="M78.08,61.739l38.74,38.741l-38.74,38.742c-2.605,2.611-2.605,6.849,0,9.46
		c2.617,2.611,6.867,2.611,9.473,0l43.453-43.446c1.316-1.318,1.971-3.043,1.965-4.755c0-1.737-0.648-3.437-1.965-4.755
		L87.553,52.279c-2.605-2.612-6.855-2.612-9.473,0C75.475,54.891,75.475,59.128,78.08,61.739z M-0.006,100
		c0,55.223,44.771,100,100,100c55.234,0.013,100.012-44.765,100.012-100c0-55.235-44.777-100-100-100
		C44.765,0-0.006,44.765-0.006,100z M186.615,100c0,47.747-38.863,86.598-86.609,86.598c-47.758,0-86.609-38.852-86.609-86.598
		c-0.013-47.746,38.84-86.61,86.609-86.61C147.752,13.39,186.615,52.253,186.615,100z"/>
</g>
</svg>
