<?xml version="1.0" encoding="utf-8"?>
<!-- Generator: Adobe Illustrator 16.0.0, SVG Export Plug-In . SVG Version: 6.00 Build 0)  -->
<!DOCTYPE svg PUBLIC "-//W3C//DTD SVG 1.1//EN" "http://www.w3.org/Graphics/SVG/1.1/DTD/svg11.dtd">
<svg version="1.1" id="Layer_1" xmlns="http://www.w3.org/2000/svg" xmlns:xlink="http://www.w3.org/1999/xlink" x="0px" y="0px"
	 width="200px" height="200px" viewBox="0 0 200 200" enable-background="new 0 0 200 200" xml:space="preserve">
<g>
	<path fill="#595955" d="M121.92,138.26L83.18,99.519l38.74-38.742c2.605-2.611,2.605-6.849,0-9.46
		c-2.617-2.611-6.867-2.611-9.473,0L68.994,94.763c-1.316,1.318-1.971,3.043-1.965,4.755c0,1.737,0.648,3.437,1.965,4.755
		l43.453,43.446c2.605,2.612,6.855,2.612,9.473,0C124.525,145.108,124.525,140.871,121.92,138.26z M200.006,99.999
		c0-55.223-44.771-100-100-100C44.771-0.014-0.006,44.763-0.006,99.999c0,55.235,44.777,100,100,100
		C155.235,199.999,200.006,155.234,200.006,99.999z M13.385,99.999c0-47.747,38.863-86.598,86.609-86.598
		c47.758,0,86.609,38.852,86.609,86.598c0.013,47.747-38.84,86.611-86.609,86.611C52.248,186.609,13.385,147.745,13.385,99.999z"/>
</g>
</svg>
