<?xml version="1.0" encoding="utf-8"?>
<!-- Generator: Adobe Illustrator 16.0.0, SVG Export Plug-In . SVG Version: 6.00 Build 0)  -->
<!DOCTYPE svg PUBLIC "-//W3C//DTD SVG 1.1//EN" "http://www.w3.org/Graphics/SVG/1.1/DTD/svg11.dtd">
<svg version="1.1" id="Layer_1" xmlns="http://www.w3.org/2000/svg" xmlns:xlink="http://www.w3.org/1999/xlink" x="0px" y="0px"
	 width="200px" height="200px" viewBox="0 0 200 200" enable-background="new 0 0 200 200" xml:space="preserve">
<g>
	<g>
		<path fill="#22ae8a" d="M199.265,35.148c-1.577-5.09-6.15-8.851-11.765-8.851H175v12.5v6.897c0,10.34-8.41,18.75-18.75,18.75
			s-18.75-8.41-18.75-18.75v-6.897v-12.5H62.436v12.5v6.897c0,10.34-8.41,18.75-18.75,18.75c-10.341,0-18.75-8.41-18.75-18.75
			v-6.897v-12.5H12.5c-5.614,0-10.193,3.761-11.765,8.851H0v3.649v38.941v109.758c0,6.897,5.597,12.506,12.5,12.506h175
			c6.897,0,12.5-5.608,12.5-12.506V77.739V38.798v-3.649H199.265z M187.5,187.497h-175v-100h175V187.497z M43.686,51.945
			c3.448,0,6.25-2.796,6.25-6.25V6.247c0-3.449-2.802-6.25-6.25-6.25c-3.449,0-6.25,2.801-6.25,6.25v39.448
			C37.436,49.149,40.236,51.945,43.686,51.945z M156.25,51.945c3.448,0,6.25-2.796,6.25-6.25V6.247c0-3.449-2.802-6.25-6.25-6.25
			S150,2.798,150,6.247v39.448C150,49.149,152.802,51.945,156.25,51.945z"/>
	</g>
	<g>
		<path fill="#22ae8a" d="M70.635,156.851c-2.959-4.104-4.438-9.594-4.438-16.469s1.479-12.365,4.438-16.47
			c2.958-4.104,7.416-6.156,13.375-6.156c5.958,0,10.416,2.053,13.376,6.156c2.958,4.104,4.438,9.595,4.438,16.47
			s-1.479,12.365-4.438,16.469c-2.96,4.104-7.418,6.156-13.376,6.156C78.051,163.007,73.593,160.955,70.635,156.851z
			 M75.916,128.568c-1.729,3.001-2.594,6.938-2.594,11.813s0.864,8.812,2.594,11.812c1.729,3,4.427,4.5,8.094,4.5
			c3.666,0,6.344-1.489,8.031-4.469c1.688-2.979,2.531-6.927,2.531-11.844c0-4.916-0.844-8.864-2.531-11.845
			c-1.688-2.979-4.365-4.469-8.031-4.469C80.343,124.068,77.645,125.568,75.916,128.568z"/>
		<path fill="#22ae8a" d="M107.322,118.818h15.875v43.688h-7v-37.126h-8.875V118.818z"/>
	</g>
</g>
</svg>
