<?xml version="1.0" encoding="utf-8"?>
<!-- Generator: Adobe Illustrator 16.0.0, SVG Export Plug-In . SVG Version: 6.00 Build 0)  -->
<!DOCTYPE svg PUBLIC "-//W3C//DTD SVG 1.1//EN" "http://www.w3.org/Graphics/SVG/1.1/DTD/svg11.dtd">
<svg version="1.1" id="Layer_1" xmlns="http://www.w3.org/2000/svg" xmlns:xlink="http://www.w3.org/1999/xlink" x="0px" y="0px"
	 width="200px" height="200px" viewBox="0 0 200 200" enable-background="new 0 0 200 200" xml:space="preserve">
<g>
	<g>
		<g>
			<path fill="#22ae8a" d="M100-0.002C44.771-0.002,0,44.771,0,99.999c0,55.221,44.771,100.003,100,100.003S200,155.22,200,99.999
				C200,44.771,155.229-0.002,100-0.002z M100,186.661c-47.776,0-86.658-38.871-86.658-86.662c0-47.792,38.882-86.667,86.658-86.667
				c47.791,0,86.674,38.875,86.674,86.667C186.674,147.79,147.791,186.661,100,186.661z"/>
		</g>
	</g>
	<g>
		<path fill="#22ae8a" d="M80.529,151.674c-8.189,0-15.138-6.053-16.299-14.13L52.073,82.392c-0.059-0.306-0.108-0.6-0.129-0.893
			c-0.463-2.02-0.701-4.043-0.701-6.025c0-14.968,12.178-27.148,27.154-27.148c2.569,0,5.117,0.366,7.581,1.08
			c0.353,0.06,0.701,0.151,1.039,0.268c3.38,1.176,9.539,2.924,12.724,2.924c2.442,0,6.57-0.787,11.369-2.154
			c3.348-1.405,6.873-2.118,10.493-2.118c14.971,0,27.154,12.18,27.154,27.148c0,1.428-0.118,2.884-0.357,4.343l0.005,0.043
			l-0.177,0.981l-12.063,55.887c-0.089,0.688-0.228,1.387-0.42,2.111l-0.127,0.655l-0.167,0.357
			c-2.24,6.701-8.594,11.312-15.639,11.312c-7.884,0-14.747-5.755-16.187-13.46c-0.154-0.555-0.234-1.121-0.246-1.697l-0.005-0.348
			c-0.021-0.322-0.04-0.642-0.04-0.973c0-0.153,0.005-0.302,0.017-0.452c-0.03-7.5-1.817-10.131-2.621-10.714
			c-1.495,0.825-3.723,4.133-3.723,12.317v1.044l-0.139,0.396C95.831,145.421,88.814,151.674,80.529,151.674 M63.91,80.934
			l12.026,54.565l0.033,0.275c0.287,2.297,2.25,4.031,4.56,4.031c2.391,0,4.405-1.873,4.586-4.267l0.019-0.326
			c0.242-20.908,12.493-23.374,14.437-23.631c0,0,0.364-0.056,1.022-0.056c2.445,0,14.625,1.098,14.625,22.88l-0.005,0.19
			c0,0.054,0,0.104-0.002,0.148l0.059,0.632c0.338,2.23,2.294,3.916,4.541,3.916c1.97,0,3.744-1.293,4.372-3.166l0.054-0.219
			c0.085-0.289,0.13-0.536,0.153-0.747l0.104-0.656L136.6,78.389c0.186-0.988,0.284-1.971,0.284-2.915
			c0-8.422-6.852-15.28-15.281-15.28c-2.104,0-4.16,0.436-6.106,1.291l-0.357,0.159l-0.381,0.108
			c-6.238,1.8-11.289,2.716-15.018,2.716c-5.333,0-12.865-2.324-15.735-3.277l-0.195,0.004l-0.837-0.292
			c-1.481-0.47-3.023-0.708-4.577-0.708c-8.424,0-15.281,6.857-15.281,15.28c0,1.24,0.165,2.484,0.508,3.806l0.35,1.365
			L63.91,80.934z"/>
	</g>
</g>
</svg>
