<?xml version="1.0" encoding="utf-8"?>
<!-- Generator: Adobe Illustrator 16.0.0, SVG Export Plug-In . SVG Version: 6.00 Build 0)  -->
<!DOCTYPE svg PUBLIC "-//W3C//DTD SVG 1.1//EN" "http://www.w3.org/Graphics/SVG/1.1/DTD/svg11.dtd">
<svg version="1.1" id="Layer_1" xmlns="http://www.w3.org/2000/svg" xmlns:xlink="http://www.w3.org/1999/xlink" x="0px" y="0px"
	 width="200px" height="200px" viewBox="0 0 200 200" enable-background="new 0 0 200 200" xml:space="preserve">
<g>
	<path fill="#09B687" d="M95.446,196.918c1.038,1.168,2.056,1.914,3.028,2.434c0.021,0.021,0.044,0.021,0.065,0.033
		c0.67,0.355,1.34,0.615,1.969,0.615c0.605,0,1.275-0.26,1.946-0.615c0.022-0.012,0.042-0.012,0.064-0.033
		c0.974-0.52,1.99-1.266,3.029-2.434c0,0,58.188-63.289,64.051-118.119c0.346-2.834,0.584-5.701,0.584-8.615
		C170.184,31.425,138.753,0,99.989,0C61.247,0,29.816,31.425,29.816,70.184c0,2.969,0.237,5.857,0.605,8.728
		C36.414,133.721,95.446,196.918,95.446,196.918z M99.989,25.038c24.896,0,45.145,20.259,45.145,45.146
		c0,24.893-20.248,45.145-45.145,45.145c-24.877,0-45.146-20.252-45.146-45.145C54.844,45.297,75.112,25.038,99.989,25.038z"/>
</g>
</svg>
