<?xml version="1.0" encoding="utf-8"?>
<!-- Generator: Adobe Illustrator 16.0.0, SVG Export Plug-In . SVG Version: 6.00 Build 0)  -->
<!DOCTYPE svg PUBLIC "-//W3C//DTD SVG 1.1//EN" "http://www.w3.org/Graphics/SVG/1.1/DTD/svg11.dtd">
<svg version="1.1" id="Layer_1" xmlns="http://www.w3.org/2000/svg" xmlns:xlink="http://www.w3.org/1999/xlink" x="0px" y="0px"
	 width="200px" height="200px" viewBox="0 0 200 200" enable-background="new 0 0 200 200" xml:space="preserve">
<g>
	<path fill="none" stroke="#595955" stroke-width="6.3735" stroke-miterlimit="10" d="M161.967,61.24
		c0,1.281-1.979,2.322-4.431,2.322H42.464c-2.453,0-4.438-1.041-4.438-2.322V33.828c0-1.288,1.986-2.328,4.438-2.328h115.072
		c2.451,0,4.431,1.04,4.431,2.328V61.24z"/>
	<path fill="none" stroke="#595955" stroke-width="6.3735" stroke-miterlimit="10" d="M196.288,138.556
		c0,3.244-3.094,5.869-6.896,5.869H10.608c-3.809,0-6.896-2.625-6.896-5.869V69.238c0-3.25,3.087-5.883,6.896-5.883h178.783
		c3.803,0,6.896,2.633,6.896,5.883V138.556z"/>
	<path fill="#FFFFFF" stroke="#595955" stroke-width="6.3735" stroke-miterlimit="10" d="M161.967,165.477
		c0,2.407-1.979,4.355-4.431,4.355H42.464c-2.453,0-4.438-1.948-4.438-4.355v-51.426c0-2.396,1.986-4.355,4.438-4.355h115.072
		c2.451,0,4.431,1.959,4.431,4.355V165.477z"/>
</g>
</svg>
