<?xml version="1.0" encoding="utf-8"?>
<!-- Generator: Adobe Illustrator 16.0.0, SVG Export Plug-In . SVG Version: 6.00 Build 0)  -->
<!DOCTYPE svg PUBLIC "-//W3C//DTD SVG 1.1//EN" "http://www.w3.org/Graphics/SVG/1.1/DTD/svg11.dtd">
<svg version="1.1" id="Layer_1" xmlns="http://www.w3.org/2000/svg" xmlns:xlink="http://www.w3.org/1999/xlink" x="0px" y="0px"
	 width="200px" height="200px" viewBox="0 0 200 200" enable-background="new 0 0 200 200" xml:space="preserve">
<g>
	<path fill="#22ae8a" d="M113.701,81.155l-13.367-27.076L86.969,81.155l-29.878,4.347l21.619,21.072l-5.103,29.76l26.728-14.05
		l26.728,14.05l-5.102-29.76l21.616-21.072L113.701,81.155z"/>
</g>
<g>
	<path fill="#22ae8a" d="M100.336,4c52.566,0,95.333,42.766,95.333,95.332c0,52.568-42.767,95.335-95.333,95.335
		C47.768,194.667,5,151.9,5,99.332C5,46.766,47.768,4,100.336,4 M100.336,1C46.027,1,2,45.025,2,99.332
		c0,54.309,44.027,98.335,98.336,98.335c54.307,0,98.333-44.026,98.333-98.335C198.669,45.025,154.643,1,100.336,1L100.336,1z"/>
</g>
</svg>
