<?xml version="1.0" encoding="utf-8" ?>
<!-- Generator: Adobe Illustrator 23.0.4, SVG Export Plug-In . SVG Version: 6.00 Build 0)  -->
<svg
  version="1.1"
  xmlns="http://www.w3.org/2000/svg"
  xmlns:xlink="http://www.w3.org/1999/xlink"
  x="0px"
  y="0px"
  viewBox="0 0 170.23 60.15"
  style="enable-background:new 0 0 170.23 60.15;"
  xml:space="preserve"
>
<style type="text/css">
	.st0{fill:#4A81BA;}
	.st1{fill:#8DBA3B;}
	.st2{fill:#CA312B;}
	.st3{fill:#EEA759;}
	.st4{fill:#794C85;}
	.st5{fill:#B12470;}
	.st6{fill:#FEEB13;}
	.st7{fill:#FFFFFF;}
	.st8{fill:#1E5A7C;}
	.st9{fill:#A9D0F5;}
	.st10{fill:#3366CC;}
</style>
<g id="Capa_1">
</g>
<g id="Capa_2">
	<g>
		<path
        class="st10"
        d="M53.77,23.14c-0.53-0.2-1-0.46-1.39-0.77c-0.39-0.31-0.7-0.68-0.93-1.1s-0.34-0.92-0.34-1.47
			c0-0.57,0.12-1.08,0.36-1.55s0.56-0.87,0.96-1.21c0.4-0.34,0.86-0.6,1.38-0.78s1.06-0.27,1.62-0.27c0.4,0,0.8,0.04,1.19,0.12
			c0.39,0.08,0.76,0.21,1.1,0.37c0.34,0.16,0.65,0.36,0.93,0.61c0.28,0.24,0.51,0.52,0.7,0.84c0.06,0.1,0.1,0.2,0.11,0.29
			c0.01,0.1,0,0.2-0.02,0.29c-0.02,0.1-0.06,0.19-0.11,0.27c-0.05,0.08-0.1,0.15-0.16,0.22c-0.07,0.07-0.15,0.13-0.25,0.17
			c-0.1,0.04-0.21,0.07-0.32,0.08c-0.11,0.01-0.23,0-0.35-0.03s-0.24-0.08-0.35-0.17c-0.19-0.17-0.37-0.32-0.54-0.45
			c-0.17-0.13-0.35-0.23-0.54-0.32c-0.19-0.08-0.39-0.14-0.6-0.19c-0.22-0.04-0.46-0.06-0.74-0.06c-0.31,0-0.6,0.04-0.88,0.12
			c-0.28,0.08-0.52,0.19-0.73,0.35c-0.21,0.15-0.37,0.33-0.5,0.55c-0.12,0.21-0.18,0.46-0.18,0.72c0,0.31,0.08,0.57,0.24,0.77
			c0.16,0.2,0.38,0.37,0.65,0.5c0.27,0.13,0.58,0.25,0.94,0.34c0.36,0.09,0.74,0.18,1.14,0.27c0.48,0.13,0.95,0.29,1.41,0.48
			c0.46,0.19,0.87,0.42,1.23,0.71c0.36,0.29,0.65,0.64,0.87,1.05s0.33,0.9,0.33,1.48c0,0.59-0.12,1.13-0.35,1.62
			s-0.56,0.92-0.97,1.29c-0.41,0.36-0.9,0.65-1.46,0.85s-1.15,0.31-1.79,0.31c-0.51,0-1-0.07-1.47-0.2
			c-0.47-0.13-0.9-0.32-1.29-0.55c-0.39-0.23-0.73-0.5-1.03-0.81c-0.29-0.31-0.52-0.64-0.68-0.99c-0.08-0.17-0.13-0.32-0.13-0.47
			c-0.01-0.15,0.01-0.28,0.05-0.4c0.04-0.12,0.1-0.23,0.19-0.32c0.08-0.09,0.18-0.17,0.29-0.23c0.25-0.14,0.49-0.17,0.71-0.08
			c0.22,0.08,0.45,0.27,0.68,0.57c0.29,0.46,0.66,0.81,1.13,1.05s1.01,0.37,1.62,0.37c0.3,0,0.6-0.04,0.89-0.12s0.56-0.21,0.79-0.37
			c0.23-0.16,0.42-0.36,0.56-0.6c0.14-0.24,0.22-0.51,0.22-0.81c0-0.32-0.07-0.58-0.22-0.79s-0.34-0.38-0.57-0.51
			s-0.49-0.24-0.79-0.33c-0.29-0.08-0.58-0.16-0.87-0.24C54.89,23.5,54.31,23.34,53.77,23.14z"
      />
		<path
        class="st10"
        d="M68.56,25.63h-5.2l-1.26,3.06c-0.06,0.14-0.13,0.25-0.23,0.35c-0.1,0.09-0.21,0.16-0.33,0.21
			s-0.25,0.07-0.4,0.06c-0.14,0-0.28-0.03-0.42-0.09c-0.27-0.12-0.44-0.31-0.52-0.56c-0.08-0.26-0.07-0.52,0.05-0.79l4.81-11.15
			c0.09-0.2,0.21-0.36,0.38-0.47c0.16-0.11,0.35-0.17,0.56-0.17c0.2,0,0.38,0.05,0.55,0.16c0.17,0.11,0.29,0.26,0.38,0.46
			l4.76,11.16c0.12,0.27,0.13,0.53,0.05,0.79c-0.08,0.26-0.25,0.45-0.51,0.56c-0.13,0.06-0.26,0.09-0.4,0.1
			c-0.14,0-0.27-0.02-0.39-0.07c-0.12-0.05-0.24-0.12-0.34-0.21c-0.1-0.09-0.18-0.2-0.25-0.34L68.56,25.63z M64.21,23.57h3.49
			l-1.75-4.21L64.21,23.57z"
      />
		<path
        class="st10"
        d="M74.76,27.26l4.26,0.01c0.29,0,0.53,0.1,0.72,0.29c0.2,0.2,0.29,0.44,0.29,0.73c0,0.14-0.03,0.28-0.08,0.4
			c-0.05,0.12-0.12,0.23-0.22,0.33c-0.09,0.09-0.2,0.17-0.32,0.22s-0.26,0.07-0.4,0.07h-5.41l-0.08-0.02
			c-0.24-0.05-0.43-0.16-0.58-0.35s-0.23-0.4-0.23-0.65V17.1c0-0.14,0.03-0.28,0.08-0.4c0.05-0.12,0.12-0.23,0.21-0.33
			c0.09-0.09,0.2-0.17,0.32-0.22s0.26-0.08,0.4-0.08s0.28,0.03,0.4,0.08s0.23,0.12,0.32,0.22c0.09,0.09,0.17,0.2,0.22,0.33
			s0.08,0.26,0.08,0.4V27.26z"
      />
		<path
        class="st10"
        d="M88.24,16.69c0.05-0.12,0.12-0.23,0.22-0.32c0.09-0.09,0.2-0.16,0.32-0.21s0.26-0.08,0.4-0.08
			c0.29,0,0.53,0.1,0.73,0.29c0.2,0.19,0.3,0.43,0.3,0.72v7.5c0,0.67-0.12,1.3-0.35,1.88s-0.56,1.1-0.98,1.54
			c-0.42,0.44-0.92,0.78-1.51,1.03c-0.59,0.25-1.24,0.38-1.94,0.38c-0.71,0-1.36-0.12-1.96-0.38c-0.6-0.25-1.12-0.6-1.56-1.03
			c-0.44-0.44-0.78-0.95-1.03-1.54c-0.25-0.59-0.38-1.21-0.38-1.88v-7.47c0-0.14,0.03-0.28,0.08-0.4s0.12-0.23,0.22-0.33
			c0.09-0.09,0.2-0.17,0.32-0.22c0.12-0.05,0.26-0.08,0.4-0.08s0.28,0.03,0.4,0.08c0.12,0.06,0.23,0.13,0.32,0.22
			c0.09,0.09,0.17,0.2,0.22,0.33s0.08,0.26,0.08,0.4v7.42c0,0.39,0.07,0.75,0.22,1.1c0.14,0.35,0.34,0.65,0.59,0.91
			s0.56,0.46,0.91,0.62S85,27.4,85.42,27.4s0.8-0.08,1.13-0.23c0.34-0.15,0.63-0.36,0.87-0.62s0.42-0.57,0.55-0.91
			c0.13-0.34,0.19-0.71,0.19-1.1v-7.45C88.17,16.94,88.19,16.81,88.24,16.69z"
      />
		<path
        class="st10"
        d="M95.19,16.08c0.62,0,1.21,0.08,1.78,0.23c0.57,0.16,1.1,0.38,1.59,0.66c0.49,0.29,0.94,0.63,1.35,1.03
			s0.76,0.85,1.05,1.34s0.51,1.02,0.67,1.59c0.16,0.57,0.24,1.16,0.24,1.78s-0.08,1.21-0.24,1.78c-0.16,0.57-0.38,1.09-0.67,1.58
			s-0.64,0.93-1.05,1.33s-0.86,0.74-1.35,1.02c-0.49,0.28-1.02,0.5-1.59,0.66c-0.57,0.16-1.16,0.23-1.78,0.23h-2.25
			c-0.29,0-0.53-0.1-0.72-0.29c-0.19-0.19-0.29-0.43-0.29-0.72V17.09c0-0.29,0.1-0.53,0.29-0.72c0.19-0.19,0.44-0.29,0.72-0.29
			H95.19z M95.26,18.15h-1.29v9.1h1.24c0.64,0,1.25-0.11,1.81-0.34s1.05-0.54,1.47-0.95c0.42-0.4,0.75-0.88,0.98-1.43
			c0.24-0.55,0.36-1.16,0.36-1.81c0-0.64-0.12-1.24-0.36-1.79s-0.56-1.03-0.97-1.44c-0.41-0.41-0.89-0.73-1.45-0.97
			S95.89,18.16,95.26,18.15z"
      />
		<path
        class="st10"
        d="M110.43,16.08c0.62,0,1.21,0.08,1.78,0.23c0.57,0.16,1.1,0.38,1.59,0.66c0.49,0.29,0.94,0.63,1.35,1.03
			s0.76,0.85,1.05,1.34s0.51,1.02,0.67,1.59c0.16,0.57,0.24,1.16,0.24,1.78s-0.08,1.21-0.24,1.78c-0.16,0.57-0.38,1.09-0.67,1.58
			s-0.64,0.93-1.05,1.33s-0.86,0.74-1.35,1.02c-0.49,0.28-1.02,0.5-1.59,0.66c-0.57,0.16-1.16,0.23-1.78,0.23h-2.25
			c-0.29,0-0.53-0.1-0.72-0.29c-0.19-0.19-0.29-0.43-0.29-0.72V17.09c0-0.29,0.1-0.53,0.29-0.72c0.19-0.19,0.44-0.29,0.72-0.29
			H110.43z M110.5,18.15h-1.29v9.1h1.24c0.64,0,1.25-0.11,1.81-0.34s1.05-0.54,1.47-0.95c0.42-0.4,0.75-0.88,0.98-1.43
			c0.24-0.55,0.36-1.16,0.36-1.81c0-0.64-0.12-1.24-0.36-1.79s-0.56-1.03-0.97-1.44c-0.41-0.41-0.89-0.73-1.45-0.97
			S111.13,18.16,110.5,18.15z"
      />
		<path
        class="st10"
        d="M120.44,28.29c0,0.29-0.1,0.53-0.3,0.72c-0.2,0.19-0.44,0.29-0.73,0.29s-0.53-0.1-0.72-0.29
			c-0.19-0.19-0.29-0.43-0.29-0.72V17.09c0-0.29,0.1-0.53,0.29-0.72c0.2-0.19,0.44-0.29,0.72-0.29s0.53,0.1,0.73,0.29
			c0.2,0.19,0.3,0.43,0.3,0.72V28.29z"
      />
		<path
        class="st10"
        d="M123.65,22.71c0,0.65,0.12,1.26,0.36,1.83c0.24,0.57,0.57,1.06,0.98,1.48c0.41,0.42,0.9,0.75,1.46,0.99
			c0.56,0.24,1.16,0.36,1.81,0.36c0.97,0,1.79-0.22,2.47-0.66c0.67-0.44,1.14-1.06,1.39-1.88h-2.17c-0.29,0-0.53-0.1-0.72-0.29
			c-0.19-0.2-0.29-0.44-0.29-0.73c0-0.28,0.1-0.53,0.29-0.73s0.43-0.3,0.72-0.3l3.37,0.02c0.29,0.01,0.53,0.1,0.74,0.29
			c0.21,0.19,0.31,0.43,0.31,0.73c-0.04,0.81-0.23,1.55-0.56,2.23c-0.33,0.68-0.77,1.27-1.32,1.77c-0.55,0.5-1.18,0.89-1.91,1.17
			c-0.73,0.28-1.5,0.42-2.33,0.42c-0.92,0-1.79-0.18-2.6-0.53s-1.52-0.83-2.11-1.44s-1.07-1.32-1.42-2.13
			c-0.34-0.81-0.52-1.68-0.52-2.62c0-0.92,0.17-1.78,0.51-2.6s0.81-1.53,1.4-2.14c0.6-0.61,1.3-1.1,2.1-1.46
			c0.81-0.36,1.68-0.54,2.61-0.54c0.92,0,1.78,0.17,2.58,0.5c0.8,0.33,1.53,0.83,2.2,1.49c0.2,0.2,0.3,0.44,0.3,0.71
			c0,0.28-0.09,0.51-0.29,0.71c-0.1,0.1-0.21,0.17-0.34,0.22s-0.25,0.08-0.38,0.08c-0.13,0-0.26-0.02-0.38-0.06
			c-0.13-0.04-0.24-0.12-0.34-0.22c-0.47-0.46-0.98-0.8-1.55-1.03c-0.57-0.22-1.16-0.34-1.76-0.34c-0.62,0-1.21,0.12-1.76,0.36
			c-0.55,0.24-1.04,0.57-1.46,0.98c-0.42,0.42-0.75,0.91-1,1.47C123.77,21.44,123.65,22.05,123.65,22.71z"
      />
		<path
        class="st10"
        d="M137.77,28.29c0,0.29-0.1,0.53-0.3,0.72c-0.2,0.19-0.44,0.29-0.73,0.29s-0.53-0.1-0.72-0.29
			c-0.19-0.19-0.29-0.43-0.29-0.72V17.09c0-0.29,0.1-0.53,0.29-0.72c0.2-0.19,0.44-0.29,0.72-0.29s0.53,0.1,0.73,0.29
			c0.2,0.19,0.3,0.43,0.3,0.72V28.29z"
      />
		<path
        class="st10"
        d="M144.41,18.12v10.17c0,0.29-0.1,0.53-0.3,0.72c-0.2,0.19-0.44,0.29-0.73,0.29s-0.52-0.1-0.7-0.29
			c-0.18-0.19-0.27-0.43-0.27-0.72V18.12h-2.73c-0.29,0-0.53-0.1-0.72-0.29s-0.29-0.44-0.29-0.73c0-0.29,0.1-0.53,0.29-0.73
			c0.19-0.2,0.43-0.29,0.72-0.29h7.47c0.29,0,0.53,0.1,0.72,0.3s0.29,0.44,0.29,0.73c0,0.15-0.03,0.28-0.08,0.4
			c-0.05,0.12-0.12,0.23-0.22,0.32c-0.09,0.09-0.2,0.16-0.32,0.21s-0.26,0.08-0.4,0.08H144.41z"
      />
		<path
        class="st10"
        d="M154.56,25.63h-5.2l-1.26,3.06c-0.06,0.14-0.13,0.25-0.23,0.35c-0.1,0.09-0.21,0.16-0.33,0.21
			s-0.25,0.07-0.4,0.06c-0.14,0-0.28-0.03-0.42-0.09c-0.27-0.12-0.44-0.31-0.52-0.56c-0.08-0.26-0.07-0.52,0.05-0.79l4.81-11.15
			c0.09-0.2,0.21-0.36,0.38-0.47c0.16-0.11,0.35-0.17,0.56-0.17c0.2,0,0.38,0.05,0.55,0.16c0.17,0.11,0.29,0.26,0.38,0.46
			l4.76,11.16c0.12,0.27,0.13,0.53,0.05,0.79c-0.08,0.26-0.25,0.45-0.51,0.56c-0.13,0.06-0.26,0.09-0.4,0.1
			c-0.14,0-0.27-0.02-0.39-0.07c-0.12-0.05-0.24-0.12-0.34-0.21c-0.1-0.09-0.18-0.2-0.25-0.34L154.56,25.63z M150.21,23.57h3.49
			l-1.75-4.21L150.21,23.57z"
      />
		<path
        class="st10"
        d="M160.75,27.26l4.26,0.01c0.29,0,0.53,0.1,0.72,0.29c0.2,0.2,0.29,0.44,0.29,0.73c0,0.14-0.03,0.28-0.08,0.4
			c-0.05,0.12-0.12,0.23-0.22,0.33c-0.09,0.09-0.2,0.17-0.32,0.22s-0.26,0.07-0.4,0.07h-5.41l-0.08-0.02
			c-0.24-0.05-0.43-0.16-0.58-0.35s-0.23-0.4-0.23-0.65V17.1c0-0.14,0.03-0.28,0.08-0.4c0.05-0.12,0.12-0.23,0.21-0.33
			c0.09-0.09,0.2-0.17,0.32-0.22s0.26-0.08,0.4-0.08s0.28,0.03,0.4,0.08s0.23,0.12,0.32,0.22c0.09,0.09,0.17,0.2,0.22,0.33
			s0.08,0.26,0.08,0.4V27.26z"
      />
		<path
        class="st10"
        d="M65.81,47.03c0,0.29-0.1,0.53-0.3,0.72c-0.2,0.19-0.44,0.29-0.73,0.29s-0.53-0.1-0.72-0.29
			c-0.19-0.19-0.29-0.43-0.29-0.72V35.82c0-0.29,0.1-0.53,0.29-0.72c0.2-0.19,0.44-0.29,0.72-0.29s0.53,0.1,0.73,0.29
			c0.2,0.19,0.3,0.43,0.3,0.72V47.03z"
      />
		<path
        class="st10"
        d="M69.9,38.92v8.1c0,0.29-0.1,0.53-0.3,0.72c-0.2,0.19-0.44,0.29-0.73,0.29s-0.53-0.1-0.72-0.29
			c-0.19-0.19-0.29-0.43-0.29-0.72V35.85c0-0.29,0.1-0.53,0.29-0.72c0.2-0.19,0.44-0.29,0.72-0.29h0.01c0.04,0,0.07,0,0.09,0.01
			c0.03,0,0.06,0,0.07,0.01l0.14,0.03c0.12,0.04,0.22,0.09,0.3,0.15l0.11,0.09c0.07,0.08,0.13,0.16,0.18,0.25l6.1,8.58v-8.15
			c0-0.29,0.1-0.53,0.3-0.72c0.2-0.19,0.45-0.29,0.73-0.29c0.14,0,0.28,0.03,0.4,0.08s0.23,0.12,0.32,0.22
			c0.09,0.09,0.16,0.2,0.21,0.32c0.05,0.12,0.08,0.25,0.08,0.4v11.21c0,0.23-0.07,0.44-0.21,0.61c-0.14,0.18-0.31,0.29-0.51,0.36
			c-0.05,0.02-0.12,0.03-0.18,0.04h-0.11c-0.24,0-0.45-0.07-0.64-0.22l-0.1-0.08c-0.03-0.03-0.06-0.06-0.08-0.09L69.9,38.92z"
      />
		<path
        class="st10"
        d="M84.19,36.86v10.17c0,0.29-0.1,0.53-0.3,0.72c-0.2,0.19-0.44,0.29-0.73,0.29s-0.52-0.1-0.7-0.29
			c-0.18-0.19-0.27-0.43-0.27-0.72V36.86h-2.73c-0.29,0-0.53-0.1-0.72-0.29s-0.29-0.44-0.29-0.73c0-0.29,0.1-0.53,0.29-0.73
			c0.19-0.2,0.43-0.29,0.72-0.29h7.47c0.29,0,0.53,0.1,0.72,0.3s0.29,0.44,0.29,0.73c0,0.15-0.03,0.28-0.08,0.4
			c-0.05,0.12-0.12,0.23-0.22,0.32c-0.09,0.09-0.2,0.16-0.32,0.21s-0.26,0.08-0.4,0.08H84.19z"
      />
		<path
        class="st10"
        d="M89.9,48.04c-0.27-0.02-0.5-0.13-0.68-0.32s-0.27-0.42-0.27-0.71V35.84c0-0.14,0.03-0.28,0.08-0.4
			c0.05-0.12,0.12-0.23,0.21-0.33c0.09-0.09,0.2-0.17,0.33-0.22c0.13-0.06,0.26-0.08,0.41-0.08h5.48c0.14,0,0.28,0.03,0.39,0.08
			c0.12,0.05,0.23,0.13,0.32,0.22c0.09,0.09,0.16,0.2,0.22,0.33c0.05,0.12,0.08,0.26,0.08,0.4c0,0.29-0.1,0.53-0.29,0.73
			s-0.43,0.29-0.72,0.29H91v3.58h3.22c0.14-0.01,0.28,0.02,0.4,0.07s0.23,0.12,0.32,0.22s0.16,0.2,0.22,0.33
			c0.05,0.12,0.08,0.26,0.08,0.4c0,0.29-0.1,0.53-0.29,0.71c-0.2,0.19-0.44,0.28-0.72,0.28H91v3.55h4.46c0.29,0,0.53,0.1,0.72,0.3
			c0.19,0.2,0.29,0.44,0.29,0.73c0,0.14-0.03,0.28-0.08,0.4c-0.05,0.12-0.12,0.23-0.22,0.33c-0.09,0.09-0.2,0.17-0.32,0.22
			c-0.12,0.05-0.25,0.07-0.39,0.07H89.9z"
      />
		<path
        class="st10"
        d="M98.47,41.45c0,0.65,0.12,1.26,0.36,1.83c0.24,0.57,0.57,1.06,0.98,1.48c0.41,0.42,0.9,0.75,1.46,0.99
			c0.56,0.24,1.16,0.36,1.81,0.36c0.97,0,1.79-0.22,2.47-0.66c0.67-0.44,1.14-1.06,1.39-1.88h-2.17c-0.29,0-0.53-0.1-0.72-0.29
			c-0.19-0.2-0.29-0.44-0.29-0.73c0-0.28,0.1-0.53,0.29-0.73s0.43-0.3,0.72-0.3l3.37,0.02c0.29,0.01,0.53,0.1,0.74,0.29
			c0.21,0.19,0.31,0.43,0.31,0.73c-0.04,0.81-0.23,1.55-0.56,2.23c-0.33,0.68-0.77,1.27-1.32,1.77c-0.55,0.5-1.18,0.89-1.91,1.17
			c-0.73,0.28-1.5,0.42-2.33,0.42c-0.92,0-1.79-0.18-2.6-0.53s-1.52-0.83-2.11-1.44s-1.07-1.32-1.42-2.13
			c-0.34-0.81-0.52-1.68-0.52-2.62c0-0.92,0.17-1.78,0.51-2.6s0.81-1.53,1.4-2.14c0.6-0.61,1.3-1.1,2.1-1.46
			c0.81-0.36,1.68-0.54,2.61-0.54c0.92,0,1.78,0.17,2.58,0.5c0.8,0.33,1.53,0.83,2.2,1.49c0.2,0.2,0.3,0.44,0.3,0.71
			c0,0.28-0.09,0.51-0.29,0.71c-0.1,0.1-0.21,0.17-0.34,0.22s-0.25,0.08-0.38,0.08c-0.13,0-0.26-0.02-0.38-0.06
			c-0.13-0.04-0.24-0.12-0.34-0.22c-0.47-0.46-0.98-0.8-1.55-1.03c-0.57-0.22-1.16-0.34-1.76-0.34c-0.62,0-1.21,0.12-1.76,0.36
			c-0.55,0.24-1.04,0.57-1.46,0.98c-0.42,0.42-0.75,0.91-1,1.47C98.59,40.17,98.47,40.78,98.47,41.45z"
      />
		<path
        class="st10"
        d="M118.96,38.73c0,0.43-0.06,0.83-0.19,1.22c-0.13,0.39-0.31,0.74-0.54,1.05c-0.23,0.32-0.51,0.59-0.83,0.83
			c-0.32,0.24-0.67,0.42-1.04,0.55l2.43,4.13c0.08,0.12,0.12,0.25,0.13,0.39s0,0.27-0.04,0.4c-0.04,0.13-0.1,0.24-0.19,0.35
			c-0.09,0.11-0.19,0.19-0.31,0.25c-0.12,0.07-0.25,0.11-0.38,0.12s-0.26,0-0.38-0.04s-0.24-0.1-0.34-0.18s-0.19-0.18-0.26-0.3
			l-2.86-4.91h-1.57v4.41c0,0.29-0.1,0.53-0.3,0.72c-0.2,0.19-0.44,0.29-0.73,0.29s-0.53-0.1-0.72-0.29
			c-0.19-0.19-0.29-0.43-0.29-0.72V35.82c0-0.29,0.1-0.53,0.29-0.72c0.2-0.19,0.44-0.29,0.72-0.29H115c0.55,0,1.06,0.1,1.54,0.3
			c0.48,0.2,0.9,0.48,1.26,0.83s0.64,0.77,0.85,1.25C118.86,37.67,118.96,38.18,118.96,38.73z M112.59,36.85v3.71h2.42
			c0.26,0,0.51-0.05,0.74-0.15c0.23-0.1,0.44-0.24,0.61-0.41c0.17-0.17,0.31-0.37,0.41-0.6c0.1-0.23,0.15-0.46,0.15-0.71
			c0-0.25-0.05-0.49-0.15-0.72c-0.1-0.22-0.24-0.42-0.42-0.58c-0.17-0.17-0.38-0.29-0.61-0.39c-0.23-0.09-0.48-0.14-0.74-0.14
			H112.59z"
      />
		<path
        class="st10"
        d="M127.86,44.36h-5.2l-1.26,3.06c-0.06,0.14-0.13,0.25-0.23,0.35c-0.1,0.09-0.21,0.16-0.33,0.21
			s-0.25,0.07-0.4,0.06c-0.14,0-0.28-0.03-0.42-0.09c-0.27-0.12-0.44-0.31-0.52-0.56c-0.08-0.26-0.07-0.52,0.05-0.79l4.81-11.15
			c0.09-0.2,0.21-0.36,0.38-0.47c0.16-0.11,0.35-0.17,0.56-0.17c0.2,0,0.38,0.05,0.55,0.16c0.17,0.11,0.29,0.26,0.38,0.46
			l4.76,11.16c0.12,0.27,0.13,0.53,0.05,0.79c-0.08,0.26-0.25,0.45-0.51,0.56c-0.13,0.06-0.26,0.09-0.4,0.1
			c-0.14,0-0.27-0.02-0.39-0.07c-0.12-0.05-0.24-0.12-0.34-0.21c-0.1-0.09-0.18-0.2-0.25-0.34L127.86,44.36z M123.51,42.3h3.49
			l-1.75-4.21L123.51,42.3z"
      />
		<path
        class="st10"
        d="M135.28,34.81c0.62,0,1.21,0.08,1.78,0.23c0.57,0.16,1.1,0.38,1.59,0.66c0.49,0.29,0.94,0.63,1.35,1.03
			s0.76,0.85,1.05,1.34s0.51,1.02,0.67,1.59c0.16,0.57,0.24,1.16,0.24,1.78s-0.08,1.21-0.24,1.78c-0.16,0.57-0.38,1.09-0.67,1.58
			s-0.64,0.93-1.05,1.33s-0.86,0.74-1.35,1.02c-0.49,0.28-1.02,0.5-1.59,0.66c-0.57,0.16-1.16,0.23-1.78,0.23h-2.25
			c-0.29,0-0.53-0.1-0.72-0.29c-0.19-0.19-0.29-0.43-0.29-0.72V35.82c0-0.29,0.1-0.53,0.29-0.72c0.19-0.19,0.44-0.29,0.72-0.29
			H135.28z M135.35,36.89h-1.29v9.1h1.24c0.64,0,1.25-0.11,1.81-0.34s1.05-0.54,1.47-0.95c0.42-0.4,0.75-0.88,0.98-1.43
			c0.24-0.55,0.36-1.16,0.36-1.81c0-0.64-0.12-1.24-0.36-1.79s-0.56-1.03-0.97-1.44c-0.41-0.41-0.89-0.73-1.45-0.97
			S135.98,36.89,135.35,36.89z"
      />
		<path
        class="st10"
        d="M150.55,44.36h-5.2l-1.26,3.06c-0.06,0.14-0.13,0.25-0.23,0.35c-0.1,0.09-0.21,0.16-0.33,0.21
			s-0.25,0.07-0.4,0.06c-0.14,0-0.28-0.03-0.42-0.09c-0.27-0.12-0.44-0.31-0.52-0.56c-0.08-0.26-0.07-0.52,0.05-0.79l4.81-11.15
			c0.09-0.2,0.21-0.36,0.38-0.47c0.16-0.11,0.35-0.17,0.56-0.17c0.2,0,0.38,0.05,0.55,0.16c0.17,0.11,0.29,0.26,0.38,0.46
			l4.76,11.16c0.12,0.27,0.13,0.53,0.05,0.79c-0.08,0.26-0.25,0.45-0.51,0.56c-0.13,0.06-0.26,0.09-0.4,0.1
			c-0.14,0-0.27-0.02-0.39-0.07c-0.12-0.05-0.24-0.12-0.34-0.21c-0.1-0.09-0.18-0.2-0.25-0.34L150.55,44.36z M146.2,42.3h3.49
			l-1.75-4.21L146.2,42.3z"
      />
	</g>
	<ellipse class="st10" cx="24.84" cy="22.87" rx="2.74" ry="3.61" />
	<path
      class="st10"
      d="M15.74,44.09c0,0,1.09-3.51,2.95-7.22c1.52-3.04,3.66-5.72,6.26-7.9c3.28-2.75,9.02-7.96,9.84-11.44
		c0,0,1.06,5.83-4.18,12.4c-0.46,0.58-0.65,1.32-0.54,2.05c0.59,4.02,2.12,17.28-2.5,23.36c0,0,1.88-8.52-0.43-11.69
		c0,0-5.2,12.13-8.95,13.28c0,0,6.89-9.92,5.05-19.53c-0.08-0.42-0.52-0.67-0.92-0.51C21.23,37.35,18.99,38.88,15.74,44.09z"
    />
	<path
      class="st1"
      d="M3.04,25.03c0,0,4.04-4.91,8.66,0C11.7,25.03,7.66,29.65,3.04,25.03z"
    />
	<path
      class="st2"
      d="M8.26,31.51c0,0,1.14-5.24,6.3-2.93C14.56,28.58,13.32,33.58,8.26,31.51z"
    />
	<path
      class="st3"
      d="M8.9,16.36c0,0,4.95-1.44,5.37,3.98C14.26,20.34,9.46,21.58,8.9,16.36z"
    />
	<path
      class="st2"
      d="M19.1,7.58c0,0,4.75,2,1.67,6.47C20.77,14.05,16.25,11.99,19.1,7.58z"
    />
	<path
      class="st3"
      d="M33.18,7.45c0,0,2.41,4.55-2.81,6.06C30.37,13.52,28.18,9.06,33.18,7.45z"
    />
	<path
      class="st4"
      d="M33.2,16.98c0,0,0.77,3.52-3.03,3.55C30.18,20.53,29.54,17.12,33.2,16.98z"
    />
	<path
      class="st4"
      d="M47.1,18.78c0,0-0.49,2.66-3.14,1.58C43.96,20.36,44.52,17.81,47.1,18.78z"
    />
	<path
      class="st5"
      d="M37.24,5.98c0,0,0.91,2.55-1.92,2.94C35.32,8.92,34.52,6.44,37.24,5.98z"
    />
	<path
      class="st3"
      d="M31.03,3.47c0,0,1.57,2.2-1.04,3.35C29.98,6.83,28.53,4.66,31.03,3.47z"
    />
	<path
      class="st4"
      d="M20.62,3.54c0,0,2.61,0.72,1.3,3.26C21.92,6.8,19.43,6.03,20.62,3.54z"
    />
	<path
      class="st3"
      d="M14.4,6.11c0,0,2.71-0.06,2.19,2.75C16.59,8.86,13.98,8.84,14.4,6.11z"
    />
	<path
      class="st1"
      d="M7.07,12.37c0,0,2.51-1.02,3.02,1.79C10.09,14.17,7.64,15.07,7.07,12.37z"
    />
	<path
      class="st4"
      d="M4.36,18.94c0,0,2.34-1.36,3.24,1.35C7.6,20.3,5.31,21.54,4.36,18.94z"
    />
	<path
      class="st5"
      d="M44.17,12.47c0,0-0.22,2.27-2.52,1.55C41.65,14.02,41.93,11.84,44.17,12.47z"
    />
	<path
      class="st10"
      d="M6.74,28.83c0,0-0.56,2.21-2.72,1.16C4.02,29.99,4.62,27.88,6.74,28.83z"
    />
	<path
      class="st4"
      d="M21.24,29.35c0,0,0.07,2.28-2.29,1.86C18.95,31.21,18.94,29.02,21.24,29.35z"
    />
	<path
      class="st10"
      d="M15.76,40.9c0,0,0.07,2.28-2.29,1.86C13.47,42.76,13.46,40.57,15.76,40.9z"
    />
	<path
      class="st4"
      d="M9.22,34.39c0,0-0.19,2.57-2.81,1.82C6.42,36.21,6.68,33.74,9.22,34.39z"
    />
	<path
      class="st10"
      d="M45.04,36c0,0-2.15,0.76-2.47-1.62C42.56,34.38,44.65,33.71,45.04,36z"
    />
	<path
      class="st5"
      d="M37.07,43.59c0,0-2.64,0.42-2.51-2.39C34.56,41.19,37.11,40.86,37.07,43.59z"
    />
	<path
      class="st10"
      d="M37.57,26.98c0,0-2.11,0.87-2.55-1.49C35.02,25.49,37.07,24.71,37.57,26.98z"
    />
	<path
      class="st5"
      d="M21.19,20.47c0,0-3.58,0.33-3.15-3.44C18.04,17.03,21.5,16.82,21.19,20.47z"
    />
	<path
      class="st4"
      d="M15.53,26.29c0,0,1.91-3.33,4.94-0.65C20.47,25.64,18.53,28.8,15.53,26.29z"
    />
	<path
      class="st1"
      d="M26.06,17.14c0,0-2.71-2.72,0.68-4.94C26.74,12.2,29.28,14.9,26.06,17.14z"
    />
	<path
      class="st10"
      d="M10.42,8.29c0,0,6.34-0.42,5.93,6.31C16.35,14.6,10.22,14.82,10.42,8.29z"
    />
	<g>
		<path
        class="st6"
        d="M9.59,40.53c0,0-0.92-6.04,5.51-5.7C15.1,34.83,15.82,40.67,9.59,40.53z"
      />
		<path
        class="st6"
        d="M47.19,29.66c0,0-1.94,1.19-2.75-1.08C44.44,28.58,46.35,27.5,47.19,29.66z"
      />
		<path
        class="st6"
        d="M33.78,33.69c0,0-2.15,0.76-2.47-1.62C31.3,32.07,33.39,31.4,33.78,33.69z"
      />
		<path
        class="st6"
        d="M25.5,2.59c0,0,4.56,3.97-0.23,8.23C25.27,10.82,20.99,6.85,25.5,2.59z"
      />
	</g>
	<path
      class="st1"
      d="M48.04,24.68c0,0-3.67,4.8-8.23,0.3C39.81,24.98,43.49,20.45,48.04,24.68z"
    />
	<path
      class="st10"
      d="M42.38,40.63c0,0-5.99,0.83-6.05-5.58C36.32,35.05,42.12,34.42,42.38,40.63z"
    />
	<path
      class="st3"
      d="M42.64,31.24c0,0-3.98,1.76-5.29-2.66C37.34,28.59,41.23,27,42.64,31.24z"
    />
	<path
      class="st2"
      d="M42.34,16.2c0,0-0.27,5.15-5.65,4.18C36.69,20.38,37.1,15.42,42.34,16.2z"
    />
	<path
      class="st1"
      d="M41.11,8.47c0,0,0.98,5.96-5.42,6.2C35.69,14.67,34.91,8.89,41.11,8.47z"
    />
</g>
</svg>
