<?xml version="1.0" encoding="utf-8"?>
<!-- Generator: Adobe Illustrator 24.2.3, SVG Export Plug-In . SVG Version: 6.00 Build 0)  -->
<svg version="1.1" id="Capa_1" xmlns="http://www.w3.org/2000/svg" xmlns:xlink="http://www.w3.org/1999/xlink" x="0px" y="0px"
	 viewBox="0 0 200 200" style="enable-background:new 0 0 200 200;" xml:space="preserve">
<style type="text/css">
	.st0{fill:#FFFFFF;}
</style>
<g>
	<g id="XMLID_1_">
		<g>
			<path class="st0" d="M100.47,42.74c31.8,0.08,57.63,26.02,57.57,57.8c-0.07,31.92-25.99,57.75-57.88,57.67
				c-31.77-0.08-57.65-26.04-57.6-57.81C42.59,68.55,68.6,42.66,100.47,42.74z M53.54,100.5c0.01,26.07,20.67,46.69,46.7,46.74
				c26.16,0.05,46.63-20.81,46.89-46.79c-0.03-25.66-21.03-46.85-46.75-46.76C74.35,53.77,53.53,74.29,53.54,100.5z"/>
			<path class="st0" d="M89.96,70c7.11-4.73,15.77-4.43,22.57,1.57c5.58,4.93,8.62,14.04,3.25,23.49
				c11.09,6.07,15.01,15.81,14.03,28.13c-19.61,0-39.17,0-58.87,0c-0.9-8.51,0.28-20.44,13.83-28.19
				c-2.88-4.98-3.7-10.24-1.81-15.79C84.27,75.36,86.61,72.23,89.96,70z M92.96,85.1c0,4.11,3.26,7.4,7.33,7.39
				c4.07-0.01,7.31-3.31,7.3-7.43c-0.02-4.03-3.2-7.23-7.24-7.28C96.25,77.73,92.97,80.99,92.96,85.1z M117.79,112.22
				c-2.5-4.92-6.08-7.96-11.31-8.49c-3.47-0.35-7-0.32-10.51-0.24c-4.3,0.1-8.01,1.71-10.82,5.06c-0.88,1.05-1.52,2.31-2.41,3.67
				C94.65,112.22,106.05,112.22,117.79,112.22z"/>
			<path class="st0" d="M33.24,116.81c1.54,5.99,3.6,11.82,6.88,17.06c1.54,2.46,1.34,4.12-0.34,6.31
				c-2.42,3.13-4.48,6.54-6.52,9.57c5.74,5.72,11.29,11.27,16.93,16.88c3.71-2.49,7.58-5.07,11.42-7.7
				c0.82-0.56,1.44-0.77,2.42-0.18c6.02,3.66,12.48,6.32,19.3,8.05c1.2,0.3,1.49,0.95,1.68,1.97c0.85,4.55,1.75,9.1,2.63,13.66
				c8.01,0,15.91,0,23.83,0c0.89-4.66,1.79-9.21,2.63-13.78c0.2-1.1,0.67-1.6,1.79-1.89c5.99-1.54,11.82-3.6,17.06-6.88
				c2.46-1.54,4.12-1.35,6.31,0.34c3.13,2.42,6.54,4.48,9.58,6.53c5.72-5.74,11.26-11.3,16.87-16.94c-2.49-3.7-5.07-7.57-7.7-11.41
				c-0.56-0.82-0.77-1.44-0.18-2.42c3.66-6.02,6.32-12.48,8.05-19.3c0.3-1.2,0.95-1.49,1.97-1.69c4.55-0.85,9.1-1.75,13.66-2.63
				c0-8.01,0-15.91,0-23.83c-4.66-0.9-9.21-1.8-13.78-2.63c-1.1-0.2-1.6-0.68-1.89-1.8c-1.54-5.98-3.6-11.81-6.88-17.05
				c-1.54-2.46-1.35-4.13,0.34-6.31c2.42-3.13,4.48-6.54,6.53-9.58c-5.74-5.72-11.3-11.25-16.94-16.87
				c-3.7,2.49-7.57,5.07-11.41,7.69c-0.82,0.56-1.44,0.77-2.42,0.18c-6.02-3.66-12.48-6.32-19.3-8.05c-1.2-0.3-1.5-0.95-1.69-1.97
				c-0.85-4.55-1.75-9.1-2.63-13.66c-8.01,0-15.91,0-23.83,0c-0.9,4.66-1.8,9.21-2.63,13.78c-0.2,1.1-0.68,1.6-1.8,1.88
				c-5.98,1.54-11.81,3.6-17.05,6.88c-2.46,1.54-4.13,1.34-6.31-0.34c-3.13-2.42-6.54-4.48-9.73-6.63
				c-5.65,5.68-11.16,11.21-16.82,16.89c2.59,3.85,5.17,7.72,7.79,11.56c0.56,0.82,0.77,1.44,0.18,2.42
				c-3.66,6.02-6.32,12.48-8.05,19.3c-0.3,1.2-0.95,1.49-1.97,1.68c-4.55,0.85-9.1,1.75-13.66,2.63c0,8.01,0,15.91,0,23.83
				c4.65,0.9,9.21,1.8,13.78,2.63C32.45,115.22,32.96,115.69,33.24,116.81z M192.51,79.41c0,14.04,0,28.08,0,42.12
				c-5.57,1.06-11.14,2.1-16.69,3.22c-0.49,0.1-1.02,0.74-1.25,1.26c-1.25,2.87-2.3,5.84-3.66,8.66c-0.69,1.44-0.63,2.42,0.29,3.73
				c3.02,4.28,5.9,8.68,8.66,12.79c-9.94,10-19.74,19.85-29.62,29.78c-4.43-2.98-8.96-5.99-13.43-9.08
				c-0.92-0.64-1.65-0.75-2.64-0.24c-1.56,0.8-3.11,1.82-4.78,2.12c-4.69,0.84-6.35,3.68-6.73,8.17c-0.33,3.85-1.43,7.64-2.16,11.36
				c-14.14,0-28.03,0-41.94,0c-1.01-5.2-2.03-10.29-2.95-15.4c-0.26-1.44-0.81-2.25-2.3-2.76c-2.79-0.95-5.5-2.17-8.18-3.41
				c-1.21-0.56-2.12-0.68-3.26,0.22c-1.66,1.31-3.48,2.39-5.24,3.57c-2.7,1.81-5.39,3.62-7.76,5.21
				c-10.03-9.98-19.88-19.78-29.8-29.65c2.91-4.3,5.85-8.73,8.89-13.08c0.81-1.15,0.82-2.04,0.22-3.28
				c-1.24-2.61-2.4-5.28-3.32-8.02c-0.5-1.49-1.31-2.04-2.76-2.3c-5.15-0.93-10.28-1.97-15.44-2.97c0-14.04,0-27.94,0-41.95
				c5.2-1.01,10.34-2.03,15.49-2.97c1.36-0.25,2.17-0.71,2.68-2.16c1.05-3.02,2.47-5.89,3.6-8.88c0.25-0.64,0.19-1.66-0.17-2.22
				c-2.01-3.17-4.16-6.24-6.25-9.35c-1-1.48-1.99-2.97-2.7-4.05c10.01-10.07,19.81-19.92,29.66-29.82c4.38,2.96,8.87,6.03,13.43,9
				c0.57,0.38,1.61,0.5,2.24,0.26c3.21-1.21,6.38-2.56,9.53-3.93c0.46-0.2,1.01-0.72,1.1-1.17c1.12-5.56,2.16-11.13,3.22-16.7
				c14.04,0,28.08,0,42.12,0c1.06,5.57,2.09,11.13,3.22,16.68c0.1,0.49,0.74,1.03,1.25,1.26c2.98,1.31,6.03,2.46,8.99,3.81
				c1.17,0.53,1.99,0.53,3.09-0.24c4.4-3.07,8.89-6.02,12.97-8.76c10.03,9.98,19.92,19.81,29.84,29.68c-2.95,4.37-6.03,8.86-9,13.41
				c-0.37,0.57-0.49,1.61-0.25,2.24c1.19,3.16,2.51,6.27,3.86,9.36c0.23,0.51,0.76,1.15,1.25,1.25
				C181.38,77.32,186.95,78.35,192.51,79.41z"/>
		</g>
		<g>
		</g>
	</g>
</g>
</svg>
