<?xml version="1.0" encoding="utf-8"?>
<!-- Generator: Adobe Illustrator 24.2.3, SVG Export Plug-In . SVG Version: 6.00 Build 0)  -->
<svg version="1.1" id="Capa_1" xmlns="http://www.w3.org/2000/svg" xmlns:xlink="http://www.w3.org/1999/xlink" x="0px" y="0px"
	 viewBox="0 0 200 200" style="enable-background:new 0 0 200 200;" xml:space="preserve">
<style type="text/css">
	.st0{fill:#FFFFFF;}
</style>
<g>
	<g id="XMLID_1_">
		<g>
			<path class="st0" d="M145.76,94.35c-0.04,6.65,5.3,12.03,11.96,12.07c6.49,0.04,11.99-5.35,12.09-11.83
				c0.1-6.52-5.4-12.02-12.04-12.05C151.17,82.52,145.79,87.8,145.76,94.35z M31.22,60.11c5.07,23.81,28.72,38.4,52.5,32.44
				c17.11-4.28,30.32-19.22,31.58-36.72c0.72-10.03,0.29-20.14,0.36-30.21c0-0.11-0.09-0.23-0.22-0.55c-2.25,0-4.59-0.06-6.92,0.06
				c-0.42,0.02-1.05,0.78-1.15,1.28c-0.82,4.06-3.76,6.38-7.83,6.06c-3.67-0.29-6.31-3.23-6.35-7.19c-0.04-4.35,0.16-8.7-0.06-13.03
				c-0.22-4.29,1.35-7.28,5.4-8.9c1.15,0,2.29,0,3.43,0c3.35,1.31,5.45,3.57,5.52,7.43c0.74,0.04,1.35,0.1,1.96,0.1
				c4.19,0.01,8.38-0.01,12.57,0.01c5.16,0.02,8.01,2.8,8.03,7.94c0.04,10.27,0.03,20.53,0,30.8c-0.02,7.79-1.06,15.4-4.06,22.67
				c-6.23,15.09-16.93,25.81-32.19,31.83c-4.49,1.77-9.32,2.71-14.25,4.1c-0.01,0.05-0.08,0.42-0.08,0.8
				c0,13.04-0.09,26.08,0.02,39.11c0.15,16.39,12.54,30.91,28.75,33.92c18.81,3.49,36.83-8.03,41.29-26.57
				c0.72-2.96,0.91-6.1,0.95-9.16c0.13-8.25,0.01-16.5,0.08-24.75c0.01-1.4-0.35-2.08-1.76-2.58
				c-11.14-3.98-18.15-14.61-17.43-26.27c0.7-11.46,9.22-21.25,20.74-23.86c15.19-3.44,30.41,7.56,31.84,23.02
				c1.12,12.12-5.83,23.02-17.4,27.14c-1.4,0.5-1.75,1.17-1.74,2.58c0.07,8.88,0.1,17.76,0.01,26.64
				c-0.23,22.06-15.75,41.59-37.3,47.04c-4.2,1.07-8.41,1.57-12.53,1.57c-23.54,0-44.58-16.54-49.03-40.74
				c-0.61-3.32-0.83-6.76-0.85-10.13c-0.1-12.16-0.07-24.31,0-36.47c0.01-1.6-0.48-2.05-2.07-2.32
				c-10.09-1.72-19.07-5.91-26.85-12.51c-9.8-8.32-16.24-18.75-18.85-31.3c-0.87-4.22-1.27-8.59-1.35-12.91
				c-0.19-10.39,0.02-20.78-0.1-31.17c-0.06-5.07,3.02-8.76,8.56-8.47c4.42,0.23,8.88,0.05,13.49,0.05c0.14-3.7,2.15-6.05,5.34-7.54
				c1.27,0,2.54,0,3.81,0c3.02,1.44,5.27,3.48,5.3,7.08c0.04,5.04,0.07,10.07-0.01,15.11c-0.06,3.74-2.88,6.67-6.46,6.93
				c-3.9,0.29-6.87-1.94-7.7-5.77c-0.11-0.53-0.27-1.05-0.39-1.54c-2.54,0-4.94,0-7.41,0c-0.04,0.53-0.1,0.95-0.1,1.38
				c0,8.56-0.07,17.13,0.04,25.69C30.41,54.87,30.68,57.54,31.22,60.11z"/>
		</g>
		<g>
		</g>
	</g>
</g>
</svg>
