<?xml version="1.0" encoding="utf-8"?>
<!-- Generator: Adobe Illustrator 25.4.1, SVG Export Plug-In . SVG Version: 6.00 Build 0)  -->
<svg version="1.1" id="Capa_1" xmlns="http://www.w3.org/2000/svg" xmlns:xlink="http://www.w3.org/1999/xlink" x="0px" y="0px"
	 viewBox="0 0 60 60" style="enable-background:new 0 0 60 60;" xml:space="preserve">
<style type="text/css">
	.st0{fill:#214B9A;stroke:#214B9A;stroke-width:2;stroke-miterlimit:10;}
	.st1{fill:#FFFFFF;}
	.st2{fill:#214B9A;}
</style>
<g id="XMLID_00000047775240813493387730000009248930806054298017_">
	<g>
		<path class="st0" d="M30.1,1.6c15.7,0,28.4,12.7,28.4,28.5c0,15.7-12.8,28.5-28.5,28.4C14.3,58.5,1.5,45.7,1.6,30
			C1.6,14.3,14.4,1.5,30.1,1.6z M30,53.5c13,0,23.6-10.6,23.6-23.6S43,6.3,30,6.3C17,6.5,6.5,17,6.5,30C6.4,43,17,53.5,30,53.5z"/>
		<path class="st1" d="M53.6,30C53.6,43,43,53.6,30,53.6S6.4,43,6.4,30S17,6.5,30,6.4C43,6.4,53.6,17,53.6,30z M44.5,34.5
			c0-3,0-5.9,0-8.9c0-0.9-0.4-1.4-1.4-1.4c-2.2,0-4.4,0-6.5,0c-0.2,0-0.5,0-0.7,0c0-2.5,0-4.8,0-7.2c0-1.1-0.4-1.5-1.5-1.5
			c-2.9,0-5.7,0-8.6,0c-1.1,0-1.5,0.4-1.5,1.5c0,2.2,0,4.4,0,6.6c0,0.2,0,0.4,0,0.6c-2.5,0-4.8,0-7.2,0c-1.1,0-1.5,0.4-1.5,1.5
			c0,2.9,0,5.7,0,8.6c0,1.1,0.4,1.5,1.5,1.5c2.2,0,4.4,0,6.6,0c0.2,0,0.4,0,0.6,0c0,2.5,0,4.8,0,7.2c0,1.1,0.4,1.5,1.5,1.5
			c2.9,0,5.7,0,8.6,0c1.1,0,1.5-0.4,1.5-1.5c0-2.2,0-4.4,0-6.6c0-0.2,0-0.4,0-0.6c2.5,0,4.9,0,7.3,0C44.1,35.8,44.5,35.3,44.5,34.5z
			"/>
		<path class="st2" d="M44.5,25.6c0,3,0,5.9,0,8.9c0,0.9-0.4,1.3-1.4,1.3c-2.4,0-4.8,0-7.3,0c0,0.2,0,0.4,0,0.6c0,2.2,0,4.4,0,6.6
			c0,1.1-0.4,1.5-1.5,1.5c-2.9,0-5.7,0-8.6,0c-1.1,0-1.5-0.4-1.5-1.5c0-2.4,0-4.7,0-7.2c-0.2,0-0.4,0-0.6,0c-2.2,0-4.4,0-6.6,0
			c-1.1,0-1.5-0.4-1.5-1.5c0-2.9,0-5.7,0-8.6c0-1.1,0.4-1.5,1.5-1.5c2.4,0,4.7,0,7.2,0c0-0.2,0-0.4,0-0.6c0-2.2,0-4.4,0-6.6
			c0-1.1,0.4-1.5,1.5-1.5c2.9,0,5.7,0,8.6,0c1.1,0,1.5,0.4,1.5,1.5c0,2.4,0,4.7,0,7.2c0.3,0,0.5,0,0.7,0c2.2,0,4.4,0,6.5,0
			C44.1,24.3,44.5,24.7,44.5,25.6z"/>
	</g>
</g>
</svg>
