<?xml version="1.0" encoding="utf-8"?>
<!-- Generator: Adobe Illustrator 25.4.1, SVG Export Plug-In . SVG Version: 6.00 Build 0)  -->
<svg version="1.1" id="Capa_1" xmlns="http://www.w3.org/2000/svg" xmlns:xlink="http://www.w3.org/1999/xlink" x="0px" y="0px"
	 viewBox="0 0 60 60" style="enable-background:new 0 0 60 60;" xml:space="preserve">
<style type="text/css">
	.st0{fill:#214B9A;stroke:#214B9A;stroke-width:2;stroke-miterlimit:10;}
	.st1{fill:#FFFFFF;stroke:#214B9A;stroke-width:2;stroke-miterlimit:10;}
</style>
<path class="st0" d="M52,15.8c0,12.5,0,25.2,0,37.7c0,3.1-2.4,5.5-5.5,5.5c-5.4,0-10.8,0-16.2,0s-10.8,0-16.2,0
	c-3.1,0-5.5-2.4-5.5-5.5c0-12.5,0-25.2,0-37.7c0-3.1,2.4-5.5,5.5-5.5c1.2,0,2.3,0,3.4,0c0-0.1,0.1-0.1,0.1-0.1
	C18,8,19.4,6.7,21.7,6.7c0.6,0,1.1,0,1.7,0c0.1-0.1,0.2-0.2,0.2-0.3c1-2.7,2.8-4.4,5.8-5c0.1,0,0.2-0.1,0.3-0.1c0.6,0,1.2,0,1.8,0
	c0.3,0.1,0.7,0.2,1,0.3c2.5,0.8,4.1,2.4,4.9,4.7c0.1,0.1,0.1,0.3,0.2,0.5c0.6,0,1.1,0,1.6,0c2.4,0,3.7,1.2,4,3.6c1.2,0,2.5,0,3.6,0
	c2.4,0,4.3,1.5,5,3.6C51.9,14.5,52,15.2,52,15.8z M48.5,16.1c0-0.2,0-0.3,0-0.5c0-0.8-0.6-1.7-1.4-1.7c-1.3-0.1-2.6,0-4,0
	c0,0.6,0,1.2,0,1.8c0,2.1-1.6,3.6-3.6,3.6c-6,0-12,0-18,0c-2.1,0-3.6-1.6-3.6-3.6c0-0.6,0-1.1,0-1.8c-1.1,0-2.2,0-3.1,0
	c-1.6,0-2.3,0.7-2.3,2.3c0,12.3,0,24.7,0,37.1c0,1.6,0.7,2.2,2.2,2.2c10.6,0,21.2,0,31.7,0c1.6,0,2.3-0.7,2.3-2.3
	C48.5,40.9,48.5,28.4,48.5,16.1z M39.5,15.7c0-0.9,0-1.8,0-2.6c0-0.9,0-1.8,0-2.6c-1.2,0-2.3,0-3.3,0c-1.3,0-2-0.7-2.1-2
	c-0.1-1.4-0.7-2.5-2-3c-2.4-1.3-5.2,0.4-5.3,3c0,1-0.6,1.8-1.6,1.9c-0.3,0-0.7,0-1,0c-1,0-2,0-2.9,0c0,1.9,0,3.6,0,5.4
	C27.4,15.7,33.4,15.7,39.5,15.7z"/>
<path class="st1" d="M39.5,13c0,0.9,0,1.8,0,2.6c-6,0-12,0-18,0c0-1.8,0-3.5,0-5.4c1,0,2,0,2.9,0c0.3,0,0.7,0,1,0
	c0.9-0.1,1.5-0.9,1.6-1.9c0.1-2.7,2.9-4.3,5.3-3c1.2,0.7,1.9,1.7,2,3c0.1,1.3,0.8,2,2.1,2c1.1,0,2.3,0,3.3,0
	C39.5,11.2,39.5,12.1,39.5,13z"/>
</svg>
