<?xml version="1.0" encoding="utf-8"?>
<!-- Generator: Adobe Illustrator 25.4.1, SVG Export Plug-In . SVG Version: 6.00 Build 0)  -->
<svg version="1.1" id="Capa_1" xmlns="http://www.w3.org/2000/svg" xmlns:xlink="http://www.w3.org/1999/xlink" x="0px" y="0px"
	 viewBox="0 0 60 60" style="enable-background:new 0 0 60 60;" xml:space="preserve">
<style type="text/css">
	.st0{fill:#1A49A3;}
	.st1{fill:none;stroke:#1A49A3;stroke-width:0.5;stroke-miterlimit:10;}
	.st2{fill:#FFFFFF;stroke:#FFFFFF;stroke-width:0.5;stroke-miterlimit:10;}
</style>
<g>
	<g id="XMLID_00000021093658853686623950000013762865436121533864_">
		<g>
			<path class="st0" d="M56,36.6c0.5,4.3-1.9,8.3-6,9.9c-0.4,0.1-0.6,0.3-0.8,0.8c-2.4,7.8-9.6,12.7-17.8,12.1
				c-7.9-0.6-14.5-7.1-15.3-14.9C16,43.5,16,42.7,16,41.9c0-1.4,0-2.9,0-4.3c-1.2-0.4-2.4-0.6-3.5-1.1c-7.2-2.7-11.9-9.4-12-17.2
				c-0.1-5.1,0-10.2,0-15.3c0-2,1.3-3.3,3.3-3.3c3,0,6,0,9,0c0,2.1,0,4.1,0,6.2c-2,0-4,0-6.1,0c0,0.3,0,0.6,0,0.8
				c0,3.8,0,7.6,0,11.3c0,6.4,4.4,11.5,10.8,12.5c6.7,1,13.4-4.2,13.7-11c0.3-4.4,0.1-8.9,0.1-13.4c0,0,0-0.1-0.1-0.2c-2,0-4,0-6,0
				c0-2.1,0-4.1,0-6.2c0.2,0,0.4,0,0.6,0c2.8,0,5.5,0,8.3,0c2,0,3.3,1.2,3.3,3.3c0,5.1,0.1,10.3,0,15.4c-0.1,8.9-6.1,16.1-14.7,18
				c-0.2,0-0.4,0.1-0.7,0.2c0.2,2.7-0.3,5.4,0.5,8c1.3,4.4,5.1,7.3,9.8,7.7c4.2,0.3,8.5-2.3,10.3-6.3c0.1-0.2,0.2-0.4,0.3-0.7
				c-1.8-0.9-3.2-2.1-4.2-3.8c-1.9-3.2-1.6-7.3,0.6-10.3c2.3-3,6.1-4.3,9.8-3.3C52.8,29.7,55.5,32.9,56,36.6z M46.8,40.8
				c1.7,0,3.1-1.4,3.1-3.1c0-1.7-1.4-3.1-3.1-3.1c-1.7,0-3.1,1.4-3.1,3.1C43.7,39.4,45.1,40.8,46.8,40.8z"/>
		</g>
		<g>
			<path class="st1" d="M22.1,37.5c0.2,2.7-0.3,5.4,0.5,8c1.3,4.4,5.1,7.3,9.8,7.7c4.2,0.3,8.5-2.3,10.3-6.3
				c0.1-0.2,0.2-0.4,0.3-0.7c-1.8-0.9-3.2-2.1-4.2-3.8c-1.9-3.2-1.6-7.3,0.6-10.3c2.3-3,6.1-4.3,9.8-3.3c3.6,1,6.3,4.1,6.7,7.8
				c0.5,4.3-1.9,8.3-6,9.9c-0.4,0.1-0.6,0.3-0.8,0.8c-2.4,7.8-9.6,12.7-17.8,12.1c-7.9-0.6-14.5-7.1-15.3-14.9
				C16,43.5,16,42.7,16,41.9c0-1.4,0-2.9,0-4.3c-1.2-0.4-2.4-0.6-3.5-1.1c-7.2-2.7-11.9-9.4-12-17.2c-0.1-5.1,0-10.2,0-15.3
				c0-2,1.3-3.3,3.3-3.3c3,0,6,0,9,0c0,2.1,0,4.1,0,6.2c-2,0-4,0-6.1,0c0,0.3,0,0.6,0,0.8c0,3.8,0,7.6,0,11.3
				c0,6.4,4.4,11.5,10.8,12.5c6.7,1,13.4-4.2,13.7-11c0.3-4.4,0.1-8.9,0.1-13.4c0,0,0-0.1-0.1-0.2c-2,0-4,0-6,0c0-2.1,0-4.1,0-6.2
				c0.2,0,0.4,0,0.6,0c2.8,0,5.5,0,8.3,0c2,0,3.3,1.2,3.3,3.3c0,5.1,0.1,10.3,0,15.4c-0.1,8.9-6.1,16.1-14.7,18
				C22.6,37.4,22.4,37.4,22.1,37.5z"/>
			<path class="st1" d="M46.8,40.8c-1.7,0-3.1-1.4-3.1-3.1c0-1.7,1.4-3.1,3.1-3.1c1.7,0,3.1,1.4,3.1,3.1
				C49.9,39.4,48.5,40.8,46.8,40.8z"/>
		</g>
	</g>
</g>
<circle class="st2" cx="46.9" cy="37.5" r="3.7"/>
</svg>
