<?xml version="1.0" encoding="utf-8"?>
<!-- Generator: Adobe Illustrator 25.4.1, SVG Export Plug-In . SVG Version: 6.00 Build 0)  -->
<svg version="1.1" id="Capa_1" xmlns="http://www.w3.org/2000/svg" xmlns:xlink="http://www.w3.org/1999/xlink" x="0px" y="0px"
	 viewBox="0 0 60 60" style="enable-background:new 0 0 60 60;" xml:space="preserve">
<style type="text/css">
	.st0{fill:#214B9A;}
</style>
<path class="st0" d="M38.2,36.6c-5.1,0-10.3,0-15.4,0c-2.6,0-4.6-1.5-5.3-3.7c-1-3.4,1.4-6.6,5-6.7c0.7,0,1.5,0,2.2,0
	c9.6,0,19.2,0,28.9,0c2.5,0,4.4,1.3,5.2,3.4c1.3,3.5-1.3,7-5.1,7C48.5,36.6,43.3,36.6,38.2,36.6z"/>
<path class="st0" d="M38.2,13.3c-5.1,0-10.3,0-15.4,0c-2.7,0-4.7-1.5-5.3-4c-0.8-3.2,1.6-6.4,4.9-6.5c1.9,0,3.9,0,5.8,0
	c8.5,0,17,0,25.6,0c2.6,0,4.7,1.6,5.3,4c0.8,3.2-1.5,6.4-4.8,6.4C48.8,13.3,43.5,13.3,38.2,13.3C38.2,13.3,38.2,13.3,38.2,13.3z"/>
<path class="st0" d="M38.2,47.5c5.1,0,10.3,0,15.4,0c2.7,0,4.7,1.5,5.3,4c0.8,3.2-1.5,6.3-4.8,6.5c-0.1,0-0.1,0-0.2,0
	c-10.5,0-21,0-31.6,0c-2.4,0-4.4-1.6-5-4c-0.8-3.2,1.5-6.4,4.8-6.5C27.6,47.4,32.9,47.5,38.2,47.5C38.2,47.5,38.2,47.5,38.2,47.5z"
	/>
<path class="st0" d="M1.6,31.4c0-2.9,2.3-5.2,5.2-5.2c2.9,0,5.3,2.4,5.3,5.3c0,2.9-2.4,5.2-5.2,5.2C3.9,36.6,1.6,34.2,1.6,31.4z"/>
<path class="st0" d="M6.8,13.3c-2.9,0-5.2-2.4-5.2-5.2c0-2.9,2.4-5.2,5.3-5.2c2.9,0,5.2,2.4,5.2,5.3C12,11,9.7,13.3,6.8,13.3z"/>
<path class="st0" d="M6.8,57.9c-2.9,0-5.2-2.4-5.2-5.2c0-2.9,2.4-5.2,5.2-5.2c2.9,0,5.3,2.4,5.2,5.3C12,55.6,9.6,57.9,6.8,57.9z"/>
</svg>
