<?xml version="1.0" encoding="utf-8"?>
<!-- Generator: Adobe Illustrator 25.4.1, SVG Export Plug-In . SVG Version: 6.00 Build 0)  -->
<svg version="1.1" id="Capa_1" xmlns="http://www.w3.org/2000/svg" xmlns:xlink="http://www.w3.org/1999/xlink" x="0px" y="0px"
	 viewBox="0 0 60 60" style="enable-background:new 0 0 60 60;" xml:space="preserve">
<style type="text/css">
	.st0{fill:#214B9A;}
	.st1{fill:#FFFFFF;}
</style>
<g id="XMLID_00000152978210570552903320000006025303222412454071_">
	<g>
		<path class="st0" d="M52.3,6.8c8.4,8.3,8.6,21.8,0.4,30.4c-4.9,5.1-9.9,10.2-15.1,15.1c-6.8,6.3-14.9,7.8-23.4,4.2
			C5.6,52.8,1.5,45.8,1,37.8c0.1-7,2-12,6.1-16.2c4.9-5,9.9-10,14.9-14.9C30.5-1.5,43.9-1.5,52.3,6.8z M46.9,29.8
			c3.6-4.4,3.5-10.8,0-15.3c-3.6-4.6-9.7-6.1-15-3.7c-3.2,1.4-5.2,4.2-7.5,6.3c5.9,5.9,11.8,11.8,17.7,17.7
			C43.7,33.2,45.5,31.6,46.9,29.8z M30.6,46.2c1.7-1.4,3.1-3.2,4.6-4.8c-5.8-5.7-11.6-11.5-17.6-17.5c-1.8,1.9-3.8,3.7-5.3,5.9
			c-3.6,5-2.6,12,2,16.1C18.9,50,25.9,50.2,30.6,46.2z"/>
		<path class="st1" d="M47,14.5c3.5,4.5,3.5,10.9,0,15.3c-1.5,1.8-3.2,3.4-4.8,5.1c-5.9-6-11.8-11.8-17.7-17.7
			c2.4-2.1,4.4-4.9,7.5-6.3C37.3,8.4,43.4,9.9,47,14.5z"/>
		<path class="st1" d="M35.1,41.4c-1.5,1.6-2.9,3.4-4.6,4.8c-4.7,4-11.7,3.8-16.3-0.3c-4.6-4.2-5.6-11.1-2-16.1
			c1.5-2.2,3.6-4,5.3-5.9C23.6,29.9,29.4,35.7,35.1,41.4z"/>
	</g>
	<g>
	</g>
</g>
</svg>
