<?xml version="1.0" encoding="utf-8"?>
<!-- Generator: Adobe Illustrator 25.4.1, SVG Export Plug-In . SVG Version: 6.00 Build 0)  -->
<svg version="1.1" id="Capa_1" xmlns="http://www.w3.org/2000/svg" xmlns:xlink="http://www.w3.org/1999/xlink" x="0px" y="0px"
	 viewBox="0 0 60 60" style="enable-background:new 0 0 60 60;" xml:space="preserve">
<style type="text/css">
	.st0{fill:none;}
	.st1{fill:#214B9A;}
	.st2{fill:#FFFFFF;}
</style>
<path class="st0" d="M45.4,15.7c-1.7-2.1-4-3.5-6.6-3.9c-2.1-0.3-4.2-0.1-6.1,0.8c-2,0.9-3.5,2.4-5,4c-0.2,0.2-0.3,0.3-0.5,0.5
	L42.2,32c0.1-0.1,0.1-0.2,0.2-0.2c1.1-1.1,2.1-2.2,3.1-3.3C48.4,24.9,48.3,19.5,45.4,15.7z"/>
<path class="st0" d="M17.6,26.7c-0.1,0.1-0.3,0.3-0.4,0.5c-1.2,1.2-2.4,2.4-3.3,3.7c-3,4.1-2.2,9.9,1.7,13.5
	c1.9,1.7,4.3,2.6,6.9,2.7c2.6,0.1,5-0.8,6.9-2.4l0,0c1.1-0.9,2-2,3.1-3.1c0,0,0,0,0.1-0.1C27.5,36.7,22.7,31.8,17.6,26.7L17.6,26.7
	L17.6,26.7z"/>
<path class="st1" d="M50.9,8.2c-7.6-7.6-19.7-7.6-27.5-0.1C18.4,13,13.4,18,8.5,23C4.8,26.8,3.1,31.4,3,37.8
	c0.4,5.5,2.7,12.9,12,16.9c7.7,3.3,15,1.9,21.2-3.8c5.5-5.1,10.7-10.5,15-15C58.6,28.1,58.5,15.7,50.9,8.2z M36.7,42.8
	c-0.4,0.5-0.9,0.9-1.3,1.4c-1.1,1.2-2.2,2.5-3.5,3.5c-2.6,2.2-5.8,3.4-9.2,3.4c-0.1,0-0.2,0-0.3,0c-3.5-0.1-6.9-1.4-9.5-3.7
	c-5.4-5-6.4-13-2.3-18.8c1.1-1.6,2.4-2.9,3.7-4.2c0.6-0.6,1.2-1.2,1.7-1.8l1.4-1.6l0.1,0.1l1.6,1.5c6,6,11.7,11.7,17.5,17.4l1.4,1.4
	L36.7,42.8z M48.6,31L48.6,31c-1.1,1.3-2.2,2.5-3.3,3.6c-0.5,0.5-1.1,1.1-1.6,1.7l-1.4,1.5l-1.5-1.6L21.5,17l1.6-1.4
	c0.6-0.5,1.2-1.1,1.8-1.8c1.7-1.7,3.6-3.7,6.3-4.9c2.6-1.2,5.5-1.6,8.3-1.1c3.6,0.5,6.8,2.5,9.1,5.4C52.6,18.5,52.6,25.9,48.6,31z"
	/>
<path class="st2" d="M47,14.5c-2-2.6-4.9-4.2-7.9-4.7c-2.4-0.4-4.9-0.1-7.2,1c-3.2,1.4-5.2,4.2-7.5,6.3c0,0,0.1,0.1,0.1,0.1h0
	c0,0,0,0,0,0c5.9,5.9,11.7,11.7,17.6,17.6c0,0,0,0,0,0c0,0,0.1,0.1,0.1,0.1c1.6-1.7,3.3-3.3,4.8-5.1C50.5,25.4,50.5,19,47,14.5z
	 M45.4,28.5c-0.9,1.1-2,2.2-3.1,3.3c-0.1,0.1-0.1,0.2-0.2,0.2L27.2,17.1c0.2-0.2,0.3-0.3,0.5-0.5c1.6-1.6,3-3.1,5-4
	c1.9-0.9,4-1.2,6.1-0.8c2.6,0.4,4.9,1.8,6.6,3.9C48.3,19.5,48.4,24.9,45.4,28.5z"/>
<path class="st2" d="M17.6,24C17.5,23.9,17.5,23.9,17.6,24c-1.8,1.8-3.9,3.6-5.4,5.8c-3.6,5-2.6,11.9,2,16.1
	c2.3,2.1,5.2,3.1,8.2,3.2c2.9,0.1,5.9-0.9,8.2-2.9c1.7-1.4,3.1-3.2,4.6-4.8C29.4,35.7,23.6,29.9,17.6,24
	C17.6,23.9,17.6,23.9,17.6,24z M32.4,41.5C32.4,41.5,32.4,41.5,32.4,41.5c-1.1,1.2-2,2.3-3.1,3.2l0,0c-1.9,1.6-4.3,2.5-6.9,2.4
	c-2.5,0-5-1-6.9-2.7c-3.9-3.6-4.7-9.4-1.7-13.5c0.9-1.3,2.1-2.5,3.3-3.7c0.1-0.2,0.3-0.3,0.4-0.5l0,0l0,0
	C22.7,31.8,27.5,36.7,32.4,41.5z"/>
<path class="st2" d="M19.1,22.6l-1.6-1.5L17.4,21L16,22.6c-0.5,0.6-1.1,1.2-1.7,1.8c-1.3,1.3-2.6,2.7-3.7,4.2
	c-4.1,5.7-3.2,13.8,2.3,18.8c2.6,2.3,6,3.6,9.5,3.7c0.1,0,0.2,0,0.3,0c3.4,0,6.6-1.2,9.2-3.4c1.3-1.1,2.4-2.3,3.5-3.5
	c0.4-0.5,0.9-1,1.3-1.4l1.3-1.4L36.6,40C30.8,34.3,25.1,28.6,19.1,22.6z M30.6,46.2c-2.4,2-5.3,3-8.2,2.9c-2.9,0-5.9-1.1-8.2-3.2
	c-4.6-4.2-5.6-11.1-2-16.1c1.5-2.2,3.6-4,5.3-5.9c0,0,0,0,0.1,0.1c0,0,0,0,0-0.1c6,6,11.8,11.8,17.6,17.5
	C33.7,43,32.3,44.8,30.6,46.2z"/>
<path class="st2" d="M48.6,13.3c-2.3-2.9-5.6-4.9-9.1-5.4c-2.8-0.5-5.7-0.1-8.3,1.1c-2.7,1.2-4.6,3.1-6.3,4.9
	c-0.6,0.6-1.2,1.2-1.8,1.8L21.5,17l19.2,19.2l1.5,1.6l1.4-1.5c0.5-0.6,1.1-1.1,1.6-1.7c1.1-1.1,2.2-2.3,3.3-3.5l0,0
	C52.6,25.9,52.6,18.5,48.6,13.3z M47,29.8c-1.5,1.8-3.2,3.4-4.8,5.1c0,0-0.1-0.1-0.1-0.1c0,0,0,0,0,0c-5.9-5.9-11.7-11.7-17.6-17.6
	c0,0,0,0,0,0h0c0,0-0.1-0.1-0.1-0.1c2.3-2.1,4.3-4.9,7.5-6.3c2.3-1.1,4.8-1.4,7.2-1c3,0.5,5.9,2.1,7.9,4.7
	C50.5,19,50.5,25.4,47,29.8z"/>
</svg>
