<svg id="Capa_1" data-name="Capa 1" xmlns="http://www.w3.org/2000/svg" viewBox="0 0 23.88 58.16"><defs><style>.cls-1{fill:#1a49a3;}.cls-2{fill:#fff;}.cls-3{fill:none;stroke:#1a49a3;stroke-miterlimit:10;}</style></defs><path class="cls-1" d="M40.77,21c.06,4.68,0,9.37,0,14.06a3.28,3.28,0,0,1-4.38,3.13l-.35-.1V53.69c0,2.73-.69,3.73-3.22,4.66H31.61l-2.22-1.07-2.25,1.07H25.91l-.19-.09a3.81,3.81,0,0,1-3-3.9q0-7.78,0-15.57v-.64a8.71,8.71,0,0,1-1.72.17A3.25,3.25,0,0,1,18,35c0-2.14,0-4.28,0-6.42,0-2.33.06-4.65,0-7a6.72,6.72,0,0,1,6.3-7,.83.83,0,0,0,.22,0,12.73,12.73,0,0,1-1.35-2.58c-.7-2.68-.85-5.39.79-7.84a6.58,6.58,0,0,1,7.37-2.61A6.68,6.68,0,0,1,36,7.67a10,10,0,0,1-.44,4.41,27.36,27.36,0,0,1-1.34,2.42c.38.05.84.09,1.29.19A6.54,6.54,0,0,1,40.77,21ZM38.89,34.63V21.51a6.21,6.21,0,0,0-.09-1.22A4.73,4.73,0,0,0,34,16.44c-3.05,0-6.11,0-9.16,0a5,5,0,0,0-1.16.11,4.72,4.72,0,0,0-3.77,4.8q0,6.69,0,13.4c0,.14,0,.29,0,.44a1.34,1.34,0,0,0,1,1.17,1.4,1.4,0,0,0,1.84-1.47c0-2.71,0-5.43,0-8.14,0-.88,0-1.75,0-2.63a1,1,0,1,1,1.9,0V54.06a4.4,4.4,0,0,0,.07.89,1.87,1.87,0,0,0,2.64,1.31,2,2,0,0,0,1.11-2c0-4.82,0-9.64,0-14.46a3.44,3.44,0,0,1,0-.72.85.85,0,0,1,.88-.71.87.87,0,0,1,.93.72,3.44,3.44,0,0,1,0,.72V54c0,.24,0,.49,0,.72a1.88,1.88,0,0,0,2.9,1.39,2.05,2.05,0,0,0,.9-1.92c0-5,0-9.93,0-14.9V24.59c0-.19,0-.38,0-.56A1,1,0,0,1,35,23.1a1,1,0,0,1,1,.8,3.18,3.18,0,0,1,0,.62v9.32c0,.44,0,.89,0,1.34a1.38,1.38,0,0,0,1.28,1.25,1.4,1.4,0,0,0,1.48-1A3.25,3.25,0,0,0,38.89,34.63ZM34,10.8a13.6,13.6,0,0,0,.07-3.55,4.72,4.72,0,0,0-9.13-1,16.91,16.91,0,0,0-.44,2.56l.09,0c0,.5,0,1,.07,1.5a4.71,4.71,0,0,0,4.46,4.22A4.63,4.63,0,0,0,34,10.8Z" transform="translate(-17.43 -0.69)"/><path class="cls-2" d="M38.89,21.51V34.63a3.25,3.25,0,0,1-.06.77,1.4,1.4,0,0,1-1.48,1,1.38,1.38,0,0,1-1.28-1.25c0-.45,0-.9,0-1.34V24.52a3.18,3.18,0,0,0,0-.62,1,1,0,0,0-1-.8,1,1,0,0,0-.88.93c0,.18,0,.37,0,.56V39.32c0,5,0,9.94,0,14.9a2.05,2.05,0,0,1-.9,1.92,1.88,1.88,0,0,1-2.9-1.39c0-.23,0-.48,0-.72V39.8a3.44,3.44,0,0,0,0-.72.87.87,0,0,0-.93-.72.85.85,0,0,0-.88.71,3.44,3.44,0,0,0,0,.72c0,4.82,0,9.64,0,14.46a2,2,0,0,1-1.11,2A1.87,1.87,0,0,1,24.67,55a4.4,4.4,0,0,1-.07-.89V24.14a1,1,0,1,0-1.9,0c0,.88,0,1.75,0,2.63,0,2.71,0,5.43,0,8.14a1.4,1.4,0,0,1-1.84,1.47,1.34,1.34,0,0,1-1-1.17c0-.15,0-.3,0-.44q0-6.7,0-13.4a4.72,4.72,0,0,1,3.77-4.8,5,5,0,0,1,1.16-.11c3.05,0,6.11,0,9.16,0a4.73,4.73,0,0,1,4.85,3.85A6.21,6.21,0,0,1,38.89,21.51Z" transform="translate(-17.43 -0.69)"/><path class="cls-2" d="M34.06,7.25A13.6,13.6,0,0,1,34,10.8a4.63,4.63,0,0,1-4.88,3.71,4.71,4.71,0,0,1-4.46-4.22c0-.49,0-1-.07-1.5l-.09,0a16.91,16.91,0,0,1,.44-2.56,4.72,4.72,0,0,1,9.13,1Z" transform="translate(-17.43 -0.69)"/><path class="cls-3" d="M25.91,58.35l-.19-.09a3.81,3.81,0,0,1-3-3.9q0-7.78,0-15.57v-.64a8.71,8.71,0,0,1-1.72.17A3.25,3.25,0,0,1,18,35c0-2.14,0-4.28,0-6.42,0-2.33.06-4.65,0-7a6.72,6.72,0,0,1,6.3-7,.83.83,0,0,0,.22,0,12.73,12.73,0,0,1-1.35-2.58c-.7-2.68-.85-5.39.79-7.84a6.58,6.58,0,0,1,7.37-2.61A6.68,6.68,0,0,1,36,7.67a10,10,0,0,1-.44,4.41,27.36,27.36,0,0,1-1.34,2.42c.38.05.84.09,1.29.19A6.54,6.54,0,0,1,40.77,21c.06,4.68,0,9.37,0,14.06a3.28,3.28,0,0,1-4.38,3.13l-.35-.1V53.69c0,2.73-.69,3.73-3.22,4.66H31.61l-2.22-1.07-2.25,1.07Z" transform="translate(-17.43 -0.69)"/><path class="cls-3" d="M34.15,39.32c0,5,0,9.94,0,14.9a2.05,2.05,0,0,1-.9,1.92,1.88,1.88,0,0,1-2.9-1.39c0-.23,0-.48,0-.72V39.8a3.44,3.44,0,0,0,0-.72.87.87,0,0,0-.93-.72.85.85,0,0,0-.88.71,3.44,3.44,0,0,0,0,.72c0,4.82,0,9.64,0,14.46a2,2,0,0,1-1.11,2A1.87,1.87,0,0,1,24.67,55a4.4,4.4,0,0,1-.07-.89V24.14a1,1,0,1,0-1.9,0c0,.88,0,1.75,0,2.63,0,2.71,0,5.43,0,8.14a1.4,1.4,0,0,1-1.84,1.47,1.34,1.34,0,0,1-1-1.17c0-.15,0-.3,0-.44q0-6.7,0-13.4a4.72,4.72,0,0,1,3.77-4.8,5,5,0,0,1,1.16-.11c3.05,0,6.11,0,9.16,0a4.73,4.73,0,0,1,4.85,3.85,6.21,6.21,0,0,1,.09,1.22V34.63a3.25,3.25,0,0,1-.06.77,1.4,1.4,0,0,1-1.48,1,1.38,1.38,0,0,1-1.28-1.25c0-.45,0-.9,0-1.34V24.52a3.18,3.18,0,0,0,0-.62,1,1,0,0,0-1-.8,1,1,0,0,0-.88.93c0,.18,0,.37,0,.56Z" transform="translate(-17.43 -0.69)"/><path class="cls-3" d="M24.49,8.77a16.91,16.91,0,0,1,.44-2.56,4.72,4.72,0,0,1,9.13,1A13.6,13.6,0,0,1,34,10.8a4.63,4.63,0,0,1-4.88,3.71,4.71,4.71,0,0,1-4.46-4.22c0-.49,0-1-.07-1.5Z" transform="translate(-17.43 -0.69)"/></svg>