<?xml version="1.0" encoding="utf-8"?>
<!-- Generator: Adobe Illustrator 25.4.1, SVG Export Plug-In . SVG Version: 6.00 Build 0)  -->
<svg version="1.1" id="Capa_1" xmlns="http://www.w3.org/2000/svg" xmlns:xlink="http://www.w3.org/1999/xlink" x="0px" y="0px"
	 viewBox="0 0 1456.3 316.2" style="enable-background:new 0 0 1456.3 316.2;" xml:space="preserve">
<style type="text/css">
	.st0{enable-background:new    ;}
	.st1{fill:#BF262D;}
	.st2{fill-rule:evenodd;clip-rule:evenodd;fill:#BF262D;}
</style>
<g class="st0">
	<path class="st1" d="M333.3,165.22c0-38.14,30.44-62.98,66.65-63.15c26.07,0,44.44,11.9,53.36,24.84l-23.27,17.14
		c-5.07-6.82-13.3-14-28.34-14c-18.02,0-33.59,13.82-33.59,35.16c0,21.17,15.22,34.46,33.41,34.46c17.67,0,25.19-8.22,29.22-14.35
		l22.39,15.57c-6.47,11.37-23.97,26.94-53.18,26.94C363.39,227.84,333.3,203.88,333.3,165.22z"/>
	<path class="st1" d="M466.6,103.64h62.45c28.52,0,46.01,19.07,46.01,43.56c0,16.79-8.57,31.31-23.44,38.31l27.64,40.59H539.9
		l-24.32-35.51h-14.17v35.51H466.6V103.64z M501.41,162.77h24.67c10.67,0,15.74-7.35,15.92-15.57c0-8.57-5.6-15.75-15.92-15.75
		h-24.67V162.77z"/>
	<path class="st1" d="M651.16,101.71c38.14,0,66.65,27.82,66.48,62.8c-0.17,35.51-28.52,63.68-66.48,63.5
		c-38.14-0.18-66.65-28.52-66.65-63.5C584.5,129.18,613.02,101.71,651.16,101.71z M651.16,198.46c17.49,0,31.66-15.04,31.66-33.94
		c0-18.72-14.17-33.06-31.66-33.06c-17.67,0-31.84,14.52-31.84,33.06C619.32,183.24,633.49,198.46,651.16,198.46z"/>
	<path class="st1" d="M767.14,103.64l48.28,66.65v-66.65h34.81V226.1H814.9l-48.11-66.83v66.83h-34.81V103.64H767.14z"/>
	<path class="st1" d="M906.04,226.1h-34.81V103.64h34.81V226.1z"/>
	<path class="st1" d="M921.43,165.22c0-38.14,30.44-62.98,66.65-63.15c26.07,0,44.44,11.9,53.36,24.84l-23.27,17.14
		c-5.07-6.82-13.3-14-28.34-14c-18.02,0-33.59,13.82-33.59,35.16c0,21.17,15.22,34.46,33.41,34.46c17.67,0,25.19-8.22,29.21-14.35
		l22.39,15.57c-6.47,11.37-23.97,26.94-53.18,26.94C951.52,227.84,921.43,203.88,921.43,165.22z"/>
	<path class="st1" d="M1108.79,101.71c38.14,0,66.65,27.82,66.48,62.8c-0.17,35.51-28.52,63.68-66.48,63.5
		c-38.14-0.18-66.65-28.52-66.65-63.5C1042.13,129.18,1070.65,101.71,1108.79,101.71z M1108.79,198.46
		c17.49,0,31.66-15.04,31.66-33.94c0-18.72-14.17-33.06-31.66-33.06c-17.67,0-31.84,14.52-31.84,33.06
		C1076.95,183.24,1091.12,198.46,1108.79,198.46z"/>
	<path class="st1" d="M1197.3,187.26c5.77,3.85,19.42,12.77,43.74,12.95c10.67,0,17.49-3.15,17.49-9.45c0-18.02-75.4-9.1-75.4-52.83
		c0-19.07,16.09-35.69,51.78-35.86c32.19,0,47.76,9.97,54.93,14.7l-14.17,23.62c-5.77-4.02-18.54-10.32-40.76-10.32
		c-13.3,0-16.97,3.67-16.97,7.52c0,15.92,75.75,6.82,75.4,50.21c-0.17,22.92-20.12,40.24-54.23,40.24
		c-32.54,0-51.08-12.07-56.68-15.75L1197.3,187.26z"/>
</g>
<g>
	<path class="st1" d="M698.2,53.5l-38.1,33.7l-18.4-13.6L673,35.3L698.2,53.5z"/>
</g>
<path class="st2" d="M159.6,289.8c63.1-32.6,133.4-86.8,145-160.3c13.2-83.1-60.3-141.5-125.8-71l-19.3,20.8l-19.2-20.8
	C75.1-12,1.5,46.4,14.5,129.3c1.1,7.2,2.8,14.2,5,21.1h38.2c2.2,0,4.3,1.1,5.5,2.9c0,0.1,0.1,0.1,0.1,0.2l12.3,19.6l7.7-33.8
	c0.5-2.5,2.4-4.5,4.9-5.1c1.7-0.4,3.6-0.1,5.1,0.8c1.5,0.9,2.6,2.5,2.9,4.2l8.7,40.4l9.2-90.5c0.2-3,2.4-5.4,5.3-6
	c0.4-0.1,0.8-0.1,1.3-0.1c3.2,0,5.9,2.2,6.5,5.3c0,0.1,0,0.3,0.1,0.4l9.4,67.9l2.3-2.4c1.3-1.2,2.9-2,4.7-2h15.9l9.6-24.8
	c0.6-1.8,2-3.2,3.7-3.9c1.7-0.7,3.7-0.6,5.4,0.2c1.5,0.7,2.7,2.1,3.3,3.7l10,25.2H283c3.6,0,6.6,3,6.6,6.6c0,3.7-3,6.6-6.6,6.6
	h-95.9c-2.3,0-4.4-1.2-5.6-3c-0.2-0.4-0.4-0.8-0.6-1.2l-5.4-13.8l-5.2,13.3c-1,2.6-3.4,4.3-6.2,4.3h-17.6l-9.6,9.9
	c-1.3,1.3-3,2.1-4.9,2.1l0,0c-1.5,0-3-0.5-4.1-1.5c-1.4-1.1-2.2-2.7-2.4-4.4l-3.7-26.7l-7.9,77.5c-0.3,3.4-3.2,6.1-6.6,6.1
	c-3,0-5.6-2.1-6.4-5c0-0.1,0-0.2,0-0.2l-11.2-52.1L85,191.6c-0.8,3.5-4.2,5.8-7.8,5.1c-0.6-0.1-1.1-0.3-1.6-0.5
	c-1.2-0.6-2.1-1.5-2.8-2.6l-18.8-30H24.5C48.7,219.9,106.7,262.4,159.6,289.8L159.6,289.8z"/>
</svg>
