<?xml version="1.0" encoding="utf-8"?>
<!-- Generator: Adobe Illustrator 23.0.4, SVG Export Plug-In . SVG Version: 6.00 Build 0)  -->
<svg version="1.1" xmlns="http://www.w3.org/2000/svg" xmlns:xlink="http://www.w3.org/1999/xlink" x="0px" y="0px"
	 viewBox="0 0 354.23 141.15" style="enable-background:new 0 0 354.23 141.15;" xml:space="preserve">
<style type="text/css">
	.st0{fill:#4A81BA;}
	.st1{fill:#8DBA3B;}
	.st2{fill:#CA312B;}
	.st3{fill:#EEA759;}
	.st4{fill:#794C85;}
	.st5{fill:#B12470;}
	.st6{fill:#FEEB13;}
	.st7{fill:#FFFFFF;}
	.st8{fill:#1E5A7C;}
	.st9{fill:#A9D0F5;}
	.st10{fill:#3366CC;}
</style>
<g id="Capa_1">
</g>
<g id="Capa_2">
	<g>
		<path class="st10" d="M120.34,68.72l-2.91,21.28c-0.12,0.83-0.49,1.48-1.12,1.94s-1.35,0.64-2.18,0.52
			c-0.82-0.12-1.47-0.49-1.94-1.13c-0.47-0.63-0.66-1.36-0.56-2.19l4.38-31.77c0.1-0.67,0.37-1.22,0.82-1.66
			c0.31-0.36,0.68-0.61,1.09-0.77c0.73-0.3,1.46-0.3,2.19,0c0.74,0.3,1.27,0.82,1.6,1.57l10.33,25.43l10.27-25.43
			c0.33-0.75,0.86-1.27,1.57-1.57s1.45-0.3,2.19,0l0.32,0.18c0.43,0.2,0.79,0.49,1.09,0.89c0.29,0.4,0.47,0.85,0.53,1.36l4.09,31.86
			c0.1,0.83-0.1,1.56-0.6,2.18s-1.15,0.98-1.96,1.08c-0.8,0.1-1.53-0.09-2.16-0.56s-1-1.13-1.1-1.96l-2.71-21.1l-8.89,21.9
			c-0.24,0.53-0.58,0.95-1.04,1.26c-0.46,0.31-0.96,0.48-1.49,0.52c-0.61,0.06-1.17-0.06-1.69-0.37c-0.52-0.31-0.92-0.78-1.19-1.41
			L120.34,68.72z"/>
		<path class="st10" d="M157.44,92.55c-0.78-0.06-1.43-0.36-1.94-0.9c-0.51-0.54-0.76-1.22-0.76-2.03V57.58
			c0-0.42,0.07-0.8,0.22-1.16c0.15-0.36,0.35-0.67,0.62-0.93c0.26-0.27,0.58-0.48,0.94-0.64s0.75-0.24,1.16-0.24h15.71
			c0.41,0,0.79,0.08,1.13,0.24c0.34,0.16,0.65,0.37,0.91,0.64c0.26,0.27,0.47,0.58,0.62,0.93c0.15,0.36,0.22,0.74,0.22,1.16
			c0,0.83-0.27,1.53-0.82,2.09c-0.55,0.56-1.24,0.84-2.06,0.84h-12.8v10.26h9.24c0.41-0.02,0.79,0.04,1.15,0.19
			c0.35,0.15,0.66,0.36,0.93,0.62s0.47,0.58,0.62,0.93c0.15,0.36,0.22,0.74,0.22,1.16c0,0.83-0.28,1.51-0.84,2.04
			c-0.56,0.53-1.25,0.8-2.07,0.8h-9.24v10.17h12.8c0.82,0,1.51,0.29,2.06,0.86c0.55,0.57,0.82,1.27,0.82,2.1
			c0,0.42-0.07,0.8-0.22,1.16c-0.15,0.36-0.35,0.67-0.62,0.93c-0.27,0.27-0.57,0.47-0.91,0.62c-0.34,0.15-0.72,0.21-1.13,0.19
			H157.44z"/>
		<path class="st10" d="M189.18,54.62c1.76,0,3.46,0.22,5.1,0.67c1.64,0.44,3.16,1.08,4.57,1.9s2.7,1.81,3.88,2.96s2.17,2.44,3,3.84
			c0.82,1.4,1.46,2.92,1.92,4.55c0.46,1.63,0.69,3.33,0.69,5.11s-0.23,3.48-0.69,5.1s-1.1,3.13-1.92,4.53
			c-0.82,1.4-1.82,2.67-3,3.81c-1.18,1.14-2.47,2.11-3.88,2.92s-2.93,1.44-4.57,1.88c-1.64,0.44-3.34,0.67-5.1,0.67h-6.47
			c-0.82,0-1.51-0.28-2.07-0.83c-0.56-0.55-0.84-1.24-0.84-2.07V57.52c0-0.83,0.28-1.52,0.84-2.07s1.25-0.83,2.07-0.83H189.18z
			 M189.36,60.57h-3.71v26.08h3.56c1.84,0,3.57-0.33,5.19-0.98c1.62-0.65,3.03-1.56,4.22-2.72c1.2-1.16,2.14-2.53,2.83-4.11
			c0.69-1.58,1.03-3.31,1.03-5.19c0-1.84-0.34-3.55-1.03-5.13c-0.69-1.58-1.62-2.96-2.79-4.12c-1.18-1.17-2.57-2.09-4.16-2.77
			S191.19,60.59,189.36,60.57z"/>
		<path class="st10" d="M217.87,89.65c0,0.83-0.28,1.52-0.85,2.07c-0.57,0.55-1.26,0.83-2.09,0.83c-0.82,0-1.51-0.28-2.07-0.83
			c-0.56-0.55-0.84-1.24-0.84-2.07V57.52c0-0.83,0.28-1.52,0.84-2.07c0.56-0.55,1.25-0.83,2.07-0.83c0.82,0,1.52,0.28,2.09,0.83
			c0.57,0.55,0.85,1.24,0.85,2.07V89.65z"/>
		<path class="st10" d="M254.5,61.02c0.14,0.36,0.21,0.72,0.21,1.08c0,0.37-0.07,0.73-0.21,1.08c-0.14,0.36-0.34,0.68-0.62,0.98
			c-0.29,0.28-0.62,0.49-0.99,0.64c-0.36,0.15-0.73,0.22-1.1,0.22c-0.37,0-0.74-0.06-1.1-0.19c-0.36-0.13-0.68-0.33-0.96-0.61
			c-1.33-1.34-2.81-2.33-4.43-2.96c-1.62-0.63-3.3-0.95-5.05-0.95c-1.8,0-3.51,0.35-5.1,1.04c-1.6,0.69-3,1.64-4.19,2.83
			c-1.2,1.2-2.14,2.6-2.84,4.22c-0.7,1.62-1.04,3.36-1.04,5.22c0,1.8,0.33,3.5,0.99,5.11c0.66,1.61,1.57,3.03,2.74,4.25
			c1.17,1.23,2.55,2.2,4.15,2.92c1.6,0.72,3.34,1.09,5.22,1.11c1.77,0,3.44-0.31,5.03-0.92c1.59-0.61,3.08-1.6,4.47-2.96
			c0.27-0.26,0.59-0.45,0.94-0.59c0.35-0.14,0.72-0.21,1.1-0.21s0.75,0.06,1.1,0.19c0.35,0.13,0.67,0.32,0.94,0.58
			c0.29,0.28,0.51,0.6,0.65,0.96c0.14,0.37,0.21,0.74,0.21,1.13c0,0.39-0.07,0.76-0.21,1.11c-0.14,0.36-0.33,0.67-0.59,0.95
			c-1.92,1.92-4.06,3.34-6.4,4.27c-2.34,0.93-4.76,1.39-7.25,1.39c-1.75,0-3.42-0.23-5.03-0.68c-1.61-0.45-3.12-1.1-4.53-1.94
			c-1.41-0.84-2.7-1.85-3.85-3.02c-1.16-1.18-2.15-2.48-2.97-3.9c-0.82-1.42-1.46-2.95-1.91-4.58c-0.45-1.63-0.68-3.33-0.68-5.11
			c0-1.68,0.22-3.33,0.65-4.95c0.43-1.62,1.04-3.14,1.84-4.56c0.79-1.42,1.76-2.74,2.9-3.94c1.14-1.21,2.41-2.24,3.82-3.11
			c1.41-0.87,2.95-1.55,4.62-2.03c1.67-0.48,3.42-0.73,5.27-0.73c2.47,0,4.88,0.47,7.22,1.42c2.34,0.95,4.46,2.38,6.34,4.3
			C254.15,60.35,254.37,60.66,254.5,61.02z"/>
		<path class="st10" d="M263.92,70.71h16.06V57.52c0-0.83,0.29-1.52,0.87-2.07c0.58-0.55,1.28-0.83,2.1-0.83
			c0.82,0,1.51,0.28,2.06,0.83c0.55,0.55,0.82,1.24,0.82,2.07v32.13c0,0.83-0.28,1.52-0.85,2.07c-0.57,0.55-1.27,0.83-2.09,0.83
			c-0.82,0-1.51-0.28-2.07-0.83c-0.56-0.55-0.84-1.24-0.84-2.07V76.61h-16.06v13.04c0,0.83-0.28,1.52-0.85,2.07
			c-0.57,0.55-1.26,0.83-2.09,0.83c-0.82,0-1.51-0.28-2.07-0.83c-0.56-0.55-0.84-1.24-0.84-2.07V57.52c0-0.83,0.28-1.52,0.84-2.07
			c0.56-0.55,1.25-0.83,2.07-0.83c0.82,0,1.52,0.28,2.09,0.83c0.57,0.55,0.85,1.24,0.85,2.07V70.71z"/>
		<path class="st10" d="M297.58,89.65c0,0.83-0.28,1.52-0.85,2.07c-0.57,0.55-1.26,0.83-2.09,0.83c-0.82,0-1.51-0.28-2.07-0.83
			c-0.56-0.55-0.84-1.24-0.84-2.07V57.52c0-0.83,0.28-1.52,0.84-2.07c0.56-0.55,1.25-0.83,2.07-0.83c0.82,0,1.52,0.28,2.09,0.83
			c0.57,0.55,0.85,1.24,0.85,2.07V89.65z"/>
		<path class="st10" d="M309.31,86.69l12.21,0.03c0.82,0,1.52,0.28,2.07,0.84c0.56,0.56,0.84,1.26,0.84,2.09
			c0,0.42-0.07,0.8-0.22,1.16c-0.15,0.36-0.35,0.67-0.62,0.93c-0.26,0.27-0.57,0.47-0.93,0.62c-0.35,0.15-0.74,0.21-1.15,0.19h-15.5
			l-0.24-0.06c-0.69-0.14-1.25-0.47-1.68-0.99c-0.43-0.52-0.65-1.14-0.65-1.85v-32.1c0-0.42,0.07-0.8,0.22-1.16
			c0.15-0.36,0.35-0.67,0.62-0.93s0.57-0.47,0.93-0.62c0.35-0.15,0.74-0.22,1.15-0.22s0.79,0.07,1.15,0.22
			c0.35,0.15,0.66,0.36,0.93,0.62s0.48,0.58,0.63,0.93c0.16,0.36,0.24,0.74,0.24,1.16V86.69z"/>
		<path class="st10" d="M329.64,92.55c-0.78-0.06-1.43-0.36-1.94-0.9c-0.51-0.54-0.76-1.22-0.76-2.03V57.58
			c0-0.42,0.07-0.8,0.22-1.16c0.15-0.36,0.35-0.67,0.62-0.93c0.26-0.27,0.58-0.48,0.94-0.64s0.75-0.24,1.16-0.24h15.71
			c0.41,0,0.79,0.08,1.13,0.24c0.34,0.16,0.65,0.37,0.91,0.64c0.26,0.27,0.47,0.58,0.62,0.93c0.15,0.36,0.22,0.74,0.22,1.16
			c0,0.83-0.27,1.53-0.82,2.09c-0.55,0.56-1.24,0.84-2.06,0.84h-12.8v10.26h9.24c0.41-0.02,0.79,0.04,1.15,0.19
			c0.35,0.15,0.66,0.36,0.93,0.62s0.47,0.58,0.62,0.93c0.15,0.36,0.22,0.74,0.22,1.16c0,0.83-0.28,1.51-0.84,2.04
			c-0.56,0.53-1.25,0.8-2.07,0.8h-9.24v10.17h12.8c0.82,0,1.51,0.29,2.06,0.86c0.55,0.57,0.82,1.27,0.82,2.1
			c0,0.42-0.07,0.8-0.22,1.16c-0.15,0.36-0.35,0.67-0.62,0.93c-0.27,0.27-0.57,0.47-0.91,0.62c-0.34,0.15-0.72,0.21-1.13,0.19
			H329.64z"/>
	</g>
	<ellipse class="st10" cx="51.74" cy="57.9" rx="5.94" ry="7.82"/>
	<path class="st10" d="M32.03,103.89c0,0,2.37-7.61,6.4-15.65c3.29-6.58,7.93-12.4,13.57-17.12c7.11-5.95,19.56-17.25,21.33-24.79
		c0,0,2.3,12.62-9.05,26.88c-1,1.25-1.41,2.87-1.18,4.45c1.29,8.71,4.6,37.45-5.42,50.63c0,0,4.07-18.46-0.94-25.34
		c0,0-11.26,26.28-19.4,28.78c0,0,14.92-21.49,10.95-42.31c-0.17-0.91-1.14-1.45-2-1.1C43.92,89.28,39.07,92.59,32.03,103.89z"/>
	<path class="st1" d="M4.5,62.59c0,0,8.76-10.64,18.77,0C23.27,62.59,14.51,72.6,4.5,62.59z"/>
	<path class="st2" d="M15.81,76.62c0,0,2.48-11.35,13.66-6.35C29.47,70.26,26.77,81.12,15.81,76.62z"/>
	<path class="st3" d="M17.19,43.78c0,0,10.72-3.11,11.63,8.63C28.82,52.41,18.41,55.1,17.19,43.78z"/>
	<path class="st2" d="M39.3,24.75c0,0,10.29,4.33,3.61,14.02C42.91,38.78,33.13,34.32,39.3,24.75z"/>
	<path class="st3" d="M69.81,24.49c0,0,5.22,9.87-6.09,13.14C63.72,37.63,58.98,27.98,69.81,24.49z"/>
	<path class="st4" d="M69.86,45.13c0,0,1.67,7.62-6.56,7.7C63.31,52.83,61.92,45.45,69.86,45.13z"/>
	<path class="st4" d="M99.99,49.04c0,0-1.07,5.77-6.8,3.42C93.19,52.46,94.39,46.94,99.99,49.04z"/>
	<path class="st5" d="M78.63,21.31c0,0,1.97,5.53-4.16,6.37C74.46,27.68,72.72,22.3,78.63,21.31z"/>
	<path class="st3" d="M65.15,15.87c0,0,3.41,4.78-2.26,7.27C62.89,23.14,59.75,18.44,65.15,15.87z"/>
	<path class="st4" d="M42.59,16.01c0,0,5.66,1.56,2.83,7.07C45.42,23.08,40.01,21.41,42.59,16.01z"/>
	<path class="st3" d="M29.13,21.58c0,0,5.87-0.13,4.74,5.96C33.87,27.54,28.21,27.5,29.13,21.58z"/>
	<path class="st1" d="M13.23,35.15c0,0,5.44-2.2,6.54,3.89C19.77,39.04,14.47,41,13.23,35.15z"/>
	<path class="st4" d="M7.36,49.39c0,0,5.08-2.94,7.02,2.93C14.39,52.33,9.41,55.02,7.36,49.39z"/>
	<path class="st5" d="M93.63,35.36c0,0-0.49,4.91-5.45,3.36C88.18,38.72,88.78,34,93.63,35.36z"/>
	<path class="st10" d="M12.51,70.82c0,0-1.2,4.79-5.89,2.52C6.62,73.33,7.92,68.76,12.51,70.82z"/>
	<path class="st4" d="M43.95,71.94c0,0,0.16,4.93-4.97,4.04C38.98,75.98,38.97,71.22,43.95,71.94z"/>
	<path class="st10" d="M32.06,96.97c0,0,0.16,4.93-4.97,4.04C27.09,101.01,27.08,96.25,32.06,96.97z"/>
	<path class="st4" d="M17.9,82.86c0,0-0.41,5.58-6.08,3.95C11.82,86.82,12.38,81.46,17.9,82.86z"/>
	<path class="st10" d="M95.51,86.35c0,0-4.65,1.65-5.36-3.51C90.16,82.84,94.68,81.38,95.51,86.35z"/>
	<path class="st5" d="M78.25,102.79c0,0-5.72,0.92-5.44-5.18C72.81,97.61,78.34,96.89,78.25,102.79z"/>
	<path class="st10" d="M79.33,66.81c0,0-4.56,1.88-5.53-3.23C73.8,63.58,78.25,61.89,79.33,66.81z"/>
	<path class="st5" d="M43.84,52.71c0,0-7.77,0.71-6.83-7.46C37.01,45.24,44.51,44.78,43.84,52.71z"/>
	<path class="st4" d="M31.56,65.31c0,0,4.14-7.22,10.71-1.4C42.27,63.9,38.08,70.74,31.56,65.31z"/>
	<path class="st1" d="M54.4,45.48c0,0-5.88-5.89,1.47-10.7C55.87,34.78,61.36,40.62,54.4,45.48z"/>
	<path class="st10" d="M20.49,26.3c0,0,13.75-0.9,12.86,13.68C33.35,39.98,20.06,40.45,20.49,26.3z"/>
	<g>
		<path class="st6" d="M18.69,96.17c0,0-2-13.09,11.95-12.34C30.64,83.83,32.19,96.48,18.69,96.17z"/>
		<path class="st6" d="M100.19,72.61c0,0-4.21,2.57-5.96-2.33C94.22,70.28,98.35,67.93,100.19,72.61z"/>
		<path class="st6" d="M71.11,81.34c0,0-4.65,1.65-5.36-3.51C65.75,77.83,70.28,76.38,71.11,81.34z"/>
		<path class="st6" d="M53.18,13.94c0,0,9.87,8.61-0.5,17.84C52.68,31.78,43.4,23.19,53.18,13.94z"/>
	</g>
	<path class="st1" d="M102.02,61.83c0,0-7.96,10.4-17.83,0.64C84.19,62.47,92.17,52.66,102.02,61.83z"/>
	<path class="st10" d="M89.75,96.39c0,0-12.98,1.79-13.12-12.1C76.63,84.29,89.2,82.94,89.75,96.39z"/>
	<path class="st3" d="M90.31,76.05c0,0-8.62,3.81-11.47-5.76C78.84,70.29,87.26,66.86,90.31,76.05z"/>
	<path class="st2" d="M89.68,43.45c0,0-0.59,11.17-12.25,9.05C77.43,52.51,78.31,41.75,89.68,43.45z"/>
	<path class="st1" d="M86.99,26.7c0,0,2.13,12.93-11.74,13.44C75.25,40.13,73.56,27.6,86.99,26.7z"/>
</g>
</svg>
